<svg width="370" height="1228" viewBox="0 0 370 1228" fill="none" xmlns="http://www.w3.org/2000/svg">
<path d="M72 0H60V1126H72V0Z" fill="#4857F6"/>
<path d="M310 0H298V1087H310V0Z" fill="#4857F6"/>
<rect x="15.1737" y="1053.85" width="339.352" height="174" fill="black"/>
<path d="M70.2742 1104.72L78.13 1076.1H83.2768L91.0744 1104.72H87.669L80.684 1078.25H80.7227L73.6797 1104.72H70.2742ZM74.3375 1097.16V1094.25H87.0692V1097.16H74.3375ZM94.3728 1104.72V1084.17H97.6622V1090.48L96.5786 1090.09C96.656 1089.33 96.8495 1088.59 97.1591 1087.85C97.4687 1087.1 97.8944 1086.43 98.4361 1085.84C98.9908 1085.23 99.6809 1084.75 100.506 1084.41C101.332 1084.04 102.3 1083.86 103.409 1083.86C104.234 1083.86 104.905 1083.93 105.421 1084.08C105.95 1084.21 106.279 1084.31 106.408 1084.39L105.557 1087.62C105.428 1087.53 105.163 1087.41 104.763 1087.27C104.376 1087.13 103.822 1087.06 103.099 1087.06C102.029 1087.06 101.139 1087.25 100.429 1087.64C99.7325 1088.02 99.1779 1088.54 98.7651 1089.18C98.3652 1089.82 98.0814 1090.51 97.9137 1091.26C97.746 1092 97.6622 1092.75 97.6622 1093.48V1104.72H94.3728ZM121.296 1103.46C122.405 1103.55 123.379 1103.76 124.218 1104.08C125.069 1104.39 125.733 1104.85 126.21 1105.46C126.688 1106.08 126.926 1106.88 126.926 1107.88C126.926 1108.97 126.552 1109.94 125.804 1110.78C125.056 1111.63 123.921 1112.29 122.399 1112.77C120.877 1113.25 118.961 1113.49 116.652 1113.49C113.389 1113.49 110.925 1113.01 109.261 1112.06C107.597 1111.11 106.765 1109.82 106.765 1108.19C106.765 1107.67 106.823 1107.21 106.939 1106.81C107.068 1106.42 107.21 1106.11 107.365 1105.86L110.499 1106.33C110.396 1106.47 110.293 1106.68 110.189 1106.97C110.099 1107.26 110.054 1107.61 110.054 1107.99C110.054 1109.02 110.641 1109.75 111.815 1110.16C112.989 1110.58 114.653 1110.8 116.807 1110.8C118.419 1110.8 119.741 1110.69 120.773 1110.47C121.805 1110.25 122.573 1109.93 123.076 1109.52C123.579 1109.11 123.831 1108.62 123.831 1108.07C123.831 1107.23 123.476 1106.71 122.766 1106.5C122.07 1106.31 121.206 1106.17 120.174 1106.1L112.357 1105.52C111.054 1105.41 109.99 1105.01 109.164 1104.32C108.351 1103.61 107.945 1102.75 107.945 1101.74C107.945 1101.12 108.093 1100.54 108.39 1099.98C108.7 1099.43 109.054 1098.96 109.454 1098.59C109.867 1098.2 110.235 1097.97 110.557 1097.89L113.15 1099.07C112.827 1099.12 112.428 1099.35 111.95 1099.75C111.486 1100.14 111.254 1100.59 111.254 1101.12C111.254 1101.6 111.441 1101.99 111.815 1102.3C112.189 1102.6 112.931 1102.79 114.04 1102.88L121.296 1103.46ZM124.14 1084.17H127.236L125.959 1092.26C125.727 1093.77 125.243 1095.14 124.508 1096.36C123.772 1097.58 122.766 1098.54 121.489 1099.27C120.225 1099.98 118.658 1100.33 116.787 1100.33C114.84 1100.33 113.176 1099.98 111.795 1099.27C110.415 1098.56 109.357 1097.59 108.622 1096.36C107.887 1095.13 107.519 1093.73 107.519 1092.18C107.519 1090.61 107.9 1089.2 108.661 1087.95C109.435 1086.68 110.506 1085.69 111.873 1084.97C113.24 1084.23 114.807 1083.86 116.575 1083.86C118.161 1083.86 119.548 1084.14 120.735 1084.7C121.921 1085.24 122.857 1085.92 123.54 1086.75C124.237 1087.57 124.624 1088.4 124.701 1089.24L123.463 1089.32L124.14 1084.17ZM116.768 1097.39C118.019 1097.39 119.09 1097.18 119.98 1096.77C120.883 1096.36 121.573 1095.76 122.05 1094.97C122.541 1094.18 122.786 1093.23 122.786 1092.11C122.786 1091.02 122.541 1090.09 122.05 1089.3C121.573 1088.5 120.883 1087.89 119.98 1087.46C119.09 1087.02 118.026 1086.8 116.787 1086.8C115.601 1086.8 114.549 1087.03 113.634 1087.48C112.731 1087.92 112.021 1088.54 111.505 1089.34C111.002 1090.14 110.751 1091.08 110.751 1092.16C110.751 1093.26 110.989 1094.2 111.467 1094.99C111.957 1095.76 112.647 1096.36 113.537 1096.77C114.44 1097.18 115.517 1097.39 116.768 1097.39ZM138.183 1105.09C136.712 1105.09 135.487 1104.84 134.506 1104.34C133.526 1103.82 132.746 1103.15 132.165 1102.34C131.598 1101.53 131.191 1100.65 130.946 1099.71C130.714 1098.76 130.598 1097.84 130.598 1096.96C130.598 1096.47 130.598 1095.97 130.598 1095.45C130.598 1094.93 130.598 1094.4 130.598 1093.87V1084.17H133.907V1093.44C133.907 1093.92 133.907 1094.39 133.907 1094.85C133.907 1095.32 133.907 1095.76 133.907 1096.17C133.907 1097.21 134.048 1098.18 134.332 1099.07C134.629 1099.96 135.138 1100.68 135.861 1101.24C136.583 1101.78 137.576 1102.05 138.841 1102.05C140.027 1102.05 141.066 1101.7 141.956 1100.99C142.846 1100.27 143.542 1099.37 144.045 1098.3C144.548 1097.21 144.8 1096.14 144.8 1095.07L146.716 1095.86C146.716 1097 146.516 1098.11 146.116 1099.21C145.716 1100.29 145.142 1101.28 144.394 1102.17C143.658 1103.06 142.762 1103.77 141.704 1104.3C140.659 1104.83 139.486 1105.09 138.183 1105.09ZM144.8 1104.72V1084.17H148.089V1104.72H144.8ZM165.276 1104.72V1095.65C165.276 1094.85 165.276 1094.16 165.276 1093.58C165.276 1092.98 165.276 1092.49 165.276 1092.09C165.276 1091.58 165.237 1091.04 165.159 1090.46C165.095 1089.87 164.934 1089.31 164.676 1088.8C164.418 1088.27 164.011 1087.84 163.457 1087.5C162.915 1087.17 162.16 1087 161.193 1087C160.213 1087 159.387 1087.19 158.716 1087.58C158.045 1087.95 157.504 1088.45 157.091 1089.07C156.678 1089.69 156.381 1090.37 156.201 1091.12C156.02 1091.86 155.93 1092.58 155.93 1093.31L154.072 1092.55C154.072 1091 154.395 1089.57 155.04 1088.26C155.685 1086.94 156.588 1085.88 157.749 1085.08C158.923 1084.27 160.296 1083.86 161.87 1083.86C163.431 1083.86 164.702 1084.18 165.682 1084.81C166.662 1085.44 167.385 1086.31 167.849 1087.42C168.313 1088.53 168.546 1089.81 168.546 1091.26C168.546 1091.77 168.546 1092.44 168.546 1093.25C168.546 1094.05 168.546 1094.96 168.546 1096V1104.72H165.276ZM152.641 1104.72V1084.17H155.93V1104.72H152.641ZM177.872 1104.72V1095.65C177.872 1094.77 177.872 1094.05 177.872 1093.48C177.872 1092.9 177.872 1092.41 177.872 1092.01C177.872 1091.51 177.84 1090.97 177.775 1090.38C177.711 1089.8 177.549 1089.26 177.291 1088.76C177.033 1088.24 176.621 1087.82 176.053 1087.5C175.498 1087.17 174.718 1087 173.712 1087C172.718 1087 171.886 1087.19 171.216 1087.56C170.558 1087.93 170.029 1088.42 169.629 1089.03C169.242 1089.64 168.965 1090.29 168.797 1091C168.629 1091.7 168.546 1092.37 168.546 1093.02L166.688 1092.3C166.688 1090.83 166.998 1089.46 167.617 1088.18C168.249 1086.89 169.139 1085.85 170.287 1085.06C171.448 1084.26 172.822 1083.86 174.408 1083.86C175.892 1083.86 177.13 1084.15 178.123 1084.73C179.129 1085.32 179.884 1086.13 180.387 1087.19C180.903 1088.24 181.161 1089.48 181.161 1090.93C181.161 1091.47 181.161 1092.14 181.161 1092.94C181.161 1093.74 181.161 1094.64 181.161 1095.65V1104.72H177.872ZM186.783 1095.76V1092.82H202.668L202.088 1093.79C202.088 1093.71 202.088 1093.64 202.088 1093.58C202.088 1093.5 202.088 1093.43 202.088 1093.36C202.088 1092.18 201.836 1091.09 201.333 1090.11C200.843 1089.12 200.108 1088.33 199.127 1087.73C198.147 1087.14 196.934 1086.84 195.49 1086.84C194.032 1086.84 192.749 1087.15 191.639 1087.77C190.53 1088.39 189.666 1089.27 189.046 1090.4C188.427 1091.53 188.118 1092.87 188.118 1094.43C188.118 1096.02 188.414 1097.38 189.008 1098.53C189.614 1099.68 190.472 1100.56 191.581 1101.18C192.69 1101.8 194.006 1102.11 195.528 1102.11C196.612 1102.11 197.554 1102 198.353 1101.78C199.153 1101.55 199.811 1101.25 200.327 1100.87C200.856 1100.48 201.256 1100.07 201.527 1099.61C201.797 1099.16 201.959 1098.71 202.01 1098.26H205.3C205.235 1099.09 204.977 1099.9 204.526 1100.72C204.074 1101.53 203.436 1102.27 202.61 1102.94C201.785 1103.6 200.772 1104.13 199.572 1104.53C198.373 1104.93 196.992 1105.13 195.432 1105.13C193.368 1105.13 191.549 1104.68 189.975 1103.77C188.401 1102.87 187.163 1101.62 186.26 1100.02C185.37 1098.42 184.925 1096.58 184.925 1094.51C184.925 1092.4 185.377 1090.56 186.28 1088.97C187.182 1087.37 188.427 1086.12 190.014 1085.22C191.6 1084.32 193.413 1083.86 195.451 1083.86C197.528 1083.86 199.327 1084.32 200.849 1085.22C202.371 1086.12 203.545 1087.36 204.371 1088.93C205.196 1090.49 205.609 1092.27 205.609 1094.27C205.609 1094.48 205.603 1094.75 205.59 1095.09C205.577 1095.42 205.558 1095.65 205.532 1095.76H186.783ZM224.28 1104.72V1094.87C224.28 1094.28 224.28 1093.8 224.28 1093.42C224.28 1093.04 224.28 1092.67 224.28 1092.32C224.28 1091.25 224.1 1090.31 223.739 1089.51C223.377 1088.71 222.81 1088.09 222.036 1087.66C221.262 1087.22 220.249 1087 218.998 1087C217.902 1087 216.883 1087.28 215.941 1087.85C215.012 1088.4 214.264 1089.16 213.696 1090.11C213.142 1091.06 212.864 1092.11 212.864 1093.29L210.988 1092.57C210.988 1090.96 211.381 1089.49 212.168 1088.18C212.968 1086.86 214.025 1085.82 215.341 1085.04C216.67 1084.26 218.114 1083.86 219.675 1083.86C221.262 1083.86 222.649 1084.17 223.835 1084.77C225.022 1085.38 225.938 1086.25 226.583 1087.39C227.241 1088.51 227.57 1089.86 227.57 1091.45C227.57 1092.02 227.57 1092.64 227.57 1093.31C227.57 1093.98 227.57 1094.6 227.57 1095.18V1104.72H224.28ZM209.575 1104.72V1084.17H212.864V1104.72H209.575ZM239.707 1105.03C239.075 1105.03 238.455 1104.96 237.849 1104.82C237.243 1104.68 236.695 1104.43 236.205 1104.06C235.727 1103.69 235.347 1103.17 235.063 1102.5C234.779 1101.81 234.637 1100.94 234.637 1099.87C234.637 1099.59 234.637 1099.32 234.637 1099.03C234.637 1098.74 234.637 1098.43 234.637 1098.1V1087.08H229.626V1084.17H232.838C233.276 1084.17 233.618 1084.16 233.863 1084.13C234.108 1084.1 234.283 1084.01 234.386 1083.88C234.502 1083.74 234.573 1083.53 234.599 1083.24C234.624 1082.95 234.637 1082.54 234.637 1082.03V1077.36H237.946V1084.17H244.37V1087.08H237.946V1097.04C237.946 1097.32 237.946 1097.6 237.946 1097.87C237.946 1098.14 237.946 1098.4 237.946 1098.63C237.946 1099.72 238.075 1100.58 238.333 1101.2C238.604 1101.82 239.204 1102.13 240.132 1102.13C240.506 1102.13 240.861 1102.1 241.197 1102.03C241.532 1101.97 241.783 1101.9 241.951 1101.84V1104.7C241.732 1104.78 241.422 1104.85 241.022 1104.92C240.635 1104.99 240.197 1105.03 239.707 1105.03ZM255.01 1105.09C253.539 1105.09 252.314 1104.84 251.334 1104.34C250.353 1103.82 249.573 1103.15 248.992 1102.34C248.425 1101.53 248.018 1100.65 247.773 1099.71C247.541 1098.76 247.425 1097.84 247.425 1096.96C247.425 1096.47 247.425 1095.97 247.425 1095.45C247.425 1094.93 247.425 1094.4 247.425 1093.87V1084.17H250.734V1093.44C250.734 1093.92 250.734 1094.39 250.734 1094.85C250.734 1095.32 250.734 1095.76 250.734 1096.17C250.734 1097.21 250.876 1098.18 251.159 1099.07C251.456 1099.96 251.966 1100.68 252.688 1101.24C253.41 1101.78 254.404 1102.05 255.668 1102.05C256.855 1102.05 257.893 1101.7 258.783 1100.99C259.673 1100.27 260.37 1099.37 260.873 1098.3C261.376 1097.21 261.627 1096.14 261.627 1095.07L263.543 1095.86C263.543 1097 263.343 1098.11 262.943 1099.21C262.543 1100.29 261.969 1101.28 261.221 1102.17C260.486 1103.06 259.589 1103.77 258.531 1104.3C257.487 1104.83 256.313 1105.09 255.01 1105.09ZM261.627 1104.72V1084.17H264.917V1104.72H261.627ZM282.103 1104.72V1095.65C282.103 1094.85 282.103 1094.16 282.103 1093.58C282.103 1092.98 282.103 1092.49 282.103 1092.09C282.103 1091.58 282.064 1091.04 281.987 1090.46C281.922 1089.87 281.761 1089.31 281.503 1088.8C281.245 1088.27 280.839 1087.84 280.284 1087.5C279.742 1087.17 278.988 1087 278.02 1087C277.04 1087 276.214 1087.19 275.544 1087.58C274.873 1087.95 274.331 1088.45 273.918 1089.07C273.505 1089.69 273.209 1090.37 273.028 1091.12C272.848 1091.86 272.757 1092.58 272.757 1093.31L270.9 1092.55C270.9 1091 271.222 1089.57 271.867 1088.26C272.512 1086.94 273.415 1085.88 274.576 1085.08C275.75 1084.27 277.124 1083.86 278.697 1083.86C280.258 1083.86 281.529 1084.18 282.509 1084.81C283.49 1085.44 284.212 1086.31 284.676 1087.42C285.141 1088.53 285.373 1089.81 285.373 1091.26C285.373 1091.77 285.373 1092.44 285.373 1093.25C285.373 1094.05 285.373 1094.96 285.373 1096V1104.72H282.103ZM269.468 1104.72V1084.17H272.757V1104.72H269.468ZM294.699 1104.72V1095.65C294.699 1094.77 294.699 1094.05 294.699 1093.48C294.699 1092.9 294.699 1092.41 294.699 1092.01C294.699 1091.51 294.667 1090.97 294.602 1090.38C294.538 1089.8 294.377 1089.26 294.119 1088.76C293.861 1088.24 293.448 1087.82 292.88 1087.5C292.326 1087.17 291.545 1087 290.539 1087C289.546 1087 288.714 1087.19 288.043 1087.56C287.385 1087.93 286.856 1088.42 286.456 1089.03C286.069 1089.64 285.792 1090.29 285.624 1091C285.457 1091.7 285.373 1092.37 285.373 1093.02L283.515 1092.3C283.515 1090.83 283.825 1089.46 284.444 1088.18C285.076 1086.89 285.966 1085.85 287.114 1085.06C288.275 1084.26 289.649 1083.86 291.236 1083.86C292.719 1083.86 293.957 1084.15 294.951 1084.73C295.957 1085.32 296.711 1086.13 297.214 1087.19C297.73 1088.24 297.988 1089.48 297.988 1090.93C297.988 1091.47 297.988 1092.14 297.988 1092.94C297.988 1093.74 297.988 1094.64 297.988 1095.65V1104.72H294.699ZM74.2423 1152.72L82.098 1124.1H87.2449L95.0425 1152.72H91.6371L84.6521 1126.25H84.6908L77.6477 1152.72H74.2423ZM78.3056 1145.16V1142.25H91.0373V1145.16H78.3056ZM106.513 1153.11C104.824 1153.11 103.276 1152.7 101.87 1151.89C100.464 1151.06 99.3414 1149.86 98.503 1148.27C97.6645 1146.67 97.2453 1144.72 97.2453 1142.43C97.2453 1140.17 97.671 1138.26 98.5223 1136.68C99.3737 1135.11 100.502 1133.91 101.908 1133.1C103.314 1132.28 104.849 1131.86 106.513 1131.86C108.1 1131.86 109.584 1132.24 110.964 1133.01C112.357 1133.75 113.479 1134.8 114.33 1136.14C115.182 1137.48 115.608 1139.04 115.608 1140.8C115.608 1140.84 115.608 1140.88 115.608 1140.92C115.608 1140.96 115.608 1141 115.608 1141.04L113.247 1141.13C113.247 1141.09 113.247 1141.05 113.247 1141.02C113.247 1140.96 113.247 1140.92 113.247 1140.88C113.247 1139.76 112.95 1138.75 112.357 1137.84C111.776 1136.94 111.009 1136.22 110.054 1135.7C109.1 1135.15 108.074 1134.88 106.978 1134.88C105.146 1134.88 103.63 1135.5 102.431 1136.74C101.231 1137.97 100.631 1139.86 100.631 1142.43C100.631 1144.98 101.231 1146.89 102.431 1148.14C103.643 1149.37 105.159 1149.99 106.978 1149.99C108.126 1149.99 109.171 1149.72 110.112 1149.16C111.067 1148.61 111.828 1147.87 112.396 1146.94C112.963 1146 113.247 1144.94 113.247 1143.78L115.608 1143.84C115.608 1145.6 115.201 1147.18 114.389 1148.58C113.576 1149.97 112.479 1151.08 111.099 1151.89C109.732 1152.7 108.203 1153.11 106.513 1153.11ZM113.247 1152.72V1122.48H116.556V1152.72H113.247ZM148.827 1124.18V1152.72H145.518V1138.29L147.008 1139.93H131.277L132.767 1138.29V1152.72H129.459V1124.18H132.767V1138.77L131.277 1137.03H147.008L145.518 1138.77V1124.18H148.827ZM163.091 1153.09C161.027 1153.09 159.202 1152.63 157.615 1151.72C156.042 1150.79 154.803 1149.52 153.9 1147.92C153.01 1146.31 152.565 1144.48 152.565 1142.43C152.565 1140.38 153.01 1138.56 153.9 1136.97C154.803 1135.39 156.042 1134.14 157.615 1133.24C159.202 1132.33 161.027 1131.88 163.091 1131.88C165.155 1131.88 166.974 1132.33 168.548 1133.24C170.134 1134.14 171.373 1135.39 172.263 1136.97C173.166 1138.56 173.617 1140.38 173.617 1142.43C173.617 1144.48 173.166 1146.31 172.263 1147.92C171.373 1149.52 170.134 1150.79 168.548 1151.72C166.974 1152.63 165.155 1153.09 163.091 1153.09ZM163.091 1150.07C164.51 1150.07 165.761 1149.76 166.845 1149.12C167.928 1148.49 168.773 1147.6 169.38 1146.45C169.999 1145.31 170.308 1143.96 170.308 1142.43C170.308 1140.89 169.999 1139.56 169.38 1138.44C168.773 1137.31 167.928 1136.44 166.845 1135.83C165.761 1135.21 164.51 1134.9 163.091 1134.9C161.685 1134.9 160.434 1135.21 159.338 1135.83C158.254 1136.44 157.403 1137.31 156.783 1138.44C156.177 1139.56 155.874 1140.89 155.874 1142.43C155.874 1143.96 156.177 1145.31 156.783 1146.45C157.403 1147.6 158.254 1148.49 159.338 1149.12C160.434 1149.76 161.685 1150.07 163.091 1150.07ZM190.228 1152.72V1143.65C190.228 1142.85 190.228 1142.16 190.228 1141.58C190.228 1140.98 190.228 1140.49 190.228 1140.09C190.228 1139.58 190.19 1139.04 190.112 1138.46C190.048 1137.87 189.886 1137.31 189.628 1136.8C189.37 1136.27 188.964 1135.84 188.409 1135.5C187.868 1135.17 187.113 1135 186.146 1135C185.165 1135 184.34 1135.19 183.669 1135.58C182.998 1135.95 182.456 1136.45 182.044 1137.07C181.631 1137.69 181.334 1138.37 181.154 1139.12C180.973 1139.86 180.883 1140.58 180.883 1141.31L179.025 1140.55C179.025 1139 179.348 1137.57 179.993 1136.26C180.638 1134.94 181.541 1133.88 182.701 1133.08C183.875 1132.27 185.249 1131.86 186.823 1131.86C188.384 1131.86 189.654 1132.18 190.635 1132.81C191.615 1133.44 192.337 1134.31 192.802 1135.42C193.266 1136.53 193.498 1137.81 193.498 1139.26C193.498 1139.77 193.498 1140.44 193.498 1141.25C193.498 1142.05 193.498 1142.96 193.498 1144V1152.72H190.228ZM177.593 1152.72V1132.17H180.883V1152.72H177.593ZM202.824 1152.72V1143.65C202.824 1142.77 202.824 1142.05 202.824 1141.48C202.824 1140.9 202.824 1140.41 202.824 1140.01C202.824 1139.51 202.792 1138.97 202.728 1138.38C202.663 1137.8 202.502 1137.26 202.244 1136.76C201.986 1136.24 201.573 1135.82 201.006 1135.5C200.451 1135.17 199.671 1135 198.664 1135C197.671 1135 196.839 1135.19 196.168 1135.56C195.511 1135.93 194.982 1136.42 194.582 1137.03C194.195 1137.64 193.917 1138.29 193.75 1139C193.582 1139.7 193.498 1140.37 193.498 1141.02L191.641 1140.3C191.641 1138.83 191.95 1137.46 192.569 1136.18C193.202 1134.89 194.092 1133.85 195.24 1133.06C196.401 1132.26 197.774 1131.86 199.361 1131.86C200.844 1131.86 202.083 1132.15 203.076 1132.73C204.082 1133.32 204.837 1134.13 205.34 1135.19C205.856 1136.24 206.114 1137.48 206.114 1138.93C206.114 1139.47 206.114 1140.14 206.114 1140.94C206.114 1141.74 206.114 1142.64 206.114 1143.65V1152.72H202.824ZM210.865 1152.72V1132.17H214.115V1152.72H210.865ZM212.509 1127.45C211.903 1127.45 211.374 1127.28 210.923 1126.95C210.484 1126.6 210.265 1126.13 210.265 1125.54C210.265 1124.96 210.484 1124.5 210.923 1124.16C211.374 1123.81 211.903 1123.64 212.509 1123.64C213.115 1123.64 213.638 1123.81 214.076 1124.16C214.515 1124.5 214.734 1124.96 214.734 1125.54C214.734 1126.13 214.515 1126.6 214.076 1126.95C213.638 1127.28 213.115 1127.45 212.509 1127.45ZM233.777 1152.72V1142.87C233.777 1142.28 233.777 1141.8 233.777 1141.42C233.777 1141.04 233.777 1140.67 233.777 1140.32C233.777 1139.25 233.596 1138.31 233.235 1137.51C232.874 1136.71 232.306 1136.09 231.532 1135.66C230.758 1135.22 229.745 1135 228.494 1135C227.398 1135 226.379 1135.28 225.437 1135.85C224.508 1136.4 223.76 1137.16 223.193 1138.11C222.638 1139.06 222.361 1140.11 222.361 1141.29L220.484 1140.57C220.484 1138.96 220.877 1137.49 221.664 1136.18C222.464 1134.86 223.522 1133.82 224.837 1133.04C226.166 1132.26 227.611 1131.86 229.171 1131.86C230.758 1131.86 232.145 1132.17 233.332 1132.77C234.518 1133.38 235.434 1134.25 236.079 1135.39C236.737 1136.51 237.066 1137.86 237.066 1139.45C237.066 1140.02 237.066 1140.64 237.066 1141.31C237.066 1141.98 237.066 1142.6 237.066 1143.18V1152.72H233.777ZM219.071 1152.72V1132.17H222.361V1152.72H219.071ZM242.707 1143.76V1140.82H258.593L258.012 1141.79C258.012 1141.71 258.012 1141.64 258.012 1141.58C258.012 1141.5 258.012 1141.43 258.012 1141.36C258.012 1140.18 257.761 1139.09 257.258 1138.11C256.768 1137.12 256.032 1136.33 255.052 1135.73C254.072 1135.14 252.859 1134.84 251.414 1134.84C249.957 1134.84 248.673 1135.15 247.564 1135.77C246.455 1136.39 245.59 1137.27 244.971 1138.4C244.352 1139.53 244.042 1140.87 244.042 1142.43C244.042 1144.02 244.339 1145.38 244.932 1146.53C245.539 1147.68 246.397 1148.56 247.506 1149.18C248.615 1149.8 249.931 1150.11 251.453 1150.11C252.537 1150.11 253.478 1150 254.278 1149.78C255.078 1149.55 255.736 1149.25 256.252 1148.87C256.78 1148.48 257.18 1148.07 257.451 1147.61C257.722 1147.16 257.883 1146.71 257.935 1146.26H261.224C261.16 1147.09 260.902 1147.9 260.45 1148.72C259.999 1149.53 259.36 1150.27 258.535 1150.94C257.709 1151.6 256.697 1152.13 255.497 1152.53C254.297 1152.93 252.917 1153.13 251.356 1153.13C249.292 1153.13 247.474 1152.68 245.9 1151.77C244.326 1150.87 243.088 1149.62 242.185 1148.02C241.295 1146.42 240.85 1144.58 240.85 1142.51C240.85 1140.4 241.301 1138.56 242.204 1136.97C243.107 1135.37 244.352 1134.12 245.939 1133.22C247.525 1132.32 249.338 1131.86 251.376 1131.86C253.452 1131.86 255.252 1132.32 256.774 1133.22C258.296 1134.12 259.47 1135.36 260.296 1136.93C261.121 1138.49 261.534 1140.27 261.534 1142.27C261.534 1142.48 261.527 1142.75 261.515 1143.09C261.502 1143.42 261.482 1143.65 261.457 1143.76H242.707ZM278.135 1152.72V1143.65C278.135 1142.85 278.135 1142.16 278.135 1141.58C278.135 1140.98 278.135 1140.49 278.135 1140.09C278.135 1139.58 278.096 1139.04 278.019 1138.46C277.954 1137.87 277.793 1137.31 277.535 1136.8C277.277 1136.27 276.871 1135.84 276.316 1135.5C275.774 1135.17 275.02 1135 274.052 1135C273.072 1135 272.246 1135.19 271.575 1135.58C270.905 1135.95 270.363 1136.45 269.95 1137.07C269.537 1137.69 269.241 1138.37 269.06 1139.12C268.879 1139.86 268.789 1140.58 268.789 1141.31L266.932 1140.55C266.932 1139 267.254 1137.57 267.899 1136.26C268.544 1134.94 269.447 1133.88 270.608 1133.08C271.782 1132.27 273.156 1131.86 274.729 1131.86C276.29 1131.86 277.561 1132.18 278.541 1132.81C279.521 1133.44 280.244 1134.31 280.708 1135.42C281.173 1136.53 281.405 1137.81 281.405 1139.26C281.405 1139.77 281.405 1140.44 281.405 1141.25C281.405 1142.05 281.405 1142.96 281.405 1144V1152.72H278.135ZM265.5 1152.72V1132.17H268.789V1152.72H265.5ZM290.731 1152.72V1143.65C290.731 1142.77 290.731 1142.05 290.731 1141.48C290.731 1140.9 290.731 1140.41 290.731 1140.01C290.731 1139.51 290.699 1138.97 290.634 1138.38C290.57 1137.8 290.409 1137.26 290.151 1136.76C289.893 1136.24 289.48 1135.82 288.912 1135.5C288.358 1135.17 287.577 1135 286.571 1135C285.578 1135 284.746 1135.19 284.075 1135.56C283.417 1135.93 282.888 1136.42 282.488 1137.03C282.101 1137.64 281.824 1138.29 281.656 1139C281.489 1139.7 281.405 1140.37 281.405 1141.02L279.547 1140.3C279.547 1138.83 279.857 1137.46 280.476 1136.18C281.108 1134.89 281.998 1133.85 283.146 1133.06C284.307 1132.26 285.681 1131.86 287.268 1131.86C288.751 1131.86 289.989 1132.15 290.983 1132.73C291.989 1133.32 292.743 1134.13 293.246 1135.19C293.762 1136.24 294.02 1137.48 294.02 1138.93C294.02 1139.47 294.02 1140.14 294.02 1140.94C294.02 1141.74 294.02 1142.64 294.02 1143.65V1152.72H290.731Z" fill="white"/>
<path d="M8.88563 1026.76L7.04763 1012.52C6.69637 1009.8 -1.43981 945.403 7.33354 907.377C12.0551 886.906 7.08848 833.269 3.79643 797.783C1.63168 774.437 -0.0756145 756.008 0.357335 745.993C1.22323 726.102 2.8325 689.072 34.7728 668.813C46.8463 661.159 66.7048 656.34 87.7315 651.242C97.9671 648.759 108.554 646.194 117.009 643.514C125.439 640.835 129.025 638.891 130.397 637.992C132.342 631.645 130.299 622.757 127.955 612.571C126.517 606.313 125.031 599.852 124.246 592.99C124.034 591.119 123.045 587.141 122.082 583.285C119.026 570.999 114.403 552.44 116.78 534.436C119.95 510.403 134.49 493.477 158.825 485.471C167.223 482.71 175.98 481.313 184.843 481.313C193.706 481.313 202.463 482.71 210.861 485.471C235.196 493.469 249.736 510.403 252.906 534.436C255.283 552.44 250.668 570.999 247.613 583.285C246.657 587.133 245.66 591.119 245.448 592.99C244.664 599.852 243.177 606.322 241.739 612.579C239.403 622.757 237.361 631.645 239.297 637.992C240.669 638.891 244.255 640.835 252.685 643.514C261.132 646.194 271.719 648.767 281.963 651.242C302.989 656.34 322.856 661.159 334.921 668.813C366.862 689.064 368.471 726.102 369.337 745.993C369.77 756 368.062 774.429 365.898 797.767C362.606 833.261 357.631 886.898 362.361 907.369C371.134 945.395 362.998 1009.79 362.646 1012.51L360.808 1026.76H8.88563V1026.76Z" fill="#FF4C91"/>
<path d="M353.024 746.703C351.929 721.502 348.645 696.857 326.181 682.61C303.724 668.364 231.961 662.344 224.838 645.908C217.715 629.472 227.027 610.3 229.216 591.127C231.177 573.948 256.443 517.648 205.763 500.992C192.203 496.532 177.491 496.532 163.931 500.992C113.251 517.657 138.509 573.956 140.478 591.127C142.667 610.3 151.98 629.472 144.856 645.908C137.733 662.344 65.9779 668.364 43.5135 682.61C21.0573 696.857 17.7652 721.502 16.6706 746.703C15.576 771.904 31.4644 875.436 23.2465 911.036C15.0286 946.644 23.2465 1010.42 23.2465 1010.42H346.439C346.439 1010.42 354.657 946.644 346.439 911.036C338.222 875.428 354.11 771.896 353.015 746.703H353.024Z" fill="#F4F4F4"/>
<path d="M184.41 1002.63C167.027 1002.63 150.117 998.795 134.147 991.238C118.765 983.96 104.976 973.569 93.1556 960.344C81.3353 947.118 72.0391 931.687 65.5367 914.484C58.781 896.618 55.3583 877.699 55.3583 858.249V809.154C55.3583 789.712 58.781 770.793 65.5367 752.92C72.0391 735.716 81.3353 720.285 93.1556 707.06C104.976 693.834 118.765 683.444 134.147 676.165C150.117 668.609 167.027 664.778 184.41 664.778C201.793 664.778 218.703 668.609 234.673 676.165C250.055 683.444 263.844 693.834 275.664 707.06C287.485 720.285 296.773 735.708 303.283 752.92C310.039 770.793 313.462 789.712 313.462 809.154V858.249C313.462 877.691 310.039 896.61 303.283 914.484C296.781 931.687 287.485 947.118 275.664 960.344C263.844 973.569 250.047 983.968 234.673 991.238C218.703 998.795 201.785 1002.63 184.41 1002.63Z" fill="#F4F4F4" stroke="#FF4C91" stroke-width="2.18297" stroke-miterlimit="10"/>
<path d="M184.41 966.748C171.348 966.748 158.637 963.873 146.637 958.195C135.078 952.73 124.712 944.913 115.832 934.971C106.945 925.03 99.9602 913.43 95.0753 900.507C90.0024 887.085 87.4292 872.871 87.4292 858.249V809.154C87.4292 794.54 90.0024 780.318 95.0753 766.897C99.9602 753.966 106.945 742.374 115.832 732.432C124.72 722.491 135.086 714.681 146.637 709.208C158.637 703.531 171.34 700.656 184.41 700.656C197.48 700.656 210.183 703.531 222.183 709.208C233.742 714.673 244.108 722.491 252.988 732.432C261.875 742.374 268.86 753.966 273.745 766.897C278.817 780.318 281.391 794.54 281.391 809.154V858.249C281.391 872.863 278.817 887.085 273.745 900.507C268.86 913.43 261.875 925.03 252.988 934.971C244.1 944.913 233.734 952.73 222.183 958.195C210.183 963.873 197.48 966.748 184.41 966.748Z" fill="#F4F4F4" stroke="#FF4C91" stroke-width="2.18297" stroke-miterlimit="10"/>
<path d="M184.41 930.87C175.661 930.87 167.157 928.942 159.136 925.152C151.4 921.492 144.464 916.264 138.509 909.607C132.554 902.949 127.882 895.189 124.614 886.538C121.224 877.56 119.5 868.043 119.5 858.257V809.162C119.5 799.376 121.224 789.859 124.614 780.882C127.882 772.231 132.562 764.47 138.509 757.813C144.464 751.155 151.4 745.927 159.136 742.268C167.157 738.469 175.661 736.549 184.41 736.549C193.159 736.549 201.663 738.477 209.685 742.268C217.42 745.927 224.356 751.155 230.311 757.813C236.266 764.47 240.939 772.231 244.206 780.882C247.596 789.859 249.32 799.376 249.32 809.162V858.257C249.32 868.043 247.596 877.56 244.206 886.538C240.939 895.189 236.258 902.949 230.311 909.607C224.356 916.264 217.42 921.492 209.685 925.152C201.663 928.951 193.159 930.87 184.41 930.87Z" fill="#F4F4F4" stroke="#FF4C91" stroke-width="2.18297" stroke-miterlimit="10"/>
<path d="M184.41 664.77V1002.63" stroke="#FF4C91" stroke-width="2.73863" stroke-miterlimit="10"/>
<path d="M313.47 833.694H55.3583" stroke="#FF4C91" stroke-width="2.39134" stroke-miterlimit="10"/>
<path d="M217.257 805.25C217.257 787.109 202.553 772.403 184.414 772.403C166.275 772.403 151.571 787.109 151.571 805.25V862.138C151.571 880.278 166.275 894.985 184.414 894.985C202.553 894.985 217.257 880.278 217.257 862.138V805.25Z" fill="#4857F6" stroke="#FF4C91" stroke-width="2.18297" stroke-miterlimit="10"/>
<path d="M190.855 752.299V746.311L189.475 747.063V745.813L191.239 744.849H192.342V752.299H193.567V753.41H189.524V752.299H190.855Z" fill="#FF4C91"/>
<path d="M194.662 749.097C194.662 748.419 194.719 747.806 194.842 747.259C194.964 746.711 195.144 746.238 195.389 745.845C195.634 745.453 195.944 745.151 196.328 744.939C196.712 744.726 197.153 744.62 197.668 744.62C198.183 744.62 198.608 744.726 198.983 744.931C199.359 745.135 199.661 745.437 199.906 745.821C200.151 746.205 200.331 746.679 200.446 747.234C200.56 747.79 200.625 748.41 200.625 749.105C200.625 749.799 200.568 750.445 200.454 751C200.339 751.556 200.16 752.021 199.915 752.397C199.669 752.773 199.359 753.067 198.983 753.263C198.608 753.459 198.158 753.557 197.644 753.557C197.129 753.557 196.688 753.459 196.312 753.263C195.936 753.067 195.626 752.781 195.389 752.397C195.152 752.013 194.964 751.556 194.85 751C194.736 750.445 194.678 749.816 194.678 749.105L194.662 749.097ZM197.652 752.372C197.864 752.372 198.044 752.332 198.191 752.242C198.338 752.152 198.469 752.029 198.567 751.874C198.665 751.719 198.755 751.531 198.812 751.31C198.869 751.09 198.918 750.861 198.951 750.616C198.983 750.371 199.008 750.11 199.016 749.84C199.024 749.57 199.032 749.301 199.032 749.023C199.032 748.77 199.032 748.517 199.024 748.255C199.016 747.994 199 747.749 198.967 747.512C198.934 747.275 198.893 747.046 198.836 746.842C198.779 746.638 198.697 746.45 198.599 746.295C198.501 746.14 198.371 746.017 198.224 745.927C198.077 745.837 197.889 745.796 197.676 745.796C197.464 745.796 197.268 745.837 197.113 745.927C196.957 746.017 196.827 746.131 196.721 746.287C196.614 746.442 196.533 746.621 196.467 746.826C196.402 747.03 196.353 747.259 196.32 747.504C196.288 747.749 196.263 748.002 196.255 748.272C196.247 748.541 196.239 748.803 196.239 749.072C196.239 749.342 196.239 749.603 196.255 749.873C196.271 750.142 196.288 750.396 196.32 750.641C196.353 750.886 196.402 751.114 196.467 751.327C196.533 751.539 196.614 751.719 196.712 751.874C196.81 752.029 196.941 752.152 197.096 752.242C197.252 752.332 197.431 752.372 197.644 752.372H197.652Z" fill="#FF4C91"/>
<path d="M234.477 846.47V840.482L233.096 841.234V839.984L234.861 839.02H235.964V846.47H237.189V847.581H233.145V846.47H234.477Z" fill="#FF4C91"/>
<path d="M238.284 843.268C238.284 842.59 238.341 841.977 238.463 841.43C238.586 840.882 238.766 840.408 239.011 840.016C239.256 839.624 239.566 839.322 239.95 839.11C240.334 838.897 240.775 838.791 241.29 838.791C241.804 838.791 242.229 838.897 242.605 839.101C242.981 839.306 243.283 839.608 243.528 839.992C243.773 840.376 243.953 840.85 244.067 841.405C244.182 841.961 244.247 842.581 244.247 843.276C244.247 843.97 244.19 844.615 244.075 845.171C243.961 845.726 243.781 846.192 243.536 846.568C243.291 846.944 242.981 847.238 242.605 847.434C242.229 847.63 241.78 847.728 241.265 847.728C240.751 847.728 240.31 847.63 239.934 847.434C239.558 847.238 239.248 846.952 239.011 846.568C238.774 846.184 238.586 845.726 238.472 845.171C238.357 844.615 238.3 843.986 238.3 843.276L238.284 843.268ZM241.273 846.543C241.486 846.543 241.666 846.502 241.813 846.413C241.96 846.323 242.09 846.2 242.188 846.045C242.286 845.89 242.376 845.702 242.433 845.481C242.491 845.261 242.54 845.032 242.572 844.787C242.605 844.542 242.63 844.281 242.638 844.011C242.646 843.741 242.654 843.472 242.654 843.194C242.654 842.941 242.654 842.688 242.646 842.426C242.638 842.165 242.621 841.92 242.589 841.683C242.556 841.446 242.515 841.217 242.458 841.013C242.401 840.809 242.319 840.621 242.221 840.466C242.123 840.31 241.992 840.188 241.845 840.098C241.698 840.008 241.51 839.967 241.298 839.967C241.086 839.967 240.89 840.008 240.734 840.098C240.579 840.188 240.448 840.302 240.342 840.457C240.236 840.613 240.154 840.792 240.089 840.997C240.024 841.201 239.975 841.43 239.942 841.675C239.909 841.92 239.885 842.173 239.877 842.442C239.868 842.712 239.86 842.973 239.86 843.243C239.86 843.513 239.86 843.774 239.877 844.044C239.893 844.313 239.909 844.566 239.942 844.811C239.975 845.057 240.024 845.285 240.089 845.498C240.154 845.71 240.236 845.89 240.334 846.045C240.432 846.2 240.563 846.323 240.718 846.413C240.873 846.502 241.053 846.543 241.265 846.543H241.273Z" fill="#FF4C91"/>
<path d="M304.296 842.442C304.68 842.442 305.007 842.41 305.277 842.336C305.546 842.263 305.767 842.173 305.938 842.042C306.11 841.912 306.232 841.764 306.314 841.585C306.396 841.405 306.428 841.201 306.428 840.98C306.428 840.662 306.339 840.417 306.167 840.237C305.995 840.057 305.71 839.959 305.317 839.959C305.105 839.959 304.917 839.984 304.746 840.025C304.574 840.065 304.419 840.123 304.28 840.188C304.141 840.253 304.01 840.327 303.896 840.408C303.782 840.49 303.675 840.564 303.577 840.629L302.924 839.575C303.046 839.477 303.202 839.379 303.373 839.289C303.545 839.199 303.733 839.11 303.945 839.036C304.157 838.963 304.37 838.905 304.607 838.856C304.844 838.807 305.089 838.791 305.35 838.791C305.718 838.791 306.069 838.832 306.388 838.914C306.706 838.995 306.992 839.118 307.237 839.281C307.482 839.445 307.67 839.657 307.809 839.91C307.948 840.163 308.021 840.474 308.021 840.825C308.021 841.062 307.972 841.283 307.882 841.495C307.793 841.707 307.67 841.895 307.523 842.067C307.376 842.238 307.213 842.385 307.025 842.508C306.837 842.63 306.649 842.72 306.453 842.777C306.755 842.818 307.025 842.892 307.262 842.998C307.499 843.104 307.703 843.243 307.866 843.423C308.029 843.602 308.152 843.807 308.242 844.06C308.332 844.313 308.373 844.599 308.373 844.918C308.373 845.432 308.291 845.865 308.136 846.225C307.98 846.584 307.76 846.87 307.474 847.091C307.188 847.311 306.861 847.475 306.477 847.573C306.093 847.671 305.677 847.72 305.228 847.72C304.942 847.72 304.672 847.687 304.411 847.63C304.149 847.573 303.904 847.499 303.684 847.417C303.463 847.336 303.267 847.254 303.104 847.164C302.94 847.074 302.81 847.009 302.72 846.952L303.43 845.775C303.43 845.775 303.512 845.833 303.577 845.882C303.643 845.931 303.733 845.98 303.831 846.037C303.929 846.094 304.035 846.151 304.157 846.208C304.28 846.266 304.403 846.323 304.533 846.372C304.664 846.421 304.795 846.462 304.933 846.494C305.072 846.527 305.203 846.543 305.334 846.543C305.767 846.543 306.11 846.413 306.363 846.159C306.616 845.906 306.747 845.522 306.747 845.016C306.747 844.697 306.698 844.436 306.608 844.223C306.518 844.011 306.371 843.848 306.175 843.733C305.979 843.619 305.718 843.529 305.407 843.48C305.097 843.431 304.721 843.406 304.28 843.398L304.296 842.434V842.442Z" fill="#FF4C91"/>
<path d="M191.051 674.891C191.435 674.891 191.762 674.858 192.032 674.785C192.301 674.711 192.522 674.621 192.693 674.491C192.865 674.36 192.987 674.213 193.069 674.033C193.151 673.854 193.184 673.649 193.184 673.429C193.184 673.11 193.094 672.865 192.922 672.685C192.751 672.506 192.465 672.408 192.073 672.408C191.86 672.408 191.672 672.432 191.501 672.473C191.329 672.514 191.174 672.571 191.035 672.636C190.896 672.702 190.766 672.775 190.651 672.857C190.537 672.939 190.431 673.012 190.333 673.077L189.679 672.024C189.802 671.926 189.957 671.828 190.128 671.738C190.3 671.648 190.488 671.558 190.7 671.485C190.913 671.411 191.125 671.354 191.362 671.305C191.599 671.256 191.844 671.24 192.105 671.24C192.473 671.24 192.824 671.28 193.143 671.362C193.461 671.444 193.747 671.566 193.992 671.73C194.237 671.893 194.425 672.105 194.564 672.359C194.703 672.612 194.776 672.922 194.776 673.274C194.776 673.51 194.727 673.731 194.638 673.943C194.548 674.156 194.425 674.344 194.278 674.515C194.131 674.687 193.968 674.834 193.78 674.956C193.592 675.079 193.404 675.169 193.208 675.226C193.51 675.267 193.78 675.34 194.017 675.446C194.254 675.553 194.458 675.692 194.621 675.871C194.785 676.051 194.907 676.255 194.997 676.508C195.087 676.762 195.128 677.048 195.128 677.366C195.128 677.881 195.046 678.314 194.891 678.673C194.736 679.033 194.515 679.319 194.229 679.539C193.943 679.76 193.616 679.923 193.233 680.021C192.849 680.119 192.432 680.168 191.983 680.168C191.697 680.168 191.427 680.135 191.166 680.078C190.904 680.021 190.659 679.948 190.439 679.866C190.218 679.784 190.022 679.702 189.859 679.613C189.695 679.523 189.565 679.457 189.475 679.4L190.186 678.224C190.186 678.224 190.267 678.281 190.333 678.33C190.398 678.379 190.488 678.428 190.586 678.485C190.684 678.542 190.79 678.6 190.913 678.657C191.035 678.714 191.158 678.771 191.288 678.82C191.419 678.869 191.55 678.91 191.689 678.943C191.827 678.975 191.958 678.992 192.089 678.992C192.522 678.992 192.865 678.861 193.118 678.608C193.371 678.355 193.502 677.971 193.502 677.464C193.502 677.146 193.453 676.884 193.363 676.672C193.273 676.459 193.126 676.296 192.93 676.182C192.734 676.067 192.473 675.977 192.162 675.928C191.852 675.879 191.476 675.855 191.035 675.847L191.051 674.883V674.891Z" fill="#FF4C91"/>
<path d="M275.566 840.923C275.387 840.825 275.174 840.735 274.937 840.654C274.7 840.572 274.423 840.539 274.12 840.539C273.843 840.539 273.598 840.596 273.385 840.719C273.173 840.841 272.993 841.005 272.838 841.217C272.683 841.43 272.56 841.699 272.462 842.01C272.364 842.32 272.299 842.663 272.25 843.055C272.34 842.965 272.454 842.884 272.585 842.81C272.715 842.737 272.862 842.671 273.009 842.622C273.156 842.573 273.32 842.532 273.483 842.5C273.647 842.467 273.81 842.459 273.965 842.459C274.365 842.459 274.717 842.516 275.027 842.63C275.338 842.745 275.599 842.916 275.82 843.129C276.04 843.341 276.195 843.611 276.31 843.929C276.424 844.248 276.481 844.599 276.481 844.999C276.481 845.4 276.416 845.784 276.293 846.119C276.171 846.453 275.975 846.739 275.722 846.976C275.468 847.213 275.158 847.401 274.774 847.532C274.39 847.662 273.957 847.728 273.459 847.728C273.001 847.728 272.609 847.654 272.274 847.507C271.939 847.36 271.67 847.14 271.449 846.854C271.229 846.568 271.073 846.208 270.967 845.775C270.861 845.343 270.812 844.844 270.812 844.281C270.812 843.513 270.877 842.827 271 842.222C271.122 841.618 271.327 841.119 271.604 840.711C271.882 840.302 272.242 839.992 272.675 839.78C273.107 839.567 273.655 839.461 274.284 839.461C274.414 839.461 274.562 839.469 274.717 839.485C274.872 839.502 275.027 839.526 275.182 839.567C275.338 839.608 275.493 839.649 275.64 839.698C275.787 839.747 275.926 839.812 276.04 839.878L275.558 840.931L275.566 840.923ZM275.06 845.024C275.06 844.795 275.027 844.591 274.97 844.403C274.913 844.215 274.815 844.06 274.692 843.921C274.57 843.782 274.423 843.684 274.243 843.611C274.063 843.537 273.859 843.505 273.622 843.505C273.467 843.505 273.328 843.513 273.205 843.529C273.083 843.545 272.969 843.578 272.871 843.611C272.773 843.643 272.674 843.692 272.585 843.75C272.495 843.807 272.413 843.872 272.331 843.946C272.315 843.987 272.299 844.036 272.282 844.085C272.266 844.134 272.258 844.191 272.258 844.248C272.258 844.305 272.25 844.362 272.242 844.411C272.233 844.46 272.242 844.509 272.242 844.542C272.242 844.918 272.282 845.236 272.356 845.498C272.429 845.759 272.527 845.972 272.65 846.143C272.773 846.315 272.92 846.429 273.083 846.511C273.246 846.592 273.418 846.625 273.598 846.625C273.794 846.625 273.982 846.592 274.153 846.527C274.325 846.462 274.488 846.355 274.619 846.225C274.749 846.094 274.856 845.923 274.937 845.718C275.019 845.514 275.052 845.277 275.052 845.016L275.06 845.024Z" fill="#FF4C91"/>
<path d="M194.237 707.967C194.057 707.869 193.845 707.779 193.608 707.697C193.371 707.615 193.094 707.583 192.791 707.583C192.514 707.583 192.268 707.64 192.056 707.762C191.844 707.885 191.664 708.048 191.509 708.261C191.354 708.473 191.231 708.743 191.133 709.053C191.035 709.363 190.97 709.707 190.921 710.099C191.01 710.009 191.125 709.927 191.256 709.854C191.386 709.78 191.533 709.715 191.68 709.666C191.827 709.617 191.991 709.576 192.154 709.543C192.317 709.511 192.481 709.502 192.636 709.502C193.036 709.502 193.388 709.56 193.698 709.674C194.008 709.788 194.27 709.96 194.49 710.172C194.711 710.385 194.866 710.654 194.981 710.973C195.095 711.291 195.152 711.643 195.152 712.043C195.152 712.443 195.087 712.827 194.964 713.162C194.842 713.497 194.646 713.783 194.392 714.02C194.139 714.257 193.829 714.445 193.445 714.575C193.061 714.706 192.628 714.771 192.13 714.771C191.672 714.771 191.28 714.698 190.945 714.551C190.61 714.404 190.341 714.183 190.12 713.897C189.9 713.611 189.744 713.252 189.638 712.819C189.532 712.386 189.483 711.888 189.483 711.324C189.483 710.556 189.548 709.87 189.671 709.265C189.793 708.661 189.998 708.163 190.275 707.754C190.553 707.346 190.912 707.035 191.345 706.823C191.778 706.611 192.326 706.504 192.955 706.504C193.085 706.504 193.232 706.513 193.388 706.529C193.543 706.545 193.698 706.57 193.853 706.611C194.008 706.651 194.164 706.692 194.311 706.741C194.458 706.79 194.597 706.856 194.711 706.921L194.229 707.975L194.237 707.967ZM193.723 712.067C193.723 711.839 193.69 711.634 193.633 711.447C193.576 711.259 193.477 711.103 193.355 710.965C193.232 710.826 193.085 710.728 192.906 710.654C192.726 710.581 192.522 710.548 192.285 710.548C192.13 710.548 191.991 710.556 191.868 710.572C191.746 710.589 191.631 710.621 191.533 710.654C191.435 710.687 191.337 710.736 191.247 710.793C191.158 710.85 191.076 710.916 190.994 710.989C190.978 711.03 190.961 711.079 190.945 711.128C190.929 711.177 190.921 711.234 190.921 711.291C190.921 711.349 190.912 711.406 190.904 711.455C190.896 711.504 190.904 711.553 190.904 711.585C190.904 711.961 190.945 712.28 191.019 712.541C191.092 712.803 191.19 713.015 191.313 713.187C191.435 713.358 191.582 713.472 191.746 713.554C191.909 713.636 192.081 713.668 192.26 713.668C192.456 713.668 192.644 713.636 192.816 713.57C192.987 713.505 193.151 713.399 193.281 713.268C193.412 713.138 193.518 712.966 193.6 712.762C193.682 712.558 193.714 712.321 193.714 712.059L193.723 712.067Z" fill="#FF4C91"/>
<path d="M116.403 1175.87V1194.24H113.519V1175.87H116.403ZM98.8751 1183.88C98.8751 1186.18 100.527 1187.72 102.767 1187.72C104.979 1187.72 106.659 1186.18 106.659 1183.88C106.659 1181.56 104.979 1180.04 102.767 1180.04C100.527 1180.04 98.8751 1181.56 98.8751 1183.88ZM109.459 1183.88C109.459 1187.55 106.575 1190.21 102.767 1190.21C98.9591 1190.21 96.0471 1187.55 96.0471 1183.88C96.0471 1180.18 98.9591 1177.55 102.767 1177.55C106.575 1177.55 109.459 1180.18 109.459 1183.88ZM102.795 1198.33H117.131V1200.68H99.8831V1192.39H102.795V1198.33ZM141.321 1175.9V1194.38H138.437V1175.9H141.321ZM135.805 1188.11L134.321 1190.4C131.437 1189.34 129.365 1187.27 128.273 1184.64C127.125 1187.46 125.025 1189.76 122.057 1190.88L120.573 1188.56C124.549 1187.1 126.761 1183.49 126.761 1179.79V1177.27H129.701V1179.79C129.701 1183.38 131.913 1186.76 135.805 1188.11ZM127.713 1198.33H142.049V1200.68H124.801V1192.64H127.713V1198.33ZM164.727 1185.92L161.899 1185.62C162.543 1183.12 162.571 1181.3 162.571 1179.4H148.067V1177.08H165.427V1179.2C165.427 1181.22 165.427 1183.32 164.727 1185.92ZM156.747 1198.94C160.471 1198.94 162.711 1198.02 162.711 1196.42C162.711 1194.86 160.471 1193.93 156.747 1193.93C152.995 1193.93 150.699 1194.86 150.699 1196.42C150.699 1198.02 152.995 1198.94 156.747 1198.94ZM156.747 1191.72C162.123 1191.72 165.595 1193.51 165.595 1196.42C165.595 1199.36 162.123 1201.16 156.747 1201.16C151.287 1201.16 147.843 1199.36 147.843 1196.42C147.843 1193.51 151.287 1191.72 156.747 1191.72ZM157.307 1187.44H168.227V1189.76H145.435V1187.44H154.395V1182.79H157.307V1187.44ZM174.217 1194.32V1192.03H191.269V1201.1H188.385V1194.32H174.217ZM188.385 1175.84H191.269V1190.94H188.385V1187.88H182.253V1185.53H188.385V1182.51H182.645C180.965 1186.46 177.157 1189.28 171.753 1190.74L170.633 1188.44C176.513 1186.88 180.013 1183.74 180.545 1179.85H171.977V1177.52H183.625C183.625 1178.45 183.541 1179.37 183.345 1180.18H188.385V1175.84ZM203.39 1177.64C207.338 1177.64 210.278 1180.13 210.278 1183.71C210.278 1187.3 207.338 1189.79 203.39 1189.79C199.442 1189.79 196.53 1187.3 196.53 1183.71C196.53 1180.13 199.442 1177.64 203.39 1177.64ZM203.39 1180.1C201.066 1180.1 199.358 1181.5 199.358 1183.71C199.358 1185.9 201.066 1187.32 203.39 1187.32C205.742 1187.32 207.45 1185.9 207.45 1183.71C207.45 1181.5 205.742 1180.1 203.39 1180.1ZM213.134 1175.84H216.046V1201.18H213.134V1175.84ZM195.718 1195.84L195.354 1193.46C199.89 1193.46 206.19 1193.43 211.622 1192.62L211.818 1194.72C206.246 1195.78 200.198 1195.84 195.718 1195.84ZM230.537 1184.13C230.537 1186.88 233.253 1188.61 237.033 1188.61C240.785 1188.61 243.501 1186.88 243.501 1184.13C243.501 1181.39 240.785 1179.65 237.033 1179.65C233.253 1179.65 230.537 1181.39 230.537 1184.13ZM238.461 1195.7H248.513V1198.05H225.609V1195.7H235.577V1190.85C230.957 1190.43 227.737 1187.88 227.737 1184.13C227.737 1180.02 231.657 1177.36 237.033 1177.36C242.381 1177.36 246.329 1180.02 246.329 1184.13C246.329 1187.88 243.081 1190.46 238.461 1190.88V1195.7ZM267.775 1181.47V1179.06H253.215V1176.74H270.715V1183.63H256.183V1186.26H271.275V1188.58H253.271V1181.47H267.775ZM273.431 1190.82L273.459 1193.15H267.775V1201.18H264.891V1193.15H259.039V1201.18H256.155V1193.15H250.499V1190.82H273.431Z" fill="white"/>
</svg>
