<svg width="424" height="1228" viewBox="0 0 424 1228" fill="none" xmlns="http://www.w3.org/2000/svg">
<path d="M98 0H86V1126H98V0Z" fill="#4857F6"/>
<path d="M336 0H324V1086H336V0Z" fill="#4857F6"/>
<rect x="41.6748" y="1053.85" width="339.352" height="174" fill="black"/>
<path d="M130.267 1104.72H126.959V1076.18H134.969C137.175 1076.18 139.007 1076.6 140.464 1077.42C141.922 1078.23 143.012 1079.33 143.734 1080.71C144.457 1082.09 144.818 1083.63 144.818 1085.32C144.818 1087 144.444 1088.57 143.695 1090C142.96 1091.43 141.857 1092.58 140.387 1093.46C138.929 1094.33 137.123 1094.76 134.969 1094.76H130.267V1104.72ZM130.267 1093.54L128.777 1091.86H134.563C136.111 1091.86 137.394 1091.58 138.413 1091.04C139.445 1090.49 140.213 1089.72 140.716 1088.74C141.232 1087.76 141.49 1086.62 141.49 1085.32C141.49 1084 141.245 1082.88 140.754 1081.95C140.264 1081.02 139.51 1080.31 138.491 1079.82C137.472 1079.33 136.162 1079.08 134.563 1079.08H128.777L130.267 1077.21V1093.54ZM157.001 1105.09C154.937 1105.09 153.112 1104.63 151.525 1103.72C149.951 1102.79 148.713 1101.52 147.81 1099.92C146.92 1098.31 146.475 1096.48 146.475 1094.43C146.475 1092.38 146.92 1090.56 147.81 1088.97C148.713 1087.39 149.951 1086.14 151.525 1085.24C153.112 1084.33 154.937 1083.88 157.001 1083.88C159.065 1083.88 160.884 1084.33 162.457 1085.24C164.044 1086.14 165.282 1087.39 166.172 1088.97C167.075 1090.56 167.527 1092.38 167.527 1094.43C167.527 1096.48 167.075 1098.31 166.172 1099.92C165.282 1101.52 164.044 1102.79 162.457 1103.72C160.884 1104.63 159.065 1105.09 157.001 1105.09ZM157.001 1102.07C158.42 1102.07 159.671 1101.76 160.755 1101.12C161.838 1100.49 162.683 1099.6 163.289 1098.45C163.909 1097.31 164.218 1095.96 164.218 1094.43C164.218 1092.89 163.909 1091.56 163.289 1090.44C162.683 1089.31 161.838 1088.44 160.755 1087.83C159.671 1087.21 158.42 1086.9 157.001 1086.9C155.595 1086.9 154.344 1087.21 153.247 1087.83C152.164 1088.44 151.312 1089.31 150.693 1090.44C150.087 1091.56 149.784 1092.89 149.784 1094.43C149.784 1095.96 150.087 1097.31 150.693 1098.45C151.312 1099.6 152.164 1100.49 153.247 1101.12C154.344 1101.76 155.595 1102.07 157.001 1102.07ZM171.697 1104.72V1084.17H174.947V1104.72H171.697ZM173.341 1079.45C172.735 1079.45 172.206 1079.28 171.755 1078.95C171.316 1078.6 171.097 1078.13 171.097 1077.54C171.097 1076.96 171.316 1076.5 171.755 1076.16C172.206 1075.81 172.735 1075.64 173.341 1075.64C173.947 1075.64 174.47 1075.81 174.908 1076.16C175.347 1076.5 175.566 1076.96 175.566 1077.54C175.566 1078.13 175.347 1078.6 174.908 1078.95C174.47 1079.28 173.947 1079.45 173.341 1079.45ZM187.759 1105.11C186.521 1105.11 185.373 1104.98 184.315 1104.72C183.27 1104.45 182.354 1104.06 181.567 1103.56C180.793 1103.05 180.187 1102.41 179.748 1101.67C179.323 1100.92 179.11 1100.06 179.11 1099.09C179.11 1098.99 179.11 1098.89 179.11 1098.78C179.11 1098.67 179.11 1098.57 179.11 1098.49H182.419C182.419 1098.57 182.419 1098.63 182.419 1098.69C182.419 1098.74 182.419 1098.81 182.419 1098.92C182.419 1099.96 182.902 1100.76 183.87 1101.32C184.837 1101.86 186.159 1102.13 187.836 1102.13C188.868 1102.13 189.791 1102.03 190.603 1101.82C191.416 1101.61 192.054 1101.3 192.519 1100.87C192.996 1100.45 193.235 1099.91 193.235 1099.27C193.235 1098.2 192.732 1097.43 191.725 1096.98C190.732 1096.52 189.242 1096.12 187.256 1095.78C186.211 1095.6 185.218 1095.37 184.276 1095.09C183.334 1094.79 182.496 1094.41 181.761 1093.94C181.038 1093.48 180.464 1092.91 180.039 1092.22C179.626 1091.53 179.42 1090.69 179.42 1089.73C179.42 1088.48 179.787 1087.42 180.522 1086.55C181.271 1085.68 182.277 1085.01 183.541 1084.56C184.805 1084.1 186.211 1083.86 187.759 1083.86C189.255 1083.86 190.635 1084.1 191.9 1084.58C193.164 1085.06 194.176 1085.75 194.937 1086.67C195.711 1087.57 196.098 1088.69 196.098 1090.02C196.098 1090.07 196.098 1090.13 196.098 1090.21C196.098 1090.27 196.098 1090.34 196.098 1090.4H192.809C192.809 1090.34 192.809 1090.29 192.809 1090.25C192.809 1090.21 192.809 1090.17 192.809 1090.11C192.809 1089.37 192.57 1088.75 192.093 1088.28C191.616 1087.79 190.997 1087.42 190.236 1087.19C189.475 1086.95 188.662 1086.82 187.798 1086.82C186.985 1086.82 186.185 1086.91 185.398 1087.1C184.611 1087.26 183.96 1087.55 183.444 1087.95C182.928 1088.35 182.67 1088.89 182.67 1089.59C182.67 1090.29 182.909 1090.85 183.386 1091.27C183.876 1091.69 184.56 1092.03 185.437 1092.3C186.327 1092.56 187.372 1092.8 188.572 1093.02C189.642 1093.21 190.655 1093.45 191.609 1093.75C192.564 1094.04 193.402 1094.4 194.125 1094.85C194.86 1095.31 195.434 1095.88 195.847 1096.58C196.273 1097.26 196.485 1098.1 196.485 1099.09C196.485 1100.1 196.253 1100.97 195.789 1101.72C195.337 1102.47 194.705 1103.1 193.893 1103.6C193.093 1104.1 192.164 1104.48 191.106 1104.72C190.061 1104.98 188.946 1105.11 187.759 1105.11ZM210.167 1105.09C208.103 1105.09 206.278 1104.63 204.691 1103.72C203.117 1102.79 201.879 1101.52 200.976 1099.92C200.086 1098.31 199.641 1096.48 199.641 1094.43C199.641 1092.38 200.086 1090.56 200.976 1088.97C201.879 1087.39 203.117 1086.14 204.691 1085.24C206.278 1084.33 208.103 1083.88 210.167 1083.88C212.231 1083.88 214.05 1084.33 215.623 1085.24C217.21 1086.14 218.448 1087.39 219.338 1088.97C220.241 1090.56 220.693 1092.38 220.693 1094.43C220.693 1096.48 220.241 1098.31 219.338 1099.92C218.448 1101.52 217.21 1102.79 215.623 1103.72C214.05 1104.63 212.231 1105.09 210.167 1105.09ZM210.167 1102.07C211.586 1102.07 212.837 1101.76 213.921 1101.12C215.004 1100.49 215.849 1099.6 216.455 1098.45C217.075 1097.31 217.384 1095.96 217.384 1094.43C217.384 1092.89 217.075 1091.56 216.455 1090.44C215.849 1089.31 215.004 1088.44 213.921 1087.83C212.837 1087.21 211.586 1086.9 210.167 1086.9C208.761 1086.9 207.51 1087.21 206.413 1087.83C205.33 1088.44 204.478 1089.31 203.859 1090.44C203.253 1091.56 202.95 1092.89 202.95 1094.43C202.95 1095.96 203.253 1097.31 203.859 1098.45C204.478 1099.6 205.33 1100.49 206.413 1101.12C207.51 1101.76 208.761 1102.07 210.167 1102.07ZM239.374 1104.72V1094.87C239.374 1094.28 239.374 1093.8 239.374 1093.42C239.374 1093.04 239.374 1092.67 239.374 1092.32C239.374 1091.25 239.194 1090.31 238.832 1089.51C238.471 1088.71 237.904 1088.09 237.13 1087.66C236.356 1087.22 235.343 1087 234.092 1087C232.996 1087 231.976 1087.28 231.035 1087.85C230.106 1088.4 229.358 1089.16 228.79 1090.11C228.236 1091.06 227.958 1092.11 227.958 1093.29L226.081 1092.57C226.081 1090.96 226.475 1089.49 227.262 1088.18C228.062 1086.86 229.119 1085.82 230.435 1085.04C231.764 1084.26 233.208 1083.86 234.769 1083.86C236.356 1083.86 237.742 1084.17 238.929 1084.77C240.116 1085.38 241.032 1086.25 241.677 1087.39C242.335 1088.51 242.664 1089.86 242.664 1091.45C242.664 1092.02 242.664 1092.64 242.664 1093.31C242.664 1093.98 242.664 1094.6 242.664 1095.18V1104.72H239.374ZM224.669 1104.72V1084.17H227.958V1104.72H224.669ZM247.434 1104.72V1084.17H250.685V1104.72H247.434ZM249.079 1079.45C248.473 1079.45 247.944 1079.28 247.492 1078.95C247.054 1078.6 246.835 1078.13 246.835 1077.54C246.835 1076.96 247.054 1076.5 247.492 1076.16C247.944 1075.81 248.473 1075.64 249.079 1075.64C249.685 1075.64 250.208 1075.81 250.646 1076.16C251.085 1076.5 251.304 1076.96 251.304 1077.54C251.304 1078.13 251.085 1078.6 250.646 1078.95C250.208 1079.28 249.685 1079.45 249.079 1079.45ZM270.346 1104.72V1094.87C270.346 1094.28 270.346 1093.8 270.346 1093.42C270.346 1093.04 270.346 1092.67 270.346 1092.32C270.346 1091.25 270.166 1090.31 269.805 1089.51C269.443 1088.71 268.876 1088.09 268.102 1087.66C267.328 1087.22 266.315 1087 265.064 1087C263.968 1087 262.949 1087.28 262.007 1087.85C261.078 1088.4 260.33 1089.16 259.762 1090.11C259.208 1091.06 258.93 1092.11 258.93 1093.29L257.054 1092.57C257.054 1090.96 257.447 1089.49 258.234 1088.18C259.034 1086.86 260.091 1085.82 261.407 1085.04C262.736 1084.26 264.18 1083.86 265.741 1083.86C267.328 1083.86 268.715 1084.17 269.901 1084.77C271.088 1085.38 272.004 1086.25 272.649 1087.39C273.307 1088.51 273.636 1089.86 273.636 1091.45C273.636 1092.02 273.636 1092.64 273.636 1093.31C273.636 1093.98 273.636 1094.6 273.636 1095.18V1104.72H270.346ZM255.641 1104.72V1084.17H258.93V1104.72H255.641ZM291.332 1103.46C292.441 1103.55 293.415 1103.76 294.253 1104.08C295.105 1104.39 295.769 1104.85 296.246 1105.46C296.723 1106.08 296.962 1106.88 296.962 1107.88C296.962 1108.97 296.588 1109.94 295.84 1110.78C295.092 1111.63 293.957 1112.29 292.434 1112.77C290.912 1113.25 288.997 1113.49 286.688 1113.49C283.424 1113.49 280.96 1113.01 279.296 1112.06C277.632 1111.11 276.8 1109.82 276.8 1108.19C276.8 1107.67 276.858 1107.21 276.975 1106.81C277.104 1106.42 277.245 1106.11 277.4 1105.86L280.535 1106.33C280.432 1106.47 280.328 1106.68 280.225 1106.97C280.135 1107.26 280.09 1107.61 280.09 1107.99C280.09 1109.02 280.677 1109.75 281.851 1110.16C283.024 1110.58 284.688 1110.8 286.843 1110.8C288.455 1110.8 289.777 1110.69 290.809 1110.47C291.841 1110.25 292.609 1109.93 293.112 1109.52C293.615 1109.11 293.866 1108.62 293.866 1108.07C293.866 1107.23 293.512 1106.71 292.802 1106.5C292.106 1106.31 291.241 1106.17 290.209 1106.1L282.392 1105.52C281.089 1105.41 280.025 1105.01 279.2 1104.32C278.387 1103.61 277.981 1102.75 277.981 1101.74C277.981 1101.12 278.129 1100.54 278.426 1099.98C278.735 1099.43 279.09 1098.96 279.49 1098.59C279.903 1098.2 280.27 1097.97 280.593 1097.89L283.186 1099.07C282.863 1099.12 282.463 1099.35 281.986 1099.75C281.522 1100.14 281.289 1100.59 281.289 1101.12C281.289 1101.6 281.476 1101.99 281.851 1102.3C282.225 1102.6 282.966 1102.79 284.076 1102.88L291.332 1103.46ZM294.176 1084.17H297.272L295.995 1092.26C295.762 1093.77 295.279 1095.14 294.543 1096.36C293.808 1097.58 292.802 1098.54 291.525 1099.27C290.261 1099.98 288.694 1100.33 286.823 1100.33C284.875 1100.33 283.211 1099.98 281.831 1099.27C280.451 1098.56 279.393 1097.59 278.658 1096.36C277.923 1095.13 277.555 1093.73 277.555 1092.18C277.555 1090.61 277.936 1089.2 278.697 1087.95C279.471 1086.68 280.541 1085.69 281.909 1084.97C283.276 1084.23 284.843 1083.86 286.61 1083.86C288.197 1083.86 289.584 1084.14 290.77 1084.7C291.957 1085.24 292.892 1085.92 293.576 1086.75C294.273 1087.57 294.66 1088.4 294.737 1089.24L293.499 1089.32L294.176 1084.17ZM286.804 1097.39C288.055 1097.39 289.126 1097.18 290.016 1096.77C290.919 1096.36 291.609 1095.76 292.086 1094.97C292.576 1094.18 292.821 1093.23 292.821 1092.11C292.821 1091.02 292.576 1090.09 292.086 1089.3C291.609 1088.5 290.919 1087.89 290.016 1087.46C289.126 1087.02 288.062 1086.8 286.823 1086.8C285.636 1086.8 284.585 1087.03 283.669 1087.48C282.766 1087.92 282.057 1088.54 281.541 1089.34C281.038 1090.14 280.786 1091.08 280.786 1092.16C280.786 1093.26 281.025 1094.2 281.502 1094.99C281.992 1095.76 282.683 1096.36 283.573 1096.77C284.476 1097.18 285.553 1097.39 286.804 1097.39ZM157.52 1127.08H149.278L150.032 1125.21V1152.72H146.743V1125.21L147.672 1127.08H139.274V1124.18H157.52V1127.08ZM175.565 1152.72V1145.08C175.565 1144.72 175.565 1144.29 175.565 1143.8C175.565 1143.3 175.565 1142.8 175.565 1142.29C175.565 1141.78 175.565 1141.34 175.565 1140.98C175.565 1139 175.14 1137.51 174.288 1136.51C173.45 1135.5 172.115 1135 170.283 1135C169.058 1135 167.98 1135.24 167.052 1135.71C166.136 1136.19 165.42 1136.84 164.904 1137.67C164.388 1138.49 164.13 1139.43 164.13 1140.47L162.04 1139.84C162.04 1138.37 162.421 1137.03 163.182 1135.83C163.956 1134.62 165.007 1133.66 166.336 1132.95C167.677 1132.23 169.193 1131.86 170.883 1131.86C173.347 1131.86 175.288 1132.61 176.707 1134.09C178.139 1135.57 178.855 1137.62 178.855 1140.24C178.855 1140.93 178.855 1141.71 178.855 1142.6C178.855 1143.49 178.855 1144.43 178.855 1145.41V1152.72H175.565ZM160.841 1152.72V1122.48H164.13V1152.72H160.841ZM184.477 1143.76V1140.82H200.362L199.782 1141.79C199.782 1141.71 199.782 1141.64 199.782 1141.58C199.782 1141.5 199.782 1141.43 199.782 1141.36C199.782 1140.18 199.53 1139.09 199.027 1138.11C198.537 1137.12 197.802 1136.33 196.821 1135.73C195.841 1135.14 194.628 1134.84 193.184 1134.84C191.726 1134.84 190.443 1135.15 189.333 1135.77C188.224 1136.39 187.36 1137.27 186.741 1138.4C186.121 1139.53 185.812 1140.87 185.812 1142.43C185.812 1144.02 186.108 1145.38 186.702 1146.53C187.308 1147.68 188.166 1148.56 189.275 1149.18C190.385 1149.8 191.7 1150.11 193.222 1150.11C194.306 1150.11 195.248 1150 196.047 1149.78C196.847 1149.55 197.505 1149.25 198.021 1148.87C198.55 1148.48 198.95 1148.07 199.221 1147.61C199.492 1147.16 199.653 1146.71 199.704 1146.26H202.994C202.929 1147.09 202.671 1147.9 202.22 1148.72C201.768 1149.53 201.13 1150.27 200.304 1150.94C199.479 1151.6 198.466 1152.13 197.266 1152.53C196.067 1152.93 194.687 1153.13 193.126 1153.13C191.062 1153.13 189.243 1152.68 187.669 1151.77C186.096 1150.87 184.857 1149.62 183.954 1148.02C183.064 1146.42 182.619 1144.58 182.619 1142.51C182.619 1140.4 183.071 1138.56 183.974 1136.97C184.877 1135.37 186.121 1134.12 187.708 1133.22C189.295 1132.32 191.107 1131.86 193.145 1131.86C195.222 1131.86 197.021 1132.32 198.543 1133.22C200.066 1134.12 201.239 1135.36 202.065 1136.93C202.891 1138.49 203.303 1140.27 203.303 1142.27C203.303 1142.48 203.297 1142.75 203.284 1143.09C203.271 1143.42 203.252 1143.65 203.226 1143.76H184.477ZM218.995 1152.72L214.467 1124.18H217.873L221.723 1151.31L221.22 1151.29L227.315 1124.18H231.688L237.763 1151.29L237.26 1151.31L241.111 1124.18H244.535L239.969 1152.72H234.88L229.308 1126.97H229.695L224.103 1152.72H218.995ZM247.506 1143.76V1140.82H263.392L262.811 1141.79C262.811 1141.71 262.811 1141.64 262.811 1141.58C262.811 1141.5 262.811 1141.43 262.811 1141.36C262.811 1140.18 262.56 1139.09 262.057 1138.11C261.566 1137.12 260.831 1136.33 259.851 1135.73C258.87 1135.14 257.658 1134.84 256.213 1134.84C254.756 1134.84 253.472 1135.15 252.363 1135.77C251.253 1136.39 250.389 1137.27 249.77 1138.4C249.151 1139.53 248.841 1140.87 248.841 1142.43C248.841 1144.02 249.138 1145.38 249.731 1146.53C250.338 1147.68 251.195 1148.56 252.305 1149.18C253.414 1149.8 254.73 1150.11 256.252 1150.11C257.335 1150.11 258.277 1150 259.077 1149.78C259.877 1149.55 260.534 1149.25 261.05 1148.87C261.579 1148.48 261.979 1148.07 262.25 1147.61C262.521 1147.16 262.682 1146.71 262.734 1146.26H266.023C265.959 1147.09 265.701 1147.9 265.249 1148.72C264.798 1149.53 264.159 1150.27 263.334 1150.94C262.508 1151.6 261.495 1152.13 260.296 1152.53C259.096 1152.93 257.716 1153.13 256.155 1153.13C254.091 1153.13 252.272 1152.68 250.699 1151.77C249.125 1150.87 247.887 1149.62 246.984 1148.02C246.094 1146.42 245.649 1144.58 245.649 1142.51C245.649 1140.4 246.1 1138.56 247.003 1136.97C247.906 1135.37 249.151 1134.12 250.737 1133.22C252.324 1132.32 254.136 1131.86 256.175 1131.86C258.251 1131.86 260.051 1132.32 261.573 1133.22C263.095 1134.12 264.269 1135.36 265.094 1136.93C265.92 1138.49 266.333 1140.27 266.333 1142.27C266.333 1142.48 266.326 1142.75 266.313 1143.09C266.3 1143.42 266.281 1143.65 266.255 1143.76H247.506ZM273.84 1122.48V1152.72H270.589V1122.48H273.84ZM282.24 1122.48V1152.72H278.989V1122.48H282.24Z" fill="white"/>
<path d="M258.242 532.911H185.098C175.795 532.911 168.253 540.452 168.253 549.755V606.284C168.253 615.586 175.795 623.128 185.098 623.128H258.242C267.545 623.128 275.086 615.586 275.086 606.284V549.755C275.086 540.452 267.545 532.911 258.242 532.911Z" fill="#FF4C91"/>
<path d="M298.179 652.92V618.602C298.179 606.243 288.156 596.219 275.797 596.219H167.543C155.183 596.219 145.16 606.243 145.16 618.602V652.92C77.4076 682.458 30.0364 750.023 30.0364 828.656C30.0364 934.492 115.834 1020.29 221.67 1020.29C327.506 1020.29 413.303 934.492 413.303 828.656C413.303 750.023 365.932 682.458 298.179 652.92Z" fill="#F4F4F4" stroke="#FF4C91" stroke-width="19.8452" stroke-miterlimit="10"/>
<mask id="mask0_117_142" style="mask-type:luminance" maskUnits="userSpaceOnUse" x="30" y="596" width="384" height="425">
<path d="M298.179 652.92V618.602C298.179 606.243 288.156 596.219 275.797 596.219H167.543C155.183 596.219 145.16 606.243 145.16 618.602V652.92C77.4076 682.458 30.0364 750.023 30.0364 828.656C30.0364 934.492 115.834 1020.29 221.67 1020.29C327.506 1020.29 413.303 934.492 413.303 828.656C413.303 750.023 365.932 682.458 298.179 652.92Z" fill="white"/>
</mask>
<g mask="url(#mask0_117_142)">
<path d="M-11.9517 874.557C-11.9517 874.557 54.3877 817.718 176.741 870.203C299.094 922.688 445.113 825.275 445.113 825.275L394.106 1085.71L112.068 1095.71L-11.9517 874.557Z" fill="#4857F6" stroke="#FF4C91" stroke-width="3.84996" stroke-miterlimit="10"/>
</g>
<path d="M221.67 958.01C148.477 958.01 88.9258 898.459 88.9258 825.266C88.9258 752.073 148.477 692.522 221.67 692.522C294.863 692.522 354.414 752.073 354.414 825.266C354.414 898.459 294.863 958.01 221.67 958.01Z" stroke="#FF4C91" stroke-width="1.98452" stroke-miterlimit="10"/>
<path d="M221.67 908.997C175.499 908.997 137.939 871.437 137.939 825.266C137.939 779.096 175.499 741.535 221.67 741.535C267.84 741.535 305.4 779.096 305.4 825.266C305.4 871.437 267.84 908.997 221.67 908.997Z" stroke="#FF4C91" stroke-width="1.98452" stroke-miterlimit="10"/>
<path d="M221.67 606.774V1016.83" stroke="#FF4C91" stroke-width="1.98452" stroke-miterlimit="10"/>
<path d="M423 825.266H36.2856" stroke="#FF4C91" stroke-width="1.98452" stroke-miterlimit="10"/>
<path d="M221.67 870.195C246.483 870.195 266.598 850.08 266.598 825.266C266.598 800.453 246.483 780.338 221.67 780.338C196.856 780.338 176.741 800.453 176.741 825.266C176.741 850.08 196.856 870.195 221.67 870.195Z" fill="#4857F6" stroke="#FF4C91" stroke-width="1.98452" stroke-miterlimit="10"/>
<path d="M298.179 652.92V618.602C298.179 606.243 288.156 596.219 275.797 596.219H167.543C155.183 596.219 145.16 606.243 145.16 618.602V652.92C77.4076 682.458 30.0364 750.023 30.0364 828.656C30.0364 934.492 115.834 1020.29 221.67 1020.29C327.506 1020.29 413.303 934.492 413.303 828.656C413.303 750.023 365.932 682.458 298.179 652.92Z" stroke="#FF4C91" stroke-width="19.8452" stroke-miterlimit="10"/>
<path d="M272.145 837.054V831.066L270.765 831.818V830.568L272.529 829.604H273.632V837.054H274.857V838.165H270.814V837.054H272.145Z" fill="#FF4C91"/>
<path d="M275.952 833.852C275.952 833.174 276.009 832.561 276.132 832.014C276.254 831.467 276.434 830.993 276.679 830.601C276.924 830.209 277.235 829.906 277.619 829.694C278.003 829.482 278.444 829.375 278.958 829.375C279.473 829.375 279.898 829.482 280.274 829.686C280.649 829.89 280.951 830.192 281.196 830.576C281.442 830.96 281.621 831.434 281.736 831.99C281.85 832.545 281.915 833.166 281.915 833.86C281.915 834.555 281.858 835.2 281.744 835.755C281.63 836.311 281.45 836.776 281.205 837.152C280.96 837.528 280.649 837.822 280.274 838.018C279.898 838.214 279.448 838.312 278.934 838.312C278.419 838.312 277.978 838.214 277.602 838.018C277.227 837.822 276.916 837.536 276.679 837.152C276.442 836.768 276.254 836.311 276.14 835.755C276.026 835.2 275.969 834.571 275.969 833.86L275.952 833.852ZM278.942 837.136C279.154 837.136 279.334 837.095 279.481 837.005C279.628 836.915 279.759 836.793 279.857 836.638C279.955 836.482 280.045 836.295 280.102 836.074C280.159 835.853 280.208 835.625 280.241 835.38C280.273 835.135 280.298 834.873 280.306 834.604C280.314 834.334 280.323 834.064 280.323 833.787C280.323 833.533 280.323 833.28 280.314 833.019C280.306 832.757 280.29 832.512 280.257 832.275C280.224 832.039 280.184 831.81 280.127 831.606C280.069 831.401 279.988 831.213 279.89 831.058C279.792 830.903 279.661 830.781 279.514 830.691C279.367 830.601 279.179 830.56 278.966 830.56C278.754 830.56 278.558 830.601 278.403 830.691C278.248 830.781 278.117 830.895 278.011 831.05C277.905 831.205 277.823 831.385 277.757 831.589C277.692 831.793 277.643 832.022 277.61 832.267C277.578 832.512 277.553 832.766 277.545 833.035C277.537 833.305 277.529 833.566 277.529 833.836C277.529 834.105 277.529 834.367 277.545 834.636C277.561 834.906 277.578 835.159 277.61 835.404C277.643 835.649 277.692 835.878 277.757 836.09C277.823 836.303 277.905 836.482 278.003 836.638C278.101 836.793 278.231 836.915 278.386 837.005C278.542 837.095 278.721 837.136 278.934 837.136H278.942Z" fill="#FF4C91"/>
<path d="M227.298 772.977V766.99L225.917 767.741V766.491L227.682 765.527H228.785V772.977H230.01V774.088H225.967V772.977H227.298Z" fill="#FF4C91"/>
<path d="M231.113 769.775C231.113 769.097 231.17 768.484 231.293 767.937C231.416 767.39 231.595 766.916 231.84 766.524C232.085 766.132 232.396 765.83 232.78 765.617C233.163 765.405 233.605 765.299 234.119 765.299C234.634 765.299 235.059 765.405 235.434 765.609C235.81 765.813 236.113 766.115 236.358 766.499C236.603 766.883 236.782 767.357 236.897 767.913C237.011 768.468 237.076 769.089 237.076 769.783C237.076 770.478 237.019 771.123 236.905 771.678C236.791 772.234 236.611 772.7 236.366 773.075C236.121 773.451 235.81 773.745 235.434 773.941C235.059 774.137 234.609 774.235 234.095 774.235C233.58 774.235 233.139 774.137 232.763 773.941C232.387 773.745 232.077 773.459 231.84 773.075C231.603 772.691 231.416 772.234 231.301 771.678C231.187 771.123 231.129 770.494 231.129 769.783L231.113 769.775ZM234.095 773.051C234.307 773.051 234.487 773.01 234.634 772.92C234.781 772.83 234.912 772.708 235.01 772.553C235.108 772.397 235.198 772.209 235.255 771.989C235.312 771.768 235.361 771.54 235.394 771.295C235.426 771.049 235.451 770.788 235.459 770.518C235.467 770.249 235.475 769.979 235.475 769.702C235.475 769.448 235.475 769.195 235.467 768.934C235.459 768.672 235.443 768.427 235.41 768.19C235.377 767.953 235.336 767.725 235.279 767.521C235.222 767.316 235.14 767.128 235.042 766.973C234.944 766.818 234.814 766.695 234.667 766.606C234.52 766.516 234.332 766.475 234.119 766.475C233.907 766.475 233.711 766.516 233.556 766.606C233.401 766.695 233.27 766.81 233.164 766.965C233.057 767.12 232.976 767.3 232.91 767.504C232.845 767.708 232.796 767.937 232.763 768.182C232.731 768.427 232.706 768.68 232.698 768.95C232.69 769.22 232.682 769.481 232.682 769.751C232.682 770.02 232.682 770.282 232.698 770.551C232.714 770.821 232.731 771.074 232.763 771.319C232.796 771.564 232.845 771.793 232.91 772.005C232.976 772.218 233.057 772.397 233.155 772.553C233.254 772.708 233.384 772.83 233.539 772.92C233.695 773.01 233.874 773.051 234.087 773.051H234.095Z" fill="#FF4C91"/>
<path d="M360.638 833.076C361.022 833.076 361.349 833.043 361.619 832.97C361.888 832.896 362.109 832.806 362.28 832.676C362.452 832.545 362.574 832.398 362.656 832.218C362.738 832.038 362.77 831.834 362.77 831.614C362.77 831.295 362.681 831.05 362.509 830.87C362.337 830.691 362.052 830.592 361.659 830.592C361.447 830.592 361.259 830.617 361.088 830.658C360.916 830.699 360.761 830.756 360.622 830.821C360.483 830.887 360.352 830.96 360.238 831.042C360.124 831.123 360.018 831.197 359.92 831.262L359.266 830.209C359.389 830.11 359.544 830.012 359.715 829.923C359.887 829.833 360.075 829.743 360.287 829.669C360.499 829.596 360.712 829.539 360.949 829.49C361.186 829.441 361.431 829.424 361.692 829.424C362.06 829.424 362.411 829.465 362.73 829.547C363.048 829.629 363.334 829.751 363.579 829.914C363.824 830.078 364.012 830.29 364.151 830.543C364.29 830.797 364.363 831.107 364.363 831.458C364.363 831.695 364.314 831.916 364.225 832.128C364.135 832.341 364.012 832.528 363.865 832.7C363.718 832.872 363.555 833.019 363.367 833.141C363.179 833.264 362.991 833.354 362.795 833.411C363.097 833.452 363.367 833.525 363.604 833.631C363.841 833.737 364.045 833.876 364.208 834.056C364.372 834.236 364.494 834.44 364.584 834.693C364.674 834.946 364.715 835.232 364.715 835.551C364.715 836.066 364.633 836.499 364.478 836.858C364.323 837.217 364.102 837.503 363.816 837.724C363.53 837.944 363.203 838.108 362.82 838.206C362.436 838.304 362.019 838.353 361.57 838.353C361.284 838.353 361.014 838.32 360.753 838.263C360.491 838.206 360.246 838.132 360.026 838.051C359.805 837.969 359.609 837.887 359.446 837.797C359.282 837.708 359.152 837.642 359.062 837.585L359.773 836.409C359.773 836.409 359.854 836.466 359.92 836.515C359.985 836.564 360.075 836.613 360.173 836.67C360.271 836.727 360.377 836.784 360.499 836.842C360.622 836.899 360.745 836.956 360.875 837.005C361.006 837.054 361.137 837.095 361.275 837.128C361.414 837.16 361.545 837.177 361.676 837.177C362.109 837.177 362.452 837.046 362.705 836.793C362.958 836.539 363.089 836.155 363.089 835.649C363.089 835.33 363.04 835.069 362.95 834.857C362.86 834.644 362.713 834.481 362.517 834.366C362.321 834.252 362.06 834.162 361.749 834.113C361.439 834.064 361.063 834.04 360.622 834.032L360.638 833.068V833.076Z" fill="#FF4C91"/>
<path d="M226.718 681.527C227.102 681.527 227.429 681.494 227.698 681.421C227.968 681.347 228.188 681.257 228.36 681.127C228.531 680.996 228.654 680.849 228.736 680.669C228.817 680.49 228.85 680.285 228.85 680.065C228.85 679.746 228.76 679.501 228.589 679.321C228.417 679.142 228.131 679.044 227.739 679.044C227.527 679.044 227.339 679.068 227.167 679.109C226.996 679.15 226.84 679.207 226.702 679.272C226.563 679.338 226.432 679.411 226.318 679.493C226.203 679.575 226.097 679.648 225.999 679.713L225.346 678.66C225.468 678.562 225.623 678.464 225.795 678.374C225.966 678.284 226.154 678.194 226.367 678.121C226.579 678.047 226.792 677.99 227.028 677.941C227.265 677.892 227.51 677.875 227.772 677.875C228.139 677.875 228.491 677.916 228.809 677.998C229.128 678.08 229.414 678.202 229.659 678.366C229.904 678.529 230.092 678.741 230.231 678.995C230.369 679.248 230.443 679.558 230.443 679.91C230.443 680.146 230.394 680.367 230.304 680.579C230.214 680.792 230.092 680.98 229.945 681.151C229.798 681.323 229.634 681.47 229.446 681.592C229.258 681.715 229.071 681.805 228.875 681.862C229.177 681.903 229.446 681.976 229.683 682.082C229.92 682.189 230.124 682.328 230.288 682.507C230.451 682.687 230.574 682.891 230.664 683.144C230.753 683.398 230.794 683.684 230.794 684.002C230.794 684.517 230.712 684.95 230.557 685.309C230.402 685.669 230.182 685.954 229.896 686.175C229.61 686.396 229.283 686.559 228.899 686.657C228.515 686.755 228.099 686.804 227.649 686.804C227.363 686.804 227.094 686.771 226.832 686.714C226.571 686.657 226.326 686.583 226.105 686.502C225.885 686.42 225.689 686.338 225.525 686.249C225.362 686.159 225.231 686.093 225.141 686.036L225.852 684.86C225.852 684.86 225.934 684.917 225.999 684.966C226.064 685.015 226.154 685.064 226.252 685.121C226.35 685.178 226.457 685.236 226.579 685.293C226.702 685.35 226.824 685.407 226.955 685.456C227.086 685.505 227.216 685.546 227.355 685.579C227.494 685.611 227.625 685.628 227.755 685.628C228.188 685.628 228.531 685.497 228.785 685.244C229.038 684.991 229.169 684.607 229.169 684.1C229.169 683.782 229.12 683.52 229.03 683.308C228.94 683.095 228.793 682.932 228.597 682.818C228.401 682.703 228.139 682.613 227.829 682.564C227.519 682.515 227.143 682.491 226.702 682.483L226.718 681.519V681.527Z" fill="#FF4C91"/>
<path d="M314.231 831.18C314.051 831.082 313.839 830.993 313.602 830.911C313.365 830.829 313.087 830.797 312.785 830.797C312.507 830.797 312.262 830.854 312.05 830.976C311.838 831.099 311.658 831.262 311.503 831.475C311.347 831.687 311.225 831.957 311.127 832.267C311.029 832.577 310.964 832.92 310.915 833.313C311.004 833.223 311.119 833.141 311.249 833.067C311.38 832.994 311.527 832.929 311.674 832.88C311.821 832.831 311.985 832.79 312.148 832.757C312.311 832.724 312.475 832.716 312.63 832.716C313.03 832.716 313.381 832.773 313.692 832.888C314.002 833.002 314.264 833.174 314.484 833.386C314.705 833.598 314.86 833.868 314.974 834.187C315.089 834.505 315.146 834.856 315.146 835.257C315.146 835.657 315.081 836.041 314.958 836.376C314.836 836.711 314.64 836.997 314.386 837.234C314.133 837.47 313.823 837.658 313.439 837.789C313.055 837.92 312.622 837.985 312.124 837.985C311.666 837.985 311.274 837.912 310.939 837.765C310.604 837.618 310.335 837.397 310.114 837.111C309.893 836.825 309.738 836.466 309.632 836.033C309.526 835.6 309.477 835.102 309.477 834.538C309.477 833.77 309.542 833.084 309.665 832.479C309.787 831.875 309.991 831.377 310.269 830.968C310.547 830.56 310.906 830.249 311.339 830.037C311.772 829.824 312.32 829.718 312.949 829.718C313.079 829.718 313.226 829.726 313.382 829.743C313.537 829.759 313.692 829.784 313.847 829.824C314.002 829.865 314.157 829.906 314.305 829.955C314.452 830.004 314.59 830.07 314.705 830.135L314.223 831.189L314.231 831.18ZM313.716 835.281C313.716 835.053 313.684 834.848 313.627 834.66C313.569 834.473 313.471 834.317 313.349 834.178C313.226 834.04 313.079 833.942 312.9 833.868C312.72 833.795 312.516 833.762 312.279 833.762C312.123 833.762 311.985 833.77 311.862 833.786C311.74 833.803 311.625 833.835 311.527 833.868C311.429 833.901 311.331 833.95 311.241 834.007C311.151 834.064 311.07 834.129 310.988 834.203C310.972 834.244 310.955 834.293 310.939 834.342C310.923 834.391 310.915 834.448 310.915 834.505C310.915 834.562 310.906 834.62 310.898 834.669C310.89 834.718 310.898 834.767 310.898 834.799C310.898 835.175 310.939 835.494 311.012 835.755C311.086 836.016 311.184 836.229 311.307 836.4C311.429 836.572 311.576 836.686 311.74 836.768C311.903 836.85 312.074 836.882 312.254 836.882C312.45 836.882 312.638 836.85 312.81 836.784C312.981 836.719 313.145 836.613 313.275 836.482C313.406 836.351 313.512 836.18 313.594 835.976C313.676 835.771 313.708 835.534 313.708 835.273L313.716 835.281Z" fill="#FF4C91"/>
<path d="M229.888 729.887C229.708 729.788 229.496 729.699 229.259 729.617C229.022 729.535 228.744 729.503 228.442 729.503C228.164 729.503 227.919 729.56 227.706 729.682C227.494 729.805 227.314 729.968 227.159 730.181C227.004 730.393 226.881 730.663 226.783 730.973C226.685 731.283 226.62 731.627 226.571 732.019C226.661 731.929 226.775 731.847 226.906 731.774C227.037 731.7 227.184 731.635 227.331 731.586C227.478 731.537 227.641 731.496 227.805 731.463C227.968 731.43 228.131 731.422 228.286 731.422C228.687 731.422 229.038 731.479 229.348 731.594C229.659 731.708 229.92 731.88 230.141 732.092C230.361 732.305 230.517 732.574 230.631 732.893C230.745 733.211 230.802 733.563 230.802 733.963C230.802 734.363 230.737 734.747 230.615 735.082C230.492 735.417 230.296 735.703 230.043 735.94C229.79 736.177 229.479 736.364 229.095 736.495C228.711 736.626 228.278 736.691 227.78 736.691C227.323 736.691 226.93 736.618 226.596 736.471C226.261 736.324 225.991 736.103 225.77 735.817C225.55 735.531 225.395 735.172 225.288 734.739C225.182 734.306 225.133 733.808 225.133 733.244C225.133 732.476 225.199 731.79 225.321 731.185C225.444 730.581 225.648 730.083 225.926 729.674C226.203 729.266 226.563 728.955 226.996 728.743C227.429 728.53 227.976 728.424 228.605 728.424C228.736 728.424 228.883 728.432 229.038 728.449C229.193 728.465 229.348 728.49 229.504 728.53C229.659 728.571 229.814 728.612 229.961 728.661C230.108 728.71 230.247 728.776 230.361 728.841L229.879 729.895L229.888 729.887ZM229.381 733.987C229.381 733.759 229.348 733.554 229.291 733.366C229.234 733.179 229.136 733.023 229.014 732.885C228.891 732.746 228.744 732.648 228.564 732.574C228.384 732.501 228.18 732.468 227.943 732.468C227.788 732.468 227.649 732.476 227.527 732.492C227.404 732.509 227.29 732.541 227.192 732.574C227.094 732.607 226.996 732.656 226.906 732.713C226.816 732.77 226.734 732.835 226.653 732.909C226.636 732.95 226.62 732.999 226.604 733.048C226.587 733.097 226.579 733.154 226.579 733.211C226.579 733.268 226.571 733.326 226.563 733.375C226.555 733.424 226.563 733.473 226.563 733.505C226.563 733.881 226.604 734.2 226.677 734.461C226.751 734.722 226.849 734.935 226.971 735.106C227.094 735.278 227.241 735.392 227.404 735.474C227.568 735.556 227.739 735.588 227.919 735.588C228.115 735.588 228.303 735.556 228.474 735.49C228.646 735.425 228.809 735.319 228.94 735.188C229.071 735.057 229.177 734.886 229.259 734.682C229.34 734.477 229.373 734.241 229.373 733.979L229.381 733.987Z" fill="#FF4C91"/>
<path d="M57.9251 778.491C89.7991 778.491 115.638 752.652 115.638 720.778C115.638 688.904 89.7991 663.065 57.9251 663.065C26.051 663.065 0.211914 688.904 0.211914 720.778C0.211914 752.652 26.051 778.491 57.9251 778.491Z" fill="#FF4C91"/>
<path d="M57.925 720.778V604.258C57.925 604.258 -4.0686 652.634 0.211886 720.778H57.925Z" fill="#FF4C91"/>
<path d="M57.9248 720.778V604.258C57.9248 604.258 119.918 652.634 115.638 720.778H57.9248Z" fill="#FF4C91"/>
<path d="M134.675 1190.71H139.631V1175.84H142.515V1195.08H139.631V1192.73H134.675V1190.71ZM129.635 1178.95C127.535 1178.95 126.107 1179.85 126.107 1181.28C126.107 1182.7 127.535 1183.6 129.635 1183.6C131.707 1183.6 133.135 1182.7 133.135 1181.28C133.135 1179.85 131.707 1178.95 129.635 1178.95ZM129.635 1185.73C125.911 1185.73 123.363 1183.96 123.363 1181.28C123.363 1178.59 125.911 1176.82 129.635 1176.82C133.331 1176.82 135.879 1178.59 135.879 1181.28C135.879 1183.96 133.331 1185.73 129.635 1185.73ZM128.487 1194.27V1189.56C126.079 1189.68 123.811 1189.7 121.795 1189.7L121.431 1187.35C126.079 1187.32 132.295 1187.27 137.643 1186.6L137.867 1188.67C135.739 1189.03 133.527 1189.26 131.371 1189.4V1194.27H128.487ZM127.731 1198.33H143.103V1200.68H124.847V1193.2H127.731V1198.33ZM159.901 1183.46H164.549V1175.9H167.433V1194.69H164.549V1185.84H159.901V1183.46ZM161.525 1189.12L160.125 1191.38C157.269 1190.49 155.141 1188.64 154.021 1186.26C152.901 1188.84 150.801 1190.85 147.861 1191.83L146.433 1189.59C150.325 1188.28 152.509 1185.2 152.509 1181.86V1181.39H147.189V1179.06H152.509V1176.04H155.421V1179.06H160.713V1181.39H155.393V1181.86C155.393 1184.97 157.633 1187.91 161.525 1189.12ZM153.937 1198.33H168.077V1200.68H151.053V1193.06H153.937V1198.33ZM182.775 1198.97C186.499 1198.97 188.571 1198.19 188.571 1196.7C188.571 1195.22 186.499 1194.44 182.775 1194.44C179.079 1194.44 177.007 1195.22 177.007 1196.7C177.007 1198.19 179.079 1198.97 182.775 1198.97ZM182.775 1192.25C188.235 1192.25 191.483 1193.85 191.483 1196.7C191.483 1199.56 188.235 1201.16 182.775 1201.16C177.343 1201.16 174.095 1199.56 174.095 1196.7C174.095 1193.85 177.343 1192.25 182.775 1192.25ZM177.203 1181.28V1183.71H188.459V1181.28H177.203ZM184.259 1188.33H194.283V1190.66H171.351V1188.33H181.347V1186.01H174.347V1176.57H177.203V1179.06H188.459V1176.57H191.315V1186.01H184.259V1188.33ZM204.109 1188.39V1193.15C205.789 1193.04 207.441 1192.92 208.897 1192.7L209.065 1194.83C204.921 1195.61 199.629 1195.72 196.353 1195.72L195.989 1193.34C197.473 1193.34 199.349 1193.34 201.337 1193.26V1188.39H204.109ZM204.165 1177.83V1179.96C204.165 1182.7 205.873 1185.31 209.093 1186.51L207.637 1188.72C205.285 1187.83 203.661 1186.15 202.765 1184.1C201.841 1186.43 200.133 1188.28 197.557 1189.26L196.101 1187.04C199.517 1185.78 201.281 1182.98 201.281 1179.96V1177.83H204.165ZM215.085 1175.84H217.829V1201.13H215.085V1188.44H212.565V1199.9H209.849V1176.35H212.565V1186.09H215.085V1175.84ZM229.39 1177.64C233.338 1177.64 236.278 1180.13 236.278 1183.71C236.278 1187.3 233.338 1189.79 229.39 1189.79C225.442 1189.79 222.53 1187.3 222.53 1183.71C222.53 1180.13 225.442 1177.64 229.39 1177.64ZM229.39 1180.1C227.066 1180.1 225.358 1181.5 225.358 1183.71C225.358 1185.9 227.066 1187.32 229.39 1187.32C231.742 1187.32 233.45 1185.9 233.45 1183.71C233.45 1181.5 231.742 1180.1 229.39 1180.1ZM239.134 1175.84H242.046V1201.18H239.134V1175.84ZM221.718 1195.84L221.354 1193.46C225.89 1193.46 232.19 1193.43 237.622 1192.62L237.818 1194.72C232.246 1195.78 226.198 1195.84 221.718 1195.84ZM256.537 1184.13C256.537 1186.88 259.253 1188.61 263.033 1188.61C266.785 1188.61 269.501 1186.88 269.501 1184.13C269.501 1181.39 266.785 1179.65 263.033 1179.65C259.253 1179.65 256.537 1181.39 256.537 1184.13ZM264.461 1195.7H274.513V1198.05H251.609V1195.7H261.577V1190.85C256.957 1190.43 253.737 1187.88 253.737 1184.13C253.737 1180.02 257.657 1177.36 263.033 1177.36C268.381 1177.36 272.329 1180.02 272.329 1184.13C272.329 1187.88 269.081 1190.46 264.461 1190.88V1195.7ZM293.775 1181.47V1179.06H279.215V1176.74H296.715V1183.63H282.183V1186.26H297.275V1188.58H279.271V1181.47H293.775ZM299.431 1190.82L299.459 1193.15H293.775V1201.18H290.891V1193.15H285.039V1201.18H282.155V1193.15H276.499V1190.82H299.431Z" fill="white"/>
</svg>
