<svg width="474" height="1213" viewBox="0 0 474 1213" fill="none" xmlns="http://www.w3.org/2000/svg">
<path d="M123 0H112V1111H123V0Z" fill="#4857F6"/>
<path d="M362 0H350V1072H362V0Z" fill="#4857F6"/>
<rect x="66.9172" y="1038.85" width="339.352" height="174" fill="black"/>
<path d="M155.16 1092.09C153.187 1092.09 151.497 1091.78 150.091 1091.16C148.698 1090.53 147.627 1089.58 146.879 1088.32C146.131 1087.06 145.757 1085.48 145.757 1083.6C145.757 1083.34 145.757 1083.12 145.757 1082.94C145.757 1082.76 145.757 1082.54 145.757 1082.28H149.065C149.065 1082.53 149.065 1082.74 149.065 1082.9C149.065 1083.07 149.065 1083.28 149.065 1083.54C149.065 1085.51 149.581 1086.94 150.613 1087.82C151.645 1088.68 153.148 1089.11 155.122 1089.11C157.16 1089.11 158.701 1088.77 159.746 1088.07C160.791 1087.37 161.313 1086.24 161.313 1084.68C161.313 1083.59 161.01 1082.68 160.404 1081.95C159.811 1081.22 158.985 1080.6 157.927 1080.1C156.87 1079.58 155.638 1079.11 154.232 1078.68C152.645 1078.19 151.226 1077.58 149.975 1076.83C148.737 1076.08 147.756 1075.16 147.034 1074.06C146.324 1072.95 145.97 1071.6 145.97 1070.02C145.97 1068.47 146.344 1067.16 147.092 1066.09C147.853 1065.02 148.911 1064.21 150.265 1063.65C151.62 1063.1 153.193 1062.82 154.986 1062.82C156.882 1062.82 158.527 1063.12 159.92 1063.71C161.326 1064.29 162.41 1065.18 163.171 1066.38C163.945 1067.57 164.332 1069.06 164.332 1070.87C164.332 1071.15 164.332 1071.4 164.332 1071.6C164.332 1071.8 164.332 1072.04 164.332 1072.32H161.023C161.023 1072.07 161.023 1071.85 161.023 1071.66C161.023 1071.47 161.023 1071.25 161.023 1071C161.023 1069.12 160.514 1067.78 159.495 1067C158.476 1066.2 156.992 1065.8 155.044 1065.8C153.174 1065.8 151.729 1066.13 150.71 1066.78C149.691 1067.44 149.182 1068.52 149.182 1070.02C149.182 1071.14 149.491 1072.07 150.11 1072.8C150.742 1073.52 151.6 1074.14 152.684 1074.66C153.767 1075.16 155.006 1075.65 156.399 1076.11C158.089 1076.67 159.54 1077.3 160.752 1078.01C161.978 1078.7 162.913 1079.57 163.558 1080.62C164.216 1081.66 164.545 1082.98 164.545 1084.57C164.545 1086.15 164.164 1087.51 163.403 1088.63C162.655 1089.75 161.578 1090.61 160.172 1091.2C158.779 1091.8 157.108 1092.09 155.16 1092.09ZM176.441 1092.02C175.809 1092.02 175.19 1091.95 174.584 1091.8C173.977 1091.66 173.429 1091.41 172.939 1091.05C172.462 1090.67 172.081 1090.15 171.797 1089.48C171.513 1088.8 171.372 1087.92 171.372 1086.85C171.372 1086.58 171.372 1086.3 171.372 1086.02C171.372 1085.72 171.372 1085.41 171.372 1085.09V1074.06H166.36V1071.16H169.572C170.011 1071.16 170.353 1071.14 170.598 1071.12C170.843 1071.08 171.017 1071 171.12 1070.87C171.236 1070.73 171.307 1070.51 171.333 1070.23C171.359 1069.93 171.372 1069.53 171.372 1069.01V1064.35H174.68V1071.16H181.104V1074.06H174.68V1084.02C174.68 1084.31 174.68 1084.59 174.68 1084.86C174.68 1085.13 174.68 1085.38 174.68 1085.61C174.68 1086.71 174.809 1087.57 175.067 1088.19C175.338 1088.8 175.938 1089.11 176.867 1089.11C177.241 1089.11 177.595 1089.08 177.931 1089.02C178.266 1088.95 178.518 1088.89 178.685 1088.82V1091.69C178.466 1091.76 178.157 1091.84 177.757 1091.9C177.37 1091.98 176.931 1092.02 176.441 1092.02ZM184.159 1091.71V1071.16H187.449V1077.47L186.365 1077.08C186.443 1076.32 186.636 1075.57 186.946 1074.83C187.255 1074.09 187.681 1073.42 188.223 1072.82C188.777 1072.22 189.468 1071.74 190.293 1071.39C191.119 1071.03 192.086 1070.85 193.195 1070.85C194.021 1070.85 194.692 1070.92 195.208 1071.06C195.737 1071.19 196.066 1071.29 196.195 1071.37L195.343 1074.6C195.214 1074.51 194.95 1074.4 194.55 1074.25C194.163 1074.11 193.608 1074.04 192.886 1074.04C191.815 1074.04 190.925 1074.23 190.216 1074.62C189.519 1075.01 188.964 1075.52 188.552 1076.17C188.152 1076.8 187.868 1077.49 187.7 1078.24C187.533 1078.99 187.449 1079.73 187.449 1080.46V1091.71H184.159ZM205.369 1092.09C203.808 1092.09 202.441 1091.85 201.267 1091.36C200.106 1090.87 199.203 1090.17 198.558 1089.25C197.913 1088.32 197.591 1087.21 197.591 1085.92C197.591 1084.58 197.939 1083.46 198.636 1082.57C199.332 1081.67 200.312 1080.97 201.577 1080.46C202.841 1079.96 204.311 1079.63 205.988 1079.46C208.516 1079.2 210.316 1078.95 211.387 1078.7C212.457 1078.45 212.993 1078.03 212.993 1077.47C212.993 1077.45 212.993 1077.45 212.993 1077.45C212.993 1077.43 212.993 1077.42 212.993 1077.41C212.993 1076.22 212.509 1075.34 211.541 1074.76C210.574 1074.16 209.174 1073.87 207.343 1073.87C205.434 1073.87 203.95 1074.2 202.892 1074.87C201.835 1075.53 201.306 1076.6 201.306 1078.08H198.055C198.055 1076.55 198.449 1075.25 199.235 1074.18C200.022 1073.09 201.112 1072.27 202.505 1071.7C203.911 1071.13 205.53 1070.85 207.362 1070.85C209.039 1070.85 210.548 1071.11 211.89 1071.62C213.244 1072.13 214.315 1072.88 215.102 1073.89C215.901 1074.88 216.301 1076.11 216.301 1077.58C216.301 1077.85 216.301 1078.12 216.301 1078.39C216.301 1078.65 216.301 1078.92 216.301 1079.19V1087.84C216.301 1088.29 216.321 1088.73 216.359 1089.15C216.398 1089.58 216.462 1089.95 216.553 1090.27C216.669 1090.66 216.798 1090.98 216.94 1091.22C217.082 1091.46 217.198 1091.62 217.288 1091.71H213.979C213.915 1091.64 213.818 1091.49 213.689 1091.26C213.56 1091.02 213.438 1090.73 213.321 1090.41C213.231 1090.15 213.16 1089.83 213.109 1089.44C213.057 1089.04 213.031 1088.63 213.031 1088.2L213.573 1088.57C213.173 1089.27 212.586 1089.88 211.812 1090.41C211.051 1090.94 210.129 1091.35 209.045 1091.65C207.962 1091.95 206.736 1092.09 205.369 1092.09ZM205.891 1089.13C207.22 1089.13 208.42 1088.93 209.49 1088.53C210.561 1088.12 211.412 1087.51 212.044 1086.71C212.676 1085.91 212.993 1084.92 212.993 1083.73V1079.65L213.728 1080.89C212.902 1081.21 211.87 1081.48 210.632 1081.68C209.407 1081.88 208.123 1082.04 206.781 1082.17C204.834 1082.35 203.363 1082.69 202.37 1083.19C201.39 1083.7 200.899 1084.54 200.899 1085.73C200.899 1086.85 201.306 1087.7 202.118 1088.28C202.931 1088.85 204.189 1089.13 205.891 1089.13ZM236.777 1091.71L231.03 1071.16H233.952L239.389 1090.26H238.789L242.388 1071.16H245.813L241.382 1091.71H236.777ZM222.884 1091.71L218.414 1071.16H221.839L225.477 1090.26H224.877L230.256 1071.16H233.178L227.509 1091.71H222.884ZM277.084 1063.17H282.772V1091.71H279.638V1065.8L279.735 1065.84L272.459 1091.71H267.738L260.424 1065.82L260.521 1065.78V1091.71H257.386V1063.17H263.075L270.079 1089.06H270.041L277.084 1063.17ZM294.825 1092.09C293.264 1092.09 291.897 1091.85 290.723 1091.36C289.562 1090.87 288.659 1090.17 288.014 1089.25C287.369 1088.32 287.047 1087.21 287.047 1085.92C287.047 1084.58 287.395 1083.46 288.092 1082.57C288.788 1081.67 289.768 1080.97 291.033 1080.46C292.297 1079.96 293.767 1079.63 295.444 1079.46C297.972 1079.2 299.772 1078.95 300.843 1078.7C301.913 1078.45 302.449 1078.03 302.449 1077.47C302.449 1077.45 302.449 1077.45 302.449 1077.45C302.449 1077.43 302.449 1077.42 302.449 1077.41C302.449 1076.22 301.965 1075.34 300.997 1074.76C300.03 1074.16 298.63 1073.87 296.799 1073.87C294.889 1073.87 293.406 1074.2 292.348 1074.87C291.291 1075.53 290.762 1076.6 290.762 1078.08H287.511C287.511 1076.55 287.904 1075.25 288.691 1074.18C289.478 1073.09 290.568 1072.27 291.961 1071.7C293.367 1071.13 294.986 1070.85 296.818 1070.85C298.495 1070.85 300.004 1071.11 301.346 1071.62C302.7 1072.13 303.771 1072.88 304.558 1073.89C305.357 1074.88 305.757 1076.11 305.757 1077.58C305.757 1077.85 305.757 1078.12 305.757 1078.39C305.757 1078.65 305.757 1078.92 305.757 1079.19V1087.84C305.757 1088.29 305.777 1088.73 305.815 1089.15C305.854 1089.58 305.918 1089.95 306.009 1090.27C306.125 1090.66 306.254 1090.98 306.396 1091.22C306.538 1091.46 306.654 1091.62 306.744 1091.71H303.435C303.371 1091.64 303.274 1091.49 303.145 1091.26C303.016 1091.02 302.894 1090.73 302.777 1090.41C302.687 1090.15 302.616 1089.83 302.565 1089.44C302.513 1089.04 302.487 1088.63 302.487 1088.2L303.029 1088.57C302.629 1089.27 302.042 1089.88 301.268 1090.41C300.507 1090.94 299.585 1091.35 298.501 1091.65C297.418 1091.95 296.192 1092.09 294.825 1092.09ZM295.347 1089.13C296.676 1089.13 297.876 1088.93 298.946 1088.53C300.017 1088.12 300.868 1087.51 301.5 1086.71C302.132 1085.91 302.449 1084.92 302.449 1083.73V1079.65L303.184 1080.89C302.358 1081.21 301.326 1081.48 300.088 1081.68C298.862 1081.88 297.579 1082.04 296.237 1082.17C294.29 1082.35 292.819 1082.69 291.826 1083.19C290.846 1083.7 290.355 1084.54 290.355 1085.73C290.355 1086.85 290.762 1087.7 291.574 1088.28C292.387 1088.85 293.645 1089.13 295.347 1089.13ZM324.772 1091.71V1081.86C324.772 1081.26 324.772 1080.78 324.772 1080.41C324.772 1080.02 324.772 1079.65 324.772 1079.3C324.772 1078.23 324.592 1077.3 324.231 1076.5C323.869 1075.7 323.302 1075.08 322.528 1074.64C321.754 1074.2 320.741 1073.98 319.49 1073.98C318.394 1073.98 317.375 1074.27 316.433 1074.83C315.504 1075.39 314.756 1076.14 314.189 1077.1C313.634 1078.04 313.357 1079.1 313.357 1080.27L311.48 1079.56C311.48 1077.94 311.873 1076.48 312.66 1075.16C313.46 1073.85 314.517 1072.8 315.833 1072.03C317.162 1071.24 318.607 1070.85 320.167 1070.85C321.754 1070.85 323.141 1071.15 324.327 1071.76C325.514 1072.36 326.43 1073.23 327.075 1074.37C327.733 1075.49 328.062 1076.85 328.062 1078.43C328.062 1079 328.062 1079.62 328.062 1080.29C328.062 1080.96 328.062 1081.59 328.062 1082.17V1091.71H324.772ZM310.067 1091.71V1071.16H313.357V1091.71H310.067ZM181.408 1114.07L182.898 1112.19V1125.23L181.834 1124.19H193.385V1127.09H181.834L182.898 1125.99V1139.71H179.608V1111.17H195.107V1114.07H181.408ZM204.149 1140.09C202.588 1140.09 201.221 1139.85 200.047 1139.36C198.886 1138.87 197.983 1138.17 197.338 1137.25C196.693 1136.32 196.371 1135.21 196.371 1133.92C196.371 1132.58 196.719 1131.46 197.416 1130.57C198.112 1129.67 199.093 1128.97 200.357 1128.46C201.621 1127.96 203.091 1127.63 204.768 1127.46C207.297 1127.2 209.096 1126.95 210.167 1126.7C211.237 1126.45 211.773 1126.03 211.773 1125.47C211.773 1125.45 211.773 1125.45 211.773 1125.45C211.773 1125.43 211.773 1125.42 211.773 1125.41C211.773 1124.22 211.289 1123.34 210.321 1122.76C209.354 1122.16 207.954 1121.87 206.123 1121.87C204.214 1121.87 202.73 1122.2 201.672 1122.87C200.615 1123.53 200.086 1124.6 200.086 1126.08H196.835C196.835 1124.55 197.229 1123.25 198.015 1122.18C198.802 1121.09 199.892 1120.27 201.285 1119.7C202.691 1119.13 204.31 1118.85 206.142 1118.85C207.819 1118.85 209.328 1119.11 210.67 1119.62C212.024 1120.13 213.095 1120.88 213.882 1121.89C214.681 1122.88 215.081 1124.11 215.081 1125.58C215.081 1125.85 215.081 1126.12 215.081 1126.39C215.081 1126.65 215.081 1126.92 215.081 1127.19V1135.84C215.081 1136.29 215.101 1136.73 215.139 1137.15C215.178 1137.58 215.243 1137.95 215.333 1138.27C215.449 1138.66 215.578 1138.98 215.72 1139.22C215.862 1139.46 215.978 1139.62 216.068 1139.71H212.759C212.695 1139.64 212.598 1139.49 212.469 1139.26C212.34 1139.02 212.218 1138.73 212.102 1138.41C212.011 1138.15 211.94 1137.83 211.889 1137.44C211.837 1137.04 211.811 1136.63 211.811 1136.2L212.353 1136.57C211.953 1137.27 211.366 1137.88 210.592 1138.41C209.831 1138.94 208.909 1139.35 207.825 1139.65C206.742 1139.95 205.516 1140.09 204.149 1140.09ZM204.672 1137.13C206 1137.13 207.2 1136.93 208.27 1136.53C209.341 1136.12 210.192 1135.51 210.825 1134.71C211.457 1133.91 211.773 1132.92 211.773 1131.73V1127.65L212.508 1128.89C211.682 1129.21 210.65 1129.48 209.412 1129.68C208.187 1129.88 206.903 1130.04 205.562 1130.17C203.614 1130.35 202.143 1130.69 201.15 1131.19C200.17 1131.7 199.679 1132.54 199.679 1133.73C199.679 1134.85 200.086 1135.7 200.898 1136.28C201.711 1136.85 202.969 1137.13 204.672 1137.13ZM222.932 1109.46V1139.71H219.682V1109.46H222.932ZM231.332 1109.46V1139.71H228.082V1109.46H231.332ZM243.37 1140.09C241.809 1140.09 240.442 1139.85 239.268 1139.36C238.107 1138.87 237.204 1138.17 236.559 1137.25C235.914 1136.32 235.592 1135.21 235.592 1133.92C235.592 1132.58 235.94 1131.46 236.637 1130.57C237.333 1129.67 238.314 1128.97 239.578 1128.46C240.842 1127.96 242.312 1127.63 243.989 1127.46C246.518 1127.2 248.317 1126.95 249.388 1126.7C250.458 1126.45 250.994 1126.03 250.994 1125.47C250.994 1125.45 250.994 1125.45 250.994 1125.45C250.994 1125.43 250.994 1125.42 250.994 1125.41C250.994 1124.22 250.51 1123.34 249.543 1122.76C248.575 1122.16 247.175 1121.87 245.344 1121.87C243.435 1121.87 241.951 1122.2 240.894 1122.87C239.836 1123.53 239.307 1124.6 239.307 1126.08H236.056C236.056 1124.55 236.45 1123.25 237.237 1122.18C238.023 1121.09 239.113 1120.27 240.507 1119.7C241.913 1119.13 243.531 1118.85 245.363 1118.85C247.04 1118.85 248.549 1119.11 249.891 1119.62C251.245 1120.13 252.316 1120.88 253.103 1121.89C253.903 1122.88 254.302 1124.11 254.302 1125.58C254.302 1125.85 254.302 1126.12 254.302 1126.39C254.302 1126.65 254.302 1126.92 254.302 1127.19V1135.84C254.302 1136.29 254.322 1136.73 254.36 1137.15C254.399 1137.58 254.464 1137.95 254.554 1138.27C254.67 1138.66 254.799 1138.98 254.941 1139.22C255.083 1139.46 255.199 1139.62 255.289 1139.71H251.98C251.916 1139.64 251.819 1139.49 251.69 1139.26C251.561 1139.02 251.439 1138.73 251.323 1138.41C251.232 1138.15 251.161 1137.83 251.11 1137.44C251.058 1137.04 251.032 1136.63 251.032 1136.2L251.574 1136.57C251.174 1137.27 250.587 1137.88 249.813 1138.41C249.052 1138.94 248.13 1139.35 247.046 1139.65C245.963 1139.95 244.738 1140.09 243.37 1140.09ZM243.893 1137.13C245.221 1137.13 246.421 1136.93 247.492 1136.53C248.562 1136.12 249.414 1135.51 250.046 1134.71C250.678 1133.91 250.994 1132.92 250.994 1131.73V1127.65L251.729 1128.89C250.903 1129.21 249.871 1129.48 248.633 1129.68C247.408 1129.88 246.124 1130.04 244.783 1130.17C242.835 1130.35 241.364 1130.69 240.371 1131.19C239.391 1131.7 238.901 1132.54 238.901 1133.73C238.901 1134.85 239.307 1135.7 240.12 1136.28C240.932 1136.85 242.19 1137.13 243.893 1137.13ZM268.364 1140.09C266.404 1140.09 264.623 1139.67 263.024 1138.82C261.424 1137.95 260.154 1136.72 259.212 1135.12C258.283 1133.52 257.819 1131.62 257.819 1129.41C257.819 1127.21 258.283 1125.32 259.212 1123.74C260.154 1122.16 261.424 1120.94 263.024 1120.11C264.623 1119.27 266.404 1118.85 268.364 1118.85C269.861 1118.85 271.196 1119.08 272.37 1119.54C273.543 1120 274.537 1120.6 275.349 1121.36C276.162 1122.12 276.781 1122.96 277.207 1123.88C277.645 1124.78 277.865 1125.68 277.865 1126.59C277.865 1126.6 277.865 1126.62 277.865 1126.65C277.865 1126.67 277.865 1126.7 277.865 1126.72H274.595C274.595 1126.66 274.588 1126.59 274.575 1126.51C274.562 1126.42 274.55 1126.33 274.537 1126.24C274.433 1125.38 274.104 1124.62 273.55 1123.98C272.995 1123.32 272.273 1122.8 271.383 1122.43C270.493 1122.05 269.48 1121.87 268.345 1121.87C267.068 1121.87 265.881 1122.14 264.785 1122.7C263.701 1123.24 262.824 1124.07 262.153 1125.19C261.495 1126.3 261.166 1127.71 261.166 1129.41C261.166 1131.1 261.495 1132.52 262.153 1133.65C262.811 1134.79 263.682 1135.64 264.765 1136.22C265.862 1136.79 267.055 1137.08 268.345 1137.08C269.738 1137.08 270.886 1136.86 271.789 1136.42C272.692 1135.98 273.369 1135.4 273.821 1134.68C274.285 1133.94 274.543 1133.15 274.595 1132.32H277.865C277.865 1133.24 277.658 1134.17 277.245 1135.1C276.833 1136.02 276.226 1136.86 275.427 1137.62C274.627 1138.37 273.634 1138.96 272.447 1139.42C271.273 1139.87 269.912 1140.09 268.364 1140.09ZM281.199 1148.37C280.683 1148.37 280.212 1148.34 279.786 1148.28C279.361 1148.23 279.096 1148.17 278.993 1148.12V1145.26C279.161 1145.34 279.438 1145.4 279.825 1145.45C280.212 1145.5 280.599 1145.53 280.986 1145.53C281.811 1145.53 282.508 1145.36 283.076 1145.01C283.643 1144.67 284.12 1144.21 284.507 1143.62C284.894 1143.03 285.21 1142.38 285.456 1141.64L286.075 1139.82L278.993 1119.16H282.437L288.126 1136.86H287.661L293.234 1119.16H296.62L289.093 1141.47C288.667 1142.72 288.151 1143.87 287.545 1144.91C286.952 1145.96 286.152 1146.79 285.146 1147.43C284.153 1148.06 282.837 1148.37 281.199 1148.37Z" fill="white"/>
<path d="M46.3155 934.219C44.7634 930.96 43.9547 927.047 42.999 923.265C41.7001 918.135 39.8458 914.156 35.8104 913.209C33.7845 912.735 32.02 911.068 30.133 909.941C28.4666 904.149 24.521 902.949 21.0656 900.678C19.056 899.354 17.5285 902.262 15.7476 902.744C12.5046 902.197 9.44944 901.102 7.05596 897.949C6.574 900.114 8.01171 901.347 7.91368 903.39C5.80612 904.231 4.85854 901.298 3.02872 901.429C1.04368 900.196 -0.328715 897.1 0.904784 894.535C2.15462 891.929 5.20163 892.068 6.80273 893.522C10.5359 896.912 14.7837 897.14 19.2847 896.569C19.8647 895.057 17.8389 895.278 18.7048 893.62C19.4563 892.182 19.971 893.505 20.6 893.538C21.1799 893.563 21.8089 893.481 22.3889 893.187C26.359 891.194 29.5857 892.876 32.6817 895.245C34.5115 898.815 36.0391 902.973 39.8785 902.54C40.3768 903.03 40.2869 906.175 41.6266 902.875C42.4108 900.947 42.0514 898.611 43.3502 896.887C43.6525 896.487 43.7587 894.927 43.775 894.927C46.6913 895.311 48.5619 890.597 51.2005 889.756C48.8397 894.477 51.5191 895.907 52.7852 898.202C55.8513 903.757 59.2414 903.049 62.9555 896.079C63.9276 896.413 65.251 895.94 65.4307 898.113C63.9113 902.867 60.4722 905.595 58.9364 910.341C60.5457 912.237 63.2578 910.586 64.4586 913.315C63.3558 915.365 61.8609 914.646 60.3578 916.019C64.7608 921.222 67.1951 928.427 71.206 933.394C73.4606 936.188 75.7888 938.573 76.6383 943.458C77.4307 948.008 79.7752 945.762 81.7521 943.335C84.0312 946.26 81.3926 949.168 80.3552 951.153C79.3014 953.154 78.0679 950.9 77.2428 949.707C75.413 947.06 74.2449 942.96 70.6914 944.299C70.3647 942.568 72.6764 940.909 71.4838 939.357C69.5723 936.874 67.5137 934.611 65.4225 932.446C64.1808 931.164 63.4783 932.34 63.2986 934.513C62.9636 938.467 67.0563 944.928 70.0134 945.133C70.2911 946.431 70.0461 947.689 69.2864 948.71C65.7002 953.571 65.4552 959.158 66.1168 964.754C66.8357 970.864 67.3013 977.04 66.8357 983.526C66.5988 986.875 67.8977 988.64 69.0005 990.715C72.4722 997.242 75.7724 1003.96 77.8065 1012.05C78.0189 1012.89 78.1169 1013.72 77.733 1014.67C73.7057 1014.24 73.1911 1008.84 71.7207 1003.7C70.9773 1007.22 71.3368 1010 70.1196 1012.15C68.1999 1001.35 64.7363 992.087 59.8023 984.286C59.7615 981.476 58.8384 979.009 59.3122 975.995C62.1468 976.852 61.7792 982.44 64.287 983.82C64.8262 982.538 64.9814 981.37 64.867 980.046C63.9521 970.146 63.4293 960.098 63.2251 949.928C63.2006 948.784 63.7969 946.734 62.0896 947.363C61.4688 947.591 60.7662 946.448 60.2924 948.425C59.9575 949.854 58.4463 951.12 59.6961 952.656C59.9657 952.983 60.7907 953.595 60.2352 953.849C56.9187 955.335 59.4347 956.937 59.5899 958.415C59.9984 962.271 60.5294 966.118 57.5722 969.419C56.2571 964.305 54.9174 959.208 53.6348 954.077C53.3081 952.77 52.4422 951.529 53.6185 949.772C54.8602 949.601 56.2489 949.397 56.3959 946.889C56.6328 942.715 58.675 938.238 55.7751 934.676C53.1202 931.417 49.9997 928.468 48.7825 923.044C49.5994 923.657 50.4245 924.277 51.2414 924.89C51.3802 925.56 51.756 926.303 52.1481 925.65C52.6382 924.833 51.8867 924.759 51.5763 924.482C52.0092 922.023 49.7383 922.488 49.8853 920.34C51.3884 919.703 52.3768 920.887 53.4387 921.81C54.852 927.79 58.2175 930.747 61.673 935.011C61.7547 928.133 58.1114 927.275 56.6818 923.697C57.3762 921.606 59.2305 922.489 60.0474 920.601C58.9691 918.134 56.1018 920.234 55.7833 916.86C55.5382 914.279 54.3373 913.887 52.8914 913.462C51.3557 913.013 48.6355 911.755 49.0276 910.562C50.4326 906.265 47.8921 908.896 47.4673 908.046C45.9887 909.982 44.5674 908.887 43.244 908.667C42.4435 911.101 44.6736 911.011 44.0936 912.637C42.9173 915.945 42.9009 915.676 44.8124 917.015C45.8907 917.775 47.402 917.563 48.0473 919.409C48.3006 920.65 48.5538 921.884 48.8152 923.126C47.933 923.632 47.2713 921.761 46.2339 923.215C46.9119 926.622 48.5375 929.301 48.2679 933.271C47.549 933.01 46.9037 933.394 46.3155 934.268V934.219ZM50.3918 905.04C50.8819 899.951 48.178 898.962 46.5116 896.626C46.0378 895.964 45.2781 895.499 44.6817 896.895C44.2651 897.868 44.6491 898.652 45.1147 899.174C46.8629 901.143 48.6355 903.087 50.4 905.04H50.3918Z" fill="#FF4C91"/>
<path d="M432.188 906.053C434.1 901.805 436.918 898.472 439.548 894.968C443.118 890.214 445.471 885.083 444.27 877.83C443.665 874.194 444.164 870.379 444.155 866.646C448.085 860.928 447.129 853.691 447.3 846.747C447.399 842.712 444.262 841.592 442.987 838.856C441.835 833.129 441.239 827.452 442.652 821.832C440.643 822.11 440.332 825.14 438.609 826.006C436.885 822.886 438.821 819.814 437.816 816.808C437.849 812.854 439.72 808.999 442.432 809.775C445.185 810.567 446.565 815.754 446.165 819.177C445.217 827.158 447.121 834.404 449.8 841.69C451.328 841.911 450.151 838.611 451.94 839.24C453.484 839.779 452.651 841.307 452.937 842.377C453.198 843.365 453.582 844.386 454.105 845.211C457.699 850.889 457.904 857.146 457.479 863.542C455.445 868.411 452.79 873.083 455.028 879.308C454.865 880.395 452.251 881.824 455.608 882.412C457.577 882.755 459.317 880.983 461.375 882.298C461.857 882.6 463.189 881.996 463.197 882.028C464.316 887.126 469.103 887.894 471.088 891.904C466.056 890.312 466.195 895.531 464.937 898.815C461.887 906.761 464.136 912.103 471.685 914.843C471.881 916.648 472.934 918.633 471.235 920.022C466.587 919.866 462.658 915.447 458.002 915.251C457.242 918.919 459.93 922.627 458.271 926.034C456.049 925.217 455.902 922.342 454.032 920.496C451.924 930.511 447.211 938.23 445.103 947.469C443.919 952.656 443.102 957.77 439.516 961.658C436.174 965.285 439.173 968.087 442.138 970.195C440.855 975.505 437.179 972.531 435.039 971.78C432.874 971.02 434.124 967.81 434.696 965.825C435.962 961.413 438.756 957.394 435.913 952.084C437.171 950.663 439.671 953.726 440.357 950.925C441.452 946.456 442.301 941.865 443.045 937.258C443.486 934.521 442.17 933.941 440.308 934.726C436.893 936.155 433.61 946.276 434.892 951.349C433.961 952.468 432.809 952.689 431.592 951.929C425.833 948.343 421.127 950.745 416.863 954.666C412.207 958.954 407.363 962.835 401.816 965.318C398.949 966.601 398.14 969.68 396.988 972.58C393.337 981.697 389.449 990.625 383.804 998.116C383.224 998.884 382.587 999.472 381.623 999.309C379.989 992.324 384.172 988.746 387.676 983.682C384.417 984.204 382.317 986.214 379.948 985.242C387.864 976.583 393.77 966.102 397.74 953.882C400.027 952.395 401.596 949.609 404.3 948.89C404.986 954.078 400.223 956.283 400.321 961.193C401.637 961.454 402.682 961.127 403.703 960.261C411.374 953.751 419.363 947.812 427.614 942.355C428.545 941.743 430.522 941.71 429.166 939.161C428.676 938.238 429.264 936.474 427.409 936.678C426.07 936.833 424.289 934.93 423.652 937.813C423.513 938.434 423.423 940.133 422.941 939.316C420.09 934.497 420.008 939.521 418.873 940.526C415.908 943.156 413.016 945.982 408.85 942.658C412.395 937.871 415.924 933.067 419.502 928.321C420.417 927.112 421.013 925.037 423.023 926.124C423.766 928.125 424.632 930.363 426.756 929.342C430.301 927.651 434.974 928.828 436.469 922.154C437.841 916.052 438.723 909.329 442.571 904.542C442.473 906.233 442.366 907.915 442.268 909.606C441.786 910.178 441.37 911.183 442.089 911.51C443.004 911.926 442.685 910.619 442.767 909.958C444.997 909.451 443.502 905.865 445.332 905.032C446.598 907.237 446.108 909.5 445.879 911.747C441.664 917.138 440.896 924.278 439.091 932.226C444.776 928.901 443.69 922.35 445.928 918.151C447.987 918.257 448.175 921.827 450.119 922.244C451.614 919.197 448.477 915.431 451.091 913.192C453.092 911.477 452.823 909.263 452.455 906.617C452.071 903.815 451.761 898.603 452.937 898.66C457.152 898.856 453.746 895.907 454.236 894.78C451.924 893.277 452.12 890.336 451.654 888C449.261 887.877 450.429 891.578 448.82 891.422C445.52 891.104 445.74 890.941 445.585 894.837C445.495 897.034 446.41 899.469 445.209 901.47C444.319 902.524 443.428 903.57 442.538 904.623C441.689 903.39 442.897 901.339 441.198 900.327C438.74 903.177 437.334 907.262 433.944 908.806C433.806 907.466 433.177 906.576 432.172 906.028L432.188 906.053ZM458.141 898.235C462.56 896.495 462.037 891.447 463.14 887.477C463.45 886.35 463.459 884.83 462.021 884.528C461.016 884.316 460.559 885.353 460.362 886.399C459.603 890.336 458.884 894.282 458.149 898.227L458.141 898.235Z" fill="#FF4C91"/>
<path d="M49.5993 774.117C51.274 770.401 53.7328 767.484 56.0364 764.421C59.1651 760.255 61.2236 755.77 60.1698 749.423C59.6389 746.237 60.0718 742.904 60.0718 739.645C63.5109 734.646 62.6777 728.315 62.8247 722.229C62.9064 718.7 60.1698 717.72 59.0507 715.326C58.0459 710.319 57.5231 705.344 58.7566 700.426C56.9921 700.671 56.7226 703.326 55.2195 704.078C53.7083 701.349 55.4074 698.662 54.5251 696.031C54.5578 692.576 56.1916 689.194 58.5606 689.88C60.9704 690.574 62.1794 695.108 61.8281 698.106C61.003 705.091 62.6613 711.43 65.014 717.801C66.3455 717.989 65.3162 715.106 66.8846 715.653C68.2407 716.127 67.5055 717.458 67.7587 718.398C67.9874 719.264 68.3224 720.154 68.7798 720.881C71.9248 725.848 72.1045 731.329 71.7288 736.925C69.9479 741.181 67.6198 745.273 69.5885 750.722C69.4496 751.669 67.1542 752.927 70.095 753.434C71.8186 753.736 73.338 752.184 75.1433 753.336C75.5599 753.605 76.7281 753.074 76.7363 753.107C77.7165 757.567 81.899 758.237 83.6472 761.75C79.2441 760.353 79.3666 764.927 78.2638 767.795C75.5954 774.744 77.5641 779.419 84.17 781.821C84.3415 783.397 85.2564 785.137 83.7778 786.346C79.7097 786.207 76.2707 782.343 72.2026 782.172C71.5327 785.382 73.8853 788.625 72.4394 791.607C70.4953 790.888 70.3646 788.372 68.7308 786.763C66.8928 795.528 62.7594 802.284 60.9214 810.363C59.8839 814.905 59.1732 819.373 56.0364 822.779C53.1119 825.957 55.7341 828.408 58.3237 830.246C57.2045 834.894 53.986 832.288 52.1072 831.634C50.212 830.973 51.3066 828.163 51.8049 826.423C52.9159 822.567 55.3584 819.046 52.8669 814.406C53.9697 813.157 56.1589 815.836 56.7553 813.393C57.711 809.481 58.4543 805.47 59.1079 801.434C59.5 799.041 58.3482 798.534 56.7144 799.22C53.7327 800.47 50.8491 809.325 51.9765 813.769C51.1596 814.749 50.1467 814.937 49.0929 814.276C44.0527 811.139 39.9437 813.238 36.2024 816.669C32.1261 820.419 27.8865 823.817 23.0342 825.99C20.5263 827.109 19.8238 829.805 18.8027 832.345C15.6087 840.326 12.2023 848.136 7.26828 854.687C6.76181 855.357 6.20631 855.88 5.36492 855.733C3.93537 849.622 7.595 846.485 10.6583 842.066C7.80739 842.524 5.96942 844.28 3.89453 843.43C10.8217 835.85 15.9844 826.684 19.4644 815.991C21.4658 814.692 22.8381 812.258 25.2071 811.621C25.8116 816.163 21.6455 818.09 21.7272 822.387C22.879 822.616 23.7939 822.33 24.6843 821.57C31.3991 815.868 38.3916 810.681 45.6047 805.903C46.4216 805.363 48.1452 805.339 46.9608 803.101C46.5278 802.292 47.0506 800.748 45.425 800.928C44.2487 801.058 42.6966 799.4 42.133 801.916C42.0104 802.455 41.9369 803.942 41.5121 803.231C39.0206 799.016 38.9471 803.411 37.9587 804.293C35.3692 806.597 32.8286 809.064 29.1935 806.164C32.2976 801.973 35.3855 797.774 38.5142 793.617C39.3147 792.555 39.8375 790.741 41.602 791.697C42.2555 793.445 43.007 795.405 44.8695 794.515C47.9655 793.037 52.0582 794.066 53.3733 788.225C54.5742 782.883 55.342 777.001 58.7158 772.819C58.6259 774.297 58.536 775.776 58.4462 777.254C58.0296 777.753 57.6538 778.635 58.291 778.921C59.0915 779.28 58.8138 778.145 58.8873 777.565C60.8397 777.124 59.5327 773.987 61.1338 773.252C62.2366 775.179 61.8117 777.156 61.6075 779.125C57.9234 783.838 57.2536 790.088 55.6688 797.039C60.6436 794.131 59.6879 788.397 61.6484 784.721C63.4456 784.81 63.6089 787.939 65.3162 788.307C66.6232 785.644 63.8785 782.344 66.1658 780.383C67.9139 778.88 67.677 776.952 67.3584 774.632C67.0235 772.181 66.7539 767.623 67.7751 767.672C71.4674 767.844 68.4857 765.262 68.9105 764.274C66.8846 762.959 67.0562 760.386 66.6477 758.335C64.5565 758.229 65.5776 761.472 64.1644 761.333C61.2808 761.055 61.4687 760.908 61.338 764.323C61.2645 766.251 62.0568 768.375 61.0112 770.131C60.2352 771.054 59.451 771.969 58.6749 772.892C57.9316 771.814 58.9935 770.017 57.5068 769.134C55.3502 771.634 54.1249 775.204 51.1596 776.552C51.037 775.384 50.4897 774.599 49.6075 774.117H49.5993ZM72.3006 767.28C76.1645 765.761 75.7152 761.341 76.6709 757.87C76.9405 756.881 76.9487 755.558 75.6907 755.288C74.8166 755.109 74.4163 756.007 74.2366 756.922C73.5749 760.369 72.9378 763.825 72.3006 767.272V767.28Z" fill="#FF4C91"/>
<path d="M433.552 757.478C434.067 753.434 435.66 749.709 437.04 745.935C438.911 740.805 439.573 735.904 436.42 730.855C434.843 728.323 434.198 725.202 433.136 722.351C435.055 716.339 432.131 711.201 430.309 705.818C429.247 702.689 426.102 703.138 424.175 701.578C421.511 697.682 419.347 693.581 419.02 688.696C417.28 689.75 417.868 692.192 416.561 693.573C414.119 691.906 414.993 688.745 413.228 686.866C412.134 683.827 412.722 680.094 415.393 679.563C418.105 679.024 420.833 682.414 421.438 685.199C422.859 691.694 426.633 696.456 431.134 700.9C432.572 700.434 430.571 698.4 432.368 698.131C433.92 697.902 433.601 699.413 434.165 700.116C434.688 700.761 435.317 701.382 436.027 701.799C440.888 704.641 442.857 709.347 444.294 714.411C443.845 718.986 442.775 723.667 446.573 727.49C446.737 728.388 444.784 730.569 447.978 729.622C449.849 729.066 450.919 726.983 453.149 727.13C453.672 727.163 454.701 726.142 454.718 726.166C457.185 729.597 461.719 728.192 464.659 730.43C459.66 731.305 461.277 735.242 461.073 738.281C460.583 745.627 464.134 748.778 471.725 747.732C472.42 749.031 473.931 750.109 472.796 751.882C468.548 753.695 463.753 751.955 459.488 753.753C459.84 756.873 463.328 758.597 462.805 761.889C460.567 762.191 459.611 760.051 457.405 759.422C458.361 767.958 456.294 775.833 457.03 783.773C457.438 788.233 458.157 792.489 456.025 796.958C454.04 801.124 457.544 802.022 460.82 802.39C461.179 806.981 457.005 806.246 454.857 806.564C452.684 806.883 452.896 803.909 452.847 802.153C452.733 798.248 454.113 794.017 450.037 791.141C450.772 789.524 453.901 790.831 453.721 788.405C453.435 784.533 452.896 780.669 452.259 776.838C451.883 774.559 450.527 774.665 449.065 776.037C446.394 778.553 446.304 787.662 448.91 791.011C448.387 792.261 447.407 792.906 446.1 792.832C439.883 792.489 436.322 796.288 433.585 801.067C430.603 806.286 427.336 811.278 423.031 815.485C420.809 817.658 420.956 820.353 420.735 823.049C420.041 831.545 419.069 839.991 416.112 848.078C415.809 848.903 415.401 849.622 414.486 849.9C411.023 845.244 413.775 840.759 415.499 835.425C412.705 837.181 411.382 839.599 408.972 839.844C413.653 829.919 415.997 819.447 416.104 808.443C417.737 806.352 418.375 803.566 420.605 801.892C422.704 805.576 419.028 809.244 420.515 812.96C421.773 812.609 422.622 811.931 423.3 810.837C428.373 802.66 433.895 794.785 439.785 787.18C440.447 786.322 442.228 785.472 440.275 784.092C439.565 783.593 439.597 781.992 437.988 782.924C436.82 783.602 434.671 782.891 434.916 785.358C434.966 785.889 435.374 787.229 434.704 786.804C430.759 784.304 432.115 788.176 431.379 789.426C429.452 792.677 427.646 796.035 422.941 795.234C424.779 790.096 426.592 784.949 428.479 779.828C428.961 778.521 428.904 776.683 431.036 776.683C432.278 777.9 433.691 779.256 435.325 777.589C438.037 774.82 442.595 773.766 442.048 768.04C441.541 762.804 440.431 757.29 442.546 752.029C442.938 753.36 443.322 754.7 443.714 756.032C443.445 756.669 443.347 757.616 444.098 757.567C445.038 757.502 444.384 756.636 444.27 756.097C446.141 754.782 443.772 752.666 445.185 751.261C446.957 752.421 447.153 754.357 447.586 756.171C445.315 762.052 446.655 767.828 447.292 774.665C451.483 769.755 448.632 765.197 449.457 761.047C451.344 760.271 452.529 762.926 454.407 762.436C454.889 759.479 450.985 757.91 452.708 755.109C454.023 752.96 453.149 751.384 452.071 749.513C450.927 747.528 449.163 743.672 450.241 743.223C454.105 741.614 450.184 740.78 450.307 739.71C447.791 739.522 447.129 737.194 446.042 735.601C443.845 736.5 445.953 738.853 444.458 739.408C441.386 740.543 441.541 740.323 442.514 743.37C443.061 745.085 444.572 746.572 444.066 748.598C443.559 749.774 443.053 750.951 442.554 752.127C441.435 751.539 441.95 749.464 440.12 749.399C438.707 752.609 438.609 756.318 435.987 758.907C435.48 757.943 434.655 757.518 433.593 757.518L433.552 757.478ZM454.751 740.682C458.247 737.513 456.335 733.87 456.196 730.373C456.156 729.377 455.731 728.217 454.342 728.584C453.378 728.837 453.256 729.826 453.378 730.708C453.819 734.033 454.285 737.358 454.751 740.682Z" fill="#FF4C91"/>
<path d="M97.5504 669.458C94.9037 672.554 91.53 674.792 88.3033 677.194C83.9248 680.453 80.6818 684.194 80.5429 690.133C80.4776 693.115 79.293 696.072 78.6232 699.045C73.7219 703.015 73.3461 708.913 71.9166 714.419C71.0915 717.613 73.967 718.969 74.7185 721.33C74.8084 726.052 74.3672 730.667 71.9574 734.931C73.9915 735.005 74.841 732.636 76.6872 732.203C77.8145 734.939 75.3557 737.096 75.7968 739.637C75.0453 742.773 72.5047 745.575 69.9805 744.554C67.4155 743.517 66.9989 739.187 68.02 736.524C70.3972 730.316 69.8499 724.263 68.5265 718.079C67.0643 717.679 67.6279 720.481 65.9778 719.713C64.5564 719.059 65.6511 717.965 65.5612 717.066C65.4795 716.241 65.2916 715.375 64.9241 714.64C62.4244 709.6 63.3556 704.584 64.9404 699.56C67.824 695.982 71.2876 692.657 70.2093 687.372C70.5605 686.531 73.4033 685.779 70.2011 684.815C68.3304 684.252 66.2964 685.412 64.5074 684.056C64.0908 683.745 62.6694 684.031 62.6694 683.998C62.4897 679.775 57.9315 678.468 56.698 674.98C61.3543 676.989 62.163 672.807 64.001 670.381C68.4448 664.51 67.2032 659.927 60.276 656.633C60.4067 655.17 59.7368 653.43 61.6565 652.581C66.1984 653.39 69.2617 657.482 73.8036 658.315C75.2168 655.514 73.2481 652.164 75.4945 649.697C77.5286 650.678 77.1528 652.981 78.6559 654.721C82.5443 647.059 88.5892 641.61 92.3306 634.569C94.4381 630.615 96.17 626.661 100.401 624.096C104.347 621.703 101.913 619.031 99.3803 616.924C101.602 612.888 104.682 615.797 106.651 616.711C108.636 617.635 106.83 620.004 105.907 621.507C103.857 624.831 100.377 627.617 102.215 632.257C100.72 633.204 98.8167 630.402 97.6322 632.526C95.7452 635.916 94.0787 639.445 92.5103 643.007C91.579 645.115 92.7635 645.776 94.7404 645.425C98.3592 644.788 103.424 637.215 103.089 632.992C104.208 632.232 105.384 632.232 106.438 633.008C111.446 636.709 116.51 635.492 121.42 632.992C126.779 630.264 132.244 627.887 138.158 626.727C141.213 626.13 142.561 623.794 144.227 621.662C149.472 614.939 154.92 608.412 161.831 603.282C162.542 602.759 163.277 602.375 164.192 602.653C164.527 608.445 159.765 610.683 155.402 614.195C158.703 614.261 161.137 612.97 163.285 614.089C153.924 619.816 146.221 627.29 140.094 636.423C137.578 637.273 135.528 639.249 132.734 639.429C132.995 635.198 138.084 634.144 138.877 630.223C137.635 629.822 136.549 629.929 135.381 630.468C126.648 634.52 117.719 638.073 108.611 641.202C107.582 641.553 105.638 641.283 106.504 643.522C106.822 644.33 105.915 645.646 107.778 645.752C109.126 645.825 110.531 647.598 111.683 645.401C111.928 644.927 112.328 643.587 112.655 644.314C114.583 648.57 115.571 644.584 116.87 643.946C120.26 642.288 123.625 640.466 127.114 643.718C122.76 647.002 118.414 650.31 114.027 653.561C112.908 654.394 111.944 655.955 110.163 654.795C109.787 653.096 109.354 651.184 107.075 651.682C103.285 652.507 98.8984 650.882 96.219 655.979C93.7683 660.635 91.6771 665.855 87.0126 669.098C87.4211 667.767 87.8295 666.444 88.2298 665.112C88.8016 664.728 89.4061 663.985 88.7526 663.625C87.9276 663.16 88.001 664.246 87.805 664.761C85.5177 664.834 86.3428 667.906 84.3822 668.306C83.5408 666.362 84.4313 664.638 85.0684 662.882C90.1903 659.214 92.2407 653.643 95.4592 647.59C89.2672 649.403 89.1447 654.77 86.1794 657.784C84.178 657.401 84.6436 654.533 82.7975 653.912C80.7716 656.118 83.1733 659.573 80.1998 660.97C77.9207 662.04 77.7818 663.838 77.6593 666.002C77.5286 668.29 76.8833 672.48 75.7396 672.268C71.6307 671.492 74.4407 674.343 73.7627 675.168C75.7641 676.704 75.0371 679.015 75.0698 680.943C77.3979 681.393 76.9241 678.272 78.4843 678.631C81.6702 679.367 81.4252 679.465 82.2829 676.393C82.773 674.653 82.3156 672.586 83.8595 671.173C84.9296 670.471 85.9915 669.76 87.0617 669.058C87.6743 670.16 86.1059 671.614 87.6008 672.668C90.5416 670.757 92.6573 667.718 96.2761 666.991C96.1699 668.077 96.6274 668.878 97.5178 669.466L97.5504 669.458ZM70.6177 671.868C65.9615 672.603 65.5531 676.695 63.7477 679.693C63.2331 680.543 62.9554 681.752 64.3114 682.201C65.259 682.512 65.8961 681.76 66.2882 680.96C67.7505 677.937 69.1718 674.906 70.6177 671.876V671.868Z" fill="#FF4C91"/>
<path d="M323.926 461.773C319.866 462.091 315.896 461.291 311.91 460.703C306.51 459.91 301.576 460.262 297.271 464.37C295.115 466.429 292.19 467.695 289.609 469.313C283.335 468.651 278.899 472.556 273.998 475.439C271.155 477.114 272.234 480.104 271.09 482.309C267.814 485.716 264.245 488.665 259.523 489.972C260.903 491.458 263.183 490.388 264.8 491.393C263.665 494.121 260.397 493.909 258.91 496.025C256.157 497.716 252.383 497.895 251.321 495.388C250.243 492.847 253.004 489.49 255.61 488.322C261.68 485.609 265.576 480.945 269.015 475.635C268.264 474.32 266.679 476.697 266.058 474.99C265.519 473.52 267.063 473.528 267.635 472.825C268.157 472.188 268.639 471.437 268.901 470.66C270.698 465.326 274.905 462.443 279.577 460.008C284.144 459.518 288.947 459.616 291.921 455.115C292.762 454.772 295.303 456.242 293.718 453.302C292.795 451.578 290.54 450.957 290.23 448.743C290.156 448.229 288.947 447.428 288.972 447.404C291.831 444.291 289.535 440.142 291.128 436.809C293.007 441.522 296.528 439.137 299.542 438.72C306.834 437.707 309.198 433.59 306.633 426.369C307.76 425.43 308.512 423.73 310.472 424.482C313.111 428.272 312.384 433.329 315.006 437.127C317.987 436.147 318.968 432.381 322.292 432.226C323.044 434.358 321.141 435.722 320.969 438.018C329.138 435.346 337.258 435.771 344.888 433.443C349.168 432.136 353.187 430.568 357.999 431.744C362.483 432.839 362.647 429.228 362.344 425.944C366.772 424.662 366.894 428.893 367.638 430.935C368.389 432.994 365.432 433.394 363.725 433.794C359.926 434.693 355.499 434.203 353.514 438.786C351.782 438.393 352.419 435.069 350.083 435.739C346.35 436.801 342.674 438.124 339.047 439.521C336.89 440.354 337.266 441.661 338.916 442.813C341.922 444.92 350.859 443.156 353.604 439.921C354.927 440.182 355.76 441.007 355.956 442.306C356.879 448.466 361.323 451.186 366.56 452.885C372.278 454.748 377.824 456.929 382.824 460.286C385.405 462.026 388.011 461.323 390.699 460.997C399.161 459.951 407.633 459.191 416.145 460.441C417.019 460.572 417.803 460.825 418.26 461.667C414.405 466.004 409.454 464.215 403.883 463.619C406.17 465.996 408.801 466.805 409.536 469.117C398.867 466.552 388.134 466.38 377.342 468.512C374.965 467.336 372.106 467.279 370.015 465.432C373.193 462.63 377.53 465.481 380.871 463.268C380.275 462.108 379.434 461.413 378.233 460.972C369.19 457.664 360.368 453.857 351.717 449.634C350.745 449.16 349.552 447.592 348.588 449.781C348.237 450.573 346.668 450.867 347.91 452.256C348.809 453.261 348.547 455.507 350.916 454.772C351.423 454.617 352.656 453.947 352.37 454.69C350.728 459.061 354.241 456.945 355.613 457.411C359.183 458.636 362.851 459.722 363.014 464.493C357.606 463.733 352.199 463.006 346.799 462.206C345.419 462.002 343.638 462.426 343.197 460.343C344.136 458.881 345.173 457.223 343.213 455.965C339.945 453.873 337.993 449.618 332.495 451.325C327.463 452.885 322.301 455.091 316.713 454.094C317.938 453.441 319.164 452.787 320.397 452.134C321.075 452.264 322.023 452.166 321.819 451.447C321.565 450.541 320.847 451.357 320.348 451.578C318.682 450.01 317.089 452.762 315.422 451.668C316.198 449.699 318.053 449.111 319.744 448.319C325.96 449.348 331.352 446.856 337.911 444.855C332.25 441.751 328.37 445.468 324.139 445.5C322.995 443.809 325.348 442.11 324.49 440.37C321.5 440.501 320.749 444.635 317.661 443.524C315.292 442.674 313.928 443.842 312.31 445.288C310.603 446.807 307.18 449.323 306.527 448.359C304.166 444.904 304.141 448.907 303.079 449.013C303.406 451.513 301.258 452.632 299.918 454.021C301.249 455.989 303.12 453.441 303.962 454.805C305.693 457.582 305.448 457.476 308.234 455.908C309.802 455.025 310.946 453.244 313.037 453.326C314.287 453.579 315.545 453.841 316.795 454.094C316.444 455.303 314.312 455.229 314.622 457.027C318.053 457.754 321.704 457.1 324.768 459.142C323.926 459.837 323.681 460.727 323.894 461.773H323.926ZM303.177 444.43C299.362 441.653 296.185 444.259 292.787 445.108C291.823 445.353 290.769 445.999 291.414 447.281C291.863 448.172 292.852 448.09 293.693 447.796C296.863 446.693 300.016 445.558 303.177 444.43Z" fill="#FF4C91"/>
<path d="M390.829 656.037C387.733 653.39 385.495 650.016 383.093 646.789C379.834 642.411 376.092 639.168 370.154 639.029C367.172 638.964 364.215 637.779 361.241 637.109C357.271 632.208 351.373 631.832 345.867 630.403C342.673 629.578 341.317 632.453 338.957 633.205C334.235 633.294 329.62 632.853 325.355 630.443C325.282 632.478 327.651 633.327 328.084 635.173C325.347 636.301 323.191 633.842 320.65 634.283C317.513 633.531 314.711 630.991 315.733 628.467C316.77 625.902 321.099 625.485 323.763 626.506C329.971 628.883 336.024 628.336 342.208 627.013C342.608 625.55 339.806 626.114 340.574 624.464C341.228 623.043 342.322 624.137 343.221 624.047C344.046 623.966 344.912 623.778 345.647 623.41C350.687 620.91 355.703 621.842 360.727 623.426C364.305 626.31 367.629 629.774 372.915 628.695C373.756 629.047 374.507 631.889 375.471 628.687C376.035 626.816 374.875 624.782 376.231 622.993C376.542 622.577 376.256 621.155 376.288 621.155C380.512 620.976 381.819 616.418 385.307 615.184C383.297 619.84 387.48 620.649 389.906 622.487C395.776 626.931 400.359 625.689 403.654 618.762C405.116 618.893 406.856 618.223 407.706 620.143C406.897 624.684 402.804 627.748 401.971 632.29C404.773 633.703 408.122 631.734 410.589 633.981C409.609 636.015 407.306 635.639 405.566 637.142C413.228 641.03 418.677 647.075 425.718 650.817C429.672 652.924 433.626 654.656 436.191 658.888C438.584 662.833 441.255 660.399 443.363 657.866C447.398 660.088 444.49 663.168 443.575 665.137C442.652 667.122 440.283 665.316 438.78 664.393C435.455 662.343 432.67 658.863 428.03 660.701C427.082 659.206 429.884 657.303 427.76 656.118C424.37 654.231 420.841 652.565 417.28 650.996C415.172 650.065 414.51 651.25 414.862 653.226C415.499 656.845 423.071 661.91 427.295 661.575C428.054 662.694 428.054 663.871 427.278 664.924C423.578 669.932 424.795 674.996 427.295 679.906C430.023 685.265 432.4 690.73 433.56 696.644C434.157 699.699 436.493 701.047 438.625 702.713C445.348 707.958 451.875 713.406 457.005 720.317C457.528 721.028 457.912 721.763 457.634 722.678C451.842 723.013 449.604 718.251 446.091 713.888C446.026 717.189 447.317 719.623 446.197 721.771C440.471 712.41 432.997 704.707 423.864 698.58C423.014 696.064 421.037 694.014 420.858 691.22C425.089 691.481 426.143 696.57 430.064 697.363C430.464 696.121 430.358 695.035 429.819 693.867C425.767 685.134 422.214 676.205 419.085 667.097C418.734 666.068 419.003 664.124 416.765 664.99C415.956 665.308 414.641 664.401 414.535 666.264C414.461 667.612 412.689 669.017 414.886 670.169C415.36 670.414 416.7 670.814 415.973 671.141C411.717 673.069 415.703 674.057 416.34 675.356C417.999 678.746 419.82 682.112 416.569 685.6C413.285 681.246 409.977 676.9 406.725 672.513C405.892 671.394 404.332 670.43 405.492 668.649C407.191 668.273 409.103 667.841 408.604 665.561C407.779 661.771 409.405 657.384 404.308 654.705C399.651 652.254 394.431 650.163 391.188 645.499C392.52 645.907 393.843 646.316 395.175 646.716C395.559 647.288 396.302 647.892 396.661 647.239C397.127 646.414 396.041 646.487 395.526 646.291C395.452 644.004 392.381 644.829 391.981 642.868C393.925 642.027 395.649 642.917 397.405 643.555C401.073 648.676 406.644 650.727 412.697 653.945C410.883 647.753 405.517 647.631 402.502 644.665C402.886 642.664 405.753 643.13 406.374 641.284C404.169 639.258 400.713 641.659 399.316 638.686C398.246 636.407 396.449 636.268 394.284 636.145C391.997 636.015 387.806 635.369 388.019 634.226C388.795 630.117 385.944 632.927 385.119 632.249C383.583 634.25 381.271 633.523 379.344 633.556C378.894 635.884 382.015 635.41 381.655 636.97C380.92 640.156 380.822 639.911 383.894 640.769C385.634 641.259 387.7 640.802 389.113 642.346C389.816 643.416 390.527 644.478 391.229 645.548C390.126 646.16 388.672 644.592 387.619 646.087C389.53 649.028 392.569 651.143 393.296 654.762C392.209 654.656 391.409 655.113 390.821 656.004L390.829 656.037ZM388.419 629.096C387.684 624.439 383.591 624.031 380.593 622.226C379.744 621.711 378.535 621.433 378.085 622.789C377.775 623.737 378.527 624.374 379.327 624.766C382.35 626.228 385.38 627.65 388.411 629.096H388.419Z" fill="#FF4C91"/>
<path d="M132.791 506.236C130.724 507.608 128.126 506.285 125.905 507.796C124.892 508.482 123.74 506.513 123.07 505.394C122.343 504.177 123.495 503.818 124.312 503.344C127.824 501.294 130.961 498.639 134.768 497.038C137.284 495.984 138.909 494.513 136.434 491.638C135.446 490.486 135.07 488.811 134.122 486.753C139.743 491.033 144.538 490.118 149.235 486.132C154.185 481.925 159.323 477.947 164.323 473.797C165.638 472.703 166.912 471.395 168.44 473.127C169.837 474.712 168.881 476.248 167.558 477.342C162.762 481.304 157.91 485.184 153.058 489.081C152.323 489.669 151.22 490.127 151.236 491.107C151.261 492.561 152.805 492.332 153.711 492.692C155.852 493.541 158.065 494.203 160.238 494.979C161.357 495.379 162.999 495.641 162.852 497.078C162.689 498.72 160.859 498.925 159.617 498.876C157.208 498.786 154.798 498.353 152.421 497.92C151.236 497.699 150.125 497.087 148.941 496.792C147.201 496.36 145.118 494.644 143.754 496.743C142.259 499.039 144.244 500.885 145.796 502.282C153.63 509.332 161.578 516.087 171.446 520.474C176.372 522.663 180.93 524.142 186.223 523.276C187.351 523.088 188.584 522.467 189.728 523.398C190.038 524.746 188.543 524.673 188.151 525.441C187.204 527.254 187.057 528.553 189.614 529.28C193.902 530.505 198.109 532.033 202.316 533.544C204.04 534.165 206.507 534.81 205.306 537.343C204.342 539.377 202.234 538.952 200.298 538.2C194.115 535.799 188.323 532.466 181.943 530.563C178.39 526.012 173.652 524.019 167.958 524.076C162.428 519.592 155.247 517.852 149.839 513.163C148.818 512.272 147.912 512.281 147.274 513.628C142.577 511.112 137.047 510.059 133.657 505.223C132.766 503.957 132.734 505.541 132.807 506.252L132.791 506.236Z" fill="#FF4C91"/>
<path d="M211.988 616.262C209.448 616.532 206.874 616.605 204.391 617.145C202.463 617.561 200.086 617.447 199.473 620.404C199.318 621.164 197.243 621.834 195.985 621.997C193.788 622.283 191.68 622.258 190.177 624.398C189.491 625.379 188.192 625.665 187.106 624.35C185.047 621.85 183.16 622.642 180.889 624.415C177.507 627.053 174.093 630.321 170.155 631.424C163.833 633.188 157.853 635.958 151.432 637.338C150.493 637.542 148.786 637.207 149.243 638.784C149.684 640.312 151.048 639.103 152.02 638.964C155.925 638.416 159.56 635.859 163.792 637.64C165.091 638.188 165.221 637.877 164.927 641.006C164.445 641.235 163.955 641.463 163.473 641.692C157.82 638.678 153.148 639.429 148.859 643.849C147.993 644.739 146.376 646.422 145.502 645.254C144.285 643.612 143.794 641.382 144.415 638.98C146.229 631.914 153.058 630.729 157.763 627.021C165.009 621.303 174.109 618.746 181.281 612.946C181.477 612.782 181.861 612.521 181.918 612.57C185.635 615.927 191.419 610.814 195.054 615.756C195.487 616.344 199.294 616.475 201.753 615.429C204.857 614.106 208.41 613.844 211.784 613.183C212.119 613.117 212.527 613.46 212.903 613.616C212.985 613.73 213.075 613.844 213.156 613.967C212.772 614.735 212.388 615.503 211.996 616.271L211.988 616.262ZM174.697 624.782C171.136 623.99 168.677 625.085 166.496 626.694C165.76 627.233 163.596 627.38 164.739 629.079C165.507 630.223 166.945 630.411 168.35 629.553C170.498 628.246 172.598 626.915 174.697 624.782Z" fill="#FF4C91"/>
<path d="M361.911 640.058C359.926 638.457 358.047 636.685 355.915 635.312C354.265 634.242 352.656 632.478 350.132 634.136C349.478 634.561 347.542 633.572 346.537 632.796C344.781 631.448 343.311 629.937 340.729 630.386C339.553 630.591 338.426 629.88 338.589 628.173C338.9 624.954 337.004 624.178 334.145 623.827C329.889 623.296 325.16 623.198 321.606 621.196C315.888 617.978 309.696 615.699 304.182 612.137C303.381 611.614 302.401 610.177 301.609 611.614C300.841 613.003 302.663 613.117 303.447 613.706C306.592 616.083 310.978 616.842 312.71 621.09C313.241 622.397 313.56 622.267 311.134 624.268C310.627 624.088 310.121 623.9 309.622 623.721C307.76 617.594 303.921 614.825 297.761 614.914C296.52 614.931 294.183 614.972 294.396 613.534C294.69 611.516 295.931 609.588 298.063 608.322C304.337 604.605 310.006 608.6 315.953 609.302C325.119 610.389 333.361 615.004 342.535 615.976C342.788 616.001 343.245 616.091 343.254 616.164C343.507 621.172 351.21 621.637 350.287 627.699C350.181 628.426 352.778 631.203 355.254 632.2C358.382 633.458 361.086 635.794 363.937 637.706C364.215 637.894 364.272 638.424 364.427 638.8C364.403 638.939 364.386 639.086 364.362 639.225C363.545 639.495 362.728 639.764 361.911 640.042V640.058ZM329.514 619.718C327.553 616.638 325.045 615.674 322.366 615.274C321.467 615.135 319.825 613.705 319.433 615.715C319.172 617.071 320.054 618.215 321.647 618.599C324.089 619.195 326.516 619.742 329.514 619.718Z" fill="#FF4C91"/>
<path d="M78.5988 859.09C72.4803 863.019 71.4919 865.576 74.5716 875.771C77.4388 885.271 79.9466 894.91 83.9739 904.051C84.7336 905.783 84.2517 908.054 84.3579 910.358C81.172 910.17 80.3143 907.695 80.2652 905.652C80.1509 901.102 75.9929 898.48 75.4293 894.224C75.2251 892.672 73.918 892.321 72.5375 892.999C70.822 893.832 71.6226 895.123 72.1617 896.185C74.9963 901.821 77.5369 907.589 79.3667 913.642C70.4953 906.502 62.8737 898.35 58.5116 887.607C57.1882 884.34 55.9466 882.094 52.5156 885.884C51.5109 886.995 49.7463 886.644 48.5374 885.41C48.7334 883.703 48.9213 881.995 49.1174 880.288C50.2447 878.132 52.4339 878.85 54.1984 878.426C55.5953 879.087 56.8941 881.146 58.5279 878.744C59.9656 877.797 61.4033 876.857 62.841 875.91C64.6545 879.667 66.4599 883.425 68.2897 887.183C68.7962 888.228 68.8452 890.001 70.577 889.535C71.9902 889.16 73.2564 888.122 73.1175 886.349C72.9704 884.462 72.7417 882.575 72.4313 880.713C70.5198 869.203 64.8506 858.551 64.7362 846.632C64.7199 844.974 63.5681 843.994 62.449 843.014C65.3734 839.427 67.3829 836.887 70.4544 843.594C72.2761 847.564 75.3313 850.619 74.3673 855.561C73.7955 858.486 76.6709 858.518 78.6151 859.09H78.5988ZM59.2141 882.804C59.1977 883.188 59.0425 883.654 59.2141 883.85C59.4183 884.087 60.0065 884.283 60.227 884.16C60.8152 883.801 60.905 883.188 60.2842 882.771C60.0473 882.616 59.598 882.788 59.2222 882.804H59.2141Z" fill="#FF4C91"/>
<path d="M72.7579 1016.14L70.92 1001.9C70.5687 999.178 62.4325 934.783 71.2058 896.757C75.9274 876.285 70.9608 822.649 67.6688 787.163C65.504 763.825 63.7967 745.396 64.2296 735.389C65.0955 715.498 66.7048 678.468 98.6451 658.209C110.719 650.555 130.577 645.736 151.604 640.638C161.839 638.155 172.426 635.59 180.881 632.91C189.311 630.231 192.897 628.287 194.27 627.388C196.214 621.041 194.172 612.153 191.827 601.967C190.39 595.709 188.903 589.248 188.119 582.386C187.906 580.515 186.918 576.537 185.954 572.681C182.899 560.395 178.275 541.836 180.652 523.832C183.822 499.799 198.362 482.873 222.697 474.867C231.095 472.106 239.852 470.709 248.715 470.709C257.578 470.709 266.336 472.106 274.733 474.867C299.068 482.865 313.609 499.799 316.778 523.832C319.155 541.836 314.54 560.395 311.485 572.681C310.529 576.529 309.532 580.515 309.32 582.386C308.536 589.248 307.049 595.718 305.611 601.975C303.275 612.153 301.233 621.041 303.169 627.388C304.541 628.287 308.127 630.231 316.558 632.91C325.004 635.59 335.591 638.163 345.835 640.638C366.862 645.736 386.728 650.555 398.794 658.209C430.734 678.46 432.343 715.498 433.209 735.389C433.642 745.396 431.935 763.825 429.77 787.163C426.478 822.657 421.503 876.294 426.233 896.765C435.006 934.791 426.87 999.186 426.519 1001.91L424.681 1016.15H72.7498L72.7579 1016.14Z" fill="#FF4C91"/>
<path d="M416.896 736.091C415.801 710.891 412.517 686.245 390.053 671.998C367.597 657.752 295.833 651.732 288.71 635.296C281.587 618.86 290.899 599.688 293.089 580.515C295.049 563.336 320.315 507.036 269.636 490.38C256.075 485.92 241.363 485.92 227.803 490.38C177.123 507.045 202.382 563.344 204.35 580.515C206.539 599.688 215.852 618.86 208.729 635.296C201.605 651.732 129.85 657.752 107.386 671.998C84.9296 686.245 81.6375 710.891 80.5429 736.091C79.4483 761.292 95.3367 864.825 87.1188 900.424C78.901 936.033 87.1188 999.807 87.1188 999.807H410.312C410.312 999.807 418.53 936.033 410.312 900.424C402.094 864.816 417.982 761.284 416.888 736.091H416.896Z" fill="#F4F4F4"/>
<path d="M248.282 992.006C230.899 992.006 213.99 988.174 198.019 980.618C182.637 973.34 168.848 962.949 157.028 949.724C145.208 936.498 135.912 921.067 129.409 903.864C122.653 885.998 119.231 867.079 119.231 847.629V798.534C119.231 779.092 122.653 760.173 129.409 742.3C135.912 725.096 145.208 709.665 157.028 696.44C168.848 683.214 182.637 672.824 198.019 665.545C213.99 657.989 230.899 654.158 248.282 654.158C265.666 654.158 282.575 657.989 298.545 665.545C313.927 672.824 327.716 683.214 339.537 696.44C351.357 709.665 360.645 725.088 367.156 742.3C373.911 760.173 377.334 779.092 377.334 798.534V847.629C377.334 867.071 373.911 885.99 367.156 903.864C360.653 921.067 351.357 936.498 339.537 949.724C327.716 962.949 313.919 973.348 298.545 980.618C282.575 988.174 265.658 992.006 248.282 992.006Z" fill="#F4F4F4" stroke="#FF4C91" stroke-width="2.18297" stroke-miterlimit="10"/>
<path d="M248.282 956.128C235.22 956.128 222.51 953.252 210.51 947.575C198.951 942.11 188.584 934.292 179.705 924.351C170.817 914.409 163.833 902.809 158.948 889.886C153.875 876.465 151.302 862.251 151.302 847.629V798.534C151.302 783.92 153.875 769.698 158.948 756.276C163.833 743.345 170.817 731.753 179.705 721.812C188.593 711.87 198.959 704.061 210.51 698.588C222.51 692.911 235.212 690.035 248.282 690.035C261.353 690.035 274.055 692.911 286.055 698.588C297.614 704.053 307.981 711.87 316.86 721.812C325.748 731.753 332.732 743.345 337.617 756.276C342.69 769.698 345.263 783.92 345.263 798.534V847.629C345.263 862.243 342.69 876.465 337.617 889.886C332.732 902.809 325.748 914.409 316.86 924.351C307.972 934.292 297.606 942.11 286.055 947.575C274.055 953.252 261.353 956.128 248.282 956.128Z" fill="#F4F4F4" stroke="#FF4C91" stroke-width="2.18297" stroke-miterlimit="10"/>
<path d="M248.282 920.25C239.533 920.25 231.03 918.322 223.008 914.532C215.272 910.872 208.337 905.644 202.381 898.987C196.426 892.329 191.754 884.569 188.486 875.918C185.096 866.94 183.373 857.423 183.373 847.637V798.542C183.373 788.756 185.096 779.239 188.486 770.262C191.754 761.611 196.435 753.85 202.381 747.193C208.337 740.535 215.272 735.307 223.008 731.647C231.03 727.849 239.533 725.929 248.282 725.929C257.031 725.929 265.535 727.857 273.557 731.647C281.293 735.307 288.228 740.535 294.183 747.193C300.138 753.85 304.811 761.611 308.078 770.262C311.468 779.239 313.192 788.756 313.192 798.542V847.637C313.192 857.423 311.468 866.94 308.078 875.918C304.811 884.569 300.13 892.329 294.183 898.987C288.228 905.644 281.293 910.872 273.557 914.532C265.535 918.33 257.031 920.25 248.282 920.25Z" fill="#F4F4F4" stroke="#FF4C91" stroke-width="2.18297" stroke-miterlimit="10"/>
<path d="M248.282 654.149V992.005" stroke="#FF4C91" stroke-width="2.73863" stroke-miterlimit="10"/>
<path d="M377.342 823.082H119.231" stroke="#FF4C91" stroke-width="2.39134" stroke-miterlimit="10"/>
<path d="M281.129 794.637C281.129 776.497 266.425 761.791 248.287 761.791C230.148 761.791 215.444 776.497 215.444 794.637V851.525C215.444 869.666 230.148 884.372 248.287 884.372C266.425 884.372 281.129 869.666 281.129 851.525V794.637Z" fill="#4857F6" stroke="#FF4C91" stroke-width="2.18297" stroke-miterlimit="10"/>
<path d="M254.728 741.679V735.691L253.347 736.442V735.193L255.112 734.229H256.214V741.679H257.44V742.79H253.396V741.679H254.728Z" fill="#FF4C91"/>
<path d="M258.534 738.477C258.534 737.799 258.592 737.186 258.714 736.639C258.837 736.091 259.016 735.617 259.261 735.225C259.507 734.833 259.817 734.531 260.201 734.319C260.585 734.106 261.026 734 261.541 734C262.055 734 262.48 734.106 262.856 734.31C263.232 734.515 263.534 734.817 263.779 735.201C264.024 735.585 264.204 736.059 264.318 736.614C264.432 737.169 264.498 737.79 264.498 738.485C264.498 739.179 264.441 739.824 264.326 740.38C264.212 740.935 264.032 741.401 263.787 741.777C263.542 742.153 263.232 742.447 262.856 742.643C262.48 742.839 262.031 742.937 261.516 742.937C261.001 742.937 260.56 742.839 260.185 742.643C259.809 742.447 259.498 742.161 259.261 741.777C259.025 741.393 258.837 740.935 258.722 740.38C258.608 739.824 258.551 739.195 258.551 738.485L258.534 738.477ZM261.524 741.752C261.737 741.752 261.916 741.711 262.063 741.622C262.21 741.532 262.341 741.409 262.439 741.254C262.537 741.099 262.627 740.911 262.684 740.69C262.741 740.47 262.79 740.241 262.823 739.996C262.856 739.751 262.88 739.489 262.888 739.22C262.897 738.95 262.905 738.681 262.905 738.403C262.905 738.15 262.905 737.897 262.897 737.635C262.888 737.374 262.872 737.129 262.839 736.892C262.807 736.655 262.766 736.426 262.709 736.222C262.652 736.018 262.57 735.83 262.472 735.675C262.374 735.519 262.243 735.397 262.096 735.307C261.949 735.217 261.761 735.176 261.549 735.176C261.336 735.176 261.14 735.217 260.985 735.307C260.83 735.397 260.699 735.511 260.593 735.666C260.487 735.822 260.405 736.001 260.34 736.206C260.274 736.41 260.225 736.639 260.193 736.884C260.16 737.129 260.136 737.382 260.127 737.651C260.119 737.921 260.111 738.182 260.111 738.452C260.111 738.722 260.111 738.983 260.127 739.253C260.144 739.522 260.16 739.775 260.193 740.02C260.225 740.266 260.274 740.494 260.34 740.707C260.405 740.919 260.487 741.099 260.585 741.254C260.683 741.409 260.814 741.532 260.969 741.622C261.124 741.711 261.304 741.752 261.516 741.752H261.524Z" fill="#FF4C91"/>
<path d="M298.341 835.849V829.862L296.96 830.613V829.363L298.725 828.399H299.828V835.849H301.053V836.96H297.009V835.849H298.341Z" fill="#FF4C91"/>
<path d="M302.156 832.647C302.156 831.969 302.213 831.357 302.335 830.809C302.458 830.262 302.638 829.788 302.883 829.396C303.128 829.004 303.438 828.702 303.822 828.489C304.206 828.277 304.647 828.171 305.162 828.171C305.677 828.171 306.101 828.277 306.477 828.481C306.853 828.686 307.155 828.988 307.4 829.372C307.645 829.756 307.825 830.229 307.939 830.785C308.054 831.34 308.119 831.961 308.119 832.656C308.119 833.35 308.062 833.995 307.948 834.551C307.833 835.106 307.653 835.572 307.408 835.948C307.163 836.323 306.853 836.617 306.477 836.814C306.101 837.01 305.652 837.108 305.137 837.108C304.623 837.108 304.182 837.01 303.806 836.814C303.43 836.617 303.12 836.332 302.883 835.948C302.646 835.564 302.458 835.106 302.344 834.551C302.229 833.995 302.172 833.366 302.172 832.656L302.156 832.647ZM305.137 835.923C305.35 835.923 305.53 835.882 305.677 835.792C305.824 835.703 305.954 835.58 306.052 835.425C306.15 835.27 306.24 835.082 306.297 834.861C306.355 834.641 306.404 834.412 306.436 834.167C306.469 833.922 306.493 833.66 306.502 833.391C306.51 833.121 306.518 832.852 306.518 832.574C306.518 832.321 306.518 832.067 306.51 831.806C306.502 831.545 306.485 831.3 306.453 831.063C306.42 830.826 306.379 830.597 306.322 830.393C306.265 830.189 306.183 830.001 306.085 829.845C305.987 829.69 305.856 829.568 305.709 829.478C305.562 829.388 305.374 829.347 305.162 829.347C304.95 829.347 304.753 829.388 304.598 829.478C304.443 829.568 304.312 829.682 304.206 829.837C304.1 829.993 304.018 830.172 303.953 830.376C303.888 830.581 303.839 830.809 303.806 831.055C303.773 831.3 303.749 831.553 303.741 831.822C303.732 832.092 303.724 832.353 303.724 832.623C303.724 832.892 303.724 833.154 303.741 833.423C303.757 833.693 303.773 833.946 303.806 834.191C303.839 834.436 303.888 834.665 303.953 834.878C304.018 835.09 304.1 835.27 304.198 835.425C304.296 835.58 304.427 835.703 304.582 835.792C304.737 835.882 304.917 835.923 305.129 835.923H305.137Z" fill="#FF4C91"/>
<path d="M368.169 831.822C368.553 831.822 368.879 831.79 369.149 831.716C369.418 831.643 369.639 831.553 369.811 831.422C369.982 831.291 370.105 831.144 370.186 830.965C370.268 830.785 370.301 830.581 370.301 830.36C370.301 830.042 370.211 829.797 370.039 829.617C369.868 829.437 369.582 829.339 369.19 829.339C368.977 829.339 368.79 829.364 368.618 829.404C368.446 829.445 368.291 829.502 368.152 829.568C368.013 829.633 367.883 829.707 367.768 829.788C367.654 829.87 367.548 829.944 367.45 830.009L366.796 828.955C366.919 828.857 367.074 828.759 367.246 828.669C367.417 828.579 367.605 828.489 367.817 828.416C368.03 828.342 368.242 828.285 368.479 828.236C368.716 828.187 368.961 828.171 369.222 828.171C369.59 828.171 369.941 828.212 370.26 828.293C370.579 828.375 370.864 828.498 371.109 828.661C371.355 828.824 371.542 829.037 371.681 829.29C371.82 829.543 371.894 829.854 371.894 830.205C371.894 830.442 371.845 830.662 371.755 830.875C371.665 831.087 371.542 831.275 371.395 831.447C371.248 831.618 371.085 831.765 370.897 831.888C370.709 832.01 370.521 832.1 370.325 832.157C370.628 832.198 370.897 832.272 371.134 832.378C371.371 832.484 371.575 832.623 371.738 832.803C371.902 832.982 372.024 833.187 372.114 833.44C372.204 833.693 372.245 833.979 372.245 834.298C372.245 834.812 372.163 835.245 372.008 835.605C371.853 835.964 371.632 836.25 371.346 836.47C371.06 836.691 370.734 836.854 370.35 836.952C369.966 837.05 369.549 837.099 369.1 837.099C368.814 837.099 368.544 837.067 368.283 837.01C368.022 836.952 367.777 836.879 367.556 836.797C367.335 836.715 367.139 836.634 366.976 836.544C366.813 836.454 366.682 836.389 366.592 836.332L367.303 835.155C367.303 835.155 367.384 835.212 367.45 835.261C367.515 835.31 367.605 835.359 367.703 835.417C367.801 835.474 367.907 835.531 368.03 835.588C368.152 835.645 368.275 835.703 368.406 835.752C368.536 835.801 368.667 835.841 368.806 835.874C368.945 835.907 369.075 835.923 369.206 835.923C369.639 835.923 369.982 835.792 370.235 835.539C370.489 835.286 370.619 834.902 370.619 834.396C370.619 834.077 370.57 833.816 370.48 833.603C370.391 833.391 370.244 833.227 370.048 833.113C369.852 832.999 369.59 832.909 369.28 832.86C368.969 832.811 368.593 832.786 368.152 832.778L368.169 831.814V831.822Z" fill="#FF4C91"/>
<path d="M254.916 664.279C255.3 664.279 255.626 664.246 255.896 664.173C256.166 664.099 256.386 664.009 256.558 663.879C256.729 663.748 256.852 663.601 256.933 663.421C257.015 663.241 257.048 663.037 257.048 662.817C257.048 662.498 256.958 662.253 256.786 662.073C256.615 661.894 256.329 661.796 255.937 661.796C255.724 661.796 255.537 661.82 255.365 661.861C255.193 661.902 255.038 661.959 254.899 662.024C254.761 662.09 254.63 662.163 254.515 662.245C254.401 662.327 254.295 662.4 254.197 662.465L253.543 661.412C253.666 661.314 253.821 661.216 253.993 661.126C254.164 661.036 254.352 660.946 254.564 660.872C254.777 660.799 254.989 660.742 255.226 660.693C255.463 660.644 255.708 660.627 255.97 660.627C256.337 660.627 256.688 660.668 257.007 660.75C257.326 660.832 257.611 660.954 257.857 661.118C258.102 661.281 258.289 661.493 258.428 661.747C258.567 662 258.641 662.31 258.641 662.661C258.641 662.898 258.592 663.119 258.502 663.331C258.412 663.544 258.289 663.732 258.142 663.903C257.995 664.075 257.832 664.222 257.644 664.344C257.456 664.467 257.268 664.557 257.072 664.614C257.375 664.655 257.644 664.728 257.881 664.834C258.118 664.941 258.322 665.079 258.485 665.259C258.649 665.439 258.771 665.643 258.861 665.896C258.951 666.15 258.992 666.436 258.992 666.754C258.992 667.269 258.91 667.702 258.755 668.061C258.6 668.421 258.379 668.706 258.093 668.927C257.807 669.147 257.481 669.311 257.097 669.409C256.713 669.507 256.296 669.556 255.847 669.556C255.561 669.556 255.291 669.523 255.03 669.466C254.769 669.409 254.524 669.335 254.303 669.254C254.082 669.172 253.886 669.09 253.723 669.001C253.56 668.911 253.429 668.845 253.339 668.788L254.05 667.612C254.05 667.612 254.131 667.669 254.197 667.718C254.262 667.767 254.352 667.816 254.45 667.873C254.548 667.93 254.654 667.988 254.777 668.045C254.899 668.102 255.022 668.159 255.153 668.208C255.283 668.257 255.414 668.298 255.553 668.331C255.692 668.363 255.822 668.38 255.953 668.38C256.386 668.38 256.729 668.249 256.982 667.996C257.236 667.742 257.366 667.359 257.366 666.852C257.366 666.534 257.317 666.272 257.227 666.06C257.138 665.847 256.991 665.684 256.795 665.57C256.598 665.455 256.337 665.365 256.027 665.316C255.716 665.267 255.341 665.243 254.899 665.235L254.916 664.271V664.279Z" fill="#FF4C91"/>
<path d="M339.439 830.303C339.259 830.205 339.047 830.115 338.81 830.033C338.573 829.952 338.295 829.919 337.993 829.919C337.715 829.919 337.47 829.976 337.258 830.099C337.045 830.221 336.866 830.385 336.71 830.597C336.555 830.809 336.433 831.079 336.335 831.389C336.237 831.7 336.171 832.043 336.122 832.435C336.212 832.345 336.326 832.263 336.457 832.19C336.588 832.116 336.735 832.051 336.882 832.002C337.029 831.953 337.192 831.912 337.356 831.879C337.519 831.847 337.683 831.839 337.838 831.839C338.238 831.839 338.589 831.896 338.9 832.01C339.21 832.124 339.472 832.296 339.692 832.508C339.913 832.721 340.068 832.99 340.182 833.309C340.297 833.628 340.354 833.979 340.354 834.379C340.354 834.779 340.288 835.163 340.166 835.498C340.043 835.833 339.847 836.119 339.594 836.356C339.341 836.593 339.03 836.781 338.646 836.911C338.263 837.042 337.83 837.107 337.331 837.107C336.874 837.107 336.482 837.034 336.147 836.887C335.812 836.74 335.542 836.519 335.322 836.233C335.101 835.948 334.946 835.588 334.84 835.155C334.734 834.722 334.685 834.224 334.685 833.66C334.685 832.892 334.75 832.206 334.872 831.602C334.995 830.997 335.199 830.499 335.477 830.09C335.755 829.682 336.114 829.372 336.547 829.159C336.98 828.947 337.527 828.841 338.156 828.841C338.287 828.841 338.434 828.849 338.589 828.865C338.744 828.881 338.9 828.906 339.055 828.947C339.21 828.988 339.365 829.028 339.512 829.078C339.659 829.127 339.798 829.192 339.913 829.257L339.431 830.311L339.439 830.303ZM338.932 834.404C338.932 834.175 338.9 833.971 338.842 833.783C338.785 833.595 338.687 833.44 338.565 833.301C338.442 833.162 338.295 833.064 338.116 832.99C337.936 832.917 337.732 832.884 337.495 832.884C337.339 832.884 337.201 832.892 337.078 832.909C336.956 832.925 336.841 832.958 336.743 832.99C336.645 833.023 336.547 833.072 336.457 833.129C336.367 833.186 336.286 833.252 336.204 833.325C336.188 833.366 336.171 833.415 336.155 833.464C336.139 833.513 336.13 833.57 336.13 833.628C336.13 833.685 336.122 833.742 336.114 833.791C336.106 833.84 336.114 833.889 336.114 833.922C336.114 834.297 336.155 834.616 336.228 834.877C336.302 835.139 336.4 835.351 336.523 835.523C336.645 835.694 336.792 835.809 336.955 835.89C337.119 835.972 337.29 836.005 337.47 836.005C337.666 836.005 337.854 835.972 338.026 835.907C338.197 835.841 338.361 835.735 338.491 835.604C338.622 835.474 338.728 835.302 338.81 835.098C338.892 834.894 338.924 834.657 338.924 834.395L338.932 834.404Z" fill="#FF4C91"/>
<path d="M258.101 697.347C257.922 697.249 257.709 697.159 257.472 697.077C257.236 696.995 256.958 696.963 256.656 696.963C256.378 696.963 256.133 697.02 255.92 697.142C255.708 697.265 255.528 697.428 255.373 697.641C255.218 697.853 255.095 698.123 254.997 698.433C254.899 698.743 254.834 699.086 254.785 699.479C254.875 699.389 254.989 699.307 255.12 699.234C255.25 699.16 255.398 699.095 255.545 699.046C255.692 698.997 255.855 698.956 256.018 698.923C256.182 698.89 256.345 698.882 256.5 698.882C256.901 698.882 257.252 698.939 257.562 699.054C257.873 699.168 258.134 699.34 258.355 699.552C258.575 699.764 258.73 700.034 258.845 700.353C258.959 700.671 259.016 701.023 259.016 701.423C259.016 701.823 258.951 702.207 258.828 702.542C258.706 702.877 258.51 703.163 258.257 703.4C258.003 703.637 257.693 703.824 257.309 703.955C256.925 704.086 256.492 704.151 255.994 704.151C255.536 704.151 255.144 704.078 254.809 703.931C254.474 703.784 254.205 703.563 253.984 703.277C253.764 702.991 253.609 702.632 253.502 702.199C253.396 701.766 253.347 701.268 253.347 700.704C253.347 699.936 253.413 699.25 253.535 698.645C253.658 698.041 253.862 697.543 254.14 697.134C254.417 696.726 254.777 696.415 255.21 696.203C255.643 695.99 256.19 695.884 256.819 695.884C256.95 695.884 257.097 695.892 257.252 695.909C257.407 695.925 257.562 695.95 257.717 695.99C257.873 696.031 258.028 696.072 258.175 696.121C258.322 696.17 258.461 696.236 258.575 696.301L258.093 697.355L258.101 697.347ZM257.595 701.447C257.595 701.219 257.562 701.014 257.505 700.826C257.448 700.639 257.35 700.483 257.227 700.345C257.105 700.206 256.958 700.108 256.778 700.034C256.598 699.961 256.394 699.928 256.157 699.928C256.002 699.928 255.863 699.936 255.741 699.952C255.618 699.969 255.504 700.001 255.406 700.034C255.308 700.067 255.21 700.116 255.12 700.173C255.03 700.23 254.948 700.295 254.867 700.369C254.85 700.41 254.834 700.459 254.818 700.508C254.801 700.557 254.793 700.614 254.793 700.671C254.793 700.728 254.785 700.786 254.777 700.835C254.769 700.884 254.777 700.933 254.777 700.965C254.777 701.341 254.818 701.66 254.891 701.921C254.965 702.182 255.063 702.395 255.185 702.566C255.308 702.738 255.455 702.852 255.618 702.934C255.781 703.016 255.953 703.048 256.133 703.048C256.329 703.048 256.517 703.016 256.688 702.95C256.86 702.885 257.023 702.779 257.154 702.648C257.285 702.517 257.391 702.346 257.472 702.142C257.554 701.937 257.587 701.701 257.587 701.439L257.595 701.447Z" fill="#FF4C91"/>
<path d="M261.315 558.53C352.134 534.501 421.055 497.251 415.255 475.33C409.455 453.409 331.131 455.119 240.312 479.148C149.493 503.177 80.5719 540.427 86.3717 562.348C92.1716 584.268 170.496 582.559 261.315 558.53Z" fill="#FF4C91"/>
<path d="M250.567 517.891C283.662 509.134 305.789 484.266 299.989 462.345C294.189 440.424 262.658 429.752 229.564 438.509C196.469 447.265 174.342 472.134 180.142 494.055C185.942 515.975 217.472 526.647 250.567 517.891Z" fill="#FF4C91"/>
<path d="M162.411 1166.76V1169.14H147.571V1166.76H153.563V1163.26H156.447V1166.76H162.411ZM154.991 1180.29C156.895 1180.29 158.323 1178.92 158.323 1176.82C158.323 1174.72 156.895 1173.32 154.991 1173.32C153.115 1173.32 151.687 1174.72 151.687 1176.82C151.687 1178.92 153.115 1180.29 154.991 1180.29ZM154.991 1170.91C158.435 1170.91 160.983 1173.37 160.983 1176.82C160.983 1180.23 158.435 1182.7 154.991 1182.7C151.575 1182.7 149.027 1180.23 149.027 1176.82C149.027 1173.37 151.575 1170.91 154.991 1170.91ZM165.659 1162.87H168.571V1188.16H165.659V1175.53H161.907V1173.18H165.659V1162.87ZM194.357 1172.2L193.237 1174.52C189.037 1173.85 185.593 1171.72 183.941 1168.81C182.317 1171.75 178.817 1173.85 174.617 1174.52L173.497 1172.2C178.649 1171.47 182.401 1168.36 182.401 1165.03V1163.68H185.453V1165.03C185.453 1168.3 189.261 1171.47 194.357 1172.2ZM195.337 1176.9V1179.25H185.285V1188.18H182.401V1179.25H172.489V1176.9H195.337ZM204.127 1179.98C206.311 1179.98 207.851 1177.6 207.851 1173.65C207.851 1169.7 206.311 1167.32 204.127 1167.32C201.915 1167.32 200.403 1169.7 200.403 1173.65C200.403 1177.6 201.915 1179.98 204.127 1179.98ZM204.127 1164.72C207.907 1164.72 210.623 1168.19 210.623 1173.65C210.623 1179.11 207.907 1182.56 204.127 1182.56C200.347 1182.56 197.631 1179.11 197.631 1173.65C197.631 1168.19 200.347 1164.72 204.127 1164.72ZM220.927 1172.76V1175.14H216.979V1188.18H214.095V1162.87H216.979V1172.76H220.927ZM240.217 1162.84H243.129V1188.21H240.217V1162.84ZM223.669 1164.94H226.525V1171.38H232.937V1164.94H235.821V1182.19H223.669V1164.94ZM226.525 1173.68V1179.87H232.937V1173.68H226.525ZM255.911 1168.3V1179.36C256.751 1179.34 257.731 1179.2 258.767 1178.97L259.019 1181.35C257.031 1181.77 255.519 1181.8 254.315 1181.8H253.279V1165.98H258.655V1168.3H255.911ZM262.295 1168.3V1179.39C263.303 1179.34 264.423 1179.22 265.655 1178.92L265.879 1181.3C263.891 1181.77 262.267 1181.8 260.783 1181.8H259.691V1165.98H265.235V1168.3H262.295ZM271.871 1162.87H274.587V1188.16H271.871V1175.3H269.379V1186.95H266.719V1163.35H269.379V1172.95H271.871V1162.87ZM281.949 1174.49V1179.81C285.953 1179.78 289.453 1179.59 293.457 1178.94L293.765 1181.3C289.425 1182.05 285.645 1182.19 281.193 1182.19H279.037V1172.17H287.857V1167.46H278.981V1165.11H290.769V1174.49H281.949ZM295.557 1162.82H298.469V1188.21H295.557V1162.82ZM303.955 1165.53H315.939C315.939 1173.06 312.915 1179.45 304.235 1183.65L302.695 1181.35C309.331 1178.16 312.467 1173.71 312.971 1167.88H303.955V1165.53ZM320.503 1162.87H323.387V1188.16H320.503V1162.87Z" fill="white"/>
</svg>
