<svg width="678" height="1237" viewBox="0 0 678 1237" fill="none" xmlns="http://www.w3.org/2000/svg">
<path d="M225 0H213V1135H225V0Z" fill="#4857F6"/>
<path d="M463 0H451V1095H463V0Z" fill="#4857F6"/>
<rect x="168.533" y="1062.64" width="339.352" height="174" fill="black"/>
<path d="M203.319 1089.87L204.809 1087.99V1101.03L203.745 1099.99H215.296V1102.89H203.745L204.809 1101.79V1115.51H201.52V1086.97H217.019V1089.87H203.319ZM226.061 1115.89C224.5 1115.89 223.132 1115.65 221.959 1115.16C220.798 1114.67 219.895 1113.96 219.25 1113.05C218.605 1112.12 218.282 1111.01 218.282 1109.72C218.282 1108.38 218.631 1107.26 219.327 1106.37C220.024 1105.47 221.004 1104.77 222.268 1104.26C223.532 1103.76 225.003 1103.43 226.68 1103.26C229.208 1103 231.008 1102.75 232.078 1102.5C233.149 1102.24 233.684 1101.83 233.684 1101.26C233.684 1101.25 233.684 1101.25 233.684 1101.25C233.684 1101.23 233.684 1101.22 233.684 1101.21C233.684 1100.02 233.2 1099.14 232.233 1098.56C231.265 1097.96 229.866 1097.67 228.034 1097.67C226.125 1097.67 224.642 1098 223.584 1098.67C222.526 1099.33 221.997 1100.4 221.997 1101.88H218.747C218.747 1100.35 219.14 1099.05 219.927 1097.98C220.714 1096.89 221.804 1096.07 223.197 1095.5C224.603 1094.93 226.222 1094.65 228.054 1094.65C229.73 1094.65 231.24 1094.91 232.581 1095.42C233.936 1095.92 235.006 1096.68 235.793 1097.68C236.593 1098.68 236.993 1099.91 236.993 1101.38C236.993 1101.65 236.993 1101.92 236.993 1102.19C236.993 1102.45 236.993 1102.72 236.993 1102.99V1111.64C236.993 1112.09 237.012 1112.53 237.051 1112.95C237.09 1113.38 237.154 1113.75 237.244 1114.07C237.36 1114.46 237.489 1114.78 237.631 1115.02C237.773 1115.25 237.889 1115.42 237.98 1115.51H234.671C234.606 1115.44 234.51 1115.29 234.381 1115.06C234.252 1114.82 234.129 1114.53 234.013 1114.21C233.923 1113.95 233.852 1113.63 233.8 1113.24C233.749 1112.84 233.723 1112.43 233.723 1112L234.265 1112.37C233.865 1113.07 233.278 1113.68 232.504 1114.21C231.743 1114.74 230.82 1115.15 229.737 1115.45C228.653 1115.74 227.428 1115.89 226.061 1115.89ZM226.583 1112.93C227.912 1112.93 229.111 1112.73 230.182 1112.33C231.253 1111.92 232.104 1111.31 232.736 1110.51C233.368 1109.71 233.684 1108.72 233.684 1107.53V1103.45L234.419 1104.69C233.594 1105.01 232.562 1105.28 231.324 1105.48C230.098 1105.68 228.815 1105.84 227.473 1105.97C225.525 1106.15 224.055 1106.49 223.062 1106.99C222.081 1107.49 221.591 1108.34 221.591 1109.53C221.591 1110.65 221.997 1111.5 222.81 1112.08C223.623 1112.65 224.88 1112.93 226.583 1112.93ZM244.844 1085.26V1115.51H241.593V1085.26H244.844ZM253.244 1085.26V1115.51H249.993V1085.26H253.244ZM265.282 1115.89C263.721 1115.89 262.354 1115.65 261.18 1115.16C260.019 1114.67 259.116 1113.96 258.471 1113.05C257.826 1112.12 257.503 1111.01 257.503 1109.72C257.503 1108.38 257.852 1107.26 258.548 1106.37C259.245 1105.47 260.225 1104.77 261.489 1104.26C262.753 1103.76 264.224 1103.43 265.901 1103.26C268.429 1103 270.229 1102.75 271.299 1102.5C272.37 1102.24 272.905 1101.83 272.905 1101.26C272.905 1101.25 272.905 1101.25 272.905 1101.25C272.905 1101.23 272.905 1101.22 272.905 1101.21C272.905 1100.02 272.421 1099.14 271.454 1098.56C270.487 1097.96 269.087 1097.67 267.255 1097.67C265.346 1097.67 263.863 1098 262.805 1098.67C261.747 1099.33 261.218 1100.4 261.218 1101.88H257.968C257.968 1100.35 258.361 1099.05 259.148 1097.98C259.935 1096.89 261.025 1096.07 262.418 1095.5C263.824 1094.93 265.443 1094.65 267.275 1094.65C268.952 1094.65 270.461 1094.91 271.802 1095.42C273.157 1095.92 274.227 1096.68 275.014 1097.68C275.814 1098.68 276.214 1099.91 276.214 1101.38C276.214 1101.65 276.214 1101.92 276.214 1102.19C276.214 1102.45 276.214 1102.72 276.214 1102.99V1111.64C276.214 1112.09 276.233 1112.53 276.272 1112.95C276.311 1113.38 276.375 1113.75 276.465 1114.07C276.582 1114.46 276.711 1114.78 276.852 1115.02C276.994 1115.25 277.11 1115.42 277.201 1115.51H273.892C273.827 1115.44 273.731 1115.29 273.602 1115.06C273.473 1114.82 273.35 1114.53 273.234 1114.21C273.144 1113.95 273.073 1113.63 273.021 1113.24C272.97 1112.84 272.944 1112.43 272.944 1112L273.486 1112.37C273.086 1113.07 272.499 1113.68 271.725 1114.21C270.964 1114.74 270.042 1115.15 268.958 1115.45C267.874 1115.74 266.649 1115.89 265.282 1115.89ZM265.804 1112.93C267.133 1112.93 268.332 1112.73 269.403 1112.33C270.474 1111.92 271.325 1111.31 271.957 1110.51C272.589 1109.71 272.905 1108.72 272.905 1107.53V1103.45L273.64 1104.69C272.815 1105.01 271.783 1105.28 270.545 1105.48C269.319 1105.68 268.036 1105.84 266.694 1105.97C264.746 1106.15 263.276 1106.49 262.283 1106.99C261.302 1107.49 260.812 1108.34 260.812 1109.53C260.812 1110.65 261.218 1111.5 262.031 1112.08C262.844 1112.65 264.101 1112.93 265.804 1112.93ZM290.276 1115.89C288.315 1115.89 286.535 1115.47 284.935 1114.62C283.336 1113.75 282.065 1112.52 281.124 1110.92C280.195 1109.32 279.731 1107.42 279.731 1105.21C279.731 1103.01 280.195 1101.12 281.124 1099.54C282.065 1097.96 283.336 1096.74 284.935 1095.9C286.535 1095.07 288.315 1094.65 290.276 1094.65C291.772 1094.65 293.107 1094.88 294.281 1095.34C295.455 1095.8 296.448 1096.4 297.261 1097.16C298.073 1097.92 298.693 1098.76 299.118 1099.68C299.557 1100.58 299.776 1101.48 299.776 1102.39C299.776 1102.4 299.776 1102.42 299.776 1102.44C299.776 1102.47 299.776 1102.5 299.776 1102.52H296.506C296.506 1102.46 296.5 1102.39 296.487 1102.31C296.474 1102.22 296.461 1102.13 296.448 1102.04C296.345 1101.17 296.016 1100.42 295.461 1099.77C294.907 1099.12 294.184 1098.6 293.294 1098.23C292.404 1097.85 291.392 1097.67 290.256 1097.67C288.979 1097.67 287.793 1097.94 286.696 1098.5C285.613 1099.04 284.736 1099.87 284.065 1100.99C283.407 1102.1 283.078 1103.51 283.078 1105.21C283.078 1106.9 283.407 1108.31 284.065 1109.45C284.723 1110.58 285.593 1111.44 286.677 1112.02C287.773 1112.59 288.966 1112.87 290.256 1112.87C291.65 1112.87 292.798 1112.65 293.701 1112.22C294.604 1111.78 295.281 1111.2 295.732 1110.47C296.197 1109.74 296.455 1108.95 296.506 1108.11H299.776C299.776 1109.04 299.57 1109.97 299.157 1110.9C298.744 1111.82 298.138 1112.65 297.338 1113.42C296.538 1114.16 295.545 1114.76 294.358 1115.22C293.185 1115.67 291.824 1115.89 290.276 1115.89ZM303.11 1124.17C302.594 1124.17 302.123 1124.14 301.698 1124.08C301.272 1124.03 301.008 1123.97 300.904 1123.92V1121.06C301.072 1121.14 301.349 1121.2 301.736 1121.25C302.123 1121.3 302.51 1121.33 302.897 1121.33C303.723 1121.33 304.42 1121.16 304.987 1120.81C305.555 1120.47 306.032 1120.01 306.419 1119.41C306.806 1118.83 307.122 1118.18 307.367 1117.44L307.986 1115.62L300.904 1094.96H304.349L310.037 1112.66H309.573L315.145 1094.96H318.531L311.005 1117.27C310.579 1118.52 310.063 1119.67 309.457 1120.71C308.863 1121.76 308.064 1122.59 307.057 1123.23C306.064 1123.86 304.748 1124.17 303.11 1124.17ZM340.396 1115.89C338.732 1115.89 337.204 1115.56 335.81 1114.91C334.43 1114.25 333.224 1113.29 332.192 1112.04C331.173 1110.78 330.38 1109.24 329.812 1107.42C329.258 1105.6 328.98 1103.53 328.98 1101.21C328.98 1098.88 329.258 1096.82 329.812 1095.01C330.38 1093.2 331.173 1091.67 332.192 1090.43C333.224 1089.18 334.437 1088.23 335.83 1087.58C337.223 1086.94 338.745 1086.62 340.396 1086.62C342.06 1086.62 343.589 1086.94 344.982 1087.58C346.375 1088.23 347.581 1089.18 348.6 1090.43C349.632 1091.67 350.425 1093.2 350.98 1095.01C351.548 1096.82 351.831 1098.88 351.831 1101.21C351.831 1103.53 351.548 1105.6 350.98 1107.42C350.425 1109.24 349.632 1110.78 348.6 1112.04C347.581 1113.29 346.375 1114.25 344.982 1114.91C343.589 1115.56 342.06 1115.89 340.396 1115.89ZM340.396 1112.91C341.983 1112.91 343.382 1112.48 344.595 1111.62C345.807 1110.75 346.755 1109.46 347.439 1107.73C348.123 1105.99 348.465 1103.81 348.465 1101.21C348.465 1098.59 348.116 1096.42 347.42 1094.71C346.736 1092.99 345.788 1091.71 344.575 1090.87C343.363 1090.04 341.97 1089.62 340.396 1089.62C338.835 1089.62 337.442 1090.04 336.217 1090.87C335.004 1091.71 334.05 1092.99 333.353 1094.71C332.669 1096.42 332.328 1098.59 332.328 1101.21C332.328 1103.83 332.669 1106.01 333.353 1107.75C334.05 1109.47 335.004 1110.77 336.217 1111.64C337.442 1112.49 338.835 1112.91 340.396 1112.91ZM358.116 1115.51V1097.86H353.627V1094.96H358.116V1092.31C358.116 1091.39 358.219 1090.55 358.426 1089.79C358.645 1089.02 358.955 1088.33 359.355 1087.74C359.767 1087.15 360.264 1086.64 360.844 1086.23C361.425 1085.82 362.083 1085.51 362.818 1085.3C363.566 1085.08 364.379 1084.97 365.256 1084.97C365.888 1084.97 366.391 1085.01 366.765 1085.09C367.139 1085.17 367.391 1085.24 367.52 1085.3V1088.2C367.365 1088.15 367.107 1088.09 366.746 1088.03C366.385 1087.97 365.998 1087.93 365.585 1087.93C364.708 1087.93 363.992 1088.07 363.437 1088.34C362.895 1088.61 362.476 1088.98 362.179 1089.46C361.883 1089.93 361.676 1090.45 361.56 1091.05C361.457 1091.64 361.406 1092.26 361.406 1092.91V1094.96H367.404V1097.86H361.406V1115.51H358.116ZM397.716 1086.97V1115.51H394.407V1101.07L395.897 1102.72H380.166L381.656 1101.07V1115.51H378.347V1086.97H381.656V1101.55L380.166 1099.81H395.897L394.407 1101.55V1086.97H397.716ZM409.426 1115.89C407.865 1115.89 406.498 1115.65 405.324 1115.16C404.163 1114.67 403.26 1113.96 402.615 1113.05C401.97 1112.12 401.648 1111.01 401.648 1109.72C401.648 1108.38 401.996 1107.26 402.692 1106.37C403.389 1105.47 404.369 1104.77 405.633 1104.26C406.898 1103.76 408.368 1103.43 410.045 1103.26C412.573 1103 414.373 1102.75 415.443 1102.5C416.514 1102.24 417.049 1101.83 417.049 1101.26C417.049 1101.25 417.049 1101.25 417.049 1101.25C417.049 1101.23 417.049 1101.22 417.049 1101.21C417.049 1100.02 416.566 1099.14 415.598 1098.56C414.631 1097.96 413.231 1097.67 411.399 1097.67C409.49 1097.67 408.007 1098 406.949 1098.67C405.891 1099.33 405.363 1100.4 405.363 1101.88H402.112C402.112 1100.35 402.505 1099.05 403.292 1097.98C404.079 1096.89 405.169 1096.07 406.562 1095.5C407.968 1094.93 409.587 1094.65 411.419 1094.65C413.096 1094.65 414.605 1094.91 415.946 1095.42C417.301 1095.92 418.372 1096.68 419.158 1097.68C419.958 1098.68 420.358 1099.91 420.358 1101.38C420.358 1101.65 420.358 1101.92 420.358 1102.19C420.358 1102.45 420.358 1102.72 420.358 1102.99V1111.64C420.358 1112.09 420.377 1112.53 420.416 1112.95C420.455 1113.38 420.519 1113.75 420.61 1114.07C420.726 1114.46 420.855 1114.78 420.997 1115.02C421.138 1115.25 421.255 1115.42 421.345 1115.51H418.036C417.972 1115.44 417.875 1115.29 417.746 1115.06C417.617 1114.82 417.494 1114.53 417.378 1114.21C417.288 1113.95 417.217 1113.63 417.165 1113.24C417.114 1112.84 417.088 1112.43 417.088 1112L417.63 1112.37C417.23 1113.07 416.643 1113.68 415.869 1114.21C415.108 1114.74 414.186 1115.15 413.102 1115.45C412.019 1115.74 410.793 1115.89 409.426 1115.89ZM409.948 1112.93C411.277 1112.93 412.477 1112.73 413.547 1112.33C414.618 1111.92 415.469 1111.31 416.101 1110.51C416.733 1109.71 417.049 1108.72 417.049 1107.53V1103.45L417.785 1104.69C416.959 1105.01 415.927 1105.28 414.689 1105.48C413.463 1105.68 412.18 1105.84 410.838 1105.97C408.891 1106.15 407.42 1106.49 406.427 1106.99C405.446 1107.49 404.956 1108.34 404.956 1109.53C404.956 1110.65 405.363 1111.5 406.175 1112.08C406.988 1112.65 408.246 1112.93 409.948 1112.93ZM432.524 1115.89C431.285 1115.89 430.137 1115.76 429.08 1115.51C428.035 1115.23 427.119 1114.85 426.332 1114.34C425.558 1113.83 424.952 1113.2 424.513 1112.45C424.088 1111.7 423.875 1110.84 423.875 1109.87C423.875 1109.77 423.875 1109.67 423.875 1109.57C423.875 1109.45 423.875 1109.35 423.875 1109.27H427.183C427.183 1109.35 427.183 1109.42 427.183 1109.47C427.183 1109.52 427.183 1109.6 427.183 1109.7C427.183 1110.75 427.667 1111.55 428.635 1112.1C429.602 1112.64 430.924 1112.91 432.601 1112.91C433.633 1112.91 434.555 1112.81 435.368 1112.6C436.181 1112.4 436.819 1112.08 437.284 1111.65C437.761 1111.23 438 1110.69 438 1110.05C438 1108.98 437.496 1108.22 436.49 1107.77C435.497 1107.3 434.007 1106.9 432.021 1106.57C430.976 1106.39 429.983 1106.15 429.041 1105.87C428.099 1105.57 427.261 1105.19 426.526 1104.73C425.803 1104.26 425.229 1103.69 424.804 1103.01C424.391 1102.31 424.184 1101.48 424.184 1100.51C424.184 1099.26 424.552 1098.2 425.287 1097.34C426.035 1096.46 427.042 1095.8 428.306 1095.34C429.57 1094.88 430.976 1094.65 432.524 1094.65C434.02 1094.65 435.4 1094.89 436.664 1095.36C437.929 1095.84 438.941 1096.54 439.702 1097.45C440.476 1098.36 440.863 1099.47 440.863 1100.8C440.863 1100.85 440.863 1100.92 440.863 1100.99C440.863 1101.06 440.863 1101.12 440.863 1101.19H437.574C437.574 1101.12 437.574 1101.07 437.574 1101.03C437.574 1100.99 437.574 1100.95 437.574 1100.9C437.574 1100.15 437.335 1099.54 436.858 1099.06C436.381 1098.57 435.761 1098.21 435 1097.98C434.239 1097.73 433.427 1097.61 432.562 1097.61C431.75 1097.61 430.95 1097.7 430.163 1097.88C429.376 1098.05 428.725 1098.33 428.209 1098.73C427.693 1099.13 427.435 1099.68 427.435 1100.37C427.435 1101.07 427.674 1101.63 428.151 1102.06C428.641 1102.47 429.325 1102.81 430.202 1103.08C431.092 1103.34 432.137 1103.58 433.336 1103.8C434.407 1103.99 435.42 1104.24 436.374 1104.53C437.329 1104.82 438.167 1105.19 438.89 1105.64C439.625 1106.09 440.199 1106.66 440.612 1107.36C441.037 1108.04 441.25 1108.88 441.25 1109.87C441.25 1110.88 441.018 1111.76 440.554 1112.51C440.102 1113.25 439.47 1113.88 438.657 1114.38C437.858 1114.89 436.929 1115.26 435.871 1115.51C434.826 1115.76 433.711 1115.89 432.524 1115.89ZM452.91 1115.81C452.278 1115.81 451.659 1115.74 451.053 1115.6C450.446 1115.46 449.898 1115.21 449.408 1114.85C448.931 1114.47 448.55 1113.95 448.266 1113.28C447.983 1112.6 447.841 1111.72 447.841 1110.65C447.841 1110.38 447.841 1110.1 447.841 1109.82C447.841 1109.52 447.841 1109.21 447.841 1108.89V1097.86H442.829V1094.96H446.041C446.48 1094.96 446.822 1094.94 447.067 1094.92C447.312 1094.88 447.486 1094.8 447.589 1094.67C447.705 1094.52 447.776 1094.31 447.802 1094.03C447.828 1093.73 447.841 1093.32 447.841 1092.81V1088.15H451.149V1094.96H457.573V1097.86H451.149V1107.82C451.149 1108.11 451.149 1108.38 451.149 1108.66C451.149 1108.93 451.149 1109.18 451.149 1109.41C451.149 1110.51 451.278 1111.36 451.536 1111.98C451.807 1112.6 452.407 1112.91 453.336 1112.91C453.71 1112.91 454.065 1112.88 454.4 1112.82C454.735 1112.75 454.987 1112.69 455.155 1112.62V1115.49C454.935 1115.56 454.626 1115.63 454.226 1115.7C453.839 1115.78 453.4 1115.81 452.91 1115.81ZM461.248 1124.17C460.732 1124.17 460.261 1124.14 459.835 1124.08C459.41 1124.03 459.145 1123.97 459.042 1123.92V1121.06C459.21 1121.14 459.487 1121.2 459.874 1121.25C460.261 1121.3 460.648 1121.33 461.035 1121.33C461.86 1121.33 462.557 1121.16 463.125 1120.81C463.692 1120.47 464.169 1120.01 464.556 1119.41C464.943 1118.83 465.259 1118.18 465.504 1117.44L466.124 1115.62L459.042 1094.96H462.486L468.175 1112.66H467.71L473.283 1094.96H476.669L469.142 1117.27C468.716 1118.52 468.2 1119.67 467.594 1120.71C467.001 1121.76 466.201 1122.59 465.195 1123.23C464.202 1123.86 462.886 1124.17 461.248 1124.17ZM221.906 1163.89C219.778 1163.89 217.843 1163.31 216.101 1162.15C214.36 1160.99 212.973 1159.32 211.941 1157.14C210.909 1154.96 210.393 1152.33 210.393 1149.26C210.393 1146.19 210.916 1143.57 211.961 1141.39C213.005 1139.21 214.418 1137.54 216.198 1136.38C217.991 1135.2 219.997 1134.62 222.216 1134.62C224.022 1134.62 225.55 1134.93 226.801 1135.57C228.065 1136.18 229.091 1136.99 229.878 1137.98C230.678 1138.96 231.258 1140.01 231.619 1141.12C231.98 1142.21 232.161 1143.25 232.161 1144.21C232.161 1144.25 232.161 1144.29 232.161 1144.33C232.161 1144.37 232.161 1144.41 232.161 1144.45H228.949C228.949 1144.41 228.949 1144.37 228.949 1144.33C228.949 1144.29 228.949 1144.25 228.949 1144.21C228.949 1143.44 228.814 1142.67 228.543 1141.89C228.285 1141.11 227.878 1140.4 227.324 1139.76C226.769 1139.12 226.066 1138.6 225.215 1138.22C224.376 1137.83 223.377 1137.64 222.216 1137.64C220.655 1137.64 219.229 1138.06 217.939 1138.91C216.662 1139.76 215.637 1141.05 214.863 1142.78C214.102 1144.5 213.721 1146.66 213.721 1149.26C213.721 1151.26 213.934 1153 214.36 1154.47C214.786 1155.93 215.372 1157.13 216.121 1158.09C216.869 1159.04 217.74 1159.75 218.733 1160.22C219.739 1160.68 220.822 1160.91 221.983 1160.91C223.518 1160.91 224.776 1160.65 225.756 1160.12C226.75 1159.59 227.517 1158.93 228.059 1158.15C228.601 1157.35 228.949 1156.56 229.104 1155.79V1152.79H222.119V1150.02H232.084V1163.51H229.626L229.452 1160.33C229.349 1160.53 229.136 1160.82 228.814 1161.2C228.491 1161.59 228.033 1161.99 227.44 1162.4C226.859 1162.82 226.111 1163.17 225.195 1163.47C224.279 1163.75 223.183 1163.89 221.906 1163.89ZM237.756 1154.55V1151.61H253.642L253.062 1152.57C253.062 1152.5 253.062 1152.42 253.062 1152.36C253.062 1152.28 253.062 1152.21 253.062 1152.15C253.062 1150.96 252.81 1149.88 252.307 1148.9C251.817 1147.9 251.082 1147.11 250.101 1146.52C249.121 1145.92 247.908 1145.63 246.464 1145.63C245.006 1145.63 243.722 1145.94 242.613 1146.56C241.504 1147.17 240.639 1148.05 240.02 1149.19C239.401 1150.31 239.092 1151.65 239.092 1153.21C239.092 1154.8 239.388 1156.17 239.982 1157.31C240.588 1158.46 241.446 1159.35 242.555 1159.96C243.664 1160.58 244.98 1160.89 246.502 1160.89C247.586 1160.89 248.527 1160.78 249.327 1160.56C250.127 1160.33 250.785 1160.03 251.301 1159.65C251.83 1159.27 252.23 1158.85 252.5 1158.4C252.771 1157.95 252.933 1157.49 252.984 1157.04H256.274C256.209 1157.87 255.951 1158.69 255.5 1159.5C255.048 1160.31 254.41 1161.05 253.584 1161.73C252.758 1162.38 251.746 1162.91 250.546 1163.31C249.347 1163.71 247.966 1163.91 246.405 1163.91C244.342 1163.91 242.523 1163.46 240.949 1162.56C239.375 1161.65 238.137 1160.4 237.234 1158.8C236.344 1157.2 235.899 1155.37 235.899 1153.29C235.899 1151.19 236.35 1149.34 237.253 1147.76C238.156 1146.16 239.401 1144.9 240.988 1144C242.574 1143.1 244.387 1142.65 246.425 1142.65C248.502 1142.65 250.301 1143.1 251.823 1144C253.345 1144.9 254.519 1146.14 255.345 1147.72C256.17 1149.28 256.583 1151.06 256.583 1153.06C256.583 1153.26 256.577 1153.53 256.564 1153.87C256.551 1154.2 256.531 1154.43 256.506 1154.55H237.756ZM275.254 1163.51V1153.66C275.254 1153.06 275.254 1152.58 275.254 1152.21C275.254 1151.82 275.254 1151.45 275.254 1151.1C275.254 1150.03 275.074 1149.1 274.713 1148.3C274.351 1147.5 273.784 1146.88 273.01 1146.44C272.236 1146 271.223 1145.78 269.972 1145.78C268.876 1145.78 267.857 1146.07 266.915 1146.63C265.986 1147.19 265.238 1147.94 264.67 1148.9C264.116 1149.84 263.838 1150.9 263.838 1152.07L261.962 1151.35C261.962 1149.74 262.355 1148.28 263.142 1146.96C263.942 1145.65 264.999 1144.6 266.315 1143.83C267.644 1143.04 269.088 1142.65 270.649 1142.65C272.236 1142.65 273.623 1142.95 274.809 1143.56C275.996 1144.16 276.912 1145.03 277.557 1146.17C278.215 1147.29 278.544 1148.65 278.544 1150.23C278.544 1150.8 278.544 1151.42 278.544 1152.09C278.544 1152.76 278.544 1153.39 278.544 1153.97V1163.51H275.254ZM260.549 1163.51V1142.96H263.838V1163.51H260.549ZM284.185 1154.55V1151.61H300.071L299.49 1152.57C299.49 1152.5 299.49 1152.42 299.49 1152.36C299.49 1152.28 299.49 1152.21 299.49 1152.15C299.49 1150.96 299.239 1149.88 298.736 1148.9C298.245 1147.9 297.51 1147.11 296.53 1146.52C295.549 1145.92 294.337 1145.63 292.892 1145.63C291.435 1145.63 290.151 1145.94 289.042 1146.56C287.932 1147.17 287.068 1148.05 286.449 1149.19C285.83 1150.31 285.52 1151.65 285.52 1153.21C285.52 1154.8 285.817 1156.17 286.41 1157.31C287.016 1158.46 287.874 1159.35 288.984 1159.96C290.093 1160.58 291.409 1160.89 292.931 1160.89C294.014 1160.89 294.956 1160.78 295.756 1160.56C296.556 1160.33 297.213 1160.03 297.729 1159.65C298.258 1159.27 298.658 1158.85 298.929 1158.4C299.2 1157.95 299.361 1157.49 299.413 1157.04H302.702C302.638 1157.87 302.38 1158.69 301.928 1159.5C301.477 1160.31 300.838 1161.05 300.013 1161.73C299.187 1162.38 298.174 1162.91 296.975 1163.31C295.775 1163.71 294.395 1163.91 292.834 1163.91C290.77 1163.91 288.951 1163.46 287.378 1162.56C285.804 1161.65 284.566 1160.4 283.663 1158.8C282.773 1157.2 282.328 1155.37 282.328 1153.29C282.328 1151.19 282.779 1149.34 283.682 1147.76C284.585 1146.16 285.83 1144.9 287.416 1144C289.003 1143.1 290.815 1142.65 292.853 1142.65C294.93 1142.65 296.73 1143.1 298.252 1144C299.774 1144.9 300.948 1146.14 301.773 1147.72C302.599 1149.28 303.012 1151.06 303.012 1153.06C303.012 1153.26 303.005 1153.53 302.992 1153.87C302.979 1154.2 302.96 1154.43 302.934 1154.55H284.185ZM306.978 1163.51V1142.96H310.267V1149.26L309.183 1148.88C309.261 1148.12 309.454 1147.37 309.764 1146.63C310.073 1145.88 310.499 1145.21 311.041 1144.62C311.596 1144.01 312.286 1143.54 313.111 1143.19C313.937 1142.83 314.904 1142.65 316.014 1142.65C316.839 1142.65 317.51 1142.72 318.026 1142.86C318.555 1142.99 318.884 1143.09 319.013 1143.17L318.161 1146.4C318.032 1146.31 317.768 1146.19 317.368 1146.05C316.981 1145.91 316.426 1145.84 315.704 1145.84C314.633 1145.84 313.743 1146.03 313.034 1146.42C312.337 1146.81 311.783 1147.32 311.37 1147.97C310.97 1148.6 310.686 1149.29 310.518 1150.04C310.351 1150.79 310.267 1151.53 310.267 1152.26V1163.51H306.978ZM328.187 1163.89C326.626 1163.89 325.259 1163.65 324.085 1163.16C322.924 1162.67 322.021 1161.96 321.376 1161.05C320.731 1160.12 320.409 1159.01 320.409 1157.72C320.409 1156.38 320.757 1155.26 321.454 1154.37C322.15 1153.47 323.131 1152.77 324.395 1152.26C325.659 1151.76 327.129 1151.43 328.806 1151.26C331.335 1151 333.134 1150.75 334.205 1150.5C335.275 1150.24 335.811 1149.83 335.811 1149.26C335.811 1149.25 335.811 1149.25 335.811 1149.25C335.811 1149.23 335.811 1149.22 335.811 1149.21C335.811 1148.02 335.327 1147.14 334.36 1146.56C333.392 1145.96 331.992 1145.67 330.161 1145.67C328.252 1145.67 326.768 1146 325.71 1146.67C324.653 1147.33 324.124 1148.4 324.124 1149.88H320.873C320.873 1148.35 321.267 1147.05 322.054 1145.98C322.84 1144.89 323.93 1144.07 325.324 1143.5C326.73 1142.93 328.348 1142.65 330.18 1142.65C331.857 1142.65 333.366 1142.91 334.708 1143.42C336.062 1143.92 337.133 1144.68 337.92 1145.68C338.719 1146.68 339.119 1147.91 339.119 1149.38C339.119 1149.65 339.119 1149.92 339.119 1150.19C339.119 1150.45 339.119 1150.72 339.119 1150.99V1159.64C339.119 1160.09 339.139 1160.53 339.177 1160.95C339.216 1161.38 339.281 1161.75 339.371 1162.07C339.487 1162.46 339.616 1162.78 339.758 1163.02C339.9 1163.25 340.016 1163.42 340.106 1163.51H336.797C336.733 1163.44 336.636 1163.29 336.507 1163.06C336.378 1162.82 336.256 1162.53 336.14 1162.21C336.049 1161.95 335.978 1161.63 335.927 1161.24C335.875 1160.84 335.849 1160.43 335.849 1160L336.391 1160.37C335.991 1161.07 335.404 1161.68 334.63 1162.21C333.869 1162.74 332.947 1163.15 331.863 1163.45C330.78 1163.74 329.554 1163.89 328.187 1163.89ZM328.71 1160.93C330.038 1160.93 331.238 1160.73 332.309 1160.33C333.379 1159.92 334.231 1159.31 334.863 1158.51C335.495 1157.71 335.811 1156.72 335.811 1155.53V1151.45L336.546 1152.69C335.72 1153.01 334.688 1153.28 333.45 1153.48C332.225 1153.68 330.941 1153.84 329.6 1153.97C327.652 1154.15 326.181 1154.49 325.188 1154.99C324.208 1155.49 323.718 1156.34 323.718 1157.53C323.718 1158.65 324.124 1159.5 324.937 1160.08C325.749 1160.65 327.007 1160.93 328.71 1160.93ZM346.97 1133.26V1163.51H343.72V1133.26H346.97ZM352.023 1163.51V1142.96H355.274V1163.51H352.023ZM353.668 1138.24C353.061 1138.24 352.533 1138.07 352.081 1137.73C351.643 1137.38 351.423 1136.91 351.423 1136.32C351.423 1135.74 351.643 1135.28 352.081 1134.95C352.533 1134.6 353.061 1134.42 353.668 1134.42C354.274 1134.42 354.796 1134.6 355.235 1134.95C355.674 1135.28 355.893 1135.74 355.893 1136.32C355.893 1136.91 355.674 1137.38 355.235 1137.73C354.796 1138.07 354.274 1138.24 353.668 1138.24ZM362.397 1160.49H374.587V1163.51H358.721V1160.6L370.775 1145.9L370.794 1145.98H359.204V1142.96H374.413V1145.86L362.416 1160.53L362.397 1160.49ZM384.236 1163.89C382.675 1163.89 381.308 1163.65 380.134 1163.16C378.973 1162.67 378.07 1161.96 377.425 1161.05C376.78 1160.12 376.458 1159.01 376.458 1157.72C376.458 1156.38 376.806 1155.26 377.502 1154.37C378.199 1153.47 379.179 1152.77 380.443 1152.26C381.708 1151.76 383.178 1151.43 384.855 1151.26C387.383 1151 389.183 1150.75 390.253 1150.5C391.324 1150.24 391.859 1149.83 391.859 1149.26C391.859 1149.25 391.859 1149.25 391.859 1149.25C391.859 1149.23 391.859 1149.22 391.859 1149.21C391.859 1148.02 391.376 1147.14 390.408 1146.56C389.441 1145.96 388.041 1145.67 386.209 1145.67C384.3 1145.67 382.817 1146 381.759 1146.67C380.701 1147.33 380.173 1148.4 380.173 1149.88H376.922C376.922 1148.35 377.315 1147.05 378.102 1145.98C378.889 1144.89 379.979 1144.07 381.372 1143.5C382.778 1142.93 384.397 1142.65 386.229 1142.65C387.906 1142.65 389.415 1142.91 390.756 1143.42C392.111 1143.92 393.182 1144.68 393.968 1145.68C394.768 1146.68 395.168 1147.91 395.168 1149.38C395.168 1149.65 395.168 1149.92 395.168 1150.19C395.168 1150.45 395.168 1150.72 395.168 1150.99V1159.64C395.168 1160.09 395.187 1160.53 395.226 1160.95C395.265 1161.38 395.329 1161.75 395.42 1162.07C395.536 1162.46 395.665 1162.78 395.807 1163.02C395.948 1163.25 396.065 1163.42 396.155 1163.51H392.846C392.782 1163.44 392.685 1163.29 392.556 1163.06C392.427 1162.82 392.304 1162.53 392.188 1162.21C392.098 1161.95 392.027 1161.63 391.975 1161.24C391.924 1160.84 391.898 1160.43 391.898 1160L392.44 1160.37C392.04 1161.07 391.453 1161.68 390.679 1162.21C389.918 1162.74 388.996 1163.15 387.912 1163.45C386.829 1163.74 385.603 1163.89 384.236 1163.89ZM384.758 1160.93C386.087 1160.93 387.287 1160.73 388.357 1160.33C389.428 1159.92 390.279 1159.31 390.911 1158.51C391.543 1157.71 391.859 1156.72 391.859 1155.53V1151.45L392.595 1152.69C391.769 1153.01 390.737 1153.28 389.499 1153.48C388.273 1153.68 386.99 1153.84 385.648 1153.97C383.701 1154.15 382.23 1154.49 381.237 1154.99C380.256 1155.49 379.766 1156.34 379.766 1157.53C379.766 1158.65 380.173 1159.5 380.985 1160.08C381.798 1160.65 383.056 1160.93 384.758 1160.93ZM407.038 1163.81C406.406 1163.81 405.787 1163.74 405.18 1163.6C404.574 1163.46 404.026 1163.21 403.536 1162.85C403.058 1162.47 402.678 1161.95 402.394 1161.28C402.11 1160.6 401.968 1159.72 401.968 1158.65C401.968 1158.38 401.968 1158.1 401.968 1157.82C401.968 1157.52 401.968 1157.21 401.968 1156.89V1145.86H396.957V1142.96H400.169C400.607 1142.96 400.949 1142.94 401.194 1142.92C401.439 1142.88 401.614 1142.8 401.717 1142.67C401.833 1142.52 401.904 1142.31 401.93 1142.03C401.955 1141.73 401.968 1141.32 401.968 1140.81V1136.15H405.277V1142.96H411.701V1145.86H405.277V1155.82C405.277 1156.11 405.277 1156.38 405.277 1156.66C405.277 1156.93 405.277 1157.18 405.277 1157.41C405.277 1158.51 405.406 1159.36 405.664 1159.98C405.935 1160.6 406.535 1160.91 407.463 1160.91C407.838 1160.91 408.192 1160.88 408.528 1160.82C408.863 1160.75 409.115 1160.69 409.282 1160.62V1163.49C409.063 1163.56 408.753 1163.63 408.354 1163.7C407.967 1163.78 407.528 1163.81 407.038 1163.81ZM414.95 1163.51V1142.96H418.2V1163.51H414.95ZM416.594 1138.24C415.988 1138.24 415.459 1138.07 415.008 1137.73C414.569 1137.38 414.35 1136.91 414.35 1136.32C414.35 1135.74 414.569 1135.28 415.008 1134.95C415.459 1134.6 415.988 1134.42 416.594 1134.42C417.201 1134.42 417.723 1134.6 418.162 1134.95C418.6 1135.28 418.82 1135.74 418.82 1136.32C418.82 1136.91 418.6 1137.38 418.162 1137.73C417.723 1138.07 417.201 1138.24 416.594 1138.24ZM432.889 1163.87C430.825 1163.87 429 1163.42 427.413 1162.5C425.839 1161.57 424.601 1160.31 423.698 1158.71C422.808 1157.09 422.363 1155.26 422.363 1153.21C422.363 1151.16 422.808 1149.34 423.698 1147.76C424.601 1146.17 425.839 1144.92 427.413 1144.02C429 1143.12 430.825 1142.67 432.889 1142.67C434.953 1142.67 436.772 1143.12 438.345 1144.02C439.932 1144.92 441.17 1146.17 442.06 1147.76C442.963 1149.34 443.415 1151.16 443.415 1153.21C443.415 1155.26 442.963 1157.09 442.06 1158.71C441.17 1160.31 439.932 1161.57 438.345 1162.5C436.772 1163.42 434.953 1163.87 432.889 1163.87ZM432.889 1160.85C434.308 1160.85 435.559 1160.54 436.643 1159.91C437.726 1159.27 438.571 1158.38 439.177 1157.24C439.797 1156.09 440.106 1154.75 440.106 1153.21C440.106 1151.68 439.797 1150.35 439.177 1149.23C438.571 1148.09 437.726 1147.22 436.643 1146.61C435.559 1145.99 434.308 1145.68 432.889 1145.68C431.483 1145.68 430.232 1145.99 429.135 1146.61C428.052 1147.22 427.2 1148.09 426.581 1149.23C425.975 1150.35 425.672 1151.68 425.672 1153.21C425.672 1154.75 425.975 1156.09 426.581 1157.24C427.2 1158.38 428.052 1159.27 429.135 1159.91C430.232 1160.54 431.483 1160.85 432.889 1160.85ZM462.096 1163.51V1153.66C462.096 1153.06 462.096 1152.58 462.096 1152.21C462.096 1151.82 462.096 1151.45 462.096 1151.1C462.096 1150.03 461.916 1149.1 461.555 1148.3C461.193 1147.5 460.626 1146.88 459.852 1146.44C459.078 1146 458.065 1145.78 456.814 1145.78C455.718 1145.78 454.699 1146.07 453.757 1146.63C452.828 1147.19 452.08 1147.94 451.512 1148.9C450.958 1149.84 450.68 1150.9 450.68 1152.07L448.804 1151.35C448.804 1149.74 449.197 1148.28 449.984 1146.96C450.784 1145.65 451.841 1144.6 453.157 1143.83C454.486 1143.04 455.93 1142.65 457.491 1142.65C459.078 1142.65 460.465 1142.95 461.651 1143.56C462.838 1144.16 463.754 1145.03 464.399 1146.17C465.057 1147.29 465.386 1148.65 465.386 1150.23C465.386 1150.8 465.386 1151.42 465.386 1152.09C465.386 1152.76 465.386 1153.39 465.386 1153.97V1163.51H462.096ZM447.391 1163.51V1142.96H450.68V1163.51H447.391Z" fill="white"/>
<path d="M328.165 989.416C337.755 977.228 345.622 964.019 351.863 949.821C352.329 948.768 353.546 947.714 354.649 947.33C359.133 945.745 363.7 944.43 368.92 942.796C368.446 945.181 368.34 947.175 367.645 948.931C363.912 958.333 360.073 967.695 356.143 977.024C355.67 978.143 354.322 978.853 353.636 979.924C352.615 981.533 351.234 983.224 351.046 984.997C350.613 989.154 349.028 990.347 345.32 988.574C345.017 988.436 344.732 988.264 344.438 988.109C338.414 984.836 333.17 985.438 328.704 989.914C328.525 989.751 328.345 989.579 328.173 989.416H328.165Z" fill="white"/>
<path d="M338.875 988.076C518.989 988.076 665 919.933 665 835.874C665 751.815 518.989 683.672 338.875 683.672C158.76 683.672 12.749 751.815 12.749 835.874C12.749 919.933 158.76 988.076 338.875 988.076Z" fill="#F4F4F4" stroke="#FF4C91" stroke-width="24.0424" stroke-miterlimit="10"/>
<path d="M338.875 939.594C461.611 939.594 561.109 893.157 561.109 835.874C561.109 778.591 461.611 732.154 338.875 732.154C216.138 732.154 116.641 778.591 116.641 835.874C116.641 893.157 216.138 939.594 338.875 939.594Z" fill="#F4F4F4" stroke="#FF4C91" stroke-width="1.98452" stroke-miterlimit="10"/>
<path d="M338.874 900.187C414.979 900.187 476.675 871.393 476.675 835.874C476.675 800.355 414.979 771.561 338.874 771.561C262.769 771.561 201.074 800.355 201.074 835.874C201.074 871.393 262.769 900.187 338.874 900.187Z" fill="#F4F4F4" stroke="#FF4C91" stroke-width="1.98452" stroke-miterlimit="10"/>
<path d="M338.874 683.68V988.076" stroke="#FF4C91" stroke-width="1.98452" stroke-miterlimit="10"/>
<path d="M665 835.882H12.749" stroke="#FF4C91" stroke-width="1.98452" stroke-miterlimit="10"/>
<path d="M338.874 873.843C383.805 873.843 420.228 856.844 420.228 835.874C420.228 814.904 383.805 797.905 338.874 797.905C293.944 797.905 257.521 814.904 257.521 835.874C257.521 856.844 293.944 873.843 338.874 873.843Z" fill="#4857F6" stroke="#FF4C91" stroke-width="1.98452" stroke-miterlimit="10"/>
<path d="M116.641 625.567V788.715L230.67 706.095L116.641 625.567Z" fill="#FF4C91"/>
<path d="M212.102 621.09V784.239L326.139 701.619L212.102 621.09Z" fill="#FF4C91"/>
<path d="M431.395 879.724V1042.87L545.432 960.253L431.395 879.724Z" fill="#FF4C91"/>
<path d="M526.856 875.248V1038.4L640.893 955.777L526.856 875.248Z" fill="#FF4C91"/>
<path d="M639.636 843.553C640.02 843.553 640.346 843.52 640.616 843.447C640.885 843.373 641.106 843.283 641.278 843.153C641.449 843.022 641.572 842.875 641.653 842.695C641.735 842.515 641.768 842.311 641.768 842.091C641.768 841.772 641.678 841.527 641.506 841.347C641.335 841.168 641.049 841.069 640.657 841.069C640.444 841.069 640.256 841.094 640.085 841.135C639.913 841.176 639.758 841.233 639.619 841.298C639.48 841.364 639.35 841.437 639.235 841.519C639.121 841.6 639.015 841.674 638.917 841.739L638.263 840.686C638.386 840.588 638.541 840.49 638.713 840.4C638.884 840.31 639.072 840.22 639.284 840.146C639.497 840.073 639.709 840.016 639.946 839.967C640.183 839.918 640.428 839.901 640.689 839.901C641.057 839.901 641.408 839.942 641.727 840.024C642.045 840.106 642.331 840.228 642.576 840.391C642.822 840.555 643.009 840.767 643.148 841.02C643.287 841.274 643.361 841.584 643.361 841.935C643.361 842.172 643.312 842.393 643.222 842.605C643.132 842.818 643.009 843.006 642.862 843.177C642.715 843.349 642.552 843.496 642.364 843.618C642.176 843.741 641.988 843.831 641.792 843.888C642.095 843.929 642.364 844.002 642.601 844.108C642.838 844.215 643.042 844.353 643.206 844.533C643.369 844.713 643.491 844.917 643.581 845.17C643.671 845.423 643.712 845.709 643.712 846.028C643.712 846.543 643.63 846.976 643.475 847.335C643.32 847.694 643.099 847.98 642.813 848.201C642.528 848.421 642.201 848.585 641.817 848.683C641.433 848.781 641.016 848.83 640.567 848.83C640.281 848.83 640.011 848.797 639.75 848.74C639.489 848.683 639.244 848.609 639.023 848.528C638.802 848.446 638.606 848.364 638.443 848.274C638.28 848.185 638.149 848.119 638.059 848.062L638.77 846.886C638.77 846.886 638.852 846.943 638.917 846.992C638.982 847.041 639.072 847.09 639.17 847.147C639.268 847.204 639.374 847.261 639.497 847.319C639.619 847.376 639.742 847.433 639.873 847.482C640.003 847.531 640.134 847.572 640.273 847.605C640.412 847.637 640.542 847.654 640.673 847.654C641.106 847.654 641.449 847.523 641.702 847.27C641.956 847.016 642.086 846.633 642.086 846.126C642.086 845.807 642.037 845.546 641.947 845.334C641.858 845.121 641.711 844.958 641.514 844.843C641.318 844.729 641.057 844.639 640.747 844.59C640.436 844.541 640.06 844.517 639.619 844.509L639.636 843.545V843.553Z" fill="#FF4C91"/>
<path d="M343.776 701.856C344.16 701.856 344.486 701.823 344.756 701.749C345.026 701.676 345.246 701.586 345.418 701.455C345.589 701.325 345.712 701.178 345.793 700.998C345.875 700.818 345.908 700.614 345.908 700.393C345.908 700.075 345.818 699.83 345.646 699.65C345.475 699.47 345.189 699.372 344.797 699.372C344.584 699.372 344.397 699.397 344.225 699.438C344.054 699.478 343.898 699.536 343.759 699.601C343.621 699.666 343.49 699.74 343.375 699.822C343.261 699.903 343.155 699.977 343.057 700.042L342.403 698.988C342.526 698.89 342.681 698.792 342.853 698.702C343.024 698.613 343.212 698.523 343.425 698.449C343.637 698.376 343.849 698.319 344.086 698.27C344.323 698.221 344.568 698.204 344.83 698.204C345.197 698.204 345.548 698.245 345.867 698.327C346.186 698.408 346.471 698.531 346.716 698.694C346.961 698.858 347.15 699.07 347.288 699.323C347.427 699.576 347.501 699.887 347.501 700.238C347.501 700.475 347.452 700.696 347.362 700.908C347.272 701.12 347.149 701.308 347.002 701.48C346.855 701.651 346.692 701.798 346.504 701.921C346.316 702.044 346.128 702.133 345.932 702.191C346.234 702.231 346.504 702.305 346.741 702.411C346.978 702.517 347.182 702.656 347.345 702.836C347.509 703.016 347.631 703.22 347.721 703.473C347.811 703.726 347.852 704.012 347.852 704.331C347.852 704.845 347.77 705.278 347.615 705.638C347.46 705.997 347.239 706.283 346.953 706.504C346.667 706.724 346.341 706.888 345.957 706.986C345.573 707.084 345.156 707.133 344.707 707.133C344.421 707.133 344.151 707.1 343.89 707.043C343.629 706.986 343.384 706.912 343.163 706.83C342.943 706.749 342.747 706.667 342.583 706.577C342.42 706.487 342.289 706.422 342.199 706.365L342.91 705.189C342.91 705.189 342.991 705.246 343.057 705.295C343.122 705.344 343.212 705.393 343.31 705.45C343.408 705.507 343.514 705.564 343.637 705.621C343.759 705.679 343.882 705.736 344.013 705.785C344.143 705.834 344.274 705.875 344.413 705.907C344.552 705.94 344.683 705.956 344.813 705.956C345.246 705.956 345.589 705.826 345.843 705.572C346.096 705.319 346.226 704.935 346.226 704.429C346.226 704.11 346.177 703.849 346.087 703.636C345.998 703.424 345.851 703.261 345.655 703.146C345.459 703.032 345.197 702.942 344.887 702.893C344.576 702.844 344.201 702.82 343.759 702.811L343.776 701.847V701.856Z" fill="#FF4C91"/>
<path d="M457.601 847.58V841.592L456.22 842.344V841.094L457.985 840.13H459.087V847.58H460.313V848.691H456.269V847.58H457.601Z" fill="#FF4C91"/>
<path d="M461.408 844.378C461.408 843.7 461.465 843.087 461.587 842.54C461.71 841.993 461.89 841.519 462.135 841.127C462.38 840.735 462.69 840.432 463.074 840.22C463.458 840.008 463.899 839.901 464.414 839.901C464.928 839.901 465.353 840.008 465.729 840.212C466.105 840.416 466.407 840.718 466.652 841.102C466.897 841.486 467.077 841.96 467.191 842.515C467.305 843.071 467.371 843.692 467.371 844.386C467.371 845.08 467.314 845.726 467.199 846.281C467.085 846.837 466.905 847.302 466.66 847.678C466.415 848.054 466.105 848.348 465.729 848.544C465.353 848.74 464.904 848.838 464.389 848.838C463.875 848.838 463.434 848.74 463.058 848.544C462.682 848.348 462.372 848.062 462.135 847.678C461.898 847.294 461.71 846.837 461.596 846.281C461.481 845.726 461.424 845.097 461.424 844.386L461.408 844.378ZM464.397 847.654C464.61 847.654 464.79 847.613 464.937 847.523C465.084 847.433 465.214 847.311 465.312 847.155C465.41 847 465.5 846.812 465.557 846.592C465.615 846.371 465.664 846.142 465.696 845.897C465.729 845.652 465.753 845.391 465.762 845.121C465.77 844.852 465.778 844.582 465.778 844.304C465.778 844.051 465.778 843.798 465.77 843.536C465.762 843.275 465.745 843.03 465.713 842.793C465.68 842.556 465.639 842.327 465.582 842.123C465.525 841.919 465.443 841.731 465.345 841.576C465.247 841.421 465.116 841.298 464.969 841.208C464.822 841.119 464.634 841.078 464.422 841.078C464.21 841.078 464.014 841.119 463.858 841.208C463.703 841.298 463.572 841.413 463.466 841.568C463.36 841.723 463.278 841.903 463.213 842.107C463.148 842.311 463.099 842.54 463.066 842.785C463.033 843.03 463.009 843.283 463.001 843.553C462.992 843.822 462.984 844.084 462.984 844.353C462.984 844.623 462.984 844.884 463.001 845.154C463.017 845.423 463.033 845.677 463.066 845.922C463.099 846.167 463.148 846.396 463.213 846.608C463.278 846.82 463.36 847 463.458 847.155C463.556 847.311 463.687 847.433 463.842 847.523C463.997 847.613 464.177 847.654 464.389 847.654H464.397Z" fill="#FF4C91"/>
<path d="M344.364 784.647V778.659L342.984 779.411V778.161L344.748 777.197H345.851V784.647H347.076V785.758H343.033V784.647H344.364Z" fill="#FF4C91"/>
<path d="M348.171 781.445C348.171 780.767 348.228 780.154 348.351 779.607C348.473 779.059 348.653 778.586 348.898 778.194C349.143 777.801 349.453 777.499 349.837 777.287C350.221 777.074 350.663 776.968 351.177 776.968C351.692 776.968 352.116 777.074 352.492 777.279C352.868 777.483 353.17 777.785 353.415 778.169C353.661 778.553 353.84 779.027 353.955 779.582C354.069 780.138 354.134 780.759 354.134 781.453C354.134 782.147 354.077 782.793 353.963 783.348C353.848 783.904 353.669 784.369 353.424 784.745C353.179 785.121 352.868 785.415 352.492 785.611C352.116 785.807 351.667 785.905 351.153 785.905C350.638 785.905 350.197 785.807 349.821 785.611C349.445 785.415 349.135 785.129 348.898 784.745C348.661 784.361 348.473 783.904 348.359 783.348C348.244 782.793 348.187 782.164 348.187 781.453L348.171 781.445ZM351.161 784.721C351.373 784.721 351.553 784.68 351.7 784.59C351.847 784.5 351.978 784.377 352.076 784.222C352.174 784.067 352.264 783.879 352.321 783.659C352.378 783.438 352.427 783.209 352.46 782.964C352.492 782.719 352.517 782.458 352.525 782.188C352.533 781.919 352.541 781.649 352.541 781.371C352.541 781.118 352.541 780.865 352.533 780.603C352.525 780.342 352.509 780.097 352.476 779.86C352.443 779.623 352.402 779.394 352.345 779.19C352.288 778.986 352.206 778.798 352.108 778.643C352.01 778.488 351.88 778.365 351.733 778.275C351.586 778.185 351.398 778.145 351.185 778.145C350.973 778.145 350.777 778.185 350.622 778.275C350.466 778.365 350.336 778.48 350.229 778.635C350.123 778.79 350.042 778.97 349.976 779.174C349.911 779.378 349.862 779.607 349.829 779.852C349.797 780.097 349.772 780.35 349.764 780.62C349.756 780.889 349.748 781.151 349.748 781.42C349.748 781.69 349.747 781.951 349.764 782.221C349.78 782.49 349.797 782.744 349.829 782.989C349.862 783.234 349.911 783.462 349.976 783.675C350.042 783.887 350.123 784.067 350.221 784.222C350.319 784.377 350.45 784.5 350.605 784.59C350.76 784.68 350.94 784.721 351.153 784.721H351.161Z" fill="#FF4C91"/>
<path d="M552.474 841.698C552.294 841.6 552.082 841.51 551.845 841.429C551.608 841.347 551.33 841.314 551.028 841.314C550.75 841.314 550.505 841.372 550.293 841.494C550.081 841.617 549.901 841.78 549.746 841.992C549.59 842.205 549.468 842.474 549.37 842.785C549.272 843.095 549.206 843.438 549.157 843.83C549.247 843.741 549.362 843.659 549.492 843.585C549.623 843.512 549.77 843.447 549.917 843.398C550.064 843.349 550.228 843.308 550.391 843.275C550.554 843.242 550.718 843.234 550.873 843.234C551.273 843.234 551.625 843.291 551.935 843.406C552.245 843.52 552.507 843.692 552.727 843.904C552.948 844.116 553.103 844.386 553.217 844.705C553.332 845.023 553.389 845.374 553.389 845.775C553.389 846.175 553.324 846.559 553.201 846.894C553.078 847.229 552.882 847.515 552.629 847.751C552.376 847.988 552.066 848.176 551.682 848.307C551.298 848.438 550.865 848.503 550.366 848.503C549.909 848.503 549.517 848.43 549.182 848.282C548.847 848.135 548.577 847.915 548.357 847.629C548.136 847.343 547.981 846.984 547.875 846.551C547.769 846.118 547.72 845.619 547.72 845.056C547.72 844.288 547.785 843.602 547.908 842.997C548.03 842.393 548.234 841.894 548.512 841.486C548.79 841.078 549.149 840.767 549.582 840.555C550.015 840.342 550.562 840.236 551.191 840.236C551.322 840.236 551.469 840.244 551.624 840.261C551.78 840.277 551.935 840.301 552.09 840.342C552.245 840.383 552.401 840.424 552.548 840.473C552.695 840.522 552.834 840.587 552.948 840.653L552.466 841.707L552.474 841.698ZM551.959 845.799C551.959 845.57 551.927 845.366 551.87 845.178C551.812 844.99 551.714 844.835 551.592 844.696C551.469 844.557 551.322 844.459 551.142 844.386C550.963 844.312 550.758 844.28 550.522 844.28C550.366 844.28 550.228 844.288 550.105 844.304C549.982 844.321 549.868 844.353 549.77 844.386C549.672 844.419 549.574 844.468 549.484 844.525C549.394 844.582 549.313 844.647 549.231 844.721C549.215 844.762 549.198 844.811 549.182 844.86C549.166 844.909 549.157 844.966 549.157 845.023C549.157 845.08 549.149 845.137 549.141 845.186C549.133 845.235 549.141 845.285 549.141 845.317C549.141 845.693 549.182 846.011 549.256 846.273C549.329 846.534 549.427 846.747 549.55 846.918C549.672 847.09 549.819 847.204 549.983 847.286C550.146 847.368 550.318 847.4 550.497 847.4C550.693 847.4 550.881 847.368 551.053 847.302C551.224 847.237 551.388 847.131 551.518 847C551.649 846.869 551.755 846.698 551.837 846.493C551.919 846.289 551.951 846.052 551.951 845.791L551.959 845.799Z" fill="#FF4C91"/>
<path d="M347.631 739.383C347.452 739.285 347.239 739.196 347.002 739.114C346.765 739.032 346.488 738.999 346.185 738.999C345.908 738.999 345.663 739.057 345.45 739.179C345.238 739.302 345.058 739.465 344.903 739.677C344.748 739.89 344.625 740.16 344.527 740.47C344.429 740.78 344.364 741.123 344.315 741.515C344.405 741.426 344.519 741.344 344.65 741.27C344.78 741.197 344.927 741.132 345.074 741.083C345.221 741.034 345.385 740.993 345.548 740.96C345.712 740.927 345.875 740.919 346.03 740.919C346.43 740.919 346.782 740.976 347.092 741.091C347.403 741.205 347.664 741.377 347.885 741.589C348.105 741.801 348.26 742.071 348.375 742.39C348.489 742.708 348.546 743.059 348.546 743.46C348.546 743.86 348.481 744.244 348.358 744.579C348.236 744.914 348.04 745.2 347.786 745.437C347.533 745.673 347.223 745.861 346.839 745.992C346.455 746.123 346.022 746.188 345.524 746.188C345.066 746.188 344.674 746.115 344.339 745.968C344.004 745.821 343.735 745.6 343.514 745.314C343.294 745.028 343.138 744.669 343.032 744.236C342.926 743.803 342.877 743.304 342.877 742.741C342.877 741.973 342.942 741.287 343.065 740.682C343.187 740.078 343.392 739.579 343.669 739.171C343.947 738.763 344.307 738.452 344.739 738.24C345.172 738.027 345.72 737.921 346.349 737.921C346.479 737.921 346.626 737.929 346.782 737.946C346.937 737.962 347.092 737.986 347.247 738.027C347.403 738.068 347.558 738.109 347.705 738.158C347.852 738.207 347.991 738.272 348.105 738.338L347.623 739.392L347.631 739.383ZM347.125 743.484C347.125 743.255 347.092 743.051 347.035 742.863C346.978 742.675 346.88 742.52 346.757 742.381C346.635 742.243 346.488 742.145 346.308 742.071C346.128 741.997 345.924 741.965 345.687 741.965C345.532 741.965 345.393 741.973 345.27 741.989C345.148 742.006 345.034 742.038 344.936 742.071C344.837 742.104 344.74 742.153 344.65 742.21C344.56 742.267 344.478 742.332 344.396 742.406C344.38 742.447 344.364 742.496 344.347 742.545C344.331 742.594 344.323 742.651 344.323 742.708C344.323 742.765 344.315 742.823 344.307 742.872C344.298 742.921 344.307 742.97 344.307 743.002C344.307 743.378 344.347 743.697 344.421 743.958C344.494 744.219 344.592 744.432 344.715 744.603C344.837 744.775 344.985 744.889 345.148 744.971C345.311 745.053 345.483 745.085 345.663 745.085C345.859 745.085 346.047 745.053 346.218 744.987C346.39 744.922 346.553 744.816 346.684 744.685C346.814 744.554 346.921 744.383 347.002 744.179C347.084 743.974 347.117 743.737 347.117 743.476L347.125 743.484Z" fill="#FF4C91"/>
<path d="M278.59 1201.77V1194.26H273.466V1191.91H278.59V1186.84H281.474V1201.77H278.59ZM275.538 1198.49L273.998 1200.76C271.282 1199.78 269.322 1197.88 268.23 1195.41C267.11 1198.21 264.982 1200.42 261.93 1201.52L260.418 1199.19C264.478 1197.82 266.69 1194.4 266.69 1190.71V1188.22H269.602V1190.57C269.602 1194.07 271.702 1197.23 275.538 1198.49ZM273.046 1209.89C276.63 1209.89 278.702 1208.96 278.702 1207.31C278.702 1205.66 276.63 1204.74 273.046 1204.74C269.462 1204.74 267.418 1205.66 267.418 1207.31C267.418 1208.96 269.462 1209.89 273.046 1209.89ZM273.046 1202.47C278.338 1202.47 281.586 1204.26 281.586 1207.31C281.586 1210.36 278.338 1212.16 273.046 1212.16C267.782 1212.16 264.534 1210.36 264.534 1207.31C264.534 1204.26 267.782 1202.47 273.046 1202.47ZM302.584 1209.52V1206.58H291.16V1209.52H302.584ZM302.584 1204.34V1201.32H305.468V1211.85H288.304V1201.32H291.16V1204.34H302.584ZM304.88 1196.98H308.352V1199.33H285.448V1196.98H302.024C302.612 1194.21 302.668 1192.14 302.668 1190.29H288.332V1187.96H305.496V1189.9C305.496 1191.86 305.496 1193.98 304.88 1196.98ZM325.318 1189.76V1192.05H310.394V1189.76H316.414V1186.87H319.298V1189.76H325.318ZM314.482 1198.02C314.482 1199.61 315.854 1200.56 317.842 1200.56C319.858 1200.56 321.23 1199.61 321.23 1198.02C321.23 1196.42 319.858 1195.47 317.842 1195.47C315.854 1195.47 314.482 1196.42 314.482 1198.02ZM323.974 1198.02C323.974 1200.9 321.482 1202.8 317.842 1202.8C314.23 1202.8 311.71 1200.9 311.71 1198.02C311.71 1195.16 314.23 1193.23 317.842 1193.23C321.482 1193.23 323.974 1195.16 323.974 1198.02ZM317.002 1204.37V1209.33H331.114V1211.68H314.09V1204.37H317.002ZM330.106 1194.94H333.69V1197.32H330.106V1205.83H327.222V1186.87H330.106V1194.94ZM361.565 1186.84V1199.7H358.681V1186.84H361.565ZM344.009 1193.4C344.009 1195.41 345.633 1196.73 347.817 1196.73C350.029 1196.73 351.681 1195.41 351.681 1193.4C351.681 1191.38 350.029 1190.06 347.817 1190.06C345.633 1190.06 344.009 1191.38 344.009 1193.4ZM354.481 1193.4C354.481 1196.73 351.653 1199.08 347.817 1199.08C344.009 1199.08 341.209 1196.73 341.209 1193.4C341.209 1190.06 344.009 1187.68 347.817 1187.68C351.653 1187.68 354.481 1190.06 354.481 1193.4ZM347.873 1209.58H362.321V1211.85H345.045V1205.21H358.709V1203.11H344.989V1200.84H361.565V1207.34H347.873V1209.58ZM375.59 1199.05V1194.88H369.402V1199.05H375.59ZM378.446 1188.69V1201.38H366.518V1188.69H369.402V1192.64H375.59V1188.69H378.446ZM372.286 1203.67V1209.33H386.398V1211.68H369.374V1203.67H372.286ZM385.39 1194.32H388.974V1196.7H385.39V1205.46H382.506V1186.9H385.39V1194.32ZM405.744 1189.78V1192.11H390.708V1189.78H396.812V1186.96H399.696V1189.78H405.744ZM394.908 1198.1C394.908 1199.64 396.28 1200.59 398.268 1200.59C400.256 1200.59 401.6 1199.64 401.6 1198.1C401.6 1196.53 400.256 1195.58 398.268 1195.58C396.28 1195.58 394.908 1196.53 394.908 1198.1ZM399.696 1202.69V1205.04C401.852 1204.93 404.008 1204.79 406.024 1204.48L406.248 1206.61C400.844 1207.56 394.992 1207.62 390.652 1207.62L390.26 1205.24C392.192 1205.24 394.46 1205.24 396.812 1205.16V1202.69C394.012 1202.22 392.192 1200.51 392.192 1198.1C392.192 1195.24 394.656 1193.37 398.268 1193.37C401.852 1193.37 404.316 1195.24 404.316 1198.1C404.316 1200.51 402.496 1202.24 399.696 1202.69ZM413.92 1197.43V1199.81H410.336V1212.16H407.452V1186.84H410.336V1197.43H413.92Z" fill="white"/>
</svg>
