<svg width="442" height="1228" viewBox="0 0 442 1228" fill="none" xmlns="http://www.w3.org/2000/svg">
<path d="M109 0H97V1132H109V0Z" fill="#4857F6"/>
<path d="M347 0H335V1098H347V0Z" fill="#4857F6"/>
<rect x="53" y="1054" width="339" height="174" fill="black"/>
<path d="M176.968 1096.65C176.968 1097.8 176.756 1098.98 176.33 1100.19C175.904 1101.39 175.259 1102.51 174.395 1103.54C173.544 1104.56 172.466 1105.38 171.164 1106.01C169.861 1106.65 168.332 1106.96 166.578 1106.96C164.166 1106.96 162.115 1106.34 160.425 1105.09C158.735 1103.82 157.445 1102.09 156.555 1099.88C155.678 1097.67 155.239 1095.15 155.239 1092.31C155.239 1089.46 155.678 1086.94 156.555 1084.75C157.445 1082.54 158.735 1080.82 160.425 1079.56C162.115 1078.31 164.166 1077.69 166.578 1077.69C168.59 1077.69 170.306 1078.1 171.725 1078.93C173.144 1079.75 174.272 1080.8 175.111 1082.08C175.949 1083.36 176.498 1084.67 176.756 1086.03C176.897 1086.71 176.968 1087.36 176.968 1087.96H173.66C173.66 1087.61 173.627 1087.21 173.563 1086.76C173.408 1085.68 173.034 1084.68 172.441 1083.76C171.86 1082.83 171.08 1082.09 170.099 1081.54C169.119 1080.97 167.945 1080.69 166.578 1080.69C164.978 1080.69 163.579 1081.12 162.379 1082C161.192 1082.88 160.264 1084.18 159.593 1085.91C158.935 1087.64 158.606 1089.77 158.606 1092.31C158.606 1094.86 158.935 1097 159.593 1098.74C160.264 1100.47 161.192 1101.78 162.379 1102.67C163.579 1103.54 164.978 1103.98 166.578 1103.98C167.726 1103.98 168.739 1103.78 169.616 1103.36C170.493 1102.94 171.228 1102.38 171.822 1101.68C172.428 1100.97 172.886 1100.18 173.195 1099.32C173.505 1098.44 173.66 1097.55 173.66 1096.65H176.968ZM180.9 1106.58V1086.03H184.151V1106.58H180.9ZM182.545 1081.31C181.939 1081.31 181.41 1081.14 180.958 1080.8C180.52 1080.45 180.301 1079.98 180.301 1079.39C180.301 1078.81 180.52 1078.35 180.958 1078.02C181.41 1077.67 181.939 1077.49 182.545 1077.49C183.151 1077.49 183.674 1077.67 184.112 1078.02C184.551 1078.35 184.77 1078.81 184.77 1079.39C184.77 1079.98 184.551 1080.45 184.112 1080.8C183.674 1081.14 183.151 1081.31 182.545 1081.31ZM189.107 1106.58V1086.03H192.396V1092.33L191.313 1091.95C191.39 1091.19 191.584 1090.44 191.893 1089.7C192.203 1088.95 192.629 1088.28 193.17 1087.69C193.725 1087.08 194.415 1086.61 195.241 1086.26C196.066 1085.9 197.034 1085.72 198.143 1085.72C198.969 1085.72 199.639 1085.79 200.155 1085.93C200.684 1086.06 201.013 1086.16 201.142 1086.24L200.291 1089.47C200.162 1089.38 199.897 1089.26 199.498 1089.12C199.111 1088.98 198.556 1088.91 197.834 1088.91C196.763 1088.91 195.873 1089.1 195.163 1089.49C194.467 1089.88 193.912 1090.39 193.499 1091.04C193.1 1091.67 192.816 1092.36 192.648 1093.11C192.48 1093.86 192.396 1094.6 192.396 1095.33V1106.58H189.107ZM212.89 1106.96C210.929 1106.96 209.149 1106.54 207.55 1105.69C205.95 1104.82 204.68 1103.59 203.738 1101.99C202.809 1100.39 202.345 1098.49 202.345 1096.28C202.345 1094.08 202.809 1092.19 203.738 1090.61C204.68 1089.03 205.95 1087.81 207.55 1086.97C209.149 1086.14 210.929 1085.72 212.89 1085.72C214.386 1085.72 215.722 1085.95 216.895 1086.41C218.069 1086.86 219.062 1087.47 219.875 1088.23C220.688 1088.99 221.307 1089.83 221.733 1090.75C222.171 1091.65 222.391 1092.55 222.391 1093.46C222.391 1093.47 222.391 1093.49 222.391 1093.51C222.391 1093.54 222.391 1093.57 222.391 1093.59H219.121C219.121 1093.53 219.114 1093.46 219.101 1093.38C219.088 1093.29 219.075 1093.2 219.062 1093.11C218.959 1092.24 218.63 1091.49 218.076 1090.84C217.521 1090.19 216.799 1089.67 215.909 1089.3C215.019 1088.92 214.006 1088.74 212.871 1088.74C211.594 1088.74 210.407 1089.01 209.311 1089.57C208.227 1090.11 207.35 1090.94 206.679 1092.06C206.021 1093.17 205.692 1094.58 205.692 1096.28C205.692 1097.97 206.021 1099.38 206.679 1100.52C207.337 1101.65 208.208 1102.51 209.291 1103.09C210.388 1103.66 211.581 1103.94 212.871 1103.94C214.264 1103.94 215.412 1103.72 216.315 1103.29C217.218 1102.85 217.895 1102.27 218.347 1101.54C218.811 1100.81 219.069 1100.02 219.121 1099.18H222.391C222.391 1100.11 222.184 1101.04 221.771 1101.97C221.359 1102.89 220.752 1103.72 219.953 1104.49C219.153 1105.23 218.16 1105.83 216.973 1106.28C215.799 1106.74 214.438 1106.96 212.89 1106.96ZM233.937 1106.94C232.467 1106.94 231.241 1106.69 230.261 1106.19C229.281 1105.67 228.5 1105.01 227.92 1104.2C227.352 1103.38 226.946 1102.51 226.701 1101.56C226.469 1100.61 226.353 1099.69 226.353 1098.82C226.353 1098.33 226.353 1097.82 226.353 1097.31C226.353 1096.78 226.353 1096.25 226.353 1095.72V1086.03H229.661V1095.29C229.661 1095.77 229.661 1096.24 229.661 1096.71C229.661 1097.17 229.661 1097.61 229.661 1098.02C229.661 1099.07 229.803 1100.04 230.087 1100.93C230.384 1101.82 230.893 1102.54 231.615 1103.09C232.338 1103.63 233.331 1103.91 234.595 1103.91C235.782 1103.91 236.82 1103.55 237.71 1102.84C238.6 1102.12 239.297 1101.22 239.8 1100.15C240.303 1099.07 240.555 1097.99 240.555 1096.92L242.47 1097.71C242.47 1098.85 242.27 1099.96 241.87 1101.06C241.471 1102.14 240.897 1103.13 240.148 1104.02C239.413 1104.91 238.517 1105.62 237.459 1106.15C236.414 1106.68 235.24 1106.94 233.937 1106.94ZM240.555 1106.58V1086.03H243.844V1106.58H240.555ZM251.936 1076.33V1106.58H248.686V1076.33H251.936ZM263.974 1106.96C262.413 1106.96 261.046 1106.72 259.872 1106.23C258.711 1105.74 257.808 1105.03 257.163 1104.12C256.518 1103.19 256.196 1102.08 256.196 1100.79C256.196 1099.45 256.544 1098.33 257.241 1097.44C257.937 1096.54 258.917 1095.84 260.182 1095.33C261.446 1094.83 262.916 1094.49 264.593 1094.33C267.121 1094.07 268.921 1093.82 269.992 1093.57C271.062 1093.31 271.597 1092.9 271.597 1092.33C271.597 1092.32 271.597 1092.31 271.597 1092.31C271.597 1092.3 271.597 1092.29 271.597 1092.28C271.597 1091.09 271.114 1090.21 270.146 1089.63C269.179 1089.03 267.779 1088.74 265.948 1088.74C264.038 1088.74 262.555 1089.07 261.497 1089.74C260.44 1090.4 259.911 1091.47 259.911 1092.95H256.66C256.66 1091.42 257.053 1090.12 257.84 1089.04C258.627 1087.96 259.717 1087.14 261.11 1086.57C262.516 1086 264.135 1085.72 265.967 1085.72C267.644 1085.72 269.153 1085.97 270.495 1086.49C271.849 1086.99 272.92 1087.75 273.707 1088.75C274.506 1089.75 274.906 1090.98 274.906 1092.45C274.906 1092.72 274.906 1092.99 274.906 1093.26C274.906 1093.52 274.906 1093.79 274.906 1094.06V1102.71C274.906 1103.16 274.926 1103.6 274.964 1104.02C275.003 1104.45 275.067 1104.82 275.158 1105.14C275.274 1105.53 275.403 1105.85 275.545 1106.09C275.687 1106.32 275.803 1106.48 275.893 1106.58H272.584C272.52 1106.51 272.423 1106.36 272.294 1106.13C272.165 1105.89 272.043 1105.6 271.926 1105.28C271.836 1105.02 271.765 1104.7 271.714 1104.31C271.662 1103.91 271.636 1103.5 271.636 1103.07L272.178 1103.44C271.778 1104.14 271.191 1104.75 270.417 1105.28C269.656 1105.81 268.734 1106.22 267.65 1106.52C266.567 1106.81 265.341 1106.96 263.974 1106.96ZM264.496 1104C265.825 1104 267.025 1103.8 268.095 1103.4C269.166 1102.99 270.017 1102.38 270.649 1101.58C271.281 1100.78 271.597 1099.79 271.597 1098.6V1094.52L272.333 1095.76C271.507 1096.08 270.475 1096.35 269.237 1096.55C268.011 1096.75 266.728 1096.91 265.386 1097.04C263.439 1097.22 261.968 1097.56 260.975 1098.06C259.995 1098.56 259.504 1099.41 259.504 1100.6C259.504 1101.72 259.911 1102.57 260.723 1103.15C261.536 1103.72 262.794 1104 264.496 1104ZM279.216 1106.58V1086.03H282.506V1092.33L281.422 1091.95C281.499 1091.19 281.693 1090.44 282.002 1089.7C282.312 1088.95 282.738 1088.28 283.279 1087.69C283.834 1087.08 284.524 1086.61 285.35 1086.26C286.175 1085.9 287.143 1085.72 288.252 1085.72C289.078 1085.72 289.748 1085.79 290.264 1085.93C290.793 1086.06 291.122 1086.16 291.251 1086.24L290.4 1089.47C290.271 1089.38 290.006 1089.26 289.607 1089.12C289.22 1088.98 288.665 1088.91 287.943 1088.91C286.872 1088.91 285.982 1089.1 285.272 1089.49C284.576 1089.88 284.021 1090.39 283.608 1091.04C283.209 1091.67 282.925 1092.36 282.757 1093.11C282.589 1093.86 282.506 1094.6 282.506 1095.33V1106.58H279.216ZM130.272 1154.58V1126.04H140.179C142.798 1126.04 144.791 1126.65 146.158 1127.89C147.525 1129.13 148.209 1131.02 148.209 1133.56C148.209 1135.08 147.919 1136.38 147.338 1137.45C146.771 1138.51 146.081 1139.33 145.268 1139.91C144.468 1140.49 143.726 1140.82 143.043 1140.9C143.739 1140.95 144.423 1141.14 145.094 1141.48C145.777 1141.8 146.345 1142.3 146.796 1142.99C147.248 1143.67 147.474 1144.58 147.474 1145.73C147.474 1146.79 147.474 1147.87 147.474 1148.98C147.474 1150.08 147.474 1151.16 147.474 1152.23C147.474 1152.79 147.519 1153.29 147.609 1153.72C147.699 1154.15 147.803 1154.43 147.919 1154.58H144.591C144.5 1154.41 144.41 1154.12 144.32 1153.7C144.229 1153.29 144.184 1152.8 144.184 1152.23C144.184 1151.24 144.184 1150.23 144.184 1149.2C144.184 1148.16 144.184 1147.15 144.184 1146.14C144.184 1144.87 143.784 1143.93 142.985 1143.31C142.185 1142.69 141.056 1142.39 139.599 1142.39H132.575L133.504 1141.13V1154.58H130.272ZM133.504 1140.86L132.575 1139.48H139.637C140.592 1139.48 141.456 1139.25 142.23 1138.79C143.017 1138.31 143.643 1137.65 144.107 1136.81C144.584 1135.96 144.823 1134.97 144.823 1133.83C144.823 1132.07 144.358 1130.81 143.43 1130.06C142.501 1129.31 141.159 1128.94 139.405 1128.94H132.498L133.504 1127.51V1140.86ZM153.423 1145.62V1142.68H169.308L168.728 1143.64C168.728 1143.57 168.728 1143.49 168.728 1143.43C168.728 1143.35 168.728 1143.28 168.728 1143.22C168.728 1142.03 168.476 1140.95 167.973 1139.97C167.483 1138.97 166.748 1138.18 165.767 1137.59C164.787 1136.99 163.574 1136.7 162.13 1136.7C160.672 1136.7 159.389 1137.01 158.279 1137.63C157.17 1138.24 156.306 1139.12 155.686 1140.26C155.067 1141.38 154.758 1142.72 154.758 1144.28C154.758 1145.87 155.054 1147.24 155.648 1148.38C156.254 1149.53 157.112 1150.42 158.221 1151.03C159.33 1151.65 160.646 1151.96 162.168 1151.96C163.252 1151.96 164.194 1151.85 164.993 1151.63C165.793 1151.4 166.451 1151.1 166.967 1150.72C167.496 1150.34 167.896 1149.92 168.167 1149.47C168.437 1149.02 168.599 1148.56 168.65 1148.11H171.94C171.875 1148.94 171.617 1149.76 171.166 1150.57C170.714 1151.38 170.076 1152.12 169.25 1152.8C168.425 1153.45 167.412 1153.98 166.212 1154.38C165.013 1154.78 163.632 1154.98 162.072 1154.98C160.008 1154.98 158.189 1154.53 156.615 1153.63C155.041 1152.72 153.803 1151.47 152.9 1149.87C152.01 1148.27 151.565 1146.44 151.565 1144.36C151.565 1142.26 152.017 1140.41 152.919 1138.83C153.822 1137.23 155.067 1135.97 156.654 1135.07C158.24 1134.17 160.053 1133.72 162.091 1133.72C164.168 1133.72 165.967 1134.17 167.489 1135.07C169.011 1135.97 170.185 1137.21 171.011 1138.79C171.836 1140.35 172.249 1142.13 172.249 1144.13C172.249 1144.33 172.243 1144.6 172.23 1144.94C172.217 1145.27 172.198 1145.5 172.172 1145.62H153.423ZM183.394 1154.96C181.833 1154.96 180.465 1154.72 179.292 1154.23C178.131 1153.74 177.228 1153.03 176.583 1152.12C175.938 1151.19 175.615 1150.08 175.615 1148.79C175.615 1147.45 175.964 1146.33 176.66 1145.44C177.357 1144.54 178.337 1143.84 179.601 1143.33C180.865 1142.83 182.336 1142.49 184.013 1142.33C186.541 1142.07 188.341 1141.82 189.411 1141.57C190.482 1141.31 191.017 1140.9 191.017 1140.33C191.017 1140.32 191.017 1140.31 191.017 1140.31C191.017 1140.3 191.017 1140.29 191.017 1140.28C191.017 1139.09 190.533 1138.21 189.566 1137.63C188.598 1137.03 187.199 1136.74 185.367 1136.74C183.458 1136.74 181.975 1137.07 180.917 1137.74C179.859 1138.4 179.33 1139.47 179.33 1140.95H176.08C176.08 1139.42 176.473 1138.12 177.26 1137.04C178.047 1135.96 179.137 1135.14 180.53 1134.57C181.936 1134 183.555 1133.72 185.387 1133.72C187.063 1133.72 188.573 1133.97 189.914 1134.49C191.269 1134.99 192.339 1135.75 193.126 1136.75C193.926 1137.75 194.326 1138.98 194.326 1140.45C194.326 1140.72 194.326 1140.99 194.326 1141.26C194.326 1141.52 194.326 1141.79 194.326 1142.06V1150.71C194.326 1151.16 194.345 1151.6 194.384 1152.02C194.423 1152.45 194.487 1152.82 194.577 1153.14C194.693 1153.53 194.822 1153.85 194.964 1154.09C195.106 1154.32 195.222 1154.48 195.313 1154.58H192.004C191.939 1154.51 191.843 1154.36 191.714 1154.13C191.585 1153.89 191.462 1153.6 191.346 1153.28C191.256 1153.02 191.185 1152.7 191.133 1152.31C191.082 1151.91 191.056 1151.5 191.056 1151.07L191.598 1151.44C191.198 1152.14 190.611 1152.75 189.837 1153.28C189.076 1153.81 188.153 1154.22 187.07 1154.52C185.986 1154.81 184.761 1154.96 183.394 1154.96ZM183.916 1152C185.245 1152 186.444 1151.8 187.515 1151.4C188.586 1150.99 189.437 1150.38 190.069 1149.58C190.701 1148.78 191.017 1147.79 191.017 1146.6V1142.52L191.752 1143.76C190.927 1144.08 189.895 1144.35 188.657 1144.55C187.431 1144.75 186.148 1144.91 184.806 1145.04C182.858 1145.22 181.388 1145.56 180.395 1146.06C179.414 1146.56 178.924 1147.41 178.924 1148.6C178.924 1149.72 179.33 1150.57 180.143 1151.15C180.956 1151.72 182.213 1152 183.916 1152ZM206.492 1154.96C205.253 1154.96 204.105 1154.83 203.047 1154.58C202.003 1154.3 201.087 1153.92 200.3 1153.41C199.526 1152.9 198.92 1152.27 198.481 1151.52C198.055 1150.77 197.842 1149.91 197.842 1148.94C197.842 1148.84 197.842 1148.74 197.842 1148.64C197.842 1148.52 197.842 1148.42 197.842 1148.34H201.151C201.151 1148.42 201.151 1148.49 201.151 1148.54C201.151 1148.59 201.151 1148.67 201.151 1148.77C201.151 1149.82 201.635 1150.62 202.602 1151.17C203.57 1151.71 204.892 1151.98 206.569 1151.98C207.601 1151.98 208.523 1151.88 209.336 1151.67C210.148 1151.47 210.787 1151.15 211.251 1150.72C211.729 1150.3 211.967 1149.76 211.967 1149.12C211.967 1148.05 211.464 1147.29 210.458 1146.84C209.465 1146.37 207.975 1145.97 205.988 1145.64C204.944 1145.46 203.95 1145.22 203.009 1144.94C202.067 1144.64 201.229 1144.26 200.493 1143.8C199.771 1143.33 199.197 1142.76 198.771 1142.08C198.358 1141.38 198.152 1140.55 198.152 1139.58C198.152 1138.33 198.52 1137.27 199.255 1136.41C200.003 1135.53 201.009 1134.86 202.273 1134.41C203.538 1133.95 204.944 1133.72 206.492 1133.72C207.988 1133.72 209.368 1133.96 210.632 1134.43C211.896 1134.91 212.909 1135.61 213.67 1136.52C214.444 1137.43 214.831 1138.54 214.831 1139.87C214.831 1139.92 214.831 1139.99 214.831 1140.06C214.831 1140.13 214.831 1140.19 214.831 1140.26H211.542C211.542 1140.19 211.542 1140.14 211.542 1140.1C211.542 1140.06 211.542 1140.02 211.542 1139.97C211.542 1139.22 211.303 1138.61 210.826 1138.13C210.348 1137.64 209.729 1137.28 208.968 1137.04C208.207 1136.8 207.394 1136.68 206.53 1136.68C205.718 1136.68 204.918 1136.77 204.131 1136.95C203.344 1137.12 202.693 1137.4 202.177 1137.8C201.661 1138.2 201.403 1138.75 201.403 1139.44C201.403 1140.14 201.641 1140.7 202.119 1141.13C202.609 1141.54 203.292 1141.88 204.17 1142.15C205.06 1142.41 206.105 1142.65 207.304 1142.87C208.375 1143.06 209.387 1143.31 210.342 1143.6C211.297 1143.89 212.135 1144.26 212.857 1144.71C213.593 1145.16 214.167 1145.73 214.579 1146.43C215.005 1147.11 215.218 1147.95 215.218 1148.94C215.218 1149.95 214.986 1150.83 214.521 1151.58C214.07 1152.32 213.438 1152.95 212.625 1153.45C211.825 1153.96 210.897 1154.33 209.839 1154.58C208.794 1154.83 207.678 1154.96 206.492 1154.96ZM228.899 1154.94C226.836 1154.94 225.01 1154.48 223.424 1153.57C221.85 1152.64 220.612 1151.38 219.709 1149.78C218.819 1148.16 218.374 1146.33 218.374 1144.28C218.374 1142.23 218.819 1140.41 219.709 1138.83C220.612 1137.24 221.85 1135.99 223.424 1135.09C225.01 1134.19 226.836 1133.74 228.899 1133.74C230.963 1133.74 232.782 1134.19 234.356 1135.09C235.943 1135.99 237.181 1137.24 238.071 1138.83C238.974 1140.41 239.425 1142.23 239.425 1144.28C239.425 1146.33 238.974 1148.16 238.071 1149.78C237.181 1151.38 235.943 1152.64 234.356 1153.57C232.782 1154.48 230.963 1154.94 228.899 1154.94ZM228.899 1151.92C230.318 1151.92 231.57 1151.61 232.653 1150.98C233.737 1150.34 234.582 1149.45 235.188 1148.31C235.807 1147.16 236.117 1145.82 236.117 1144.28C236.117 1142.75 235.807 1141.42 235.188 1140.3C234.582 1139.16 233.737 1138.29 232.653 1137.68C231.57 1137.06 230.318 1136.75 228.899 1136.75C227.493 1136.75 226.242 1137.06 225.146 1137.68C224.062 1138.29 223.211 1139.16 222.592 1140.3C221.985 1141.42 221.682 1142.75 221.682 1144.28C221.682 1145.82 221.985 1147.16 222.592 1148.31C223.211 1149.45 224.062 1150.34 225.146 1150.98C226.242 1151.61 227.493 1151.92 228.899 1151.92ZM258.107 1154.58V1144.73C258.107 1144.13 258.107 1143.65 258.107 1143.28C258.107 1142.89 258.107 1142.52 258.107 1142.17C258.107 1141.1 257.926 1140.17 257.565 1139.37C257.204 1138.57 256.636 1137.95 255.862 1137.51C255.088 1137.07 254.076 1136.85 252.825 1136.85C251.728 1136.85 250.709 1137.14 249.767 1137.7C248.839 1138.26 248.09 1139.01 247.523 1139.97C246.968 1140.91 246.691 1141.97 246.691 1143.14L244.814 1142.42C244.814 1140.81 245.207 1139.35 245.994 1138.03C246.794 1136.72 247.852 1135.67 249.168 1134.9C250.496 1134.11 251.941 1133.72 253.502 1133.72C255.088 1133.72 256.475 1134.02 257.662 1134.63C258.849 1135.23 259.764 1136.1 260.409 1137.24C261.067 1138.36 261.396 1139.72 261.396 1141.3C261.396 1141.87 261.396 1142.49 261.396 1143.16C261.396 1143.83 261.396 1144.46 261.396 1145.04V1154.58H258.107ZM243.402 1154.58V1134.03H246.691V1154.58H243.402ZM266.167 1154.58V1134.03H269.418V1154.58H266.167ZM267.812 1129.31C267.205 1129.31 266.676 1129.14 266.225 1128.8C265.786 1128.45 265.567 1127.98 265.567 1127.39C265.567 1126.81 265.786 1126.35 266.225 1126.02C266.676 1125.67 267.205 1125.49 267.812 1125.49C268.418 1125.49 268.94 1125.67 269.379 1126.02C269.817 1126.35 270.037 1126.81 270.037 1127.39C270.037 1127.98 269.817 1128.45 269.379 1128.8C268.94 1129.14 268.418 1129.31 267.812 1129.31ZM289.079 1154.58V1144.73C289.079 1144.13 289.079 1143.65 289.079 1143.28C289.079 1142.89 289.079 1142.52 289.079 1142.17C289.079 1141.1 288.898 1140.17 288.537 1139.37C288.176 1138.57 287.608 1137.95 286.834 1137.51C286.06 1137.07 285.048 1136.85 283.797 1136.85C282.7 1136.85 281.681 1137.14 280.739 1137.7C279.811 1138.26 279.063 1139.01 278.495 1139.97C277.94 1140.91 277.663 1141.97 277.663 1143.14L275.786 1142.42C275.786 1140.81 276.18 1139.35 276.966 1138.03C277.766 1136.72 278.824 1135.67 280.14 1134.9C281.468 1134.11 282.913 1133.72 284.474 1133.72C286.06 1133.72 287.447 1134.02 288.634 1134.63C289.821 1135.23 290.736 1136.1 291.381 1137.24C292.039 1138.36 292.368 1139.72 292.368 1141.3C292.368 1141.87 292.368 1142.49 292.368 1143.16C292.368 1143.83 292.368 1144.46 292.368 1145.04V1154.58H289.079ZM274.374 1154.58V1134.03H277.663V1154.58H274.374ZM310.064 1153.32C311.173 1153.41 312.147 1153.61 312.986 1153.94C313.837 1154.25 314.501 1154.7 314.979 1155.31C315.456 1155.93 315.695 1156.74 315.695 1157.73C315.695 1158.83 315.321 1159.79 314.572 1160.63C313.824 1161.48 312.689 1162.15 311.167 1162.62C309.645 1163.1 307.729 1163.34 305.42 1163.34C302.157 1163.34 299.693 1162.86 298.029 1161.91C296.365 1160.97 295.533 1159.68 295.533 1158.04C295.533 1157.52 295.591 1157.06 295.707 1156.66C295.836 1156.28 295.978 1155.96 296.133 1155.72L299.267 1156.18C299.164 1156.32 299.061 1156.54 298.958 1156.82C298.867 1157.12 298.822 1157.46 298.822 1157.85C298.822 1158.88 299.409 1159.6 300.583 1160.01C301.757 1160.44 303.421 1160.65 305.575 1160.65C307.188 1160.65 308.51 1160.54 309.542 1160.32C310.574 1160.1 311.341 1159.79 311.844 1159.37C312.347 1158.96 312.599 1158.48 312.599 1157.92C312.599 1157.08 312.244 1156.56 311.535 1156.36C310.838 1156.16 309.974 1156.03 308.942 1155.95L301.125 1155.37C299.822 1155.27 298.758 1154.87 297.932 1154.17C297.12 1153.46 296.713 1152.6 296.713 1151.6C296.713 1150.98 296.862 1150.39 297.158 1149.83C297.468 1149.28 297.823 1148.82 298.222 1148.44C298.635 1148.05 299.003 1147.82 299.325 1147.74L301.918 1148.93C301.596 1148.98 301.196 1149.2 300.719 1149.6C300.254 1149.99 300.022 1150.45 300.022 1150.98C300.022 1151.45 300.209 1151.85 300.583 1152.16C300.957 1152.45 301.699 1152.65 302.808 1152.74L310.064 1153.32ZM312.908 1134.03H316.004L314.727 1142.11C314.495 1143.62 314.011 1144.99 313.276 1146.22C312.541 1147.43 311.535 1148.4 310.258 1149.12C308.993 1149.83 307.426 1150.18 305.556 1150.18C303.608 1150.18 301.944 1149.83 300.564 1149.12C299.183 1148.41 298.126 1147.44 297.39 1146.22C296.655 1144.98 296.288 1143.58 296.288 1142.04C296.288 1140.46 296.668 1139.05 297.429 1137.8C298.203 1136.54 299.274 1135.54 300.641 1134.82C302.008 1134.08 303.576 1133.72 305.343 1133.72C306.93 1133.72 308.316 1133.99 309.503 1134.55C310.69 1135.09 311.625 1135.77 312.309 1136.6C313.005 1137.43 313.392 1138.26 313.47 1139.1L312.231 1139.17L312.908 1134.03ZM305.536 1147.24C306.788 1147.24 307.858 1147.04 308.748 1146.62C309.651 1146.21 310.341 1145.61 310.819 1144.82C311.309 1144.04 311.554 1143.08 311.554 1141.96C311.554 1140.88 311.309 1139.94 310.819 1139.15C310.341 1138.35 309.651 1137.74 308.748 1137.32C307.858 1136.88 306.794 1136.66 305.556 1136.66C304.369 1136.66 303.318 1136.88 302.402 1137.34C301.499 1137.77 300.789 1138.39 300.273 1139.19C299.77 1139.99 299.519 1140.93 299.519 1142.02C299.519 1143.11 299.758 1144.06 300.235 1144.84C300.725 1145.62 301.415 1146.21 302.305 1146.62C303.208 1147.04 304.285 1147.24 305.536 1147.24Z" fill="white"/>
<path d="M195.26 1186.41L194.168 1188.68C190.108 1188.06 186.72 1186.02 185.096 1183.25C183.5 1186.05 180.14 1188.12 176.052 1188.76L174.932 1186.47C179.916 1185.77 183.612 1182.74 183.612 1179.55V1178.52H186.58V1179.55C186.58 1182.66 190.304 1185.71 195.26 1186.41ZM179.328 1195.32V1200.33H194.028V1202.68H176.444V1195.32H179.328ZM173.644 1190.56H196.576V1192.88H186.776V1197.61H183.892V1192.88H173.644V1190.56ZM213.458 1180.14V1182.27H199.01V1180.14H204.806V1177.76H207.718V1180.14H213.458ZM202.93 1187.06C202.93 1188.23 204.218 1188.93 206.234 1188.93C208.25 1188.93 209.538 1188.23 209.538 1187.06C209.538 1185.85 208.25 1185.12 206.234 1185.12C204.218 1185.12 202.93 1185.85 202.93 1187.06ZM214.158 1191.82L214.382 1193.8C209.09 1194.81 203.07 1194.92 198.702 1194.95L198.366 1192.66C200.242 1192.66 202.482 1192.63 204.806 1192.57V1190.84C201.978 1190.5 200.214 1189.13 200.214 1187.06C200.214 1184.65 202.594 1183.16 206.234 1183.16C209.874 1183.16 212.254 1184.65 212.254 1187.06C212.254 1189.1 210.518 1190.5 207.718 1190.84V1192.43C209.902 1192.29 212.114 1192.12 214.158 1191.82ZM204.918 1196.38V1200.33H219.226V1202.68H202.034V1196.38H204.918ZM218.386 1186.44H221.858V1188.82H218.386V1197.64H215.502V1177.84H218.386V1186.44ZM229.192 1195.01V1200.33H243.976V1202.68H226.336V1195.01H229.192ZM236.388 1190.84H246.384V1193.19H223.508V1190.84H233.504V1187.48H226.476V1178.71H229.36V1185.15H243.78V1187.48H236.388V1190.84ZM266.486 1200.5V1197.84H255.79V1200.5H266.486ZM266.486 1195.57V1192.88H269.37V1202.82H252.934V1192.88H255.79V1195.57H266.486ZM258.394 1188.51V1184.96H252.43V1188.51H258.394ZM266.486 1177.84L269.37 1177.87V1191.73H266.486V1186.24H261.222V1190.86H249.574V1179.13H252.43V1182.72H258.394V1179.16H261.222V1183.89H266.486V1177.84Z" fill="white"/>
<path d="M283.438 590.968H158.821C74.9741 590.968 7.00245 658.939 7.00245 742.787V780.511C7.00245 864.358 74.9741 932.33 158.821 932.33H283.438C367.285 932.33 435.257 864.358 435.257 780.511V742.787C435.257 658.939 367.285 590.968 283.438 590.968Z" fill="#4857F6" stroke="#FF4C91" stroke-width="13" stroke-miterlimit="10"/>
<path d="M283.438 631.812H158.821C97.532 631.812 47.847 681.497 47.847 742.787V780.511C47.847 841.8 97.532 891.485 158.821 891.485H283.438C344.728 891.485 394.413 841.8 394.413 780.511V742.787C394.413 681.497 344.728 631.812 283.438 631.812Z" fill="#4857F6" stroke="#FF4C91" stroke-width="2.2" stroke-miterlimit="10"/>
<path d="M283.438 672.656H158.821C120.09 672.656 88.6914 704.055 88.6914 742.787V780.51C88.6914 819.242 120.09 850.64 158.821 850.64H283.438C322.17 850.64 353.568 819.242 353.568 780.51V742.787C353.568 704.055 322.17 672.656 283.438 672.656Z" fill="#4857F6" stroke="#FF4C91" stroke-width="2.2" stroke-miterlimit="10"/>
<path d="M7.00245 760.995H435.249" stroke="#FF4C91" stroke-width="2" stroke-miterlimit="10"/>
<path d="M286.697 478L176.989 566.208L286.697 654.416V597.634C286.697 597.634 481.199 595.232 390.516 760.979C390.516 760.979 454.772 716.54 436.156 621.054C417.539 525.568 296.982 535.174 286.697 535.174V478Z" fill="#FF4C91"/>
<path d="M159.843 1044.64L269.551 956.428L159.843 868.22V925.002C159.843 925.002 -34.6589 927.404 56.0241 761.657C56.0241 761.657 -8.23245 806.096 10.3845 901.582C29.0014 997.068 149.558 987.461 159.843 987.461V1044.65V1044.64Z" fill="#FF4C91"/>
<path d="M319.202 773.02V767.032L317.821 767.784V766.534L319.585 765.57H320.688V773.02H321.914V774.131H317.87V773.02H319.202Z" fill="#FF4C91"/>
<path d="M323.008 769.818C323.008 769.14 323.066 768.527 323.188 767.98C323.311 767.433 323.49 766.959 323.735 766.567C323.98 766.175 324.291 765.872 324.675 765.66C325.059 765.447 325.5 765.341 326.014 765.341C326.529 765.341 326.954 765.447 327.33 765.652C327.705 765.856 328.008 766.158 328.253 766.542C328.498 766.926 328.677 767.4 328.792 767.955C328.906 768.511 328.972 769.132 328.972 769.826C328.972 770.52 328.914 771.166 328.8 771.721C328.686 772.277 328.506 772.742 328.261 773.118C328.016 773.494 327.705 773.788 327.33 773.984C326.954 774.18 326.505 774.278 325.99 774.278C325.475 774.278 325.034 774.18 324.658 773.984C324.283 773.788 323.972 773.502 323.735 773.118C323.498 772.734 323.311 772.277 323.196 771.721C323.082 771.166 323.025 770.537 323.025 769.826L323.008 769.818ZM325.998 773.102C326.211 773.102 326.39 773.061 326.537 772.971C326.684 772.881 326.815 772.759 326.913 772.603C327.011 772.448 327.101 772.26 327.158 772.04C327.215 771.819 327.264 771.59 327.297 771.345C327.33 771.1 327.354 770.839 327.362 770.569C327.37 770.3 327.379 770.03 327.379 769.753C327.379 769.499 327.379 769.246 327.37 768.985C327.362 768.723 327.346 768.478 327.313 768.241C327.281 768.004 327.24 767.776 327.183 767.571C327.125 767.367 327.044 767.179 326.946 767.024C326.848 766.869 326.717 766.746 326.57 766.656C326.423 766.567 326.235 766.526 326.023 766.526C325.81 766.526 325.614 766.567 325.459 766.656C325.304 766.746 325.173 766.861 325.067 767.016C324.961 767.171 324.879 767.351 324.814 767.555C324.748 767.759 324.699 767.988 324.666 768.233C324.634 768.478 324.609 768.731 324.601 769.001C324.593 769.271 324.585 769.532 324.585 769.802C324.585 770.071 324.585 770.332 324.601 770.602C324.618 770.872 324.634 771.125 324.666 771.37C324.699 771.615 324.748 771.844 324.814 772.056C324.879 772.269 324.961 772.448 325.059 772.603C325.157 772.759 325.287 772.881 325.443 772.971C325.598 773.061 325.778 773.102 325.99 773.102H325.998Z" fill="#FF4C91"/>
<path d="M227.334 707.031V701.044L225.953 701.795V700.545L227.718 699.581H228.821V707.031H230.046V708.142H226.002V707.031H227.334Z" fill="#FF4C91"/>
<path d="M231.141 703.829C231.141 703.151 231.198 702.539 231.32 701.991C231.443 701.444 231.623 700.97 231.868 700.578C232.113 700.186 232.423 699.884 232.807 699.671C233.191 699.459 233.632 699.353 234.147 699.353C234.661 699.353 235.086 699.459 235.462 699.663C235.838 699.867 236.14 700.17 236.385 700.554C236.63 700.938 236.81 701.411 236.924 701.967C237.039 702.522 237.104 703.143 237.104 703.838C237.104 704.532 237.047 705.177 236.932 705.733C236.818 706.288 236.638 706.754 236.393 707.13C236.148 707.505 235.838 707.799 235.462 707.995C235.086 708.192 234.637 708.29 234.122 708.29C233.608 708.29 233.166 708.192 232.791 707.995C232.415 707.799 232.105 707.514 231.868 707.13C231.631 706.746 231.443 706.288 231.329 705.733C231.214 705.177 231.157 704.548 231.157 703.838L231.141 703.829ZM234.13 707.105C234.343 707.105 234.523 707.064 234.67 706.974C234.817 706.884 234.947 706.762 235.045 706.607C235.143 706.452 235.233 706.264 235.29 706.043C235.348 705.823 235.397 705.594 235.429 705.349C235.462 705.104 235.487 704.842 235.495 704.573C235.503 704.303 235.511 704.034 235.511 703.756C235.511 703.503 235.511 703.249 235.503 702.988C235.495 702.727 235.478 702.481 235.446 702.245C235.413 702.008 235.372 701.779 235.315 701.575C235.258 701.37 235.176 701.183 235.078 701.027C234.98 700.872 234.849 700.75 234.702 700.66C234.555 700.57 234.367 700.529 234.155 700.529C233.943 700.529 233.747 700.57 233.591 700.66C233.436 700.75 233.305 700.864 233.199 701.019C233.093 701.174 233.011 701.354 232.946 701.558C232.881 701.763 232.832 701.991 232.799 702.236C232.766 702.481 232.742 702.735 232.734 703.004C232.725 703.274 232.717 703.535 232.717 703.805C232.717 704.074 232.717 704.336 232.734 704.605C232.75 704.875 232.766 705.128 232.799 705.373C232.832 705.618 232.881 705.847 232.946 706.059C233.011 706.272 233.093 706.452 233.191 706.607C233.289 706.762 233.42 706.884 233.575 706.974C233.73 707.064 233.91 707.105 234.122 707.105H234.13Z" fill="#FF4C91"/>
<path d="M400.719 769.041C401.103 769.041 401.43 769.009 401.699 768.935C401.969 768.862 402.189 768.772 402.361 768.641C402.533 768.51 402.655 768.363 402.737 768.184C402.818 768.004 402.851 767.8 402.851 767.579C402.851 767.261 402.761 767.015 402.59 766.836C402.418 766.656 402.132 766.558 401.74 766.558C401.528 766.558 401.34 766.583 401.168 766.623C400.997 766.664 400.842 766.721 400.703 766.787C400.564 766.852 400.433 766.926 400.319 767.007C400.204 767.089 400.098 767.163 400 767.228L399.347 766.174C399.469 766.076 399.624 765.978 399.796 765.888C399.967 765.798 400.155 765.708 400.368 765.635C400.58 765.561 400.792 765.504 401.029 765.455C401.266 765.406 401.511 765.39 401.773 765.39C402.14 765.39 402.492 765.431 402.81 765.512C403.129 765.594 403.415 765.717 403.66 765.88C403.905 766.043 404.093 766.256 404.232 766.509C404.371 766.762 404.444 767.073 404.444 767.424C404.444 767.661 404.395 767.881 404.305 768.094C404.215 768.306 404.093 768.494 403.946 768.666C403.799 768.837 403.635 768.984 403.448 769.107C403.26 769.229 403.072 769.319 402.876 769.376C403.178 769.417 403.447 769.491 403.684 769.597C403.921 769.703 404.125 769.842 404.289 770.022C404.452 770.201 404.575 770.406 404.665 770.659C404.755 770.912 404.795 771.198 404.795 771.517C404.795 772.031 404.714 772.464 404.558 772.824C404.403 773.183 404.183 773.469 403.897 773.689C403.611 773.91 403.284 774.073 402.9 774.171C402.516 774.269 402.099 774.318 401.65 774.318C401.364 774.318 401.095 774.286 400.833 774.229C400.572 774.171 400.327 774.098 400.106 774.016C399.886 773.935 399.69 773.853 399.526 773.763C399.363 773.673 399.232 773.608 399.142 773.551L399.853 772.374C399.853 772.374 399.935 772.431 400 772.48C400.065 772.53 400.155 772.579 400.253 772.636C400.351 772.693 400.458 772.75 400.58 772.807C400.703 772.864 400.825 772.922 400.956 772.971C401.087 773.02 401.217 773.06 401.356 773.093C401.495 773.126 401.626 773.142 401.756 773.142C402.189 773.142 402.533 773.011 402.786 772.758C403.039 772.505 403.17 772.121 403.17 771.615C403.17 771.296 403.121 771.035 403.031 770.822C402.941 770.61 402.794 770.446 402.598 770.332C402.402 770.218 402.141 770.128 401.83 770.079C401.52 770.03 401.144 770.005 400.703 769.997L400.719 769.033V769.041Z" fill="#FF4C91"/>
<path d="M226.746 623.153C227.13 623.153 227.457 623.121 227.726 623.047C227.996 622.973 228.216 622.884 228.388 622.753C228.559 622.622 228.682 622.475 228.764 622.295C228.845 622.116 228.878 621.912 228.878 621.691C228.878 621.372 228.788 621.127 228.617 620.948C228.445 620.768 228.159 620.67 227.767 620.67C227.555 620.67 227.367 620.694 227.195 620.735C227.024 620.776 226.868 620.833 226.73 620.899C226.591 620.964 226.46 621.037 226.346 621.119C226.231 621.201 226.125 621.274 226.027 621.34L225.374 620.286C225.496 620.188 225.651 620.09 225.823 620C225.994 619.91 226.182 619.82 226.395 619.747C226.607 619.673 226.819 619.616 227.056 619.567C227.293 619.518 227.538 619.502 227.8 619.502C228.167 619.502 228.519 619.543 228.837 619.624C229.156 619.706 229.442 619.828 229.687 619.992C229.932 620.155 230.12 620.368 230.259 620.621C230.397 620.874 230.471 621.185 230.471 621.536C230.471 621.773 230.422 621.993 230.332 622.206C230.242 622.418 230.12 622.606 229.973 622.777C229.826 622.949 229.662 623.096 229.474 623.219C229.286 623.341 229.099 623.431 228.903 623.488C229.205 623.529 229.474 623.602 229.711 623.709C229.948 623.815 230.152 623.954 230.316 624.133C230.479 624.313 230.602 624.517 230.692 624.771C230.781 625.024 230.822 625.31 230.822 625.628C230.822 626.143 230.741 626.576 230.585 626.935C230.43 627.295 230.21 627.581 229.924 627.801C229.638 628.022 229.311 628.185 228.927 628.283C228.543 628.381 228.127 628.43 227.677 628.43C227.391 628.43 227.122 628.398 226.86 628.34C226.599 628.283 226.354 628.21 226.133 628.128C225.913 628.046 225.717 627.965 225.553 627.875C225.39 627.785 225.259 627.72 225.169 627.662L225.88 626.486C225.88 626.486 225.962 626.543 226.027 626.592C226.092 626.641 226.182 626.69 226.28 626.748C226.378 626.805 226.485 626.862 226.607 626.919C226.73 626.976 226.852 627.033 226.983 627.082C227.114 627.131 227.244 627.172 227.383 627.205C227.522 627.238 227.653 627.254 227.783 627.254C228.216 627.254 228.559 627.123 228.813 626.87C229.066 626.617 229.197 626.233 229.197 625.726C229.197 625.408 229.148 625.146 229.058 624.934C228.968 624.722 228.821 624.558 228.625 624.444C228.429 624.33 228.167 624.24 227.857 624.191C227.547 624.142 227.171 624.117 226.73 624.109L226.746 623.145V623.153Z" fill="#FF4C91"/>
<path d="M363.763 767.146C363.583 767.048 363.371 766.958 363.134 766.877C362.897 766.795 362.619 766.762 362.317 766.762C362.039 766.762 361.794 766.82 361.582 766.942C361.37 767.065 361.19 767.228 361.035 767.44C360.879 767.653 360.757 767.922 360.659 768.233C360.561 768.543 360.495 768.886 360.446 769.278C360.536 769.189 360.651 769.107 360.781 769.033C360.912 768.96 361.059 768.894 361.206 768.845C361.353 768.796 361.517 768.756 361.68 768.723C361.843 768.69 362.007 768.682 362.162 768.682C362.562 768.682 362.914 768.739 363.224 768.854C363.534 768.968 363.796 769.14 364.016 769.352C364.237 769.564 364.392 769.834 364.506 770.152C364.621 770.471 364.678 770.822 364.678 771.223C364.678 771.623 364.613 772.007 364.49 772.342C364.367 772.677 364.171 772.963 363.918 773.199C363.665 773.436 363.355 773.624 362.971 773.755C362.587 773.886 362.154 773.951 361.655 773.951C361.198 773.951 360.806 773.877 360.471 773.73C360.136 773.583 359.866 773.363 359.646 773.077C359.425 772.791 359.27 772.432 359.164 771.999C359.058 771.566 359.009 771.067 359.009 770.504C359.009 769.736 359.074 769.05 359.197 768.445C359.319 767.841 359.523 767.342 359.801 766.934C360.079 766.525 360.438 766.215 360.871 766.003C361.304 765.79 361.851 765.684 362.48 765.684C362.611 765.684 362.758 765.692 362.913 765.709C363.069 765.725 363.224 765.749 363.379 765.79C363.534 765.831 363.69 765.872 363.837 765.921C363.984 765.97 364.123 766.035 364.237 766.101L363.755 767.154L363.763 767.146ZM363.248 771.247C363.248 771.018 363.216 770.814 363.159 770.626C363.101 770.438 363.003 770.283 362.881 770.144C362.758 770.005 362.611 769.907 362.431 769.834C362.252 769.76 362.047 769.728 361.811 769.728C361.655 769.728 361.517 769.736 361.394 769.752C361.272 769.769 361.157 769.801 361.059 769.834C360.961 769.867 360.863 769.916 360.773 769.973C360.683 770.03 360.602 770.095 360.52 770.169C360.504 770.21 360.487 770.259 360.471 770.308C360.455 770.357 360.446 770.414 360.446 770.471C360.446 770.528 360.438 770.585 360.43 770.634C360.422 770.683 360.43 770.732 360.43 770.765C360.43 771.141 360.471 771.46 360.545 771.721C360.618 771.982 360.716 772.195 360.839 772.366C360.961 772.538 361.108 772.652 361.271 772.734C361.435 772.816 361.607 772.848 361.786 772.848C361.982 772.848 362.17 772.816 362.342 772.75C362.513 772.685 362.677 772.579 362.807 772.448C362.938 772.317 363.044 772.146 363.126 771.941C363.208 771.737 363.24 771.5 363.24 771.239L363.248 771.247Z" fill="#FF4C91"/>
<path d="M229.915 661.915C229.736 661.817 229.523 661.727 229.286 661.645C229.049 661.563 228.772 661.531 228.469 661.531C228.192 661.531 227.947 661.588 227.734 661.71C227.522 661.833 227.342 661.996 227.187 662.209C227.032 662.421 226.909 662.691 226.811 663.001C226.713 663.312 226.648 663.655 226.599 664.047C226.689 663.957 226.803 663.875 226.934 663.802C227.064 663.728 227.211 663.663 227.358 663.614C227.506 663.565 227.669 663.524 227.832 663.491C227.996 663.459 228.159 663.45 228.314 663.45C228.714 663.45 229.066 663.508 229.376 663.622C229.687 663.736 229.948 663.908 230.169 664.12C230.389 664.333 230.544 664.602 230.659 664.921C230.773 665.239 230.83 665.591 230.83 665.991C230.83 666.391 230.765 666.775 230.642 667.11C230.52 667.445 230.324 667.731 230.071 667.968C229.817 668.205 229.507 668.393 229.123 668.523C228.739 668.654 228.306 668.719 227.808 668.719C227.35 668.719 226.958 668.646 226.623 668.499C226.288 668.352 226.019 668.131 225.798 667.845C225.578 667.559 225.422 667.2 225.316 666.767C225.21 666.334 225.161 665.836 225.161 665.272C225.161 664.504 225.226 663.818 225.349 663.213C225.471 662.609 225.676 662.111 225.953 661.702C226.231 661.294 226.591 660.983 227.024 660.771C227.456 660.559 228.004 660.452 228.633 660.452C228.763 660.452 228.911 660.461 229.066 660.477C229.221 660.493 229.376 660.518 229.531 660.559C229.687 660.599 229.842 660.64 229.989 660.689C230.136 660.738 230.275 660.804 230.389 660.869L229.907 661.923L229.915 661.915ZM229.409 666.015C229.409 665.787 229.376 665.582 229.319 665.395C229.262 665.207 229.164 665.051 229.041 664.913C228.919 664.774 228.772 664.676 228.592 664.602C228.412 664.529 228.208 664.496 227.971 664.496C227.816 664.496 227.677 664.504 227.555 664.521C227.432 664.537 227.318 664.57 227.22 664.602C227.122 664.635 227.024 664.684 226.934 664.741C226.844 664.798 226.762 664.864 226.68 664.937C226.664 664.978 226.648 665.027 226.631 665.076C226.615 665.125 226.607 665.182 226.607 665.239C226.607 665.297 226.599 665.354 226.591 665.403C226.582 665.452 226.591 665.501 226.591 665.533C226.591 665.909 226.631 666.228 226.705 666.489C226.778 666.751 226.876 666.963 226.999 667.135C227.122 667.306 227.269 667.42 227.432 667.502C227.595 667.584 227.767 667.617 227.947 667.617C228.143 667.617 228.331 667.584 228.502 667.518C228.674 667.453 228.837 667.347 228.968 667.216C229.098 667.086 229.205 666.914 229.286 666.71C229.368 666.506 229.401 666.269 229.401 666.007L229.409 666.015Z" fill="#FF4C91"/>
<path d="M221.125 577.971V919.333" stroke="#FF4C91" stroke-width="2" stroke-miterlimit="10"/>
<path d="M129.536 742.787V780.511C129.536 796.685 142.648 809.796 158.822 809.796H283.438C299.612 809.796 312.724 796.685 312.724 780.511V742.787C312.724 726.613 299.612 713.501 283.438 713.501H158.822C142.648 713.501 129.536 726.613 129.536 742.787Z" fill="#F4F4F4" stroke="#FF4C91" stroke-width="2.2" stroke-miterlimit="10"/>
<path d="M259.634 702.547C260.369 704.352 264.061 703.715 264.061 701.779C264.061 703.715 265.85 703.405 266.202 701.403C265.85 703.405 268.759 702.898 269.682 700.799C268.75 702.898 273.358 702.098 275.196 699.835C273.358 702.089 273.358 704.761 275.196 703.029C273.358 704.761 273.358 709.204 275.196 708.355C273.358 709.204 273.358 711.573 275.196 711.198C273.358 711.573 273.358 715.437 275.196 715.813C273.358 715.429 272.345 716.074 273.987 716.589C272.345 716.074 270.523 717.251 271.805 717.994C270.523 717.251 267.623 719.113 268.334 720.224C267.631 719.113 265.548 720.453 265.842 721.825C265.548 720.453 264.061 721.409 264.061 722.969C264.061 721.409 261.48 723.067 260.965 724.954C261.48 723.059 258.604 724.905 257.526 727.16C258.604 724.905 257.6 721.033 256.325 722.528C257.6 721.033 256.881 718.247 255.459 719.187C256.881 718.247 256.105 715.266 254.528 715.617C256.105 715.266 254.757 710.095 252.919 709.425C254.757 710.095 256.579 708.232 255.1 707.187C256.579 708.232 258.801 705.953 257.763 704.458C258.801 705.953 260.361 704.352 259.634 702.547Z" fill="#FF4C91"/>
<path d="M270.229 715.004C269.306 714.947 269.208 715.069 269.894 715.437C269.094 715.168 267.28 716.638 267.721 717.202C267.28 716.646 266.316 717.43 266.561 718.141C266.316 717.43 264.739 718.705 264.674 719.669C264.739 718.705 263.13 720.004 262.746 721.229C262.656 720.387 261.962 720.273 260.949 720.943C261.401 720.159 261.401 720.159 260.949 720.943C261.627 719.767 260.598 718.182 259.715 719.04C260.598 718.174 260.051 717.332 259.062 718.027C260.051 717.332 259.16 715.952 257.992 716.377C259.16 715.952 259.593 715.347 258.515 715.649C259.593 715.347 260.385 714.244 259.462 714.326C260.385 714.244 261.643 712.488 260.965 712.227C261.635 712.488 262.542 711.23 262.044 710.715C262.542 711.23 263.187 710.323 262.82 709.637C263.187 710.332 264.307 708.763 264.16 707.767C264.307 708.771 264.968 707.84 264.952 706.656C265.287 707.391 265.908 707.276 266.627 706.353C266.365 707.587 267.019 708.036 267.411 706.884C267.019 708.028 268.08 708.755 268.685 707.75C268.08 708.755 269.224 709.523 270.049 708.673C269.224 709.523 270.482 710.381 271.56 709.694C270.899 710.658 271.046 711.197 271.985 711.222C270.842 711.647 270.572 712.219 271.667 711.9C270.572 712.219 269.804 713.869 270.752 713.877C269.812 713.869 269.371 714.808 270.229 715.004Z" fill="#F4F4F4"/>
<path d="M150.906 836.541C150.677 837.815 151.445 838.265 152.899 837.709C151.543 838.992 152.033 842.709 153.455 841.9C152.033 842.709 152.523 846.409 154.002 846.074C152.515 846.409 151.151 849.415 152.458 849.464C151.151 849.415 153.332 852.609 154.917 853.075C153.332 852.618 153.365 852.912 154.958 853.41C153.455 853.59 152.915 854.292 153.52 855.281C152.09 854.57 149.288 854.031 150.367 854.668C149.297 854.031 147.867 855.999 148.757 856.89C147.867 855.999 142.541 857.797 142.753 858.916C142.541 857.797 137.002 859.667 136.512 861.023C137.011 859.667 136.014 860.002 135.393 861.399C135.091 860.313 134.152 859.978 133.024 860.566C133.915 859.259 133.555 858.189 132.616 859.357C133.555 858.189 132.853 856.114 131.823 857.012C132.844 856.106 132.313 854.529 131.219 855.232C132.313 854.529 131.75 852.871 130.59 853.361C131.758 852.871 130.141 852.732 128.768 853.206C130.141 852.732 128.964 849.244 127.437 849.268C128.956 849.236 128.384 842.897 126.791 842.112C128.384 842.897 130.19 845.143 128.825 844.645C129.912 844.302 128.883 841.099 128.597 839.907C129.985 840.936 130.475 840.862 129.152 839.825C130.475 840.862 132.755 840.519 131.717 839.433C132.755 840.519 137.476 839.801 137.043 838.624C137.476 839.801 139.584 839.482 139.42 838.265C139.584 839.482 143.399 838.902 143.717 837.611C143.391 838.902 147.475 838.281 148.325 836.917C147.483 838.289 149.746 837.946 150.873 836.533L150.906 836.541Z" fill="#FF4C91"/>
<path d="M143.113 841.647C143.006 842.251 143.374 842.472 144.06 842.202C143.415 842.815 143.644 844.579 144.322 844.195C143.644 844.579 143.881 846.344 144.583 846.18C143.881 846.336 143.227 847.773 143.848 847.79C143.227 847.765 144.264 849.285 145.016 849.505C144.256 849.285 144.281 849.432 145.041 849.66C144.322 849.742 144.068 850.077 144.354 850.551C143.676 850.216 142.345 849.954 142.851 850.257C142.337 849.954 141.659 850.894 142.083 851.311C141.659 850.886 139.126 851.743 139.224 852.274C139.126 851.743 136.488 852.634 136.251 853.279C136.488 852.634 136.014 852.789 135.72 853.459C135.581 852.944 135.132 852.781 134.592 853.067C135.017 852.446 134.846 851.931 134.396 852.495C134.846 851.94 134.511 850.951 134.021 851.384C134.511 850.951 134.258 850.2 133.735 850.534C134.258 850.2 133.988 849.407 133.433 849.644C133.988 849.407 133.22 849.35 132.567 849.571C133.22 849.342 132.656 847.684 131.938 847.7C132.665 847.684 132.387 844.669 131.627 844.293C132.387 844.661 133.245 845.731 132.599 845.502C133.114 845.339 132.624 843.82 132.493 843.248C133.155 843.738 133.392 843.705 132.754 843.207C133.383 843.705 134.47 843.534 133.98 843.019C134.47 843.534 136.725 843.191 136.512 842.635C136.716 843.191 137.721 843.044 137.648 842.464C137.729 843.044 139.543 842.766 139.69 842.153C139.535 842.766 141.479 842.472 141.879 841.818C141.479 842.472 142.557 842.308 143.096 841.63L143.113 841.647Z" fill="#F4F4F4"/>
<path d="M313.287 664.626C313.867 665.59 314.749 665.427 315.558 664.202C315.289 665.909 318.09 668.4 318.719 667.012C318.09 668.4 320.884 670.884 321.865 669.806C320.884 670.876 321.816 674.045 322.918 673.375C321.816 674.045 325.557 675.034 327.142 674.494C325.565 675.034 325.786 675.23 327.395 674.715C326.292 675.687 326.349 676.569 327.534 677.068C325.908 677.313 323.441 678.734 324.748 678.669C323.441 678.734 323.654 681.16 324.985 681.397C323.654 681.152 320.803 685.996 321.767 686.854C320.795 685.996 317.829 691.028 318.425 692.531C317.829 691.028 317.298 691.935 317.829 693.553C316.808 692.768 315.885 693.136 315.493 694.476C315.231 692.752 314.259 692.18 314.398 693.83C314.259 692.18 312.372 691.069 312.266 692.572C312.372 691.069 310.935 690.22 310.649 691.617C310.935 690.22 309.423 689.329 308.941 690.612C309.423 689.329 308.108 690.285 307.463 691.69C308.108 690.285 304.939 688.414 303.885 689.582C304.939 688.414 300.356 683.987 298.722 684.591C300.364 683.987 303.199 684.51 301.924 685.179C302.439 684.06 299.572 682.312 298.657 681.74C300.307 681.463 300.625 681.079 299.024 681.316C300.634 681.079 302.129 679.33 300.715 679.339C302.129 679.33 305.241 675.695 304.22 675.246C305.241 675.703 306.621 674.078 305.78 673.416C306.621 674.078 309.129 671.145 308.606 670.116C309.129 671.153 311.809 668.017 311.629 666.579C311.809 668.017 313.295 666.277 313.304 664.618L313.287 664.626Z" fill="#FF4C91"/>
<path d="M310.714 673.547C310.992 674.004 311.408 673.931 311.792 673.343C311.662 674.151 312.993 675.336 313.295 674.682C312.993 675.344 314.325 676.52 314.79 676.014C314.325 676.52 314.766 678.032 315.289 677.713C314.766 678.032 316.547 678.506 317.298 678.244C316.547 678.497 316.653 678.595 317.421 678.35C316.898 678.808 316.922 679.233 317.486 679.469C316.71 679.592 315.534 680.262 316.163 680.229C315.542 680.262 315.64 681.414 316.277 681.528C315.64 681.414 314.284 683.717 314.749 684.126C314.284 683.717 312.879 686.111 313.157 686.83C312.871 686.111 312.626 686.544 312.871 687.312C312.389 686.944 311.948 687.116 311.76 687.753C311.637 686.936 311.171 686.658 311.237 687.442C311.171 686.658 310.273 686.127 310.224 686.846C310.273 686.127 309.595 685.727 309.456 686.389C309.595 685.727 308.876 685.302 308.647 685.915C308.876 685.302 308.255 685.76 307.945 686.429C308.255 685.76 306.744 684.869 306.246 685.425C306.744 684.869 304.571 682.762 303.787 683.047C304.563 682.762 305.919 683.007 305.306 683.325C305.551 682.794 304.187 681.961 303.746 681.691C304.53 681.561 304.685 681.381 303.917 681.487C304.685 681.373 305.396 680.54 304.718 680.548C305.388 680.548 306.866 678.816 306.385 678.595C306.866 678.808 307.528 678.04 307.128 677.729C307.528 678.048 308.721 676.651 308.476 676.161C308.721 676.651 310.003 675.164 309.914 674.478C309.995 675.164 310.706 674.331 310.714 673.547Z" fill="#F4F4F4"/>
<path d="M264.789 818.039C265.328 819.035 266.218 818.913 267.076 817.712C266.733 819.419 269.428 822.025 270.107 820.653C269.42 822.025 272.1 824.623 273.129 823.585C272.1 824.623 272.9 827.825 274.027 827.196C272.9 827.825 276.601 828.977 278.194 828.495C276.593 828.977 276.805 829.181 278.439 828.732C277.303 829.663 277.311 830.553 278.471 831.084C276.838 831.272 274.313 832.579 275.621 832.563C274.313 832.587 274.42 835.014 275.743 835.3C274.42 835.014 271.364 839.727 272.296 840.618C271.364 839.727 268.187 844.628 268.709 846.148C268.187 844.628 267.615 845.511 268.064 847.136C267.084 846.319 266.136 846.646 265.687 847.961C265.499 846.238 264.551 845.625 264.617 847.267C264.551 845.625 262.714 844.432 262.542 845.919C262.714 844.432 261.317 843.526 260.965 844.898C261.317 843.526 259.846 842.57 259.307 843.82C259.846 842.57 258.49 843.468 257.788 844.833C258.498 843.468 255.411 841.459 254.308 842.57C255.411 841.459 251.024 836.843 249.357 837.358C251.024 836.835 253.834 837.481 252.527 838.085C253.091 837.007 250.305 835.128 249.406 834.507C251.065 834.311 251.408 833.944 249.79 834.099C251.408 833.944 252.976 832.261 251.563 832.195C252.976 832.261 256.236 828.764 255.239 828.258C256.236 828.764 257.69 827.204 256.881 826.502C257.69 827.212 260.328 824.394 259.846 823.324C260.32 824.394 263.138 821.372 263.024 819.918C263.138 821.372 264.707 819.697 264.789 818.031V818.039Z" fill="#FF4C91"/>
<path d="M261.831 826.836C262.093 827.31 262.509 827.253 262.918 826.681C262.755 827.49 264.037 828.732 264.364 828.078C264.037 828.732 265.311 829.965 265.802 829.475C265.311 829.973 265.687 831.493 266.226 831.19C265.687 831.493 267.452 832.04 268.211 831.811C267.452 832.04 267.55 832.138 268.326 831.926C267.786 832.367 267.786 832.791 268.342 833.045C267.566 833.135 266.365 833.755 266.986 833.747C266.365 833.755 266.414 834.915 267.043 835.054C266.414 834.915 264.96 837.162 265.401 837.587C264.96 837.162 263.449 839.498 263.694 840.217C263.441 839.498 263.171 839.915 263.392 840.691C262.926 840.307 262.477 840.462 262.264 841.083C262.174 840.266 261.725 839.972 261.758 840.756C261.725 839.972 260.851 839.408 260.769 840.119C260.851 839.408 260.189 838.975 260.018 839.629C260.181 838.975 259.487 838.518 259.226 839.114C259.479 838.518 258.842 838.943 258.498 839.596C258.833 838.943 257.363 837.995 256.84 838.518C257.363 837.987 255.28 835.789 254.488 836.043C255.28 835.798 256.62 836.1 255.999 836.386C256.268 835.871 254.945 834.981 254.512 834.687C255.304 834.589 255.46 834.417 254.692 834.491C255.46 834.417 256.211 833.617 255.533 833.584C256.203 833.617 257.755 831.95 257.281 831.705C257.755 831.95 258.449 831.207 258.065 830.872C258.449 831.207 259.708 829.867 259.479 829.361C259.708 829.867 261.047 828.429 260.99 827.743C261.047 828.437 261.791 827.637 261.831 826.845V826.836Z" fill="#F4F4F4"/>
<path d="M87.8173 816.756C86.494 818.006 88.3401 821.265 90.0392 820.661C88.3483 821.265 89.2387 822.842 91.1176 822.556C89.2469 822.85 90.701 825.415 92.8657 825.627C90.7091 825.415 93.0128 829.475 95.6268 830.496C93.0128 829.475 90.4967 830.373 92.6206 831.574C90.4967 830.373 86.3142 831.877 87.6049 833.371C86.3142 831.877 84.0759 832.677 84.9337 834.327C84.0841 832.677 80.4572 833.976 80.5879 835.888C80.4572 833.976 79.5095 833.249 79.4524 835.013C79.5095 833.249 77.7941 831.926 77.3938 833.429C77.7859 831.926 75.0575 829.818 74.1181 830.913C75.0575 829.826 73.0969 828.315 71.7736 829.107C73.0969 828.315 71.6919 827.237 70.0908 827.817C71.6919 827.237 69.2576 825.366 67.1745 825.57C69.2576 825.366 66.5537 823.283 63.9396 823.079C66.5537 823.283 69.8621 821.028 67.8934 820.383C69.8539 821.036 72.2392 819.411 70.7443 818.439C72.2392 819.411 74.7798 817.671 73.7914 816.356C74.7798 817.671 79.191 814.657 79.0766 812.753C79.191 814.665 81.5681 815.751 81.9194 814.052C81.5681 815.751 84.4599 817.075 85.383 815.637C84.4599 817.075 86.4858 817.998 87.8173 816.748V816.756Z" fill="#FF4C91"/>
<path d="M79.7629 830.905C79.4443 830.006 79.2973 829.957 79.2401 830.733C79.1584 829.883 77.1653 828.666 76.8467 829.279C77.1653 828.666 76.0951 828.021 75.5723 828.503C76.1033 828.021 74.3714 826.967 73.4973 827.245C74.3632 826.967 72.5988 825.889 71.3735 825.954C72.076 825.578 71.9453 824.884 71.0386 824.173C71.8882 824.326 71.8882 824.326 71.0386 824.173C72.3129 824.402 73.4647 822.899 72.4109 822.376C73.4565 822.907 74.0692 822.107 73.1461 821.412C74.0692 822.099 75.0658 820.8 74.3388 819.852C75.0658 820.8 75.7929 821.004 75.2047 820.097C75.7929 821.004 77.0998 821.371 76.7649 820.538C77.0917 821.371 79.1666 821.96 79.2565 821.249C79.1748 821.96 80.6616 822.384 81.0373 821.755C80.6616 822.384 81.7235 822.687 82.3116 822.115C81.7235 822.687 83.5778 823.209 84.5254 822.744C83.5696 823.209 84.6725 823.52 85.8406 823.12C85.2035 823.675 85.5138 824.222 86.6901 824.598C85.3831 824.762 85.179 825.529 86.4533 825.521C85.179 825.529 84.8603 826.779 86.0693 827.016C84.8603 826.779 84.5172 828.111 85.6608 828.617C84.5172 828.119 84.1415 829.589 85.2034 830.382C84.0108 830.071 83.5533 830.398 83.9127 831.297C83.0631 830.349 82.4424 830.3 83.1694 831.231C82.4424 830.3 80.6288 830.137 81.0046 831.035C80.637 830.137 79.5995 830.039 79.7629 830.921V830.905Z" fill="#F4F4F4"/>
</svg>
