<svg width="370" height="1228" viewBox="0 0 370 1228" fill="none" xmlns="http://www.w3.org/2000/svg">
<path d="M71.8263 0H59.8263V1126H71.8263V0Z" fill="#4857F6"/>
<path d="M309.826 0H297.826V1087H309.826V0Z" fill="#4857F6"/>
<rect x="15" y="1053.85" width="339.352" height="174" fill="black"/>
<path d="M70.1005 1104.72L77.9562 1076.1H83.1031L90.9007 1104.72H87.4953L80.5103 1078.25H80.549L73.506 1104.72H70.1005ZM74.1638 1097.16V1094.25H86.8955V1097.16H74.1638ZM94.1991 1104.72V1084.17H97.4885V1090.48L96.4049 1090.09C96.4823 1089.33 96.6758 1088.59 96.9854 1087.85C97.295 1087.1 97.7207 1086.43 98.2624 1085.84C98.8171 1085.23 99.5072 1084.75 100.333 1084.41C101.158 1084.04 102.126 1083.86 103.235 1083.86C104.061 1083.86 104.731 1083.93 105.247 1084.08C105.776 1084.21 106.105 1084.31 106.234 1084.39L105.383 1087.62C105.254 1087.53 104.989 1087.41 104.59 1087.27C104.203 1087.13 103.648 1087.06 102.926 1087.06C101.855 1087.06 100.965 1087.25 100.255 1087.64C99.5588 1088.02 99.0042 1088.54 98.5914 1089.18C98.1915 1089.82 97.9077 1090.51 97.74 1091.26C97.5723 1092 97.4885 1092.75 97.4885 1093.48V1104.72H94.1991ZM121.122 1103.46C122.231 1103.55 123.205 1103.76 124.044 1104.08C124.895 1104.39 125.559 1104.85 126.037 1105.46C126.514 1106.08 126.753 1106.88 126.753 1107.88C126.753 1108.97 126.379 1109.94 125.63 1110.78C124.882 1111.63 123.747 1112.29 122.225 1112.77C120.703 1113.25 118.787 1113.49 116.478 1113.49C113.215 1113.49 110.751 1113.01 109.087 1112.06C107.423 1111.11 106.591 1109.82 106.591 1108.19C106.591 1107.67 106.649 1107.21 106.765 1106.81C106.894 1106.42 107.036 1106.11 107.191 1105.86L110.325 1106.33C110.222 1106.47 110.119 1106.68 110.016 1106.97C109.925 1107.26 109.88 1107.61 109.88 1107.99C109.88 1109.02 110.467 1109.75 111.641 1110.16C112.815 1110.58 114.479 1110.8 116.633 1110.8C118.246 1110.8 119.568 1110.69 120.6 1110.47C121.632 1110.25 122.399 1109.93 122.902 1109.52C123.405 1109.11 123.657 1108.62 123.657 1108.07C123.657 1107.23 123.302 1106.71 122.593 1106.5C121.896 1106.31 121.032 1106.17 120 1106.1L112.183 1105.52C110.88 1105.41 109.816 1105.01 108.99 1104.32C108.178 1103.61 107.771 1102.75 107.771 1101.74C107.771 1101.12 107.92 1100.54 108.216 1099.98C108.526 1099.43 108.881 1098.96 109.281 1098.59C109.693 1098.2 110.061 1097.97 110.383 1097.89L112.976 1099.07C112.654 1099.12 112.254 1099.35 111.777 1099.75C111.312 1100.14 111.08 1100.59 111.08 1101.12C111.08 1101.6 111.267 1101.99 111.641 1102.3C112.015 1102.6 112.757 1102.79 113.866 1102.88L121.122 1103.46ZM123.966 1084.17H127.062L125.785 1092.26C125.553 1093.77 125.069 1095.14 124.334 1096.36C123.599 1097.58 122.593 1098.54 121.316 1099.27C120.051 1099.98 118.484 1100.33 116.614 1100.33C114.666 1100.33 113.002 1099.98 111.622 1099.27C110.242 1098.56 109.184 1097.59 108.448 1096.36C107.713 1095.13 107.346 1093.73 107.346 1092.18C107.346 1090.61 107.726 1089.2 108.487 1087.95C109.261 1086.68 110.332 1085.69 111.699 1084.97C113.066 1084.23 114.634 1083.86 116.401 1083.86C117.988 1083.86 119.374 1084.14 120.561 1084.7C121.748 1085.24 122.683 1085.92 123.367 1086.75C124.063 1087.57 124.45 1088.4 124.528 1089.24L123.289 1089.32L123.966 1084.17ZM116.594 1097.39C117.846 1097.39 118.916 1097.18 119.806 1096.77C120.709 1096.36 121.399 1095.76 121.877 1094.97C122.367 1094.18 122.612 1093.23 122.612 1092.11C122.612 1091.02 122.367 1090.09 121.877 1089.3C121.399 1088.5 120.709 1087.89 119.806 1087.46C118.916 1087.02 117.852 1086.8 116.614 1086.8C115.427 1086.8 114.376 1087.03 113.46 1087.48C112.557 1087.92 111.847 1088.54 111.331 1089.34C110.828 1090.14 110.577 1091.08 110.577 1092.16C110.577 1093.26 110.816 1094.2 111.293 1094.99C111.783 1095.76 112.473 1096.36 113.363 1096.77C114.266 1097.18 115.343 1097.39 116.594 1097.39ZM138.009 1105.09C136.538 1105.09 135.313 1104.84 134.333 1104.34C133.352 1103.82 132.572 1103.15 131.991 1102.34C131.424 1101.53 131.018 1100.65 130.772 1099.71C130.54 1098.76 130.424 1097.84 130.424 1096.96C130.424 1096.47 130.424 1095.97 130.424 1095.45C130.424 1094.93 130.424 1094.4 130.424 1093.87V1084.17H133.733V1093.44C133.733 1093.92 133.733 1094.39 133.733 1094.85C133.733 1095.32 133.733 1095.76 133.733 1096.17C133.733 1097.21 133.875 1098.18 134.159 1099.07C134.455 1099.96 134.965 1100.68 135.687 1101.24C136.409 1101.78 137.403 1102.05 138.667 1102.05C139.854 1102.05 140.892 1101.7 141.782 1100.99C142.672 1100.27 143.369 1099.37 143.872 1098.3C144.375 1097.21 144.626 1096.14 144.626 1095.07L146.542 1095.86C146.542 1097 146.342 1098.11 145.942 1099.21C145.542 1100.29 144.968 1101.28 144.22 1102.17C143.485 1103.06 142.588 1103.77 141.53 1104.3C140.486 1104.83 139.312 1105.09 138.009 1105.09ZM144.626 1104.72V1084.17H147.916V1104.72H144.626ZM165.102 1104.72V1095.65C165.102 1094.85 165.102 1094.16 165.102 1093.58C165.102 1092.98 165.102 1092.49 165.102 1092.09C165.102 1091.58 165.063 1091.04 164.986 1090.46C164.921 1089.87 164.76 1089.31 164.502 1088.8C164.244 1088.27 163.838 1087.84 163.283 1087.5C162.741 1087.17 161.987 1087 161.019 1087C160.039 1087 159.213 1087.19 158.543 1087.58C157.872 1087.95 157.33 1088.45 156.917 1089.07C156.504 1089.69 156.208 1090.37 156.027 1091.12C155.847 1091.86 155.756 1092.58 155.756 1093.31L153.899 1092.55C153.899 1091 154.221 1089.57 154.866 1088.26C155.511 1086.94 156.414 1085.88 157.575 1085.08C158.749 1084.27 160.123 1083.86 161.696 1083.86C163.257 1083.86 164.528 1084.18 165.508 1084.81C166.489 1085.44 167.211 1086.31 167.675 1087.42C168.14 1088.53 168.372 1089.81 168.372 1091.26C168.372 1091.77 168.372 1092.44 168.372 1093.25C168.372 1094.05 168.372 1094.96 168.372 1096V1104.72H165.102ZM152.467 1104.72V1084.17H155.756V1104.72H152.467ZM177.698 1104.72V1095.65C177.698 1094.77 177.698 1094.05 177.698 1093.48C177.698 1092.9 177.698 1092.41 177.698 1092.01C177.698 1091.51 177.666 1090.97 177.601 1090.38C177.537 1089.8 177.376 1089.26 177.118 1088.76C176.86 1088.24 176.447 1087.82 175.879 1087.5C175.325 1087.17 174.544 1087 173.538 1087C172.545 1087 171.713 1087.19 171.042 1087.56C170.384 1087.93 169.855 1088.42 169.455 1089.03C169.068 1089.64 168.791 1090.29 168.623 1091C168.456 1091.7 168.372 1092.37 168.372 1093.02L166.514 1092.3C166.514 1090.83 166.824 1089.46 167.443 1088.18C168.075 1086.89 168.965 1085.85 170.113 1085.06C171.274 1084.26 172.648 1083.86 174.235 1083.86C175.718 1083.86 176.956 1084.15 177.95 1084.73C178.956 1085.32 179.71 1086.13 180.213 1087.19C180.729 1088.24 180.987 1089.48 180.987 1090.93C180.987 1091.47 180.987 1092.14 180.987 1092.94C180.987 1093.74 180.987 1094.64 180.987 1095.65V1104.72H177.698ZM186.609 1095.76V1092.82H202.494L201.914 1093.79C201.914 1093.71 201.914 1093.64 201.914 1093.58C201.914 1093.5 201.914 1093.43 201.914 1093.36C201.914 1092.18 201.662 1091.09 201.159 1090.11C200.669 1089.12 199.934 1088.33 198.954 1087.73C197.973 1087.14 196.761 1086.84 195.316 1086.84C193.858 1086.84 192.575 1087.15 191.465 1087.77C190.356 1088.39 189.492 1089.27 188.873 1090.4C188.254 1091.53 187.944 1092.87 187.944 1094.43C187.944 1096.02 188.241 1097.38 188.834 1098.53C189.44 1099.68 190.298 1100.56 191.407 1101.18C192.517 1101.8 193.833 1102.11 195.355 1102.11C196.438 1102.11 197.38 1102 198.18 1101.78C198.979 1101.55 199.637 1101.25 200.153 1100.87C200.682 1100.48 201.082 1100.07 201.353 1099.61C201.624 1099.16 201.785 1098.71 201.837 1098.26H205.126C205.061 1099.09 204.803 1099.9 204.352 1100.72C203.9 1101.53 203.262 1102.27 202.436 1102.94C201.611 1103.6 200.598 1104.13 199.399 1104.53C198.199 1104.93 196.819 1105.13 195.258 1105.13C193.194 1105.13 191.375 1104.68 189.801 1103.77C188.228 1102.87 186.989 1101.62 186.086 1100.02C185.196 1098.42 184.751 1096.58 184.751 1094.51C184.751 1092.4 185.203 1090.56 186.106 1088.97C187.009 1087.37 188.254 1086.12 189.84 1085.22C191.427 1084.32 193.239 1083.86 195.277 1083.86C197.354 1083.86 199.153 1084.32 200.676 1085.22C202.198 1086.12 203.372 1087.36 204.197 1088.93C205.023 1090.49 205.435 1092.27 205.435 1094.27C205.435 1094.48 205.429 1094.75 205.416 1095.09C205.403 1095.42 205.384 1095.65 205.358 1095.76H186.609ZM224.107 1104.72V1094.87C224.107 1094.28 224.107 1093.8 224.107 1093.42C224.107 1093.04 224.107 1092.67 224.107 1092.32C224.107 1091.25 223.926 1090.31 223.565 1089.51C223.204 1088.71 222.636 1088.09 221.862 1087.66C221.088 1087.22 220.076 1087 218.824 1087C217.728 1087 216.709 1087.28 215.767 1087.85C214.838 1088.4 214.09 1089.16 213.523 1090.11C212.968 1091.06 212.691 1092.11 212.691 1093.29L210.814 1092.57C210.814 1090.96 211.207 1089.49 211.994 1088.18C212.794 1086.86 213.852 1085.82 215.167 1085.04C216.496 1084.26 217.941 1083.86 219.502 1083.86C221.088 1083.86 222.475 1084.17 223.662 1084.77C224.848 1085.38 225.764 1086.25 226.409 1087.39C227.067 1088.51 227.396 1089.86 227.396 1091.45C227.396 1092.02 227.396 1092.64 227.396 1093.31C227.396 1093.98 227.396 1094.6 227.396 1095.18V1104.72H224.107ZM209.401 1104.72V1084.17H212.691V1104.72H209.401ZM239.533 1105.03C238.901 1105.03 238.282 1104.96 237.675 1104.82C237.069 1104.68 236.521 1104.43 236.031 1104.06C235.554 1103.69 235.173 1103.17 234.889 1102.5C234.605 1101.81 234.464 1100.94 234.464 1099.87C234.464 1099.59 234.464 1099.32 234.464 1099.03C234.464 1098.74 234.464 1098.43 234.464 1098.1V1087.08H229.452V1084.17H232.664C233.103 1084.17 233.444 1084.16 233.69 1084.13C233.935 1084.1 234.109 1084.01 234.212 1083.88C234.328 1083.74 234.399 1083.53 234.425 1083.24C234.451 1082.95 234.464 1082.54 234.464 1082.03V1077.36H237.772V1084.17H244.196V1087.08H237.772V1097.04C237.772 1097.32 237.772 1097.6 237.772 1097.87C237.772 1098.14 237.772 1098.4 237.772 1098.63C237.772 1099.72 237.901 1100.58 238.159 1101.2C238.43 1101.82 239.03 1102.13 239.959 1102.13C240.333 1102.13 240.687 1102.1 241.023 1102.03C241.358 1101.97 241.61 1101.9 241.777 1101.84V1104.7C241.558 1104.78 241.249 1104.85 240.849 1104.92C240.462 1104.99 240.023 1105.03 239.533 1105.03ZM254.836 1105.09C253.366 1105.09 252.14 1104.84 251.16 1104.34C250.18 1103.82 249.399 1103.15 248.819 1102.34C248.251 1101.53 247.845 1100.65 247.6 1099.71C247.368 1098.76 247.251 1097.84 247.251 1096.96C247.251 1096.47 247.251 1095.97 247.251 1095.45C247.251 1094.93 247.251 1094.4 247.251 1093.87V1084.17H250.56V1093.44C250.56 1093.92 250.56 1094.39 250.56 1094.85C250.56 1095.32 250.56 1095.76 250.56 1096.17C250.56 1097.21 250.702 1098.18 250.986 1099.07C251.282 1099.96 251.792 1100.68 252.514 1101.24C253.237 1101.78 254.23 1102.05 255.494 1102.05C256.681 1102.05 257.719 1101.7 258.609 1100.99C259.499 1100.27 260.196 1099.37 260.699 1098.3C261.202 1097.21 261.454 1096.14 261.454 1095.07L263.369 1095.86C263.369 1097 263.169 1098.11 262.769 1099.21C262.369 1100.29 261.795 1101.28 261.047 1102.17C260.312 1103.06 259.416 1103.77 258.358 1104.3C257.313 1104.83 256.139 1105.09 254.836 1105.09ZM261.454 1104.72V1084.17H264.743V1104.72H261.454ZM281.929 1104.72V1095.65C281.929 1094.85 281.929 1094.16 281.929 1093.58C281.929 1092.98 281.929 1092.49 281.929 1092.09C281.929 1091.58 281.89 1091.04 281.813 1090.46C281.749 1089.87 281.587 1089.31 281.329 1088.8C281.071 1088.27 280.665 1087.84 280.11 1087.5C279.569 1087.17 278.814 1087 277.846 1087C276.866 1087 276.041 1087.19 275.37 1087.58C274.699 1087.95 274.157 1088.45 273.744 1089.07C273.332 1089.69 273.035 1090.37 272.854 1091.12C272.674 1091.86 272.584 1092.58 272.584 1093.31L270.726 1092.55C270.726 1091 271.049 1089.57 271.693 1088.26C272.338 1086.94 273.241 1085.88 274.402 1085.08C275.576 1084.27 276.95 1083.86 278.524 1083.86C280.085 1083.86 281.355 1084.18 282.335 1084.81C283.316 1085.44 284.038 1086.31 284.503 1087.42C284.967 1088.53 285.199 1089.81 285.199 1091.26C285.199 1091.77 285.199 1092.44 285.199 1093.25C285.199 1094.05 285.199 1094.96 285.199 1096V1104.72H281.929ZM269.294 1104.72V1084.17H272.584V1104.72H269.294ZM294.525 1104.72V1095.65C294.525 1094.77 294.525 1094.05 294.525 1093.48C294.525 1092.9 294.525 1092.41 294.525 1092.01C294.525 1091.51 294.493 1090.97 294.429 1090.38C294.364 1089.8 294.203 1089.26 293.945 1088.76C293.687 1088.24 293.274 1087.82 292.707 1087.5C292.152 1087.17 291.371 1087 290.365 1087C289.372 1087 288.54 1087.19 287.869 1087.56C287.211 1087.93 286.683 1088.42 286.283 1089.03C285.896 1089.64 285.618 1090.29 285.451 1091C285.283 1091.7 285.199 1092.37 285.199 1093.02L283.342 1092.3C283.342 1090.83 283.651 1089.46 284.27 1088.18C284.902 1086.89 285.792 1085.85 286.941 1085.06C288.101 1084.26 289.475 1083.86 291.062 1083.86C292.545 1083.86 293.784 1084.15 294.777 1084.73C295.783 1085.32 296.538 1086.13 297.041 1087.19C297.557 1088.24 297.815 1089.48 297.815 1090.93C297.815 1091.47 297.815 1092.14 297.815 1092.94C297.815 1093.74 297.815 1094.64 297.815 1095.65V1104.72H294.525ZM74.0686 1152.72L81.9243 1124.1H87.0711L94.8688 1152.72H91.4634L84.4784 1126.25H84.5171L77.474 1152.72H74.0686ZM78.1319 1145.16V1142.25H90.8636V1145.16H78.1319ZM106.34 1153.11C104.65 1153.11 103.102 1152.7 101.696 1151.89C100.29 1151.06 99.1677 1149.86 98.3293 1148.27C97.4908 1146.67 97.0716 1144.72 97.0716 1142.43C97.0716 1140.17 97.4972 1138.26 98.3486 1136.68C99.2 1135.11 100.329 1133.91 101.735 1133.1C103.141 1132.28 104.676 1131.86 106.34 1131.86C107.926 1131.86 109.41 1132.24 110.79 1133.01C112.183 1133.75 113.305 1134.8 114.157 1136.14C115.008 1137.48 115.434 1139.04 115.434 1140.8C115.434 1140.84 115.434 1140.88 115.434 1140.92C115.434 1140.96 115.434 1141 115.434 1141.04L113.073 1141.13C113.073 1141.09 113.073 1141.05 113.073 1141.02C113.073 1140.96 113.073 1140.92 113.073 1140.88C113.073 1139.76 112.777 1138.75 112.183 1137.84C111.603 1136.94 110.835 1136.22 109.881 1135.7C108.926 1135.15 107.901 1134.88 106.804 1134.88C104.972 1134.88 103.457 1135.5 102.257 1136.74C101.057 1137.97 100.458 1139.86 100.458 1142.43C100.458 1144.98 101.057 1146.89 102.257 1148.14C103.47 1149.37 104.985 1149.99 106.804 1149.99C107.952 1149.99 108.997 1149.72 109.939 1149.16C110.893 1148.61 111.654 1147.87 112.222 1146.94C112.789 1146 113.073 1144.94 113.073 1143.78L115.434 1143.84C115.434 1145.6 115.027 1147.18 114.215 1148.58C113.402 1149.97 112.306 1151.08 110.925 1151.89C109.558 1152.7 108.03 1153.11 106.34 1153.11ZM113.073 1152.72V1122.48H116.382V1152.72H113.073ZM148.653 1124.18V1152.72H145.345V1138.29L146.835 1139.93H131.104L132.594 1138.29V1152.72H129.285V1124.18H132.594V1138.77L131.104 1137.03H146.835L145.345 1138.77V1124.18H148.653ZM162.918 1153.09C160.854 1153.09 159.028 1152.63 157.442 1151.72C155.868 1150.79 154.63 1149.52 153.727 1147.92C152.837 1146.31 152.392 1144.48 152.392 1142.43C152.392 1140.38 152.837 1138.56 153.727 1136.97C154.63 1135.39 155.868 1134.14 157.442 1133.24C159.028 1132.33 160.854 1131.88 162.918 1131.88C164.981 1131.88 166.8 1132.33 168.374 1133.24C169.961 1134.14 171.199 1135.39 172.089 1136.97C172.992 1138.56 173.443 1140.38 173.443 1142.43C173.443 1144.48 172.992 1146.31 172.089 1147.92C171.199 1149.52 169.961 1150.79 168.374 1151.72C166.8 1152.63 164.981 1153.09 162.918 1153.09ZM162.918 1150.07C164.336 1150.07 165.588 1149.76 166.671 1149.12C167.755 1148.49 168.6 1147.6 169.206 1146.45C169.825 1145.31 170.135 1143.96 170.135 1142.43C170.135 1140.89 169.825 1139.56 169.206 1138.44C168.6 1137.31 167.755 1136.44 166.671 1135.83C165.588 1135.21 164.336 1134.9 162.918 1134.9C161.511 1134.9 160.26 1135.21 159.164 1135.83C158.08 1136.44 157.229 1137.31 156.61 1138.44C156.003 1139.56 155.7 1140.89 155.7 1142.43C155.7 1143.96 156.003 1145.31 156.61 1146.45C157.229 1147.6 158.08 1148.49 159.164 1149.12C160.26 1149.76 161.511 1150.07 162.918 1150.07ZM190.055 1152.72V1143.65C190.055 1142.85 190.055 1142.16 190.055 1141.58C190.055 1140.98 190.055 1140.49 190.055 1140.09C190.055 1139.58 190.016 1139.04 189.938 1138.46C189.874 1137.87 189.713 1137.31 189.455 1136.8C189.197 1136.27 188.79 1135.84 188.236 1135.5C187.694 1135.17 186.939 1135 185.972 1135C184.992 1135 184.166 1135.19 183.495 1135.58C182.824 1135.95 182.283 1136.45 181.87 1137.07C181.457 1137.69 181.16 1138.37 180.98 1139.12C180.799 1139.86 180.709 1140.58 180.709 1141.31L178.851 1140.55C178.851 1139 179.174 1137.57 179.819 1136.26C180.464 1134.94 181.367 1133.88 182.528 1133.08C183.702 1132.27 185.075 1131.86 186.649 1131.86C188.21 1131.86 189.48 1132.18 190.461 1132.81C191.441 1133.44 192.164 1134.31 192.628 1135.42C193.092 1136.53 193.324 1137.81 193.324 1139.26C193.324 1139.77 193.324 1140.44 193.324 1141.25C193.324 1142.05 193.324 1142.96 193.324 1144V1152.72H190.055ZM177.42 1152.72V1132.17H180.709V1152.72H177.42ZM202.651 1152.72V1143.65C202.651 1142.77 202.651 1142.05 202.651 1141.48C202.651 1140.9 202.651 1140.41 202.651 1140.01C202.651 1139.51 202.618 1138.97 202.554 1138.38C202.489 1137.8 202.328 1137.26 202.07 1136.76C201.812 1136.24 201.399 1135.82 200.832 1135.5C200.277 1135.17 199.497 1135 198.491 1135C197.497 1135 196.665 1135.19 195.995 1135.56C195.337 1135.93 194.808 1136.42 194.408 1137.03C194.021 1137.64 193.744 1138.29 193.576 1139C193.408 1139.7 193.324 1140.37 193.324 1141.02L191.467 1140.3C191.467 1138.83 191.777 1137.46 192.396 1136.18C193.028 1134.89 193.918 1133.85 195.066 1133.06C196.227 1132.26 197.601 1131.86 199.187 1131.86C200.671 1131.86 201.909 1132.15 202.902 1132.73C203.908 1133.32 204.663 1134.13 205.166 1135.19C205.682 1136.24 205.94 1137.48 205.94 1138.93C205.94 1139.47 205.94 1140.14 205.94 1140.94C205.94 1141.74 205.94 1142.64 205.94 1143.65V1152.72H202.651ZM210.691 1152.72V1132.17H213.941V1152.72H210.691ZM212.336 1127.45C211.729 1127.45 211.2 1127.28 210.749 1126.95C210.31 1126.6 210.091 1126.13 210.091 1125.54C210.091 1124.96 210.31 1124.5 210.749 1124.16C211.2 1123.81 211.729 1123.64 212.336 1123.64C212.942 1123.64 213.464 1123.81 213.903 1124.16C214.341 1124.5 214.561 1124.96 214.561 1125.54C214.561 1126.13 214.341 1126.6 213.903 1126.95C213.464 1127.28 212.942 1127.45 212.336 1127.45ZM233.603 1152.72V1142.87C233.603 1142.28 233.603 1141.8 233.603 1141.42C233.603 1141.04 233.603 1140.67 233.603 1140.32C233.603 1139.25 233.422 1138.31 233.061 1137.51C232.7 1136.71 232.132 1136.09 231.358 1135.66C230.584 1135.22 229.572 1135 228.321 1135C227.224 1135 226.205 1135.28 225.263 1135.85C224.335 1136.4 223.586 1137.16 223.019 1138.11C222.464 1139.06 222.187 1140.11 222.187 1141.29L220.31 1140.57C220.31 1138.96 220.703 1137.49 221.49 1136.18C222.29 1134.86 223.348 1133.82 224.664 1133.04C225.992 1132.26 227.437 1131.86 228.998 1131.86C230.584 1131.86 231.971 1132.17 233.158 1132.77C234.345 1133.38 235.26 1134.25 235.905 1135.39C236.563 1136.51 236.892 1137.86 236.892 1139.45C236.892 1140.02 236.892 1140.64 236.892 1141.31C236.892 1141.98 236.892 1142.6 236.892 1143.18V1152.72H233.603ZM218.898 1152.72V1132.17H222.187V1152.72H218.898ZM242.534 1143.76V1140.82H258.419L257.839 1141.79C257.839 1141.71 257.839 1141.64 257.839 1141.58C257.839 1141.5 257.839 1141.43 257.839 1141.36C257.839 1140.18 257.587 1139.09 257.084 1138.11C256.594 1137.12 255.859 1136.33 254.878 1135.73C253.898 1135.14 252.685 1134.84 251.241 1134.84C249.783 1134.84 248.5 1135.15 247.39 1135.77C246.281 1136.39 245.417 1137.27 244.797 1138.4C244.178 1139.53 243.869 1140.87 243.869 1142.43C243.869 1144.02 244.165 1145.38 244.759 1146.53C245.365 1147.68 246.223 1148.56 247.332 1149.18C248.442 1149.8 249.757 1150.11 251.279 1150.11C252.363 1150.11 253.305 1150 254.104 1149.78C254.904 1149.55 255.562 1149.25 256.078 1148.87C256.607 1148.48 257.007 1148.07 257.278 1147.61C257.548 1147.16 257.71 1146.71 257.761 1146.26H261.051C260.986 1147.09 260.728 1147.9 260.277 1148.72C259.825 1149.53 259.187 1150.27 258.361 1150.94C257.536 1151.6 256.523 1152.13 255.323 1152.53C254.124 1152.93 252.743 1153.13 251.183 1153.13C249.119 1153.13 247.3 1152.68 245.726 1151.77C244.152 1150.87 242.914 1149.62 242.011 1148.02C241.121 1146.42 240.676 1144.58 240.676 1142.51C240.676 1140.4 241.128 1138.56 242.031 1136.97C242.933 1135.37 244.178 1134.12 245.765 1133.22C247.352 1132.32 249.164 1131.86 251.202 1131.86C253.279 1131.86 255.078 1132.32 256.6 1133.22C258.122 1134.12 259.296 1135.36 260.122 1136.93C260.947 1138.49 261.36 1140.27 261.36 1142.27C261.36 1142.48 261.354 1142.75 261.341 1143.09C261.328 1143.42 261.309 1143.65 261.283 1143.76H242.534ZM277.961 1152.72V1143.65C277.961 1142.85 277.961 1142.16 277.961 1141.58C277.961 1140.98 277.961 1140.49 277.961 1140.09C277.961 1139.58 277.922 1139.04 277.845 1138.46C277.78 1137.87 277.619 1137.31 277.361 1136.8C277.103 1136.27 276.697 1135.84 276.142 1135.5C275.6 1135.17 274.846 1135 273.878 1135C272.898 1135 272.073 1135.19 271.402 1135.58C270.731 1135.95 270.189 1136.45 269.776 1137.07C269.364 1137.69 269.067 1138.37 268.886 1139.12C268.706 1139.86 268.615 1140.58 268.615 1141.31L266.758 1140.55C266.758 1139 267.08 1137.57 267.725 1136.26C268.37 1134.94 269.273 1133.88 270.434 1133.08C271.608 1132.27 272.982 1131.86 274.556 1131.86C276.116 1131.86 277.387 1132.18 278.367 1132.81C279.348 1133.44 280.07 1134.31 280.534 1135.42C280.999 1136.53 281.231 1137.81 281.231 1139.26C281.231 1139.77 281.231 1140.44 281.231 1141.25C281.231 1142.05 281.231 1142.96 281.231 1144V1152.72H277.961ZM265.326 1152.72V1132.17H268.615V1152.72H265.326ZM290.557 1152.72V1143.65C290.557 1142.77 290.557 1142.05 290.557 1141.48C290.557 1140.9 290.557 1140.41 290.557 1140.01C290.557 1139.51 290.525 1138.97 290.461 1138.38C290.396 1137.8 290.235 1137.26 289.977 1136.76C289.719 1136.24 289.306 1135.82 288.738 1135.5C288.184 1135.17 287.403 1135 286.397 1135C285.404 1135 284.572 1135.19 283.901 1135.56C283.243 1135.93 282.714 1136.42 282.315 1137.03C281.928 1137.64 281.65 1138.29 281.483 1139C281.315 1139.7 281.231 1140.37 281.231 1141.02L279.374 1140.3C279.374 1138.83 279.683 1137.46 280.302 1136.18C280.934 1134.89 281.824 1133.85 282.972 1133.06C284.133 1132.26 285.507 1131.86 287.094 1131.86C288.577 1131.86 289.816 1132.15 290.809 1132.73C291.815 1133.32 292.57 1134.13 293.073 1135.19C293.589 1136.24 293.847 1137.48 293.847 1138.93C293.847 1139.47 293.847 1140.14 293.847 1140.94C293.847 1141.74 293.847 1142.64 293.847 1143.65V1152.72H290.557Z" fill="white"/>
<path d="M116.229 1175.87V1194.24H113.345V1175.87H116.229ZM98.7014 1183.88C98.7014 1186.18 100.353 1187.72 102.593 1187.72C104.805 1187.72 106.485 1186.18 106.485 1183.88C106.485 1181.56 104.805 1180.04 102.593 1180.04C100.353 1180.04 98.7014 1181.56 98.7014 1183.88ZM109.285 1183.88C109.285 1187.55 106.401 1190.21 102.593 1190.21C98.7854 1190.21 95.8734 1187.55 95.8734 1183.88C95.8734 1180.18 98.7854 1177.55 102.593 1177.55C106.401 1177.55 109.285 1180.18 109.285 1183.88ZM102.621 1198.33H116.957V1200.68H99.7094V1192.39H102.621V1198.33ZM141.147 1175.9V1194.38H138.263V1175.9H141.147ZM135.631 1188.11L134.147 1190.4C131.263 1189.34 129.191 1187.27 128.099 1184.64C126.951 1187.46 124.851 1189.76 121.883 1190.88L120.399 1188.56C124.375 1187.1 126.587 1183.49 126.587 1179.79V1177.27H129.527V1179.79C129.527 1183.38 131.739 1186.76 135.631 1188.11ZM127.539 1198.33H141.875V1200.68H124.627V1192.64H127.539V1198.33ZM164.553 1185.92L161.725 1185.62C162.369 1183.12 162.397 1181.3 162.397 1179.4H147.893V1177.08H165.253V1179.2C165.253 1181.22 165.253 1183.32 164.553 1185.92ZM156.573 1198.94C160.297 1198.94 162.537 1198.02 162.537 1196.42C162.537 1194.86 160.297 1193.93 156.573 1193.93C152.821 1193.93 150.525 1194.86 150.525 1196.42C150.525 1198.02 152.821 1198.94 156.573 1198.94ZM156.573 1191.72C161.949 1191.72 165.421 1193.51 165.421 1196.42C165.421 1199.36 161.949 1201.16 156.573 1201.16C151.113 1201.16 147.669 1199.36 147.669 1196.42C147.669 1193.51 151.113 1191.72 156.573 1191.72ZM157.133 1187.44H168.053V1189.76H145.261V1187.44H154.221V1182.79H157.133V1187.44ZM174.043 1194.32V1192.03H191.095V1201.1H188.211V1194.32H174.043ZM188.211 1175.84H191.095V1190.94H188.211V1187.88H182.079V1185.53H188.211V1182.51H182.471C180.791 1186.46 176.983 1189.28 171.579 1190.74L170.459 1188.44C176.339 1186.88 179.839 1183.74 180.371 1179.85H171.803V1177.52H183.451C183.451 1178.45 183.367 1179.37 183.171 1180.18H188.211V1175.84ZM203.217 1177.64C207.165 1177.64 210.105 1180.13 210.105 1183.71C210.105 1187.3 207.165 1189.79 203.217 1189.79C199.269 1189.79 196.357 1187.3 196.357 1183.71C196.357 1180.13 199.269 1177.64 203.217 1177.64ZM203.217 1180.1C200.893 1180.1 199.185 1181.5 199.185 1183.71C199.185 1185.9 200.893 1187.32 203.217 1187.32C205.569 1187.32 207.277 1185.9 207.277 1183.71C207.277 1181.5 205.569 1180.1 203.217 1180.1ZM212.961 1175.84H215.873V1201.18H212.961V1175.84ZM195.545 1195.84L195.181 1193.46C199.717 1193.46 206.017 1193.43 211.449 1192.62L211.645 1194.72C206.073 1195.78 200.025 1195.84 195.545 1195.84ZM230.364 1184.13C230.364 1186.88 233.08 1188.61 236.86 1188.61C240.612 1188.61 243.328 1186.88 243.328 1184.13C243.328 1181.39 240.612 1179.65 236.86 1179.65C233.08 1179.65 230.364 1181.39 230.364 1184.13ZM238.288 1195.7H248.34V1198.05H225.436V1195.7H235.404V1190.85C230.784 1190.43 227.564 1187.88 227.564 1184.13C227.564 1180.02 231.484 1177.36 236.86 1177.36C242.208 1177.36 246.156 1180.02 246.156 1184.13C246.156 1187.88 242.908 1190.46 238.288 1190.88V1195.7ZM267.601 1181.47V1179.06H253.041V1176.74H270.541V1183.63H256.009V1186.26H271.101V1188.58H253.097V1181.47H267.601ZM273.257 1190.82L273.285 1193.15H267.601V1201.18H264.717V1193.15H258.865V1201.18H255.981V1193.15H250.325V1190.82H273.257Z" fill="white"/>
<path d="M8.59573 1027.43L6.75776 1013.18C6.4065 1010.46 -1.72961 946.068 7.04365 908.042C11.7652 887.571 6.79857 833.935 3.50656 798.45C1.34184 775.112 -0.365404 756.683 0.0675405 746.676C0.933429 726.785 2.54268 689.756 34.4825 669.498C46.556 661.844 66.4142 657.024 87.4406 651.927C97.6761 649.443 108.263 646.878 116.717 644.199C125.148 641.52 128.734 639.575 130.106 638.677C132.05 632.33 130.008 623.442 127.664 613.256C126.226 606.998 124.739 600.537 123.955 593.675C123.743 591.805 122.754 587.826 121.79 583.971C118.735 571.685 114.112 553.125 116.489 535.121C119.658 511.089 134.199 494.163 158.533 486.158C166.931 483.397 175.688 482 184.551 482C193.414 482 202.171 483.397 210.568 486.158C234.903 494.155 249.444 511.089 252.613 535.121C254.99 553.125 250.375 571.685 247.32 583.971C246.364 587.818 245.367 591.805 245.155 593.675C244.371 600.537 242.884 607.007 241.446 613.264C239.11 623.442 237.068 632.33 239.004 638.677C240.376 639.575 243.962 641.52 252.392 644.199C260.839 646.878 271.426 649.451 281.669 651.927C302.696 657.024 322.562 661.844 334.627 669.498C366.567 689.748 368.177 726.785 369.042 746.676C369.475 756.683 367.768 775.112 365.603 798.45C362.311 833.943 357.337 887.579 362.066 908.05C370.84 946.076 362.703 1010.47 362.352 1013.19L360.514 1027.44H8.58756L8.59573 1027.43Z" fill="#FF4C91"/>
<path d="M352.729 747.37C351.635 722.17 348.351 697.525 325.887 683.278C303.431 669.032 231.668 663.012 224.545 646.576C217.422 630.141 226.734 610.968 228.924 591.796C230.884 574.617 256.15 518.318 205.471 501.662C191.911 497.202 177.199 497.202 163.639 501.662C112.96 518.327 138.218 574.626 140.186 591.796C142.376 610.968 151.688 630.141 144.565 646.576C137.442 663.012 65.6872 669.032 43.2231 683.278C20.7672 697.525 17.4752 722.17 16.3805 747.37C15.2859 772.571 31.1742 876.102 22.9564 911.701C14.7386 947.309 22.9564 1011.08 22.9564 1011.08H346.145C346.145 1011.08 354.363 947.309 346.145 911.701C337.928 876.094 353.816 772.563 352.721 747.37H352.729Z" fill="#4857F6" stroke="#FF4C91" stroke-width="2.2" stroke-miterlimit="10"/>
<path d="M184.118 1003.29C166.735 1003.29 149.825 999.459 133.855 991.903C118.474 984.624 104.685 974.234 92.8646 961.008C81.0444 947.783 71.7484 932.352 65.246 915.149C58.4905 897.284 55.0677 878.365 55.0677 858.915V809.821C55.0677 790.379 58.4905 771.46 65.246 753.587C71.7484 736.384 81.0444 720.953 92.8646 707.728C104.685 694.502 118.474 684.112 133.855 676.833C149.825 669.277 166.735 665.446 184.118 665.446C201.501 665.446 218.41 669.277 234.38 676.833C249.762 684.112 263.551 694.502 275.371 707.728C287.191 720.953 296.479 736.375 302.99 753.587C309.745 771.46 313.168 790.379 313.168 809.821V858.915C313.168 878.357 309.745 897.276 302.99 915.149C296.487 932.352 287.191 947.783 275.371 961.008C263.551 974.234 249.754 984.632 234.38 991.903C218.41 999.459 201.493 1003.29 184.118 1003.29Z" fill="#4857F6" stroke="#FF4C91" stroke-width="2.2" stroke-miterlimit="10"/>
<path d="M184.118 967.412C171.056 967.412 158.345 964.537 146.346 958.86C134.787 953.395 124.421 945.577 115.541 935.636C106.653 925.694 99.6692 914.095 94.7843 901.172C89.7115 887.751 87.1383 873.537 87.1383 858.915V809.821C87.1383 795.207 89.7115 780.985 94.7843 767.564C99.6692 754.632 106.653 743.041 115.541 733.099C124.429 723.158 134.795 715.349 146.346 709.876C158.345 704.198 171.048 701.323 184.118 701.323C197.188 701.323 209.89 704.198 221.89 709.876C233.449 715.341 243.815 723.158 252.695 733.099C261.582 743.041 268.567 754.632 273.451 767.564C278.524 780.985 281.097 795.207 281.097 809.821V858.915C281.097 873.529 278.524 887.751 273.451 901.172C268.567 914.095 261.582 925.694 252.695 935.636C243.807 945.577 233.441 953.395 221.89 958.86C209.89 964.537 197.188 967.412 184.118 967.412Z" fill="#4857F6" stroke="#FF4C91" stroke-width="2.2" stroke-miterlimit="10"/>
<path d="M184.118 931.535C175.369 931.535 166.866 929.607 158.844 925.817C151.108 922.157 144.173 916.929 138.218 910.272C132.263 903.614 127.59 895.854 124.323 887.203C120.933 878.226 119.209 868.709 119.209 858.923V809.829C119.209 800.043 120.933 790.526 124.323 781.548C127.59 772.898 132.271 765.137 138.218 758.48C144.173 751.822 151.108 746.594 158.844 742.935C166.866 739.136 175.369 737.217 184.118 737.217C192.867 737.217 201.37 739.144 209.392 742.935C217.128 746.594 224.063 751.822 230.018 758.48C235.973 765.137 240.646 772.898 243.913 781.548C247.303 790.526 249.027 800.043 249.027 809.829V858.923C249.027 868.709 247.303 878.226 243.913 887.203C240.646 895.854 235.965 903.614 230.018 910.272C224.063 916.929 217.128 922.157 209.392 925.817C201.37 929.615 192.867 931.535 184.118 931.535Z" fill="#4857F6" stroke="#FF4C91" stroke-width="2.2" stroke-miterlimit="10"/>
<path d="M184.118 665.438V1003.29" stroke="#FF4C91" stroke-width="2.76" stroke-miterlimit="10"/>
<path d="M313.176 834.36H55.0677" stroke="#FF4C91" stroke-width="2.41" stroke-miterlimit="10"/>
<path d="M216.956 805.916C216.956 787.775 202.252 773.07 184.114 773.07C165.975 773.07 151.271 787.775 151.271 805.916V862.803C151.271 880.944 165.975 895.65 184.114 895.65C202.252 895.65 216.956 880.944 216.956 862.803V805.916Z" fill="#F4F4F4" stroke="#FF4C91" stroke-width="2.2" stroke-miterlimit="10"/>
<path d="M190.563 752.966V746.979L189.183 747.73V746.48L190.947 745.516H192.05V752.966H193.275V754.077H189.232V752.966H190.563Z" fill="#FF4C91"/>
<path d="M194.37 749.764C194.37 749.086 194.427 748.473 194.549 747.926C194.672 747.379 194.852 746.905 195.097 746.513C195.342 746.121 195.652 745.819 196.036 745.606C196.42 745.394 196.861 745.288 197.376 745.288C197.89 745.288 198.315 745.394 198.691 745.598C199.067 745.802 199.369 746.104 199.614 746.488C199.859 746.872 200.039 747.346 200.153 747.902C200.268 748.457 200.333 749.078 200.333 749.772C200.333 750.467 200.276 751.112 200.161 751.667C200.047 752.223 199.867 752.688 199.622 753.064C199.377 753.44 199.067 753.734 198.691 753.93C198.315 754.126 197.866 754.224 197.351 754.224C196.837 754.224 196.396 754.126 196.02 753.93C195.644 753.734 195.334 753.448 195.097 753.064C194.86 752.68 194.672 752.223 194.558 751.667C194.443 751.112 194.386 750.483 194.386 749.772L194.37 749.764ZM197.359 753.04C197.572 753.04 197.752 752.999 197.899 752.909C198.046 752.819 198.176 752.697 198.274 752.541C198.372 752.386 198.462 752.198 198.519 751.978C198.577 751.757 198.626 751.529 198.658 751.283C198.691 751.038 198.716 750.777 198.724 750.507C198.732 750.238 198.74 749.968 198.74 749.691C198.74 749.437 198.74 749.184 198.732 748.923C198.724 748.661 198.707 748.416 198.675 748.179C198.642 747.942 198.601 747.714 198.544 747.51C198.487 747.305 198.405 747.117 198.307 746.962C198.209 746.807 198.078 746.684 197.931 746.595C197.784 746.505 197.596 746.464 197.384 746.464C197.172 746.464 196.976 746.505 196.82 746.595C196.665 746.684 196.534 746.799 196.428 746.954C196.322 747.109 196.24 747.289 196.175 747.493C196.11 747.697 196.061 747.926 196.028 748.171C195.995 748.416 195.971 748.669 195.963 748.939C195.955 749.209 195.946 749.47 195.946 749.74C195.946 750.009 195.946 750.271 195.963 750.54C195.979 750.81 195.995 751.063 196.028 751.308C196.061 751.553 196.11 751.782 196.175 751.994C196.24 752.207 196.322 752.386 196.42 752.541C196.518 752.697 196.649 752.819 196.804 752.909C196.959 752.999 197.139 753.04 197.351 753.04H197.359Z" fill="#FF4C91"/>
<path d="M234.176 847.135V841.148L232.796 841.899V840.649L234.56 839.686H235.663V847.135H236.888V848.246H232.845V847.135H234.176Z" fill="#FF4C91"/>
<path d="M237.983 843.934C237.983 843.256 238.04 842.643 238.163 842.096C238.285 841.548 238.465 841.074 238.71 840.682C238.955 840.29 239.265 839.988 239.649 839.776C240.033 839.563 240.474 839.457 240.989 839.457C241.504 839.457 241.928 839.563 242.304 839.767C242.68 839.972 242.982 840.274 243.227 840.658C243.472 841.042 243.652 841.516 243.766 842.071C243.881 842.627 243.946 843.247 243.946 843.942C243.946 844.636 243.889 845.281 243.775 845.837C243.66 846.392 243.48 846.858 243.235 847.234C242.99 847.609 242.68 847.904 242.304 848.1C241.928 848.296 241.479 848.394 240.964 848.394C240.45 848.394 240.009 848.296 239.633 848.1C239.257 847.904 238.947 847.618 238.71 847.234C238.473 846.85 238.285 846.392 238.171 845.837C238.056 845.281 237.999 844.652 237.999 843.942L237.983 843.934ZM240.973 847.209C241.185 847.209 241.365 847.168 241.512 847.079C241.659 846.989 241.79 846.866 241.888 846.711C241.986 846.556 242.075 846.368 242.133 846.147C242.19 845.927 242.239 845.698 242.272 845.453C242.304 845.208 242.329 844.946 242.337 844.677C242.345 844.407 242.353 844.138 242.353 843.86C242.353 843.607 242.353 843.354 242.345 843.092C242.337 842.831 242.32 842.586 242.288 842.349C242.255 842.112 242.214 841.883 242.157 841.679C242.1 841.475 242.018 841.287 241.92 841.132C241.822 840.976 241.692 840.854 241.544 840.764C241.397 840.674 241.21 840.633 240.997 840.633C240.785 840.633 240.589 840.674 240.434 840.764C240.278 840.854 240.148 840.968 240.041 841.123C239.935 841.279 239.854 841.458 239.788 841.663C239.723 841.867 239.674 842.096 239.641 842.341C239.608 842.586 239.584 842.839 239.576 843.108C239.568 843.378 239.559 843.639 239.559 843.909C239.559 844.179 239.559 844.44 239.576 844.71C239.592 844.979 239.608 845.232 239.641 845.477C239.674 845.722 239.723 845.951 239.788 846.164C239.854 846.376 239.935 846.556 240.033 846.711C240.131 846.866 240.262 846.989 240.417 847.079C240.572 847.168 240.752 847.209 240.964 847.209H240.973Z" fill="#FF4C91"/>
<path d="M304.003 843.108C304.387 843.108 304.713 843.076 304.983 843.002C305.252 842.929 305.473 842.839 305.645 842.708C305.816 842.578 305.939 842.43 306.02 842.251C306.102 842.071 306.135 841.867 306.135 841.646C306.135 841.328 306.045 841.083 305.873 840.903C305.702 840.723 305.416 840.625 305.024 840.625C304.811 840.625 304.623 840.65 304.452 840.691C304.28 840.731 304.125 840.789 303.986 840.854C303.847 840.919 303.717 840.993 303.602 841.074C303.488 841.156 303.382 841.23 303.284 841.295L302.63 840.241C302.753 840.143 302.908 840.045 303.08 839.955C303.251 839.865 303.439 839.776 303.651 839.702C303.864 839.629 304.076 839.571 304.313 839.522C304.55 839.473 304.795 839.457 305.056 839.457C305.424 839.457 305.775 839.498 306.094 839.58C306.412 839.661 306.698 839.784 306.943 839.947C307.188 840.111 307.376 840.323 307.515 840.576C307.654 840.829 307.728 841.14 307.728 841.491C307.728 841.728 307.679 841.949 307.589 842.161C307.499 842.373 307.376 842.561 307.229 842.733C307.082 842.904 306.919 843.051 306.731 843.174C306.543 843.296 306.355 843.386 306.159 843.443C306.461 843.484 306.731 843.558 306.968 843.664C307.205 843.77 307.409 843.909 307.572 844.089C307.736 844.268 307.858 844.473 307.948 844.726C308.038 844.979 308.079 845.265 308.079 845.584C308.079 846.098 307.997 846.531 307.842 846.891C307.687 847.25 307.466 847.536 307.18 847.756C306.894 847.977 306.568 848.14 306.184 848.238C305.8 848.336 305.383 848.385 304.934 848.385C304.648 848.385 304.378 848.353 304.117 848.296C303.856 848.238 303.611 848.165 303.39 848.083C303.169 848.002 302.973 847.92 302.81 847.83C302.647 847.74 302.516 847.675 302.426 847.618L303.137 846.441C303.137 846.441 303.218 846.498 303.284 846.548C303.349 846.597 303.439 846.646 303.537 846.703C303.635 846.76 303.741 846.817 303.864 846.874C303.986 846.931 304.109 846.989 304.24 847.038C304.37 847.087 304.501 847.127 304.64 847.16C304.779 847.193 304.909 847.209 305.04 847.209C305.473 847.209 305.816 847.078 306.069 846.825C306.323 846.572 306.453 846.188 306.453 845.682C306.453 845.363 306.404 845.102 306.314 844.889C306.225 844.677 306.077 844.513 305.881 844.399C305.685 844.285 305.424 844.195 305.114 844.146C304.803 844.097 304.427 844.072 303.986 844.064L304.003 843.1V843.108Z" fill="#FF4C91"/>
<path d="M190.751 675.559C191.135 675.559 191.462 675.526 191.731 675.453C192.001 675.379 192.221 675.289 192.393 675.159C192.564 675.028 192.687 674.881 192.769 674.701C192.85 674.521 192.883 674.317 192.883 674.097C192.883 673.778 192.793 673.533 192.622 673.353C192.45 673.174 192.164 673.076 191.772 673.076C191.56 673.076 191.372 673.1 191.2 673.141C191.029 673.182 190.874 673.239 190.735 673.304C190.596 673.37 190.465 673.443 190.351 673.525C190.236 673.607 190.13 673.68 190.032 673.745L189.379 672.692C189.501 672.594 189.656 672.496 189.828 672.406C189.999 672.316 190.187 672.226 190.4 672.153C190.612 672.079 190.825 672.022 191.061 671.973C191.298 671.924 191.543 671.907 191.805 671.907C192.172 671.907 192.524 671.948 192.842 672.03C193.161 672.112 193.447 672.234 193.692 672.398C193.937 672.561 194.125 672.773 194.264 673.027C194.402 673.28 194.476 673.59 194.476 673.941C194.476 674.178 194.427 674.399 194.337 674.611C194.247 674.824 194.125 675.012 193.978 675.183C193.831 675.355 193.667 675.502 193.479 675.624C193.291 675.747 193.104 675.837 192.908 675.894C193.21 675.935 193.479 676.008 193.716 676.114C193.953 676.221 194.157 676.359 194.321 676.539C194.484 676.719 194.607 676.923 194.697 677.176C194.786 677.43 194.827 677.715 194.827 678.034C194.827 678.549 194.746 678.982 194.59 679.341C194.435 679.7 194.215 679.986 193.929 680.207C193.643 680.427 193.316 680.591 192.932 680.689C192.548 680.787 192.132 680.836 191.682 680.836C191.396 680.836 191.127 680.803 190.865 680.746C190.604 680.689 190.359 680.615 190.138 680.534C189.918 680.452 189.722 680.37 189.558 680.28C189.395 680.191 189.264 680.125 189.174 680.068L189.885 678.892C189.885 678.892 189.967 678.949 190.032 678.998C190.097 679.047 190.187 679.096 190.285 679.153C190.383 679.21 190.49 679.268 190.612 679.325C190.735 679.382 190.857 679.439 190.988 679.488C191.119 679.537 191.249 679.578 191.388 679.611C191.527 679.643 191.658 679.66 191.788 679.66C192.221 679.66 192.564 679.529 192.818 679.276C193.071 679.022 193.202 678.639 193.202 678.132C193.202 677.813 193.153 677.552 193.063 677.34C192.973 677.127 192.826 676.964 192.63 676.85C192.434 676.735 192.172 676.645 191.862 676.596C191.552 676.547 191.176 676.523 190.735 676.515L190.751 675.551V675.559Z" fill="#FF4C91"/>
<path d="M275.273 841.589C275.093 841.491 274.881 841.401 274.644 841.319C274.407 841.238 274.13 841.205 273.827 841.205C273.55 841.205 273.304 841.262 273.092 841.385C272.88 841.507 272.7 841.671 272.545 841.883C272.39 842.095 272.267 842.365 272.169 842.675C272.071 842.986 272.006 843.329 271.957 843.721C272.046 843.631 272.161 843.549 272.292 843.476C272.422 843.402 272.569 843.337 272.716 843.288C272.863 843.239 273.027 843.198 273.19 843.165C273.353 843.133 273.517 843.125 273.672 843.125C274.072 843.125 274.424 843.182 274.734 843.296C275.044 843.411 275.306 843.582 275.526 843.794C275.747 844.007 275.902 844.276 276.017 844.595C276.131 844.914 276.188 845.265 276.188 845.665C276.188 846.065 276.123 846.449 276 846.784C275.878 847.119 275.682 847.405 275.428 847.642C275.175 847.879 274.865 848.067 274.481 848.197C274.097 848.328 273.664 848.393 273.166 848.393C272.708 848.393 272.316 848.32 271.981 848.173C271.646 848.026 271.377 847.805 271.156 847.519C270.936 847.234 270.78 846.874 270.674 846.441C270.568 846.008 270.519 845.51 270.519 844.946C270.519 844.178 270.584 843.492 270.707 842.888C270.829 842.283 271.034 841.785 271.311 841.377C271.589 840.968 271.948 840.658 272.381 840.445C272.814 840.233 273.362 840.127 273.991 840.127C274.121 840.127 274.268 840.135 274.424 840.151C274.579 840.168 274.734 840.192 274.889 840.233C275.044 840.274 275.2 840.315 275.347 840.364C275.494 840.413 275.633 840.478 275.747 840.543L275.265 841.597L275.273 841.589ZM274.767 845.69C274.767 845.461 274.734 845.257 274.677 845.069C274.62 844.881 274.522 844.726 274.399 844.587C274.277 844.448 274.13 844.35 273.95 844.276C273.77 844.203 273.566 844.17 273.329 844.17C273.174 844.17 273.035 844.178 272.912 844.195C272.79 844.211 272.675 844.244 272.577 844.276C272.479 844.309 272.381 844.358 272.292 844.415C272.202 844.472 272.12 844.538 272.038 844.611C272.022 844.652 272.006 844.701 271.989 844.75C271.973 844.799 271.965 844.856 271.965 844.914C271.965 844.971 271.957 845.028 271.948 845.077C271.94 845.126 271.948 845.175 271.948 845.208C271.948 845.583 271.989 845.902 272.063 846.163C272.136 846.425 272.234 846.637 272.357 846.809C272.479 846.98 272.626 847.095 272.79 847.176C272.953 847.258 273.125 847.291 273.304 847.291C273.501 847.291 273.688 847.258 273.86 847.193C274.032 847.127 274.195 847.021 274.326 846.89C274.456 846.76 274.562 846.588 274.644 846.384C274.726 846.18 274.759 845.943 274.759 845.681L274.767 845.69Z" fill="#FF4C91"/>
<path d="M193.937 708.634C193.757 708.536 193.545 708.446 193.308 708.365C193.071 708.283 192.793 708.25 192.491 708.25C192.213 708.25 191.968 708.308 191.756 708.43C191.543 708.553 191.364 708.716 191.208 708.928C191.053 709.141 190.931 709.41 190.833 709.721C190.735 710.031 190.669 710.374 190.62 710.766C190.71 710.677 190.825 710.595 190.955 710.521C191.086 710.448 191.233 710.382 191.38 710.333C191.527 710.284 191.69 710.244 191.854 710.211C192.017 710.178 192.181 710.17 192.336 710.17C192.736 710.17 193.087 710.227 193.398 710.342C193.708 710.456 193.969 710.627 194.19 710.84C194.411 711.052 194.566 711.322 194.68 711.64C194.795 711.959 194.852 712.31 194.852 712.711C194.852 713.111 194.786 713.495 194.664 713.83C194.541 714.165 194.345 714.45 194.092 714.687C193.839 714.924 193.528 715.112 193.144 715.243C192.761 715.374 192.328 715.439 191.829 715.439C191.372 715.439 190.98 715.365 190.645 715.218C190.31 715.071 190.04 714.851 189.82 714.565C189.599 714.279 189.444 713.92 189.338 713.487C189.232 713.054 189.183 712.555 189.183 711.992C189.183 711.224 189.248 710.538 189.37 709.933C189.493 709.329 189.697 708.83 189.975 708.422C190.253 708.014 190.612 707.703 191.045 707.491C191.478 707.278 192.025 707.172 192.654 707.172C192.785 707.172 192.932 707.18 193.087 707.197C193.242 707.213 193.398 707.237 193.553 707.278C193.708 707.319 193.863 707.36 194.01 707.409C194.157 707.458 194.296 707.523 194.411 707.589L193.929 708.643L193.937 708.634ZM193.43 712.735C193.43 712.506 193.398 712.302 193.34 712.114C193.283 711.926 193.185 711.771 193.063 711.632C192.94 711.493 192.793 711.395 192.613 711.322C192.434 711.248 192.23 711.216 191.993 711.216C191.837 711.216 191.699 711.224 191.576 711.24C191.454 711.257 191.339 711.289 191.241 711.322C191.143 711.355 191.045 711.404 190.955 711.461C190.865 711.518 190.784 711.583 190.702 711.657C190.686 711.698 190.669 711.747 190.653 711.796C190.637 711.845 190.628 711.902 190.628 711.959C190.628 712.016 190.62 712.073 190.612 712.122C190.604 712.171 190.612 712.22 190.612 712.253C190.612 712.629 190.653 712.947 190.726 713.209C190.8 713.47 190.898 713.683 191.021 713.854C191.143 714.026 191.29 714.14 191.454 714.222C191.617 714.303 191.788 714.336 191.968 714.336C192.164 714.336 192.352 714.303 192.524 714.238C192.695 714.173 192.859 714.067 192.989 713.936C193.12 713.805 193.226 713.634 193.308 713.429C193.39 713.225 193.422 712.988 193.422 712.727L193.43 712.735Z" fill="#FF4C91"/>
<path d="M247.475 768.928C247.246 770.202 248.014 770.651 249.468 770.096C248.112 771.378 248.602 775.095 250.024 774.286C248.602 775.095 249.092 778.795 250.571 778.461C249.084 778.795 247.72 781.802 249.027 781.851C247.72 781.802 249.901 784.996 251.486 785.461C249.901 785.004 249.934 785.298 251.527 785.796C250.024 785.976 249.484 786.678 250.089 787.667C248.659 786.956 245.857 786.417 246.936 787.054C245.866 786.417 244.436 788.386 245.327 789.276C244.436 788.386 239.11 790.183 239.322 791.302C239.11 790.183 233.572 792.053 233.082 793.409C233.58 792.053 232.583 792.388 231.962 793.785C231.66 792.699 230.721 792.364 229.593 792.952C230.484 791.645 230.124 790.575 229.185 791.743C230.124 790.575 229.422 788.5 228.393 789.399C229.414 788.492 228.883 786.915 227.788 787.618C228.883 786.915 228.319 785.257 227.159 785.747C228.327 785.257 226.71 785.118 225.338 785.592C226.71 785.118 225.534 781.63 224.006 781.655C225.525 781.622 224.954 775.283 223.361 774.499C224.954 775.283 226.759 777.529 225.395 777.031C226.481 776.688 225.452 773.486 225.166 772.293C226.555 773.322 227.045 773.249 225.722 772.211C227.045 773.249 229.324 772.906 228.287 771.819C229.324 772.906 234.045 772.187 233.613 771.011C234.045 772.187 236.153 771.868 235.99 770.651C236.153 771.868 239.968 771.288 240.286 769.998C239.96 771.288 244.044 770.668 244.894 769.303C244.052 770.676 246.315 770.333 247.442 768.919L247.475 768.928Z" fill="#FF4C91"/>
<path d="M239.69 774.033C239.584 774.638 239.951 774.858 240.638 774.589C239.992 775.201 240.221 776.966 240.899 776.582C240.221 776.966 240.458 778.73 241.16 778.567C240.458 778.722 239.804 780.16 240.425 780.176C239.804 780.152 240.842 781.671 241.593 781.892C240.834 781.671 240.858 781.818 241.618 782.047C240.899 782.128 240.646 782.463 240.932 782.937C240.254 782.602 238.922 782.341 239.429 782.643C238.914 782.341 238.236 783.28 238.661 783.697C238.236 783.272 235.704 784.13 235.802 784.661C235.704 784.13 233.065 785.02 232.828 785.665C233.065 785.02 232.591 785.175 232.297 785.845C232.158 785.331 231.709 785.167 231.17 785.453C231.595 784.832 231.423 784.318 230.974 784.881C231.423 784.326 231.088 783.337 230.598 783.77C231.088 783.337 230.835 782.586 230.312 782.921C230.835 782.586 230.566 781.794 230.01 782.03C230.566 781.794 229.798 781.736 229.144 781.957C229.798 781.728 229.234 780.07 228.515 780.086C229.242 780.07 228.964 777.056 228.205 776.68C228.964 777.047 229.822 778.118 229.177 777.889C229.691 777.725 229.201 776.206 229.071 775.634C229.732 776.124 229.969 776.092 229.332 775.593C229.961 776.092 231.047 775.92 230.557 775.406C231.047 775.92 233.302 775.577 233.09 775.022C233.294 775.577 234.299 775.43 234.225 774.85C234.307 775.43 236.12 775.152 236.267 774.54C236.112 775.152 238.056 774.858 238.457 774.205C238.056 774.858 239.135 774.695 239.674 774.017L239.69 774.033Z" fill="#F4F4F4"/>
<path d="M213.044 828.021C212.815 829.295 213.583 829.744 215.037 829.189C213.681 830.471 214.171 834.188 215.592 833.379C214.171 834.188 214.661 837.889 216.14 837.554C214.653 837.889 213.289 840.895 214.596 840.944C213.289 840.895 215.47 844.089 217.055 844.554C215.47 844.097 215.502 844.391 217.095 844.889C215.592 845.069 215.053 845.771 215.658 846.76C214.228 846.049 211.426 845.51 212.505 846.147C211.434 845.51 210.005 847.479 210.895 848.369C210.005 847.479 204.679 849.276 204.891 850.395C204.679 849.276 199.14 851.146 198.65 852.502C199.149 851.146 198.152 851.481 197.531 852.878C197.229 851.792 196.29 851.457 195.162 852.045C196.053 850.738 195.693 849.668 194.754 850.836C195.693 849.668 194.991 847.593 193.961 848.492C194.983 847.585 194.452 846.008 193.357 846.711C194.452 846.008 193.888 844.35 192.728 844.84C193.896 844.35 192.279 844.211 190.906 844.685C192.279 844.211 191.102 840.723 189.575 840.748C191.094 840.715 190.522 834.376 188.929 833.592C190.522 834.376 192.328 836.622 190.964 836.124C192.05 835.781 191.021 832.579 190.735 831.386C192.123 832.415 192.614 832.342 191.29 831.304C192.614 832.342 194.893 831.999 193.855 830.912C194.893 831.999 199.614 831.28 199.181 830.104C199.614 831.28 201.722 830.961 201.558 829.744C201.722 830.961 205.537 830.381 205.855 829.091C205.528 830.381 209.613 829.761 210.462 828.396C209.621 829.769 211.884 829.426 213.011 828.012L213.044 828.021Z" fill="#FF4C91"/>
<path d="M205.251 833.126C205.144 833.731 205.512 833.951 206.198 833.682C205.553 834.294 205.782 836.059 206.46 835.675C205.782 836.059 206.019 837.823 206.721 837.66C206.019 837.815 205.365 839.253 205.986 839.269C205.365 839.245 206.402 840.764 207.154 840.985C206.394 840.764 206.419 840.911 207.178 841.14C206.46 841.221 206.206 841.556 206.492 842.03C205.814 841.695 204.483 841.434 204.989 841.736C204.475 841.434 203.797 842.373 204.221 842.79C203.797 842.365 201.264 843.223 201.362 843.754C201.264 843.223 198.626 844.113 198.389 844.759C198.626 844.113 198.152 844.268 197.858 844.938C197.719 844.424 197.27 844.26 196.731 844.546C197.155 843.925 196.984 843.411 196.535 843.974C196.984 843.419 196.649 842.43 196.159 842.863C196.649 842.43 196.396 841.679 195.873 842.014C196.396 841.679 196.126 840.887 195.571 841.123C196.126 840.887 195.358 840.829 194.705 841.05C195.358 840.821 194.795 839.163 194.076 839.179C194.803 839.163 194.525 836.149 193.765 835.773C194.525 836.14 195.383 837.211 194.737 836.982C195.252 836.818 194.762 835.299 194.631 834.727C195.293 835.217 195.53 835.185 194.893 834.686C195.522 835.185 196.608 835.013 196.118 834.499C196.608 835.013 198.863 834.67 198.65 834.115C198.855 834.67 199.859 834.523 199.786 833.943C199.867 834.523 201.681 834.245 201.828 833.633C201.673 834.245 203.617 833.951 204.017 833.298C203.617 833.951 204.695 833.788 205.234 833.11L205.251 833.126Z" fill="#F4F4F4"/>
<path d="M151.353 744.846C151.124 746.121 151.892 746.57 153.346 746.014C151.99 747.297 152.48 751.014 153.902 750.205C152.48 751.014 152.97 754.714 154.449 754.379C152.962 754.714 151.598 757.72 152.905 757.769C151.598 757.72 153.779 760.914 155.364 761.38C153.779 760.922 153.812 761.217 155.405 761.715C153.902 761.895 153.363 762.597 153.967 763.585C152.538 762.875 149.736 762.336 150.814 762.973C149.744 762.336 148.314 764.304 149.205 765.195C148.314 764.304 142.988 766.101 143.201 767.221C142.988 766.101 137.45 767.972 136.96 769.328C137.458 767.972 136.461 768.307 135.841 769.704C135.538 768.617 134.599 768.282 133.472 768.871C134.362 767.564 134.003 766.494 133.063 767.662C134.003 766.494 133.3 764.419 132.271 765.317C133.292 764.41 132.761 762.834 131.666 763.536C132.761 762.834 132.197 761.176 131.037 761.666C132.205 761.176 130.588 761.037 129.216 761.511C130.588 761.037 129.412 757.549 127.884 757.573C129.404 757.541 128.832 751.202 127.239 750.417C128.832 751.202 130.637 753.448 129.273 752.95C130.359 752.607 129.33 749.404 129.044 748.212C130.433 749.241 130.923 749.168 129.6 748.13C130.923 749.168 133.202 748.824 132.165 747.738C133.202 748.824 137.924 748.106 137.491 746.929C137.924 748.106 140.031 747.787 139.868 746.57C140.031 747.787 143.846 747.207 144.165 745.916C143.838 747.207 147.922 746.586 148.772 745.222C147.93 746.594 150.193 746.251 151.32 744.838L151.353 744.846Z" fill="#FF4C91"/>
<path d="M143.56 749.952C143.454 750.556 143.821 750.777 144.508 750.507C143.862 751.12 144.091 752.884 144.769 752.501C144.091 752.884 144.328 754.649 145.03 754.486C144.328 754.641 143.674 756.078 144.295 756.095C143.674 756.07 144.712 757.59 145.463 757.81C144.704 757.59 144.728 757.737 145.488 757.965C144.769 758.047 144.516 758.382 144.802 758.856C144.124 758.521 142.792 758.26 143.299 758.562C142.784 758.26 142.106 759.199 142.531 759.616C142.106 759.191 139.574 760.048 139.672 760.579C139.574 760.048 136.935 760.939 136.698 761.584C136.935 760.939 136.461 761.094 136.167 761.764C136.028 761.249 135.579 761.086 135.04 761.372C135.465 760.751 135.293 760.236 134.844 760.8C135.293 760.245 134.958 759.256 134.468 759.689C134.958 759.256 134.705 758.505 134.182 758.839C134.705 758.505 134.435 757.712 133.88 757.949C134.435 757.712 133.668 757.655 133.014 757.876C133.668 757.647 133.104 755.989 132.385 756.005C133.112 755.989 132.834 752.974 132.075 752.599C132.834 752.966 133.692 754.036 133.047 753.808C133.561 753.644 133.071 752.125 132.941 751.553C133.602 752.043 133.839 752.01 133.202 751.512C133.831 752.01 134.917 751.839 134.427 751.324C134.917 751.839 137.172 751.496 136.96 750.94C137.164 751.496 138.169 751.349 138.095 750.769C138.177 751.349 139.99 751.071 140.137 750.458C139.982 751.071 141.926 750.777 142.326 750.123C141.926 750.777 143.004 750.614 143.544 749.936L143.56 749.952Z" fill="#F4F4F4"/>
<path d="M285.378 877.156C285.149 878.43 285.917 878.879 287.371 878.324C286.015 879.607 286.505 883.323 287.926 882.515C286.505 883.323 286.995 887.024 288.474 886.689C286.987 887.024 285.623 890.03 286.93 890.079C285.623 890.03 287.804 893.224 289.389 893.689C287.804 893.232 287.837 893.526 289.43 894.024C287.927 894.204 287.387 894.907 287.992 895.895C286.562 895.184 283.76 894.645 284.839 895.282C283.769 894.645 282.339 896.614 283.229 897.504C282.339 896.614 277.013 898.411 277.225 899.53C277.013 898.411 271.475 900.282 270.984 901.638C271.483 900.282 270.486 900.617 269.865 902.013C269.563 900.927 268.624 900.592 267.496 901.18C268.387 899.873 268.027 898.803 267.088 899.971C268.027 898.803 267.325 896.728 266.296 897.627C267.317 896.72 266.786 895.143 265.691 895.846C266.786 895.143 266.222 893.485 265.062 893.975C266.23 893.485 264.613 893.346 263.24 893.82C264.613 893.346 263.437 889.858 261.909 889.883C263.428 889.85 262.857 883.511 261.264 882.727C262.857 883.511 264.662 885.758 263.298 885.259C264.384 884.916 263.355 881.714 263.069 880.521C264.458 881.551 264.948 881.477 263.624 880.44C264.948 881.477 267.227 881.134 266.189 880.048C267.227 881.134 271.948 880.415 271.515 879.239C271.948 880.415 274.056 880.097 273.893 878.879C274.056 880.097 277.871 879.517 278.189 878.226C277.863 879.517 281.947 878.896 282.797 877.532C281.955 878.904 284.218 878.561 285.345 877.148L285.378 877.156Z" fill="#FF4C91"/>
<path d="M277.585 882.261C277.479 882.866 277.846 883.087 278.532 882.817C277.887 883.43 278.116 885.194 278.794 884.81C278.116 885.194 278.353 886.959 279.055 886.795C278.353 886.95 277.699 888.388 278.32 888.404C277.699 888.38 278.737 889.899 279.488 890.12C278.729 889.899 278.753 890.046 279.513 890.275C278.794 890.357 278.541 890.692 278.827 891.165C278.149 890.83 276.817 890.569 277.323 890.871C276.809 890.569 276.131 891.509 276.556 891.925C276.131 891.5 273.599 892.358 273.697 892.889C273.599 892.358 270.96 893.248 270.723 893.894C270.96 893.248 270.486 893.404 270.192 894.073C270.053 893.559 269.604 893.395 269.065 893.681C269.49 893.061 269.318 892.546 268.869 893.11C269.318 892.554 268.983 891.566 268.493 891.999C268.983 891.566 268.73 890.814 268.207 891.149C268.73 890.814 268.46 890.022 267.905 890.259C268.46 890.022 267.693 889.965 267.039 890.185C267.693 889.956 267.129 888.298 266.41 888.315C267.137 888.298 266.859 885.284 266.1 884.908C266.859 885.276 267.717 886.346 267.072 886.117C267.586 885.954 267.096 884.434 266.965 883.863C267.627 884.353 267.864 884.32 267.227 883.822C267.856 884.32 268.942 884.148 268.452 883.634C268.942 884.148 271.197 883.805 270.985 883.25C271.189 883.805 272.194 883.658 272.12 883.078C272.202 883.658 274.015 883.381 274.162 882.768C274.007 883.381 275.951 883.087 276.351 882.433C275.951 883.087 277.029 882.923 277.569 882.245L277.585 882.261Z" fill="#F4F4F4"/>
<path d="M109.039 874.248C109.774 876.053 113.466 875.416 113.466 873.48C113.466 875.416 115.255 875.106 115.607 873.104C115.255 875.106 118.163 874.599 119.086 872.5C118.155 874.599 122.762 873.799 124.6 871.536C122.762 873.79 122.762 876.462 124.6 874.73C122.762 876.462 122.762 880.905 124.6 880.056C122.762 880.905 122.762 883.274 124.6 882.899C122.762 883.274 122.762 887.138 124.6 887.514C122.762 887.13 121.749 887.775 123.391 888.29C121.749 887.775 119.928 888.952 121.21 889.695C119.928 888.952 117.028 890.814 117.739 891.925C117.036 890.814 114.953 892.154 115.247 893.526C114.953 892.154 113.466 893.11 113.466 894.67C113.466 893.11 110.885 894.768 110.37 896.655C110.885 894.76 108.01 896.606 106.931 898.86C108.01 896.606 107.005 892.734 105.73 894.229C107.005 892.734 106.286 889.948 104.865 890.888C106.286 889.948 105.51 886.967 103.933 887.318C105.51 886.967 104.162 881.796 102.324 881.126C104.162 881.796 105.984 879.933 104.505 878.888C105.984 879.933 108.206 877.654 107.168 876.159C108.206 877.654 109.766 876.053 109.039 874.248Z" fill="#FF4C91"/>
<path d="M119.634 886.705C118.711 886.648 118.613 886.771 119.299 887.138C118.498 886.869 116.685 888.339 117.126 888.903C116.685 888.347 115.721 889.131 115.966 889.842C115.721 889.131 114.144 890.406 114.079 891.37C114.144 890.406 112.535 891.704 112.151 892.93C112.061 892.088 111.367 891.974 110.354 892.644C110.806 891.86 110.806 891.86 110.354 892.644C111.032 891.468 110.003 889.883 109.12 890.741C110.003 889.875 109.455 889.033 108.467 889.728C109.455 889.033 108.565 887.653 107.397 888.078C108.565 887.653 108.998 887.048 107.92 887.351C108.998 887.048 109.79 885.945 108.867 886.027C109.79 885.945 111.048 884.189 110.37 883.928C111.04 884.189 111.947 882.931 111.449 882.417C111.947 882.931 112.592 882.024 112.225 881.338C112.592 882.033 113.711 880.464 113.564 879.468C113.711 880.472 114.373 879.541 114.357 878.357C114.692 879.092 115.312 878.978 116.031 878.054C115.77 879.288 116.423 879.737 116.815 878.585C116.423 879.729 117.485 880.456 118.09 879.451C117.485 880.456 118.629 881.224 119.454 880.374C118.629 881.224 119.887 882.082 120.965 881.395C120.304 882.359 120.451 882.899 121.39 882.923C120.246 883.348 119.977 883.92 121.071 883.601C119.977 883.92 119.209 885.57 120.157 885.578C119.217 885.57 118.776 886.509 119.634 886.705Z" fill="#F4F4F4"/>
<path d="M202.383 574.536C203.119 576.341 206.811 575.704 206.811 573.768C206.811 575.704 208.6 575.394 208.951 573.392C208.6 575.394 211.508 574.887 212.431 572.788C211.5 574.887 216.107 574.087 217.945 571.824C216.107 574.079 216.107 576.75 217.945 575.018C216.107 576.75 216.107 581.194 217.945 580.344C216.107 581.194 216.107 583.562 217.945 583.187C216.107 583.562 216.107 587.426 217.945 587.802C216.107 587.418 215.094 588.063 216.736 588.578C215.094 588.063 213.272 589.24 214.555 589.983C213.272 589.24 210.372 591.102 211.083 592.213C210.381 591.102 208.297 592.442 208.592 593.814C208.297 592.442 206.811 593.398 206.811 594.958C206.811 593.398 204.229 595.056 203.715 596.943C204.229 595.048 201.354 596.894 200.276 599.148C201.354 596.894 200.349 593.022 199.075 594.517C200.349 593.022 199.63 590.236 198.209 591.176C199.63 590.236 198.854 587.255 197.278 587.606C198.854 587.255 197.507 582.084 195.669 581.414C197.507 582.084 199.328 580.221 197.85 579.176C199.328 580.221 201.55 577.942 200.513 576.447C201.55 577.942 203.11 576.341 202.383 574.536Z" fill="#FF4C91"/>
<path d="M212.978 586.993C212.055 586.936 211.957 587.059 212.643 587.426C211.843 587.157 210.029 588.627 210.47 589.191C210.029 588.635 209.065 589.419 209.31 590.13C209.065 589.419 207.489 590.694 207.423 591.658C207.489 590.694 205.879 591.993 205.496 593.218C205.406 592.376 204.711 592.262 203.698 592.932C204.15 592.148 204.15 592.148 203.698 592.932C204.376 591.756 203.347 590.171 202.465 591.029C203.347 590.163 202.8 589.321 201.811 590.016C202.8 589.321 201.909 587.941 200.741 588.366C201.909 587.941 202.342 587.336 201.264 587.639C202.342 587.336 203.135 586.234 202.212 586.315C203.135 586.234 204.393 584.477 203.715 584.216C204.385 584.477 205.291 583.219 204.793 582.705C205.291 583.219 205.937 582.313 205.569 581.626C205.937 582.321 207.056 580.752 206.909 579.756C207.056 580.76 207.717 579.829 207.701 578.645C208.036 579.38 208.657 579.266 209.376 578.343C209.114 579.576 209.768 580.025 210.16 578.873C209.768 580.017 210.83 580.744 211.434 579.739C210.83 580.744 211.973 581.512 212.798 580.662C211.973 581.512 213.231 582.37 214.31 581.684C213.648 582.647 213.795 583.187 214.734 583.211C213.591 583.636 213.321 584.208 214.416 583.889C213.321 584.208 212.553 585.858 213.501 585.866C212.562 585.858 212.12 586.797 212.978 586.993Z" fill="#F4F4F4"/>
</svg>
