<svg width="424" height="1228" viewBox="0 0 424 1228" fill="none" xmlns="http://www.w3.org/2000/svg">
<path d="M99 0H87V1126H99V0Z" fill="#4857F6"/>
<path d="M337 0H325V1086H337V0Z" fill="#4857F6"/>
<rect x="42.6748" y="1053.85" width="339.352" height="174" fill="black"/>
<path d="M131.267 1104.72H127.959V1076.18H135.969C138.175 1076.18 140.007 1076.6 141.464 1077.42C142.922 1078.23 144.012 1079.33 144.734 1080.71C145.457 1082.09 145.818 1083.63 145.818 1085.32C145.818 1087 145.444 1088.57 144.695 1090C143.96 1091.43 142.857 1092.58 141.387 1093.46C139.929 1094.33 138.123 1094.76 135.969 1094.76H131.267V1104.72ZM131.267 1093.54L129.777 1091.86H135.563C137.111 1091.86 138.394 1091.58 139.413 1091.04C140.445 1090.49 141.213 1089.72 141.716 1088.74C142.232 1087.76 142.49 1086.62 142.49 1085.32C142.49 1084 142.245 1082.88 141.754 1081.95C141.264 1081.02 140.51 1080.31 139.491 1079.82C138.472 1079.33 137.162 1079.08 135.563 1079.08H129.777L131.267 1077.21V1093.54ZM158.001 1105.09C155.937 1105.09 154.112 1104.63 152.525 1103.72C150.951 1102.79 149.713 1101.52 148.81 1099.92C147.92 1098.31 147.475 1096.48 147.475 1094.43C147.475 1092.38 147.92 1090.56 148.81 1088.97C149.713 1087.39 150.951 1086.14 152.525 1085.24C154.112 1084.33 155.937 1083.88 158.001 1083.88C160.065 1083.88 161.884 1084.33 163.457 1085.24C165.044 1086.14 166.282 1087.39 167.172 1088.97C168.075 1090.56 168.527 1092.38 168.527 1094.43C168.527 1096.48 168.075 1098.31 167.172 1099.92C166.282 1101.52 165.044 1102.79 163.457 1103.72C161.884 1104.63 160.065 1105.09 158.001 1105.09ZM158.001 1102.07C159.42 1102.07 160.671 1101.76 161.755 1101.12C162.838 1100.49 163.683 1099.6 164.289 1098.45C164.909 1097.31 165.218 1095.96 165.218 1094.43C165.218 1092.89 164.909 1091.56 164.289 1090.44C163.683 1089.31 162.838 1088.44 161.755 1087.83C160.671 1087.21 159.42 1086.9 158.001 1086.9C156.595 1086.9 155.344 1087.21 154.247 1087.83C153.164 1088.44 152.312 1089.31 151.693 1090.44C151.087 1091.56 150.784 1092.89 150.784 1094.43C150.784 1095.96 151.087 1097.31 151.693 1098.45C152.312 1099.6 153.164 1100.49 154.247 1101.12C155.344 1101.76 156.595 1102.07 158.001 1102.07ZM172.697 1104.72V1084.17H175.947V1104.72H172.697ZM174.341 1079.45C173.735 1079.45 173.206 1079.28 172.755 1078.95C172.316 1078.6 172.097 1078.13 172.097 1077.54C172.097 1076.96 172.316 1076.5 172.755 1076.16C173.206 1075.81 173.735 1075.64 174.341 1075.64C174.947 1075.64 175.47 1075.81 175.908 1076.16C176.347 1076.5 176.566 1076.96 176.566 1077.54C176.566 1078.13 176.347 1078.6 175.908 1078.95C175.47 1079.28 174.947 1079.45 174.341 1079.45ZM188.759 1105.11C187.521 1105.11 186.373 1104.98 185.315 1104.72C184.27 1104.45 183.354 1104.06 182.567 1103.56C181.793 1103.05 181.187 1102.41 180.748 1101.67C180.323 1100.92 180.11 1100.06 180.11 1099.09C180.11 1098.99 180.11 1098.89 180.11 1098.78C180.11 1098.67 180.11 1098.57 180.11 1098.49H183.419C183.419 1098.57 183.419 1098.63 183.419 1098.69C183.419 1098.74 183.419 1098.81 183.419 1098.92C183.419 1099.96 183.902 1100.76 184.87 1101.32C185.837 1101.86 187.159 1102.13 188.836 1102.13C189.868 1102.13 190.791 1102.03 191.603 1101.82C192.416 1101.61 193.054 1101.3 193.519 1100.87C193.996 1100.45 194.235 1099.91 194.235 1099.27C194.235 1098.2 193.732 1097.43 192.725 1096.98C191.732 1096.52 190.242 1096.12 188.256 1095.78C187.211 1095.6 186.218 1095.37 185.276 1095.09C184.334 1094.79 183.496 1094.41 182.761 1093.94C182.038 1093.48 181.464 1092.91 181.039 1092.22C180.626 1091.53 180.42 1090.69 180.42 1089.73C180.42 1088.48 180.787 1087.42 181.522 1086.55C182.271 1085.68 183.277 1085.01 184.541 1084.56C185.805 1084.1 187.211 1083.86 188.759 1083.86C190.255 1083.86 191.635 1084.1 192.9 1084.58C194.164 1085.06 195.176 1085.75 195.937 1086.67C196.711 1087.57 197.098 1088.69 197.098 1090.02C197.098 1090.07 197.098 1090.13 197.098 1090.21C197.098 1090.27 197.098 1090.34 197.098 1090.4H193.809C193.809 1090.34 193.809 1090.29 193.809 1090.25C193.809 1090.21 193.809 1090.17 193.809 1090.11C193.809 1089.37 193.57 1088.75 193.093 1088.28C192.616 1087.79 191.997 1087.42 191.236 1087.19C190.475 1086.95 189.662 1086.82 188.798 1086.82C187.985 1086.82 187.185 1086.91 186.398 1087.1C185.611 1087.26 184.96 1087.55 184.444 1087.95C183.928 1088.35 183.67 1088.89 183.67 1089.59C183.67 1090.29 183.909 1090.85 184.386 1091.27C184.876 1091.69 185.56 1092.03 186.437 1092.3C187.327 1092.56 188.372 1092.8 189.572 1093.02C190.642 1093.21 191.655 1093.45 192.609 1093.75C193.564 1094.04 194.402 1094.4 195.125 1094.85C195.86 1095.31 196.434 1095.88 196.847 1096.58C197.273 1097.26 197.485 1098.1 197.485 1099.09C197.485 1100.1 197.253 1100.97 196.789 1101.72C196.337 1102.47 195.705 1103.1 194.893 1103.6C194.093 1104.1 193.164 1104.48 192.106 1104.72C191.061 1104.98 189.946 1105.11 188.759 1105.11ZM211.167 1105.09C209.103 1105.09 207.278 1104.63 205.691 1103.72C204.117 1102.79 202.879 1101.52 201.976 1099.92C201.086 1098.31 200.641 1096.48 200.641 1094.43C200.641 1092.38 201.086 1090.56 201.976 1088.97C202.879 1087.39 204.117 1086.14 205.691 1085.24C207.278 1084.33 209.103 1083.88 211.167 1083.88C213.231 1083.88 215.05 1084.33 216.623 1085.24C218.21 1086.14 219.448 1087.39 220.338 1088.97C221.241 1090.56 221.693 1092.38 221.693 1094.43C221.693 1096.48 221.241 1098.31 220.338 1099.92C219.448 1101.52 218.21 1102.79 216.623 1103.72C215.05 1104.63 213.231 1105.09 211.167 1105.09ZM211.167 1102.07C212.586 1102.07 213.837 1101.76 214.921 1101.12C216.004 1100.49 216.849 1099.6 217.455 1098.45C218.075 1097.31 218.384 1095.96 218.384 1094.43C218.384 1092.89 218.075 1091.56 217.455 1090.44C216.849 1089.31 216.004 1088.44 214.921 1087.83C213.837 1087.21 212.586 1086.9 211.167 1086.9C209.761 1086.9 208.51 1087.21 207.413 1087.83C206.33 1088.44 205.478 1089.31 204.859 1090.44C204.253 1091.56 203.95 1092.89 203.95 1094.43C203.95 1095.96 204.253 1097.31 204.859 1098.45C205.478 1099.6 206.33 1100.49 207.413 1101.12C208.51 1101.76 209.761 1102.07 211.167 1102.07ZM240.374 1104.72V1094.87C240.374 1094.28 240.374 1093.8 240.374 1093.42C240.374 1093.04 240.374 1092.67 240.374 1092.32C240.374 1091.25 240.194 1090.31 239.832 1089.51C239.471 1088.71 238.904 1088.09 238.13 1087.66C237.356 1087.22 236.343 1087 235.092 1087C233.996 1087 232.976 1087.28 232.035 1087.85C231.106 1088.4 230.358 1089.16 229.79 1090.11C229.236 1091.06 228.958 1092.11 228.958 1093.29L227.081 1092.57C227.081 1090.96 227.475 1089.49 228.262 1088.18C229.062 1086.86 230.119 1085.82 231.435 1085.04C232.764 1084.26 234.208 1083.86 235.769 1083.86C237.356 1083.86 238.742 1084.17 239.929 1084.77C241.116 1085.38 242.032 1086.25 242.677 1087.39C243.335 1088.51 243.664 1089.86 243.664 1091.45C243.664 1092.02 243.664 1092.64 243.664 1093.31C243.664 1093.98 243.664 1094.6 243.664 1095.18V1104.72H240.374ZM225.669 1104.72V1084.17H228.958V1104.72H225.669ZM248.434 1104.72V1084.17H251.685V1104.72H248.434ZM250.079 1079.45C249.473 1079.45 248.944 1079.28 248.492 1078.95C248.054 1078.6 247.835 1078.13 247.835 1077.54C247.835 1076.96 248.054 1076.5 248.492 1076.16C248.944 1075.81 249.473 1075.64 250.079 1075.64C250.685 1075.64 251.208 1075.81 251.646 1076.16C252.085 1076.5 252.304 1076.96 252.304 1077.54C252.304 1078.13 252.085 1078.6 251.646 1078.95C251.208 1079.28 250.685 1079.45 250.079 1079.45ZM271.346 1104.72V1094.87C271.346 1094.28 271.346 1093.8 271.346 1093.42C271.346 1093.04 271.346 1092.67 271.346 1092.32C271.346 1091.25 271.166 1090.31 270.805 1089.51C270.443 1088.71 269.876 1088.09 269.102 1087.66C268.328 1087.22 267.315 1087 266.064 1087C264.968 1087 263.949 1087.28 263.007 1087.85C262.078 1088.4 261.33 1089.16 260.762 1090.11C260.208 1091.06 259.93 1092.11 259.93 1093.29L258.054 1092.57C258.054 1090.96 258.447 1089.49 259.234 1088.18C260.034 1086.86 261.091 1085.82 262.407 1085.04C263.736 1084.26 265.18 1083.86 266.741 1083.86C268.328 1083.86 269.715 1084.17 270.901 1084.77C272.088 1085.38 273.004 1086.25 273.649 1087.39C274.307 1088.51 274.636 1089.86 274.636 1091.45C274.636 1092.02 274.636 1092.64 274.636 1093.31C274.636 1093.98 274.636 1094.6 274.636 1095.18V1104.72H271.346ZM256.641 1104.72V1084.17H259.93V1104.72H256.641ZM292.332 1103.46C293.441 1103.55 294.415 1103.76 295.253 1104.08C296.105 1104.39 296.769 1104.85 297.246 1105.46C297.723 1106.08 297.962 1106.88 297.962 1107.88C297.962 1108.97 297.588 1109.94 296.84 1110.78C296.092 1111.63 294.957 1112.29 293.434 1112.77C291.912 1113.25 289.997 1113.49 287.688 1113.49C284.424 1113.49 281.96 1113.01 280.296 1112.06C278.632 1111.11 277.8 1109.82 277.8 1108.19C277.8 1107.67 277.858 1107.21 277.975 1106.81C278.104 1106.42 278.245 1106.11 278.4 1105.86L281.535 1106.33C281.432 1106.47 281.328 1106.68 281.225 1106.97C281.135 1107.26 281.09 1107.61 281.09 1107.99C281.09 1109.02 281.677 1109.75 282.851 1110.16C284.024 1110.58 285.688 1110.8 287.843 1110.8C289.455 1110.8 290.777 1110.69 291.809 1110.47C292.841 1110.25 293.609 1109.93 294.112 1109.52C294.615 1109.11 294.866 1108.62 294.866 1108.07C294.866 1107.23 294.512 1106.71 293.802 1106.5C293.106 1106.31 292.241 1106.17 291.209 1106.1L283.392 1105.52C282.089 1105.41 281.025 1105.01 280.2 1104.32C279.387 1103.61 278.981 1102.75 278.981 1101.74C278.981 1101.12 279.129 1100.54 279.426 1099.98C279.735 1099.43 280.09 1098.96 280.49 1098.59C280.903 1098.2 281.27 1097.97 281.593 1097.89L284.186 1099.07C283.863 1099.12 283.463 1099.35 282.986 1099.75C282.522 1100.14 282.289 1100.59 282.289 1101.12C282.289 1101.6 282.476 1101.99 282.851 1102.3C283.225 1102.6 283.966 1102.79 285.076 1102.88L292.332 1103.46ZM295.176 1084.17H298.272L296.995 1092.26C296.762 1093.77 296.279 1095.14 295.543 1096.36C294.808 1097.58 293.802 1098.54 292.525 1099.27C291.261 1099.98 289.694 1100.33 287.823 1100.33C285.875 1100.33 284.211 1099.98 282.831 1099.27C281.451 1098.56 280.393 1097.59 279.658 1096.36C278.923 1095.13 278.555 1093.73 278.555 1092.18C278.555 1090.61 278.936 1089.2 279.697 1087.95C280.471 1086.68 281.541 1085.69 282.909 1084.97C284.276 1084.23 285.843 1083.86 287.61 1083.86C289.197 1083.86 290.584 1084.14 291.77 1084.7C292.957 1085.24 293.892 1085.92 294.576 1086.75C295.273 1087.57 295.66 1088.4 295.737 1089.24L294.499 1089.32L295.176 1084.17ZM287.804 1097.39C289.055 1097.39 290.126 1097.18 291.016 1096.77C291.919 1096.36 292.609 1095.76 293.086 1094.97C293.576 1094.18 293.821 1093.23 293.821 1092.11C293.821 1091.02 293.576 1090.09 293.086 1089.3C292.609 1088.5 291.919 1087.89 291.016 1087.46C290.126 1087.02 289.062 1086.8 287.823 1086.8C286.636 1086.8 285.585 1087.03 284.669 1087.48C283.766 1087.92 283.057 1088.54 282.541 1089.34C282.038 1090.14 281.786 1091.08 281.786 1092.16C281.786 1093.26 282.025 1094.2 282.502 1094.99C282.992 1095.76 283.683 1096.36 284.573 1096.77C285.476 1097.18 286.553 1097.39 287.804 1097.39ZM158.52 1127.08H150.278L151.032 1125.21V1152.72H147.743V1125.21L148.672 1127.08H140.274V1124.18H158.52V1127.08ZM176.565 1152.72V1145.08C176.565 1144.72 176.565 1144.29 176.565 1143.8C176.565 1143.3 176.565 1142.8 176.565 1142.29C176.565 1141.78 176.565 1141.34 176.565 1140.98C176.565 1139 176.14 1137.51 175.288 1136.51C174.45 1135.5 173.115 1135 171.283 1135C170.058 1135 168.98 1135.24 168.052 1135.71C167.136 1136.19 166.42 1136.84 165.904 1137.67C165.388 1138.49 165.13 1139.43 165.13 1140.47L163.04 1139.84C163.04 1138.37 163.421 1137.03 164.182 1135.83C164.956 1134.62 166.007 1133.66 167.336 1132.95C168.677 1132.23 170.193 1131.86 171.883 1131.86C174.347 1131.86 176.288 1132.61 177.707 1134.09C179.139 1135.57 179.855 1137.62 179.855 1140.24C179.855 1140.93 179.855 1141.71 179.855 1142.6C179.855 1143.49 179.855 1144.43 179.855 1145.41V1152.72H176.565ZM161.841 1152.72V1122.48H165.13V1152.72H161.841ZM185.477 1143.76V1140.82H201.362L200.782 1141.79C200.782 1141.71 200.782 1141.64 200.782 1141.58C200.782 1141.5 200.782 1141.43 200.782 1141.36C200.782 1140.18 200.53 1139.09 200.027 1138.11C199.537 1137.12 198.802 1136.33 197.821 1135.73C196.841 1135.14 195.628 1134.84 194.184 1134.84C192.726 1134.84 191.443 1135.15 190.333 1135.77C189.224 1136.39 188.36 1137.27 187.741 1138.4C187.121 1139.53 186.812 1140.87 186.812 1142.43C186.812 1144.02 187.108 1145.38 187.702 1146.53C188.308 1147.68 189.166 1148.56 190.275 1149.18C191.385 1149.8 192.7 1150.11 194.222 1150.11C195.306 1150.11 196.248 1150 197.047 1149.78C197.847 1149.55 198.505 1149.25 199.021 1148.87C199.55 1148.48 199.95 1148.07 200.221 1147.61C200.492 1147.16 200.653 1146.71 200.704 1146.26H203.994C203.929 1147.09 203.671 1147.9 203.22 1148.72C202.768 1149.53 202.13 1150.27 201.304 1150.94C200.479 1151.6 199.466 1152.13 198.266 1152.53C197.067 1152.93 195.687 1153.13 194.126 1153.13C192.062 1153.13 190.243 1152.68 188.669 1151.77C187.096 1150.87 185.857 1149.62 184.954 1148.02C184.064 1146.42 183.619 1144.58 183.619 1142.51C183.619 1140.4 184.071 1138.56 184.974 1136.97C185.877 1135.37 187.121 1134.12 188.708 1133.22C190.295 1132.32 192.107 1131.86 194.145 1131.86C196.222 1131.86 198.021 1132.32 199.543 1133.22C201.066 1134.12 202.239 1135.36 203.065 1136.93C203.891 1138.49 204.303 1140.27 204.303 1142.27C204.303 1142.48 204.297 1142.75 204.284 1143.09C204.271 1143.42 204.252 1143.65 204.226 1143.76H185.477ZM219.995 1152.72L215.467 1124.18H218.873L222.723 1151.31L222.22 1151.29L228.315 1124.18H232.688L238.763 1151.29L238.26 1151.31L242.111 1124.18H245.535L240.969 1152.72H235.88L230.308 1126.97H230.695L225.103 1152.72H219.995ZM248.506 1143.76V1140.82H264.392L263.811 1141.79C263.811 1141.71 263.811 1141.64 263.811 1141.58C263.811 1141.5 263.811 1141.43 263.811 1141.36C263.811 1140.18 263.56 1139.09 263.057 1138.11C262.566 1137.12 261.831 1136.33 260.851 1135.73C259.87 1135.14 258.658 1134.84 257.213 1134.84C255.756 1134.84 254.472 1135.15 253.363 1135.77C252.253 1136.39 251.389 1137.27 250.77 1138.4C250.151 1139.53 249.841 1140.87 249.841 1142.43C249.841 1144.02 250.138 1145.38 250.731 1146.53C251.338 1147.68 252.195 1148.56 253.305 1149.18C254.414 1149.8 255.73 1150.11 257.252 1150.11C258.335 1150.11 259.277 1150 260.077 1149.78C260.877 1149.55 261.534 1149.25 262.05 1148.87C262.579 1148.48 262.979 1148.07 263.25 1147.61C263.521 1147.16 263.682 1146.71 263.734 1146.26H267.023C266.959 1147.09 266.701 1147.9 266.249 1148.72C265.798 1149.53 265.159 1150.27 264.334 1150.94C263.508 1151.6 262.495 1152.13 261.296 1152.53C260.096 1152.93 258.716 1153.13 257.155 1153.13C255.091 1153.13 253.272 1152.68 251.699 1151.77C250.125 1150.87 248.887 1149.62 247.984 1148.02C247.094 1146.42 246.649 1144.58 246.649 1142.51C246.649 1140.4 247.1 1138.56 248.003 1136.97C248.906 1135.37 250.151 1134.12 251.737 1133.22C253.324 1132.32 255.136 1131.86 257.175 1131.86C259.251 1131.86 261.051 1132.32 262.573 1133.22C264.095 1134.12 265.269 1135.36 266.094 1136.93C266.92 1138.49 267.333 1140.27 267.333 1142.27C267.333 1142.48 267.326 1142.75 267.313 1143.09C267.3 1143.42 267.281 1143.65 267.255 1143.76H248.506ZM274.84 1122.48V1152.72H271.589V1122.48H274.84ZM283.24 1122.48V1152.72H279.989V1122.48H283.24Z" fill="white"/>
<path d="M135.675 1190.71H140.631V1175.84H143.515V1195.08H140.631V1192.73H135.675V1190.71ZM130.635 1178.95C128.535 1178.95 127.107 1179.85 127.107 1181.28C127.107 1182.7 128.535 1183.6 130.635 1183.6C132.707 1183.6 134.135 1182.7 134.135 1181.28C134.135 1179.85 132.707 1178.95 130.635 1178.95ZM130.635 1185.73C126.911 1185.73 124.363 1183.96 124.363 1181.28C124.363 1178.59 126.911 1176.82 130.635 1176.82C134.331 1176.82 136.879 1178.59 136.879 1181.28C136.879 1183.96 134.331 1185.73 130.635 1185.73ZM129.487 1194.27V1189.56C127.079 1189.68 124.811 1189.7 122.795 1189.7L122.431 1187.35C127.079 1187.32 133.295 1187.27 138.643 1186.6L138.867 1188.67C136.739 1189.03 134.527 1189.26 132.371 1189.4V1194.27H129.487ZM128.731 1198.33H144.103V1200.68H125.847V1193.2H128.731V1198.33ZM160.901 1183.46H165.549V1175.9H168.433V1194.69H165.549V1185.84H160.901V1183.46ZM162.525 1189.12L161.125 1191.38C158.269 1190.49 156.141 1188.64 155.021 1186.26C153.901 1188.84 151.801 1190.85 148.861 1191.83L147.433 1189.59C151.325 1188.28 153.509 1185.2 153.509 1181.86V1181.39H148.189V1179.06H153.509V1176.04H156.421V1179.06H161.713V1181.39H156.393V1181.86C156.393 1184.97 158.633 1187.91 162.525 1189.12ZM154.937 1198.33H169.077V1200.68H152.053V1193.06H154.937V1198.33ZM183.775 1198.97C187.499 1198.97 189.571 1198.19 189.571 1196.7C189.571 1195.22 187.499 1194.44 183.775 1194.44C180.079 1194.44 178.007 1195.22 178.007 1196.7C178.007 1198.19 180.079 1198.97 183.775 1198.97ZM183.775 1192.25C189.235 1192.25 192.483 1193.85 192.483 1196.7C192.483 1199.56 189.235 1201.16 183.775 1201.16C178.343 1201.16 175.095 1199.56 175.095 1196.7C175.095 1193.85 178.343 1192.25 183.775 1192.25ZM178.203 1181.28V1183.71H189.459V1181.28H178.203ZM185.259 1188.33H195.283V1190.66H172.351V1188.33H182.347V1186.01H175.347V1176.57H178.203V1179.06H189.459V1176.57H192.315V1186.01H185.259V1188.33ZM205.109 1188.39V1193.15C206.789 1193.04 208.441 1192.92 209.897 1192.7L210.065 1194.83C205.921 1195.61 200.629 1195.72 197.353 1195.72L196.989 1193.34C198.473 1193.34 200.349 1193.34 202.337 1193.26V1188.39H205.109ZM205.165 1177.83V1179.96C205.165 1182.7 206.873 1185.31 210.093 1186.51L208.637 1188.72C206.285 1187.83 204.661 1186.15 203.765 1184.1C202.841 1186.43 201.133 1188.28 198.557 1189.26L197.101 1187.04C200.517 1185.78 202.281 1182.98 202.281 1179.96V1177.83H205.165ZM216.085 1175.84H218.829V1201.13H216.085V1188.44H213.565V1199.9H210.849V1176.35H213.565V1186.09H216.085V1175.84ZM230.39 1177.64C234.338 1177.64 237.278 1180.13 237.278 1183.71C237.278 1187.3 234.338 1189.79 230.39 1189.79C226.442 1189.79 223.53 1187.3 223.53 1183.71C223.53 1180.13 226.442 1177.64 230.39 1177.64ZM230.39 1180.1C228.066 1180.1 226.358 1181.5 226.358 1183.71C226.358 1185.9 228.066 1187.32 230.39 1187.32C232.742 1187.32 234.45 1185.9 234.45 1183.71C234.45 1181.5 232.742 1180.1 230.39 1180.1ZM240.134 1175.84H243.046V1201.18H240.134V1175.84ZM222.718 1195.84L222.354 1193.46C226.89 1193.46 233.19 1193.43 238.622 1192.62L238.818 1194.72C233.246 1195.78 227.198 1195.84 222.718 1195.84ZM257.537 1184.13C257.537 1186.88 260.253 1188.61 264.033 1188.61C267.785 1188.61 270.501 1186.88 270.501 1184.13C270.501 1181.39 267.785 1179.65 264.033 1179.65C260.253 1179.65 257.537 1181.39 257.537 1184.13ZM265.461 1195.7H275.513V1198.05H252.609V1195.7H262.577V1190.85C257.957 1190.43 254.737 1187.88 254.737 1184.13C254.737 1180.02 258.657 1177.36 264.033 1177.36C269.381 1177.36 273.329 1180.02 273.329 1184.13C273.329 1187.88 270.081 1190.46 265.461 1190.88V1195.7ZM294.775 1181.47V1179.06H280.215V1176.74H297.715V1183.63H283.183V1186.26H298.275V1188.58H280.271V1181.47H294.775ZM300.431 1190.82L300.459 1193.15H294.775V1201.18H291.891V1193.15H286.039V1201.18H283.155V1193.15H277.499V1190.82H300.431Z" fill="white"/>
<path d="M258.242 530H185.098C175.795 530 168.254 537.541 168.254 546.844V603.373C168.254 612.676 175.795 620.217 185.098 620.217H258.242C267.545 620.217 275.086 612.676 275.086 603.373V546.844C275.086 537.541 267.545 530 258.242 530Z" fill="#FF4C91"/>
<path d="M298.18 650.001V615.683C298.18 603.324 288.156 593.301 275.797 593.301H167.543C155.183 593.301 145.16 603.324 145.16 615.683V650.001C77.4076 679.539 30.0364 747.104 30.0364 825.738C30.0364 931.574 115.834 1017.37 221.67 1017.37C327.506 1017.37 413.304 931.574 413.304 825.738C413.304 747.104 365.932 679.539 298.18 650.001Z" fill="#4857F6" stroke="#FF4C91" stroke-width="20" stroke-miterlimit="10"/>
<mask id="mask0_126_471" style="mask-type:luminance" maskUnits="userSpaceOnUse" x="30" y="593" width="384" height="425">
<path d="M298.18 650.001V615.683C298.18 603.324 288.156 593.301 275.797 593.301H167.543C155.183 593.301 145.16 603.324 145.16 615.683V650.001C77.4076 679.539 30.0364 747.104 30.0364 825.738C30.0364 931.574 115.834 1017.37 221.67 1017.37C327.506 1017.37 413.304 931.574 413.304 825.738C413.304 747.104 365.932 679.539 298.18 650.001Z" fill="white"/>
</mask>
<g mask="url(#mask0_126_471)">
<path d="M-11.9514 871.639C-11.9514 871.639 54.388 814.8 176.741 867.285C299.095 919.77 445.113 822.356 445.113 822.356L394.107 1082.8L112.068 1092.79L-11.9514 871.639Z" fill="#F4F4F4" stroke="#FF4C91" stroke-width="3.88" stroke-miterlimit="10"/>
</g>
<path d="M221.669 955.092C148.476 955.092 88.9253 895.541 88.9253 822.348C88.9253 749.155 148.476 689.604 221.669 689.604C294.863 689.604 354.414 749.155 354.414 822.348C354.414 895.541 294.863 955.092 221.669 955.092Z" stroke="#FF4C91" stroke-width="2" stroke-miterlimit="10"/>
<path d="M221.67 906.079C175.499 906.079 137.939 868.518 137.939 822.348C137.939 776.177 175.499 738.617 221.67 738.617C267.84 738.617 305.401 776.177 305.401 822.348C305.401 868.518 267.84 906.079 221.67 906.079Z" stroke="#FF4C91" stroke-width="2" stroke-miterlimit="10"/>
<path d="M221.669 603.863V1013.92" stroke="#FF4C91" stroke-width="2" stroke-miterlimit="10"/>
<path d="M423 822.348H36.2773" stroke="#FF4C91" stroke-width="2" stroke-miterlimit="10"/>
<path d="M221.67 867.277C246.483 867.277 266.599 847.161 266.599 822.348C266.599 797.534 246.483 777.419 221.67 777.419C196.856 777.419 176.741 797.534 176.741 822.348C176.741 847.161 196.856 867.277 221.67 867.277Z" fill="#F4F4F4" stroke="#FF4C91" stroke-width="2.2" stroke-miterlimit="10"/>
<path d="M298.18 650.001V615.683C298.18 603.324 288.156 593.301 275.797 593.301H167.543C155.183 593.301 145.16 603.324 145.16 615.683V650.001C77.4076 679.539 30.0364 747.104 30.0364 825.738C30.0364 931.574 115.834 1017.37 221.67 1017.37C327.506 1017.37 413.304 931.574 413.304 825.738C413.304 747.104 365.932 679.539 298.18 650.001Z" stroke="#FF4C91" stroke-width="20" stroke-miterlimit="10"/>
<path d="M272.145 834.135V828.147L270.765 828.899V827.649L272.529 826.685H273.632V834.135H274.858V835.246H270.814V834.135H272.145Z" fill="#FF4C91"/>
<path d="M275.952 830.941C275.952 830.263 276.01 829.651 276.132 829.103C276.255 828.556 276.434 828.082 276.679 827.69C276.924 827.298 277.235 826.996 277.619 826.783C278.003 826.571 278.444 826.465 278.958 826.465C279.473 826.465 279.898 826.571 280.274 826.775C280.649 826.979 280.952 827.282 281.197 827.666C281.442 828.05 281.621 828.523 281.736 829.079C281.85 829.634 281.916 830.255 281.916 830.95C281.916 831.644 281.858 832.289 281.744 832.845C281.63 833.4 281.45 833.866 281.205 834.242C280.96 834.617 280.649 834.911 280.274 835.108C279.898 835.304 279.449 835.402 278.934 835.402C278.419 835.402 277.978 835.304 277.603 835.108C277.227 834.911 276.916 834.626 276.679 834.242C276.442 833.858 276.255 833.4 276.14 832.845C276.026 832.289 275.969 831.66 275.969 830.95L275.952 830.941ZM278.942 834.217C279.155 834.217 279.334 834.176 279.481 834.086C279.628 833.997 279.759 833.874 279.857 833.719C279.955 833.564 280.045 833.376 280.102 833.155C280.159 832.935 280.208 832.706 280.241 832.461C280.274 832.216 280.298 831.954 280.306 831.685C280.314 831.415 280.323 831.146 280.323 830.868C280.323 830.615 280.323 830.361 280.314 830.1C280.306 829.839 280.29 829.594 280.257 829.357C280.225 829.12 280.184 828.891 280.127 828.687C280.069 828.483 279.988 828.295 279.89 828.139C279.792 827.984 279.661 827.862 279.514 827.772C279.367 827.682 279.179 827.641 278.967 827.641C278.754 827.641 278.558 827.682 278.403 827.772C278.248 827.862 278.117 827.976 278.011 828.131C277.905 828.287 277.823 828.466 277.758 828.67C277.692 828.875 277.643 829.103 277.611 829.348C277.578 829.594 277.553 829.847 277.545 830.116C277.537 830.386 277.529 830.647 277.529 830.917C277.529 831.186 277.529 831.448 277.545 831.717C277.562 831.987 277.578 832.24 277.611 832.485C277.643 832.73 277.692 832.959 277.758 833.172C277.823 833.384 277.905 833.564 278.003 833.719C278.101 833.874 278.231 833.997 278.387 834.086C278.542 834.176 278.722 834.217 278.934 834.217H278.942Z" fill="#FF4C91"/>
<path d="M227.298 770.059V764.071L225.918 764.822V763.573L227.682 762.609H228.785V770.059H230.011V771.17H225.967V770.059H227.298Z" fill="#FF4C91"/>
<path d="M231.105 766.856C231.105 766.178 231.162 765.566 231.285 765.018C231.407 764.471 231.587 763.997 231.832 763.605C232.077 763.213 232.388 762.911 232.771 762.698C233.155 762.486 233.597 762.38 234.111 762.38C234.626 762.38 235.051 762.486 235.426 762.69C235.802 762.895 236.104 763.197 236.35 763.581C236.595 763.965 236.774 764.438 236.889 764.994C237.003 765.549 237.068 766.17 237.068 766.865C237.068 767.559 237.011 768.204 236.897 768.76C236.782 769.315 236.603 769.781 236.358 770.157C236.113 770.532 235.802 770.826 235.426 771.023C235.051 771.219 234.601 771.317 234.087 771.317C233.572 771.317 233.131 771.219 232.755 771.023C232.379 770.826 232.069 770.541 231.832 770.157C231.595 769.773 231.407 769.315 231.293 768.76C231.178 768.204 231.121 767.575 231.121 766.865L231.105 766.856ZM234.095 770.132C234.307 770.132 234.487 770.091 234.634 770.001C234.781 769.912 234.912 769.789 235.01 769.634C235.108 769.479 235.198 769.291 235.255 769.07C235.312 768.85 235.361 768.621 235.394 768.376C235.426 768.131 235.451 767.869 235.459 767.6C235.467 767.33 235.475 767.061 235.475 766.783C235.475 766.53 235.475 766.276 235.467 766.015C235.459 765.754 235.443 765.509 235.41 765.272C235.377 765.035 235.337 764.806 235.279 764.602C235.222 764.398 235.14 764.21 235.042 764.054C234.944 763.899 234.814 763.777 234.667 763.687C234.52 763.597 234.332 763.556 234.119 763.556C233.907 763.556 233.711 763.597 233.556 763.687C233.4 763.777 233.27 763.891 233.164 764.046C233.057 764.202 232.976 764.381 232.91 764.585C232.845 764.79 232.796 765.018 232.763 765.263C232.731 765.509 232.706 765.762 232.698 766.031C232.69 766.301 232.682 766.562 232.682 766.832C232.682 767.101 232.682 767.363 232.698 767.632C232.714 767.902 232.731 768.155 232.763 768.4C232.796 768.645 232.845 768.874 232.91 769.087C232.976 769.299 233.057 769.479 233.155 769.634C233.253 769.789 233.384 769.912 233.539 770.001C233.694 770.091 233.874 770.132 234.087 770.132H234.095Z" fill="#FF4C91"/>
<path d="M360.639 830.157C361.023 830.157 361.349 830.124 361.619 830.051C361.889 829.977 362.109 829.888 362.281 829.757C362.452 829.626 362.575 829.479 362.656 829.299C362.738 829.12 362.771 828.915 362.771 828.695C362.771 828.376 362.681 828.131 362.509 827.951C362.338 827.772 362.052 827.674 361.66 827.674C361.448 827.674 361.26 827.698 361.088 827.739C360.917 827.78 360.761 827.837 360.622 827.902C360.484 827.968 360.353 828.041 360.239 828.123C360.124 828.205 360.018 828.278 359.92 828.344L359.266 827.29C359.389 827.192 359.544 827.094 359.716 827.004C359.887 826.914 360.075 826.824 360.288 826.751C360.5 826.677 360.712 826.62 360.949 826.571C361.186 826.522 361.431 826.506 361.693 826.506C362.06 826.506 362.411 826.546 362.73 826.628C363.049 826.71 363.335 826.832 363.58 826.996C363.825 827.159 364.013 827.372 364.151 827.625C364.29 827.878 364.364 828.188 364.364 828.54C364.364 828.777 364.315 828.997 364.225 829.21C364.135 829.422 364.012 829.61 363.865 829.781C363.718 829.953 363.555 830.1 363.367 830.222C363.179 830.345 362.991 830.435 362.795 830.492C363.098 830.533 363.367 830.606 363.604 830.713C363.841 830.819 364.045 830.958 364.208 831.137C364.372 831.317 364.495 831.521 364.584 831.775C364.674 832.028 364.715 832.314 364.715 832.632C364.715 833.147 364.633 833.58 364.478 833.939C364.323 834.299 364.102 834.585 363.816 834.805C363.53 835.026 363.204 835.189 362.82 835.287C362.436 835.385 362.019 835.434 361.57 835.434C361.284 835.434 361.014 835.402 360.753 835.344C360.492 835.287 360.247 835.214 360.026 835.132C359.806 835.05 359.61 834.969 359.446 834.879C359.283 834.789 359.152 834.723 359.062 834.666L359.773 833.49C359.773 833.49 359.854 833.547 359.92 833.596C359.985 833.645 360.075 833.694 360.173 833.751C360.271 833.809 360.377 833.866 360.5 833.923C360.623 833.98 360.745 834.037 360.876 834.086C361.006 834.135 361.137 834.176 361.276 834.209C361.415 834.242 361.546 834.258 361.676 834.258C362.109 834.258 362.452 834.127 362.706 833.874C362.959 833.621 363.089 833.237 363.089 832.73C363.089 832.412 363.041 832.15 362.951 831.938C362.861 831.726 362.714 831.562 362.518 831.448C362.322 831.333 362.06 831.244 361.75 831.195C361.439 831.146 361.064 831.121 360.622 831.113L360.639 830.149V830.157Z" fill="#FF4C91"/>
<path d="M226.718 678.608C227.102 678.608 227.429 678.575 227.699 678.502C227.968 678.428 228.189 678.338 228.36 678.208C228.532 678.077 228.654 677.93 228.736 677.75C228.818 677.571 228.85 677.366 228.85 677.146C228.85 676.827 228.761 676.582 228.589 676.402C228.417 676.223 228.132 676.125 227.739 676.125C227.527 676.125 227.339 676.149 227.168 676.19C226.996 676.231 226.841 676.288 226.702 676.353C226.563 676.419 226.432 676.492 226.318 676.574C226.204 676.656 226.097 676.729 225.999 676.795L225.346 675.741C225.468 675.643 225.624 675.545 225.795 675.455C225.967 675.365 226.155 675.275 226.367 675.202C226.579 675.128 226.792 675.071 227.029 675.022C227.266 674.973 227.511 674.957 227.772 674.957C228.14 674.957 228.491 674.997 228.809 675.079C229.128 675.161 229.414 675.283 229.659 675.447C229.904 675.61 230.092 675.822 230.231 676.076C230.37 676.329 230.443 676.639 230.443 676.991C230.443 677.228 230.394 677.448 230.304 677.66C230.215 677.873 230.092 678.061 229.945 678.232C229.798 678.404 229.634 678.551 229.447 678.673C229.259 678.796 229.071 678.886 228.875 678.943C229.177 678.984 229.447 679.057 229.684 679.164C229.92 679.27 230.125 679.409 230.288 679.588C230.451 679.768 230.574 679.972 230.664 680.225C230.754 680.479 230.795 680.765 230.795 681.083C230.795 681.598 230.713 682.031 230.558 682.39C230.402 682.75 230.182 683.036 229.896 683.256C229.61 683.477 229.283 683.64 228.899 683.738C228.515 683.836 228.099 683.885 227.65 683.885C227.364 683.885 227.094 683.852 226.833 683.795C226.571 683.738 226.326 683.665 226.106 683.583C225.885 683.501 225.689 683.419 225.526 683.33C225.362 683.24 225.231 683.174 225.142 683.117L225.852 681.941C225.852 681.941 225.934 681.998 225.999 682.047C226.065 682.096 226.155 682.145 226.253 682.202C226.351 682.26 226.457 682.317 226.579 682.374C226.702 682.431 226.825 682.488 226.955 682.537C227.086 682.586 227.217 682.627 227.356 682.66C227.494 682.692 227.625 682.709 227.756 682.709C228.189 682.709 228.532 682.578 228.785 682.325C229.038 682.072 229.169 681.688 229.169 681.181C229.169 680.863 229.12 680.601 229.03 680.389C228.94 680.176 228.793 680.013 228.597 679.899C228.401 679.784 228.14 679.695 227.829 679.645C227.519 679.596 227.143 679.572 226.702 679.564L226.718 678.6V678.608Z" fill="#FF4C91"/>
<path d="M314.223 828.262C314.043 828.164 313.831 828.074 313.594 827.992C313.357 827.911 313.079 827.878 312.777 827.878C312.499 827.878 312.255 827.935 312.042 828.058C311.83 828.18 311.65 828.344 311.495 828.556C311.34 828.768 311.217 829.038 311.119 829.348C311.021 829.659 310.956 830.002 310.907 830.394C310.996 830.304 311.111 830.223 311.242 830.149C311.372 830.076 311.519 830.01 311.666 829.961C311.813 829.912 311.977 829.871 312.14 829.839C312.303 829.806 312.467 829.798 312.622 829.798C313.022 829.798 313.374 829.855 313.684 829.969C313.994 830.084 314.256 830.255 314.476 830.468C314.697 830.68 314.852 830.95 314.967 831.268C315.081 831.587 315.138 831.938 315.138 832.338C315.138 832.739 315.073 833.123 314.95 833.457C314.828 833.792 314.632 834.078 314.378 834.315C314.125 834.552 313.815 834.74 313.431 834.871C313.047 835.001 312.614 835.067 312.116 835.067C311.658 835.067 311.266 834.993 310.931 834.846C310.596 834.699 310.327 834.479 310.106 834.193C309.885 833.907 309.73 833.547 309.624 833.114C309.518 832.681 309.469 832.183 309.469 831.619C309.469 830.852 309.534 830.165 309.657 829.561C309.779 828.956 309.984 828.458 310.261 828.05C310.539 827.641 310.898 827.331 311.331 827.118C311.764 826.906 312.312 826.8 312.941 826.8C313.071 826.8 313.218 826.808 313.374 826.824C313.529 826.841 313.684 826.865 313.839 826.906C313.994 826.947 314.15 826.988 314.297 827.037C314.444 827.086 314.583 827.151 314.697 827.216L314.215 828.27L314.223 828.262ZM313.717 832.363C313.717 832.134 313.684 831.93 313.627 831.742C313.57 831.554 313.472 831.399 313.349 831.26C313.227 831.121 313.08 831.023 312.9 830.95C312.72 830.876 312.516 830.843 312.279 830.843C312.124 830.843 311.985 830.852 311.862 830.868C311.74 830.884 311.625 830.917 311.527 830.95C311.429 830.982 311.331 831.031 311.242 831.088C311.152 831.146 311.07 831.211 310.988 831.285C310.972 831.325 310.956 831.374 310.939 831.423C310.923 831.472 310.915 831.53 310.915 831.587C310.915 831.644 310.907 831.701 310.899 831.75C310.89 831.799 310.899 831.848 310.899 831.881C310.899 832.257 310.939 832.575 311.013 832.837C311.086 833.098 311.184 833.31 311.307 833.482C311.43 833.654 311.576 833.768 311.74 833.85C311.903 833.931 312.075 833.964 312.255 833.964C312.451 833.964 312.638 833.931 312.81 833.866C312.981 833.801 313.145 833.694 313.276 833.564C313.406 833.433 313.512 833.261 313.594 833.057C313.676 832.853 313.709 832.616 313.709 832.355L313.717 832.363Z" fill="#FF4C91"/>
<path d="M229.888 726.968C229.708 726.87 229.496 726.78 229.259 726.698C229.022 726.617 228.744 726.584 228.442 726.584C228.164 726.584 227.919 726.641 227.707 726.764C227.494 726.886 227.315 727.05 227.159 727.262C227.004 727.474 226.881 727.744 226.783 728.054C226.685 728.365 226.62 728.708 226.571 729.1C226.661 729.01 226.775 728.928 226.906 728.855C227.037 728.781 227.184 728.716 227.331 728.667C227.478 728.618 227.641 728.577 227.805 728.544C227.968 728.512 228.131 728.504 228.287 728.504C228.687 728.504 229.038 728.561 229.349 728.675C229.659 728.79 229.92 728.961 230.141 729.173C230.361 729.386 230.517 729.655 230.631 729.974C230.746 730.293 230.803 730.644 230.803 731.044C230.803 731.444 230.737 731.828 230.615 732.163C230.492 732.498 230.296 732.784 230.043 733.021C229.79 733.258 229.479 733.446 229.095 733.576C228.711 733.707 228.279 733.773 227.78 733.773C227.323 733.773 226.93 733.699 226.596 733.552C226.261 733.405 225.991 733.184 225.77 732.898C225.55 732.613 225.395 732.253 225.289 731.82C225.182 731.387 225.133 730.889 225.133 730.325C225.133 729.557 225.199 728.871 225.321 728.267C225.444 727.662 225.648 727.164 225.926 726.755C226.204 726.347 226.563 726.037 226.996 725.824C227.429 725.612 227.976 725.506 228.605 725.506C228.736 725.506 228.883 725.514 229.038 725.53C229.193 725.546 229.349 725.571 229.504 725.612C229.659 725.653 229.814 725.694 229.961 725.743C230.108 725.792 230.247 725.857 230.362 725.922L229.879 726.976L229.888 726.968ZM229.373 731.069C229.373 730.84 229.34 730.636 229.283 730.448C229.226 730.26 229.128 730.105 229.006 729.966C228.883 729.827 228.736 729.729 228.556 729.655C228.376 729.582 228.172 729.549 227.935 729.549C227.78 729.549 227.641 729.557 227.519 729.574C227.396 729.59 227.282 729.623 227.184 729.655C227.086 729.688 226.988 729.737 226.898 729.794C226.808 729.851 226.726 729.917 226.645 729.99C226.628 730.031 226.612 730.08 226.596 730.129C226.579 730.178 226.571 730.235 226.571 730.293C226.571 730.35 226.563 730.407 226.555 730.456C226.547 730.505 226.555 730.554 226.555 730.587C226.555 730.962 226.596 731.281 226.669 731.542C226.743 731.804 226.841 732.016 226.963 732.188C227.086 732.359 227.233 732.474 227.396 732.555C227.559 732.637 227.731 732.67 227.911 732.67C228.107 732.67 228.295 732.637 228.466 732.572C228.638 732.506 228.801 732.4 228.932 732.269C229.063 732.139 229.169 731.967 229.25 731.763C229.332 731.559 229.365 731.322 229.365 731.06L229.373 731.069Z" fill="#FF4C91"/>
<path d="M57.9247 775.572C89.7987 775.572 115.638 749.733 115.638 717.859C115.638 685.985 89.7987 660.146 57.9247 660.146C26.0506 660.146 0.21167 685.985 0.21167 717.859C0.21167 749.733 26.0506 775.572 57.9247 775.572Z" fill="#FF4C91"/>
<path d="M57.9249 717.86V601.339C57.9249 601.339 -4.0686 649.715 0.211887 717.86H57.9249Z" fill="#FF4C91"/>
<path d="M57.9248 717.86V601.339C57.9248 601.339 119.919 649.715 115.638 717.86H57.9248Z" fill="#FF4C91"/>
<path d="M143.388 836.512C143.968 837.476 144.85 837.313 145.659 836.088C145.389 837.795 148.191 840.286 148.82 838.898C148.191 840.286 150.985 842.77 151.965 841.692C150.985 842.762 151.916 845.931 153.019 845.261C151.916 845.931 155.658 846.92 157.242 846.38C155.666 846.92 155.886 847.116 157.496 846.601C156.393 847.573 156.45 848.455 157.634 848.954C156.009 849.199 153.542 850.62 154.849 850.555C153.542 850.62 153.754 853.046 155.086 853.283C153.754 853.038 150.903 857.882 151.867 858.74C150.895 857.882 147.93 862.914 148.526 864.417C147.93 862.914 147.399 863.821 147.93 865.438C146.909 864.654 145.986 865.022 145.593 866.362C145.332 864.638 144.36 864.066 144.499 865.716C144.36 864.066 142.473 862.955 142.367 864.458C142.473 862.955 141.035 862.106 140.749 863.502C141.035 862.106 139.524 861.215 139.042 862.498C139.524 861.215 138.209 862.171 137.563 863.576C138.209 862.171 135.039 860.3 133.986 861.468C135.039 860.3 130.457 855.873 128.823 856.477C130.465 855.873 133.299 856.395 132.025 857.065C132.54 855.946 129.672 854.198 128.757 853.626C130.407 853.348 130.726 852.965 129.125 853.201C130.734 852.965 132.229 851.216 130.816 851.225C132.229 851.216 135.341 847.581 134.32 847.132C135.341 847.589 136.722 845.964 135.881 845.302C136.722 845.964 139.23 843.031 138.707 842.002C139.23 843.039 141.909 839.903 141.73 838.465C141.909 839.903 143.396 838.163 143.404 836.504L143.388 836.512Z" fill="#FF4C91"/>
<path d="M140.814 845.433C141.092 845.89 141.509 845.817 141.893 845.229C141.762 846.037 143.094 847.222 143.396 846.568C143.094 847.23 144.425 848.406 144.891 847.9C144.425 848.406 144.866 849.918 145.389 849.599C144.866 849.918 146.647 850.391 147.398 850.13C146.647 850.383 146.753 850.481 147.521 850.236C146.998 850.694 147.023 851.119 147.586 851.355C146.81 851.478 145.634 852.148 146.263 852.115C145.642 852.148 145.74 853.3 146.377 853.414C145.74 853.3 144.384 855.603 144.85 856.012C144.384 855.603 142.979 857.997 143.257 858.716C142.971 857.997 142.726 858.43 142.971 859.198C142.489 858.83 142.048 859.001 141.86 859.639C141.737 858.822 141.272 858.544 141.337 859.328C141.272 858.544 140.373 858.013 140.324 858.732C140.373 858.013 139.695 857.613 139.556 858.274C139.695 857.613 138.976 857.188 138.748 857.801C138.976 857.188 138.356 857.645 138.045 858.315C138.356 857.645 136.844 856.755 136.346 857.311C136.844 856.755 134.671 854.647 133.887 854.933C134.663 854.647 136.019 854.893 135.407 855.211C135.652 854.68 134.287 853.847 133.846 853.577C134.63 853.447 134.786 853.267 134.018 853.373C134.786 853.259 135.496 852.426 134.818 852.434C135.488 852.434 136.967 850.702 136.485 850.481C136.967 850.694 137.628 849.926 137.228 849.615C137.628 849.934 138.821 848.537 138.576 848.047C138.821 848.537 140.104 847.05 140.014 846.364C140.095 847.05 140.806 846.217 140.814 845.433Z" fill="#F4F4F4"/>
<path d="M318.683 791.363C318.022 792.204 318.447 792.997 319.786 793.397C318.161 793.658 316.649 797.089 318.079 797.269C316.641 797.098 315.138 800.512 316.38 801.125C315.138 800.512 312.41 802.375 313.3 803.224C312.402 802.375 312.614 806.247 313.529 807.586C312.606 806.247 312.483 806.516 313.39 807.897C312.206 807.145 311.381 807.464 311.193 808.746C310.539 807.276 308.432 805.356 308.816 806.582C308.424 805.356 306.185 806.296 306.291 807.644C306.185 806.296 300.704 805.07 300.107 806.263C300.704 805.07 295.002 803.796 293.679 804.825C295.002 803.796 293.981 803.567 292.527 804.564C293.033 803.355 292.404 802.579 290.934 802.62C292.568 801.835 292.821 800.733 291.212 801.378C292.821 800.741 293.295 798.601 291.751 798.968C293.295 798.601 293.662 796.975 292.159 797.138C293.654 796.975 294.038 795.268 292.592 795.211C294.038 795.268 292.731 794.312 291.114 794.132C292.731 794.312 293.532 790.718 292.02 790.08C293.532 790.718 296.342 784.999 295.182 783.635C296.333 785.008 296.717 787.867 295.606 786.862C296.905 787.009 297.689 783.741 297.869 782.696C298.719 784.174 299.176 784.362 298.384 782.908C299.176 784.362 301.3 785.244 300.777 783.913C301.3 785.253 305.711 787.091 305.752 785.988C305.711 787.091 307.68 787.916 307.974 786.911C307.68 787.908 311.242 789.394 311.985 788.586C311.234 789.394 315.048 790.987 316.282 790.383C315.048 790.987 317.156 791.869 318.667 791.379L318.683 791.363Z" fill="#FF4C91"/>
<path d="M309.428 791.641C309.118 792.041 309.314 792.417 309.951 792.605C309.175 792.727 308.456 794.361 309.142 794.443C308.456 794.361 307.746 795.987 308.334 796.273C307.746 795.979 306.447 796.869 306.871 797.269C306.447 796.869 306.545 798.707 306.986 799.344C306.545 798.707 306.488 798.838 306.921 799.491C306.357 799.132 305.965 799.287 305.875 799.9C305.564 799.197 304.56 798.282 304.748 798.87C304.56 798.282 303.498 798.731 303.547 799.377C303.498 798.731 300.892 798.151 300.606 798.715C300.892 798.151 298.18 797.539 297.543 798.029C298.172 797.539 297.69 797.433 296.995 797.906C297.241 797.326 296.938 796.959 296.236 796.983C297.012 796.608 297.134 796.085 296.366 796.395C297.134 796.093 297.355 795.072 296.62 795.252C297.355 795.08 297.526 794.304 296.816 794.377C297.526 794.304 297.714 793.487 297.02 793.463C297.706 793.487 297.085 793.038 296.317 792.948C297.085 793.038 297.469 791.322 296.75 791.02C297.469 791.322 298.809 788.602 298.253 787.949C298.801 788.602 298.98 789.958 298.458 789.484C299.078 789.55 299.454 787.998 299.536 787.499C299.944 788.202 300.157 788.292 299.781 787.605C300.157 788.3 301.17 788.716 300.925 788.079C301.17 788.716 303.269 789.59 303.294 789.068C303.277 789.59 304.209 789.983 304.347 789.509C304.209 789.983 305.899 790.693 306.259 790.309C305.899 790.693 307.713 791.453 308.301 791.167C307.713 791.453 308.718 791.878 309.437 791.641H309.428Z" fill="#F4F4F4"/>
<path d="M246.528 769.961C247.067 770.957 247.957 770.835 248.815 769.634C248.472 771.341 251.168 773.947 251.846 772.575C251.16 773.947 253.839 776.545 254.868 775.507C253.839 776.545 254.639 779.747 255.767 779.118C254.639 779.747 258.34 780.899 259.933 780.417C258.332 780.899 258.544 781.103 260.178 780.654C259.042 781.585 259.051 782.475 260.211 783.006C258.577 783.194 256.053 784.501 257.36 784.485C256.053 784.509 256.159 786.935 257.482 787.221C256.159 786.935 253.104 791.649 254.035 792.539C253.104 791.649 249.926 796.55 250.449 798.07C249.926 796.55 249.354 797.432 249.804 799.058C248.823 798.241 247.876 798.568 247.426 799.883C247.238 798.159 246.291 797.547 246.356 799.189C246.291 797.547 244.453 796.354 244.281 797.841C244.453 796.354 243.056 795.447 242.705 796.82C243.056 795.447 241.586 794.492 241.047 795.742C241.586 794.492 240.23 795.39 239.527 796.754C240.238 795.39 237.15 793.381 236.047 794.492C237.15 793.381 232.763 788.765 231.097 789.28C232.763 788.757 235.573 789.402 234.266 790.007C234.83 788.929 232.044 787.05 231.146 786.429C232.804 786.233 233.147 785.865 231.53 786.021C233.147 785.865 234.715 784.183 233.302 784.117C234.715 784.183 237.975 780.686 236.978 780.18C237.975 780.686 239.429 779.126 238.62 778.423C239.429 779.134 242.068 776.316 241.586 775.246C242.059 776.316 244.878 773.293 244.763 771.839C244.878 773.293 246.446 771.619 246.528 769.952V769.961Z" fill="#FF4C91"/>
<path d="M243.571 778.758C243.832 779.232 244.249 779.175 244.657 778.603C244.494 779.412 245.776 780.654 246.103 780C245.776 780.654 247.051 781.887 247.541 781.397C247.051 781.895 247.426 783.415 247.966 783.113C247.426 783.415 249.191 783.962 249.951 783.733C249.191 783.962 249.289 784.06 250.065 783.848C249.526 784.289 249.526 784.714 250.081 784.967C249.305 785.057 248.104 785.678 248.725 785.669C248.104 785.678 248.153 786.837 248.782 786.976C248.153 786.837 246.699 789.084 247.141 789.509C246.699 789.084 245.188 791.42 245.433 792.139C245.18 791.42 244.91 791.837 245.131 792.613C244.665 792.229 244.216 792.384 244.004 793.005C243.914 792.188 243.465 791.894 243.497 792.678C243.465 791.894 242.59 791.33 242.509 792.041C242.59 791.33 241.929 790.897 241.757 791.551C241.921 790.897 241.226 790.44 240.965 791.036C241.218 790.44 240.581 790.865 240.238 791.518C240.573 790.865 239.102 789.917 238.58 790.44C239.102 789.909 237.019 787.712 236.227 787.965C237.019 787.72 238.359 788.022 237.738 788.308C238.008 787.793 236.684 786.903 236.251 786.609C237.044 786.511 237.199 786.339 236.431 786.413C237.199 786.339 237.95 785.539 237.272 785.506C237.942 785.539 239.494 783.872 239.02 783.627C239.494 783.872 240.189 783.129 239.805 782.794C240.189 783.129 241.447 781.789 241.218 781.283C241.447 781.789 242.786 780.351 242.729 779.665C242.786 780.36 243.53 779.559 243.571 778.767V778.758Z" fill="#F4F4F4"/>
<path d="M168.85 716.348C167.584 716.275 167.24 717.1 167.967 718.48C166.546 717.288 162.927 718.276 163.891 719.591C162.935 718.276 159.333 719.256 159.831 720.694C159.333 719.248 156.172 718.301 156.27 719.624C156.172 718.301 153.296 720.898 153.027 722.548C153.296 720.898 153.01 720.972 152.7 722.638C152.349 721.152 151.581 720.71 150.658 721.47C151.197 719.943 151.36 717.092 150.846 718.26C151.368 717.092 149.22 715.948 148.428 716.969C149.22 715.948 146.72 710.916 145.609 711.292C146.72 710.916 144.123 705.68 142.685 705.386C144.131 705.68 143.665 704.74 142.162 704.332C143.232 703.874 143.436 702.894 142.668 701.873C144.114 702.559 145.127 702.061 143.812 701.309C145.127 702.061 147.088 701.089 146.026 700.215C147.088 701.089 148.583 700.354 147.709 699.382C148.583 700.354 150.151 699.578 149.481 698.499C150.159 699.569 150.069 697.952 149.383 696.669C150.069 697.944 153.37 696.31 153.1 694.823C153.362 696.31 159.57 694.889 160.101 693.222C159.57 694.889 157.585 696.98 157.863 695.583C158.377 696.596 161.408 695.15 162.527 694.725C161.727 696.22 161.865 696.702 162.682 695.264C161.857 696.702 162.511 698.916 163.409 697.756C162.503 698.908 163.85 703.499 164.929 702.927C163.85 703.499 164.455 705.541 165.607 705.239C164.455 705.549 165.541 709.25 166.832 709.413C165.541 709.25 166.701 713.211 168.139 713.881C166.701 713.211 167.347 715.409 168.866 716.356L168.85 716.348Z" fill="#FF4C91"/>
<path d="M162.756 709.307C162.151 709.274 161.988 709.666 162.331 710.32C161.653 709.756 159.938 710.222 160.387 710.851C159.93 710.222 158.214 710.687 158.451 711.374C158.214 710.687 156.711 710.238 156.752 710.867C156.703 710.238 155.339 711.472 155.208 712.256C155.339 711.472 155.208 711.504 155.053 712.297C154.889 711.594 154.522 711.382 154.081 711.741C154.334 711.014 154.416 709.658 154.17 710.214C154.416 709.658 153.395 709.111 153.019 709.601C153.395 709.119 152.21 706.717 151.679 706.897C152.21 706.717 150.968 704.226 150.282 704.087C150.968 704.226 150.748 703.777 150.029 703.581C150.535 703.36 150.633 702.894 150.266 702.412C150.952 702.739 151.434 702.502 150.813 702.143C151.442 702.502 152.373 702.037 151.867 701.62C152.373 702.037 153.084 701.685 152.667 701.22C153.084 701.685 153.827 701.31 153.509 700.803C153.827 701.31 153.786 700.542 153.468 699.937C153.795 700.542 155.363 699.766 155.241 699.063C155.363 699.774 158.32 699.096 158.573 698.303C158.32 699.096 157.381 700.092 157.512 699.423C157.757 699.905 159.203 699.218 159.734 699.014C159.35 699.725 159.415 699.954 159.807 699.267C159.415 699.954 159.725 701.007 160.158 700.452C159.725 700.999 160.371 703.188 160.877 702.911C160.362 703.18 160.648 704.152 161.196 704.005C160.648 704.152 161.163 705.909 161.776 705.99C161.163 705.909 161.71 707.796 162.397 708.114C161.71 707.796 162.021 708.841 162.74 709.291L162.756 709.307Z" fill="#F4F4F4"/>
<path d="M197.498 935.764C198.037 936.761 198.928 936.638 199.786 935.438C199.442 937.145 202.138 939.751 202.816 938.378C202.13 939.751 204.809 942.348 205.839 941.311C204.809 942.348 205.61 945.551 206.737 944.922C205.61 945.551 209.31 946.702 210.903 946.22C209.302 946.702 209.515 946.907 211.148 946.457C210.013 947.389 210.021 948.279 211.181 948.81C209.547 948.998 207.023 950.305 208.33 950.289C207.023 950.313 207.129 952.739 208.453 953.025C207.129 952.739 204.074 957.453 205.005 958.343C204.074 957.453 200.897 962.354 201.419 963.873C200.897 962.354 200.325 963.236 200.774 964.862C199.794 964.045 198.846 964.372 198.397 965.687C198.209 963.963 197.261 963.351 197.327 964.992C197.261 963.351 195.423 962.158 195.252 963.645C195.423 962.158 194.027 961.251 193.675 962.623C194.027 961.251 192.556 960.295 192.017 961.545C192.556 960.295 191.2 961.194 190.497 962.558C191.208 961.194 188.12 959.184 187.018 960.295C188.12 959.184 183.734 954.569 182.067 955.084C183.734 954.561 186.544 955.206 185.237 955.811C185.8 954.732 183.015 952.854 182.116 952.233C183.774 952.037 184.118 951.669 182.5 951.824C184.118 951.669 185.686 949.986 184.273 949.921C185.686 949.986 188.945 946.49 187.949 945.983C188.945 946.49 190.4 944.93 189.591 944.227C190.4 944.938 193.038 942.12 192.556 941.05C193.03 942.12 195.848 939.097 195.734 937.643C195.848 939.097 197.417 937.423 197.498 935.756V935.764Z" fill="#FF4C91"/>
<path d="M194.533 944.562C194.794 945.036 195.211 944.979 195.62 944.407C195.456 945.216 196.739 946.457 197.065 945.804C196.739 946.457 198.013 947.691 198.503 947.201C198.013 947.699 198.389 949.218 198.928 948.916C198.389 949.218 200.153 949.766 200.913 949.537C200.153 949.766 200.251 949.864 201.027 949.651C200.488 950.093 200.488 950.517 201.044 950.771C200.268 950.86 199.067 951.481 199.688 951.473C199.067 951.481 199.116 952.641 199.745 952.78C199.116 952.641 197.662 954.888 198.103 955.312C197.662 954.888 196.15 957.224 196.396 957.943C196.142 957.224 195.873 957.641 196.093 958.417C195.628 958.033 195.178 958.188 194.966 958.809C194.876 957.992 194.427 957.698 194.46 958.482C194.427 957.698 193.553 957.134 193.471 957.845C193.553 957.134 192.891 956.701 192.72 957.355C192.883 956.701 192.189 956.244 191.927 956.84C192.18 956.244 191.543 956.668 191.2 957.322C191.535 956.668 190.065 955.721 189.542 956.244C190.065 955.713 187.982 953.515 187.189 953.769C187.982 953.523 189.321 953.826 188.701 954.112C188.97 953.597 187.647 952.707 187.214 952.412C188.006 952.314 188.161 952.143 187.393 952.216C188.161 952.143 188.913 951.342 188.235 951.31C188.905 951.342 190.457 949.676 189.983 949.431C190.457 949.676 191.151 948.933 190.767 948.598C191.151 948.933 192.409 947.593 192.18 947.086C192.409 947.593 193.749 946.155 193.692 945.469C193.749 946.163 194.492 945.363 194.533 944.57V944.562Z" fill="#F4F4F4"/>
</svg>
