<svg width="473" height="1213" viewBox="0 0 473 1213" fill="none" xmlns="http://www.w3.org/2000/svg">
<path d="M122.564 0H111.564V1111H122.564V0Z" fill="#4857F6"/>
<path d="M361.564 0H349.564V1072H361.564V0Z" fill="#4857F6"/>
<rect x="66.4812" y="1038.85" width="339.352" height="174" fill="black"/>
<path d="M154.724 1092.09C152.751 1092.09 151.061 1091.78 149.655 1091.16C148.262 1090.53 147.191 1089.58 146.443 1088.32C145.695 1087.06 145.321 1085.48 145.321 1083.6C145.321 1083.34 145.321 1083.12 145.321 1082.94C145.321 1082.76 145.321 1082.54 145.321 1082.28H148.629C148.629 1082.53 148.629 1082.74 148.629 1082.9C148.629 1083.07 148.629 1083.28 148.629 1083.54C148.629 1085.51 149.145 1086.94 150.177 1087.82C151.209 1088.68 152.712 1089.11 154.686 1089.11C156.724 1089.11 158.265 1088.77 159.31 1088.07C160.355 1087.37 160.877 1086.24 160.877 1084.68C160.877 1083.59 160.574 1082.68 159.968 1081.95C159.375 1081.22 158.549 1080.6 157.491 1080.1C156.434 1079.58 155.202 1079.11 153.796 1078.68C152.209 1078.19 150.79 1077.58 149.539 1076.83C148.3 1076.08 147.32 1075.16 146.598 1074.06C145.888 1072.95 145.534 1071.6 145.534 1070.02C145.534 1068.47 145.908 1067.16 146.656 1066.09C147.417 1065.02 148.475 1064.21 149.829 1063.65C151.183 1063.1 152.757 1062.82 154.55 1062.82C156.446 1062.82 158.091 1063.12 159.484 1063.71C160.89 1064.29 161.974 1065.18 162.735 1066.38C163.509 1067.57 163.896 1069.06 163.896 1070.87C163.896 1071.15 163.896 1071.4 163.896 1071.6C163.896 1071.8 163.896 1072.04 163.896 1072.32H160.587C160.587 1072.07 160.587 1071.85 160.587 1071.66C160.587 1071.47 160.587 1071.25 160.587 1071C160.587 1069.12 160.078 1067.78 159.059 1067C158.04 1066.2 156.556 1065.8 154.608 1065.8C152.738 1065.8 151.293 1066.13 150.274 1066.78C149.255 1067.44 148.746 1068.52 148.746 1070.02C148.746 1071.14 149.055 1072.07 149.674 1072.8C150.306 1073.52 151.164 1074.14 152.248 1074.66C153.331 1075.16 154.57 1075.65 155.963 1076.11C157.653 1076.67 159.104 1077.3 160.316 1078.01C161.542 1078.7 162.477 1079.57 163.122 1080.62C163.78 1081.66 164.109 1082.98 164.109 1084.57C164.109 1086.15 163.728 1087.51 162.967 1088.63C162.219 1089.75 161.142 1090.61 159.736 1091.2C158.343 1091.8 156.672 1092.09 154.724 1092.09ZM176.005 1092.02C175.373 1092.02 174.754 1091.95 174.147 1091.8C173.541 1091.66 172.993 1091.41 172.503 1091.05C172.026 1090.67 171.645 1090.15 171.361 1089.48C171.077 1088.8 170.936 1087.92 170.936 1086.85C170.936 1086.58 170.936 1086.3 170.936 1086.02C170.936 1085.72 170.936 1085.41 170.936 1085.09V1074.06H165.924V1071.16H169.136C169.575 1071.16 169.916 1071.14 170.162 1071.12C170.407 1071.08 170.581 1071 170.684 1070.87C170.8 1070.73 170.871 1070.51 170.897 1070.23C170.923 1069.93 170.936 1069.53 170.936 1069.01V1064.35H174.244V1071.16H180.668V1074.06H174.244V1084.02C174.244 1084.31 174.244 1084.59 174.244 1084.86C174.244 1085.13 174.244 1085.38 174.244 1085.61C174.244 1086.71 174.373 1087.57 174.631 1088.19C174.902 1088.8 175.502 1089.11 176.431 1089.11C176.805 1089.11 177.159 1089.08 177.495 1089.02C177.83 1088.95 178.082 1088.89 178.249 1088.82V1091.69C178.03 1091.76 177.721 1091.84 177.321 1091.9C176.934 1091.98 176.495 1092.02 176.005 1092.02ZM183.723 1091.71V1071.16H187.013V1077.47L185.929 1077.08C186.007 1076.32 186.2 1075.57 186.51 1074.83C186.819 1074.09 187.245 1073.42 187.787 1072.82C188.341 1072.22 189.031 1071.74 189.857 1071.39C190.683 1071.03 191.65 1070.85 192.759 1070.85C193.585 1070.85 194.256 1070.92 194.772 1071.06C195.301 1071.19 195.63 1071.29 195.759 1071.37L194.907 1074.6C194.778 1074.51 194.514 1074.4 194.114 1074.25C193.727 1074.11 193.172 1074.04 192.45 1074.04C191.379 1074.04 190.489 1074.23 189.78 1074.62C189.083 1075.01 188.528 1075.52 188.116 1076.17C187.716 1076.8 187.432 1077.49 187.264 1078.24C187.097 1078.99 187.013 1079.73 187.013 1080.46V1091.71H183.723ZM204.933 1092.09C203.372 1092.09 202.005 1091.85 200.831 1091.36C199.67 1090.87 198.767 1090.17 198.122 1089.25C197.477 1088.32 197.155 1087.21 197.155 1085.92C197.155 1084.58 197.503 1083.46 198.2 1082.57C198.896 1081.67 199.876 1080.97 201.141 1080.46C202.405 1079.96 203.875 1079.63 205.552 1079.46C208.08 1079.2 209.88 1078.95 210.951 1078.7C212.021 1078.45 212.556 1078.03 212.556 1077.47C212.556 1077.45 212.556 1077.45 212.556 1077.45C212.556 1077.43 212.556 1077.42 212.556 1077.41C212.556 1076.22 212.073 1075.34 211.105 1074.76C210.138 1074.16 208.738 1073.87 206.907 1073.87C204.997 1073.87 203.514 1074.2 202.456 1074.87C201.399 1075.53 200.87 1076.6 200.87 1078.08H197.619C197.619 1076.55 198.012 1075.25 198.799 1074.18C199.586 1073.09 200.676 1072.27 202.069 1071.7C203.475 1071.13 205.094 1070.85 206.926 1070.85C208.603 1070.85 210.112 1071.11 211.454 1071.62C212.808 1072.13 213.879 1072.88 214.666 1073.89C215.465 1074.88 215.865 1076.11 215.865 1077.58C215.865 1077.85 215.865 1078.12 215.865 1078.39C215.865 1078.65 215.865 1078.92 215.865 1079.19V1087.84C215.865 1088.29 215.885 1088.73 215.923 1089.15C215.962 1089.58 216.026 1089.95 216.117 1090.27C216.233 1090.66 216.362 1090.98 216.504 1091.22C216.646 1091.46 216.762 1091.62 216.852 1091.71H213.543C213.479 1091.64 213.382 1091.49 213.253 1091.26C213.124 1091.02 213.002 1090.73 212.885 1090.41C212.795 1090.15 212.724 1089.83 212.673 1089.44C212.621 1089.04 212.595 1088.63 212.595 1088.2L213.137 1088.57C212.737 1089.27 212.15 1089.88 211.376 1090.41C210.615 1090.94 209.693 1091.35 208.609 1091.65C207.526 1091.95 206.3 1092.09 204.933 1092.09ZM205.455 1089.13C206.784 1089.13 207.984 1088.93 209.054 1088.53C210.125 1088.12 210.976 1087.51 211.608 1086.71C212.24 1085.91 212.556 1084.92 212.556 1083.73V1079.65L213.292 1080.89C212.466 1081.21 211.434 1081.48 210.196 1081.68C208.97 1081.88 207.687 1082.04 206.345 1082.17C204.398 1082.35 202.927 1082.69 201.934 1083.19C200.954 1083.7 200.463 1084.54 200.463 1085.73C200.463 1086.85 200.87 1087.7 201.682 1088.28C202.495 1088.85 203.753 1089.13 205.455 1089.13ZM236.341 1091.71L230.594 1071.16H233.516L238.953 1090.26H238.353L241.952 1071.16H245.377L240.946 1091.71H236.341ZM222.448 1091.71L217.978 1071.16H221.403L225.041 1090.26H224.441L229.82 1071.16H232.742L227.072 1091.71H222.448ZM276.648 1063.17H282.336V1091.71H279.202V1065.8L279.299 1065.84L272.023 1091.71H267.302L259.988 1065.82L260.085 1065.78V1091.71H256.95V1063.17H262.639L269.643 1089.06H269.605L276.648 1063.17ZM294.389 1092.09C292.828 1092.09 291.461 1091.85 290.287 1091.36C289.126 1090.87 288.223 1090.17 287.578 1089.25C286.933 1088.32 286.611 1087.21 286.611 1085.92C286.611 1084.58 286.959 1083.46 287.655 1082.57C288.352 1081.67 289.332 1080.97 290.597 1080.46C291.861 1079.96 293.331 1079.63 295.008 1079.46C297.536 1079.2 299.336 1078.95 300.406 1078.7C301.477 1078.45 302.012 1078.03 302.012 1077.47C302.012 1077.45 302.012 1077.45 302.012 1077.45C302.012 1077.43 302.012 1077.42 302.012 1077.41C302.012 1076.22 301.529 1075.34 300.561 1074.76C299.594 1074.16 298.194 1073.87 296.363 1073.87C294.453 1073.87 292.97 1074.2 291.912 1074.87C290.855 1075.53 290.326 1076.6 290.326 1078.08H287.075C287.075 1076.55 287.468 1075.25 288.255 1074.18C289.042 1073.09 290.132 1072.27 291.525 1071.7C292.931 1071.13 294.55 1070.85 296.382 1070.85C298.059 1070.85 299.568 1071.11 300.91 1071.62C302.264 1072.13 303.335 1072.88 304.122 1073.89C304.921 1074.88 305.321 1076.11 305.321 1077.58C305.321 1077.85 305.321 1078.12 305.321 1078.39C305.321 1078.65 305.321 1078.92 305.321 1079.19V1087.84C305.321 1088.29 305.34 1088.73 305.379 1089.15C305.418 1089.58 305.482 1089.95 305.573 1090.27C305.689 1090.66 305.818 1090.98 305.96 1091.22C306.102 1091.46 306.218 1091.62 306.308 1091.71H302.999C302.935 1091.64 302.838 1091.49 302.709 1091.26C302.58 1091.02 302.457 1090.73 302.341 1090.41C302.251 1090.15 302.18 1089.83 302.129 1089.44C302.077 1089.04 302.051 1088.63 302.051 1088.2L302.593 1088.57C302.193 1089.27 301.606 1089.88 300.832 1090.41C300.071 1090.94 299.149 1091.35 298.065 1091.65C296.982 1091.95 295.756 1092.09 294.389 1092.09ZM294.911 1089.13C296.24 1089.13 297.44 1088.93 298.51 1088.53C299.581 1088.12 300.432 1087.51 301.064 1086.71C301.696 1085.91 302.012 1084.92 302.012 1083.73V1079.65L302.748 1080.89C301.922 1081.21 300.89 1081.48 299.652 1081.68C298.426 1081.88 297.143 1082.04 295.801 1082.17C293.854 1082.35 292.383 1082.69 291.39 1083.19C290.41 1083.7 289.919 1084.54 289.919 1085.73C289.919 1086.85 290.326 1087.7 291.138 1088.28C291.951 1088.85 293.209 1089.13 294.911 1089.13ZM324.336 1091.71V1081.86C324.336 1081.26 324.336 1080.78 324.336 1080.41C324.336 1080.02 324.336 1079.65 324.336 1079.3C324.336 1078.23 324.156 1077.3 323.795 1076.5C323.433 1075.7 322.866 1075.08 322.092 1074.64C321.318 1074.2 320.305 1073.98 319.054 1073.98C317.958 1073.98 316.939 1074.27 315.997 1074.83C315.068 1075.39 314.32 1076.14 313.752 1077.1C313.198 1078.04 312.92 1079.1 312.92 1080.27L311.044 1079.56C311.044 1077.94 311.437 1076.48 312.224 1075.16C313.024 1073.85 314.081 1072.8 315.397 1072.03C316.726 1071.24 318.171 1070.85 319.731 1070.85C321.318 1070.85 322.705 1071.15 323.891 1071.76C325.078 1072.36 325.994 1073.23 326.639 1074.37C327.297 1075.49 327.626 1076.85 327.626 1078.43C327.626 1079 327.626 1079.62 327.626 1080.29C327.626 1080.96 327.626 1081.59 327.626 1082.17V1091.71H324.336ZM309.631 1091.71V1071.16H312.92V1091.71H309.631ZM180.972 1114.07L182.462 1112.19V1125.23L181.398 1124.19H192.949V1127.09H181.398L182.462 1125.99V1139.71H179.172V1111.17H194.671V1114.07H180.972ZM203.713 1140.09C202.152 1140.09 200.785 1139.85 199.611 1139.36C198.45 1138.87 197.547 1138.17 196.902 1137.25C196.257 1136.32 195.935 1135.21 195.935 1133.92C195.935 1132.58 196.283 1131.46 196.98 1130.57C197.676 1129.67 198.657 1128.97 199.921 1128.46C201.185 1127.96 202.655 1127.63 204.332 1127.46C206.861 1127.2 208.66 1126.95 209.731 1126.7C210.801 1126.45 211.337 1126.03 211.337 1125.47C211.337 1125.45 211.337 1125.45 211.337 1125.45C211.337 1125.43 211.337 1125.42 211.337 1125.41C211.337 1124.22 210.853 1123.34 209.885 1122.76C208.918 1122.16 207.518 1121.87 205.687 1121.87C203.778 1121.87 202.294 1122.2 201.236 1122.87C200.179 1123.53 199.65 1124.6 199.65 1126.08H196.399C196.399 1124.55 196.793 1123.25 197.579 1122.18C198.366 1121.09 199.456 1120.27 200.849 1119.7C202.255 1119.13 203.874 1118.85 205.706 1118.85C207.383 1118.85 208.892 1119.11 210.234 1119.62C211.588 1120.13 212.659 1120.88 213.446 1121.89C214.245 1122.88 214.645 1124.11 214.645 1125.58C214.645 1125.85 214.645 1126.12 214.645 1126.39C214.645 1126.65 214.645 1126.92 214.645 1127.19V1135.84C214.645 1136.29 214.665 1136.73 214.703 1137.15C214.742 1137.58 214.807 1137.95 214.897 1138.27C215.013 1138.66 215.142 1138.98 215.284 1139.22C215.426 1139.46 215.542 1139.62 215.632 1139.71H212.323C212.259 1139.64 212.162 1139.49 212.033 1139.26C211.904 1139.02 211.782 1138.73 211.666 1138.41C211.575 1138.15 211.504 1137.83 211.453 1137.44C211.401 1137.04 211.375 1136.63 211.375 1136.2L211.917 1136.57C211.517 1137.27 210.93 1137.88 210.156 1138.41C209.395 1138.94 208.473 1139.35 207.389 1139.65C206.306 1139.95 205.08 1140.09 203.713 1140.09ZM204.235 1137.13C205.564 1137.13 206.764 1136.93 207.834 1136.53C208.905 1136.12 209.756 1135.51 210.388 1134.71C211.021 1133.91 211.337 1132.92 211.337 1131.73V1127.65L212.072 1128.89C211.246 1129.21 210.214 1129.48 208.976 1129.68C207.751 1129.88 206.467 1130.04 205.126 1130.17C203.178 1130.35 201.707 1130.69 200.714 1131.19C199.734 1131.7 199.243 1132.54 199.243 1133.73C199.243 1134.85 199.65 1135.7 200.462 1136.28C201.275 1136.85 202.533 1137.13 204.235 1137.13ZM222.496 1109.46V1139.71H219.246V1109.46H222.496ZM230.896 1109.46V1139.71H227.646V1109.46H230.896ZM242.934 1140.09C241.373 1140.09 240.006 1139.85 238.832 1139.36C237.671 1138.87 236.768 1138.17 236.123 1137.25C235.478 1136.32 235.156 1135.21 235.156 1133.92C235.156 1132.58 235.504 1131.46 236.201 1130.57C236.897 1129.67 237.878 1128.97 239.142 1128.46C240.406 1127.96 241.876 1127.63 243.553 1127.46C246.082 1127.2 247.881 1126.95 248.952 1126.7C250.022 1126.45 250.558 1126.03 250.558 1125.47C250.558 1125.45 250.558 1125.45 250.558 1125.45C250.558 1125.43 250.558 1125.42 250.558 1125.41C250.558 1124.22 250.074 1123.34 249.106 1122.76C248.139 1122.16 246.739 1121.87 244.908 1121.87C242.999 1121.87 241.515 1122.2 240.457 1122.87C239.4 1123.53 238.871 1124.6 238.871 1126.08H235.62C235.62 1124.55 236.014 1123.25 236.801 1122.18C237.587 1121.09 238.677 1120.27 240.07 1119.7C241.477 1119.13 243.095 1118.85 244.927 1118.85C246.604 1118.85 248.113 1119.11 249.455 1119.62C250.809 1120.13 251.88 1120.88 252.667 1121.89C253.466 1122.88 253.866 1124.11 253.866 1125.58C253.866 1125.85 253.866 1126.12 253.866 1126.39C253.866 1126.65 253.866 1126.92 253.866 1127.19V1135.84C253.866 1136.29 253.886 1136.73 253.924 1137.15C253.963 1137.58 254.028 1137.95 254.118 1138.27C254.234 1138.66 254.363 1138.98 254.505 1139.22C254.647 1139.46 254.763 1139.62 254.853 1139.71H251.544C251.48 1139.64 251.383 1139.49 251.254 1139.26C251.125 1139.02 251.003 1138.73 250.887 1138.41C250.796 1138.15 250.725 1137.83 250.674 1137.44C250.622 1137.04 250.596 1136.63 250.596 1136.2L251.138 1136.57C250.738 1137.27 250.151 1137.88 249.377 1138.41C248.616 1138.94 247.694 1139.35 246.61 1139.65C245.527 1139.95 244.301 1140.09 242.934 1140.09ZM243.457 1137.13C244.785 1137.13 245.985 1136.93 247.055 1136.53C248.126 1136.12 248.977 1135.51 249.61 1134.71C250.242 1133.91 250.558 1132.92 250.558 1131.73V1127.65L251.293 1128.89C250.467 1129.21 249.435 1129.48 248.197 1129.68C246.972 1129.88 245.688 1130.04 244.347 1130.17C242.399 1130.35 240.928 1130.69 239.935 1131.19C238.955 1131.7 238.465 1132.54 238.465 1133.73C238.465 1134.85 238.871 1135.7 239.684 1136.28C240.496 1136.85 241.754 1137.13 243.457 1137.13ZM267.928 1140.09C265.968 1140.09 264.187 1139.67 262.588 1138.82C260.988 1137.95 259.718 1136.72 258.776 1135.12C257.847 1133.52 257.383 1131.62 257.383 1129.41C257.383 1127.21 257.847 1125.32 258.776 1123.74C259.718 1122.16 260.988 1120.94 262.588 1120.11C264.187 1119.27 265.968 1118.85 267.928 1118.85C269.425 1118.85 270.76 1119.08 271.933 1119.54C273.107 1120 274.101 1120.6 274.913 1121.36C275.726 1122.12 276.345 1122.96 276.771 1123.88C277.209 1124.78 277.429 1125.68 277.429 1126.59C277.429 1126.6 277.429 1126.62 277.429 1126.65C277.429 1126.67 277.429 1126.7 277.429 1126.72H274.159C274.159 1126.66 274.152 1126.59 274.139 1126.51C274.126 1126.42 274.113 1126.33 274.101 1126.24C273.997 1125.38 273.668 1124.62 273.114 1123.98C272.559 1123.32 271.837 1122.8 270.947 1122.43C270.057 1122.05 269.044 1121.87 267.909 1121.87C266.632 1121.87 265.445 1122.14 264.349 1122.7C263.265 1123.24 262.388 1124.07 261.717 1125.19C261.059 1126.3 260.73 1127.71 260.73 1129.41C260.73 1131.1 261.059 1132.52 261.717 1133.65C262.375 1134.79 263.246 1135.64 264.329 1136.22C265.426 1136.79 266.619 1137.08 267.909 1137.08C269.302 1137.08 270.45 1136.86 271.353 1136.42C272.256 1135.98 272.933 1135.4 273.385 1134.68C273.849 1133.94 274.107 1133.15 274.159 1132.32H277.429C277.429 1133.24 277.222 1134.17 276.809 1135.1C276.397 1136.02 275.79 1136.86 274.991 1137.62C274.191 1138.37 273.198 1138.96 272.011 1139.42C270.837 1139.87 269.476 1140.09 267.928 1140.09ZM280.763 1148.37C280.247 1148.37 279.776 1148.34 279.35 1148.28C278.925 1148.23 278.66 1148.17 278.557 1148.12V1145.26C278.725 1145.34 279.002 1145.4 279.389 1145.45C279.776 1145.5 280.163 1145.53 280.55 1145.53C281.375 1145.53 282.072 1145.36 282.64 1145.01C283.207 1144.67 283.684 1144.21 284.071 1143.62C284.458 1143.03 284.774 1142.38 285.019 1141.64L285.639 1139.82L278.557 1119.16H282.001L287.69 1136.86H287.225L292.798 1119.16H296.184L288.657 1141.47C288.231 1142.72 287.715 1143.87 287.109 1144.91C286.516 1145.96 285.716 1146.79 284.71 1147.43C283.717 1148.06 282.401 1148.37 280.763 1148.37Z" fill="white"/>
<path d="M161.975 1166.76V1169.14H147.135V1166.76H153.127V1163.26H156.011V1166.76H161.975ZM154.555 1180.29C156.459 1180.29 157.887 1178.92 157.887 1176.82C157.887 1174.72 156.459 1173.32 154.555 1173.32C152.679 1173.32 151.251 1174.72 151.251 1176.82C151.251 1178.92 152.679 1180.29 154.555 1180.29ZM154.555 1170.91C157.999 1170.91 160.547 1173.37 160.547 1176.82C160.547 1180.23 157.999 1182.7 154.555 1182.7C151.139 1182.7 148.591 1180.23 148.591 1176.82C148.591 1173.37 151.139 1170.91 154.555 1170.91ZM165.223 1162.87H168.135V1188.16H165.223V1175.53H161.471V1173.18H165.223V1162.87ZM193.921 1172.2L192.801 1174.52C188.601 1173.85 185.157 1171.72 183.505 1168.81C181.881 1171.75 178.381 1173.85 174.181 1174.52L173.061 1172.2C178.213 1171.47 181.965 1168.36 181.965 1165.03V1163.68H185.017V1165.03C185.017 1168.3 188.825 1171.47 193.921 1172.2ZM194.901 1176.9V1179.25H184.849V1188.18H181.965V1179.25H172.053V1176.9H194.901ZM203.691 1179.98C205.875 1179.98 207.415 1177.6 207.415 1173.65C207.415 1169.7 205.875 1167.32 203.691 1167.32C201.479 1167.32 199.967 1169.7 199.967 1173.65C199.967 1177.6 201.479 1179.98 203.691 1179.98ZM203.691 1164.72C207.471 1164.72 210.187 1168.19 210.187 1173.65C210.187 1179.11 207.471 1182.56 203.691 1182.56C199.911 1182.56 197.195 1179.11 197.195 1173.65C197.195 1168.19 199.911 1164.72 203.691 1164.72ZM220.491 1172.76V1175.14H216.543V1188.18H213.659V1162.87H216.543V1172.76H220.491ZM239.781 1162.84H242.693V1188.21H239.781V1162.84ZM223.233 1164.94H226.089V1171.38H232.501V1164.94H235.385V1182.19H223.233V1164.94ZM226.089 1173.68V1179.87H232.501V1173.68H226.089ZM255.475 1168.3V1179.36C256.315 1179.34 257.295 1179.2 258.331 1178.97L258.583 1181.35C256.595 1181.77 255.083 1181.8 253.879 1181.8H252.843V1165.98H258.219V1168.3H255.475ZM261.859 1168.3V1179.39C262.867 1179.34 263.987 1179.22 265.219 1178.92L265.443 1181.3C263.455 1181.77 261.831 1181.8 260.347 1181.8H259.255V1165.98H264.799V1168.3H261.859ZM271.435 1162.87H274.151V1188.16H271.435V1175.3H268.943V1186.95H266.283V1163.35H268.943V1172.95H271.435V1162.87ZM281.513 1174.49V1179.81C285.517 1179.78 289.017 1179.59 293.021 1178.94L293.329 1181.3C288.989 1182.05 285.209 1182.19 280.757 1182.19H278.601V1172.17H287.421V1167.46H278.545V1165.11H290.333V1174.49H281.513ZM295.121 1162.82H298.033V1188.21H295.121V1162.82ZM303.519 1165.53H315.503C315.503 1173.06 312.479 1179.45 303.799 1183.65L302.259 1181.35C308.895 1178.16 312.031 1173.71 312.535 1167.88H303.519V1165.53ZM320.067 1162.87H322.951V1188.16H320.067V1162.87Z" fill="white"/>
<path d="M45.8796 936.587C44.3275 933.302 43.5187 929.359 42.563 925.547C41.2641 920.377 39.4098 916.368 35.3744 915.413C33.3485 914.935 31.584 913.256 29.697 912.12C28.0305 906.283 24.085 905.073 20.6296 902.784C18.62 901.45 17.0924 904.381 15.3116 904.867C12.0686 904.315 9.01341 903.212 6.61993 900.034C6.13796 902.216 7.57573 903.459 7.4777 905.517C5.37013 906.365 4.42256 903.41 2.59273 903.541C0.607691 902.298 -0.764759 899.178 0.468741 896.593C1.71858 893.967 4.76564 894.107 6.36674 895.572C10.0999 898.989 14.3477 899.219 18.8487 898.643C19.4287 897.12 17.4028 897.342 18.2687 895.671C19.0203 894.222 19.535 895.556 20.164 895.589C20.744 895.613 21.3729 895.531 21.9529 895.235C25.923 893.226 29.1497 894.922 32.2457 897.309C34.0755 900.907 35.6031 905.097 39.4425 904.661C39.9408 905.155 39.851 908.324 41.1907 904.998C41.9749 903.056 41.6154 900.701 42.9143 898.964C43.2165 898.561 43.3227 896.988 43.3391 896.988C46.2554 897.375 48.126 892.625 50.7646 891.777C48.4038 896.535 51.0831 897.976 52.3493 900.289C55.4153 905.888 58.8055 905.174 62.5196 898.149C63.4917 898.486 64.815 898.009 64.9947 900.199C63.4753 904.99 60.0362 907.74 58.5005 912.523C60.1097 914.433 62.8218 912.77 64.0226 915.52C62.9198 917.586 61.4249 916.862 59.9218 918.245C64.3249 923.489 66.7592 930.75 70.7701 935.755C73.0247 938.571 75.3529 940.975 76.2024 945.898C76.9948 950.484 79.3393 948.22 81.3162 945.775C83.5953 948.722 80.9567 951.653 79.9192 953.653C78.8654 955.67 77.632 953.398 76.8069 952.196C74.9771 949.529 73.8089 945.396 70.2555 946.746C69.9287 945.001 72.2405 943.329 71.0478 941.765C69.1363 939.263 67.0778 936.982 64.9866 934.8C63.7449 933.508 63.0423 934.693 62.8626 936.883C62.5277 940.868 66.6204 947.38 69.5775 947.586C69.8552 948.895 69.6102 950.163 68.8505 951.192C65.2643 956.09 65.0193 961.721 65.6809 967.36C66.3998 973.518 66.8654 979.742 66.3998 986.279C66.1629 989.654 67.4618 991.433 68.5646 993.524C72.0363 1000.1 75.3365 1006.88 77.3705 1015.03C77.5829 1015.87 77.681 1016.71 77.297 1017.66C73.2698 1017.23 72.7552 1011.79 71.2848 1006.61C70.5414 1010.15 70.9009 1012.96 69.6837 1015.13C67.764 1004.24 64.3004 994.907 59.3664 987.045C59.3256 984.213 58.4024 981.726 58.8762 978.689C61.7108 979.553 61.3433 985.184 63.8511 986.575C64.3903 985.283 64.5454 984.106 64.4311 982.772C63.5162 972.794 62.9933 962.668 62.7891 952.418C62.7646 951.266 63.3609 949.199 61.6536 949.833C61.0328 950.064 60.3303 948.911 59.8565 950.903C59.5216 952.344 58.0104 953.62 59.2602 955.168C59.5298 955.497 60.3548 956.115 59.7993 956.37C56.4827 957.868 58.9988 959.482 59.154 960.972C59.5625 964.858 60.0934 968.735 57.1362 972.061C55.821 966.908 54.4814 961.77 53.1989 956.6C52.8721 955.283 52.0062 954.032 53.1825 952.262C54.4242 952.089 55.8129 951.883 55.9599 949.356C56.1968 945.149 58.2391 940.637 55.3391 937.048C52.6842 933.763 49.5638 930.791 48.3466 925.325C49.1635 925.942 49.9885 926.568 50.8053 927.185C50.9442 927.86 51.3201 928.61 51.7122 927.951C52.2023 927.128 51.4507 927.054 51.1403 926.774C51.5732 924.296 49.3023 924.765 49.4494 922.6C50.9525 921.958 51.9409 923.151 53.0028 924.082C54.416 930.108 57.7816 933.088 61.237 937.385C61.3187 930.454 57.6754 929.589 56.2458 925.983C56.9402 923.876 58.7945 924.765 59.6114 922.863C58.5331 920.377 55.6659 922.493 55.3473 919.093C55.1022 916.491 53.9014 916.096 52.4555 915.668C50.9197 915.215 48.1995 913.947 48.5916 912.745C49.9967 908.415 47.4561 911.066 47.0313 910.21C45.5528 912.161 44.1314 911.058 42.8081 910.835C42.0075 913.289 44.2376 913.198 43.6576 914.836C42.4813 918.171 42.4649 917.899 44.3764 919.249C45.4547 920.015 46.966 919.801 47.6114 921.661C47.8646 922.913 48.1178 924.156 48.3792 925.407C47.497 925.918 46.8353 924.032 45.7978 925.498C46.4758 928.931 48.1015 931.631 47.832 935.632C47.1131 935.369 46.4677 935.755 45.8796 936.636V936.587ZM49.964 907.18C50.4542 902.051 47.7503 901.055 46.0838 898.701C45.61 898.034 44.8503 897.564 44.254 898.972C43.8374 899.952 44.2212 900.742 44.6869 901.269C46.435 903.253 48.2077 905.213 49.9722 907.18H49.964Z" fill="#FF4C91"/>
<path d="M431.761 908.209C433.672 903.928 436.491 900.569 439.121 897.038C442.691 892.246 445.043 887.076 443.843 879.766C443.238 876.102 443.736 872.257 443.728 868.495C447.657 862.732 446.702 855.438 446.873 848.441C446.971 844.374 443.834 843.246 442.56 840.488C441.408 834.717 440.812 828.995 442.225 823.331C440.216 823.611 439.905 826.665 438.182 827.538C436.458 824.393 438.394 821.298 437.389 818.268C437.422 814.283 439.293 810.398 442.005 811.18C444.758 811.978 446.138 817.206 445.738 820.655C444.79 828.699 446.694 836.001 449.373 843.344C450.901 843.567 449.724 840.241 451.513 840.875C453.057 841.418 452.224 842.958 452.51 844.036C452.771 845.032 453.155 846.061 453.678 846.893C457.272 852.614 457.477 858.921 457.052 865.367C455.018 870.273 452.363 874.982 454.601 881.256C454.438 882.351 451.824 883.791 455.181 884.384C457.15 884.73 458.89 882.943 460.948 884.269C461.43 884.573 462.762 883.964 462.77 883.997C463.889 889.134 468.676 889.908 470.661 893.95C465.629 892.345 465.768 897.606 464.51 900.915C461.46 908.923 463.709 914.307 471.257 917.067C471.453 918.887 472.507 920.887 470.808 922.287C466.16 922.131 462.231 917.677 457.575 917.479C456.815 921.176 459.502 924.913 457.844 928.346C455.622 927.523 455.475 924.625 453.604 922.764C451.497 932.858 446.783 940.637 444.676 949.948C443.491 955.176 442.675 960.33 439.088 964.248C435.747 967.904 438.745 970.728 441.711 972.852C440.428 978.203 436.752 975.206 434.612 974.449C432.447 973.683 433.697 970.448 434.269 968.447C435.535 964.001 438.329 959.951 435.486 954.6C436.744 953.167 439.244 956.255 439.93 953.431C441.024 948.928 441.874 944.301 442.617 939.658C443.058 936.9 441.743 936.315 439.881 937.106C436.466 938.546 433.182 948.747 434.465 953.859C433.534 954.987 432.382 955.209 431.165 954.443C425.405 950.829 420.7 953.25 416.436 957.201C411.78 961.524 406.936 965.434 401.389 967.937C398.522 969.229 397.713 972.333 396.561 975.255C392.91 984.443 389.021 993.441 383.377 1000.99C382.797 1001.76 382.159 1002.36 381.196 1002.19C379.562 995.154 383.744 991.548 387.249 986.444C383.989 986.97 381.89 988.996 379.521 988.016C387.437 979.289 393.343 968.727 397.313 956.411C399.6 954.913 401.168 952.105 403.872 951.381C404.559 956.609 399.796 958.831 399.894 963.779C401.209 964.043 402.255 963.713 403.276 962.841C410.947 956.279 418.936 950.294 427.186 944.795C428.118 944.177 430.094 944.144 428.738 941.576C428.248 940.646 428.836 938.867 426.982 939.073C425.642 939.23 423.862 937.311 423.224 940.218C423.086 940.843 422.996 942.556 422.514 941.732C419.663 936.875 419.581 941.938 418.446 942.951C415.48 945.602 412.589 948.45 408.422 945.099C411.968 940.275 415.497 935.434 419.075 930.651C419.99 929.433 420.586 927.342 422.595 928.437C423.339 930.454 424.205 932.709 426.329 931.68C429.874 929.976 434.546 931.162 436.041 924.436C437.414 918.286 438.296 911.511 442.144 906.686C442.045 908.39 441.939 910.086 441.841 911.79C441.359 912.367 440.943 913.379 441.662 913.709C442.577 914.128 442.258 912.811 442.34 912.144C444.57 911.634 443.075 908.02 444.905 907.18C446.171 909.403 445.681 911.683 445.452 913.947C441.237 919.381 440.469 926.576 438.664 934.586C444.349 931.236 443.263 924.633 445.501 920.402C447.559 920.509 447.747 924.106 449.692 924.526C451.186 921.455 448.05 917.66 450.664 915.404C452.665 913.676 452.395 911.445 452.028 908.777C451.644 905.953 451.333 900.701 452.51 900.759C456.725 900.956 453.319 897.984 453.809 896.848C451.497 895.333 451.693 892.37 451.227 890.015C448.834 889.892 450.002 893.621 448.393 893.465C445.093 893.144 445.313 892.979 445.158 896.906C445.068 899.12 445.983 901.574 444.782 903.591C443.892 904.653 443.001 905.706 442.111 906.769C441.261 905.525 442.47 903.459 440.771 902.438C438.312 905.311 436.907 909.428 433.517 910.984C433.378 909.633 432.749 908.736 431.745 908.184L431.761 908.209ZM457.705 900.322C462.125 898.569 461.602 893.481 462.705 889.48C463.015 888.344 463.023 886.813 461.585 886.508C460.581 886.294 460.123 887.34 459.927 888.393C459.167 892.361 458.449 896.338 457.713 900.314L457.705 900.322Z" fill="#FF4C91"/>
<path d="M49.1635 775.236C50.8382 771.49 53.2969 768.551 55.6005 765.464C58.7292 761.265 60.7878 756.746 59.734 750.349C59.203 747.138 59.636 743.779 59.636 740.494C63.0751 735.456 62.2419 729.076 62.3889 722.943C62.4706 719.386 59.734 718.398 58.6149 715.986C57.6101 710.94 57.0873 705.926 58.3208 700.97C56.5563 701.217 56.2867 703.892 54.7836 704.65C53.2724 701.9 54.9715 699.192 54.0893 696.541C54.122 693.058 55.7558 689.65 58.1248 690.342C60.5346 691.041 61.7436 695.61 61.3923 698.632C60.5673 705.671 62.2256 712.059 64.5782 718.481C65.9097 718.67 64.8804 715.764 66.4488 716.315C67.8048 716.793 67.0697 718.135 67.3229 719.082C67.5517 719.954 67.8866 720.852 68.344 721.584C71.4891 726.59 71.6688 732.114 71.293 737.753C69.5122 742.042 67.1841 746.167 69.1528 751.658C69.0139 752.613 66.7184 753.881 69.6592 754.391C71.3829 754.696 72.9022 753.132 74.7075 754.292C75.1241 754.564 76.2923 754.029 76.3005 754.062C77.2808 758.557 81.4632 759.232 83.2114 762.772C78.8083 761.364 78.9309 765.974 77.8281 768.864C75.1596 775.867 77.1283 780.579 83.7342 782.999C83.9057 784.588 84.8207 786.342 83.3421 787.56C79.274 787.42 75.8349 783.526 71.7668 783.353C71.0969 786.589 73.4496 789.857 72.0037 792.862C70.0595 792.138 69.9288 789.602 68.295 787.98C66.457 796.814 62.3236 803.622 60.4856 811.764C59.4481 816.342 58.7374 820.845 55.6005 824.278C52.6761 827.48 55.2983 829.95 57.8878 831.802C56.7687 836.487 53.5502 833.861 51.6713 833.202C49.7762 832.535 50.8708 829.703 51.3691 827.95C52.4801 824.064 54.9226 820.515 52.4311 815.839C53.5339 814.58 55.7231 817.28 56.3194 814.818C57.2751 810.875 58.0185 806.833 58.672 802.766C59.0641 800.354 57.9124 799.843 56.2786 800.535C53.297 801.794 50.4133 810.719 51.5406 815.197C50.7237 816.185 49.7108 816.374 48.657 815.708C43.6168 812.546 39.5079 814.662 35.7666 818.12C31.6903 821.898 27.4506 825.323 22.5983 827.513C20.0905 828.641 19.3879 831.358 18.3668 833.918C15.1728 841.961 11.7664 849.832 6.83236 856.434C6.32589 857.109 5.77045 857.636 4.92905 857.488C3.4995 851.33 7.15914 848.169 10.2225 843.715C7.37153 844.176 5.53351 845.946 3.45861 845.09C10.3858 837.45 15.5486 828.213 19.0285 817.436C21.0299 816.127 22.4022 813.674 24.7712 813.032C25.3757 817.609 21.2095 819.552 21.2912 823.883C22.443 824.113 23.3581 823.825 24.2485 823.059C30.9633 817.313 37.9558 812.085 45.1689 807.269C45.9858 806.726 47.7094 806.701 46.5249 804.445C46.092 803.63 46.6148 802.074 44.9892 802.255C43.8128 802.387 42.2608 800.716 41.6972 803.252C41.5746 803.795 41.5011 805.293 41.0763 804.577C38.5848 800.329 38.5113 804.758 37.5229 805.647C34.9334 807.969 32.3927 810.455 28.7576 807.533C31.8618 803.309 34.9496 799.078 38.0783 794.887C38.8789 793.817 39.4017 791.989 41.1662 792.953C41.8197 794.714 42.5712 796.69 44.4337 795.793C47.5297 794.303 51.6224 795.34 52.9376 789.454C54.1384 784.07 54.9062 778.142 58.2799 773.927C58.1901 775.417 58.1003 776.907 58.0104 778.397C57.5938 778.9 57.218 779.789 57.8551 780.077C58.6557 780.439 58.378 779.295 58.4515 778.71C60.4039 778.266 59.0969 775.104 60.698 774.363C61.8008 776.306 61.376 778.299 61.1717 780.283C57.4876 785.033 56.8177 791.331 55.233 798.337C60.2078 795.406 59.2521 789.627 61.2126 785.922C63.0098 786.013 63.1732 789.166 64.8804 789.536C66.1875 786.852 63.4427 783.526 65.7299 781.551C67.4781 780.036 67.2413 778.093 66.9227 775.755C66.5877 773.285 66.3182 768.691 67.3393 768.741C71.0316 768.913 68.0499 766.312 68.4747 765.316C66.4488 763.99 66.6204 761.397 66.212 759.331C64.1207 759.224 65.1418 762.492 63.7286 762.352C60.845 762.072 61.0329 761.924 60.9022 765.365C60.8287 767.308 61.621 769.449 60.5754 771.219C59.7994 772.149 59.0152 773.071 58.2391 774.001C57.4958 772.915 58.5577 771.103 57.071 770.214C54.9144 772.733 53.689 776.331 50.7237 777.689C50.6012 776.512 50.0539 775.722 49.1716 775.236H49.1635ZM71.873 768.345C75.7368 766.814 75.2875 762.36 76.2433 758.861C76.5129 757.865 76.5211 756.532 75.2631 756.26C74.389 756.079 73.9887 756.984 73.809 757.906C73.1473 761.381 72.5101 764.863 71.873 768.337V768.345Z" fill="#FF4C91"/>
<path d="M433.117 758.466C433.631 754.391 435.224 750.637 436.605 746.834C438.476 741.664 439.137 736.724 435.984 731.636C434.408 729.084 433.762 725.939 432.7 723.066C434.62 717.007 431.695 711.829 429.874 706.403C428.812 703.25 425.667 703.703 423.739 702.131C421.076 698.204 418.911 694.071 418.584 689.148C416.844 690.21 417.433 692.671 416.126 694.063C413.683 692.383 414.557 689.197 412.793 687.304C411.698 684.241 412.286 680.479 414.957 679.944C417.67 679.4 420.398 682.817 421.002 685.624C422.424 692.169 426.198 696.969 430.699 701.447C432.137 700.978 430.135 698.928 431.932 698.656C433.484 698.426 433.166 699.949 433.729 700.657C434.252 701.307 434.881 701.933 435.592 702.353C440.453 705.218 442.421 709.96 443.859 715.064C443.41 719.674 442.34 724.392 446.138 728.244C446.301 729.15 444.349 731.348 447.543 730.393C449.414 729.833 450.484 727.734 452.714 727.882C453.237 727.915 454.266 726.886 454.282 726.911C456.749 730.368 461.283 728.952 464.224 731.208C459.225 732.089 460.842 736.057 460.638 739.12C460.148 746.524 463.698 749.699 471.29 748.645C471.984 749.954 473.496 751.041 472.36 752.827C468.112 754.655 463.317 752.901 459.053 754.712C459.404 757.857 462.892 759.594 462.37 762.912C460.131 763.217 459.176 761.06 456.97 760.426C457.926 769.029 455.859 776.965 456.594 784.967C457.003 789.462 457.721 793.751 455.589 798.254C453.604 802.453 457.109 803.359 460.385 803.729C460.744 808.356 456.57 807.615 454.421 807.936C452.248 808.257 452.461 805.26 452.412 803.49C452.297 799.555 453.678 795.291 449.602 792.393C450.337 790.763 453.466 792.08 453.286 789.635C453 785.733 452.461 781.839 451.824 777.978C451.448 775.681 450.092 775.788 448.63 777.171C445.958 779.706 445.868 788.886 448.474 792.261C447.952 793.521 446.971 794.171 445.664 794.097C439.448 793.751 435.886 797.579 433.15 802.395C430.168 807.656 426.9 812.686 422.595 816.926C420.373 819.116 420.52 821.833 420.3 824.549C419.606 833.111 418.633 841.624 415.676 849.774C415.374 850.606 414.966 851.33 414.051 851.61C410.587 846.917 413.34 842.398 415.064 837.022C412.27 838.792 410.947 841.229 408.537 841.476C413.217 831.473 415.562 820.919 415.668 809.83C417.302 807.722 417.939 804.915 420.169 803.227C422.269 806.94 418.593 810.636 420.079 814.382C421.337 814.028 422.187 813.345 422.865 812.242C427.938 804.001 433.46 796.065 439.35 788.4C440.011 787.536 441.792 786.679 439.84 785.288C439.129 784.786 439.162 783.172 437.553 784.111C436.384 784.794 434.236 784.078 434.481 786.564C434.53 787.099 434.939 788.449 434.269 788.021C430.323 785.502 431.679 789.404 430.944 790.664C429.016 793.941 427.211 797.324 422.505 796.517C424.343 791.339 426.157 786.153 428.044 780.991C428.526 779.673 428.469 777.821 430.601 777.821C431.843 779.048 433.256 780.414 434.89 778.735C437.602 775.944 442.16 774.882 441.612 769.111C441.106 763.834 439.995 758.277 442.111 752.975C442.503 754.317 442.887 755.667 443.279 757.009C443.009 757.651 442.911 758.606 443.663 758.557C444.602 758.491 443.949 757.618 443.834 757.075C445.705 755.749 443.336 753.617 444.749 752.201C446.522 753.37 446.718 755.321 447.151 757.149C444.88 763.077 446.22 768.897 446.857 775.788C451.048 770.84 448.197 766.246 449.022 762.064C450.909 761.282 452.093 763.957 453.972 763.463C454.454 760.483 450.549 758.903 452.273 756.079C453.588 753.914 452.714 752.325 451.636 750.44C450.492 748.439 448.728 744.553 449.806 744.1C453.67 742.479 449.749 741.639 449.871 740.56C447.355 740.371 446.694 738.025 445.607 736.419C443.41 737.325 445.517 739.696 444.022 740.256C440.951 741.4 441.106 741.178 442.078 744.249C442.625 745.977 444.137 747.476 443.63 749.517C443.124 750.703 442.617 751.888 442.119 753.074C441 752.481 441.514 750.39 439.685 750.324C438.271 753.56 438.173 757.297 435.551 759.907C435.045 758.936 434.22 758.507 433.158 758.507L433.117 758.466ZM454.315 741.54C457.811 738.346 455.9 734.674 455.761 731.15C455.72 730.146 455.295 728.977 453.907 729.348C452.943 729.603 452.82 730.599 452.943 731.488C453.384 734.839 453.85 738.189 454.315 741.54Z" fill="#FF4C91"/>
<path d="M97.123 669.76C94.4763 672.88 91.1025 675.136 87.8758 677.556C83.4973 680.841 80.2543 684.611 80.1154 690.596C80.05 693.601 78.8656 696.582 78.1957 699.578C73.2944 703.579 72.9187 709.523 71.4891 715.072C70.664 718.291 73.5394 719.658 74.291 722.037C74.3808 726.795 73.9397 731.447 71.5299 735.744C73.5639 735.818 74.4135 733.431 76.2597 732.994C77.387 735.752 74.9282 737.926 75.3693 740.486C74.6178 743.647 72.0773 746.471 69.5531 745.442C66.9881 744.397 66.5714 740.033 67.5925 737.349C69.9697 731.093 69.4224 724.992 68.099 718.76C66.6368 718.357 67.2004 721.181 65.5503 720.407C64.1289 719.748 65.2236 718.645 65.1337 717.739C65.052 716.908 64.8641 716.035 64.4965 715.294C61.9968 710.215 62.9281 705.16 64.5129 700.097C67.3965 696.491 70.8601 693.14 69.7818 687.814C70.1331 686.966 72.9759 686.208 69.7737 685.237C67.903 684.669 65.8689 685.838 64.0799 684.471C63.6633 684.159 62.2419 684.447 62.2419 684.414C62.0622 680.158 57.504 678.84 56.2705 675.325C60.9267 677.35 61.7354 673.135 63.5734 670.69C68.0173 664.774 66.7757 660.155 59.8485 656.835C59.9792 655.361 59.3093 653.607 61.2289 652.751C65.7708 653.566 68.8342 657.691 73.3761 658.531C74.7893 655.707 72.8206 652.331 75.0671 649.845C77.1011 650.833 76.7254 653.155 78.2284 654.908C82.1168 647.186 88.1618 641.695 91.9031 634.598C94.0107 630.614 95.7425 626.629 99.974 624.044C103.92 621.632 101.485 618.94 98.9529 616.816C101.175 612.749 104.254 615.68 106.223 616.602C108.208 617.532 106.403 619.92 105.48 621.434C103.429 624.785 99.9494 627.592 101.787 632.269C100.293 633.223 98.3892 630.4 97.2047 632.54C95.3177 635.957 93.6512 639.513 92.0828 643.103C91.1516 645.227 92.336 645.893 94.3129 645.539C97.9317 644.897 102.996 637.266 102.662 633.009C103.781 632.244 104.957 632.244 106.011 633.026C111.018 636.755 116.083 635.529 120.992 633.009C126.351 630.26 131.816 627.864 137.73 626.695C140.786 626.094 142.134 623.74 143.8 621.591C149.044 614.815 154.493 608.238 161.404 603.067C162.115 602.541 162.85 602.154 163.765 602.434C164.1 608.27 159.337 610.526 154.975 614.066C158.275 614.132 160.71 612.831 162.858 613.959C153.496 619.73 145.793 627.263 139.667 636.467C137.15 637.323 135.1 639.316 132.306 639.497C132.568 635.232 137.657 634.17 138.449 630.219C137.208 629.815 136.121 629.922 134.953 630.466C126.221 634.549 117.292 638.13 108.184 641.283C107.154 641.637 105.21 641.366 106.076 643.621C106.395 644.436 105.488 645.762 107.35 645.869C108.698 645.943 110.103 647.729 111.255 645.515C111.5 645.037 111.901 643.687 112.227 644.42C114.155 648.709 115.144 644.692 116.442 644.049C119.833 642.378 123.198 640.542 126.686 643.819C122.332 647.128 117.986 650.463 113.6 653.739C112.48 654.579 111.517 656.151 109.736 654.982C109.36 653.27 108.927 651.343 106.648 651.846C102.858 652.677 98.4709 651.039 95.7915 656.176C93.3408 660.869 91.2496 666.129 86.5852 669.398C86.9936 668.056 87.402 666.722 87.8023 665.38C88.3741 664.993 88.9787 664.244 88.3251 663.882C87.5001 663.412 87.5736 664.507 87.3775 665.026C85.0902 665.1 85.9153 668.196 83.9548 668.599C83.1134 666.64 84.0038 664.903 84.641 663.133C89.7629 659.436 91.8132 653.821 95.0318 647.721C88.8397 649.549 88.7172 654.958 85.7519 657.995C83.7506 657.608 84.2162 654.719 82.37 654.093C80.3441 656.316 82.7458 659.798 79.7724 661.206C77.4932 662.285 77.3544 664.096 77.2318 666.277C77.1011 668.583 76.4557 672.806 75.3121 672.592C71.2031 671.81 74.0133 674.683 73.3353 675.514C75.3367 677.062 74.6096 679.392 74.6423 681.335C76.9704 681.788 76.4967 678.643 78.0569 679.005C81.2428 679.746 80.9976 679.845 81.8554 676.749C82.3455 674.996 81.8881 672.913 83.432 671.489C84.5021 670.781 85.5641 670.064 86.6342 669.356C87.2469 670.468 85.6784 671.933 87.1733 672.995C90.1141 671.069 92.2298 668.006 95.8486 667.274C95.7424 668.368 96.1999 669.175 97.0903 669.768L97.123 669.76ZM70.1821 672.188C65.5258 672.929 65.1174 677.054 63.3121 680.075C62.7974 680.931 62.5196 682.15 63.8757 682.603C64.8232 682.915 65.4605 682.158 65.8526 681.351C67.3148 678.305 68.7362 675.251 70.1821 672.197V672.188Z" fill="#FF4C91"/>
<path d="M323.491 460.455C319.431 460.776 315.461 459.969 311.474 459.376C306.075 458.577 301.14 458.931 296.835 463.072C294.679 465.147 291.754 466.423 289.173 468.053C282.899 467.386 278.464 471.322 273.562 474.228C270.72 475.915 271.798 478.928 270.654 481.151C267.378 484.584 263.809 487.556 259.087 488.873C260.468 490.372 262.747 489.293 264.364 490.306C263.229 493.056 259.961 492.842 258.474 494.974C255.722 496.678 251.948 496.859 250.886 494.332C249.807 491.771 252.568 488.388 255.174 487.21C261.244 484.477 265.14 479.776 268.579 474.425C267.828 473.1 266.243 475.495 265.622 473.775C265.083 472.293 266.627 472.301 267.199 471.593C267.722 470.951 268.204 470.194 268.465 469.412C270.262 464.036 274.469 461.13 279.142 458.676C283.708 458.182 288.511 458.281 291.485 453.745C292.326 453.399 294.867 454.881 293.282 451.917C292.359 450.18 290.104 449.555 289.794 447.324C289.72 446.805 288.511 445.998 288.536 445.973C291.395 442.837 289.1 438.655 290.692 435.296C292.571 440.046 296.092 437.642 299.106 437.222C306.399 436.201 308.762 432.052 306.197 424.774C307.324 423.828 308.076 422.115 310.036 422.873C312.675 426.693 311.948 431.789 314.57 435.617C317.552 434.629 318.532 430.834 321.857 430.677C322.608 432.826 320.705 434.201 320.533 436.514C328.702 433.822 336.822 434.25 344.452 431.904C348.732 430.587 352.751 429.006 357.563 430.191C362.048 431.295 362.211 427.656 361.909 424.346C366.336 423.054 366.459 427.318 367.202 429.376C367.954 431.451 364.997 431.854 363.289 432.258C359.491 433.163 355.063 432.669 353.078 437.288C351.346 436.893 351.984 433.542 349.647 434.217C345.914 435.287 342.238 436.621 338.611 438.029C336.455 438.869 336.83 440.186 338.48 441.347C341.487 443.471 350.423 441.692 353.168 438.432C354.491 438.696 355.325 439.527 355.521 440.836C356.444 447.044 360.888 449.785 366.124 451.497C371.842 453.374 377.389 455.573 382.388 458.956C384.969 460.71 387.575 460.002 390.263 459.672C398.726 458.619 407.197 457.853 415.709 459.113C416.583 459.244 417.367 459.5 417.825 460.347C413.969 464.719 409.019 462.916 403.447 462.315C405.735 464.711 408.365 465.526 409.1 467.856C398.432 465.271 387.698 465.098 376.907 467.246C374.53 466.061 371.671 466.003 369.579 464.143C372.757 461.319 377.095 464.192 380.436 461.961C379.839 460.792 378.998 460.092 377.797 459.648C368.754 456.313 359.932 452.477 351.281 448.221C350.309 447.743 349.116 446.163 348.152 448.369C347.801 449.168 346.233 449.464 347.474 450.864C348.373 451.876 348.112 454.14 350.481 453.399C350.987 453.243 352.22 452.568 351.934 453.317C350.293 457.721 353.805 455.589 355.178 456.058C358.747 457.293 362.415 458.388 362.579 463.196C357.171 462.43 351.763 461.698 346.363 460.891C344.983 460.685 343.202 461.113 342.761 459.014C343.7 457.54 344.738 455.869 342.777 454.601C339.51 452.494 337.557 448.204 332.06 449.925C327.028 451.497 321.865 453.72 316.277 452.716C317.503 452.057 318.728 451.399 319.962 450.74C320.64 450.872 321.587 450.773 321.383 450.048C321.13 449.135 320.411 449.958 319.913 450.18C318.246 448.6 316.653 451.374 314.987 450.271C315.763 448.287 317.617 447.694 319.308 446.895C325.525 447.933 330.916 445.422 337.476 443.405C331.815 440.276 327.934 444.022 323.703 444.055C322.559 442.351 324.912 440.639 324.054 438.885C321.064 439.017 320.313 443.182 317.225 442.063C314.856 441.207 313.492 442.384 311.874 443.841C310.167 445.372 306.744 447.908 306.091 446.937C303.73 443.454 303.705 447.488 302.644 447.595C302.97 450.114 300.822 451.242 299.482 452.642C300.814 454.626 302.684 452.057 303.526 453.432C305.258 456.231 305.013 456.124 307.798 454.543C309.367 453.654 310.51 451.86 312.601 451.942C313.851 452.197 315.109 452.461 316.359 452.716C316.008 453.934 313.876 453.86 314.186 455.671C317.617 456.404 321.269 455.745 324.332 457.804C323.491 458.503 323.245 459.401 323.458 460.455H323.491ZM302.742 442.977C298.927 440.178 295.749 442.804 292.351 443.66C291.387 443.907 290.333 444.557 290.978 445.85C291.428 446.747 292.416 446.665 293.258 446.368C296.427 445.257 299.58 444.113 302.742 442.977Z" fill="#FF4C91"/>
<path d="M390.394 656.234C387.298 653.566 385.059 650.166 382.658 646.914C379.398 642.502 375.657 639.233 369.718 639.094C366.737 639.028 363.779 637.834 360.806 637.159C356.836 632.219 350.938 631.841 345.432 630.4C342.238 629.568 340.882 632.466 338.521 633.224C333.8 633.314 329.184 632.87 324.92 630.441C324.847 632.491 327.216 633.347 327.648 635.208C324.912 636.344 322.755 633.866 320.215 634.31C317.078 633.553 314.276 630.993 315.297 628.449C316.335 625.864 320.664 625.444 323.327 626.473C329.536 628.869 335.589 628.317 341.772 626.983C342.173 625.51 339.371 626.078 340.139 624.415C340.792 622.982 341.887 624.086 342.785 623.995C343.61 623.913 344.476 623.723 345.212 623.353C350.252 620.834 355.267 621.772 360.291 623.369C363.869 626.275 367.194 629.766 372.479 628.679C373.321 629.033 374.072 631.898 375.036 628.671C375.6 626.786 374.44 624.736 375.796 622.933C376.106 622.513 375.82 621.081 375.853 621.081C380.076 620.899 381.383 616.306 384.871 615.062C382.862 619.755 387.044 620.57 389.471 622.422C395.341 626.901 399.924 625.65 403.219 618.668C404.681 618.8 406.421 618.125 407.27 620.06C406.462 624.637 402.369 627.724 401.536 632.302C404.338 633.726 407.687 631.742 410.154 634.006C409.174 636.056 406.87 635.677 405.13 637.192C412.793 641.11 418.241 647.203 425.283 650.973C429.237 653.097 433.19 654.842 435.755 659.107C438.149 663.083 440.82 660.63 442.928 658.078C446.963 660.317 444.055 663.421 443.14 665.405C442.217 667.405 439.848 665.586 438.345 664.656C435.02 662.589 432.235 659.082 427.595 660.935C426.647 659.428 429.449 657.51 427.325 656.316C423.935 654.414 420.406 652.735 416.844 651.154C414.737 650.216 414.075 651.41 414.426 653.402C415.064 657.049 422.636 662.153 426.86 661.815C427.619 662.943 427.619 664.129 426.843 665.191C423.143 670.237 424.36 675.342 426.86 680.29C429.588 685.69 431.965 691.198 433.125 697.158C433.721 700.237 436.058 701.595 438.19 703.275C444.913 708.56 451.44 714.051 456.57 721.016C457.093 721.732 457.476 722.473 457.199 723.395C451.407 723.733 449.169 718.933 445.656 714.537C445.591 717.863 446.881 720.316 445.762 722.482C440.036 713.047 432.561 705.284 423.429 699.109C422.579 696.574 420.602 694.507 420.422 691.692C424.654 691.955 425.708 697.084 429.629 697.883C430.029 696.631 429.923 695.536 429.384 694.359C425.332 685.558 421.778 676.56 418.65 667.381C418.298 666.343 418.568 664.384 416.33 665.257C415.521 665.578 414.206 664.664 414.1 666.541C414.026 667.899 412.254 669.315 414.451 670.476C414.925 670.723 416.264 671.127 415.537 671.456C411.281 673.399 415.268 674.395 415.905 675.704C417.563 679.12 419.385 682.512 416.134 686.028C412.85 681.64 409.541 677.26 406.29 672.839C405.457 671.711 403.897 670.74 405.057 668.945C406.756 668.566 408.667 668.13 408.169 665.833C407.344 662.013 408.97 657.592 403.872 654.892C399.216 652.422 393.996 650.314 390.753 645.614C392.085 646.025 393.408 646.437 394.739 646.84C395.123 647.417 395.867 648.026 396.226 647.367C396.692 646.536 395.605 646.61 395.091 646.412C395.017 644.107 391.946 644.939 391.545 642.963C393.49 642.115 395.213 643.012 396.97 643.654C400.637 648.816 406.209 650.883 412.262 654.126C410.448 647.886 405.081 647.762 402.067 644.774C402.451 642.757 405.318 643.226 405.939 641.366C403.733 639.324 400.278 641.744 398.881 638.748C397.811 636.451 396.014 636.311 393.849 636.187C391.562 636.056 387.371 635.405 387.583 634.253C388.36 630.112 385.509 632.944 384.684 632.26C383.148 634.277 380.836 633.545 378.908 633.578C378.459 635.924 381.579 635.446 381.22 637.019C380.485 640.23 380.387 639.983 383.458 640.847C385.198 641.341 387.265 640.88 388.678 642.436C389.381 643.514 390.091 644.585 390.794 645.663C389.691 646.281 388.237 644.7 387.183 646.207C389.095 649.17 392.134 651.302 392.861 654.95C391.774 654.843 390.974 655.304 390.385 656.201L390.394 656.234ZM387.992 629.091C387.257 624.398 383.164 623.987 380.166 622.167C379.317 621.649 378.108 621.369 377.658 622.735C377.348 623.69 378.099 624.332 378.9 624.728C381.922 626.201 384.953 627.634 387.984 629.091H387.992Z" fill="#FF4C91"/>
<path d="M132.363 505.264C130.297 506.647 127.699 505.314 125.477 506.837C124.464 507.528 123.312 505.544 122.642 504.416C121.915 503.19 123.067 502.827 123.884 502.35C127.397 500.283 130.533 497.608 134.34 495.994C136.856 494.932 138.482 493.45 136.007 490.552C135.018 489.392 134.642 487.704 133.695 485.629C139.315 489.943 144.11 489.021 148.807 485.004C153.758 480.764 158.896 476.755 163.895 472.572C165.21 471.469 166.485 470.152 168.012 471.897C169.409 473.495 168.453 475.042 167.13 476.145C162.335 480.138 157.483 484.049 152.63 487.976C151.895 488.568 150.792 489.029 150.809 490.017C150.833 491.483 152.377 491.252 153.284 491.614C155.424 492.471 157.638 493.138 159.811 493.92C160.93 494.323 162.572 494.586 162.425 496.035C162.261 497.69 160.432 497.896 159.19 497.847C156.78 497.756 154.37 497.32 151.993 496.883C150.809 496.661 149.698 496.044 148.513 495.747C146.773 495.311 144.69 493.582 143.326 495.698C141.831 498.011 143.816 499.872 145.368 501.28C153.202 508.384 161.15 515.193 171.018 519.614C175.944 521.82 180.502 523.31 185.796 522.437C186.923 522.248 188.157 521.622 189.3 522.561C189.611 523.919 188.116 523.845 187.724 524.619C186.776 526.447 186.629 527.756 189.186 528.488C193.475 529.723 197.682 531.263 201.889 532.786C203.612 533.411 206.079 534.062 204.878 536.614C203.915 538.664 201.807 538.236 199.871 537.478C193.687 535.058 187.895 531.699 181.515 529.781C177.962 525.195 173.224 523.187 167.53 523.244C162 518.724 154.82 516.971 149.412 512.245C148.391 511.348 147.484 511.356 146.847 512.715C142.15 510.179 136.619 509.117 133.229 504.243C132.339 502.967 132.306 504.564 132.38 505.281L132.363 505.264Z" fill="#FF4C91"/>
<path d="M211.553 616.149C209.012 616.421 206.439 616.495 203.956 617.038C202.028 617.458 199.651 617.343 199.038 620.323C198.883 621.089 196.808 621.764 195.55 621.928C193.352 622.217 191.245 622.192 189.742 624.349C189.056 625.337 187.757 625.625 186.67 624.299C184.612 621.78 182.725 622.579 180.454 624.365C177.072 627.024 173.657 630.317 169.72 631.429C163.397 633.207 157.417 635.998 150.997 637.389C150.057 637.595 148.35 637.257 148.807 638.846C149.249 640.386 150.613 639.167 151.585 639.027C155.49 638.476 159.125 635.899 163.356 637.694C164.655 638.245 164.786 637.933 164.492 641.086C164.01 641.316 163.52 641.547 163.038 641.777C157.385 638.739 152.712 639.497 148.423 643.951C147.558 644.848 145.94 646.544 145.066 645.367C143.849 643.712 143.359 641.464 143.98 639.044C145.793 631.923 152.622 630.729 157.328 626.991C164.573 621.229 173.674 618.652 180.846 612.807C181.042 612.642 181.426 612.379 181.483 612.428C185.2 615.812 190.983 610.658 194.619 615.639C195.051 616.231 198.858 616.363 201.317 615.309C204.421 613.976 207.975 613.712 211.348 613.045C211.683 612.98 212.092 613.325 212.467 613.482C212.549 613.597 212.639 613.712 212.721 613.836C212.337 614.61 211.953 615.383 211.561 616.157L211.553 616.149ZM174.262 624.736C170.7 623.937 168.241 625.04 166.06 626.662C165.325 627.206 163.16 627.354 164.304 629.066C165.072 630.219 166.509 630.408 167.915 629.544C170.063 628.226 172.162 626.884 174.262 624.736Z" fill="#FF4C91"/>
<path d="M361.476 640.131C359.491 638.517 357.612 636.731 355.48 635.348C353.83 634.269 352.221 632.491 349.696 634.162C349.043 634.59 347.107 633.594 346.102 632.812C344.346 631.454 342.875 629.931 340.294 630.383C339.118 630.589 337.99 629.873 338.154 628.152C338.464 624.909 336.569 624.127 333.71 623.773C329.454 623.238 324.724 623.139 321.171 621.122C315.452 617.878 309.26 615.581 303.746 611.992C302.946 611.465 301.966 610.016 301.173 611.465C300.405 612.864 302.227 612.98 303.011 613.572C306.156 615.968 310.543 616.734 312.275 621.015C312.806 622.332 313.124 622.2 310.698 624.217C310.192 624.036 309.685 623.847 309.187 623.666C307.324 617.491 303.485 614.7 297.326 614.791C296.084 614.807 293.748 614.849 293.96 613.4C294.254 611.366 295.496 609.423 297.628 608.147C303.902 604.401 309.571 608.427 315.518 609.135C324.683 610.23 332.926 614.881 342.099 615.861C342.353 615.886 342.81 615.976 342.818 616.05C343.071 621.097 350.775 621.566 349.852 627.675C349.745 628.408 352.343 631.207 354.818 632.211C357.947 633.479 360.651 635.833 363.502 637.76C363.78 637.949 363.837 638.484 363.992 638.863C363.967 639.003 363.951 639.151 363.927 639.291C363.11 639.563 362.293 639.834 361.476 640.114V640.131ZM329.078 619.632C327.118 616.528 324.61 615.556 321.93 615.153C321.032 615.013 319.39 613.572 318.998 615.598C318.736 616.964 319.619 618.117 321.211 618.504C323.654 619.105 326.08 619.656 329.078 619.632Z" fill="#FF4C91"/>
<path d="M78.1712 860.88C72.0527 864.84 71.0643 867.416 74.144 877.691C77.0113 887.265 79.5191 896.98 83.5464 906.192C84.3061 907.937 83.8241 910.226 83.9303 912.548C80.7444 912.358 79.8867 909.864 79.8377 907.806C79.7233 903.22 75.5653 900.577 75.0017 896.288C74.7974 894.724 73.4905 894.37 72.1099 895.053C70.3945 895.893 71.195 897.194 71.7341 898.264C74.5687 903.944 77.1093 909.757 78.9391 915.857C70.0677 908.662 62.4461 900.446 58.0839 889.62C56.7606 886.327 55.5189 884.063 52.088 887.883C51.0832 889.002 49.3188 888.648 48.1098 887.405C48.3058 885.685 48.4937 883.964 48.6897 882.243C49.817 880.07 52.0063 880.794 53.7708 880.366C55.1676 881.033 56.4665 883.108 58.1003 880.687C59.538 879.732 60.9758 878.786 62.4135 877.831C64.227 881.618 66.0322 885.405 67.8621 889.192C68.3685 890.246 68.4176 892.032 70.1494 891.563C71.5626 891.184 72.8288 890.138 72.6899 888.352C72.5429 886.45 72.3142 884.549 72.0037 882.671C70.0922 871.072 64.423 860.336 64.3086 848.325C64.2923 846.654 63.1405 845.666 62.0214 844.678C64.9459 841.064 66.9553 838.504 70.0268 845.262C71.8485 849.264 74.9037 852.343 73.9398 857.323C73.3679 860.271 76.2433 860.304 78.1875 860.88H78.1712ZM58.7783 884.779C58.7619 885.166 58.6067 885.635 58.7783 885.833C58.9825 886.072 59.5707 886.269 59.7912 886.146C60.3794 885.783 60.4693 885.166 59.8485 884.746C59.6116 884.59 59.1622 884.763 58.7865 884.779H58.7783Z" fill="#FF4C91"/>
<path d="M72.3224 1019.15L70.4844 1004.79C70.1331 1002.05 61.9969 937.155 70.7703 898.832C75.4919 878.202 70.5252 824.146 67.2332 788.384C65.0684 764.863 63.3611 746.29 63.794 736.206C64.6599 716.159 66.2692 678.841 98.2095 658.424C110.283 650.71 130.142 645.853 151.168 640.716C161.404 638.213 171.991 635.628 180.446 632.928C188.876 630.227 192.462 628.268 193.834 627.362C195.779 620.966 193.736 612.009 191.392 601.742C189.954 595.436 188.467 588.924 187.683 582.009C187.471 580.124 186.482 576.114 185.518 572.229C182.463 559.847 177.84 541.142 180.217 522.998C183.386 498.777 197.927 481.719 222.262 473.651C230.66 470.869 239.417 469.461 248.28 469.461C257.143 469.461 265.9 470.869 274.298 473.651C298.633 481.711 313.173 498.777 316.343 522.998C318.72 541.142 314.105 559.847 311.05 572.229C310.094 576.106 309.097 580.124 308.885 582.009C308.101 588.924 306.614 595.445 305.176 601.751C302.84 612.009 300.798 620.966 302.734 627.362C304.106 628.268 307.692 630.227 316.122 632.928C324.569 635.628 335.156 638.221 345.4 640.716C366.426 645.853 386.293 650.71 398.359 658.424C430.299 678.833 431.908 716.159 432.774 736.206C433.207 746.29 431.5 764.863 429.335 788.384C426.043 824.154 421.068 878.21 425.798 898.841C434.571 937.163 426.435 1002.06 426.084 1004.8L424.246 1019.16H72.3142L72.3224 1019.15Z" fill="#FF4C91"/>
<path d="M416.461 736.913C415.366 711.516 412.082 686.678 389.618 672.32C367.161 657.963 295.398 651.895 288.275 635.331C281.151 618.767 290.464 599.445 292.653 580.123C294.614 562.81 319.88 506.071 269.2 489.285C255.64 484.79 240.928 484.79 227.367 489.285C176.688 506.079 201.946 562.818 203.915 580.123C206.104 599.445 215.416 618.767 208.293 635.331C201.17 651.895 129.415 657.963 106.95 672.32C84.4939 686.678 81.2017 711.516 80.1071 736.913C79.0125 762.311 94.901 866.651 86.6831 902.529C78.4652 938.414 86.6831 1002.69 86.6831 1002.69H409.876C409.876 1002.69 418.094 938.414 409.876 902.529C401.659 866.643 417.547 762.303 416.452 736.913H416.461Z" fill="#4857F6" stroke="#FF4C91" stroke-width="2.2" stroke-miterlimit="10"/>
<path d="M247.855 994.833C230.472 994.833 213.562 990.972 197.592 983.356C182.21 976.021 168.421 965.549 156.6 952.221C144.78 938.892 135.484 923.341 128.982 906.003C122.226 887.998 118.803 868.931 118.803 849.33V799.852C118.803 780.258 122.226 761.191 128.982 743.178C135.484 725.84 144.78 710.289 156.6 696.961C168.421 683.632 182.21 673.16 197.592 665.825C213.562 658.21 230.472 654.349 247.855 654.349C265.238 654.349 282.148 658.21 298.118 665.825C313.5 673.16 327.289 683.632 339.109 696.961C350.93 710.289 360.218 725.832 366.728 743.178C373.484 761.191 376.907 780.258 376.907 799.852V849.33C376.907 868.923 373.484 887.99 366.728 906.003C360.226 923.341 350.93 938.892 339.109 952.221C327.289 965.549 313.492 976.029 298.118 983.356C282.148 990.972 265.23 994.833 247.855 994.833Z" fill="#4857F6" stroke="#FF4C91" stroke-width="2.2" stroke-miterlimit="10"/>
<path d="M247.855 958.667C234.793 958.667 222.082 955.769 210.082 950.047C198.523 944.54 188.157 936.661 179.277 926.642C170.39 916.623 163.405 904.933 158.52 891.909C153.448 878.383 150.874 864.058 150.874 849.321V799.844C150.874 785.115 153.448 770.782 158.52 757.256C163.405 744.224 170.39 732.542 179.277 722.523C188.165 712.504 198.532 704.634 210.082 699.118C222.082 693.396 234.785 690.498 247.855 690.498C260.925 690.498 273.628 693.396 285.628 699.118C297.187 704.625 307.553 712.504 316.433 722.523C325.321 732.542 332.305 744.224 337.19 757.256C342.263 770.782 344.836 785.115 344.836 799.844V849.321C344.836 864.05 342.263 878.383 337.19 891.909C332.305 904.933 325.321 916.623 316.433 926.642C307.545 936.661 297.179 944.54 285.628 950.047C273.628 955.769 260.925 958.667 247.855 958.667Z" fill="#4857F6" stroke="#FF4C91" stroke-width="2.2" stroke-miterlimit="10"/>
<path d="M247.855 922.509C239.106 922.509 230.602 920.566 222.58 916.746C214.845 913.058 207.909 907.789 201.954 901.08C195.999 894.37 191.326 886.549 188.059 877.831C184.669 868.783 182.945 859.192 182.945 849.329V799.852C182.945 789.989 184.669 780.398 188.059 771.35C191.326 762.632 196.007 754.811 201.954 748.101C207.909 741.392 214.845 736.123 222.58 732.435C230.602 728.607 239.106 726.672 247.855 726.672C256.604 726.672 265.108 728.615 273.129 732.435C280.865 736.123 287.801 741.392 293.756 748.101C299.711 754.811 304.384 762.632 307.651 771.35C311.041 780.398 312.765 789.989 312.765 799.852V849.329C312.765 859.192 311.041 868.783 307.651 877.831C304.384 886.549 299.703 894.37 293.756 901.08C287.801 907.789 280.865 913.058 273.129 916.746C265.108 920.574 256.604 922.509 247.855 922.509Z" fill="#4857F6" stroke="#FF4C91" stroke-width="2.2" stroke-miterlimit="10"/>
<path d="M247.855 654.34V994.833" stroke="#FF4C91" stroke-width="2.76" stroke-miterlimit="10"/>
<path d="M376.907 824.582H118.795" stroke="#FF4C91" stroke-width="2.41" stroke-miterlimit="10"/>
<path d="M280.694 795.916C280.694 777.634 265.99 762.813 247.851 762.813C229.712 762.813 215.008 777.634 215.008 795.916V853.248C215.008 871.531 229.712 886.351 247.851 886.351C265.99 886.351 280.694 871.531 280.694 853.248V795.916Z" fill="#F4F4F4" stroke="#FF4C91" stroke-width="2.2" stroke-miterlimit="10"/>
<path d="M254.292 742.544V736.51L252.912 737.267V736.008L254.676 735.036H255.779V742.544H257.004V743.664H252.961V742.544H254.292Z" fill="#FF4C91"/>
<path d="M258.099 739.317C258.099 738.634 258.156 738.016 258.279 737.465C258.401 736.913 258.581 736.436 258.826 736.041C259.071 735.645 259.381 735.341 259.765 735.127C260.149 734.913 260.59 734.806 261.105 734.806C261.62 734.806 262.044 734.913 262.42 735.119C262.796 735.324 263.098 735.629 263.343 736.016C263.588 736.403 263.768 736.88 263.882 737.44C263.997 738 264.062 738.626 264.062 739.325C264.062 740.025 264.005 740.675 263.891 741.235C263.776 741.795 263.596 742.264 263.351 742.643C263.106 743.022 262.796 743.318 262.42 743.516C262.044 743.713 261.595 743.812 261.08 743.812C260.566 743.812 260.125 743.713 259.749 743.516C259.373 743.318 259.063 743.03 258.826 742.643C258.589 742.256 258.401 741.795 258.287 741.235C258.172 740.675 258.115 740.042 258.115 739.325L258.099 739.317ZM261.089 742.618C261.301 742.618 261.481 742.577 261.628 742.487C261.775 742.396 261.906 742.273 262.004 742.116C262.102 741.96 262.191 741.77 262.249 741.548C262.306 741.326 262.355 741.095 262.387 740.848C262.42 740.601 262.445 740.338 262.453 740.066C262.461 739.795 262.469 739.523 262.469 739.243C262.469 738.988 262.469 738.733 262.461 738.469C262.453 738.206 262.436 737.959 262.404 737.72C262.371 737.481 262.33 737.251 262.273 737.045C262.216 736.839 262.134 736.65 262.036 736.493C261.938 736.337 261.807 736.213 261.66 736.123C261.513 736.032 261.326 735.991 261.113 735.991C260.901 735.991 260.705 736.032 260.549 736.123C260.394 736.213 260.264 736.329 260.157 736.485C260.051 736.641 259.97 736.823 259.904 737.028C259.839 737.234 259.79 737.465 259.757 737.712C259.724 737.959 259.7 738.214 259.692 738.486C259.684 738.757 259.675 739.021 259.675 739.292C259.675 739.564 259.675 739.827 259.692 740.099C259.708 740.371 259.724 740.626 259.757 740.873C259.79 741.12 259.839 741.351 259.904 741.565C259.97 741.779 260.051 741.96 260.149 742.116C260.247 742.273 260.378 742.396 260.533 742.487C260.688 742.577 260.868 742.618 261.08 742.618H261.089Z" fill="#FF4C91"/>
<path d="M297.914 837.45V831.415L296.533 832.173V830.913L298.298 829.941H299.401V837.45H300.626V838.569H296.582V837.45H297.914Z" fill="#FF4C91"/>
<path d="M301.72 834.222C301.72 833.539 301.778 832.922 301.9 832.37C302.023 831.818 302.202 831.341 302.447 830.946C302.692 830.551 303.003 830.246 303.387 830.032C303.771 829.818 304.212 829.711 304.727 829.711C305.241 829.711 305.666 829.818 306.042 830.024C306.418 830.229 306.72 830.534 306.965 830.921C307.21 831.308 307.39 831.786 307.504 832.345C307.618 832.905 307.684 833.531 307.684 834.231C307.684 834.93 307.626 835.581 307.512 836.141C307.398 836.7 307.218 837.17 306.973 837.548C306.728 837.927 306.418 838.223 306.042 838.421C305.666 838.619 305.217 838.717 304.702 838.717C304.187 838.717 303.746 838.619 303.37 838.421C302.995 838.223 302.684 837.935 302.447 837.548C302.211 837.161 302.023 836.7 301.908 836.141C301.794 835.581 301.737 834.947 301.737 834.231L301.72 834.222ZM304.71 837.532C304.923 837.532 305.102 837.491 305.249 837.4C305.396 837.31 305.527 837.186 305.625 837.03C305.723 836.873 305.813 836.684 305.87 836.462C305.927 836.239 305.976 836.009 306.009 835.762C306.042 835.515 306.066 835.251 306.074 834.98C306.083 834.708 306.091 834.436 306.091 834.156C306.091 833.901 306.091 833.646 306.083 833.383C306.074 833.119 306.058 832.872 306.025 832.633C305.993 832.395 305.952 832.164 305.895 831.958C305.837 831.753 305.756 831.563 305.658 831.407C305.56 831.25 305.429 831.127 305.282 831.036C305.135 830.946 304.947 830.905 304.735 830.905C304.522 830.905 304.326 830.946 304.171 831.036C304.016 831.127 303.885 831.242 303.779 831.399C303.673 831.555 303.591 831.736 303.526 831.942C303.46 832.148 303.411 832.378 303.379 832.625C303.346 832.872 303.322 833.127 303.313 833.399C303.305 833.671 303.297 833.934 303.297 834.206C303.297 834.478 303.297 834.741 303.313 835.013C303.33 835.284 303.346 835.54 303.379 835.787C303.411 836.033 303.46 836.264 303.526 836.478C303.591 836.692 303.673 836.873 303.771 837.03C303.869 837.186 303.999 837.31 304.155 837.4C304.31 837.491 304.49 837.532 304.702 837.532H304.71Z" fill="#FF4C91"/>
<path d="M367.733 833.391C368.117 833.391 368.444 833.358 368.714 833.284C368.983 833.21 369.204 833.119 369.375 832.987C369.547 832.856 369.669 832.708 369.751 832.526C369.833 832.345 369.865 832.139 369.865 831.917C369.865 831.596 369.775 831.349 369.604 831.168C369.432 830.987 369.146 830.888 368.754 830.888C368.542 830.888 368.354 830.913 368.183 830.954C368.011 830.995 367.856 831.053 367.717 831.119C367.578 831.185 367.447 831.259 367.333 831.341C367.219 831.423 367.112 831.497 367.014 831.563L366.361 830.501C366.483 830.402 366.639 830.304 366.81 830.213C366.982 830.123 367.17 830.032 367.382 829.958C367.594 829.884 367.807 829.826 368.044 829.777C368.281 829.727 368.526 829.711 368.787 829.711C369.155 829.711 369.506 829.752 369.824 829.834C370.143 829.917 370.429 830.04 370.674 830.205C370.919 830.37 371.107 830.584 371.246 830.839C371.385 831.094 371.458 831.407 371.458 831.761C371.458 832 371.409 832.222 371.319 832.436C371.23 832.65 371.107 832.839 370.96 833.012C370.813 833.185 370.65 833.333 370.462 833.457C370.274 833.58 370.086 833.671 369.89 833.728C370.192 833.77 370.462 833.844 370.699 833.951C370.935 834.058 371.14 834.198 371.303 834.379C371.466 834.56 371.589 834.766 371.679 835.021C371.769 835.276 371.81 835.564 371.81 835.885C371.81 836.404 371.728 836.84 371.573 837.203C371.417 837.565 371.197 837.853 370.911 838.075C370.625 838.297 370.298 838.462 369.914 838.561C369.53 838.66 369.114 838.709 368.665 838.709C368.379 838.709 368.109 838.676 367.848 838.619C367.586 838.561 367.341 838.487 367.121 838.405C366.9 838.322 366.704 838.24 366.541 838.149C366.377 838.059 366.247 837.993 366.157 837.935L366.867 836.75C366.867 836.75 366.949 836.807 367.014 836.857C367.08 836.906 367.17 836.956 367.268 837.013C367.366 837.071 367.472 837.128 367.594 837.186C367.717 837.244 367.839 837.301 367.97 837.351C368.101 837.4 368.232 837.441 368.37 837.474C368.509 837.507 368.64 837.524 368.771 837.524C369.204 837.524 369.547 837.392 369.8 837.137C370.053 836.881 370.184 836.495 370.184 835.984C370.184 835.663 370.135 835.4 370.045 835.186C369.955 834.971 369.808 834.807 369.612 834.692C369.416 834.576 369.155 834.486 368.844 834.436C368.534 834.387 368.158 834.362 367.717 834.354L367.733 833.383V833.391Z" fill="#FF4C91"/>
<path d="M254.488 664.54C254.872 664.54 255.199 664.507 255.469 664.433C255.738 664.359 255.959 664.269 256.13 664.137C256.302 664.005 256.424 663.857 256.506 663.676C256.588 663.495 256.62 663.289 256.62 663.067C256.62 662.746 256.53 662.499 256.359 662.318C256.187 662.136 255.902 662.038 255.509 662.038C255.297 662.038 255.109 662.062 254.938 662.103C254.766 662.145 254.611 662.202 254.472 662.268C254.333 662.334 254.202 662.408 254.088 662.49C253.974 662.573 253.867 662.647 253.769 662.713L253.116 661.651C253.238 661.552 253.394 661.453 253.565 661.363C253.737 661.272 253.925 661.181 254.137 661.107C254.349 661.033 254.562 660.976 254.799 660.926C255.036 660.877 255.281 660.86 255.542 660.86C255.91 660.86 256.261 660.902 256.58 660.984C256.898 661.066 257.184 661.19 257.429 661.354C257.674 661.519 257.862 661.733 258.001 661.988C258.14 662.243 258.213 662.556 258.213 662.91C258.213 663.149 258.164 663.371 258.074 663.585C257.985 663.799 257.862 663.989 257.715 664.162C257.568 664.335 257.405 664.483 257.217 664.606C257.029 664.73 256.841 664.82 256.645 664.878C256.947 664.919 257.217 664.993 257.454 665.1C257.691 665.207 257.895 665.347 258.058 665.528C258.222 665.709 258.344 665.915 258.434 666.17C258.524 666.426 258.565 666.714 258.565 667.035C258.565 667.553 258.483 667.99 258.328 668.352C258.172 668.714 257.952 669.002 257.666 669.225C257.38 669.447 257.053 669.612 256.669 669.71C256.285 669.809 255.869 669.859 255.42 669.859C255.134 669.859 254.864 669.826 254.603 669.768C254.341 669.71 254.096 669.636 253.876 669.554C253.655 669.472 253.459 669.389 253.296 669.299C253.132 669.208 253.002 669.142 252.912 669.085L253.622 667.899C253.622 667.899 253.704 667.957 253.769 668.006C253.835 668.056 253.925 668.105 254.023 668.163C254.121 668.22 254.227 668.278 254.349 668.336C254.472 668.393 254.594 668.451 254.725 668.5C254.856 668.55 254.987 668.591 255.125 668.624C255.264 668.657 255.395 668.673 255.526 668.673C255.959 668.673 256.302 668.541 256.555 668.286C256.808 668.031 256.939 667.644 256.939 667.134C256.939 666.813 256.89 666.549 256.8 666.335C256.71 666.121 256.563 665.956 256.367 665.841C256.171 665.726 255.91 665.635 255.599 665.586C255.289 665.536 254.913 665.512 254.472 665.504L254.488 664.532V664.54Z" fill="#FF4C91"/>
<path d="M339.012 831.86C338.832 831.761 338.619 831.67 338.383 831.588C338.146 831.506 337.868 831.473 337.566 831.473C337.288 831.473 337.043 831.531 336.83 831.654C336.618 831.778 336.438 831.942 336.283 832.156C336.128 832.37 336.005 832.642 335.907 832.955C335.809 833.268 335.744 833.613 335.695 834.009C335.785 833.918 335.899 833.836 336.03 833.762C336.161 833.687 336.308 833.622 336.455 833.572C336.602 833.523 336.765 833.482 336.928 833.449C337.092 833.416 337.255 833.408 337.41 833.408C337.811 833.408 338.162 833.465 338.472 833.58C338.783 833.696 339.044 833.869 339.265 834.083C339.485 834.297 339.641 834.568 339.755 834.889C339.869 835.211 339.926 835.565 339.926 835.968C339.926 836.371 339.861 836.758 339.739 837.096C339.616 837.433 339.42 837.721 339.167 837.96C338.913 838.199 338.603 838.388 338.219 838.52C337.835 838.652 337.402 838.718 336.904 838.718C336.447 838.718 336.054 838.644 335.719 838.495C335.385 838.347 335.115 838.125 334.894 837.837C334.674 837.549 334.519 837.186 334.412 836.75C334.306 836.314 334.257 835.812 334.257 835.243C334.257 834.47 334.323 833.778 334.445 833.169C334.568 832.56 334.772 832.057 335.05 831.646C335.327 831.234 335.687 830.921 336.12 830.707C336.553 830.493 337.1 830.386 337.729 830.386C337.86 830.386 338.007 830.394 338.162 830.411C338.317 830.427 338.472 830.452 338.628 830.493C338.783 830.534 338.938 830.576 339.085 830.625C339.232 830.674 339.371 830.74 339.485 830.806L339.003 831.868L339.012 831.86ZM338.497 835.993C338.497 835.762 338.464 835.556 338.407 835.367C338.35 835.178 338.252 835.021 338.129 834.881C338.007 834.741 337.86 834.642 337.68 834.568C337.5 834.494 337.296 834.461 337.059 834.461C336.904 834.461 336.765 834.47 336.643 834.486C336.52 834.503 336.406 834.535 336.308 834.568C336.21 834.601 336.112 834.651 336.022 834.708C335.932 834.766 335.85 834.832 335.769 834.906C335.752 834.947 335.736 834.997 335.719 835.046C335.703 835.095 335.695 835.153 335.695 835.211C335.695 835.268 335.687 835.326 335.679 835.375C335.671 835.425 335.679 835.474 335.679 835.507C335.679 835.886 335.719 836.207 335.793 836.47C335.866 836.734 335.965 836.948 336.087 837.121C336.21 837.293 336.357 837.409 336.52 837.491C336.683 837.573 336.855 837.606 337.035 837.606C337.231 837.606 337.419 837.573 337.59 837.507C337.762 837.442 337.925 837.335 338.056 837.203C338.186 837.071 338.293 836.898 338.374 836.692C338.456 836.487 338.489 836.248 338.489 835.984L338.497 835.993Z" fill="#FF4C91"/>
<path d="M257.674 697.866C257.494 697.767 257.282 697.677 257.045 697.595C256.808 697.512 256.53 697.479 256.228 697.479C255.95 697.479 255.705 697.537 255.493 697.66C255.28 697.784 255.101 697.949 254.945 698.163C254.79 698.377 254.668 698.648 254.57 698.961C254.472 699.274 254.406 699.62 254.357 700.015C254.447 699.924 254.561 699.842 254.692 699.768C254.823 699.694 254.97 699.628 255.117 699.579C255.264 699.529 255.427 699.488 255.591 699.455C255.754 699.422 255.917 699.414 256.073 699.414C256.473 699.414 256.824 699.472 257.135 699.587C257.445 699.702 257.706 699.875 257.927 700.089C258.148 700.303 258.303 700.575 258.417 700.896C258.531 701.217 258.589 701.571 258.589 701.974C258.589 702.378 258.523 702.765 258.401 703.102C258.278 703.44 258.082 703.728 257.829 703.967C257.576 704.205 257.265 704.395 256.881 704.526C256.497 704.658 256.064 704.724 255.566 704.724C255.109 704.724 254.717 704.65 254.382 704.502C254.047 704.353 253.777 704.131 253.557 703.843C253.336 703.555 253.181 703.193 253.075 702.756C252.969 702.32 252.919 701.818 252.919 701.25C252.919 700.476 252.985 699.784 253.107 699.175C253.23 698.566 253.434 698.064 253.712 697.652C253.99 697.241 254.349 696.928 254.782 696.714C255.215 696.5 255.762 696.393 256.391 696.393C256.522 696.393 256.669 696.401 256.824 696.417C256.979 696.434 257.135 696.458 257.29 696.5C257.445 696.541 257.6 696.582 257.747 696.631C257.894 696.681 258.033 696.747 258.148 696.812L257.666 697.874L257.674 697.866ZM257.159 701.999C257.159 701.769 257.126 701.563 257.069 701.373C257.012 701.184 256.914 701.028 256.791 700.888C256.669 700.748 256.522 700.649 256.342 700.575C256.163 700.501 255.958 700.468 255.721 700.468C255.566 700.468 255.427 700.476 255.305 700.492C255.182 700.509 255.068 700.542 254.97 700.575C254.872 700.608 254.774 700.657 254.684 700.715C254.594 700.772 254.512 700.838 254.431 700.912C254.414 700.953 254.398 701.003 254.382 701.052C254.365 701.102 254.357 701.159 254.357 701.217C254.357 701.275 254.349 701.332 254.341 701.382C254.333 701.431 254.341 701.48 254.341 701.513C254.341 701.892 254.382 702.213 254.455 702.476C254.529 702.74 254.627 702.954 254.749 703.127C254.872 703.3 255.019 703.415 255.182 703.497C255.346 703.58 255.517 703.613 255.697 703.613C255.893 703.613 256.081 703.58 256.252 703.514C256.424 703.448 256.587 703.341 256.718 703.209C256.849 703.077 256.955 702.905 257.037 702.699C257.118 702.493 257.151 702.254 257.151 701.991L257.159 701.999Z" fill="#FF4C91"/>
<path d="M260.871 557.936C351.689 533.719 420.611 496.179 414.811 474.087C409.011 451.995 330.686 453.718 239.867 477.935C149.049 502.152 80.1272 539.692 85.9271 561.784C91.727 583.876 170.052 582.153 260.871 557.936Z" fill="#FF4C91"/>
<path d="M250.123 516.98C283.217 508.155 305.344 483.092 299.544 461.001C293.744 438.909 262.214 428.154 229.119 436.979C196.025 445.803 173.898 470.866 179.698 492.958C185.497 515.049 217.028 525.804 250.123 516.98Z" fill="#FF4C91"/>
<path d="M321.065 786.169C320.836 787.454 321.604 787.906 323.058 787.347C321.702 788.639 322.192 792.385 323.613 791.57C322.192 792.385 322.682 796.114 324.16 795.777C322.674 796.114 321.31 799.144 322.617 799.193C321.31 799.144 323.491 802.363 325.075 802.832C323.491 802.371 323.523 802.667 325.116 803.17C323.613 803.351 323.074 804.059 323.679 805.055C322.249 804.339 319.447 803.795 320.525 804.437C319.455 803.795 318.026 805.779 318.916 806.677C318.026 805.779 312.7 807.591 312.912 808.718C312.7 807.591 307.161 809.476 306.671 810.842C307.169 809.476 306.173 809.813 305.552 811.221C305.25 810.126 304.31 809.789 303.183 810.381C304.073 809.064 303.714 807.986 302.774 809.163C303.714 807.986 303.011 805.895 301.982 806.8C303.003 805.886 302.472 804.298 301.378 805.006C302.472 804.298 301.909 802.626 300.749 803.12C301.917 802.626 300.299 802.486 298.927 802.964C300.299 802.486 299.123 798.971 297.595 798.996C299.115 798.963 298.543 792.574 296.95 791.784C298.543 792.574 300.348 794.838 298.984 794.336C300.07 793.99 299.041 790.763 298.755 789.561C300.144 790.599 300.634 790.524 299.311 789.479C300.634 790.524 302.913 790.179 301.876 789.084C302.913 790.179 307.635 789.454 307.202 788.269C307.635 789.454 309.742 789.133 309.579 787.906C309.742 789.133 313.557 788.549 313.876 787.248C313.549 788.549 317.634 787.923 318.483 786.548C317.642 787.931 319.905 787.585 321.032 786.161L321.065 786.169Z" fill="#FF4C91"/>
<path d="M313.271 791.306C313.165 791.915 313.533 792.137 314.219 791.866C313.574 792.483 313.802 794.262 314.48 793.875C313.802 794.262 314.039 796.04 314.742 795.875C314.039 796.031 313.386 797.481 314.007 797.497C313.386 797.472 314.423 799.004 315.175 799.226C314.415 799.004 314.44 799.152 315.199 799.382C314.48 799.464 314.227 799.802 314.513 800.28C313.835 799.942 312.504 799.679 313.01 799.983C312.495 799.679 311.817 800.625 312.242 801.045C311.817 800.617 309.285 801.482 309.383 802.017C309.285 801.482 306.646 802.379 306.41 803.029C306.646 802.379 306.173 802.535 305.879 803.21C305.74 802.692 305.29 802.527 304.751 802.815C305.176 802.19 305.004 801.671 304.555 802.239C305.004 801.679 304.67 800.683 304.179 801.119C304.67 800.683 304.416 799.926 303.894 800.263C304.416 799.926 304.147 799.127 303.591 799.366C304.147 799.127 303.379 799.069 302.725 799.292C303.379 799.061 302.815 797.39 302.096 797.406C302.823 797.39 302.546 794.352 301.786 793.973C302.546 794.344 303.403 795.422 302.758 795.192C303.273 795.027 302.783 793.496 302.652 792.92C303.314 793.414 303.55 793.381 302.913 792.878C303.542 793.381 304.629 793.208 304.139 792.689C304.629 793.208 306.883 792.862 306.671 792.302C306.875 792.862 307.88 792.714 307.806 792.129C307.888 792.714 309.702 792.434 309.849 791.816C309.694 792.434 311.638 792.137 312.038 791.479C311.638 792.137 312.716 791.973 313.255 791.29L313.271 791.306Z" fill="#F4F4F4"/>
<path d="M338.562 920.632C337.721 921.34 338.007 922.197 339.297 922.839C337.606 922.798 335.523 925.942 336.945 926.379C335.515 925.942 333.44 929.071 334.6 929.902C333.44 929.063 330.426 930.429 331.21 931.442C330.434 930.429 329.96 934.307 330.679 935.813C329.96 934.307 329.797 934.554 330.491 936.093C329.413 935.13 328.547 935.303 328.18 936.554C327.747 934.965 326.007 932.693 326.219 933.994C326.007 932.693 323.638 933.236 323.548 934.611C323.638 933.245 318.45 931.063 317.699 932.15C318.45 931.055 313.059 928.791 311.613 929.598C313.059 928.799 312.087 928.387 310.527 929.137C311.197 928.009 310.706 927.136 309.293 926.93C311 926.428 311.433 925.374 309.783 925.745C311.433 925.383 312.275 923.341 310.731 923.448C312.275 923.341 312.912 921.793 311.45 921.703C312.912 921.793 313.582 920.163 312.209 919.867C313.582 920.163 312.455 918.986 310.943 918.541C312.463 918.994 313.876 915.569 312.544 914.68C313.884 915.569 317.642 910.383 316.784 908.835C317.642 910.383 317.511 913.289 316.637 912.112C317.846 912.474 319.194 909.37 319.594 908.374C320.133 909.979 320.55 910.243 320.068 908.679C320.55 910.243 322.494 911.502 322.257 910.095C322.494 911.502 326.521 914.104 326.791 913.025C326.513 914.104 328.31 915.265 328.817 914.334C328.31 915.265 331.553 917.364 332.476 916.697C331.553 917.356 335.033 919.603 336.398 919.233C335.033 919.603 336.961 920.855 338.57 920.641L338.562 920.632Z" fill="#FF4C91"/>
<path d="M329.38 919.282C328.98 919.62 329.119 920.031 329.732 920.336C328.923 920.32 327.934 921.81 328.612 922.024C327.934 921.818 326.946 923.3 327.501 923.703C326.946 923.308 325.516 923.958 325.884 924.436C325.516 923.958 325.288 925.794 325.631 926.519C325.288 925.802 325.214 925.918 325.541 926.65C325.026 926.189 324.618 926.272 324.438 926.873C324.234 926.115 323.401 925.037 323.507 925.654C323.409 925.037 322.281 925.292 322.232 925.942C322.273 925.292 319.806 924.255 319.447 924.773C319.806 924.255 317.241 923.176 316.555 923.555C317.241 923.176 316.784 922.979 316.04 923.341C316.359 922.806 316.122 922.386 315.452 922.287C316.261 922.048 316.473 921.546 315.689 921.719C316.473 921.546 316.874 920.575 316.139 920.624C316.874 920.575 317.176 919.834 316.482 919.793C317.176 919.834 317.495 919.06 316.841 918.92C317.495 919.06 316.955 918.5 316.237 918.286C316.955 918.5 317.633 916.87 316.996 916.45C317.633 916.87 319.422 914.409 319.014 913.668C319.422 914.409 319.365 915.783 318.949 915.224C319.529 915.396 320.166 913.915 320.354 913.445C320.607 914.211 320.811 914.334 320.582 913.593C320.811 914.343 321.734 914.935 321.62 914.269C321.734 914.935 323.646 916.178 323.776 915.668C323.646 916.178 324.495 916.73 324.74 916.294C324.503 916.738 326.047 917.734 326.48 917.422C326.039 917.734 327.697 918.805 328.343 918.624C327.697 918.805 328.612 919.397 329.38 919.29V919.282Z" fill="#F4F4F4"/>
<path d="M199.748 871.821C199.462 873.106 200.214 873.6 201.684 873.097C200.271 874.332 200.573 878.095 202.027 877.345C200.573 878.095 200.876 881.849 202.371 881.577C200.876 881.849 199.364 884.804 200.663 884.911C199.364 884.804 201.382 888.138 202.942 888.665C201.382 888.138 201.407 888.435 202.967 889.003C201.464 889.118 200.884 889.801 201.439 890.814C200.051 890.04 197.29 889.349 198.319 890.04C197.281 889.357 195.762 891.267 196.603 892.197C195.762 891.267 190.354 892.806 190.509 893.934C190.362 892.806 184.734 894.412 184.17 895.745C184.742 894.412 183.729 894.7 183.035 896.066C182.798 894.963 181.875 894.584 180.707 895.111C181.671 893.852 181.36 892.757 180.364 893.876C181.36 892.757 180.764 890.633 179.694 891.481C180.772 890.633 180.315 889.019 179.179 889.661C180.315 889.019 179.833 887.323 178.64 887.743C179.833 887.315 178.223 887.101 176.826 887.496C178.223 887.101 177.227 883.528 175.699 883.47C177.227 883.528 176.974 877.115 175.413 876.234C176.974 877.115 178.664 879.469 177.325 878.893C178.428 878.621 177.57 875.345 177.333 874.11C178.673 875.23 179.171 875.18 177.888 874.052C179.171 875.18 181.458 874.95 180.47 873.789C181.458 874.941 186.213 874.464 185.837 873.246C186.221 874.464 188.336 874.25 188.23 873.007C188.336 874.25 192.176 873.863 192.56 872.57C192.176 873.863 196.285 873.451 197.192 872.101C196.285 873.451 198.564 873.221 199.757 871.838L199.748 871.821Z" fill="#FF4C91"/>
<path d="M191.711 876.571C191.572 877.181 191.931 877.419 192.634 877.18C191.964 877.765 192.103 879.56 192.797 879.198C192.103 879.552 192.25 881.338 192.96 881.206C192.25 881.338 191.531 882.746 192.152 882.795C191.531 882.746 192.495 884.326 193.238 884.582C192.495 884.326 192.511 884.475 193.254 884.738C192.536 884.796 192.266 885.117 192.527 885.602C191.866 885.232 190.551 884.911 191.041 885.232C190.551 884.903 189.823 885.817 190.224 886.261C189.823 885.817 187.25 886.549 187.324 887.084C187.25 886.549 184.579 887.315 184.31 887.941C184.579 887.307 184.097 887.447 183.77 888.097C183.656 887.57 183.215 887.389 182.659 887.644C183.117 887.043 182.97 886.524 182.496 887.06C182.97 886.524 182.684 885.512 182.177 885.915C182.692 885.512 182.471 884.746 181.932 885.051C182.471 884.746 182.243 883.94 181.679 884.137C182.251 883.931 181.483 883.832 180.813 884.022C181.483 883.832 181.001 882.137 180.274 882.104C181.001 882.128 180.879 879.082 180.135 878.662C180.879 879.082 181.679 880.202 181.042 879.922C181.565 879.79 181.156 878.234 181.042 877.65C181.679 878.185 181.916 878.16 181.311 877.625C181.924 878.16 183.011 878.053 182.545 877.502C183.019 878.053 185.282 877.823 185.094 877.246C185.273 877.823 186.286 877.724 186.229 877.131C186.278 877.724 188.108 877.535 188.288 876.925C188.108 877.543 190.06 877.345 190.493 876.703C190.06 877.345 191.147 877.238 191.719 876.58L191.711 876.571Z" fill="#F4F4F4"/>
<path d="M230.464 856.13C229.197 856.039 228.846 856.862 229.549 858.27C228.144 857.052 224.508 857.99 225.456 859.332C224.517 857.99 220.898 858.929 221.38 860.386C220.898 858.929 217.753 857.924 217.826 859.258C217.745 857.924 214.836 860.501 214.542 862.156C214.836 860.493 214.542 860.567 214.216 862.238C213.881 860.74 213.121 860.287 212.19 861.028C212.745 859.497 212.949 856.632 212.419 857.801C212.949 856.632 210.826 855.446 210.017 856.459C210.817 855.446 208.399 850.334 207.28 850.696C208.391 850.334 205.875 845.016 204.437 844.703C205.875 845.016 205.418 844.069 203.931 843.633C205.009 843.188 205.222 842.2 204.47 841.163C205.9 841.879 206.921 841.385 205.622 840.611C206.921 841.393 208.898 840.438 207.852 839.533C208.898 840.43 210.401 839.706 209.543 838.718C210.401 839.714 211.985 838.948 211.324 837.862C211.977 838.948 211.92 837.318 211.258 836.017C211.92 837.318 215.245 835.713 215.008 834.215C215.245 835.721 221.478 834.379 222.033 832.7C221.478 834.371 219.46 836.454 219.762 835.046C220.261 836.075 223.316 834.659 224.443 834.247C223.618 835.746 223.749 836.232 224.59 834.791C223.749 836.232 224.361 838.463 225.284 837.31C224.361 838.463 225.636 843.106 226.722 842.546C225.636 843.106 226.208 845.18 227.367 844.884C226.208 845.18 227.237 848.926 228.528 849.107C227.237 848.926 228.34 852.935 229.769 853.627C228.34 852.935 228.952 855.158 230.464 856.13Z" fill="#FF4C91"/>
<path d="M224.467 848.943C223.863 848.901 223.7 849.297 224.035 849.963C223.365 849.379 221.641 849.832 222.09 850.466C221.641 849.832 219.917 850.276 220.146 850.968C219.917 850.276 218.423 849.799 218.455 850.433C218.414 849.799 217.034 851.025 216.895 851.816C217.034 851.025 216.895 851.058 216.74 851.857C216.584 851.141 216.217 850.927 215.776 851.281C216.045 850.548 216.135 849.189 215.882 849.741C216.135 849.189 215.122 848.621 214.738 849.107C215.122 848.621 213.97 846.193 213.44 846.366C213.97 846.193 212.77 843.665 212.083 843.517C212.77 843.665 212.549 843.213 211.838 843.007C212.353 842.793 212.451 842.323 212.092 841.83C212.77 842.167 213.26 841.936 212.639 841.566C213.26 841.936 214.199 841.484 213.701 841.056C214.199 841.484 214.918 841.138 214.51 840.669C214.918 841.138 215.67 840.776 215.359 840.257C215.67 840.776 215.645 840.002 215.326 839.384C215.645 840.002 217.222 839.244 217.107 838.528C217.222 839.244 220.187 838.602 220.448 837.812C220.187 838.611 219.223 839.598 219.37 838.932C219.607 839.417 221.061 838.751 221.592 838.553C221.2 839.269 221.265 839.5 221.666 838.808C221.265 839.491 221.559 840.553 221.992 840.01C221.551 840.562 222.164 842.768 222.678 842.505C222.164 842.768 222.433 843.756 222.981 843.616C222.425 843.756 222.924 845.534 223.536 845.625C222.924 845.534 223.446 847.444 224.133 847.773C223.455 847.444 223.74 848.498 224.459 848.967L224.467 848.943Z" fill="#F4F4F4"/>
<path d="M218.798 691.321C217.532 691.231 217.181 692.054 217.884 693.462C216.478 692.243 212.843 693.182 213.791 694.524C212.851 693.182 209.233 694.12 209.715 695.577C209.233 694.12 206.088 693.116 206.161 694.449C206.08 693.116 203.171 695.693 202.877 697.347C203.171 695.684 202.877 695.758 202.551 697.43C202.216 695.931 201.456 695.479 200.525 696.22C201.08 694.688 201.284 691.823 200.753 692.992C201.284 691.823 199.16 690.638 198.352 691.65C199.152 690.638 196.734 685.525 195.615 685.888C196.726 685.525 194.21 680.207 192.772 679.894C194.21 680.207 193.753 679.26 192.266 678.824C193.344 678.379 193.557 677.392 192.805 676.354C194.235 677.07 195.256 676.576 193.957 675.803C195.256 676.585 197.233 675.63 196.187 674.724C197.233 675.622 198.736 674.897 197.878 673.909C198.736 674.905 200.32 674.14 199.659 673.053C200.312 674.14 200.255 672.51 199.593 671.209C200.255 672.51 203.58 670.904 203.343 669.406C203.58 670.912 209.813 669.571 210.368 667.891C209.813 669.562 207.795 671.645 208.097 670.237C208.596 671.266 211.651 669.85 212.778 669.439C211.953 670.937 212.084 671.423 212.925 669.982C212.084 671.423 212.696 673.654 213.619 672.501C212.696 673.654 213.971 678.297 215.057 677.737C213.971 678.297 214.543 680.372 215.702 680.075C214.543 680.372 215.572 684.118 216.862 684.299C215.572 684.118 216.675 688.127 218.104 688.818C216.675 688.127 217.287 690.35 218.798 691.321Z" fill="#FF4C91"/>
<path d="M212.802 684.134C212.198 684.093 212.034 684.488 212.369 685.155C211.699 684.571 209.976 685.024 210.425 685.657C209.976 685.024 208.252 685.468 208.481 686.16C208.252 685.468 206.757 684.991 206.79 685.625C206.749 684.991 205.369 686.217 205.23 687.008C205.369 686.217 205.23 686.25 205.075 687.049C204.919 686.333 204.552 686.118 204.111 686.472C204.38 685.74 204.47 684.381 204.217 684.933C204.47 684.381 203.457 683.813 203.073 684.299C203.457 683.813 202.305 681.385 201.774 681.558C202.305 681.385 201.104 678.857 200.418 678.709C201.104 678.857 200.884 678.405 200.173 678.199C200.688 677.985 200.786 677.515 200.426 677.021C201.104 677.359 201.595 677.128 200.974 676.758C201.595 677.128 202.534 676.676 202.036 676.248C202.534 676.676 203.253 676.33 202.844 675.861C203.253 676.33 204.004 675.968 203.694 675.449C204.004 675.968 203.98 675.194 203.661 674.576C203.98 675.194 205.556 674.436 205.442 673.72C205.556 674.436 208.522 673.794 208.783 673.004C208.522 673.802 207.558 674.79 207.705 674.124C207.942 674.609 209.396 673.942 209.927 673.745C209.535 674.461 209.6 674.692 210 674C209.6 674.683 209.894 675.745 210.327 675.202C209.886 675.754 210.499 677.96 211.013 677.697C210.499 677.96 210.768 678.948 211.316 678.808C210.76 678.948 211.258 680.726 211.871 680.817C211.258 680.726 211.781 682.636 212.467 682.965C211.789 682.636 212.075 683.69 212.794 684.159L212.802 684.134Z" fill="#F4F4F4"/>
</svg>
