<svg width="678" height="1237" viewBox="0 0 678 1237" fill="none" xmlns="http://www.w3.org/2000/svg">
<path d="M225.251 0H213.251V1135H225.251V0Z" fill="#4857F6"/>
<path d="M463.251 0H451.251V1095H463.251V0Z" fill="#4857F6"/>
<rect x="168.784" y="1062.64" width="339.352" height="174" fill="black"/>
<path d="M203.57 1089.87L205.06 1087.99V1101.03L203.996 1099.99H215.547V1102.89H203.996L205.06 1101.79V1115.51H201.771V1086.97H217.27V1089.87H203.57ZM226.312 1115.89C224.751 1115.89 223.383 1115.65 222.21 1115.16C221.049 1114.67 220.146 1113.96 219.501 1113.05C218.856 1112.12 218.533 1111.01 218.533 1109.72C218.533 1108.38 218.882 1107.26 219.578 1106.37C220.275 1105.47 221.255 1104.77 222.519 1104.26C223.783 1103.76 225.254 1103.43 226.931 1103.26C229.459 1103 231.258 1102.75 232.329 1102.5C233.4 1102.24 233.935 1101.83 233.935 1101.26C233.935 1101.25 233.935 1101.25 233.935 1101.25C233.935 1101.23 233.935 1101.22 233.935 1101.21C233.935 1100.02 233.451 1099.14 232.484 1098.56C231.516 1097.96 230.117 1097.67 228.285 1097.67C226.376 1097.67 224.893 1098 223.835 1098.67C222.777 1099.33 222.248 1100.4 222.248 1101.88H218.998C218.998 1100.35 219.391 1099.05 220.178 1097.98C220.965 1096.89 222.055 1096.07 223.448 1095.5C224.854 1094.93 226.473 1094.65 228.305 1094.65C229.981 1094.65 231.491 1094.91 232.832 1095.42C234.187 1095.92 235.257 1096.68 236.044 1097.68C236.844 1098.68 237.244 1099.91 237.244 1101.38C237.244 1101.65 237.244 1101.92 237.244 1102.19C237.244 1102.45 237.244 1102.72 237.244 1102.99V1111.64C237.244 1112.09 237.263 1112.53 237.302 1112.95C237.341 1113.38 237.405 1113.75 237.495 1114.07C237.611 1114.46 237.74 1114.78 237.882 1115.02C238.024 1115.25 238.14 1115.42 238.231 1115.51H234.922C234.857 1115.44 234.761 1115.29 234.632 1115.06C234.503 1114.82 234.38 1114.53 234.264 1114.21C234.174 1113.95 234.103 1113.63 234.051 1113.24C234 1112.84 233.974 1112.43 233.974 1112L234.516 1112.37C234.116 1113.07 233.529 1113.68 232.755 1114.21C231.994 1114.74 231.071 1115.15 229.988 1115.45C228.904 1115.74 227.679 1115.89 226.312 1115.89ZM226.834 1112.93C228.163 1112.93 229.362 1112.73 230.433 1112.33C231.504 1111.92 232.355 1111.31 232.987 1110.51C233.619 1109.71 233.935 1108.72 233.935 1107.53V1103.45L234.67 1104.69C233.845 1105.01 232.813 1105.28 231.575 1105.48C230.349 1105.68 229.066 1105.84 227.724 1105.97C225.776 1106.15 224.306 1106.49 223.312 1106.99C222.332 1107.49 221.842 1108.34 221.842 1109.53C221.842 1110.65 222.248 1111.5 223.061 1112.08C223.874 1112.65 225.131 1112.93 226.834 1112.93ZM245.095 1085.26V1115.51H241.844V1085.26H245.095ZM253.495 1085.26V1115.51H250.244V1085.26H253.495ZM265.533 1115.89C263.972 1115.89 262.605 1115.65 261.431 1115.16C260.27 1114.67 259.367 1113.96 258.722 1113.05C258.077 1112.12 257.754 1111.01 257.754 1109.72C257.754 1108.38 258.103 1107.26 258.799 1106.37C259.496 1105.47 260.476 1104.77 261.74 1104.26C263.004 1103.76 264.475 1103.43 266.152 1103.26C268.68 1103 270.48 1102.75 271.55 1102.5C272.621 1102.24 273.156 1101.83 273.156 1101.26C273.156 1101.25 273.156 1101.25 273.156 1101.25C273.156 1101.23 273.156 1101.22 273.156 1101.21C273.156 1100.02 272.672 1099.14 271.705 1098.56C270.738 1097.96 269.338 1097.67 267.506 1097.67C265.597 1097.67 264.114 1098 263.056 1098.67C261.998 1099.33 261.469 1100.4 261.469 1101.88H258.219C258.219 1100.35 258.612 1099.05 259.399 1097.98C260.186 1096.89 261.276 1096.07 262.669 1095.5C264.075 1094.93 265.694 1094.65 267.526 1094.65C269.203 1094.65 270.712 1094.91 272.053 1095.42C273.408 1095.92 274.478 1096.68 275.265 1097.68C276.065 1098.68 276.465 1099.91 276.465 1101.38C276.465 1101.65 276.465 1101.92 276.465 1102.19C276.465 1102.45 276.465 1102.72 276.465 1102.99V1111.64C276.465 1112.09 276.484 1112.53 276.523 1112.95C276.562 1113.38 276.626 1113.75 276.716 1114.07C276.832 1114.46 276.961 1114.78 277.103 1115.02C277.245 1115.25 277.361 1115.42 277.452 1115.51H274.143C274.078 1115.44 273.982 1115.29 273.853 1115.06C273.724 1114.82 273.601 1114.53 273.485 1114.21C273.395 1113.95 273.324 1113.63 273.272 1113.24C273.221 1112.84 273.195 1112.43 273.195 1112L273.737 1112.37C273.337 1113.07 272.75 1113.68 271.976 1114.21C271.215 1114.74 270.293 1115.15 269.209 1115.45C268.125 1115.74 266.9 1115.89 265.533 1115.89ZM266.055 1112.93C267.384 1112.93 268.583 1112.73 269.654 1112.33C270.725 1111.92 271.576 1111.31 272.208 1110.51C272.84 1109.71 273.156 1108.72 273.156 1107.53V1103.45L273.891 1104.69C273.066 1105.01 272.034 1105.28 270.796 1105.48C269.57 1105.68 268.287 1105.84 266.945 1105.97C264.997 1106.15 263.527 1106.49 262.534 1106.99C261.553 1107.49 261.063 1108.34 261.063 1109.53C261.063 1110.65 261.469 1111.5 262.282 1112.08C263.095 1112.65 264.352 1112.93 266.055 1112.93ZM290.527 1115.89C288.566 1115.89 286.786 1115.47 285.186 1114.62C283.587 1113.75 282.316 1112.52 281.375 1110.92C280.446 1109.32 279.982 1107.42 279.982 1105.21C279.982 1103.01 280.446 1101.12 281.375 1099.54C282.316 1097.96 283.587 1096.74 285.186 1095.9C286.786 1095.07 288.566 1094.65 290.527 1094.65C292.023 1094.65 293.358 1094.88 294.532 1095.34C295.706 1095.8 296.699 1096.4 297.512 1097.16C298.324 1097.92 298.944 1098.76 299.369 1099.68C299.808 1100.58 300.027 1101.48 300.027 1102.39C300.027 1102.4 300.027 1102.42 300.027 1102.44C300.027 1102.47 300.027 1102.5 300.027 1102.52H296.757C296.757 1102.46 296.751 1102.39 296.738 1102.31C296.725 1102.22 296.712 1102.13 296.699 1102.04C296.596 1101.17 296.267 1100.42 295.712 1099.77C295.158 1099.12 294.435 1098.6 293.545 1098.23C292.655 1097.85 291.643 1097.67 290.507 1097.67C289.23 1097.67 288.044 1097.94 286.947 1098.5C285.864 1099.04 284.986 1099.87 284.316 1100.99C283.658 1102.1 283.329 1103.51 283.329 1105.21C283.329 1106.9 283.658 1108.31 284.316 1109.45C284.974 1110.58 285.844 1111.44 286.928 1112.02C288.024 1112.59 289.217 1112.87 290.507 1112.87C291.901 1112.87 293.049 1112.65 293.952 1112.22C294.854 1111.78 295.532 1111.2 295.983 1110.47C296.448 1109.74 296.706 1108.95 296.757 1108.11H300.027C300.027 1109.04 299.821 1109.97 299.408 1110.9C298.995 1111.82 298.389 1112.65 297.589 1113.42C296.789 1114.16 295.796 1114.76 294.609 1115.22C293.436 1115.67 292.075 1115.89 290.527 1115.89ZM303.361 1124.17C302.845 1124.17 302.374 1124.14 301.949 1124.08C301.523 1124.03 301.259 1123.97 301.155 1123.92V1121.06C301.323 1121.14 301.6 1121.2 301.987 1121.25C302.374 1121.3 302.761 1121.33 303.148 1121.33C303.974 1121.33 304.67 1121.16 305.238 1120.81C305.806 1120.47 306.283 1120.01 306.67 1119.41C307.057 1118.83 307.373 1118.18 307.618 1117.44L308.237 1115.62L301.155 1094.96H304.6L310.288 1112.66H309.824L315.396 1094.96H318.782L311.256 1117.27C310.83 1118.52 310.314 1119.67 309.708 1120.71C309.114 1121.76 308.315 1122.59 307.308 1123.23C306.315 1123.86 304.999 1124.17 303.361 1124.17ZM340.647 1115.89C338.983 1115.89 337.454 1115.56 336.061 1114.91C334.681 1114.25 333.475 1113.29 332.443 1112.04C331.424 1110.78 330.631 1109.24 330.063 1107.42C329.508 1105.6 329.231 1103.53 329.231 1101.21C329.231 1098.88 329.508 1096.82 330.063 1095.01C330.631 1093.2 331.424 1091.67 332.443 1090.43C333.475 1089.18 334.688 1088.23 336.081 1087.58C337.474 1086.94 338.996 1086.62 340.647 1086.62C342.311 1086.62 343.84 1086.94 345.233 1087.58C346.626 1088.23 347.832 1089.18 348.851 1090.43C349.883 1091.67 350.676 1093.2 351.231 1095.01C351.799 1096.82 352.082 1098.88 352.082 1101.21C352.082 1103.53 351.799 1105.6 351.231 1107.42C350.676 1109.24 349.883 1110.78 348.851 1112.04C347.832 1113.29 346.626 1114.25 345.233 1114.91C343.84 1115.56 342.311 1115.89 340.647 1115.89ZM340.647 1112.91C342.234 1112.91 343.633 1112.48 344.846 1111.62C346.058 1110.75 347.006 1109.46 347.69 1107.73C348.374 1105.99 348.716 1103.81 348.716 1101.21C348.716 1098.59 348.367 1096.42 347.671 1094.71C346.987 1092.99 346.039 1091.71 344.826 1090.87C343.614 1090.04 342.221 1089.62 340.647 1089.62C339.086 1089.62 337.693 1090.04 336.468 1090.87C335.255 1091.71 334.301 1092.99 333.604 1094.71C332.92 1096.42 332.579 1098.59 332.579 1101.21C332.579 1103.83 332.92 1106.01 333.604 1107.75C334.301 1109.47 335.255 1110.77 336.468 1111.64C337.693 1112.49 339.086 1112.91 340.647 1112.91ZM358.367 1115.51V1097.86H353.878V1094.96H358.367V1092.31C358.367 1091.39 358.47 1090.55 358.677 1089.79C358.896 1089.02 359.206 1088.33 359.605 1087.74C360.018 1087.15 360.515 1086.64 361.095 1086.23C361.676 1085.82 362.334 1085.51 363.069 1085.3C363.817 1085.08 364.63 1084.97 365.507 1084.97C366.139 1084.97 366.642 1085.01 367.016 1085.09C367.39 1085.17 367.642 1085.24 367.771 1085.3V1088.2C367.616 1088.15 367.358 1088.09 366.997 1088.03C366.636 1087.97 366.249 1087.93 365.836 1087.93C364.959 1087.93 364.243 1088.07 363.688 1088.34C363.146 1088.61 362.727 1088.98 362.43 1089.46C362.134 1089.93 361.927 1090.45 361.811 1091.05C361.708 1091.64 361.656 1092.26 361.656 1092.91V1094.96H367.655V1097.86H361.656V1115.51H358.367ZM397.967 1086.97V1115.51H394.658V1101.07L396.148 1102.72H380.417L381.907 1101.07V1115.51H378.598V1086.97H381.907V1101.55L380.417 1099.81H396.148L394.658 1101.55V1086.97H397.967ZM409.677 1115.89C408.116 1115.89 406.749 1115.65 405.575 1115.16C404.414 1114.67 403.511 1113.96 402.866 1113.05C402.221 1112.12 401.899 1111.01 401.899 1109.72C401.899 1108.38 402.247 1107.26 402.943 1106.37C403.64 1105.47 404.62 1104.77 405.884 1104.26C407.149 1103.76 408.619 1103.43 410.296 1103.26C412.824 1103 414.624 1102.75 415.694 1102.5C416.765 1102.24 417.3 1101.83 417.3 1101.26C417.3 1101.25 417.3 1101.25 417.3 1101.25C417.3 1101.23 417.3 1101.22 417.3 1101.21C417.3 1100.02 416.817 1099.14 415.849 1098.56C414.882 1097.96 413.482 1097.67 411.65 1097.67C409.741 1097.67 408.258 1098 407.2 1098.67C406.142 1099.33 405.614 1100.4 405.614 1101.88H402.363C402.363 1100.35 402.756 1099.05 403.543 1097.98C404.33 1096.89 405.42 1096.07 406.813 1095.5C408.219 1094.93 409.838 1094.65 411.67 1094.65C413.347 1094.65 414.856 1094.91 416.197 1095.42C417.552 1095.92 418.623 1096.68 419.409 1097.68C420.209 1098.68 420.609 1099.91 420.609 1101.38C420.609 1101.65 420.609 1101.92 420.609 1102.19C420.609 1102.45 420.609 1102.72 420.609 1102.99V1111.64C420.609 1112.09 420.628 1112.53 420.667 1112.95C420.706 1113.38 420.77 1113.75 420.861 1114.07C420.977 1114.46 421.106 1114.78 421.248 1115.02C421.389 1115.25 421.506 1115.42 421.596 1115.51H418.287C418.223 1115.44 418.126 1115.29 417.997 1115.06C417.868 1114.82 417.745 1114.53 417.629 1114.21C417.539 1113.95 417.468 1113.63 417.416 1113.24C417.365 1112.84 417.339 1112.43 417.339 1112L417.881 1112.37C417.481 1113.07 416.894 1113.68 416.12 1114.21C415.359 1114.74 414.437 1115.15 413.353 1115.45C412.27 1115.74 411.044 1115.89 409.677 1115.89ZM410.199 1112.93C411.528 1112.93 412.728 1112.73 413.798 1112.33C414.869 1111.92 415.72 1111.31 416.352 1110.51C416.984 1109.71 417.3 1108.72 417.3 1107.53V1103.45L418.036 1104.69C417.21 1105.01 416.178 1105.28 414.94 1105.48C413.714 1105.68 412.431 1105.84 411.089 1105.97C409.142 1106.15 407.671 1106.49 406.678 1106.99C405.697 1107.49 405.207 1108.34 405.207 1109.53C405.207 1110.65 405.614 1111.5 406.426 1112.08C407.239 1112.65 408.497 1112.93 410.199 1112.93ZM432.775 1115.89C431.536 1115.89 430.388 1115.76 429.331 1115.51C428.286 1115.23 427.37 1114.85 426.583 1114.34C425.809 1113.83 425.203 1113.2 424.764 1112.45C424.339 1111.7 424.126 1110.84 424.126 1109.87C424.126 1109.77 424.126 1109.67 424.126 1109.57C424.126 1109.45 424.126 1109.35 424.126 1109.27H427.434C427.434 1109.35 427.434 1109.42 427.434 1109.47C427.434 1109.52 427.434 1109.6 427.434 1109.7C427.434 1110.75 427.918 1111.55 428.886 1112.1C429.853 1112.64 431.175 1112.91 432.852 1112.91C433.884 1112.91 434.806 1112.81 435.619 1112.6C436.432 1112.4 437.07 1112.08 437.535 1111.65C438.012 1111.23 438.251 1110.69 438.251 1110.05C438.251 1108.98 437.747 1108.22 436.741 1107.77C435.748 1107.3 434.258 1106.9 432.272 1106.57C431.227 1106.39 430.234 1106.15 429.292 1105.87C428.35 1105.57 427.512 1105.19 426.777 1104.73C426.054 1104.26 425.48 1103.69 425.054 1103.01C424.642 1102.31 424.435 1101.48 424.435 1100.51C424.435 1099.26 424.803 1098.2 425.538 1097.34C426.286 1096.46 427.293 1095.8 428.557 1095.34C429.821 1094.88 431.227 1094.65 432.775 1094.65C434.271 1094.65 435.651 1094.89 436.915 1095.36C438.18 1095.84 439.192 1096.54 439.953 1097.45C440.727 1098.36 441.114 1099.47 441.114 1100.8C441.114 1100.85 441.114 1100.92 441.114 1100.99C441.114 1101.06 441.114 1101.12 441.114 1101.19H437.825C437.825 1101.12 437.825 1101.07 437.825 1101.03C437.825 1100.99 437.825 1100.95 437.825 1100.9C437.825 1100.15 437.586 1099.54 437.109 1099.06C436.632 1098.57 436.012 1098.21 435.251 1097.98C434.49 1097.73 433.678 1097.61 432.813 1097.61C432.001 1097.61 431.201 1097.7 430.414 1097.88C429.627 1098.05 428.976 1098.33 428.46 1098.73C427.944 1099.13 427.686 1099.68 427.686 1100.37C427.686 1101.07 427.925 1101.63 428.402 1102.06C428.892 1102.47 429.576 1102.81 430.453 1103.08C431.343 1103.34 432.388 1103.58 433.587 1103.8C434.658 1103.99 435.671 1104.24 436.625 1104.53C437.58 1104.82 438.418 1105.19 439.141 1105.64C439.876 1106.09 440.45 1106.66 440.863 1107.36C441.288 1108.04 441.501 1108.88 441.501 1109.87C441.501 1110.88 441.269 1111.76 440.805 1112.51C440.353 1113.25 439.721 1113.88 438.908 1114.38C438.109 1114.89 437.18 1115.26 436.122 1115.51C435.077 1115.76 433.961 1115.89 432.775 1115.89ZM453.161 1115.81C452.529 1115.81 451.91 1115.74 451.304 1115.6C450.697 1115.46 450.149 1115.21 449.659 1114.85C449.182 1114.47 448.801 1113.95 448.517 1113.28C448.233 1112.6 448.092 1111.72 448.092 1110.65C448.092 1110.38 448.092 1110.1 448.092 1109.82C448.092 1109.52 448.092 1109.21 448.092 1108.89V1097.86H443.08V1094.96H446.292C446.731 1094.96 447.073 1094.94 447.318 1094.92C447.563 1094.88 447.737 1094.8 447.84 1094.67C447.956 1094.52 448.027 1094.31 448.053 1094.03C448.079 1093.73 448.092 1093.32 448.092 1092.81V1088.15H451.4V1094.96H457.824V1097.86H451.4V1107.82C451.4 1108.11 451.4 1108.38 451.4 1108.66C451.4 1108.93 451.4 1109.18 451.4 1109.41C451.4 1110.51 451.529 1111.36 451.787 1111.98C452.058 1112.6 452.658 1112.91 453.587 1112.91C453.961 1112.91 454.316 1112.88 454.651 1112.82C454.986 1112.75 455.238 1112.69 455.406 1112.62V1115.49C455.186 1115.56 454.877 1115.63 454.477 1115.7C454.09 1115.78 453.651 1115.81 453.161 1115.81ZM461.499 1124.17C460.983 1124.17 460.512 1124.14 460.086 1124.08C459.661 1124.03 459.396 1123.97 459.293 1123.92V1121.06C459.461 1121.14 459.738 1121.2 460.125 1121.25C460.512 1121.3 460.899 1121.33 461.286 1121.33C462.111 1121.33 462.808 1121.16 463.376 1120.81C463.943 1120.47 464.42 1120.01 464.807 1119.41C465.194 1118.83 465.51 1118.18 465.755 1117.44L466.375 1115.62L459.293 1094.96H462.737L468.426 1112.66H467.961L473.534 1094.96H476.92L469.393 1117.27C468.967 1118.52 468.451 1119.67 467.845 1120.71C467.252 1121.76 466.452 1122.59 465.446 1123.23C464.453 1123.86 463.137 1124.17 461.499 1124.17ZM222.157 1163.89C220.029 1163.89 218.094 1163.31 216.352 1162.15C214.611 1160.99 213.224 1159.32 212.192 1157.14C211.16 1154.96 210.644 1152.33 210.644 1149.26C210.644 1146.19 211.167 1143.57 212.212 1141.39C213.256 1139.21 214.669 1137.54 216.449 1136.38C218.242 1135.2 220.248 1134.62 222.467 1134.62C224.272 1134.62 225.801 1134.93 227.052 1135.57C228.316 1136.18 229.342 1136.99 230.129 1137.98C230.929 1138.96 231.509 1140.01 231.87 1141.12C232.231 1142.21 232.412 1143.25 232.412 1144.21C232.412 1144.25 232.412 1144.29 232.412 1144.33C232.412 1144.37 232.412 1144.41 232.412 1144.45H229.2C229.2 1144.41 229.2 1144.37 229.2 1144.33C229.2 1144.29 229.2 1144.25 229.2 1144.21C229.2 1143.44 229.065 1142.67 228.794 1141.89C228.536 1141.11 228.129 1140.4 227.575 1139.76C227.02 1139.12 226.317 1138.6 225.466 1138.22C224.627 1137.83 223.628 1137.64 222.467 1137.64C220.906 1137.64 219.48 1138.06 218.19 1138.91C216.913 1139.76 215.888 1141.05 215.114 1142.78C214.353 1144.5 213.972 1146.66 213.972 1149.26C213.972 1151.26 214.185 1153 214.611 1154.47C215.037 1155.93 215.623 1157.13 216.372 1158.09C217.12 1159.04 217.99 1159.75 218.984 1160.22C219.99 1160.68 221.073 1160.91 222.234 1160.91C223.769 1160.91 225.027 1160.65 226.007 1160.12C227.001 1159.59 227.768 1158.93 228.31 1158.15C228.852 1157.35 229.2 1156.56 229.355 1155.79V1152.79H222.37V1150.02H232.335V1163.51H229.877L229.703 1160.33C229.6 1160.53 229.387 1160.82 229.065 1161.2C228.742 1161.59 228.284 1161.99 227.691 1162.4C227.11 1162.82 226.362 1163.17 225.446 1163.47C224.53 1163.75 223.434 1163.89 222.157 1163.89ZM238.007 1154.55V1151.61H253.893L253.313 1152.57C253.313 1152.5 253.313 1152.42 253.313 1152.36C253.313 1152.28 253.313 1152.21 253.313 1152.15C253.313 1150.96 253.061 1149.88 252.558 1148.9C252.068 1147.9 251.332 1147.11 250.352 1146.52C249.372 1145.92 248.159 1145.63 246.715 1145.63C245.257 1145.63 243.973 1145.94 242.864 1146.56C241.755 1147.17 240.89 1148.05 240.271 1149.19C239.652 1150.31 239.343 1151.65 239.343 1153.21C239.343 1154.8 239.639 1156.17 240.233 1157.31C240.839 1158.46 241.697 1159.35 242.806 1159.96C243.915 1160.58 245.231 1160.89 246.753 1160.89C247.837 1160.89 248.778 1160.78 249.578 1160.56C250.378 1160.33 251.036 1160.03 251.552 1159.65C252.081 1159.27 252.481 1158.85 252.751 1158.4C253.022 1157.95 253.184 1157.49 253.235 1157.04H256.524C256.46 1157.87 256.202 1158.69 255.751 1159.5C255.299 1160.31 254.661 1161.05 253.835 1161.73C253.009 1162.38 251.997 1162.91 250.797 1163.31C249.598 1163.71 248.217 1163.91 246.656 1163.91C244.593 1163.91 242.774 1163.46 241.2 1162.56C239.626 1161.65 238.388 1160.4 237.485 1158.8C236.595 1157.2 236.15 1155.37 236.15 1153.29C236.15 1151.19 236.601 1149.34 237.504 1147.76C238.407 1146.16 239.652 1144.9 241.239 1144C242.825 1143.1 244.638 1142.65 246.676 1142.65C248.753 1142.65 250.552 1143.1 252.074 1144C253.596 1144.9 254.77 1146.14 255.596 1147.72C256.421 1149.28 256.834 1151.06 256.834 1153.06C256.834 1153.26 256.828 1153.53 256.815 1153.87C256.802 1154.2 256.782 1154.43 256.757 1154.55H238.007ZM275.505 1163.51V1153.66C275.505 1153.06 275.505 1152.58 275.505 1152.21C275.505 1151.82 275.505 1151.45 275.505 1151.1C275.505 1150.03 275.325 1149.1 274.963 1148.3C274.602 1147.5 274.035 1146.88 273.261 1146.44C272.487 1146 271.474 1145.78 270.223 1145.78C269.127 1145.78 268.107 1146.07 267.166 1146.63C266.237 1147.19 265.489 1147.94 264.921 1148.9C264.367 1149.84 264.089 1150.9 264.089 1152.07L262.212 1151.35C262.212 1149.74 262.606 1148.28 263.393 1146.96C264.193 1145.65 265.25 1144.6 266.566 1143.83C267.895 1143.04 269.339 1142.65 270.9 1142.65C272.487 1142.65 273.873 1142.95 275.06 1143.56C276.247 1144.16 277.163 1145.03 277.808 1146.17C278.466 1147.29 278.795 1148.65 278.795 1150.23C278.795 1150.8 278.795 1151.42 278.795 1152.09C278.795 1152.76 278.795 1153.39 278.795 1153.97V1163.51H275.505ZM260.8 1163.51V1142.96H264.089V1163.51H260.8ZM284.436 1154.55V1151.61H300.322L299.741 1152.57C299.741 1152.5 299.741 1152.42 299.741 1152.36C299.741 1152.28 299.741 1152.21 299.741 1152.15C299.741 1150.96 299.49 1149.88 298.987 1148.9C298.496 1147.9 297.761 1147.11 296.781 1146.52C295.8 1145.92 294.588 1145.63 293.143 1145.63C291.685 1145.63 290.402 1145.94 289.293 1146.56C288.183 1147.17 287.319 1148.05 286.7 1149.19C286.081 1150.31 285.771 1151.65 285.771 1153.21C285.771 1154.8 286.068 1156.17 286.661 1157.31C287.267 1158.46 288.125 1159.35 289.235 1159.96C290.344 1160.58 291.66 1160.89 293.182 1160.89C294.265 1160.89 295.207 1160.78 296.007 1160.56C296.807 1160.33 297.464 1160.03 297.98 1159.65C298.509 1159.27 298.909 1158.85 299.18 1158.4C299.451 1157.95 299.612 1157.49 299.664 1157.04H302.953C302.889 1157.87 302.631 1158.69 302.179 1159.5C301.728 1160.31 301.089 1161.05 300.264 1161.73C299.438 1162.38 298.425 1162.91 297.226 1163.31C296.026 1163.71 294.646 1163.91 293.085 1163.91C291.021 1163.91 289.202 1163.46 287.629 1162.56C286.055 1161.65 284.817 1160.4 283.914 1158.8C283.024 1157.2 282.579 1155.37 282.579 1153.29C282.579 1151.19 283.03 1149.34 283.933 1147.76C284.836 1146.16 286.081 1144.9 287.667 1144C289.254 1143.1 291.066 1142.65 293.104 1142.65C295.181 1142.65 296.981 1143.1 298.503 1144C300.025 1144.9 301.199 1146.14 302.024 1147.72C302.85 1149.28 303.263 1151.06 303.263 1153.06C303.263 1153.26 303.256 1153.53 303.243 1153.87C303.23 1154.2 303.211 1154.43 303.185 1154.55H284.436ZM307.229 1163.51V1142.96H310.518V1149.26L309.434 1148.88C309.512 1148.12 309.705 1147.37 310.015 1146.63C310.324 1145.88 310.75 1145.21 311.292 1144.62C311.847 1144.01 312.537 1143.54 313.362 1143.19C314.188 1142.83 315.155 1142.65 316.265 1142.65C317.09 1142.65 317.761 1142.72 318.277 1142.86C318.806 1142.99 319.135 1143.09 319.264 1143.17L318.412 1146.4C318.283 1146.31 318.019 1146.19 317.619 1146.05C317.232 1145.91 316.677 1145.84 315.955 1145.84C314.884 1145.84 313.994 1146.03 313.285 1146.42C312.588 1146.81 312.034 1147.32 311.621 1147.97C311.221 1148.6 310.937 1149.29 310.769 1150.04C310.602 1150.79 310.518 1151.53 310.518 1152.26V1163.51H307.229ZM328.438 1163.89C326.877 1163.89 325.51 1163.65 324.336 1163.16C323.175 1162.67 322.272 1161.96 321.627 1161.05C320.982 1160.12 320.66 1159.01 320.66 1157.72C320.66 1156.38 321.008 1155.26 321.705 1154.37C322.401 1153.47 323.382 1152.77 324.646 1152.26C325.91 1151.76 327.38 1151.43 329.057 1151.26C331.586 1151 333.385 1150.75 334.456 1150.5C335.526 1150.24 336.062 1149.83 336.062 1149.26C336.062 1149.25 336.062 1149.25 336.062 1149.25C336.062 1149.23 336.062 1149.22 336.062 1149.21C336.062 1148.02 335.578 1147.14 334.61 1146.56C333.643 1145.96 332.243 1145.67 330.412 1145.67C328.503 1145.67 327.019 1146 325.961 1146.67C324.904 1147.33 324.375 1148.4 324.375 1149.88H321.124C321.124 1148.35 321.518 1147.05 322.305 1145.98C323.091 1144.89 324.181 1144.07 325.574 1143.5C326.981 1142.93 328.599 1142.65 330.431 1142.65C332.108 1142.65 333.617 1142.91 334.959 1143.42C336.313 1143.92 337.384 1144.68 338.171 1145.68C338.97 1146.68 339.37 1147.91 339.37 1149.38C339.37 1149.65 339.37 1149.92 339.37 1150.19C339.37 1150.45 339.37 1150.72 339.37 1150.99V1159.64C339.37 1160.09 339.39 1160.53 339.428 1160.95C339.467 1161.38 339.532 1161.75 339.622 1162.07C339.738 1162.46 339.867 1162.78 340.009 1163.02C340.151 1163.25 340.267 1163.42 340.357 1163.51H337.048C336.984 1163.44 336.887 1163.29 336.758 1163.06C336.629 1162.82 336.507 1162.53 336.391 1162.21C336.3 1161.95 336.229 1161.63 336.178 1161.24C336.126 1160.84 336.1 1160.43 336.1 1160L336.642 1160.37C336.242 1161.07 335.655 1161.68 334.881 1162.21C334.12 1162.74 333.198 1163.15 332.114 1163.45C331.031 1163.74 329.805 1163.89 328.438 1163.89ZM328.961 1160.93C330.289 1160.93 331.489 1160.73 332.559 1160.33C333.63 1159.92 334.481 1159.31 335.114 1158.51C335.746 1157.71 336.062 1156.72 336.062 1155.53V1151.45L336.797 1152.69C335.971 1153.01 334.939 1153.28 333.701 1153.48C332.476 1153.68 331.192 1153.84 329.851 1153.97C327.903 1154.15 326.432 1154.49 325.439 1154.99C324.459 1155.49 323.969 1156.34 323.969 1157.53C323.969 1158.65 324.375 1159.5 325.188 1160.08C326 1160.65 327.258 1160.93 328.961 1160.93ZM347.221 1133.26V1163.51H343.971V1133.26H347.221ZM352.274 1163.51V1142.96H355.525V1163.51H352.274ZM353.919 1138.24C353.312 1138.24 352.784 1138.07 352.332 1137.73C351.893 1137.38 351.674 1136.91 351.674 1136.32C351.674 1135.74 351.893 1135.28 352.332 1134.95C352.784 1134.6 353.312 1134.42 353.919 1134.42C354.525 1134.42 355.047 1134.6 355.486 1134.95C355.925 1135.28 356.144 1135.74 356.144 1136.32C356.144 1136.91 355.925 1137.38 355.486 1137.73C355.047 1138.07 354.525 1138.24 353.919 1138.24ZM362.648 1160.49H374.838V1163.51H358.972V1160.6L371.026 1145.9L371.045 1145.98H359.455V1142.96H374.664V1145.86L362.667 1160.53L362.648 1160.49ZM384.487 1163.89C382.926 1163.89 381.559 1163.65 380.385 1163.16C379.224 1162.67 378.321 1161.96 377.676 1161.05C377.031 1160.12 376.709 1159.01 376.709 1157.72C376.709 1156.38 377.057 1155.26 377.753 1154.37C378.45 1153.47 379.43 1152.77 380.694 1152.26C381.959 1151.76 383.429 1151.43 385.106 1151.26C387.634 1151 389.434 1150.75 390.504 1150.5C391.575 1150.24 392.11 1149.83 392.11 1149.26C392.11 1149.25 392.11 1149.25 392.11 1149.25C392.11 1149.23 392.11 1149.22 392.11 1149.21C392.11 1148.02 391.627 1147.14 390.659 1146.56C389.692 1145.96 388.292 1145.67 386.46 1145.67C384.551 1145.67 383.068 1146 382.01 1146.67C380.952 1147.33 380.424 1148.4 380.424 1149.88H377.173C377.173 1148.35 377.566 1147.05 378.353 1145.98C379.14 1144.89 380.23 1144.07 381.623 1143.5C383.029 1142.93 384.648 1142.65 386.48 1142.65C388.157 1142.65 389.666 1142.91 391.007 1143.42C392.362 1143.92 393.433 1144.68 394.219 1145.68C395.019 1146.68 395.419 1147.91 395.419 1149.38C395.419 1149.65 395.419 1149.92 395.419 1150.19C395.419 1150.45 395.419 1150.72 395.419 1150.99V1159.64C395.419 1160.09 395.438 1160.53 395.477 1160.95C395.516 1161.38 395.58 1161.75 395.671 1162.07C395.787 1162.46 395.916 1162.78 396.058 1163.02C396.199 1163.25 396.316 1163.42 396.406 1163.51H393.097C393.033 1163.44 392.936 1163.29 392.807 1163.06C392.678 1162.82 392.555 1162.53 392.439 1162.21C392.349 1161.95 392.278 1161.63 392.226 1161.24C392.175 1160.84 392.149 1160.43 392.149 1160L392.691 1160.37C392.291 1161.07 391.704 1161.68 390.93 1162.21C390.169 1162.74 389.247 1163.15 388.163 1163.45C387.08 1163.74 385.854 1163.89 384.487 1163.89ZM385.009 1160.93C386.338 1160.93 387.538 1160.73 388.608 1160.33C389.679 1159.92 390.53 1159.31 391.162 1158.51C391.794 1157.71 392.11 1156.72 392.11 1155.53V1151.45L392.846 1152.69C392.02 1153.01 390.988 1153.28 389.75 1153.48C388.524 1153.68 387.241 1153.84 385.899 1153.97C383.952 1154.15 382.481 1154.49 381.488 1154.99C380.507 1155.49 380.017 1156.34 380.017 1157.53C380.017 1158.65 380.424 1159.5 381.236 1160.08C382.049 1160.65 383.307 1160.93 385.009 1160.93ZM407.289 1163.81C406.657 1163.81 406.038 1163.74 405.431 1163.6C404.825 1163.46 404.277 1163.21 403.787 1162.85C403.309 1162.47 402.929 1161.95 402.645 1161.28C402.361 1160.6 402.219 1159.72 402.219 1158.65C402.219 1158.38 402.219 1158.1 402.219 1157.82C402.219 1157.52 402.219 1157.21 402.219 1156.89V1145.86H397.208V1142.96H400.42C400.858 1142.96 401.2 1142.94 401.445 1142.92C401.69 1142.88 401.865 1142.8 401.968 1142.67C402.084 1142.52 402.155 1142.31 402.181 1142.03C402.206 1141.73 402.219 1141.32 402.219 1140.81V1136.15H405.528V1142.96H411.952V1145.86H405.528V1155.82C405.528 1156.11 405.528 1156.38 405.528 1156.66C405.528 1156.93 405.528 1157.18 405.528 1157.41C405.528 1158.51 405.657 1159.36 405.915 1159.98C406.186 1160.6 406.786 1160.91 407.714 1160.91C408.089 1160.91 408.443 1160.88 408.779 1160.82C409.114 1160.75 409.366 1160.69 409.533 1160.62V1163.49C409.314 1163.56 409.004 1163.63 408.604 1163.7C408.217 1163.78 407.779 1163.81 407.289 1163.81ZM415.201 1163.51V1142.96H418.451V1163.51H415.201ZM416.845 1138.24C416.239 1138.24 415.71 1138.07 415.259 1137.73C414.82 1137.38 414.601 1136.91 414.601 1136.32C414.601 1135.74 414.82 1135.28 415.259 1134.95C415.71 1134.6 416.239 1134.42 416.845 1134.42C417.452 1134.42 417.974 1134.6 418.413 1134.95C418.851 1135.28 419.07 1135.74 419.07 1136.32C419.07 1136.91 418.851 1137.38 418.413 1137.73C417.974 1138.07 417.452 1138.24 416.845 1138.24ZM433.14 1163.87C431.076 1163.87 429.251 1163.42 427.664 1162.5C426.09 1161.57 424.852 1160.31 423.949 1158.71C423.059 1157.09 422.614 1155.26 422.614 1153.21C422.614 1151.16 423.059 1149.34 423.949 1147.76C424.852 1146.17 426.09 1144.92 427.664 1144.02C429.251 1143.12 431.076 1142.67 433.14 1142.67C435.204 1142.67 437.023 1143.12 438.596 1144.02C440.183 1144.92 441.421 1146.17 442.311 1147.76C443.214 1149.34 443.666 1151.16 443.666 1153.21C443.666 1155.26 443.214 1157.09 442.311 1158.71C441.421 1160.31 440.183 1161.57 438.596 1162.5C437.023 1163.42 435.204 1163.87 433.14 1163.87ZM433.14 1160.85C434.559 1160.85 435.81 1160.54 436.894 1159.91C437.977 1159.27 438.822 1158.38 439.428 1157.24C440.048 1156.09 440.357 1154.75 440.357 1153.21C440.357 1151.68 440.048 1150.35 439.428 1149.23C438.822 1148.09 437.977 1147.22 436.894 1146.61C435.81 1145.99 434.559 1145.68 433.14 1145.68C431.734 1145.68 430.483 1145.99 429.386 1146.61C428.303 1147.22 427.451 1148.09 426.832 1149.23C426.226 1150.35 425.923 1151.68 425.923 1153.21C425.923 1154.75 426.226 1156.09 426.832 1157.24C427.451 1158.38 428.303 1159.27 429.386 1159.91C430.483 1160.54 431.734 1160.85 433.14 1160.85ZM462.347 1163.51V1153.66C462.347 1153.06 462.347 1152.58 462.347 1152.21C462.347 1151.82 462.347 1151.45 462.347 1151.1C462.347 1150.03 462.167 1149.1 461.806 1148.3C461.444 1147.5 460.877 1146.88 460.103 1146.44C459.329 1146 458.316 1145.78 457.065 1145.78C455.969 1145.78 454.95 1146.07 454.008 1146.63C453.079 1147.19 452.331 1147.94 451.763 1148.9C451.209 1149.84 450.931 1150.9 450.931 1152.07L449.055 1151.35C449.055 1149.74 449.448 1148.28 450.235 1146.96C451.035 1145.65 452.092 1144.6 453.408 1143.83C454.737 1143.04 456.181 1142.65 457.742 1142.65C459.329 1142.65 460.716 1142.95 461.902 1143.56C463.089 1144.16 464.005 1145.03 464.65 1146.17C465.308 1147.29 465.637 1148.65 465.637 1150.23C465.637 1150.8 465.637 1151.42 465.637 1152.09C465.637 1152.76 465.637 1153.39 465.637 1153.97V1163.51H462.347ZM447.642 1163.51V1142.96H450.931V1163.51H447.642Z" fill="white"/>
<path d="M278.841 1201.77V1194.26H273.717V1191.91H278.841V1186.84H281.725V1201.77H278.841ZM275.789 1198.49L274.249 1200.76C271.533 1199.78 269.573 1197.88 268.481 1195.41C267.361 1198.21 265.233 1200.42 262.181 1201.52L260.669 1199.19C264.729 1197.82 266.941 1194.4 266.941 1190.71V1188.22H269.853V1190.57C269.853 1194.07 271.953 1197.23 275.789 1198.49ZM273.297 1209.89C276.881 1209.89 278.953 1208.96 278.953 1207.31C278.953 1205.66 276.881 1204.74 273.297 1204.74C269.713 1204.74 267.669 1205.66 267.669 1207.31C267.669 1208.96 269.713 1209.89 273.297 1209.89ZM273.297 1202.47C278.589 1202.47 281.837 1204.26 281.837 1207.31C281.837 1210.36 278.589 1212.16 273.297 1212.16C268.033 1212.16 264.785 1210.36 264.785 1207.31C264.785 1204.26 268.033 1202.47 273.297 1202.47ZM302.835 1209.52V1206.58H291.411V1209.52H302.835ZM302.835 1204.34V1201.32H305.719V1211.85H288.555V1201.32H291.411V1204.34H302.835ZM305.131 1196.98H308.603V1199.33H285.699V1196.98H302.275C302.863 1194.21 302.919 1192.14 302.919 1190.29H288.583V1187.96H305.747V1189.9C305.747 1191.86 305.747 1193.98 305.131 1196.98ZM325.569 1189.76V1192.05H310.645V1189.76H316.665V1186.87H319.549V1189.76H325.569ZM314.733 1198.02C314.733 1199.61 316.105 1200.56 318.093 1200.56C320.109 1200.56 321.481 1199.61 321.481 1198.02C321.481 1196.42 320.109 1195.47 318.093 1195.47C316.105 1195.47 314.733 1196.42 314.733 1198.02ZM324.225 1198.02C324.225 1200.9 321.733 1202.8 318.093 1202.8C314.481 1202.8 311.961 1200.9 311.961 1198.02C311.961 1195.16 314.481 1193.23 318.093 1193.23C321.733 1193.23 324.225 1195.16 324.225 1198.02ZM317.253 1204.37V1209.33H331.365V1211.68H314.341V1204.37H317.253ZM330.357 1194.94H333.941V1197.32H330.357V1205.83H327.473V1186.87H330.357V1194.94ZM361.816 1186.84V1199.7H358.932V1186.84H361.816ZM344.26 1193.4C344.26 1195.41 345.884 1196.73 348.068 1196.73C350.28 1196.73 351.932 1195.41 351.932 1193.4C351.932 1191.38 350.28 1190.06 348.068 1190.06C345.884 1190.06 344.26 1191.38 344.26 1193.4ZM354.732 1193.4C354.732 1196.73 351.904 1199.08 348.068 1199.08C344.26 1199.08 341.46 1196.73 341.46 1193.4C341.46 1190.06 344.26 1187.68 348.068 1187.68C351.904 1187.68 354.732 1190.06 354.732 1193.4ZM348.124 1209.58H362.572V1211.85H345.296V1205.21H358.96V1203.11H345.24V1200.84H361.816V1207.34H348.124V1209.58ZM375.841 1199.05V1194.88H369.653V1199.05H375.841ZM378.697 1188.69V1201.38H366.769V1188.69H369.653V1192.64H375.841V1188.69H378.697ZM372.537 1203.67V1209.33H386.649V1211.68H369.625V1203.67H372.537ZM385.641 1194.32H389.225V1196.7H385.641V1205.46H382.757V1186.9H385.641V1194.32ZM405.995 1189.78V1192.11H390.959V1189.78H397.063V1186.96H399.947V1189.78H405.995ZM395.159 1198.1C395.159 1199.64 396.531 1200.59 398.519 1200.59C400.507 1200.59 401.851 1199.64 401.851 1198.1C401.851 1196.53 400.507 1195.58 398.519 1195.58C396.531 1195.58 395.159 1196.53 395.159 1198.1ZM399.947 1202.69V1205.04C402.103 1204.93 404.259 1204.79 406.275 1204.48L406.499 1206.61C401.095 1207.56 395.243 1207.62 390.903 1207.62L390.511 1205.24C392.443 1205.24 394.711 1205.24 397.063 1205.16V1202.69C394.263 1202.22 392.443 1200.51 392.443 1198.1C392.443 1195.24 394.907 1193.37 398.519 1193.37C402.103 1193.37 404.567 1195.24 404.567 1198.1C404.567 1200.51 402.747 1202.24 399.947 1202.69ZM414.171 1197.43V1199.81H410.587V1212.16H407.703V1186.84H410.587V1197.43H414.171Z" fill="white"/>
<path d="M328.416 994.208C338.006 981.925 345.873 968.613 352.114 954.305C352.579 953.243 353.796 952.181 354.899 951.794C359.384 950.197 363.95 948.871 369.17 947.225C368.696 949.629 368.59 951.637 367.896 953.407C364.163 962.883 360.323 972.318 356.394 981.719C355.92 982.847 354.572 983.563 353.886 984.642C352.865 986.264 351.485 987.968 351.297 989.754C350.864 993.945 349.279 995.147 345.57 993.36C345.268 993.22 344.982 993.047 344.688 992.891C338.665 989.592 333.42 990.199 328.955 994.71C328.775 994.546 328.595 994.373 328.424 994.208H328.416Z" fill="white"/>
<path d="M339.125 992.858C519.239 992.858 665.25 924.183 665.25 839.468C665.25 754.753 519.239 686.078 339.125 686.078C159.011 686.078 13 754.753 13 839.468C13 924.183 159.011 992.858 339.125 992.858Z" fill="#4857F6" stroke="#FF4C91" stroke-width="24.23" stroke-miterlimit="10"/>
<path d="M339.125 943.997C461.861 943.997 561.358 897.198 561.358 839.468C561.358 781.738 461.861 734.938 339.125 734.938C216.389 734.938 116.891 781.738 116.891 839.468C116.891 897.198 216.389 943.997 339.125 943.997Z" fill="#4857F6" stroke="#FF4C91" stroke-width="2.2" stroke-miterlimit="10"/>
<path d="M339.125 904.283C415.23 904.283 476.926 875.265 476.926 839.468C476.926 803.672 415.23 774.653 339.125 774.653C263.02 774.653 201.325 803.672 201.325 839.468C201.325 875.265 263.02 904.283 339.125 904.283Z" fill="#4857F6" stroke="#FF4C91" stroke-width="2.2" stroke-miterlimit="10"/>
<path d="M339.125 686.078V992.85" stroke="#FF4C91" stroke-width="2" stroke-miterlimit="10"/>
<path d="M665.25 839.468H13" stroke="#FF4C91" stroke-width="2" stroke-miterlimit="10"/>
<path d="M339.125 877.733C384.055 877.733 420.479 860.602 420.479 839.468C420.479 818.335 384.055 801.203 339.125 801.203C294.195 801.203 257.771 818.335 257.771 839.468C257.771 860.602 294.195 877.733 339.125 877.733Z" fill="#F4F4F4" stroke="#FF4C91" stroke-width="2.2" stroke-miterlimit="10"/>
<path d="M116.891 627.512V791.941L230.92 708.669L116.891 627.512Z" fill="#FF4C91"/>
<path d="M212.353 623V787.43L326.382 704.157L212.353 623Z" fill="#FF4C91"/>
<path d="M431.645 883.652V1048.08L545.682 964.809L431.645 883.652Z" fill="#FF4C91"/>
<path d="M527.106 879.141V1043.57L641.144 960.298L527.106 879.141Z" fill="#FF4C91"/>
<path d="M344.026 704.396C344.41 704.396 344.737 704.363 345.006 704.289C345.276 704.215 345.496 704.124 345.668 703.992C345.84 703.861 345.962 703.712 346.044 703.531C346.125 703.35 346.158 703.144 346.158 702.922C346.158 702.601 346.068 702.354 345.897 702.173C345.725 701.992 345.439 701.893 345.047 701.893C344.835 701.893 344.647 701.918 344.475 701.959C344.304 702 344.149 702.058 344.01 702.124C343.871 702.189 343.74 702.264 343.626 702.346C343.511 702.428 343.405 702.502 343.307 702.568L342.654 701.506C342.776 701.407 342.931 701.309 343.103 701.218C343.274 701.127 343.462 701.037 343.675 700.963C343.887 700.889 344.099 700.831 344.336 700.782C344.573 700.732 344.818 700.716 345.08 700.716C345.447 700.716 345.799 700.757 346.117 700.839C346.436 700.922 346.722 701.045 346.967 701.21C347.212 701.374 347.4 701.588 347.539 701.844C347.677 702.099 347.751 702.412 347.751 702.766C347.751 703.004 347.702 703.227 347.612 703.441C347.522 703.655 347.4 703.844 347.253 704.017C347.106 704.19 346.942 704.338 346.754 704.462C346.566 704.585 346.379 704.676 346.183 704.733C346.485 704.774 346.754 704.849 346.991 704.956C347.228 705.063 347.432 705.203 347.596 705.384C347.759 705.565 347.882 705.771 347.971 706.026C348.061 706.281 348.102 706.569 348.102 706.89C348.102 707.409 348.021 707.845 347.865 708.207C347.71 708.57 347.49 708.858 347.204 709.08C346.918 709.302 346.591 709.467 346.207 709.566C345.823 709.665 345.407 709.714 344.957 709.714C344.671 709.714 344.402 709.681 344.14 709.623C343.879 709.566 343.634 709.492 343.413 709.409C343.193 709.327 342.997 709.245 342.833 709.154C342.67 709.064 342.539 708.998 342.449 708.94L343.16 707.755C343.16 707.755 343.242 707.812 343.307 707.862C343.372 707.911 343.462 707.961 343.56 708.018C343.658 708.076 343.765 708.133 343.887 708.191C344.01 708.249 344.132 708.306 344.263 708.356C344.394 708.405 344.524 708.446 344.663 708.479C344.802 708.512 344.933 708.529 345.064 708.529C345.496 708.529 345.84 708.397 346.093 708.142C346.346 707.886 346.477 707.499 346.477 706.989C346.477 706.668 346.428 706.405 346.338 706.191C346.248 705.976 346.101 705.812 345.905 705.696C345.709 705.581 345.447 705.491 345.137 705.441C344.827 705.392 344.451 705.367 344.01 705.359L344.026 704.388V704.396Z" fill="#FF4C91"/>
<path d="M457.851 851.257V845.223L456.47 845.98V844.72L458.235 843.749H459.337V851.257H460.563V852.377H456.519V851.257H457.851Z" fill="#FF4C91"/>
<path d="M461.658 848.03C461.658 847.347 461.715 846.729 461.837 846.178C461.96 845.626 462.14 845.149 462.385 844.753C462.63 844.358 462.94 844.054 463.324 843.84C463.708 843.626 464.149 843.519 464.664 843.519C465.178 843.519 465.603 843.626 465.979 843.831C466.355 844.037 466.657 844.342 466.902 844.729C467.147 845.116 467.327 845.593 467.441 846.153C467.555 846.713 467.621 847.338 467.621 848.038C467.621 848.738 467.564 849.388 467.449 849.948C467.335 850.508 467.155 850.977 466.91 851.356C466.665 851.735 466.355 852.031 465.979 852.229C465.603 852.426 465.154 852.525 464.639 852.525C464.125 852.525 463.684 852.426 463.308 852.229C462.932 852.031 462.622 851.743 462.385 851.356C462.148 850.969 461.96 850.508 461.846 849.948C461.731 849.388 461.674 848.754 461.674 848.038L461.658 848.03ZM464.647 851.331C464.86 851.331 465.039 851.29 465.187 851.2C465.334 851.109 465.464 850.986 465.562 850.829C465.66 850.673 465.75 850.483 465.807 850.261C465.865 850.039 465.914 849.808 465.946 849.561C465.979 849.314 466.003 849.051 466.012 848.779C466.02 848.508 466.028 848.236 466.028 847.956C466.028 847.701 466.028 847.446 466.02 847.182C466.012 846.919 465.995 846.672 465.963 846.433C465.93 846.194 465.889 845.964 465.832 845.758C465.775 845.552 465.693 845.363 465.595 845.206C465.497 845.05 465.366 844.926 465.219 844.836C465.072 844.745 464.884 844.704 464.672 844.704C464.46 844.704 464.264 844.745 464.108 844.836C463.953 844.926 463.822 845.042 463.716 845.198C463.61 845.354 463.528 845.536 463.463 845.741C463.398 845.947 463.349 846.178 463.316 846.425C463.283 846.672 463.259 846.927 463.251 847.199C463.242 847.47 463.234 847.734 463.234 848.005C463.234 848.277 463.234 848.54 463.251 848.812C463.267 849.084 463.283 849.339 463.316 849.586C463.349 849.833 463.398 850.063 463.463 850.277C463.528 850.492 463.61 850.673 463.708 850.829C463.806 850.986 463.937 851.109 464.092 851.2C464.247 851.29 464.427 851.331 464.639 851.331H464.647Z" fill="#FF4C91"/>
<path d="M344.615 787.833V781.799L343.234 782.556V781.297L344.999 780.325H346.102V787.833H347.327V788.953H343.283V787.833H344.615Z" fill="#FF4C91"/>
<path d="M348.421 784.606C348.421 783.923 348.479 783.306 348.601 782.754C348.724 782.202 348.903 781.725 349.149 781.33C349.394 780.934 349.704 780.63 350.088 780.416C350.472 780.202 350.913 780.095 351.427 780.095C351.942 780.095 352.367 780.202 352.743 780.408C353.119 780.613 353.421 780.918 353.666 781.305C353.911 781.692 354.091 782.169 354.205 782.729C354.319 783.289 354.385 783.915 354.385 784.615C354.385 785.314 354.328 785.965 354.213 786.524C354.099 787.084 353.919 787.553 353.674 787.932C353.429 788.311 353.119 788.607 352.743 788.805C352.367 789.002 351.918 789.101 351.403 789.101C350.888 789.101 350.447 789.002 350.072 788.805C349.696 788.607 349.385 788.319 349.149 787.932C348.912 787.545 348.724 787.084 348.609 786.524C348.495 785.965 348.438 785.331 348.438 784.615L348.421 784.606ZM351.411 787.908C351.624 787.908 351.803 787.866 351.95 787.776C352.097 787.685 352.228 787.562 352.326 787.405C352.424 787.249 352.514 787.06 352.571 786.837C352.628 786.615 352.677 786.385 352.71 786.138C352.743 785.891 352.767 785.627 352.775 785.355C352.784 785.084 352.792 784.812 352.792 784.532C352.792 784.277 352.792 784.022 352.784 783.758C352.775 783.495 352.759 783.248 352.726 783.009C352.694 782.77 352.653 782.54 352.596 782.334C352.539 782.128 352.457 781.939 352.359 781.782C352.261 781.626 352.13 781.503 351.983 781.412C351.836 781.321 351.648 781.28 351.436 781.28C351.223 781.28 351.027 781.321 350.872 781.412C350.717 781.503 350.586 781.618 350.48 781.774C350.374 781.931 350.292 782.112 350.227 782.318C350.161 782.523 350.112 782.754 350.08 783.001C350.047 783.248 350.022 783.503 350.014 783.775C350.006 784.046 349.998 784.31 349.998 784.582C349.998 784.853 349.998 785.117 350.014 785.388C350.031 785.66 350.047 785.915 350.08 786.162C350.112 786.409 350.161 786.64 350.227 786.854C350.292 787.068 350.374 787.249 350.472 787.405C350.57 787.562 350.7 787.685 350.856 787.776C351.011 787.866 351.191 787.908 351.403 787.908H351.411Z" fill="#FF4C91"/>
<path d="M552.724 845.338C552.545 845.239 552.332 845.149 552.095 845.066C551.858 844.984 551.581 844.951 551.278 844.951C551.001 844.951 550.755 845.009 550.543 845.132C550.331 845.255 550.151 845.42 549.996 845.634C549.841 845.848 549.718 846.12 549.62 846.433C549.522 846.746 549.457 847.091 549.408 847.487C549.498 847.396 549.612 847.314 549.743 847.24C549.873 847.166 550.02 847.1 550.167 847.05C550.314 847.001 550.478 846.96 550.641 846.927C550.805 846.894 550.968 846.886 551.123 846.886C551.524 846.886 551.875 846.943 552.185 847.059C552.495 847.174 552.757 847.347 552.978 847.561C553.198 847.775 553.353 848.046 553.468 848.367C553.582 848.689 553.639 849.043 553.639 849.446C553.639 849.849 553.574 850.236 553.451 850.574C553.329 850.911 553.133 851.199 552.879 851.438C552.626 851.677 552.316 851.866 551.932 851.998C551.548 852.13 551.115 852.196 550.617 852.196C550.159 852.196 549.767 852.122 549.432 851.973C549.097 851.825 548.828 851.603 548.607 851.315C548.387 851.027 548.231 850.664 548.125 850.228C548.019 849.792 547.97 849.29 547.97 848.722C547.97 847.948 548.035 847.256 548.158 846.647C548.28 846.038 548.485 845.536 548.762 845.124C549.04 844.712 549.4 844.399 549.832 844.185C550.265 843.971 550.813 843.864 551.442 843.864C551.572 843.864 551.719 843.873 551.875 843.889C552.03 843.905 552.185 843.93 552.34 843.971C552.496 844.012 552.651 844.054 552.798 844.103C552.945 844.152 553.084 844.218 553.198 844.284L552.716 845.346L552.724 845.338ZM552.21 849.462C552.21 849.232 552.177 849.026 552.12 848.837C552.063 848.647 551.965 848.491 551.842 848.351C551.719 848.211 551.572 848.112 551.393 848.038C551.213 847.964 551.009 847.931 550.772 847.931C550.617 847.931 550.478 847.939 550.355 847.956C550.233 847.972 550.118 848.005 550.02 848.038C549.922 848.071 549.824 848.121 549.734 848.178C549.645 848.236 549.563 848.302 549.481 848.376C549.465 848.417 549.449 848.466 549.432 848.516C549.416 848.565 549.408 848.623 549.408 848.68C549.408 848.738 549.4 848.796 549.391 848.845C549.383 848.894 549.391 848.944 549.391 848.977C549.391 849.355 549.432 849.676 549.506 849.94C549.579 850.203 549.677 850.417 549.8 850.59C549.922 850.763 550.069 850.878 550.233 850.961C550.396 851.043 550.568 851.076 550.747 851.076C550.943 851.076 551.131 851.043 551.303 850.977C551.474 850.911 551.638 850.804 551.768 850.673C551.899 850.541 552.005 850.368 552.087 850.162C552.169 849.956 552.201 849.718 552.201 849.454L552.21 849.462Z" fill="#FF4C91"/>
<path d="M347.882 742.216C347.702 742.118 347.49 742.027 347.253 741.945C347.016 741.862 346.738 741.829 346.436 741.829C346.158 741.829 345.913 741.887 345.701 742.011C345.488 742.134 345.309 742.299 345.154 742.513C344.998 742.727 344.876 742.998 344.778 743.311C344.68 743.624 344.614 743.97 344.565 744.365C344.655 744.274 344.77 744.192 344.9 744.118C345.031 744.044 345.178 743.978 345.325 743.929C345.472 743.879 345.636 743.838 345.799 743.805C345.962 743.772 346.126 743.764 346.281 743.764C346.681 743.764 347.032 743.822 347.343 743.937C347.653 744.052 347.915 744.225 348.135 744.439C348.356 744.653 348.511 744.925 348.625 745.246C348.74 745.567 348.797 745.921 348.797 746.324C348.797 746.728 348.731 747.115 348.609 747.452C348.486 747.79 348.29 748.078 348.037 748.317C347.784 748.555 347.474 748.745 347.09 748.876C346.706 749.008 346.273 749.074 345.774 749.074C345.317 749.074 344.925 749 344.59 748.852C344.255 748.704 343.985 748.481 343.765 748.193C343.544 747.905 343.389 747.543 343.283 747.106C343.177 746.67 343.128 746.168 343.128 745.6C343.128 744.826 343.193 744.135 343.316 743.525C343.438 742.916 343.642 742.414 343.92 742.002C344.198 741.591 344.557 741.278 344.99 741.064C345.423 740.85 345.97 740.743 346.599 740.743C346.73 740.743 346.877 740.751 347.032 740.767C347.188 740.784 347.343 740.809 347.498 740.85C347.653 740.891 347.808 740.932 347.955 740.981C348.102 741.031 348.241 741.097 348.356 741.163L347.874 742.224L347.882 742.216ZM347.375 746.349C347.375 746.119 347.343 745.913 347.286 745.723C347.229 745.534 347.13 745.378 347.008 745.238C346.885 745.098 346.738 744.999 346.559 744.925C346.379 744.851 346.175 744.818 345.938 744.818C345.783 744.818 345.644 744.826 345.521 744.842C345.399 744.859 345.284 744.892 345.186 744.925C345.088 744.958 344.99 745.007 344.9 745.065C344.81 745.122 344.729 745.188 344.647 745.262C344.631 745.304 344.614 745.353 344.598 745.402C344.582 745.452 344.574 745.509 344.574 745.567C344.574 745.625 344.565 745.682 344.557 745.732C344.549 745.781 344.557 745.83 344.557 745.863C344.557 746.242 344.598 746.563 344.672 746.827C344.745 747.09 344.843 747.304 344.966 747.477C345.088 747.65 345.235 747.765 345.399 747.847C345.562 747.93 345.733 747.963 345.913 747.963C346.109 747.963 346.297 747.93 346.469 747.864C346.64 747.798 346.804 747.691 346.934 747.559C347.065 747.428 347.171 747.255 347.253 747.049C347.335 746.843 347.367 746.604 347.367 746.341L347.375 746.349Z" fill="#FF4C91"/>
<path d="M367.479 725.9C368.019 726.904 368.909 726.781 369.767 725.57C369.424 727.291 372.119 729.917 372.797 728.534C372.111 729.917 374.791 732.535 375.82 731.49C374.791 732.535 375.591 735.762 376.718 735.128C375.591 735.762 379.291 736.923 380.884 736.437C379.283 736.923 379.496 737.129 381.13 736.676C379.994 737.615 380.002 738.512 381.162 739.047C379.528 739.236 377.004 740.554 378.311 740.537C377.004 740.562 377.11 743.007 378.434 743.295C377.11 743.007 374.055 747.757 374.987 748.655C374.055 747.757 370.878 752.697 371.4 754.228C370.878 752.697 370.306 753.586 370.755 755.224C369.775 754.401 368.827 754.73 368.378 756.056C368.19 754.319 367.243 753.701 367.308 755.356C367.243 753.701 365.405 752.499 365.233 753.998C365.405 752.499 364.008 751.585 363.656 752.968C364.008 751.585 362.537 750.622 361.998 751.882C362.537 750.622 361.181 751.528 360.479 752.903C361.189 751.528 358.102 749.503 356.999 750.622C358.102 749.503 353.715 744.851 352.048 745.37C353.715 744.843 356.525 745.493 355.218 746.102C355.782 745.016 352.996 743.122 352.097 742.497C353.756 742.299 354.099 741.929 352.481 742.085C354.099 741.929 355.667 740.233 354.254 740.167C355.667 740.233 358.927 736.709 357.93 736.199C358.927 736.709 360.381 735.137 359.572 734.429C360.381 735.145 363.019 732.305 362.537 731.226C363.011 732.305 365.829 729.259 365.715 727.793C365.829 729.259 367.398 727.571 367.479 725.891V725.9Z" fill="#FF4C91"/>
<path d="M364.514 734.766C364.775 735.243 365.192 735.186 365.6 734.609C365.437 735.424 366.719 736.676 367.046 736.017C366.719 736.676 367.994 737.919 368.484 737.425C367.994 737.927 368.37 739.458 368.909 739.154C368.37 739.458 370.134 740.01 370.894 739.779C370.134 740.01 370.232 740.109 371.008 739.895C370.469 740.339 370.469 740.767 371.024 741.023C370.248 741.113 369.047 741.739 369.668 741.731C369.047 741.739 369.097 742.908 369.726 743.048C369.097 742.908 367.642 745.172 368.084 745.6C367.642 745.172 366.131 747.526 366.376 748.251C366.123 747.526 365.854 747.946 366.074 748.728C365.608 748.341 365.159 748.498 364.947 749.123C364.857 748.3 364.408 748.004 364.44 748.794C364.408 748.004 363.534 747.436 363.452 748.152C363.534 747.436 362.872 747 362.7 747.658C362.864 747 362.169 746.538 361.908 747.139C362.161 746.538 361.524 746.967 361.181 747.625C361.516 746.967 360.045 746.012 359.523 746.539C360.045 746.003 357.962 743.789 357.17 744.044C357.962 743.797 359.302 744.102 358.681 744.39C358.951 743.871 357.627 742.974 357.194 742.677C357.987 742.579 358.142 742.406 357.374 742.48C358.142 742.406 358.894 741.599 358.216 741.566C358.885 741.599 360.438 739.919 359.964 739.672C360.438 739.919 361.132 739.17 360.748 738.833C361.132 739.17 362.39 737.82 362.161 737.31C362.39 737.82 363.729 736.371 363.672 735.68C363.729 736.379 364.473 735.573 364.514 734.774V734.766Z" fill="#F4F4F4"/>
<path d="M217.025 837.937C216.29 838.735 216.658 839.559 217.981 840.061C216.323 840.209 214.575 843.551 216.012 843.831C214.575 843.551 212.835 846.877 214.052 847.585C212.835 846.877 209.984 848.557 210.841 849.479C209.992 848.557 209.926 852.459 210.768 853.883C209.926 852.467 209.788 852.731 210.613 854.18C209.469 853.332 208.619 853.595 208.358 854.879C207.786 853.348 205.818 851.274 206.136 852.541C205.818 851.274 203.514 852.064 203.539 853.439C203.514 852.072 198.131 850.45 197.469 851.619C198.131 850.459 192.527 848.771 191.154 849.726C192.535 848.779 191.53 848.474 190.027 849.388C190.599 848.203 190.027 847.38 188.573 847.322C190.24 846.647 190.566 845.552 188.941 846.087C190.566 845.552 191.195 843.436 189.643 843.7C191.195 843.436 191.669 841.823 190.182 841.888C191.669 841.831 192.167 840.135 190.746 839.978C192.167 840.135 190.926 839.081 189.349 838.793C190.934 839.081 191.979 835.525 190.534 834.784C191.979 835.525 195.174 829.976 194.136 828.519C195.174 829.968 195.353 832.874 194.332 831.795C195.598 832.026 196.611 828.799 196.881 827.761C197.608 829.301 198.057 829.523 197.379 828.016C198.049 829.523 200.107 830.569 199.699 829.194C200.107 830.569 204.38 832.734 204.519 831.631C204.38 832.734 206.291 833.697 206.667 832.717C206.291 833.697 209.73 835.434 210.555 834.685C209.739 835.442 213.431 837.303 214.713 836.792C213.423 837.311 215.473 838.34 217.017 837.961L217.025 837.937Z" fill="#FF4C91"/>
<path d="M207.77 837.575C207.419 837.953 207.598 838.348 208.227 838.587C207.435 838.653 206.61 840.25 207.288 840.382C206.602 840.25 205.777 841.831 206.357 842.168C205.777 841.831 204.421 842.629 204.829 843.066C204.421 842.629 204.396 844.482 204.796 845.157C204.396 844.482 204.331 844.605 204.723 845.297C204.176 844.893 203.775 845.017 203.653 845.634C203.383 844.902 202.444 843.914 202.599 844.523C202.444 843.922 201.349 844.301 201.365 844.951C201.357 844.301 198.792 843.527 198.474 844.087C198.792 843.535 196.121 842.736 195.468 843.181C196.121 842.728 195.647 842.588 194.928 843.016C195.198 842.448 194.928 842.061 194.234 842.037C195.026 841.716 195.182 841.197 194.406 841.452C195.182 841.197 195.476 840.193 194.741 840.316C195.476 840.193 195.704 839.427 194.994 839.452C195.704 839.419 195.941 838.62 195.263 838.546C195.941 838.62 195.353 838.118 194.593 837.978C195.345 838.118 195.843 836.422 195.157 836.068C195.843 836.422 197.363 833.779 196.873 833.088C197.371 833.779 197.453 835.162 196.971 834.644C197.575 834.751 198.057 833.22 198.188 832.726C198.531 833.458 198.743 833.565 198.425 832.849C198.743 833.565 199.723 834.059 199.527 833.409C199.723 834.067 201.758 835.088 201.823 834.57C201.758 835.097 202.664 835.549 202.844 835.088C202.664 835.558 204.306 836.381 204.69 836.027C204.298 836.389 206.054 837.278 206.667 837.031C206.054 837.278 207.026 837.772 207.762 837.583L207.77 837.575Z" fill="#F4F4F4"/>
<path d="M314.978 815.594C314.79 816.878 315.582 817.306 317.02 816.689C315.705 818.022 316.334 821.743 317.73 820.887C316.334 821.743 316.963 825.456 318.441 825.069C316.963 825.456 315.713 828.535 317.028 828.544C315.713 828.535 318.016 831.672 319.626 832.084C318.016 831.672 318.065 831.968 319.683 832.421C318.18 832.652 317.665 833.376 318.319 834.356C316.857 833.689 314.038 833.244 315.141 833.862C314.038 833.253 312.69 835.286 313.622 836.159C312.69 835.286 307.438 837.303 307.699 838.431C307.438 837.303 301.981 839.394 301.54 840.794C301.981 839.402 301.001 839.773 300.437 841.214C300.094 840.119 299.138 839.822 298.035 840.464C298.869 839.106 298.468 838.044 297.578 839.262C298.46 838.036 297.684 835.978 296.696 836.933C297.684 835.969 297.088 834.405 296.026 835.163C297.088 834.405 296.467 832.75 295.323 833.302C296.467 832.75 294.841 832.676 293.494 833.22C294.841 832.685 293.534 829.21 292.015 829.309C293.526 829.21 292.718 822.847 291.1 822.13C292.718 822.847 294.613 825.045 293.232 824.608C294.294 824.213 293.15 821.027 292.824 819.842C294.245 820.821 294.735 820.723 293.371 819.735C294.735 820.723 296.998 820.286 295.92 819.249C296.99 820.295 301.687 819.389 301.213 818.236C301.687 819.397 303.778 818.994 303.574 817.784C303.778 818.994 307.569 818.269 307.846 816.96C307.569 818.261 311.62 817.487 312.421 816.079C311.62 817.479 313.875 817.051 314.953 815.594H314.978Z" fill="#FF4C91"/>
<path d="M307.381 821.027C307.291 821.637 307.667 821.842 308.353 821.546C307.724 822.18 308.027 823.95 308.688 823.546C308.027 823.958 308.321 825.72 309.023 825.539C308.321 825.72 307.724 827.185 308.353 827.194C307.724 827.194 308.827 828.684 309.587 828.881C308.819 828.684 308.843 828.824 309.611 829.038C308.901 829.145 308.655 829.49 308.966 829.96C308.271 829.639 306.932 829.433 307.455 829.721C306.932 829.433 306.286 830.404 306.728 830.816C306.286 830.404 303.787 831.359 303.909 831.894C303.787 831.359 301.189 832.355 300.977 833.022C301.181 832.355 300.724 832.536 300.454 833.22C300.291 832.701 299.833 832.561 299.31 832.866C299.711 832.215 299.515 831.713 299.098 832.298C299.523 831.713 299.147 830.734 298.681 831.186C299.147 830.734 298.869 829.984 298.363 830.347C298.869 829.984 298.567 829.202 298.028 829.458C298.567 829.194 297.799 829.161 297.162 829.416C297.799 829.161 297.178 827.506 296.459 827.556C297.178 827.506 296.794 824.477 296.026 824.139C296.794 824.477 297.693 825.522 297.039 825.316C297.546 825.127 296.999 823.612 296.843 823.053C297.521 823.514 297.75 823.472 297.105 823.003C297.75 823.472 298.828 823.267 298.322 822.773C298.828 823.267 301.067 822.838 300.838 822.287C301.058 822.838 302.063 822.649 301.965 822.073C302.063 822.649 303.869 822.303 303.999 821.686C303.869 822.303 305.796 821.933 306.172 821.266C305.796 821.933 306.866 821.727 307.381 821.036V821.027Z" fill="#F4F4F4"/>
<path d="M314.537 923.852C313.802 924.651 314.169 925.474 315.492 925.976C313.834 926.125 312.086 929.467 313.524 929.747C312.086 929.467 310.346 932.793 311.563 933.501C310.346 932.793 307.495 934.472 308.353 935.394C307.503 934.472 307.438 938.375 308.279 939.799C307.438 938.383 307.299 938.646 308.124 940.095C306.981 939.247 306.131 939.511 305.87 940.795C305.298 939.264 303.329 937.189 303.648 938.457C303.329 937.189 301.025 937.979 301.05 939.354C301.025 937.988 295.642 936.366 294.981 937.535C295.642 936.374 290.038 934.686 288.666 935.641C290.047 934.695 289.042 934.39 287.539 935.304C288.11 934.118 287.539 933.295 286.085 933.237C287.751 932.562 288.078 931.467 286.452 932.003C288.078 931.467 288.707 929.352 287.155 929.615C288.707 929.352 289.181 927.738 287.694 927.804C289.181 927.746 289.679 926.05 288.258 925.894C289.679 926.05 288.437 924.997 286.861 924.708C288.446 924.997 289.491 921.44 288.045 920.699C289.491 921.44 292.685 915.891 291.648 914.434C292.685 915.883 292.865 918.789 291.844 917.711C293.11 917.941 294.123 914.714 294.392 913.677C295.119 915.216 295.569 915.439 294.891 913.932C295.56 915.439 297.619 916.484 297.211 915.109C297.619 916.484 301.891 918.649 302.03 917.546C301.891 918.649 303.803 919.612 304.179 918.633C303.803 919.612 307.242 921.35 308.067 920.6C307.25 921.358 310.942 923.218 312.225 922.708C310.934 923.227 312.985 924.256 314.529 923.877L314.537 923.852Z" fill="#FF4C91"/>
<path d="M305.273 923.49C304.922 923.869 305.101 924.264 305.73 924.503C304.938 924.569 304.113 926.166 304.791 926.297C304.105 926.166 303.28 927.746 303.86 928.084C303.28 927.746 301.924 928.545 302.332 928.981C301.924 928.545 301.899 930.397 302.3 931.072C301.899 930.397 301.834 930.521 302.226 931.212C301.679 930.809 301.279 930.932 301.156 931.55C300.886 930.817 299.947 929.829 300.102 930.438C299.947 929.838 298.852 930.216 298.869 930.867C298.861 930.216 296.295 929.442 295.977 930.002C296.295 929.451 293.624 928.652 292.971 929.097C293.624 928.644 293.15 928.504 292.432 928.932C292.701 928.364 292.432 927.977 291.737 927.952C292.53 927.631 292.685 927.112 291.909 927.368C292.685 927.112 292.979 926.108 292.244 926.232C292.979 926.108 293.208 925.342 292.497 925.367C293.208 925.334 293.445 924.536 292.767 924.462C293.445 924.536 292.856 924.033 292.097 923.894C292.848 924.033 293.346 922.338 292.66 921.984C293.346 922.338 294.866 919.695 294.376 919.003C294.874 919.695 294.956 921.078 294.474 920.559C295.078 920.666 295.56 919.135 295.691 918.641C296.034 919.374 296.246 919.481 295.928 918.765C296.246 919.481 297.227 919.975 297.031 919.324C297.227 919.983 299.261 921.004 299.326 920.485C299.261 921.012 300.168 921.465 300.347 921.004C300.168 921.473 301.81 922.296 302.193 921.942C301.801 922.305 303.558 923.194 304.17 922.947C303.558 923.194 304.53 923.688 305.265 923.498L305.273 923.49Z" fill="#F4F4F4"/>
<path d="M570.23 888.617C569.495 889.415 569.862 890.239 571.185 890.741C569.527 890.889 567.779 894.232 569.217 894.511C567.779 894.232 566.039 897.557 567.256 898.265C566.039 897.557 563.188 899.237 564.046 900.159C563.196 899.237 563.131 903.139 563.972 904.563C563.131 903.147 562.992 903.411 563.817 904.86C562.673 904.012 561.824 904.275 561.563 905.56C560.991 904.028 559.022 901.954 559.341 903.222C559.022 901.954 556.718 902.744 556.743 904.119C556.718 902.752 551.335 901.13 550.674 902.299C551.335 901.139 545.731 899.451 544.359 900.406C545.74 899.459 544.735 899.155 543.232 900.068C543.803 898.883 543.232 898.06 541.778 898.002C543.444 897.327 543.771 896.232 542.145 896.767C543.771 896.232 544.4 894.116 542.848 894.38C544.4 894.116 544.874 892.503 543.387 892.569C544.874 892.511 545.372 890.815 543.951 890.659C545.372 890.815 544.13 889.761 542.554 889.473C544.139 889.761 545.184 886.205 543.738 885.464C545.184 886.205 548.378 880.656 547.341 879.199C548.378 880.648 548.558 883.554 547.537 882.475C548.803 882.706 549.816 879.479 550.085 878.441C550.812 879.981 551.262 880.203 550.584 878.697C551.253 880.203 553.312 881.249 552.904 879.874C553.312 881.249 557.584 883.414 557.723 882.311C557.584 883.414 559.496 884.377 559.872 883.397C559.496 884.377 562.935 886.114 563.76 885.365C562.943 886.122 566.635 887.983 567.918 887.473C566.627 887.991 568.678 889.02 570.222 888.642L570.23 888.617Z" fill="#FF4C91"/>
<path d="M560.974 888.246C560.623 888.625 560.803 889.02 561.432 889.259C560.639 889.325 559.814 890.922 560.492 891.054C559.806 890.922 558.981 892.503 559.561 892.84C558.981 892.503 557.625 893.301 558.033 893.738C557.625 893.301 557.6 895.154 558.001 895.829C557.6 895.154 557.535 895.277 557.927 895.969C557.38 895.565 556.98 895.689 556.857 896.306C556.588 895.573 555.648 894.586 555.803 895.195C555.648 894.594 554.554 894.972 554.57 895.623C554.562 894.972 551.997 894.199 551.678 894.758C551.997 894.207 549.325 893.408 548.672 893.853C549.325 893.4 548.852 893.26 548.133 893.688C548.402 893.12 548.133 892.733 547.438 892.708C548.231 892.387 548.386 891.869 547.61 892.124C548.386 891.869 548.68 890.864 547.945 890.988C548.68 890.864 548.909 890.099 548.198 890.123C548.909 890.091 549.146 889.292 548.468 889.218C549.146 889.292 548.558 888.79 547.798 888.65C548.549 888.79 549.048 887.094 548.361 886.74C549.048 887.094 550.567 884.451 550.077 883.76C550.575 884.451 550.657 885.834 550.175 885.316C550.779 885.423 551.261 883.891 551.392 883.397C551.735 884.13 551.948 884.237 551.629 883.521C551.948 884.237 552.928 884.731 552.732 884.081C552.928 884.739 554.962 885.76 555.027 885.242C554.962 885.768 555.869 886.221 556.048 885.76C555.869 886.229 557.511 887.053 557.894 886.699C557.502 887.061 559.259 887.95 559.871 887.703C559.259 887.95 560.231 888.444 560.966 888.255L560.974 888.246Z" fill="#F4F4F4"/>
<path d="M611.793 812.877C611.058 813.675 611.425 814.498 612.749 815.001C611.09 815.149 609.342 818.491 610.78 818.771C609.342 818.491 607.602 821.817 608.819 822.525C607.602 821.817 604.751 823.497 605.609 824.419C604.76 823.497 604.694 827.399 605.536 828.823C604.694 827.407 604.555 827.671 605.38 829.12C604.237 828.272 603.387 828.535 603.126 829.819C602.554 828.288 600.585 826.213 600.904 827.481C600.585 826.213 598.282 827.004 598.306 828.379C598.282 827.012 592.898 825.39 592.237 826.559C592.898 825.398 587.294 823.711 585.922 824.666C587.303 823.719 586.298 823.414 584.795 824.328C585.367 823.143 584.795 822.319 583.341 822.262C585.007 821.587 585.334 820.492 583.708 821.027C585.334 820.492 585.963 818.376 584.411 818.639C585.963 818.376 586.437 816.762 584.95 816.828C586.437 816.771 586.935 815.075 585.514 814.918C586.935 815.075 585.693 814.021 584.117 813.733C585.702 814.021 586.747 810.465 585.301 809.724C586.747 810.465 589.941 804.916 588.904 803.459C589.941 804.907 590.121 807.814 589.1 806.735C590.366 806.966 591.379 803.738 591.648 802.701C592.376 804.241 592.825 804.463 592.147 802.956C592.817 804.463 594.875 805.508 594.467 804.134C594.875 805.508 599.148 807.674 599.286 806.57C599.148 807.674 601.059 808.637 601.435 807.657C601.059 808.637 604.498 810.374 605.323 809.625C604.506 810.382 608.199 812.243 609.481 811.732C608.19 812.251 610.241 813.28 611.785 812.901L611.793 812.877Z" fill="#FF4C91"/>
<path d="M602.529 812.514C602.178 812.893 602.358 813.288 602.987 813.527C602.194 813.593 601.369 815.19 602.047 815.322C601.361 815.19 600.536 816.771 601.116 817.108C600.536 816.771 599.18 817.569 599.589 818.006C599.18 817.569 599.156 819.422 599.556 820.097C599.156 819.422 599.09 819.545 599.482 820.237C598.935 819.833 598.535 819.957 598.412 820.574C598.143 819.841 597.203 818.854 597.358 819.463C597.203 818.862 596.109 819.241 596.125 819.891C596.117 819.241 593.552 818.467 593.233 819.026C593.552 818.475 590.881 817.676 590.227 818.121C590.881 817.668 590.407 817.528 589.688 817.956C589.958 817.388 589.688 817.001 588.994 816.977C589.786 816.655 589.941 816.137 589.165 816.392C589.941 816.137 590.235 815.132 589.5 815.256C590.235 815.132 590.464 814.367 589.753 814.392C590.464 814.359 590.701 813.56 590.023 813.486C590.701 813.56 590.113 813.058 589.353 812.918C590.104 813.058 590.603 811.362 589.917 811.008C590.603 811.362 592.122 808.719 591.632 808.028C592.13 808.719 592.212 810.102 591.73 809.584C592.335 809.691 592.817 808.159 592.947 807.666C593.29 808.398 593.503 808.505 593.184 807.789C593.503 808.505 594.483 808.999 594.287 808.349C594.483 809.007 596.517 810.028 596.582 809.51C596.517 810.037 597.424 810.489 597.604 810.028C597.424 810.498 599.066 811.321 599.45 810.967C599.058 811.329 600.814 812.218 601.426 811.971C600.814 812.218 601.786 812.712 602.521 812.523L602.529 812.514Z" fill="#F4F4F4"/>
</svg>
