<svg width="693" height="501" viewBox="0 0 693 501" fill="none" xmlns="http://www.w3.org/2000/svg">
<rect x="107" width="553" height="216" rx="4" fill="black"/>
<rect y="194" width="576" height="170" rx="4" fill="#FF4C91"/>
<path d="M43.776 225.652V240.194H40.85V225.652H43.776ZM30.07 232.076C30.07 233.704 31.258 234.694 32.754 234.694C34.272 234.694 35.416 233.704 35.416 232.076C35.416 230.404 34.272 229.436 32.754 229.436C31.258 229.436 30.07 230.404 30.07 232.076ZM38.254 232.076C38.254 235.024 35.856 237.202 32.754 237.202C29.652 237.202 27.232 235.024 27.232 232.076C27.232 229.084 29.652 226.928 32.754 226.928C35.856 226.928 38.254 229.084 38.254 232.076ZM33.194 243.23H44.282V245.54H30.29V238.764H33.194V243.23ZM63.3543 225.652V240.414H60.4283V225.652H63.3543ZM58.9323 235.046L57.4583 237.356C55.2143 236.586 53.6743 235.09 52.7943 233.198C51.8703 235.244 50.2863 236.894 47.9323 237.708L46.4583 235.398C49.8243 234.254 51.2763 231.416 51.2763 228.71V226.752H54.2243V228.71C54.2243 231.394 55.6323 233.99 58.9323 235.046ZM52.7723 243.23H63.8603V245.54H49.8683V239.006H52.7723V243.23ZM81.6566 233.616L78.7966 233.33C79.2586 231.526 79.3246 230.162 79.3246 228.82H68.1926V226.532H82.2286V228.204C82.2286 229.81 82.2286 231.526 81.6566 233.616ZM75.1446 243.714C77.8946 243.714 79.4566 243.164 79.4566 242.086C79.4566 240.986 77.8946 240.436 75.1446 240.436C72.4166 240.436 70.8546 240.986 70.8546 242.086C70.8546 243.164 72.4166 243.714 75.1446 243.714ZM75.1446 238.258C79.5226 238.258 82.3386 239.71 82.3386 242.086C82.3386 244.44 79.5226 245.892 75.1446 245.892C70.7886 245.892 67.9726 244.44 67.9726 242.086C67.9726 239.71 70.7886 238.258 75.1446 238.258ZM75.8046 234.694H84.3846V236.982H66.1466V234.694H72.9006V231.152H75.8046V234.694ZM88.8048 240.788V238.5H102.621V245.804H99.7168V240.788H88.8048ZM99.7168 225.63L102.621 225.652V237.642H99.7168V235.53H95.2508V233.198H99.7168V231.218H95.5808C94.2168 234.342 91.2688 236.498 87.0008 237.642L85.8788 235.376C90.3668 234.232 92.8748 231.966 93.3148 229.216H87.0448V226.906H96.4388C96.4388 227.588 96.3728 228.248 96.2628 228.886H99.7168V225.63ZM111.771 226.972C114.939 226.972 117.359 229.062 117.359 231.966C117.359 234.892 114.939 236.96 111.771 236.96C108.603 236.96 106.205 234.892 106.205 231.966C106.205 229.062 108.603 226.972 111.771 226.972ZM111.771 229.458C110.209 229.458 109.021 230.382 109.021 231.966C109.021 233.55 110.209 234.474 111.771 234.474C113.333 234.474 114.521 233.55 114.521 231.966C114.521 230.382 113.333 229.458 111.771 229.458ZM119.251 225.608H122.155V245.936H119.251V225.608ZM105.721 241.822L105.347 239.468C108.911 239.468 113.883 239.446 118.151 238.808L118.327 240.898C113.971 241.778 109.219 241.822 105.721 241.822ZM133.843 232.252C133.843 234.32 135.757 235.53 138.529 235.53C141.323 235.53 143.237 234.32 143.237 232.252C143.237 230.184 141.323 228.974 138.529 228.974C135.757 228.974 133.843 230.184 133.843 232.252ZM139.981 241.184H147.725V243.538H129.377V241.184H137.077V237.752C133.513 237.312 130.983 235.266 130.983 232.252C130.983 228.864 134.217 226.664 138.529 226.664C142.863 226.664 146.097 228.864 146.097 232.252C146.097 235.266 143.567 237.334 139.981 237.752V241.184ZM162.243 230.03V228.556H151.067V226.246H165.191V232.164H154.059V233.77H165.675V236.08H151.089V230.03H162.243ZM167.303 237.51V239.82H163.101V245.914H160.175V239.82H156.105V245.914H153.179V239.82H148.955V237.51H167.303ZM168.687 237.136C168.687 236.08 168.783 235.061 168.973 234.078C169.179 233.095 169.45 232.186 169.787 231.35C170.139 230.499 170.55 229.729 171.019 229.04C171.489 228.351 172.002 227.764 172.559 227.28H175.221C174.62 227.837 174.077 228.453 173.593 229.128C173.124 229.803 172.721 230.529 172.383 231.306C172.046 232.069 171.782 232.875 171.591 233.726C171.415 234.577 171.327 235.449 171.327 236.344V237.972C171.327 238.881 171.415 239.769 171.591 240.634C171.782 241.485 172.046 242.299 172.383 243.076C172.735 243.839 173.146 244.557 173.615 245.232C174.099 245.907 174.635 246.508 175.221 247.036H172.559C172.017 246.581 171.511 246.009 171.041 245.32C170.572 244.631 170.161 243.861 169.809 243.01C169.457 242.145 169.179 241.221 168.973 240.238C168.783 239.241 168.687 238.207 168.687 237.136ZM184.415 244C183.799 244 183.308 243.824 182.941 243.472C182.589 243.105 182.369 242.621 182.281 242.02H182.149C181.959 242.768 181.57 243.333 180.983 243.714C180.397 244.081 179.671 244.264 178.805 244.264C177.632 244.264 176.73 243.956 176.099 243.34C175.469 242.724 175.153 241.903 175.153 240.876C175.153 239.688 175.579 238.808 176.429 238.236C177.28 237.649 178.49 237.356 180.059 237.356H182.017V236.52C182.017 235.875 181.849 235.376 181.511 235.024C181.174 234.672 180.631 234.496 179.883 234.496C179.223 234.496 178.688 234.643 178.277 234.936C177.881 235.215 177.544 235.552 177.265 235.948L175.593 234.452C176.019 233.792 176.583 233.264 177.287 232.868C177.991 232.457 178.923 232.252 180.081 232.252C181.636 232.252 182.817 232.604 183.623 233.308C184.43 234.012 184.833 235.024 184.833 236.344V241.756H185.977V244H184.415ZM179.751 242.218C180.382 242.218 180.917 242.079 181.357 241.8C181.797 241.521 182.017 241.111 182.017 240.568V239.05H180.213C178.747 239.05 178.013 239.519 178.013 240.458V240.832C178.013 241.301 178.16 241.653 178.453 241.888C178.761 242.108 179.194 242.218 179.751 242.218ZM187.596 244V232.516H190.412V234.892H190.522C190.596 234.584 190.706 234.291 190.852 234.012C191.014 233.719 191.219 233.462 191.468 233.242C191.718 233.022 192.011 232.846 192.348 232.714C192.7 232.582 193.104 232.516 193.558 232.516H194.174V235.178H193.294C192.341 235.178 191.622 235.317 191.138 235.596C190.654 235.875 190.412 236.329 190.412 236.96V244H187.596ZM205.57 244.968C205.57 245.569 205.46 246.097 205.24 246.552C205.035 247.021 204.69 247.41 204.206 247.718C203.722 248.026 203.099 248.261 202.336 248.422C201.573 248.583 200.642 248.664 199.542 248.664C198.574 248.664 197.753 248.598 197.078 248.466C196.403 248.349 195.846 248.173 195.406 247.938C194.981 247.718 194.673 247.439 194.482 247.102C194.291 246.765 194.196 246.383 194.196 245.958C194.196 245.313 194.372 244.807 194.724 244.44C195.091 244.088 195.597 243.861 196.242 243.758V243.516C195.773 243.399 195.406 243.171 195.142 242.834C194.893 242.482 194.768 242.071 194.768 241.602C194.768 241.309 194.827 241.052 194.944 240.832C195.061 240.597 195.215 240.399 195.406 240.238C195.611 240.077 195.839 239.945 196.088 239.842C196.337 239.725 196.601 239.637 196.88 239.578V239.49C196.176 239.167 195.648 238.72 195.296 238.148C194.959 237.576 194.79 236.909 194.79 236.146C194.79 234.973 195.193 234.034 196 233.33C196.807 232.611 197.987 232.252 199.542 232.252C199.894 232.252 200.239 232.274 200.576 232.318C200.928 232.362 201.251 232.435 201.544 232.538V232.164C201.544 231.049 202.087 230.492 203.172 230.492H204.954V232.648H202.512V232.956C203.113 233.293 203.561 233.733 203.854 234.276C204.147 234.819 204.294 235.442 204.294 236.146C204.294 237.305 203.891 238.236 203.084 238.94C202.292 239.644 201.111 239.996 199.542 239.996C198.867 239.996 198.281 239.93 197.782 239.798C197.562 239.901 197.371 240.04 197.21 240.216C197.049 240.377 196.968 240.583 196.968 240.832C196.968 241.404 197.467 241.69 198.464 241.69H201.544C202.952 241.69 203.971 241.983 204.602 242.57C205.247 243.142 205.57 243.941 205.57 244.968ZM202.93 245.298C202.93 244.931 202.783 244.645 202.49 244.44C202.197 244.235 201.691 244.132 200.972 244.132H197.056C196.66 244.425 196.462 244.821 196.462 245.32C196.462 245.76 196.645 246.105 197.012 246.354C197.379 246.603 198.002 246.728 198.882 246.728H200.29C201.214 246.728 201.881 246.611 202.292 246.376C202.717 246.141 202.93 245.782 202.93 245.298ZM199.542 238.082C200.921 238.082 201.61 237.495 201.61 236.322V235.948C201.61 234.775 200.921 234.188 199.542 234.188C198.163 234.188 197.474 234.775 197.474 235.948V236.322C197.474 237.495 198.163 238.082 199.542 238.082ZM213.314 242.086H213.204C213.102 242.379 212.962 242.658 212.786 242.922C212.625 243.171 212.412 243.399 212.148 243.604C211.899 243.809 211.591 243.971 211.224 244.088C210.872 244.205 210.462 244.264 209.992 244.264C208.804 244.264 207.895 243.875 207.264 243.098C206.634 242.321 206.318 241.213 206.318 239.776V232.516H209.134V239.49C209.134 240.282 209.288 240.891 209.596 241.316C209.904 241.727 210.396 241.932 211.07 241.932C211.349 241.932 211.62 241.895 211.884 241.822C212.163 241.749 212.405 241.639 212.61 241.492C212.816 241.331 212.984 241.14 213.116 240.92C213.248 240.685 213.314 240.414 213.314 240.106V232.516H216.13V244H213.314V242.086ZM218.724 244V232.516H221.54V234.43H221.65C221.87 233.829 222.222 233.315 222.706 232.89C223.19 232.465 223.864 232.252 224.73 232.252C225.522 232.252 226.204 232.443 226.776 232.824C227.348 233.205 227.773 233.785 228.052 234.562H228.096C228.301 233.917 228.704 233.374 229.306 232.934C229.922 232.479 230.692 232.252 231.616 232.252C232.745 232.252 233.61 232.641 234.212 233.418C234.828 234.195 235.136 235.303 235.136 236.74V244H232.32V237.026C232.32 235.383 231.704 234.562 230.472 234.562C230.193 234.562 229.922 234.606 229.658 234.694C229.408 234.767 229.181 234.885 228.976 235.046C228.785 235.193 228.631 235.383 228.514 235.618C228.396 235.838 228.338 236.102 228.338 236.41V244H225.522V237.026C225.522 235.383 224.906 234.562 223.674 234.562C223.41 234.562 223.146 234.606 222.882 234.694C222.632 234.767 222.405 234.885 222.2 235.046C222.009 235.193 221.848 235.383 221.716 235.618C221.598 235.838 221.54 236.102 221.54 236.41V244H218.724ZM242.235 244.264C241.384 244.264 240.622 244.125 239.947 243.846C239.287 243.553 238.722 243.149 238.253 242.636C237.798 242.108 237.446 241.477 237.197 240.744C236.948 239.996 236.823 239.16 236.823 238.236C236.823 237.327 236.94 236.505 237.175 235.772C237.424 235.039 237.776 234.415 238.231 233.902C238.686 233.374 239.243 232.971 239.903 232.692C240.563 232.399 241.311 232.252 242.147 232.252C243.042 232.252 243.819 232.406 244.479 232.714C245.139 233.022 245.682 233.44 246.107 233.968C246.532 234.496 246.848 235.112 247.053 235.816C247.273 236.505 247.383 237.246 247.383 238.038V238.962H239.749V239.248C239.749 240.084 239.984 240.759 240.453 241.272C240.922 241.771 241.619 242.02 242.543 242.02C243.247 242.02 243.819 241.873 244.259 241.58C244.714 241.287 245.117 240.913 245.469 240.458L246.987 242.152C246.518 242.812 245.872 243.333 245.051 243.714C244.244 244.081 243.306 244.264 242.235 244.264ZM242.191 234.364C241.443 234.364 240.849 234.613 240.409 235.112C239.969 235.611 239.749 236.256 239.749 237.048V237.224H244.457V237.026C244.457 236.234 244.259 235.596 243.863 235.112C243.482 234.613 242.924 234.364 242.191 234.364ZM249.201 244V232.516H252.017V234.43H252.127C252.361 233.814 252.728 233.301 253.227 232.89C253.74 232.465 254.444 232.252 255.339 232.252C256.527 232.252 257.436 232.641 258.067 233.418C258.697 234.195 259.013 235.303 259.013 236.74V244H256.197V237.026C256.197 236.205 256.05 235.589 255.757 235.178C255.463 234.767 254.979 234.562 254.305 234.562C254.011 234.562 253.725 234.606 253.447 234.694C253.183 234.767 252.941 234.885 252.721 235.046C252.515 235.193 252.347 235.383 252.215 235.618C252.083 235.838 252.017 236.102 252.017 236.41V244H249.201ZM265.06 244C264.092 244 263.352 243.751 262.838 243.252C262.34 242.739 262.09 242.013 262.09 241.074V234.76H260.396V232.516H261.276C261.702 232.516 261.988 232.421 262.134 232.23C262.296 232.025 262.376 231.724 262.376 231.328V229.37H264.906V232.516H267.26V234.76H264.906V241.756H267.084V244H265.06ZM275.907 242.086H275.797C275.694 242.379 275.555 242.658 275.379 242.922C275.217 243.171 275.005 243.399 274.741 243.604C274.491 243.809 274.183 243.971 273.817 244.088C273.465 244.205 273.054 244.264 272.585 244.264C271.397 244.264 270.487 243.875 269.857 243.098C269.226 242.321 268.911 241.213 268.911 239.776V232.516H271.727V239.49C271.727 240.282 271.881 240.891 272.189 241.316C272.497 241.727 272.988 241.932 273.663 241.932C273.941 241.932 274.213 241.895 274.477 241.822C274.755 241.749 274.997 241.639 275.203 241.492C275.408 241.331 275.577 241.14 275.709 240.92C275.841 240.685 275.907 240.414 275.907 240.106V232.516H278.723V244H275.907V242.086ZM281.316 244V232.516H284.132V234.43H284.242C284.462 233.829 284.814 233.315 285.298 232.89C285.782 232.465 286.457 232.252 287.322 232.252C288.114 232.252 288.796 232.443 289.368 232.824C289.94 233.205 290.366 233.785 290.644 234.562H290.688C290.894 233.917 291.297 233.374 291.898 232.934C292.514 232.479 293.284 232.252 294.208 232.252C295.338 232.252 296.203 232.641 296.804 233.418C297.42 234.195 297.728 235.303 297.728 236.74V244H294.912V237.026C294.912 235.383 294.296 234.562 293.064 234.562C292.786 234.562 292.514 234.606 292.25 234.694C292.001 234.767 291.774 234.885 291.568 235.046C291.378 235.193 291.224 235.383 291.106 235.618C290.989 235.838 290.93 236.102 290.93 236.41V244H288.114V237.026C288.114 235.383 287.498 234.562 286.266 234.562C286.002 234.562 285.738 234.606 285.474 234.694C285.225 234.767 284.998 234.885 284.792 235.046C284.602 235.193 284.44 235.383 284.308 235.618C284.191 235.838 284.132 236.102 284.132 236.41V244H281.316ZM313.173 244C312.557 244 312.066 243.824 311.699 243.472C311.347 243.105 311.127 242.621 311.039 242.02H310.907C310.716 242.768 310.328 243.333 309.741 243.714C309.154 244.081 308.428 244.264 307.563 244.264C306.39 244.264 305.488 243.956 304.857 243.34C304.226 242.724 303.911 241.903 303.911 240.876C303.911 239.688 304.336 238.808 305.187 238.236C306.038 237.649 307.248 237.356 308.817 237.356H310.775V236.52C310.775 235.875 310.606 235.376 310.269 235.024C309.932 234.672 309.389 234.496 308.641 234.496C307.981 234.496 307.446 234.643 307.035 234.936C306.639 235.215 306.302 235.552 306.023 235.948L304.351 234.452C304.776 233.792 305.341 233.264 306.045 232.868C306.749 232.457 307.68 232.252 308.839 232.252C310.394 232.252 311.574 232.604 312.381 233.308C313.188 234.012 313.591 235.024 313.591 236.344V241.756H314.735V244H313.173ZM308.509 242.218C309.14 242.218 309.675 242.079 310.115 241.8C310.555 241.521 310.775 241.111 310.775 240.568V239.05H308.971C307.504 239.05 306.771 239.519 306.771 240.458V240.832C306.771 241.301 306.918 241.653 307.211 241.888C307.519 242.108 307.952 242.218 308.509 242.218ZM323.482 242.086H323.372C323.167 242.746 322.778 243.274 322.206 243.67C321.634 244.066 320.967 244.264 320.204 244.264C318.752 244.264 317.637 243.743 316.86 242.702C316.097 241.661 315.716 240.172 315.716 238.236C315.716 236.315 316.097 234.841 316.86 233.814C317.637 232.773 318.752 232.252 320.204 232.252C320.967 232.252 321.634 232.45 322.206 232.846C322.778 233.227 323.167 233.748 323.372 234.408H323.482V227.72H326.298V244H323.482V242.086ZM321.106 241.932C321.781 241.932 322.345 241.771 322.8 241.448C323.255 241.125 323.482 240.663 323.482 240.062V236.41C323.482 235.853 323.255 235.405 322.8 235.068C322.345 234.731 321.781 234.562 321.106 234.562C320.373 234.562 319.779 234.811 319.324 235.31C318.884 235.794 318.664 236.447 318.664 237.268V239.248C318.664 240.069 318.884 240.722 319.324 241.206C319.779 241.69 320.373 241.932 321.106 241.932ZM333.425 227.72H336.241V234.43H336.351C336.585 233.814 336.952 233.301 337.451 232.89C337.964 232.465 338.668 232.252 339.563 232.252C340.751 232.252 341.66 232.641 342.291 233.418C342.921 234.195 343.237 235.303 343.237 236.74V244H340.421V237.026C340.421 236.205 340.274 235.589 339.981 235.178C339.687 234.767 339.203 234.562 338.529 234.562C338.235 234.562 337.949 234.606 337.671 234.694C337.407 234.767 337.165 234.885 336.945 235.046C336.739 235.193 336.571 235.383 336.439 235.618C336.307 235.838 336.241 236.102 336.241 236.41V244H333.425V227.72ZM350.252 244.264C349.431 244.264 348.69 244.125 348.03 243.846C347.385 243.567 346.827 243.164 346.358 242.636C345.903 242.108 345.551 241.477 345.302 240.744C345.053 239.996 344.928 239.16 344.928 238.236C344.928 237.312 345.053 236.483 345.302 235.75C345.551 235.017 345.903 234.393 346.358 233.88C346.827 233.352 347.385 232.949 348.03 232.67C348.69 232.391 349.431 232.252 350.252 232.252C351.073 232.252 351.814 232.391 352.474 232.67C353.134 232.949 353.691 233.352 354.146 233.88C354.615 234.393 354.975 235.017 355.224 235.75C355.473 236.483 355.598 237.312 355.598 238.236C355.598 239.16 355.473 239.996 355.224 240.744C354.975 241.477 354.615 242.108 354.146 242.636C353.691 243.164 353.134 243.567 352.474 243.846C351.814 244.125 351.073 244.264 350.252 244.264ZM350.252 241.998C351 241.998 351.587 241.771 352.012 241.316C352.437 240.861 352.65 240.194 352.65 239.314V237.18C352.65 236.315 352.437 235.655 352.012 235.2C351.587 234.745 351 234.518 350.252 234.518C349.519 234.518 348.939 234.745 348.514 235.2C348.089 235.655 347.876 236.315 347.876 237.18V239.314C347.876 240.194 348.089 240.861 348.514 241.316C348.939 241.771 349.519 241.998 350.252 241.998ZM357.435 244V232.516H360.251V234.43H360.361C360.581 233.829 360.933 233.315 361.417 232.89C361.901 232.465 362.575 232.252 363.441 232.252C364.233 232.252 364.915 232.443 365.487 232.824C366.059 233.205 366.484 233.785 366.763 234.562H366.807C367.012 233.917 367.415 233.374 368.017 232.934C368.633 232.479 369.403 232.252 370.327 232.252C371.456 232.252 372.321 232.641 372.923 233.418C373.539 234.195 373.847 235.303 373.847 236.74V244H371.031V237.026C371.031 235.383 370.415 234.562 369.183 234.562C368.904 234.562 368.633 234.606 368.369 234.694C368.119 234.767 367.892 234.885 367.687 235.046C367.496 235.193 367.342 235.383 367.225 235.618C367.107 235.838 367.049 236.102 367.049 236.41V244H364.233V237.026C364.233 235.383 363.617 234.562 362.385 234.562C362.121 234.562 361.857 234.606 361.593 234.694C361.343 234.767 361.116 234.885 360.911 235.046C360.72 235.193 360.559 235.383 360.427 235.618C360.309 235.838 360.251 236.102 360.251 236.41V244H357.435ZM377.712 230.844C377.125 230.844 376.7 230.712 376.436 230.448C376.187 230.184 376.062 229.847 376.062 229.436V228.996C376.062 228.585 376.187 228.248 376.436 227.984C376.7 227.72 377.125 227.588 377.712 227.588C378.284 227.588 378.702 227.72 378.966 227.984C379.23 228.248 379.362 228.585 379.362 228.996V229.436C379.362 229.847 379.23 230.184 378.966 230.448C378.702 230.712 378.284 230.844 377.712 230.844ZM376.304 232.516H379.12V244H376.304V232.516ZM381.724 244V232.516H384.54V234.43H384.65C384.885 233.814 385.251 233.301 385.75 232.89C386.263 232.465 386.967 232.252 387.862 232.252C389.05 232.252 389.959 232.641 390.59 233.418C391.221 234.195 391.536 235.303 391.536 236.74V244H388.72V237.026C388.72 236.205 388.573 235.589 388.28 235.178C387.987 234.767 387.503 234.562 386.828 234.562C386.535 234.562 386.249 234.606 385.97 234.694C385.706 234.767 385.464 234.885 385.244 235.046C385.039 235.193 384.87 235.383 384.738 235.618C384.606 235.838 384.54 236.102 384.54 236.41V244H381.724ZM398.64 244.264C397.789 244.264 397.026 244.125 396.352 243.846C395.692 243.553 395.127 243.149 394.658 242.636C394.203 242.108 393.851 241.477 393.602 240.744C393.352 239.996 393.228 239.16 393.228 238.236C393.228 237.327 393.345 236.505 393.58 235.772C393.829 235.039 394.181 234.415 394.636 233.902C395.09 233.374 395.648 232.971 396.308 232.692C396.968 232.399 397.716 232.252 398.552 232.252C399.446 232.252 400.224 232.406 400.884 232.714C401.544 233.022 402.086 233.44 402.512 233.968C402.937 234.496 403.252 235.112 403.458 235.816C403.678 236.505 403.788 237.246 403.788 238.038V238.962H396.154V239.248C396.154 240.084 396.388 240.759 396.858 241.272C397.327 241.771 398.024 242.02 398.948 242.02C399.652 242.02 400.224 241.873 400.664 241.58C401.118 241.287 401.522 240.913 401.874 240.458L403.392 242.152C402.922 242.812 402.277 243.333 401.456 243.714C400.649 244.081 399.71 244.264 398.64 244.264ZM398.596 234.364C397.848 234.364 397.254 234.613 396.814 235.112C396.374 235.611 396.154 236.256 396.154 237.048V237.224H400.862V237.026C400.862 236.234 400.664 235.596 400.268 235.112C399.886 234.613 399.329 234.364 398.596 234.364ZM405.605 244V232.516H408.421V234.43H408.531C408.751 233.829 409.103 233.315 409.587 232.89C410.071 232.465 410.746 232.252 411.611 232.252C412.403 232.252 413.085 232.443 413.657 232.824C414.229 233.205 414.655 233.785 414.933 234.562H414.977C415.183 233.917 415.586 233.374 416.187 232.934C416.803 232.479 417.573 232.252 418.497 232.252C419.627 232.252 420.492 232.641 421.093 233.418C421.709 234.195 422.017 235.303 422.017 236.74V244H419.201V237.026C419.201 235.383 418.585 234.562 417.353 234.562C417.075 234.562 416.803 234.606 416.539 234.694C416.29 234.767 416.063 234.885 415.857 235.046C415.667 235.193 415.513 235.383 415.395 235.618C415.278 235.838 415.219 236.102 415.219 236.41V244H412.403V237.026C412.403 235.383 411.787 234.562 410.555 234.562C410.291 234.562 410.027 234.606 409.763 234.694C409.514 234.767 409.287 234.885 409.081 235.046C408.891 235.193 408.729 235.383 408.597 235.618C408.48 235.838 408.421 236.102 408.421 236.41V244H405.605ZM429.16 237.136C429.16 238.207 429.058 239.241 428.852 240.238C428.662 241.221 428.39 242.145 428.038 243.01C427.686 243.861 427.276 244.631 426.806 245.32C426.337 246.009 425.831 246.581 425.288 247.036H422.626C423.213 246.508 423.741 245.907 424.21 245.232C424.694 244.557 425.105 243.839 425.442 243.076C425.794 242.299 426.058 241.485 426.234 240.634C426.425 239.769 426.52 238.881 426.52 237.972V236.344C426.52 235.449 426.425 234.577 426.234 233.726C426.058 232.875 425.802 232.069 425.464 231.306C425.127 230.529 424.716 229.803 424.232 229.128C423.763 228.453 423.228 227.837 422.626 227.28H425.288C425.846 227.764 426.359 228.351 426.828 229.04C427.298 229.729 427.701 230.499 428.038 231.35C428.39 232.186 428.662 233.095 428.852 234.078C429.058 235.061 429.16 236.08 429.16 237.136ZM29.498 280.242C28.8967 280.242 28.4493 280.095 28.156 279.802C27.8773 279.494 27.738 279.105 27.738 278.636V278.24C27.738 277.771 27.8773 277.382 28.156 277.074C28.4493 276.766 28.8967 276.612 29.498 276.612C30.114 276.612 30.5613 276.766 30.84 277.074C31.1187 277.382 31.258 277.771 31.258 278.24V278.636C31.258 279.105 31.1187 279.494 30.84 279.802C30.5613 280.095 30.114 280.242 29.498 280.242ZM29.498 271.904C28.8967 271.904 28.4493 271.757 28.156 271.464C27.8773 271.156 27.738 270.767 27.738 270.298V269.902C27.738 269.433 27.8773 269.044 28.156 268.736C28.4493 268.428 28.8967 268.274 29.498 268.274C30.114 268.274 30.5613 268.428 30.84 268.736C31.1187 269.044 31.258 269.433 31.258 269.902V270.298C31.258 270.767 31.1187 271.156 30.84 271.464C30.5613 271.757 30.114 271.904 29.498 271.904ZM42.1191 275.292V279.714H54.0211V281.188H40.3151V275.292H42.1191ZM47.8831 272.212H55.9131V273.686H38.0711V272.212H46.1011V269.374H40.4691V262.642H42.2511V267.922H53.8671V269.374H47.8831V272.212ZM70.0574 268.626V273.334H68.3634V262.29H70.0574V267.152H72.5434V261.916H74.2814V273.994H72.5434V268.626H70.0574ZM67.2854 271.398L66.3394 272.784C64.5354 272.058 63.2594 270.672 62.5994 268.978C61.9174 270.892 60.5754 272.476 58.6834 273.312L57.6934 271.926C60.2894 270.826 61.6974 268.34 61.6974 265.876V264.996H58.0894V263.544H66.9334V264.996H63.4574V265.876C63.4574 268.296 64.8214 270.43 67.2854 271.398ZM67.7694 280.198C70.7614 280.198 72.5874 279.406 72.5874 278.02C72.5874 276.656 70.7614 275.864 67.7694 275.864C64.8214 275.864 62.9734 276.656 62.9734 278.02C62.9734 279.406 64.8214 280.198 67.7694 280.198ZM67.7694 274.456C71.8394 274.456 74.3694 275.754 74.3694 278.02C74.3694 280.286 71.8394 281.606 67.7694 281.606C63.7214 281.606 61.1914 280.286 61.1914 278.02C61.1914 275.754 63.7214 274.456 67.7694 274.456ZM81.6717 275.622C83.2117 275.622 84.2237 273.62 84.2237 270.386C84.2237 267.218 83.2117 265.216 81.6717 265.216C80.0877 265.216 79.0977 267.218 79.0977 270.386C79.0977 273.62 80.0877 275.622 81.6717 275.622ZM88.3377 269.572V262.334H90.0537V280.66H88.3377V271.046H85.8517C85.6977 274.918 84.0917 277.294 81.6717 277.294C79.0977 277.294 77.4477 274.654 77.4477 270.386C77.4477 266.184 79.0977 263.544 81.6717 263.544C84.0477 263.544 85.6317 265.854 85.8517 269.572H88.3377ZM92.2537 261.894H93.9697V281.628H92.2537V261.894ZM103.692 263.588V267.13C103.692 270.716 105.936 274.302 108.796 275.666L107.74 277.096C105.496 275.974 103.692 273.62 102.79 270.848C101.932 273.774 100.106 276.26 97.884 277.448L96.784 276.018C99.644 274.588 101.888 270.782 101.888 267.13V263.588H103.692ZM111.238 261.894H113.042V281.65H111.238V270.056H106.662V268.582H111.238V261.894ZM126.181 275.578C128.051 275.578 129.371 273.51 129.371 270.298C129.371 267.108 128.051 265.04 126.181 265.04C124.289 265.04 122.969 267.108 122.969 270.298C122.969 273.51 124.289 275.578 126.181 275.578ZM135.355 261.894H137.159V281.672H135.355V270.892H131.065C130.889 274.764 128.931 277.184 126.181 277.184C123.299 277.184 121.253 274.5 121.253 270.298C121.253 266.096 123.299 263.412 126.181 263.412C128.843 263.412 130.779 265.722 131.065 269.418H135.355V261.894ZM151.568 267.328H155.11V261.916H156.936V276.282H155.11V268.802H151.568V267.328ZM153.24 271.178L153.416 272.652C151.656 273.048 150.204 273.092 148.048 273.092H147.036V263.544H152.514V264.996H148.818V271.618C150.49 271.596 151.744 271.53 153.24 271.178ZM146.222 271.2L146.376 272.674C144.594 273.092 143.142 273.092 141.888 273.092H141.008V263.544H145.98V264.996H142.79V271.618C143.758 271.574 144.924 271.486 146.222 271.2ZM145.54 279.714H157.42V281.188H143.736V275.072H145.54V279.714ZM171.219 263.61V267.152C171.219 270.628 173.463 274.214 176.235 275.6L175.113 277.03C173.023 275.908 171.241 273.598 170.339 270.892C169.481 273.774 167.655 276.238 165.433 277.426L164.355 275.974C167.193 274.522 169.437 270.738 169.437 267.152V263.61H171.219ZM183.033 269.902V271.398H179.777V281.628H177.973V261.916H179.777V269.902H183.033ZM195.792 270.518L195.968 271.992C192.844 272.52 190.226 272.63 186.596 272.63H185.034V266.976H192.096V264.446H184.99V262.972H193.878V268.362H186.816V271.156C190.27 271.156 192.8 271.046 195.792 270.518ZM188.818 276.062V279.912H197.728V276.062H188.818ZM187.058 281.364V274.632H199.488V281.364H187.058ZM202.414 266.954V268.45H199.488V273.664H197.684V261.916H199.488V266.954H202.414ZM210.156 263.346C213.236 263.346 215.436 265.216 215.436 267.988C215.436 270.738 213.236 272.63 210.156 272.63C207.098 272.63 204.876 270.738 204.876 267.988C204.876 265.216 207.098 263.346 210.156 263.346ZM210.156 264.886C208.132 264.886 206.636 266.14 206.636 267.988C206.636 269.814 208.132 271.09 210.156 271.09C212.202 271.09 213.676 269.814 213.676 267.988C213.676 266.14 212.202 264.886 210.156 264.886ZM218.032 261.894H219.836V281.672H218.032V261.894ZM204.106 277.338L203.886 275.82C207.472 275.82 212.422 275.798 216.734 275.138L216.888 276.48C212.444 277.294 207.67 277.338 204.106 277.338ZM229.631 271.486L228.949 270.056C232.381 269.55 235.791 267.284 235.791 264.688V264.578H229.565V263.126H243.975V264.578H237.793V264.688C237.793 267.284 241.203 269.55 244.679 270.056L243.975 271.486C240.917 270.958 237.991 269.308 236.803 266.976C235.593 269.308 232.689 270.958 229.631 271.486ZM245.713 273.136L245.735 274.61H237.661V281.628H235.857V274.61H227.893V273.136H245.713ZM258.89 271.442L258.032 272.85C255.788 272.124 254.094 270.562 253.258 268.604C252.422 270.848 250.64 272.608 248.286 273.444L247.362 272.014C250.332 270.98 252.312 268.428 252.312 265.59V264.82H247.89V263.368H258.472V264.82H254.116V265.59C254.116 268.164 255.986 270.474 258.89 271.442ZM256.492 280.176C259.396 280.176 261.178 279.362 261.178 277.954C261.178 276.568 259.396 275.754 256.492 275.754C253.544 275.754 251.784 276.568 251.784 277.954C251.784 279.362 253.544 280.176 256.492 280.176ZM256.492 274.324C260.496 274.324 262.982 275.666 262.982 277.954C262.982 280.264 260.496 281.606 256.492 281.606C252.444 281.606 249.98 280.264 249.98 277.954C249.98 275.666 252.444 274.324 256.492 274.324ZM262.762 266.888H265.688V268.406H262.762V273.818H260.958V261.916H262.762V266.888ZM271.494 275.622C273.034 275.622 274.046 273.62 274.046 270.386C274.046 267.218 273.034 265.216 271.494 265.216C269.91 265.216 268.92 267.218 268.92 270.386C268.92 273.62 269.91 275.622 271.494 275.622ZM278.16 269.572V262.334H279.876V280.66H278.16V271.046H275.674C275.52 274.918 273.914 277.294 271.494 277.294C268.92 277.294 267.27 274.654 267.27 270.386C267.27 266.184 268.92 263.544 271.494 263.544C273.87 263.544 275.454 265.854 275.674 269.572H278.16ZM282.076 261.894H283.792V281.628H282.076V261.894ZM293.631 265.766V275.27C296.271 275.248 298.141 275.138 300.297 274.676L300.451 276.172C298.097 276.678 296.095 276.766 293.147 276.766H291.849V264.292H299.197V265.766H293.631ZM306.171 261.894H307.909V281.628H306.171V271.288H303.377V280.638H301.683V262.334H303.377V269.814H306.171V261.894ZM315.608 275.556C317.126 275.556 318.226 274.302 318.226 272.542C318.226 270.826 317.126 269.572 315.608 269.572C314.068 269.572 312.99 270.826 312.99 272.542C312.99 274.302 314.068 275.556 315.608 275.556ZM315.608 268.054C318.05 268.054 319.832 269.902 319.832 272.542C319.832 275.226 318.05 277.052 315.608 277.052C313.166 277.052 311.384 275.226 311.384 272.542C311.384 269.902 313.166 268.054 315.608 268.054ZM316.488 262.466V265.26H320.492V266.734H310.702V265.26H314.706V262.466H316.488ZM325.706 261.872H327.444V281.606H325.706V271.684H323.176V280.66H321.482V262.334H323.176V270.21H325.706V261.872ZM336.733 269.682C336.191 269.682 335.787 269.55 335.523 269.286C335.274 269.022 335.149 268.685 335.149 268.274V267.9C335.149 267.548 335.201 267.181 335.303 266.8C335.421 266.419 335.575 266.045 335.765 265.678C335.956 265.311 336.183 264.959 336.447 264.622C336.711 264.285 337.005 263.984 337.327 263.72H339.021C338.567 264.175 338.185 264.622 337.877 265.062C337.584 265.487 337.364 265.964 337.217 266.492C337.599 266.565 337.877 266.734 338.053 266.998C338.229 267.247 338.317 267.541 338.317 267.878V268.274C338.317 268.685 338.185 269.022 337.921 269.286C337.672 269.55 337.276 269.682 336.733 269.682ZM342.193 271.486L341.511 270.056C344.943 269.55 348.353 267.284 348.353 264.688V264.578H342.127V263.126H356.537V264.578H350.355V264.688C350.355 267.284 353.765 269.55 357.241 270.056L356.537 271.486C353.479 270.958 350.553 269.308 349.365 266.976C348.155 269.308 345.251 270.958 342.193 271.486ZM358.275 273.136L358.297 274.61H350.223V281.628H348.419V274.61H340.455V273.136H358.275ZM371.451 271.442L370.593 272.85C368.349 272.124 366.655 270.562 365.819 268.604C364.983 270.848 363.201 272.608 360.847 273.444L359.923 272.014C362.893 270.98 364.873 268.428 364.873 265.59V264.82H360.451V263.368H371.033V264.82H366.677V265.59C366.677 268.164 368.547 270.474 371.451 271.442ZM369.053 280.176C371.957 280.176 373.739 279.362 373.739 277.954C373.739 276.568 371.957 275.754 369.053 275.754C366.105 275.754 364.345 276.568 364.345 277.954C364.345 279.362 366.105 280.176 369.053 280.176ZM369.053 274.324C373.057 274.324 375.543 275.666 375.543 277.954C375.543 280.264 373.057 281.606 369.053 281.606C365.005 281.606 362.541 280.264 362.541 277.954C362.541 275.666 365.005 274.324 369.053 274.324ZM375.323 266.888H378.249V268.406H375.323V273.818H373.519V261.916H375.323V266.888ZM381.614 263.5C382.171 263.5 382.574 263.632 382.824 263.896C383.073 264.16 383.198 264.505 383.198 264.93V265.304C383.198 265.656 383.146 266.023 383.044 266.404C382.941 266.771 382.794 267.137 382.604 267.504C382.413 267.871 382.186 268.223 381.922 268.56C381.658 268.897 381.364 269.198 381.042 269.462H379.326C379.795 269.007 380.176 268.56 380.47 268.12C380.763 267.68 380.99 267.203 381.152 266.69C380.77 266.617 380.484 266.455 380.294 266.206C380.118 265.957 380.03 265.663 380.03 265.326V264.93C380.03 264.505 380.154 264.16 380.404 263.896C380.653 263.632 381.056 263.5 381.614 263.5ZM399.526 261.894H401.33V281.672H399.526V261.894ZM390.924 263.412C393.85 263.412 395.94 266.096 395.94 270.298C395.94 274.5 393.85 277.184 390.924 277.184C387.998 277.184 385.908 274.5 385.908 270.298C385.908 266.096 387.998 263.412 390.924 263.412ZM390.924 265.04C388.988 265.04 387.624 267.108 387.624 270.298C387.624 273.51 388.988 275.578 390.924 275.578C392.838 275.578 394.202 273.51 394.202 270.298C394.202 267.108 392.838 265.04 390.924 265.04ZM414.557 275.578C416.449 275.578 417.791 273.51 417.791 270.298C417.791 267.108 416.449 265.04 414.557 265.04C412.643 265.04 411.301 267.108 411.301 270.298C411.301 273.51 412.643 275.578 414.557 275.578ZM414.557 263.412C417.461 263.412 419.507 266.096 419.507 270.298C419.507 274.5 417.461 277.184 414.557 277.184C411.653 277.184 409.585 274.5 409.585 270.298C409.585 266.096 411.653 263.412 414.557 263.412ZM427.735 269.77V271.288H424.479V281.628H422.675V261.916H424.479V269.77H427.735ZM431.913 263.808V274.984C434.883 274.984 437.941 274.72 441.219 274.06L441.417 275.6C437.985 276.304 434.883 276.524 431.737 276.524H430.109V263.808H431.913ZM443.243 261.894H445.047V281.606H443.243V261.894ZM451.03 270.804V275.38C454.616 275.38 457.168 275.248 460.116 274.676L460.314 276.172C457.234 276.722 454.594 276.876 450.832 276.876H449.27V269.33H456.354V265.194H449.204V263.72H458.136V270.804H451.03ZM466.892 269.726V271.244H463.658V281.65H461.854V261.872H463.658V269.726H466.892ZM29.058 305.682C28.5153 305.682 28.112 305.55 27.848 305.286C27.5987 305.022 27.474 304.685 27.474 304.274V303.9C27.474 303.548 27.5253 303.181 27.628 302.8C27.7453 302.419 27.8993 302.045 28.09 301.678C28.2807 301.311 28.508 300.959 28.772 300.622C29.036 300.285 29.3293 299.984 29.652 299.72H31.346C30.8913 300.175 30.51 300.622 30.202 301.062C29.9087 301.487 29.6887 301.964 29.542 302.492C29.9233 302.565 30.202 302.734 30.378 302.998C30.554 303.247 30.642 303.541 30.642 303.878V304.274C30.642 304.685 30.51 305.022 30.246 305.286C29.9967 305.55 29.6007 305.682 29.058 305.682ZM39.38 299.61V303.152C39.38 306.628 41.624 310.214 44.396 311.6L43.274 313.03C41.184 311.908 39.402 309.598 38.5 306.892C37.642 309.774 35.816 312.238 33.594 313.426L32.516 311.974C35.354 310.522 37.598 306.738 37.598 303.152V299.61H39.38ZM51.194 305.902V307.398H47.938V317.628H46.134V297.916H47.938V305.902H51.194ZM63.9522 306.518L64.1282 307.992C61.0042 308.52 58.3862 308.63 54.7562 308.63H53.1942V302.976H60.2562V300.446H53.1502V298.972H62.0382V304.362H54.9762V307.156C58.4302 307.156 60.9602 307.046 63.9522 306.518ZM56.9782 312.062V315.912H65.8882V312.062H56.9782ZM55.2182 317.364V310.632H67.6482V317.364H55.2182ZM70.5742 302.954V304.45H67.6482V309.664H65.8442V297.916H67.6482V302.954H70.5742ZM73.9385 299.5C74.4958 299.5 74.8992 299.632 75.1485 299.896C75.3978 300.16 75.5225 300.505 75.5225 300.93V301.304C75.5225 301.656 75.4712 302.023 75.3685 302.404C75.2658 302.771 75.1192 303.137 74.9285 303.504C74.7378 303.871 74.5105 304.223 74.2465 304.56C73.9825 304.897 73.6892 305.198 73.3665 305.462H71.6505C72.1198 305.007 72.5012 304.56 72.7945 304.12C73.0878 303.68 73.3152 303.203 73.4765 302.69C73.0952 302.617 72.8092 302.455 72.6185 302.206C72.4425 301.957 72.3545 301.663 72.3545 301.326V300.93C72.3545 300.505 72.4792 300.16 72.7285 299.896C72.9778 299.632 73.3812 299.5 73.9385 299.5ZM86.4165 299.588C83.1825 299.588 81.3345 300.336 81.3345 301.656C81.3345 302.976 83.1825 303.724 86.4165 303.724C89.6505 303.724 91.4985 302.976 91.4985 301.656C91.4985 300.336 89.6505 299.588 86.4165 299.588ZM86.4165 305.066C82.0825 305.066 79.4865 303.878 79.4865 301.656C79.4865 299.434 82.0825 298.224 86.4165 298.224C90.7505 298.224 93.3465 299.434 93.3465 301.656C93.3465 303.878 90.7505 305.066 86.4165 305.066ZM81.4665 313.998V316H93.6545V317.408H79.7065V312.678H91.2785V310.918H79.6405V309.554H93.0605V313.998H81.4665ZM77.4845 306.408H95.3485V307.86H77.4845V306.408ZM115.396 304.296V300.27H105.672V304.296H115.396ZM117.178 298.818V305.748H103.912V298.818H117.178ZM105.672 311.556V315.714H117.508V317.188H103.868V311.556H105.672ZM101.58 307.992H119.51V309.444H111.59V313.426H109.786V309.444H101.58V307.992ZM126.988 301.678V303.46C126.988 306.892 128.462 310.324 131.19 311.864L130.09 313.184C128.176 312.04 126.812 309.928 126.13 307.42C125.448 310.126 124.018 312.436 122.06 313.668L120.96 312.326C123.71 310.676 125.25 307.09 125.25 303.46V301.678H121.51V300.204H130.508V301.678H126.988ZM132.268 304.978V298.334H133.984V316.594H132.268V306.452H129.012V304.978H132.268ZM136.228 297.872H137.966V317.606H136.228V297.872ZM156.782 307.068L155.814 308.476C153.658 307.662 151.986 306.056 151.106 304.01C150.292 306.32 148.532 308.124 146.2 309.026L145.254 307.596C148.224 306.518 150.16 303.878 150.16 300.886V298.884H151.964V300.842C151.964 303.548 153.922 306.056 156.782 307.068ZM150.006 311.776V315.912H158.85V311.776H150.006ZM148.246 317.364V310.346H160.632V317.364H148.246ZM163.558 302.822V304.318H160.632V309.444H158.828V297.916H160.632V302.822H163.558ZM170.156 311.578C172.048 311.578 173.39 309.51 173.39 306.298C173.39 303.108 172.048 301.04 170.156 301.04C168.242 301.04 166.9 303.108 166.9 306.298C166.9 309.51 168.242 311.578 170.156 311.578ZM170.156 299.412C173.06 299.412 175.106 302.096 175.106 306.298C175.106 310.5 173.06 313.184 170.156 313.184C167.252 313.184 165.184 310.5 165.184 306.298C165.184 302.096 167.252 299.412 170.156 299.412ZM183.334 305.77V307.288H180.078V317.628H178.274V297.916H180.078V305.77H183.334ZM193.086 311.292V315.714H204.988V317.188H191.282V311.292H193.086ZM198.85 308.212H206.88V309.686H189.038V308.212H197.068V305.374H191.436V298.642H193.218V303.922H204.834V305.374H198.85V308.212ZM216.778 307.024V303.636H211.19V307.024H216.778ZM218.538 299.148V308.476H209.408V299.148H211.19V302.228H216.778V299.148H218.538ZM211.08 312.326V310.874H223.906V317.65H222.102V312.326H211.08ZM226.832 303.02V304.516H223.906V309.818H222.102V297.916H223.906V303.02H226.832ZM233.958 311.732C235.762 311.732 237.06 310.456 237.06 308.696C237.06 306.914 235.762 305.638 233.958 305.638C232.176 305.638 230.878 306.914 230.878 308.696C230.878 310.456 232.176 311.732 233.958 311.732ZM233.958 304.142C236.774 304.142 238.776 306.034 238.776 308.696C238.776 311.38 236.774 313.228 233.958 313.228C231.186 313.228 229.184 311.38 229.184 308.696C229.184 306.034 231.186 304.142 233.958 304.142ZM234.838 298.136V301.062H239.7V302.514H228.062V301.062H233.034V298.136H234.838ZM246.608 306.012V307.53H243.374V317.628H241.57V297.916H243.374V306.012H246.608ZM263.568 303.834V305.308H250.148V298.62H251.952V303.834H263.568ZM251.82 311.38V315.67H263.678V317.144H250.016V311.38H251.82ZM247.728 307.948H265.614V309.4H247.728V307.948ZM275.344 304.362C275.344 306.628 277.654 308.102 280.8 308.102C283.946 308.102 286.234 306.628 286.234 304.362C286.234 302.096 283.946 300.622 280.8 300.622C277.654 300.622 275.344 302.096 275.344 304.362ZM281.702 313.602H289.776V315.098H271.846V313.602H279.876V309.488C276.202 309.224 273.606 307.266 273.606 304.362C273.606 301.216 276.62 299.192 280.8 299.192C284.958 299.192 287.95 301.216 287.95 304.362C287.95 307.266 285.376 309.224 281.702 309.488V313.602ZM305.35 302.382V300.116H293.558V298.664H307.176V303.746H295.428V306.166H307.616V307.618H293.624V302.382H305.35ZM309.332 309.664V311.116H304.668V317.65H302.864V311.116H297.892V317.65H296.088V311.116H291.424V309.664H309.332Z" fill="#F4F4F4"/>
<path d="M138.146 40.99C137.545 40.99 137.105 40.8507 136.826 40.572C136.562 40.2787 136.43 39.9193 136.43 39.494V39.076C136.43 38.68 136.489 38.284 136.606 37.888C136.723 37.4773 136.877 37.0813 137.068 36.7C137.273 36.3187 137.515 35.9593 137.794 35.622C138.073 35.2847 138.373 34.984 138.696 34.72H140.588C140.119 35.1747 139.723 35.622 139.4 36.062C139.077 36.502 138.835 36.9933 138.674 37.536C139.099 37.624 139.407 37.8073 139.598 38.086C139.789 38.35 139.884 38.658 139.884 39.01V39.494C139.884 39.9193 139.745 40.2787 139.466 40.572C139.202 40.8507 138.762 40.99 138.146 40.99ZM155.592 32.608H158.496V52.936H155.592V32.608ZM147.606 34.038C150.664 34.038 152.93 36.81 152.93 41.254C152.93 45.72 150.664 48.514 147.606 48.514C144.548 48.514 142.282 45.72 142.282 41.254C142.282 36.81 144.548 34.038 147.606 34.038ZM147.606 36.656C146.11 36.656 145.076 38.262 145.076 41.254C145.076 44.268 146.11 45.874 147.606 45.874C149.102 45.874 150.136 44.268 150.136 41.254C150.136 38.262 149.102 36.656 147.606 36.656ZM173.285 34.192V37.14C173.285 40.792 174.715 44.466 177.971 46.072L176.211 48.36C174.099 47.282 172.669 45.324 171.833 42.904C170.953 45.478 169.435 47.612 167.147 48.734L165.409 46.38C168.819 44.774 170.359 40.902 170.359 37.14V34.192H173.285ZM184.637 40.418V42.838H181.689V52.892H178.785V32.63H181.689V40.418H184.637ZM197.066 41.012L197.308 43.344C194.492 43.872 191.918 43.96 187.87 43.96H186.132V37.646H192.49V35.952H186.11V33.642H195.35V39.802H189.014V41.628C192.314 41.606 194.536 41.474 197.066 41.012ZM191.016 47.81V50.384H198.518V47.81H191.016ZM188.156 52.65V45.522H201.356V52.65H188.156ZM204.04 37.404V39.78H201.356V44.686H198.452V32.63H201.356V37.404H204.04ZM211.496 33.972C214.664 33.972 217.084 36.062 217.084 38.966C217.084 41.892 214.664 43.96 211.496 43.96C208.328 43.96 205.93 41.892 205.93 38.966C205.93 36.062 208.328 33.972 211.496 33.972ZM211.496 36.458C209.934 36.458 208.746 37.382 208.746 38.966C208.746 40.55 209.934 41.474 211.496 41.474C213.058 41.474 214.246 40.55 214.246 38.966C214.246 37.382 213.058 36.458 211.496 36.458ZM218.976 32.608H221.88V52.936H218.976V32.608ZM205.446 48.822L205.072 46.468C208.636 46.468 213.608 46.446 217.876 45.808L218.052 47.898C213.696 48.778 208.944 48.822 205.446 48.822ZM236.713 36.92V37.624C236.713 41.188 238.319 44.928 241.685 46.468L240.013 48.756C237.725 47.634 236.163 45.544 235.283 43.014C234.425 45.742 232.841 47.986 230.509 49.152L228.793 46.864C232.181 45.28 233.787 41.386 233.787 37.624V36.92H229.629V34.566H240.871V36.92H236.713ZM243.203 32.608H246.107V52.936H243.203V42.046H239.639V39.692H243.203V32.608ZM256.292 34.192V37.118C256.292 40.946 257.766 44.664 261.11 46.16L259.394 48.47C257.172 47.392 255.698 45.412 254.862 42.97C253.982 45.566 252.464 47.678 250.198 48.822L248.394 46.49C251.826 44.906 253.366 40.968 253.366 37.118V34.192H256.292ZM262.782 32.608H265.686V52.936H262.782V41.298H258.888V38.966H262.782V32.608ZM272.812 46.05C273.934 46.05 274.572 44.532 274.572 41.408C274.572 38.306 273.934 36.788 272.812 36.788C271.712 36.788 271.052 38.306 271.052 41.408C271.052 44.532 271.712 46.05 272.812 46.05ZM278.774 40.088V32.96H281.48V51.99H278.774V42.442H277.19C276.926 46.402 275.276 48.778 272.812 48.778C270.128 48.778 268.434 46.006 268.434 41.408C268.434 36.832 270.128 34.06 272.812 34.06C275.21 34.06 276.838 36.304 277.168 40.088H278.774ZM282.888 32.608H285.638V52.87H282.888V32.608ZM295.631 36.964V45.522C296.423 45.478 297.215 45.39 298.095 45.236L298.315 47.59C296.709 47.92 295.411 47.942 293.805 47.942H292.771V34.654H297.985V36.964H295.631ZM301.901 36.964V45.522C303.067 45.5 303.859 45.412 304.739 45.214L304.959 47.546C303.617 47.898 302.539 47.942 300.119 47.942H299.041V34.654H304.497V36.964H301.901ZM311.053 40.198V42.596H308.655V52.914H305.751V32.586H308.655V40.198H311.053ZM325.374 38.482V36.304H314.044V33.994H328.234V40.748H316.948V43.014H328.696V45.324H314.066V38.482H325.374ZM311.954 48.228H330.302V50.604H311.954V48.228ZM339.078 41.87V36.524H335.228V41.87H339.078ZM345.568 38.13H341.916V40.176H345.568V38.13ZM341.916 42.486V44.158H332.368V34.258H341.916V35.82H345.568V32.63H348.472V47.392H345.568V42.486H341.916ZM338 50.23H348.912V52.54H335.096V46.006H338V50.23ZM366.012 51L364.78 47.084H359.324L358.114 51H355.166L360.314 35.644H363.922L369.026 51H366.012ZM362.096 38.284H361.986L360.028 44.598H364.076L362.096 38.284ZM369.925 44.136C369.925 43.08 370.02 42.0607 370.211 41.078C370.416 40.0953 370.687 39.186 371.025 38.35C371.377 37.4993 371.787 36.7293 372.257 36.04C372.726 35.3507 373.239 34.764 373.797 34.28H376.459C375.857 34.8373 375.315 35.4533 374.831 36.128C374.361 36.8027 373.958 37.5287 373.621 38.306C373.283 39.0687 373.019 39.8753 372.829 40.726C372.653 41.5767 372.565 42.4493 372.565 43.344V44.972C372.565 45.8813 372.653 46.7687 372.829 47.634C373.019 48.4847 373.283 49.2987 373.621 50.076C373.973 50.8387 374.383 51.5573 374.853 52.232C375.337 52.9067 375.872 53.508 376.459 54.036H373.797C373.254 53.5813 372.748 53.0093 372.279 52.32C371.809 51.6307 371.399 50.8607 371.047 50.01C370.695 49.1447 370.416 48.2207 370.211 47.238C370.02 46.2407 369.925 45.2067 369.925 44.136ZM380.219 42.222V45.984C383.079 45.962 385.411 45.852 388.051 45.456L388.315 47.766C385.235 48.228 382.507 48.316 379.031 48.316H377.315V34.302H386.841V36.656H380.219V39.956H386.555V42.222H380.219ZM395.333 40.308V42.706H392.385V52.914H389.481V32.63H392.385V40.308H395.333ZM407.585 40.33L407.871 42.64C405.385 43.168 403.053 43.278 398.521 43.278H396.805V33.994H405.891V36.304H399.687V40.946C403.361 40.924 405.385 40.792 407.585 40.33ZM405.407 50.582C407.981 50.582 409.411 50.01 409.411 48.778C409.411 47.568 407.981 46.996 405.407 46.996C402.855 46.996 401.425 47.568 401.425 48.778C401.425 50.01 402.855 50.582 405.407 50.582ZM405.407 44.686C409.609 44.686 412.271 46.226 412.271 48.778C412.271 51.374 409.609 52.914 405.407 52.914C401.249 52.914 398.565 51.374 398.565 48.778C398.565 46.226 401.249 44.686 405.407 44.686ZM412.095 37.426H414.735V39.78H412.095V44.334H409.169V32.608H412.095V37.426ZM427.625 34.764L427.603 37.03H415.679V34.764H420.167V32.608H423.093V34.764H427.625ZM419.441 41.65C419.441 42.772 420.343 43.366 421.641 43.366C422.917 43.366 423.841 42.772 423.841 41.65C423.841 40.55 422.917 39.956 421.641 39.956C420.343 39.956 419.441 40.55 419.441 41.65ZM426.613 41.65C426.613 43.982 424.545 45.566 421.641 45.566C418.737 45.566 416.669 43.982 416.669 41.65C416.669 39.362 418.737 37.756 421.641 37.756C424.545 37.756 426.613 39.362 426.613 41.65ZM421.465 46.666V50.23H432.355V52.54H418.561V46.666H421.465ZM431.629 38.812H434.313V41.21H431.629V47.788H428.725V32.63H431.629V38.812ZM444.857 46.336V50.23H456.253V52.54H441.953V46.336H444.857ZM450.445 42.794H458.145V45.104H439.819V42.794H447.541V40.374H442.085V33.202H444.989V38.064H456.077V40.374H450.445V42.794ZM460.101 34.72H469.627C469.627 40.836 467.669 45.896 460.673 49.394L459.133 47.15C464.193 44.598 466.283 41.452 466.679 37.03H460.101V34.72ZM473.411 32.63H476.315V52.892H473.411V42.75H469.495V40.396H473.411V32.63ZM484.322 44.136C484.322 45.2067 484.219 46.2407 484.014 47.238C483.823 48.2207 483.552 49.1447 483.2 50.01C482.848 50.8607 482.437 51.6307 481.968 52.32C481.498 53.0093 480.992 53.5813 480.45 54.036H477.788C478.374 53.508 478.902 52.9067 479.372 52.232C479.856 51.5573 480.266 50.8387 480.604 50.076C480.956 49.2987 481.22 48.4847 481.396 47.634C481.586 46.7687 481.682 45.8813 481.682 44.972V43.344C481.682 42.4493 481.586 41.5767 481.396 40.726C481.22 39.8753 480.963 39.0687 480.626 38.306C480.288 37.5287 479.878 36.8027 479.394 36.128C478.924 35.4533 478.389 34.8373 477.788 34.28H480.45C481.007 34.764 481.52 35.3507 481.99 36.04C482.459 36.7293 482.862 37.4993 483.2 38.35C483.552 39.186 483.823 40.0953 484.014 41.078C484.219 42.0607 484.322 43.08 484.322 44.136ZM491.14 45.874C492.636 45.874 493.67 44.268 493.67 41.254C493.67 38.284 492.636 36.656 491.14 36.656C489.622 36.656 488.61 38.284 488.61 41.254C488.61 44.268 489.622 45.874 491.14 45.874ZM491.14 34.038C494.198 34.038 496.464 36.81 496.464 41.254C496.464 45.72 494.198 48.514 491.14 48.514C488.06 48.514 485.816 45.72 485.816 41.254C485.816 36.81 488.06 34.038 491.14 34.038ZM504.362 39.736H501.568V43.278H504.362V45.654H501.568V52.892H498.664V32.63H501.568V37.36H504.362V39.736ZM149.124 72.898V72.81H137.838V70.5H152.028V72.898C152.028 75.736 152.028 78.508 151.28 82.666L148.398 82.402C149.124 78.53 149.124 75.648 149.124 72.898ZM135.946 83.876H154.272V86.252H135.946V83.876ZM159.088 77.936V81.874C161.838 81.852 164.148 81.72 166.7 81.302L166.964 83.656C163.95 84.14 161.266 84.25 157.9 84.25H156.228V75.67H162.432V72.656H156.184V70.346H165.314V77.936H159.088ZM169.56 68.608H172.486V88.936H169.56V78.266H166.392V75.912H169.56V68.608ZM175.103 84.118H193.451V86.494H175.103V84.118ZM177.039 70.214H191.449V80.224H177.039V70.214ZM188.611 72.502H179.877V77.936H188.611V72.502ZM205.285 84.294H213.029V86.67H194.681V84.294H202.381V81.28H196.793V74.416H208.101V72.238H196.771V69.928H210.961V76.682H199.675V78.948H211.423V81.28H205.285V84.294ZM219.656 71.644H226.762C227.393 71.644 227.958 71.7393 228.456 71.93C228.97 72.1207 229.402 72.3847 229.754 72.722C230.106 73.0593 230.37 73.4773 230.546 73.976C230.737 74.46 230.832 74.9953 230.832 75.582C230.832 76.1687 230.752 76.6673 230.59 77.078C230.444 77.474 230.238 77.804 229.974 78.068C229.725 78.332 229.432 78.53 229.094 78.662C228.772 78.794 228.434 78.8673 228.082 78.882V79.014C228.42 79.014 228.779 79.08 229.16 79.212C229.556 79.344 229.916 79.5567 230.238 79.85C230.576 80.1287 230.854 80.4953 231.074 80.95C231.294 81.39 231.404 81.94 231.404 82.6C231.404 83.216 231.302 83.7953 231.096 84.338C230.906 84.866 230.634 85.328 230.282 85.724C229.93 86.12 229.512 86.4353 229.028 86.67C228.544 86.89 228.016 87 227.444 87H219.656V71.644ZM222.56 84.536H226.608C227.166 84.536 227.598 84.3967 227.906 84.118C228.214 83.8247 228.368 83.4067 228.368 82.864V82.116C228.368 81.5733 228.214 81.1553 227.906 80.862C227.598 80.5687 227.166 80.422 226.608 80.422H222.56V84.536ZM222.56 78.046H226.146C226.674 78.046 227.085 77.9067 227.378 77.628C227.672 77.3347 227.818 76.9313 227.818 76.418V75.736C227.818 75.2227 227.672 74.8267 227.378 74.548C227.085 74.2547 226.674 74.108 226.146 74.108H222.56V78.046ZM232.88 80.136C232.88 79.08 232.976 78.0607 233.166 77.078C233.372 76.0953 233.643 75.186 233.98 74.35C234.332 73.4993 234.743 72.7293 235.212 72.04C235.682 71.3507 236.195 70.764 236.752 70.28H239.414C238.813 70.8373 238.27 71.4533 237.786 72.128C237.317 72.8027 236.914 73.5287 236.576 74.306C236.239 75.0687 235.975 75.8753 235.784 76.726C235.608 77.5767 235.52 78.4493 235.52 79.344V80.972C235.52 81.8813 235.608 82.7687 235.784 83.634C235.975 84.4847 236.239 85.2987 236.576 86.076C236.928 86.8387 237.339 87.5573 237.808 88.232C238.292 88.9067 238.828 89.508 239.414 90.036H236.752C236.21 89.5813 235.704 89.0093 235.234 88.32C234.765 87.6307 234.354 86.8607 234.002 86.01C233.65 85.1447 233.372 84.2207 233.166 83.238C232.976 82.2407 232.88 81.2067 232.88 80.136ZM243.174 78.222V81.984C246.034 81.962 248.366 81.852 251.006 81.456L251.27 83.766C248.19 84.228 245.462 84.316 241.986 84.316H240.27V70.302H249.796V72.656H243.174V75.956H249.51V78.222H243.174ZM258.288 76.308V78.706H255.34V88.914H252.436V68.63H255.34V76.308H258.288ZM270.541 76.33L270.827 78.64C268.341 79.168 266.009 79.278 261.477 79.278H259.761V69.994H268.847V72.304H262.643V76.946C266.317 76.924 268.341 76.792 270.541 76.33ZM268.363 86.582C270.937 86.582 272.367 86.01 272.367 84.778C272.367 83.568 270.937 82.996 268.363 82.996C265.811 82.996 264.381 83.568 264.381 84.778C264.381 86.01 265.811 86.582 268.363 86.582ZM268.363 80.686C272.565 80.686 275.227 82.226 275.227 84.778C275.227 87.374 272.565 88.914 268.363 88.914C264.205 88.914 261.521 87.374 261.521 84.778C261.521 82.226 264.205 80.686 268.363 80.686ZM275.051 73.426H277.691V75.78H275.051V80.334H272.125V68.608H275.051V73.426ZM290.581 70.764L290.559 73.03H278.635V70.764H283.123V68.608H286.049V70.764H290.581ZM282.397 77.65C282.397 78.772 283.299 79.366 284.597 79.366C285.873 79.366 286.797 78.772 286.797 77.65C286.797 76.55 285.873 75.956 284.597 75.956C283.299 75.956 282.397 76.55 282.397 77.65ZM289.569 77.65C289.569 79.982 287.501 81.566 284.597 81.566C281.693 81.566 279.625 79.982 279.625 77.65C279.625 75.362 281.693 73.756 284.597 73.756C287.501 73.756 289.569 75.362 289.569 77.65ZM284.421 82.666V86.23H295.311V88.54H281.517V82.666H284.421ZM294.585 74.812H297.269V77.21H294.585V83.788H291.681V68.63H294.585V74.812ZM316.788 73.36H312.498C311.266 76.374 308.406 78.288 303.962 79.256L302.994 76.924C307.592 76.022 309.66 74.086 310.012 71.71H304.16V69.4H313.202C313.202 70.016 313.158 70.61 313.07 71.182H316.788V68.63H319.692V78.794H316.788V77.276H312.3V75.098H316.788V73.36ZM309.264 86.406H320.11V88.694H306.36V82.974H316.788V81.83H306.338V79.542H319.692V85.13H309.264V86.406ZM327.545 83.172V86.714H338.897V89.024H324.641V83.172H327.545ZM332.957 79.85H340.679V82.16H322.331V79.85H330.053V78.31H324.619V72.656H335.575V71.27H324.575V69.07H338.435V74.702H327.479V76.11H338.831V78.31H332.957V79.85ZM347.277 80.136C347.277 81.2067 347.174 82.2407 346.969 83.238C346.778 84.2207 346.507 85.1447 346.155 86.01C345.803 86.8607 345.392 87.6307 344.923 88.32C344.454 89.0093 343.948 89.5813 343.405 90.036H340.743C341.33 89.508 341.858 88.9067 342.327 88.232C342.811 87.5573 343.222 86.8387 343.559 86.076C343.911 85.2987 344.175 84.4847 344.351 83.634C344.542 82.7687 344.637 81.8813 344.637 80.972V79.344C344.637 78.4493 344.542 77.5767 344.351 76.726C344.175 75.8753 343.918 75.0687 343.581 74.306C343.244 73.5287 342.833 72.8027 342.349 72.128C341.88 71.4533 341.344 70.8373 340.743 70.28H343.405C343.962 70.764 344.476 71.3507 344.945 72.04C345.414 72.7293 345.818 73.4993 346.155 74.35C346.507 75.186 346.778 76.0953 346.969 77.078C347.174 78.0607 347.277 79.08 347.277 80.136ZM362.543 68.608H365.447V88.936H362.543V68.608ZM354.557 70.038C357.615 70.038 359.881 72.81 359.881 77.254C359.881 81.72 357.615 84.514 354.557 84.514C351.499 84.514 349.233 81.72 349.233 77.254C349.233 72.81 351.499 70.038 354.557 70.038ZM354.557 72.656C353.061 72.656 352.027 74.262 352.027 77.254C352.027 80.268 353.061 81.874 354.557 81.874C356.053 81.874 357.087 80.268 357.087 77.254C357.087 74.262 356.053 72.656 354.557 72.656ZM371.935 78.178V81.852C374.839 81.83 377.237 81.676 379.877 81.214L380.141 83.568C377.105 84.118 374.311 84.25 370.791 84.25H369.075V75.89H375.499V72.656H369.053V70.346H378.359V78.178H371.935ZM387.049 76.264V78.662H384.145V88.936H381.241V68.608H384.145V76.264H387.049ZM403.592 82.006L400.688 81.676C401.458 77.848 401.502 75.032 401.502 72.678H389.688V70.368H404.406V72.304C404.406 74.834 404.406 77.694 403.592 82.006ZM397.212 84.118H406.166V86.45H387.84V84.118H394.308V77.144H397.212V84.118ZM423.859 70.126V72.304H411.913V70.126H416.423V68.476H419.349V70.126H423.859ZM415.697 76.11C415.697 76.946 416.555 77.364 417.897 77.364C419.239 77.364 420.097 76.946 420.097 76.11C420.097 75.252 419.239 74.834 417.897 74.834C416.555 74.834 415.697 75.252 415.697 76.11ZM422.869 76.11C422.869 78.134 420.911 79.41 417.897 79.41C414.905 79.41 412.925 78.134 412.925 76.11C412.925 74.064 414.905 72.788 417.897 72.788C420.911 72.788 422.869 74.064 422.869 76.11ZM417.413 85.504V86.626H428.479V88.738H414.531V83.524H425.025V82.468H414.509V80.356H427.885V85.504H417.413ZM427.885 72.92H430.569V75.296H427.885V79.564H424.981V68.608H427.885V72.92ZM453.719 75.824L452.619 78.156C449.077 77.628 446.547 75.978 445.249 73.8C443.951 75.978 441.399 77.628 437.857 78.156L436.757 75.824C441.377 75.186 443.687 72.568 443.687 70.192V69.224H446.789V70.192C446.789 72.546 449.121 75.186 453.719 75.824ZM454.379 79.652V82.006H446.613V88.914H443.709V82.006H436.075V79.652H454.379ZM477 68.63V80.092H474.074V68.63H477ZM465.956 72.084C464.416 72.084 463.294 73.008 463.294 74.526C463.294 76.044 464.416 76.968 465.956 76.968C467.496 76.968 468.64 76.044 468.64 74.526C468.64 73.008 467.496 72.084 465.956 72.084ZM465.956 79.388C462.832 79.388 460.456 77.364 460.456 74.526C460.456 71.688 462.832 69.664 465.956 69.664C469.124 69.664 471.478 71.688 471.478 74.526C471.478 77.364 469.124 79.388 465.956 79.388ZM474.954 80.928V81.61C474.954 83.7 476.054 85.658 478.738 86.472L477.33 88.584C475.416 87.946 474.162 86.736 473.48 85.196C472.82 86.736 471.654 88.078 469.806 88.804C467.958 88.122 466.792 86.802 466.132 85.262C465.428 86.736 464.196 87.924 462.37 88.584L460.94 86.472C463.624 85.57 464.724 83.568 464.724 81.61V80.928H467.54V81.61C467.54 83.216 468.178 84.888 469.784 86.01C471.412 84.8 472.094 83.106 472.094 81.61V80.928H474.954ZM485.292 81.874C486.788 81.874 487.778 80.268 487.778 77.254C487.778 74.262 486.788 72.656 485.292 72.656C483.818 72.656 482.828 74.262 482.828 77.254C482.828 80.268 483.818 81.874 485.292 81.874ZM493.85 68.608H496.754V88.936H493.85V78.266H490.484C490.176 82.138 488.108 84.514 485.292 84.514C482.278 84.514 480.056 81.72 480.056 77.254C480.056 72.81 482.278 70.038 485.292 70.038C488.02 70.038 490.066 72.26 490.462 75.912H493.85V68.608ZM501.659 70.5C502.26 70.5 502.693 70.6467 502.957 70.94C503.235 71.2187 503.375 71.5707 503.375 71.996V72.414C503.375 72.81 503.316 73.2133 503.199 73.624C503.096 74.02 502.942 74.4087 502.737 74.79C502.531 75.1713 502.289 75.5307 502.011 75.868C501.732 76.2053 501.431 76.506 501.109 76.77H499.217C499.686 76.33 500.082 75.89 500.405 75.45C500.727 74.9953 500.969 74.4967 501.131 73.954C500.705 73.8807 500.397 73.712 500.207 73.448C500.016 73.1693 499.921 72.8467 499.921 72.48V71.996C499.921 71.5707 500.053 71.2187 500.317 70.94C500.595 70.6467 501.043 70.5 501.659 70.5ZM138.146 112.99C137.545 112.99 137.105 112.851 136.826 112.572C136.562 112.279 136.43 111.919 136.43 111.494V111.076C136.43 110.68 136.489 110.284 136.606 109.888C136.723 109.477 136.877 109.081 137.068 108.7C137.273 108.319 137.515 107.959 137.794 107.622C138.073 107.285 138.373 106.984 138.696 106.72H140.588C140.119 107.175 139.723 107.622 139.4 108.062C139.077 108.502 138.835 108.993 138.674 109.536C139.099 109.624 139.407 109.807 139.598 110.086C139.789 110.35 139.884 110.658 139.884 111.01V111.494C139.884 111.919 139.745 112.279 139.466 112.572C139.202 112.851 138.762 112.99 138.146 112.99ZM154.888 108.898V108.81H143.602V106.5H157.792V108.898C157.792 111.736 157.792 114.508 157.044 118.666L154.162 118.402C154.888 114.53 154.888 111.648 154.888 108.898ZM141.71 119.876H160.036V122.252H141.71V119.876ZM173.285 106.192V109.14C173.285 112.792 174.715 116.466 177.971 118.072L176.211 120.36C174.099 119.282 172.669 117.324 171.833 114.904C170.953 117.478 169.435 119.612 167.147 120.734L165.409 118.38C168.819 116.774 170.359 112.902 170.359 109.14V106.192H173.285ZM184.637 112.418V114.838H181.689V124.892H178.785V104.63H181.689V112.418H184.637ZM197.066 113.012L197.308 115.344C194.492 115.872 191.918 115.96 187.87 115.96H186.132V109.646H192.49V107.952H186.11V105.642H195.35V111.802H189.014V113.628C192.314 113.606 194.536 113.474 197.066 113.012ZM191.016 119.81V122.384H198.518V119.81H191.016ZM188.156 124.65V117.522H201.356V124.65H188.156ZM204.04 109.404V111.78H201.356V116.686H198.452V104.63H201.356V109.404H204.04ZM212.559 109.844C212.559 111.296 213.615 112.176 215.111 112.176C216.607 112.176 217.707 111.296 217.707 109.844C217.707 108.392 216.607 107.512 215.111 107.512C213.615 107.512 212.559 108.392 212.559 109.844ZM223.559 110.988H220.325C219.775 113.1 217.729 114.508 215.111 114.508C212.075 114.508 209.787 112.572 209.787 109.844C209.787 107.116 212.075 105.158 215.111 105.158C217.707 105.158 219.775 106.566 220.325 108.678H223.559V104.63H226.463V114.772H223.559V110.988ZM215.991 122.406H227.035V124.65H213.131V119.04H223.581V117.852H213.087V115.63H226.463V121.13H215.991V122.406ZM232.577 108.832V117.676H236.537V108.832H232.577ZM229.717 119.964V106.544H239.397V119.964H229.717ZM247.911 112.264V114.662H244.963V124.892H242.059V104.652H244.963V112.264H247.911ZM264.087 109.866H267.255V104.63H270.159V119.414H267.255V112.22H264.087V109.866ZM265.429 114.53L264.021 116.796C261.799 116.07 260.303 114.618 259.423 112.792C258.521 114.794 256.937 116.4 254.583 117.192L253.109 114.882C256.431 113.804 257.883 111.142 257.883 108.59V108.304H253.901V105.994H264.791V108.304H260.853V108.568C260.853 110.966 262.239 113.452 265.429 114.53ZM259.709 122.23H270.621V124.54H256.805V118.182H259.709V122.23ZM277.351 118.05C278.473 118.05 279.111 116.532 279.111 113.408C279.111 110.306 278.473 108.788 277.351 108.788C276.251 108.788 275.591 110.306 275.591 113.408C275.591 116.532 276.251 118.05 277.351 118.05ZM283.313 112.088V104.96H286.019V123.99H283.313V114.442H281.729C281.465 118.402 279.815 120.778 277.351 120.778C274.667 120.778 272.973 118.006 272.973 113.408C272.973 108.832 274.667 106.06 277.351 106.06C279.749 106.06 281.377 108.304 281.707 112.088H283.313ZM287.427 104.608H290.177V124.87H287.427V104.608ZM305.099 114.75V118.38C306.727 118.292 308.333 118.16 309.873 117.984L310.027 120.118C305.605 120.844 301.051 120.888 297.267 120.866L296.959 118.512C298.565 118.512 300.347 118.512 302.173 118.468V114.75H298.367V106.368H301.271V112.44H308.971V114.75H305.099ZM310.995 104.608H313.899V124.87H310.995V104.608ZM329.627 109.36V107.446H321.597V109.36H329.627ZM332.465 105.224V111.582H318.759V105.224H332.465ZM334.797 114.948H327.075V116.224H332.575V121.416H321.487V122.56H333.103V124.738H318.605V119.414H329.715V118.358H318.583V116.224H324.171V114.948H316.493V112.66H334.797V114.948ZM358.276 111.824L357.176 114.156C353.634 113.628 351.104 111.978 349.806 109.8C348.508 111.978 345.956 113.628 342.414 114.156L341.314 111.824C345.934 111.186 348.244 108.568 348.244 106.192V105.224H351.346V106.192C351.346 108.546 353.678 111.186 358.276 111.824ZM358.936 115.652V118.006H351.17V124.914H348.266V118.006H340.632V115.652H358.936ZM377.855 111.824L376.755 114.156C373.213 113.628 370.683 111.978 369.385 109.8C368.087 111.978 365.535 113.628 361.993 114.156L360.893 111.824C365.513 111.186 367.823 108.568 367.823 106.192V105.224H370.925V106.192C370.925 108.546 373.257 111.186 377.855 111.824ZM378.515 115.652V118.006H370.749V124.914H367.845V118.006H360.211V115.652H378.515ZM398.342 117.522V115.432H395.702V113.122H398.342V111.384H395.746V109.074H398.342V104.63H401.246V117.522H398.342ZM395.482 106.456V108.744H384.372V106.456H388.618V104.476H391.522V106.456H395.482ZM388.024 113.232C388.024 114.288 388.838 114.86 390.07 114.86C391.28 114.86 392.116 114.288 392.116 113.232C392.116 112.176 391.28 111.604 390.07 111.604C388.838 111.604 388.024 112.176 388.024 113.232ZM394.8 113.232C394.8 115.476 392.842 117.016 390.07 117.016C387.276 117.016 385.318 115.476 385.318 113.232C385.318 110.988 387.276 109.448 390.07 109.448C392.842 109.448 394.8 110.988 394.8 113.232ZM394.404 122.692C396.89 122.692 398.276 122.274 398.276 121.35C398.276 120.404 396.89 120.008 394.404 120.008C391.896 120.008 390.532 120.404 390.532 121.35C390.532 122.274 391.896 122.692 394.404 122.692ZM394.404 117.786C398.672 117.786 401.334 119.106 401.334 121.35C401.334 123.572 398.672 124.892 394.404 124.892C390.136 124.892 387.452 123.572 387.452 121.35C387.452 119.106 390.136 117.786 394.404 117.786ZM410.397 105.972C413.565 105.972 415.985 108.062 415.985 110.966C415.985 113.892 413.565 115.96 410.397 115.96C407.229 115.96 404.831 113.892 404.831 110.966C404.831 108.062 407.229 105.972 410.397 105.972ZM410.397 108.458C408.835 108.458 407.647 109.382 407.647 110.966C407.647 112.55 408.835 113.474 410.397 113.474C411.959 113.474 413.147 112.55 413.147 110.966C413.147 109.382 411.959 108.458 410.397 108.458ZM417.877 104.608H420.781V124.936H417.877V104.608ZM404.347 120.822L403.973 118.468C407.537 118.468 412.509 118.446 416.777 117.808L416.953 119.898C412.597 120.778 407.845 120.822 404.347 120.822ZM434.067 120.294H441.811V122.67H423.463V120.294H431.163V117.28H425.575V110.416H436.883V108.238H425.553V105.928H439.743V112.682H428.457V114.948H440.205V117.28H434.067V120.294ZM465.906 114.42V116.752H458.118V124.892H455.17V116.752H447.602V114.42H460.362C460.868 111.846 460.912 109.866 460.912 108.128H449.692V105.796H463.75V107.622C463.75 109.514 463.75 111.582 463.244 114.42H465.906ZM484.473 110.724L483.417 112.99C480.007 112.506 477.543 111.098 476.267 109.074C474.991 111.076 472.527 112.506 469.139 112.99L468.061 110.724C472.615 110.174 474.793 107.864 474.793 105.576V104.982H477.763V105.576C477.763 107.93 479.897 110.174 484.473 110.724ZM469.183 120.47V118.182H483.263V124.914H480.359V120.47H469.183ZM477.741 114.442H485.485V116.752H467.159V114.442H474.837V111.824H477.741V114.442ZM500.047 112.22V116.906H497.341V105.048H500.047V109.888H501.499V104.63H504.271V116.994H501.499V112.22H500.047ZM496.527 113.958L496.703 115.96C493.579 116.598 489.487 116.642 486.957 116.664L486.671 114.42C487.749 114.42 489.157 114.42 490.653 114.376V112.638H487.771V105.796H496.131V108.084H490.565V110.328H496.153V112.638H493.359V114.244C494.481 114.178 495.559 114.09 496.527 113.958ZM501.587 117.764V118.248C501.587 120.14 502.687 121.922 505.371 122.626L504.029 124.738C502.093 124.166 500.817 123.022 500.091 121.548C499.453 123 498.287 124.254 496.439 124.892C494.569 124.254 493.425 123.044 492.765 121.614C492.039 123.022 490.785 124.166 488.871 124.738L487.529 122.626C490.191 121.878 491.335 120.052 491.335 118.248V117.764H494.151V118.248C494.151 119.7 494.833 121.262 496.417 122.23C498.023 121.218 498.705 119.656 498.705 118.248V117.764H501.587ZM518.085 112.704L516.611 114.882C514.543 114.266 513.113 113.034 512.255 111.472C511.353 113.364 509.747 114.882 507.437 115.608L505.963 113.408C509.043 112.418 510.539 110.152 510.693 108.084H506.733V105.774H517.535V108.084H513.707C513.861 110.02 515.225 111.912 518.085 112.704ZM510.913 116.598V122.164C511.991 122.098 513.047 121.922 514.059 121.592L514.455 123.88C512.783 124.452 511.199 124.54 509.219 124.54H508.097V116.598H510.913ZM518.811 122.978C519.603 122.978 520.153 122.714 520.153 122.12C520.153 121.526 519.603 121.262 518.811 121.262C518.041 121.262 517.469 121.526 517.469 122.12C517.469 122.714 518.041 122.978 518.811 122.978ZM518.811 119.326C521.121 119.326 522.727 120.404 522.727 122.12C522.727 123.836 521.121 124.914 518.811 124.914C516.501 124.914 514.895 123.836 514.895 122.12C514.895 120.404 516.501 119.326 518.811 119.326ZM520.263 115.366V116.818H523.893V118.886H513.751V116.818H517.447V115.366H520.263ZM522.265 108.898H524.949V111.274H522.265V114.75H519.361V104.63H522.265V108.898ZM531.327 117.874C532.823 117.874 533.857 116.268 533.857 113.254C533.857 110.262 532.823 108.656 531.327 108.656C529.809 108.656 528.797 110.262 528.797 113.254C528.797 116.268 529.809 117.874 531.327 117.874ZM531.327 106.038C534.385 106.038 536.651 108.81 536.651 113.254C536.651 117.72 534.385 120.514 531.327 120.514C528.247 120.514 526.003 117.72 526.003 113.254C526.003 108.81 528.247 106.038 531.327 106.038ZM544.703 112.264V114.662H541.755V124.892H538.851V104.63H541.755V112.264H544.703ZM547.804 123.242C547.202 123.242 546.755 123.095 546.462 122.802C546.183 122.494 546.044 122.105 546.044 121.636V121.24C546.044 120.771 546.183 120.382 546.462 120.074C546.755 119.766 547.202 119.612 547.804 119.612C548.42 119.612 548.867 119.766 549.146 120.074C549.424 120.382 549.564 120.771 549.564 121.24V121.636C549.564 122.105 549.424 122.494 549.146 122.802C548.867 123.095 548.42 123.242 547.804 123.242ZM142.26 155.48V158.384H150.048V155.48H142.26ZM139.4 160.65V153.192H152.886V160.65H139.4ZM143.536 149.21V146.702H139.686V149.21H143.536ZM149.982 140.63H152.886V152.356H149.982V147.736H146.374V151.498H136.804V141.796H139.686V144.48H143.536V141.774H146.374V145.404H149.982V140.63ZM157.064 152.048L155.7 149.804C158.868 148.968 160.386 146.878 160.562 144.722H156.492V142.368H167.646V144.722H163.576C163.752 146.724 165.226 148.704 168.328 149.518L167.008 151.762C164.654 151.146 163.048 149.804 162.102 148.088C161.178 149.936 159.528 151.366 157.064 152.048ZM163.554 151.08V154.49C165.204 154.38 166.854 154.248 168.416 154.006L168.592 156.118C164.236 156.976 159.462 157.02 155.986 157.042L155.612 154.688C157.086 154.688 158.824 154.688 160.65 154.622V151.08H163.554ZM169.516 140.608H172.42V160.958H169.516V140.608ZM182.539 144.964V146.086C182.539 149.166 184.145 152.752 187.467 154.292L185.861 156.58C183.617 155.546 182.033 153.522 181.131 151.124C180.229 153.764 178.601 155.986 176.291 157.086L174.663 154.776C177.985 153.236 179.635 149.43 179.635 146.086V144.964H175.433V142.566H186.565V144.964H182.539ZM193.913 148.352V150.75H190.965V160.892H188.061V140.63H190.965V148.352H193.913ZM195.605 142.698H205.153C205.153 148.77 202.843 153.984 196.111 157.394L194.483 155.172C199.191 152.752 201.699 149.54 202.227 145.052H195.605V142.698ZM213.381 148.352V150.75H210.543V160.848H207.639V140.608H210.543V148.352H213.381ZM224.65 154.38C226.014 154.38 227.004 153.456 227.004 151.894C227.004 150.376 226.014 149.43 224.65 149.43C223.286 149.43 222.274 150.376 222.274 151.916C222.274 153.456 223.286 154.38 224.65 154.38ZM224.65 147.076C227.576 147.076 229.754 149.078 229.754 151.894C229.754 154.754 227.576 156.756 224.65 156.756C221.702 156.756 219.502 154.754 219.502 151.894C219.502 149.078 221.702 147.076 224.65 147.076ZM226.08 140.982V143.622H230.48V145.932H218.688V143.622H223.176V140.982H226.08ZM237.608 148.55V150.948H234.704V160.892H231.8V140.63H234.704V148.55H237.608ZM254.701 146.108V148.418H240.643V141.356H243.547V146.108H254.701ZM243.371 154.424V158.142H254.811V160.452H240.445V154.424H243.371ZM238.377 150.486H256.725V152.818H238.377V150.486ZM269.886 147.714V143.842H265.926V147.714H269.886ZM272.746 141.576V150.002H263.088V141.576H272.746ZM267.972 157.086V158.406H279.038V160.65H265.09V154.996H275.584V153.786H265.068V151.542H278.444V157.086H267.972ZM278.444 144.524H281.106V146.9H278.444V150.75H275.54V140.63H278.444V144.524ZM291.224 143.05C288.298 143.05 286.912 143.468 286.912 144.37C286.912 145.316 288.298 145.712 291.224 145.712C294.172 145.712 295.558 145.316 295.558 144.37C295.558 143.468 294.172 143.05 291.224 143.05ZM291.224 147.824C286.604 147.824 283.898 146.614 283.898 144.37C283.898 142.148 286.604 140.916 291.224 140.916C295.866 140.916 298.572 142.148 298.572 144.37C298.572 146.614 295.866 147.824 291.224 147.824ZM287.066 157.416V158.56H298.682V160.738H284.184V155.414H295.294V154.336H284.162V152.202H298.154V157.416H287.066ZM282.072 148.792H300.376V151.058H282.072V148.792ZM323.02 140.63V152.026H320.094V140.63H323.02ZM314.198 148.66V144.128H310.062V148.66H314.198ZM317.036 141.84V150.948H307.202V141.84H317.036ZM312.482 158.362H323.46V160.65H309.6V153.016H323.108V155.326H312.482V158.362ZM342.092 146.108V148.418H328.034V141.356H330.938V146.108H342.092ZM330.762 154.424V158.142H342.202V160.452H327.836V154.424H330.762ZM325.768 150.486H344.116V152.818H325.768V150.486ZM360.424 146.526H363.922V140.63H366.826V155.436H363.922V148.88H360.424V146.526ZM351.184 142.148H360.6C360.6 147.626 357.212 151.63 351.316 153.5L350.128 151.168C354.352 149.848 357.014 147.428 357.498 144.458H351.184V142.148ZM356.486 158.23H367.332V160.54H353.582V153.984H356.486V158.23ZM379.437 153.874C380.933 153.874 381.967 152.268 381.967 149.254C381.967 146.262 380.933 144.656 379.437 144.656C377.919 144.656 376.907 146.262 376.907 149.254C376.907 152.268 377.919 153.874 379.437 153.874ZM379.437 142.038C382.495 142.038 384.761 144.81 384.761 149.254C384.761 153.72 382.495 156.514 379.437 156.514C376.357 156.514 374.113 153.72 374.113 149.254C374.113 144.81 376.357 142.038 379.437 142.038ZM392.813 148.264V150.662H389.865V160.892H386.961V140.63H389.865V148.264H392.813ZM397.519 142.544V153.412C400.181 153.346 403.063 153.126 406.033 152.532L406.341 154.952C402.887 155.678 399.521 155.898 396.441 155.898H394.637V142.544H397.519ZM407.595 140.608H410.499V160.87H407.595V140.608ZM420.992 144.964V146.086C420.992 149.386 422.62 152.884 426.008 154.292L424.424 156.58C422.07 155.568 420.464 153.588 419.562 151.146C418.66 153.786 417.032 156.008 414.656 157.086L413.006 154.776C416.394 153.258 418.044 149.54 418.044 146.086V144.964H413.82V142.566H425.172V144.964H420.992ZM427.042 140.63H429.946V160.892H427.042V140.63ZM435.4 154.028V150.596C436.573 150.552 437.461 150.332 438.062 149.936C438.678 149.525 438.986 148.895 438.986 148.044V147.736C438.986 147.12 438.803 146.643 438.436 146.306C438.069 145.969 437.578 145.8 436.962 145.8C436.302 145.8 435.767 145.998 435.356 146.394C434.96 146.775 434.681 147.274 434.52 147.89L432.166 146.922C432.298 146.467 432.489 146.027 432.738 145.602C432.987 145.177 433.31 144.803 433.706 144.48C434.102 144.143 434.579 143.879 435.136 143.688C435.693 143.483 436.339 143.38 437.072 143.38C437.82 143.38 438.495 143.49 439.096 143.71C439.697 143.915 440.211 144.216 440.636 144.612C441.061 144.993 441.391 145.455 441.626 145.998C441.861 146.541 441.978 147.142 441.978 147.802C441.978 148.447 441.868 149.027 441.648 149.54C441.443 150.039 441.157 150.479 440.79 150.86C440.423 151.227 440.005 151.527 439.536 151.762C439.067 151.982 438.583 152.136 438.084 152.224V154.028H435.4ZM436.764 159.264C436.148 159.264 435.701 159.117 435.422 158.824C435.143 158.531 435.004 158.157 435.004 157.702V157.262C435.004 156.807 435.143 156.433 435.422 156.14C435.701 155.847 436.148 155.7 436.764 155.7C437.395 155.7 437.849 155.847 438.128 156.14C438.407 156.433 438.546 156.807 438.546 157.262V157.702C438.546 158.157 438.407 158.531 438.128 158.824C437.849 159.117 437.395 159.264 436.764 159.264ZM445.603 142.5C446.205 142.5 446.637 142.647 446.901 142.94C447.18 143.219 447.319 143.571 447.319 143.996V144.414C447.319 144.81 447.261 145.213 447.143 145.624C447.041 146.02 446.887 146.409 446.681 146.79C446.476 147.171 446.234 147.531 445.955 147.868C445.677 148.205 445.376 148.506 445.053 148.77H443.161C443.631 148.33 444.027 147.89 444.349 147.45C444.672 146.995 444.914 146.497 445.075 145.954C444.65 145.881 444.342 145.712 444.151 145.448C443.961 145.169 443.865 144.847 443.865 144.48V143.996C443.865 143.571 443.997 143.219 444.261 142.94C444.54 142.647 444.987 142.5 445.603 142.5Z" fill="white"/>
<rect x="135" y="341" width="558" height="160" rx="4" fill="#4857F6"/>
<path d="M169.39 389.264C168.29 389.264 167.366 389.081 166.618 388.714C165.87 388.333 165.21 387.812 164.638 387.152L166.354 385.48C166.779 385.964 167.241 386.345 167.74 386.624C168.253 386.903 168.84 387.042 169.5 387.042C170.175 387.042 170.659 386.925 170.952 386.69C171.26 386.455 171.414 386.133 171.414 385.722C171.414 385.385 171.304 385.121 171.084 384.93C170.879 384.725 170.519 384.585 170.006 384.512L168.862 384.358C167.615 384.197 166.662 383.845 166.002 383.302C165.357 382.745 165.034 381.938 165.034 380.882C165.034 380.325 165.137 379.826 165.342 379.386C165.547 378.931 165.841 378.55 166.222 378.242C166.603 377.919 167.058 377.677 167.586 377.516C168.129 377.34 168.73 377.252 169.39 377.252C169.947 377.252 170.439 377.296 170.864 377.384C171.304 377.457 171.7 377.575 172.052 377.736C172.404 377.883 172.727 378.073 173.02 378.308C173.313 378.528 173.599 378.777 173.878 379.056L172.228 380.706C171.891 380.354 171.487 380.061 171.018 379.826C170.549 379.591 170.035 379.474 169.478 379.474C168.862 379.474 168.415 379.584 168.136 379.804C167.872 380.024 167.74 380.31 167.74 380.662C167.74 381.043 167.85 381.337 168.07 381.542C168.305 381.733 168.693 381.872 169.236 381.96L170.402 382.114C172.881 382.466 174.12 383.595 174.12 385.502C174.12 386.059 174.003 386.573 173.768 387.042C173.548 387.497 173.233 387.893 172.822 388.23C172.411 388.553 171.913 388.809 171.326 389C170.754 389.176 170.109 389.264 169.39 389.264ZM180.501 389.264C179.679 389.264 178.939 389.125 178.279 388.846C177.633 388.567 177.076 388.164 176.607 387.636C176.152 387.108 175.8 386.477 175.551 385.744C175.301 384.996 175.177 384.16 175.177 383.236C175.177 382.312 175.301 381.483 175.551 380.75C175.8 380.017 176.152 379.393 176.607 378.88C177.076 378.352 177.633 377.949 178.279 377.67C178.939 377.391 179.679 377.252 180.501 377.252C181.322 377.252 182.063 377.391 182.723 377.67C183.383 377.949 183.94 378.352 184.395 378.88C184.864 379.393 185.223 380.017 185.473 380.75C185.722 381.483 185.847 382.312 185.847 383.236C185.847 384.16 185.722 384.996 185.473 385.744C185.223 386.477 184.864 387.108 184.395 387.636C183.94 388.164 183.383 388.567 182.723 388.846C182.063 389.125 181.322 389.264 180.501 389.264ZM180.501 386.998C181.249 386.998 181.835 386.771 182.261 386.316C182.686 385.861 182.899 385.194 182.899 384.314V382.18C182.899 381.315 182.686 380.655 182.261 380.2C181.835 379.745 181.249 379.518 180.501 379.518C179.767 379.518 179.188 379.745 178.763 380.2C178.337 380.655 178.125 381.315 178.125 382.18V384.314C178.125 385.194 178.337 385.861 178.763 386.316C179.188 386.771 179.767 386.998 180.501 386.998ZM190.499 389C189.531 389 188.82 388.758 188.365 388.274C187.91 387.79 187.683 387.108 187.683 386.228V372.72H190.499V386.756H192.017V389H190.499ZM200.354 387.086H200.244C200.141 387.379 200.002 387.658 199.826 387.922C199.664 388.171 199.452 388.399 199.188 388.604C198.938 388.809 198.63 388.971 198.264 389.088C197.912 389.205 197.501 389.264 197.032 389.264C195.844 389.264 194.934 388.875 194.304 388.098C193.673 387.321 193.358 386.213 193.358 384.776V377.516H196.174V384.49C196.174 385.282 196.328 385.891 196.636 386.316C196.944 386.727 197.435 386.932 198.11 386.932C198.388 386.932 198.66 386.895 198.924 386.822C199.202 386.749 199.444 386.639 199.65 386.492C199.855 386.331 200.024 386.14 200.156 385.92C200.288 385.685 200.354 385.414 200.354 385.106V377.516H203.17V389H200.354V387.086ZM209.349 389C208.381 389 207.641 388.751 207.127 388.252C206.629 387.739 206.379 387.013 206.379 386.074V379.76H204.685V377.516H205.565C205.991 377.516 206.277 377.421 206.423 377.23C206.585 377.025 206.665 376.724 206.665 376.328V374.37H209.195V377.516H211.549V379.76H209.195V386.756H211.373V389H209.349ZM214.74 375.844C214.153 375.844 213.728 375.712 213.464 375.448C213.215 375.184 213.09 374.847 213.09 374.436V373.996C213.09 373.585 213.215 373.248 213.464 372.984C213.728 372.72 214.153 372.588 214.74 372.588C215.312 372.588 215.73 372.72 215.994 372.984C216.258 373.248 216.39 373.585 216.39 373.996V374.436C216.39 374.847 216.258 375.184 215.994 375.448C215.73 375.712 215.312 375.844 214.74 375.844ZM213.332 377.516H216.148V389H213.332V377.516ZM223.306 389.264C222.485 389.264 221.744 389.125 221.084 388.846C220.439 388.567 219.881 388.164 219.412 387.636C218.957 387.108 218.605 386.477 218.356 385.744C218.107 384.996 217.982 384.16 217.982 383.236C217.982 382.312 218.107 381.483 218.356 380.75C218.605 380.017 218.957 379.393 219.412 378.88C219.881 378.352 220.439 377.949 221.084 377.67C221.744 377.391 222.485 377.252 223.306 377.252C224.127 377.252 224.868 377.391 225.528 377.67C226.188 377.949 226.745 378.352 227.2 378.88C227.669 379.393 228.029 380.017 228.278 380.75C228.527 381.483 228.652 382.312 228.652 383.236C228.652 384.16 228.527 384.996 228.278 385.744C228.029 386.477 227.669 387.108 227.2 387.636C226.745 388.164 226.188 388.567 225.528 388.846C224.868 389.125 224.127 389.264 223.306 389.264ZM223.306 386.998C224.054 386.998 224.641 386.771 225.066 386.316C225.491 385.861 225.704 385.194 225.704 384.314V382.18C225.704 381.315 225.491 380.655 225.066 380.2C224.641 379.745 224.054 379.518 223.306 379.518C222.573 379.518 221.993 379.745 221.568 380.2C221.143 380.655 220.93 381.315 220.93 382.18V384.314C220.93 385.194 221.143 385.861 221.568 386.316C221.993 386.771 222.573 386.998 223.306 386.998ZM230.488 389V377.516H233.304V379.43H233.414C233.649 378.814 234.016 378.301 234.514 377.89C235.028 377.465 235.732 377.252 236.626 377.252C237.814 377.252 238.724 377.641 239.354 378.418C239.985 379.195 240.3 380.303 240.3 381.74V389H237.484V382.026C237.484 381.205 237.338 380.589 237.044 380.178C236.751 379.767 236.267 379.562 235.592 379.562C235.299 379.562 235.013 379.606 234.734 379.694C234.47 379.767 234.228 379.885 234.008 380.046C233.803 380.193 233.634 380.383 233.502 380.618C233.37 380.838 233.304 381.102 233.304 381.41V389H230.488ZM167.41 425.264C166.867 425.264 166.464 425.125 166.2 424.846C165.936 424.553 165.804 424.193 165.804 423.768V423.438C165.804 423.013 165.936 422.661 166.2 422.382C166.464 422.089 166.867 421.942 167.41 421.942C167.953 421.942 168.356 422.089 168.62 422.382C168.884 422.661 169.016 423.013 169.016 423.438V423.768C169.016 424.193 168.884 424.553 168.62 424.846C168.356 425.125 167.953 425.264 167.41 425.264ZM167.41 416.618C166.867 416.618 166.464 416.479 166.2 416.2C165.936 415.907 165.804 415.547 165.804 415.122V414.792C165.804 414.367 165.936 414.015 166.2 413.736C166.464 413.443 166.867 413.296 167.41 413.296C167.953 413.296 168.356 413.443 168.62 413.736C168.884 414.015 169.016 414.367 169.016 414.792V415.122C169.016 415.547 168.884 415.907 168.62 416.2C168.356 416.479 167.953 416.618 167.41 416.618ZM183.974 414.484V409.446H178.43V414.484H183.974ZM185.734 408.016V415.914H176.67V408.016H185.734ZM180.454 422.712V424.912H191.894V426.364H178.694V421.37H189.386V419.302H178.628V417.872H191.168V422.712H180.454ZM191.168 411.14H194.094V412.636H191.168V416.948H189.364V406.916H191.168V411.14ZM201.22 420.732C203.024 420.732 204.322 419.456 204.322 417.696C204.322 415.914 203.024 414.638 201.22 414.638C199.438 414.638 198.14 415.914 198.14 417.696C198.14 419.456 199.438 420.732 201.22 420.732ZM201.22 413.142C204.036 413.142 206.038 415.034 206.038 417.696C206.038 420.38 204.036 422.228 201.22 422.228C198.448 422.228 196.446 420.38 196.446 417.696C196.446 415.034 198.448 413.142 201.22 413.142ZM202.1 407.136V410.062H206.962V411.514H195.324V410.062H200.296V407.136H202.1ZM213.87 415.012V416.53H210.636V426.628H208.832V406.916H210.636V415.012H213.87ZM230.83 412.834V414.308H217.41V407.62H219.214V412.834H230.83ZM219.082 420.38V424.67H230.94V426.144H217.278V420.38H219.082ZM214.99 416.948H232.876V418.4H214.99V416.948ZM245.752 408.61V412.152C245.752 415.628 247.996 419.214 250.768 420.6L249.646 422.03C247.556 420.908 245.774 418.598 244.872 415.892C244.014 418.774 242.188 421.238 239.966 422.426L238.888 420.974C241.726 419.522 243.97 415.738 243.97 412.152V408.61H245.752ZM257.566 414.902V416.398H254.31V426.628H252.506V406.916H254.31V414.902H257.566ZM270.324 415.518L270.5 416.992C267.376 417.52 264.758 417.63 261.128 417.63H259.566V411.976H266.628V409.446H259.522V407.972H268.41V413.362H261.348V416.156C264.802 416.156 267.332 416.046 270.324 415.518ZM263.35 421.062V424.912H272.26V421.062H263.35ZM261.59 426.364V419.632H274.02V426.364H261.59ZM276.946 411.954V413.45H274.02V418.664H272.216V406.916H274.02V411.954H276.946ZM292.63 406.894H294.434V426.672H292.63V406.894ZM284.028 408.412C286.954 408.412 289.044 411.096 289.044 415.298C289.044 419.5 286.954 422.184 284.028 422.184C281.102 422.184 279.012 419.5 279.012 415.298C279.012 411.096 281.102 408.412 284.028 408.412ZM284.028 410.04C282.092 410.04 280.728 412.108 280.728 415.298C280.728 418.51 282.092 420.578 284.028 420.578C285.942 420.578 287.306 418.51 287.306 415.298C287.306 412.108 285.942 410.04 284.028 410.04ZM312.832 416.244H316.748V406.894H318.552V418.51H316.748V417.454H312.832V416.244ZM311.6 411.47V408.808H305.968V411.47H311.6ZM313.36 407.51V412.79H304.208V407.51H313.36ZM307.706 418.554V415.628C305.88 415.672 304.12 415.694 302.558 415.694L302.338 414.33C306.144 414.33 310.962 414.308 315.186 413.824L315.296 415.012C313.382 415.276 311.402 415.43 309.51 415.54V418.554H307.706ZM307.156 425.066H319.234V426.408H305.374V422.14H316.792V420.534H305.33V419.236H318.552V423.372H307.156V425.066ZM338.951 413.802V418.818H337.257V407.202H338.951V412.328H341.437V406.916H343.175V419.126H341.437V413.802H338.951ZM336.443 409.16L336.421 410.59H326.411V409.16H330.547V407.004H332.329V409.16H336.443ZM331.449 412.922C329.887 412.922 328.853 413.736 328.853 414.968C328.853 416.2 329.887 416.992 331.449 416.992C332.989 416.992 334.045 416.2 334.045 414.968C334.045 413.736 332.989 412.922 331.449 412.922ZM331.449 418.334C328.963 418.334 327.225 416.992 327.225 414.968C327.225 412.922 328.963 411.58 331.449 411.58C333.935 411.58 335.651 412.922 335.651 414.968C335.651 416.992 333.935 418.334 331.449 418.334ZM340.755 419.698V420.38C340.755 422.316 342.229 424.252 344.715 425.044L343.879 426.386C341.899 425.704 340.513 424.406 339.853 422.8C339.259 424.362 338.071 425.814 336.245 426.562C334.353 425.858 333.187 424.472 332.593 422.866C331.867 424.406 330.503 425.704 328.611 426.386L327.775 425.044C330.239 424.208 331.735 422.184 331.735 420.38V419.698H333.473V420.38C333.473 422.052 334.375 423.812 336.201 424.824C338.049 423.724 338.973 421.832 338.973 420.38V419.698H340.755ZM361.918 412.834V414.308H348.498V407.62H350.302V412.834H361.918ZM350.17 420.38V424.67H362.028V426.144H348.366V420.38H350.17ZM346.078 416.948H363.964V418.4H346.078V416.948ZM372.718 410.414V412.922C372.718 416.266 375.094 419.676 377.998 420.908L376.986 422.36C374.698 421.304 372.762 419.038 371.816 416.332C370.914 419.214 368.978 421.7 366.734 422.844L365.678 421.392C368.516 420.05 370.914 416.332 370.914 412.922V410.414H366.338V408.918H377.36V410.414H372.718ZM380.022 406.916H381.826V426.628H380.022V406.916ZM386.312 409.006H395.332C395.332 414.616 392.758 419.698 386.378 422.888L385.388 421.48C390.426 418.95 393.132 415.166 393.55 410.502H386.312V409.006ZM403.604 414.902V416.398H400.436V426.628H398.632V406.894H400.436V414.902H403.604ZM411.024 414.946L410.386 413.516C413.84 413.12 416.986 411.426 417.14 409.248H411.024V407.796H425.61V409.248H419.472C419.626 411.426 422.772 413.12 426.226 413.516L425.588 414.946C422.354 414.55 419.406 413.098 418.306 410.92C417.228 413.098 414.258 414.55 411.024 414.946ZM423.212 423.13C423.212 421.81 421.364 421.062 418.284 421.062C415.182 421.062 413.356 421.81 413.356 423.13C413.356 424.45 415.182 425.22 418.284 425.22C421.364 425.22 423.212 424.45 423.212 423.13ZM427.216 417.586H419.208V419.698C422.882 419.874 425.038 421.084 425.038 423.13C425.038 425.374 422.508 426.606 418.306 426.606C414.082 426.606 411.53 425.374 411.53 423.13C411.53 421.084 413.708 419.874 417.382 419.698V417.586H409.374V416.134H427.216V417.586ZM435.134 417.96V422.602H440.634V417.96C439.798 418.158 438.852 418.268 437.862 418.268C436.894 418.268 435.948 418.158 435.134 417.96ZM437.862 409.556C434.694 409.556 432.428 411.008 432.428 413.208C432.428 415.408 434.694 416.86 437.862 416.86C441.03 416.86 443.318 415.408 443.318 413.208C443.318 411.008 441.03 409.556 437.862 409.556ZM442.438 422.602H446.86V424.098H428.93V422.602H433.33V417.278C431.68 416.42 430.69 414.99 430.69 413.208C430.69 410.128 433.682 408.148 437.862 408.148C442.064 408.148 445.034 410.128 445.034 413.208C445.034 414.99 444.066 416.398 442.438 417.256V422.602ZM460.234 409.314V410.766H448.596V409.314H453.502V406.894H455.306V409.314H460.234ZM451.412 415.518C451.412 416.904 452.622 417.784 454.404 417.784C456.186 417.784 457.418 416.904 457.418 415.518C457.418 414.154 456.186 413.274 454.404 413.274C452.622 413.274 451.412 414.154 451.412 415.518ZM459.134 415.518C459.134 417.74 457.198 419.192 454.404 419.192C451.61 419.192 449.696 417.74 449.696 415.518C449.696 413.318 451.61 411.866 454.404 411.866C457.198 411.866 459.134 413.318 459.134 415.518ZM453.37 420.534V424.714H464.722V426.188H451.566V420.534H453.37ZM463.842 413.406H466.746V414.924H463.842V421.7H462.038V406.894H463.842V413.406ZM487.08 420.248V413.934H482.834V412.46H487.08V406.916H488.906V420.248H487.08ZM473.924 408.456H482.768C482.768 413.538 479.402 417.168 473.77 418.994L472.978 417.564C477.642 416.09 480.48 413.406 480.832 409.93H473.924V408.456ZM483.428 418.532V419.434C483.428 422.272 486.486 424.45 489.962 425.11L489.236 426.518C486.332 425.946 483.692 424.384 482.526 422.118C481.36 424.428 478.698 425.99 475.75 426.562L475.024 425.132C478.544 424.516 481.624 422.316 481.624 419.434V418.532H483.428ZM506.57 406.894H508.374V426.672H506.57V406.894ZM497.968 408.412C500.894 408.412 502.984 411.096 502.984 415.298C502.984 419.5 500.894 422.184 497.968 422.184C495.042 422.184 492.952 419.5 492.952 415.298C492.952 411.096 495.042 408.412 497.968 408.412ZM497.968 410.04C496.032 410.04 494.668 412.108 494.668 415.298C494.668 418.51 496.032 420.578 497.968 420.578C499.882 420.578 501.246 418.51 501.246 415.298C501.246 412.108 499.882 410.04 497.968 410.04ZM521.602 420.578C523.494 420.578 524.836 418.51 524.836 415.298C524.836 412.108 523.494 410.04 521.602 410.04C519.688 410.04 518.346 412.108 518.346 415.298C518.346 418.51 519.688 420.578 521.602 420.578ZM521.602 408.412C524.506 408.412 526.552 411.096 526.552 415.298C526.552 419.5 524.506 422.184 521.602 422.184C518.698 422.184 516.63 419.5 516.63 415.298C516.63 411.096 518.698 408.412 521.602 408.412ZM534.78 414.77V416.288H531.524V426.628H529.72V406.916H531.524V414.77H534.78ZM538.958 408.808V419.984C541.928 419.984 544.986 419.72 548.264 419.06L548.462 420.6C545.03 421.304 541.928 421.524 538.782 421.524H537.154V408.808H538.958ZM550.288 406.894H552.092V426.606H550.288V406.894ZM558.074 415.804V420.38C561.66 420.38 564.212 420.248 567.16 419.676L567.358 421.172C564.278 421.722 561.638 421.876 557.876 421.876H556.314V414.33H563.398V410.194H556.248V408.72H565.18V415.804H558.074ZM573.936 414.726V416.244H570.702V426.65H568.898V406.872H570.702V414.726H573.936ZM577.102 421.942C577.645 421.942 578.048 422.081 578.312 422.36C578.576 422.639 578.708 422.998 578.708 423.438V423.79C578.708 424.509 578.51 425.257 578.114 426.034C577.733 426.826 577.212 427.493 576.552 428.036H574.77C575.24 427.567 575.628 427.112 575.936 426.672C576.244 426.232 576.479 425.741 576.64 425.198C576.259 425.125 575.973 424.963 575.782 424.714C575.592 424.45 575.496 424.142 575.496 423.79V423.438C575.496 422.998 575.628 422.639 575.892 422.36C576.156 422.081 576.56 421.942 577.102 421.942ZM170.446 456.578C172.316 456.578 173.636 454.51 173.636 451.298C173.636 448.108 172.316 446.04 170.446 446.04C168.554 446.04 167.234 448.108 167.234 451.298C167.234 454.51 168.554 456.578 170.446 456.578ZM179.62 442.894H181.424V462.672H179.62V451.892H175.33C175.154 455.764 173.196 458.184 170.446 458.184C167.564 458.184 165.518 455.5 165.518 451.298C165.518 447.096 167.564 444.412 170.446 444.412C173.108 444.412 175.044 446.722 175.33 450.418H179.62V442.894ZM195.832 448.328H199.374V442.916H201.2V457.282H199.374V449.802H195.832V448.328ZM197.504 452.178L197.68 453.652C195.92 454.048 194.468 454.092 192.312 454.092H191.3V444.544H196.778V445.996H193.082V452.618C194.754 452.596 196.008 452.53 197.504 452.178ZM190.486 452.2L190.64 453.674C188.858 454.092 187.406 454.092 186.152 454.092H185.272V444.544H190.244V445.996H187.054V452.618C188.022 452.574 189.188 452.486 190.486 452.2ZM189.804 460.714H201.684V462.188H188V456.072H189.804V460.714ZM212.998 455.654V460.692H225.032V462.166H211.216V455.654H212.998ZM223.954 451.98H226.77V453.432H208.84V451.98H222.128C222.678 449.252 222.678 447.316 222.678 445.6V445.534H211.128V444.06H224.46V445.6C224.46 447.294 224.46 449.296 223.954 451.98ZM229.298 445.028H238.296C238.296 450.638 235.964 455.632 229.408 458.866L228.418 457.458C233.72 454.862 236.162 451.1 236.492 446.48H229.298V445.028ZM242.872 442.916H244.676V462.628H242.872V452.288H238.252V450.814H242.872V442.916ZM257.852 458.712H265.926V460.186H247.996V458.712H256.026V454.994H250.24V448.9H261.944V445.82H250.196V444.346H263.704V450.352H252.022V453.542H264.166V454.994H257.852V458.712ZM280.254 450.484V445.446H274.71V450.484H280.254ZM282.014 444.016V451.914H272.95V444.016H282.014ZM276.734 458.712V460.912H288.174V462.364H274.974V457.37H285.666V455.302H274.908V453.872H287.448V458.712H276.734ZM287.448 447.14H290.374V448.636H287.448V452.948H285.644V442.916H287.448V447.14ZM297.5 456.732C299.304 456.732 300.602 455.456 300.602 453.696C300.602 451.914 299.304 450.638 297.5 450.638C295.718 450.638 294.42 451.914 294.42 453.696C294.42 455.456 295.718 456.732 297.5 456.732ZM297.5 449.142C300.316 449.142 302.318 451.034 302.318 453.696C302.318 456.38 300.316 458.228 297.5 458.228C294.728 458.228 292.726 456.38 292.726 453.696C292.726 451.034 294.728 449.142 297.5 449.142ZM298.38 443.136V446.062H303.242V447.514H291.604V446.062H296.576V443.136H298.38ZM310.15 451.012V452.53H306.916V462.628H305.112V442.916H306.916V451.012H310.15ZM327.11 448.834V450.308H313.69V443.62H315.494V448.834H327.11ZM315.362 456.38V460.67H327.22V462.144H313.558V456.38H315.362ZM311.27 452.948H329.156V454.4H311.27V452.948ZM337.911 446.414V448.922C337.911 452.266 340.287 455.676 343.191 456.908L342.179 458.36C339.891 457.304 337.955 455.038 337.009 452.332C336.107 455.214 334.171 457.7 331.927 458.844L330.871 457.392C333.709 456.05 336.107 452.332 336.107 448.922V446.414H331.531V444.918H342.553V446.414H337.911ZM345.215 442.916H347.019V462.628H345.215V442.916ZM351.505 445.006H360.525C360.525 450.616 357.951 455.698 351.571 458.888L350.581 457.48C355.619 454.95 358.325 451.166 358.743 446.502H351.505V445.006ZM368.797 450.902V452.398H365.629V462.628H363.825V442.894H365.629V450.902H368.797ZM376.216 450.946L375.578 449.516C379.032 449.12 382.178 447.426 382.332 445.248H376.216V443.796H390.802V445.248H384.664C384.818 447.426 387.964 449.12 391.418 449.516L390.78 450.946C387.546 450.55 384.598 449.098 383.498 446.92C382.42 449.098 379.45 450.55 376.216 450.946ZM388.404 459.13C388.404 457.81 386.556 457.062 383.476 457.062C380.374 457.062 378.548 457.81 378.548 459.13C378.548 460.45 380.374 461.22 383.476 461.22C386.556 461.22 388.404 460.45 388.404 459.13ZM392.408 453.586H384.4V455.698C388.074 455.874 390.23 457.084 390.23 459.13C390.23 461.374 387.7 462.606 383.498 462.606C379.274 462.606 376.722 461.374 376.722 459.13C376.722 457.084 378.9 455.874 382.574 455.698V453.586H374.566V452.134H392.408V453.586ZM400.327 453.96V458.602H405.827V453.96C404.991 454.158 404.045 454.268 403.055 454.268C402.087 454.268 401.141 454.158 400.327 453.96ZM403.055 445.556C399.887 445.556 397.621 447.008 397.621 449.208C397.621 451.408 399.887 452.86 403.055 452.86C406.223 452.86 408.511 451.408 408.511 449.208C408.511 447.008 406.223 445.556 403.055 445.556ZM407.631 458.602H412.053V460.098H394.123V458.602H398.523V453.278C396.873 452.42 395.883 450.99 395.883 449.208C395.883 446.128 398.875 444.148 403.055 444.148C407.257 444.148 410.227 446.128 410.227 449.208C410.227 450.99 409.259 452.398 407.631 453.256V458.602ZM425.427 445.314V446.766H413.789V445.314H418.695V442.894H420.499V445.314H425.427ZM416.605 451.518C416.605 452.904 417.815 453.784 419.597 453.784C421.379 453.784 422.611 452.904 422.611 451.518C422.611 450.154 421.379 449.274 419.597 449.274C417.815 449.274 416.605 450.154 416.605 451.518ZM424.327 451.518C424.327 453.74 422.391 455.192 419.597 455.192C416.803 455.192 414.889 453.74 414.889 451.518C414.889 449.318 416.803 447.866 419.597 447.866C422.391 447.866 424.327 449.318 424.327 451.518ZM418.563 456.534V460.714H429.915V462.188H416.759V456.534H418.563ZM429.035 449.406H431.939V450.924H429.035V457.7H427.231V442.894H429.035V449.406ZM438.699 445.028H447.697C447.697 450.638 445.365 455.632 438.809 458.866L437.819 457.458C443.121 454.862 445.563 451.1 445.893 446.48H438.699V445.028ZM452.273 442.916H454.077V462.628H452.273V452.288H447.653V450.814H452.273V442.916ZM462.677 456.578C464.569 456.578 465.911 454.488 465.911 451.276C465.911 448.108 464.569 446.04 462.677 446.04C460.763 446.04 459.421 448.108 459.421 451.276C459.421 454.488 460.763 456.578 462.677 456.578ZM462.677 444.412C465.581 444.412 467.627 447.096 467.627 451.276C467.627 455.5 465.581 458.184 462.677 458.184C459.773 458.184 457.705 455.5 457.705 451.276C457.705 447.096 459.773 444.412 462.677 444.412ZM475.745 449.362H472.599V453.74H475.745V455.236H472.599V462.628H470.795V442.916H472.599V447.866H475.745V449.362Z" fill="white"/>
</svg>
