<svg width="678" height="538" viewBox="0 0 678 538" fill="none" xmlns="http://www.w3.org/2000/svg">
<rect x="91" width="587" height="254" rx="4" fill="black"/>
<rect y="225" width="556" height="174" rx="4" fill="#FF4C91"/>
<path d="M38.286 267.4H42.092V255.63H44.996V270.986H42.092V269.38H38.286V267.4ZM34.392 258.424C33.028 258.424 32.082 258.952 32.082 259.942C32.082 260.932 33.028 261.438 34.392 261.438C35.734 261.438 36.68 260.932 36.68 259.942C36.68 258.952 35.734 258.424 34.392 258.424ZM34.392 263.55C31.422 263.55 29.354 262.098 29.354 259.942C29.354 257.786 31.422 256.312 34.392 256.312C37.34 256.312 39.43 257.786 39.43 259.942C39.43 262.098 37.34 263.55 34.392 263.55ZM33.314 273.23H45.436V275.54H30.41V269.512H33.226V266.806C31.444 266.894 29.75 266.916 28.232 266.916L27.858 264.606C31.554 264.584 36.482 264.54 40.75 263.99L40.948 266.058C39.364 266.322 37.736 266.498 36.108 266.63V270.458H33.314V273.23ZM58.3263 261.548H61.5603V255.63H64.4643V270.634H61.5603V263.88H58.3263V261.548ZM59.6903 265.992L58.3043 268.258C56.0383 267.598 54.4763 266.234 53.5523 264.496C52.6723 266.388 51.0883 267.862 48.8003 268.588L47.3923 266.322C50.6483 265.288 52.0563 262.824 52.0563 260.382V260.294H48.0963V258.028H52.0563V255.784H54.9603V258.028H58.9643V260.294H54.9603V260.382C54.9603 262.692 56.3903 265.002 59.6903 265.992ZM54.0143 273.23H64.9263V275.54H51.1103V269.38H54.0143V273.23ZM76.2106 273.736C78.9386 273.736 80.3026 273.296 80.3026 272.284C80.3026 271.272 78.9386 270.854 76.2106 270.854C73.4826 270.854 72.1406 271.272 72.1406 272.284C72.1406 273.296 73.4826 273.736 76.2106 273.736ZM76.2106 268.676C80.6106 268.676 83.2506 269.974 83.2506 272.284C83.2506 274.616 80.6106 275.892 76.2106 275.892C71.8326 275.892 69.1926 274.616 69.1926 272.284C69.1926 269.974 71.8326 268.676 76.2106 268.676ZM72.3166 260.096V261.614H80.2146V260.096H72.3166ZM77.6846 265.42H85.4286V267.708H67.1026V265.42H74.7806V263.88H69.4346V256.202H72.3166V257.918H80.2146V256.202H83.0966V263.88H77.6846V265.42ZM93.1488 265.794V269.248C94.3368 269.16 95.5248 269.072 96.5588 268.896L96.7348 271.008C93.4788 271.69 89.3428 271.778 86.7688 271.778L86.4608 269.424C87.5388 269.424 88.9248 269.424 90.3988 269.38V265.794H93.1488ZM93.2148 257.214V258.842C93.2148 260.954 94.2928 263 96.9108 263.99L95.4808 266.19C93.6988 265.53 92.5328 264.298 91.8288 262.802C91.1028 264.496 89.8048 265.838 87.8468 266.564L86.3948 264.364C89.2108 263.33 90.3328 261.13 90.3328 258.842V257.214H93.2148ZM101.421 255.608H104.171V275.87H101.421V265.97H99.9248V274.99H97.2188V255.982H99.9248V263.616H101.421V255.608ZM112.771 256.972C115.939 256.972 118.359 259.062 118.359 261.966C118.359 264.892 115.939 266.96 112.771 266.96C109.603 266.96 107.205 264.892 107.205 261.966C107.205 259.062 109.603 256.972 112.771 256.972ZM112.771 259.458C111.209 259.458 110.021 260.382 110.021 261.966C110.021 263.55 111.209 264.474 112.771 264.474C114.333 264.474 115.521 263.55 115.521 261.966C115.521 260.382 114.333 259.458 112.771 259.458ZM120.251 255.608H123.155V275.936H120.251V255.608ZM106.721 271.822L106.347 269.468C109.911 269.468 114.883 269.446 119.151 268.808L119.327 270.898C114.971 271.778 110.219 271.822 106.721 271.822ZM134.843 262.252C134.843 264.32 136.757 265.53 139.529 265.53C142.323 265.53 144.237 264.32 144.237 262.252C144.237 260.184 142.323 258.974 139.529 258.974C136.757 258.974 134.843 260.184 134.843 262.252ZM140.981 271.184H148.725V273.538H130.377V271.184H138.077V267.752C134.513 267.312 131.983 265.266 131.983 262.252C131.983 258.864 135.217 256.664 139.529 256.664C143.863 256.664 147.097 258.864 147.097 262.252C147.097 265.266 144.567 267.334 140.981 267.752V271.184ZM163.243 260.03V258.556H152.067V256.246H166.191V262.164H155.059V263.77H166.675V266.08H152.089V260.03H163.243ZM168.303 267.51V269.82H164.101V275.914H161.175V269.82H157.105V275.914H154.179V269.82H149.955V267.51H168.303ZM169.687 267.136C169.687 266.08 169.783 265.061 169.973 264.078C170.179 263.095 170.45 262.186 170.787 261.35C171.139 260.499 171.55 259.729 172.019 259.04C172.489 258.351 173.002 257.764 173.559 257.28H176.221C175.62 257.837 175.077 258.453 174.593 259.128C174.124 259.803 173.721 260.529 173.383 261.306C173.046 262.069 172.782 262.875 172.591 263.726C172.415 264.577 172.327 265.449 172.327 266.344V267.972C172.327 268.881 172.415 269.769 172.591 270.634C172.782 271.485 173.046 272.299 173.383 273.076C173.735 273.839 174.146 274.557 174.615 275.232C175.099 275.907 175.635 276.508 176.221 277.036H173.559C173.017 276.581 172.511 276.009 172.041 275.32C171.572 274.631 171.161 273.861 170.809 273.01C170.457 272.145 170.179 271.221 169.973 270.238C169.783 269.241 169.687 268.207 169.687 267.136ZM176.967 262.516H179.783V264.408H179.871C180.077 263.748 180.465 263.227 181.037 262.846C181.609 262.45 182.277 262.252 183.039 262.252C184.506 262.252 185.621 262.773 186.383 263.814C187.161 264.841 187.549 266.315 187.549 268.236C187.549 270.172 187.161 271.661 186.383 272.702C185.621 273.743 184.506 274.264 183.039 274.264C182.277 274.264 181.609 274.066 181.037 273.67C180.48 273.274 180.091 272.746 179.871 272.086H179.783V278.4H176.967V262.516ZM182.137 271.932C182.871 271.932 183.465 271.69 183.919 271.206C184.374 270.722 184.601 270.069 184.601 269.248V267.268C184.601 266.447 184.374 265.794 183.919 265.31C183.465 264.811 182.871 264.562 182.137 264.562C181.463 264.562 180.898 264.731 180.443 265.068C180.003 265.405 179.783 265.853 179.783 266.41V270.062C179.783 270.663 180.003 271.125 180.443 271.448C180.898 271.771 181.463 271.932 182.137 271.932ZM194.053 274.264C193.231 274.264 192.491 274.125 191.831 273.846C191.185 273.567 190.628 273.164 190.159 272.636C189.704 272.108 189.352 271.477 189.103 270.744C188.853 269.996 188.729 269.16 188.729 268.236C188.729 267.312 188.853 266.483 189.103 265.75C189.352 265.017 189.704 264.393 190.159 263.88C190.628 263.352 191.185 262.949 191.831 262.67C192.491 262.391 193.231 262.252 194.053 262.252C194.874 262.252 195.615 262.391 196.275 262.67C196.935 262.949 197.492 263.352 197.947 263.88C198.416 264.393 198.775 265.017 199.025 265.75C199.274 266.483 199.399 267.312 199.399 268.236C199.399 269.16 199.274 269.996 199.025 270.744C198.775 271.477 198.416 272.108 197.947 272.636C197.492 273.164 196.935 273.567 196.275 273.846C195.615 274.125 194.874 274.264 194.053 274.264ZM194.053 271.998C194.801 271.998 195.387 271.771 195.813 271.316C196.238 270.861 196.451 270.194 196.451 269.314V267.18C196.451 266.315 196.238 265.655 195.813 265.2C195.387 264.745 194.801 264.518 194.053 264.518C193.319 264.518 192.74 264.745 192.315 265.2C191.889 265.655 191.677 266.315 191.677 267.18V269.314C191.677 270.194 191.889 270.861 192.315 271.316C192.74 271.771 193.319 271.998 194.053 271.998ZM202.643 260.844C202.057 260.844 201.631 260.712 201.367 260.448C201.118 260.184 200.993 259.847 200.993 259.436V258.996C200.993 258.585 201.118 258.248 201.367 257.984C201.631 257.72 202.057 257.588 202.643 257.588C203.215 257.588 203.633 257.72 203.897 257.984C204.161 258.248 204.293 258.585 204.293 258.996V259.436C204.293 259.847 204.161 260.184 203.897 260.448C203.633 260.712 203.215 260.844 202.643 260.844ZM201.235 262.516H204.051V274H201.235V262.516ZM210.417 274.264C209.317 274.264 208.393 274.081 207.645 273.714C206.897 273.333 206.237 272.812 205.665 272.152L207.381 270.48C207.807 270.964 208.269 271.345 208.767 271.624C209.281 271.903 209.867 272.042 210.527 272.042C211.202 272.042 211.686 271.925 211.979 271.69C212.287 271.455 212.441 271.133 212.441 270.722C212.441 270.385 212.331 270.121 212.111 269.93C211.906 269.725 211.547 269.585 211.033 269.512L209.889 269.358C208.643 269.197 207.689 268.845 207.029 268.302C206.384 267.745 206.061 266.938 206.061 265.882C206.061 265.325 206.164 264.826 206.369 264.386C206.575 263.931 206.868 263.55 207.249 263.242C207.631 262.919 208.085 262.677 208.613 262.516C209.156 262.34 209.757 262.252 210.417 262.252C210.975 262.252 211.466 262.296 211.891 262.384C212.331 262.457 212.727 262.575 213.079 262.736C213.431 262.883 213.754 263.073 214.047 263.308C214.341 263.528 214.627 263.777 214.905 264.056L213.255 265.706C212.918 265.354 212.515 265.061 212.045 264.826C211.576 264.591 211.063 264.474 210.505 264.474C209.889 264.474 209.442 264.584 209.163 264.804C208.899 265.024 208.767 265.31 208.767 265.662C208.767 266.043 208.877 266.337 209.097 266.542C209.332 266.733 209.721 266.872 210.263 266.96L211.429 267.114C213.908 267.466 215.147 268.595 215.147 270.502C215.147 271.059 215.03 271.573 214.795 272.042C214.575 272.497 214.26 272.893 213.849 273.23C213.439 273.553 212.94 273.809 212.353 274C211.781 274.176 211.136 274.264 210.417 274.264ZM221.528 274.264C220.706 274.264 219.966 274.125 219.306 273.846C218.66 273.567 218.103 273.164 217.634 272.636C217.179 272.108 216.827 271.477 216.578 270.744C216.328 269.996 216.204 269.16 216.204 268.236C216.204 267.312 216.328 266.483 216.578 265.75C216.827 265.017 217.179 264.393 217.634 263.88C218.103 263.352 218.66 262.949 219.306 262.67C219.966 262.391 220.706 262.252 221.528 262.252C222.349 262.252 223.09 262.391 223.75 262.67C224.41 262.949 224.967 263.352 225.422 263.88C225.891 264.393 226.25 265.017 226.5 265.75C226.749 266.483 226.874 267.312 226.874 268.236C226.874 269.16 226.749 269.996 226.5 270.744C226.25 271.477 225.891 272.108 225.422 272.636C224.967 273.164 224.41 273.567 223.75 273.846C223.09 274.125 222.349 274.264 221.528 274.264ZM221.528 271.998C222.276 271.998 222.862 271.771 223.288 271.316C223.713 270.861 223.926 270.194 223.926 269.314V267.18C223.926 266.315 223.713 265.655 223.288 265.2C222.862 264.745 222.276 264.518 221.528 264.518C220.794 264.518 220.215 264.745 219.79 265.2C219.364 265.655 219.152 266.315 219.152 267.18V269.314C219.152 270.194 219.364 270.861 219.79 271.316C220.215 271.771 220.794 271.998 221.528 271.998ZM228.71 274V262.516H231.526V264.43H231.636C231.871 263.814 232.238 263.301 232.736 262.89C233.25 262.465 233.954 262.252 234.848 262.252C236.036 262.252 236.946 262.641 237.576 263.418C238.207 264.195 238.522 265.303 238.522 266.74V274H235.706V267.026C235.706 266.205 235.56 265.589 235.266 265.178C234.973 264.767 234.489 264.562 233.814 264.562C233.521 264.562 233.235 264.606 232.956 264.694C232.692 264.767 232.45 264.885 232.23 265.046C232.025 265.193 231.856 265.383 231.724 265.618C231.592 265.838 231.526 266.102 231.526 266.41V274H228.71ZM242.392 260.844C241.805 260.844 241.38 260.712 241.116 260.448C240.867 260.184 240.742 259.847 240.742 259.436V258.996C240.742 258.585 240.867 258.248 241.116 257.984C241.38 257.72 241.805 257.588 242.392 257.588C242.964 257.588 243.382 257.72 243.646 257.984C243.91 258.248 244.042 258.585 244.042 258.996V259.436C244.042 259.847 243.91 260.184 243.646 260.448C243.382 260.712 242.964 260.844 242.392 260.844ZM240.984 262.516H243.8V274H240.984V262.516ZM246.404 274V262.516H249.22V264.43H249.33C249.565 263.814 249.931 263.301 250.43 262.89C250.943 262.465 251.647 262.252 252.542 262.252C253.73 262.252 254.639 262.641 255.27 263.418C255.901 264.195 256.216 265.303 256.216 266.74V274H253.4V267.026C253.4 266.205 253.253 265.589 252.96 265.178C252.667 264.767 252.183 264.562 251.508 264.562C251.215 264.562 250.929 264.606 250.65 264.694C250.386 264.767 250.144 264.885 249.924 265.046C249.719 265.193 249.55 265.383 249.418 265.618C249.286 265.838 249.22 266.102 249.22 266.41V274H246.404ZM269.04 274.968C269.04 275.569 268.93 276.097 268.71 276.552C268.504 277.021 268.16 277.41 267.676 277.718C267.192 278.026 266.568 278.261 265.806 278.422C265.043 278.583 264.112 278.664 263.012 278.664C262.044 278.664 261.222 278.598 260.548 278.466C259.873 278.349 259.316 278.173 258.876 277.938C258.45 277.718 258.142 277.439 257.952 277.102C257.761 276.765 257.666 276.383 257.666 275.958C257.666 275.313 257.842 274.807 258.194 274.44C258.56 274.088 259.066 273.861 259.712 273.758V273.516C259.242 273.399 258.876 273.171 258.612 272.834C258.362 272.482 258.238 272.071 258.238 271.602C258.238 271.309 258.296 271.052 258.414 270.832C258.531 270.597 258.685 270.399 258.876 270.238C259.081 270.077 259.308 269.945 259.558 269.842C259.807 269.725 260.071 269.637 260.35 269.578V269.49C259.646 269.167 259.118 268.72 258.766 268.148C258.428 267.576 258.26 266.909 258.26 266.146C258.26 264.973 258.663 264.034 259.47 263.33C260.276 262.611 261.457 262.252 263.012 262.252C263.364 262.252 263.708 262.274 264.046 262.318C264.398 262.362 264.72 262.435 265.014 262.538V262.164C265.014 261.049 265.556 260.492 266.642 260.492H268.424V262.648H265.982V262.956C266.583 263.293 267.03 263.733 267.324 264.276C267.617 264.819 267.764 265.442 267.764 266.146C267.764 267.305 267.36 268.236 266.554 268.94C265.762 269.644 264.581 269.996 263.012 269.996C262.337 269.996 261.75 269.93 261.252 269.798C261.032 269.901 260.841 270.04 260.68 270.216C260.518 270.377 260.438 270.583 260.438 270.832C260.438 271.404 260.936 271.69 261.934 271.69H265.014C266.422 271.69 267.441 271.983 268.072 272.57C268.717 273.142 269.04 273.941 269.04 274.968ZM266.4 275.298C266.4 274.931 266.253 274.645 265.96 274.44C265.666 274.235 265.16 274.132 264.442 274.132H260.526C260.13 274.425 259.932 274.821 259.932 275.32C259.932 275.76 260.115 276.105 260.482 276.354C260.848 276.603 261.472 276.728 262.352 276.728H263.76C264.684 276.728 265.351 276.611 265.762 276.376C266.187 276.141 266.4 275.782 266.4 275.298ZM263.012 268.082C264.39 268.082 265.08 267.495 265.08 266.322V265.948C265.08 264.775 264.39 264.188 263.012 264.188C261.633 264.188 260.944 264.775 260.944 265.948V266.322C260.944 267.495 261.633 268.082 263.012 268.082ZM278.131 274C277.163 274 276.422 273.751 275.909 273.252C275.41 272.739 275.161 272.013 275.161 271.074V264.76H273.467V262.516H274.347C274.772 262.516 275.058 262.421 275.205 262.23C275.366 262.025 275.447 261.724 275.447 261.328V259.37H277.977V262.516H280.331V264.76H277.977V271.756H280.155V274H278.131ZM282.114 257.72H284.93V264.43H285.04C285.274 263.814 285.641 263.301 286.14 262.89C286.653 262.465 287.357 262.252 288.252 262.252C289.44 262.252 290.349 262.641 290.98 263.418C291.61 264.195 291.926 265.303 291.926 266.74V274H289.11V267.026C289.11 266.205 288.963 265.589 288.67 265.178C288.376 264.767 287.892 264.562 287.218 264.562C286.924 264.562 286.638 264.606 286.36 264.694C286.096 264.767 285.854 264.885 285.634 265.046C285.428 265.193 285.26 265.383 285.128 265.618C284.996 265.838 284.93 266.102 284.93 266.41V274H282.114V257.72ZM299.029 274.264C298.178 274.264 297.416 274.125 296.741 273.846C296.081 273.553 295.516 273.149 295.047 272.636C294.592 272.108 294.24 271.477 293.991 270.744C293.742 269.996 293.617 269.16 293.617 268.236C293.617 267.327 293.734 266.505 293.969 265.772C294.218 265.039 294.57 264.415 295.025 263.902C295.48 263.374 296.037 262.971 296.697 262.692C297.357 262.399 298.105 262.252 298.941 262.252C299.836 262.252 300.613 262.406 301.273 262.714C301.933 263.022 302.476 263.44 302.901 263.968C303.326 264.496 303.642 265.112 303.847 265.816C304.067 266.505 304.177 267.246 304.177 268.038V268.962H296.543V269.248C296.543 270.084 296.778 270.759 297.247 271.272C297.716 271.771 298.413 272.02 299.337 272.02C300.041 272.02 300.613 271.873 301.053 271.58C301.508 271.287 301.911 270.913 302.263 270.458L303.781 272.152C303.312 272.812 302.666 273.333 301.845 273.714C301.038 274.081 300.1 274.264 299.029 274.264ZM298.985 264.364C298.237 264.364 297.643 264.613 297.203 265.112C296.763 265.611 296.543 266.256 296.543 267.048V267.224H301.251V267.026C301.251 266.234 301.053 265.596 300.657 265.112C300.276 264.613 299.718 264.364 298.985 264.364ZM309.412 262.516H312.118L313.284 267.246L314.186 271.184H314.274L315.33 267.246L316.672 262.516H319.224L320.61 267.246L321.688 271.184H321.776L322.678 267.246L323.822 262.516H326.44L323.294 274H320.258L318.784 268.94L317.926 265.816H317.86L317.024 268.94L315.572 274H312.58L309.412 262.516ZM332.348 274.264C331.497 274.264 330.735 274.125 330.06 273.846C329.4 273.553 328.835 273.149 328.366 272.636C327.911 272.108 327.559 271.477 327.31 270.744C327.061 269.996 326.936 269.16 326.936 268.236C326.936 267.327 327.053 266.505 327.288 265.772C327.537 265.039 327.889 264.415 328.344 263.902C328.799 263.374 329.356 262.971 330.016 262.692C330.676 262.399 331.424 262.252 332.26 262.252C333.155 262.252 333.932 262.406 334.592 262.714C335.252 263.022 335.795 263.44 336.22 263.968C336.645 264.496 336.961 265.112 337.166 265.816C337.386 266.505 337.496 267.246 337.496 268.038V268.962H329.862V269.248C329.862 270.084 330.097 270.759 330.566 271.272C331.035 271.771 331.732 272.02 332.656 272.02C333.36 272.02 333.932 271.873 334.372 271.58C334.827 271.287 335.23 270.913 335.582 270.458L337.1 272.152C336.631 272.812 335.985 273.333 335.164 273.714C334.357 274.081 333.419 274.264 332.348 274.264ZM332.304 264.364C331.556 264.364 330.962 264.613 330.522 265.112C330.082 265.611 329.862 266.256 329.862 267.048V267.224H334.57V267.026C334.57 266.234 334.372 265.596 333.976 265.112C333.595 264.613 333.037 264.364 332.304 264.364ZM342.13 274C341.162 274 340.45 273.758 339.996 273.274C339.541 272.79 339.314 272.108 339.314 271.228V257.72H342.13V271.756H343.648V274H342.13ZM347.786 274C346.818 274 346.107 273.758 345.652 273.274C345.197 272.79 344.97 272.108 344.97 271.228V257.72H347.786V271.756H349.304V274H347.786ZM355.463 267.136C355.463 268.207 355.36 269.241 355.155 270.238C354.964 271.221 354.693 272.145 354.341 273.01C353.989 273.861 353.578 274.631 353.109 275.32C352.639 276.009 352.133 276.581 351.591 277.036H348.929C349.515 276.508 350.043 275.907 350.513 275.232C350.997 274.557 351.407 273.839 351.745 273.076C352.097 272.299 352.361 271.485 352.537 270.634C352.727 269.769 352.823 268.881 352.823 267.972V266.344C352.823 265.449 352.727 264.577 352.537 263.726C352.361 262.875 352.104 262.069 351.767 261.306C351.429 260.529 351.019 259.803 350.535 259.128C350.065 258.453 349.53 257.837 348.929 257.28H351.591C352.148 257.764 352.661 258.351 353.131 259.04C353.6 259.729 354.003 260.499 354.341 261.35C354.693 262.186 354.964 263.095 355.155 264.078C355.36 265.061 355.463 266.08 355.463 267.136ZM30.41 310.264C29.8673 310.264 29.464 310.125 29.2 309.846C28.936 309.553 28.804 309.193 28.804 308.768V308.438C28.804 308.013 28.936 307.661 29.2 307.382C29.464 307.089 29.8673 306.942 30.41 306.942C30.9527 306.942 31.356 307.089 31.62 307.382C31.884 307.661 32.016 308.013 32.016 308.438V308.768C32.016 309.193 31.884 309.553 31.62 309.846C31.356 310.125 30.9527 310.264 30.41 310.264ZM30.41 301.618C29.8673 301.618 29.464 301.479 29.2 301.2C28.936 300.907 28.804 300.547 28.804 300.122V299.792C28.804 299.367 28.936 299.015 29.2 298.736C29.464 298.443 29.8673 298.296 30.41 298.296C30.9527 298.296 31.356 298.443 31.62 298.736C31.884 299.015 32.016 299.367 32.016 299.792V300.122C32.016 300.547 31.884 300.907 31.62 301.2C31.356 301.479 30.9527 301.618 30.41 301.618ZM44.1358 305.578C46.0058 305.578 47.3258 303.51 47.3258 300.298C47.3258 297.108 46.0058 295.04 44.1358 295.04C42.2438 295.04 40.9238 297.108 40.9238 300.298C40.9238 303.51 42.2438 305.578 44.1358 305.578ZM53.3098 291.894H55.1138V311.672H53.3098V300.892H49.0198C48.8438 304.764 46.8858 307.184 44.1358 307.184C41.2538 307.184 39.2078 304.5 39.2078 300.298C39.2078 296.096 41.2538 293.412 44.1358 293.412C46.7978 293.412 48.7338 295.722 49.0198 299.418H53.3098V291.894ZM69.522 297.328H73.064V291.916H74.89V306.282H73.064V298.802H69.522V297.328ZM71.194 301.178L71.37 302.652C69.61 303.048 68.158 303.092 66.002 303.092H64.99V293.544H70.468V294.996H66.772V301.618C68.444 301.596 69.698 301.53 71.194 301.178ZM64.176 301.2L64.33 302.674C62.548 303.092 61.096 303.092 59.842 303.092H58.962V293.544H63.934V294.996H60.744V301.618C61.712 301.574 62.878 301.486 64.176 301.2ZM63.494 309.714H75.374V311.188H61.69V305.072H63.494V309.714ZM98.3035 299.044V300.452H84.8835V292.422H98.1935V293.83H86.6875V295.7H97.6655V297.064H86.6875V299.044H98.3035ZM84.5315 307.118V305.688H98.0835V311.65H96.2795V307.118H84.5315ZM82.5295 302.322H100.394V303.774H82.5295V302.322ZM112.668 297.02H116.562V291.916H118.388V303.664H116.562V298.494H112.668V297.02ZM113.768 301.508L112.866 302.916C110.666 302.124 108.972 300.496 108.114 298.472C107.278 300.76 105.452 302.608 103.142 303.488L102.196 302.058C105.144 300.98 107.168 298.318 107.168 295.48V294.798H102.768V293.346H113.306V294.798H108.972V295.48C108.972 298.01 110.908 300.496 113.768 301.508ZM111.876 310.22C114.846 310.22 116.65 309.384 116.65 307.954C116.65 306.524 114.846 305.666 111.876 305.666C108.906 305.666 107.102 306.524 107.102 307.954C107.102 309.384 108.906 310.22 111.876 310.22ZM111.876 304.28C115.924 304.28 118.454 305.622 118.454 307.954C118.454 310.286 115.924 311.628 111.876 311.628C107.828 311.628 105.298 310.286 105.298 307.954C105.298 305.622 107.828 304.28 111.876 304.28ZM128.007 301.486L127.325 300.056C130.757 299.55 134.167 297.284 134.167 294.688V294.578H127.941V293.126H142.351V294.578H136.169V294.688C136.169 297.284 139.579 299.55 143.055 300.056L142.351 301.486C139.293 300.958 136.367 299.308 135.179 296.976C133.969 299.308 131.065 300.958 128.007 301.486ZM144.089 303.136L144.111 304.61H136.037V311.628H134.233V304.61H126.269V303.136H144.089ZM157.266 301.442L156.408 302.85C154.164 302.124 152.47 300.562 151.634 298.604C150.798 300.848 149.016 302.608 146.662 303.444L145.738 302.014C148.708 300.98 150.688 298.428 150.688 295.59V294.82H146.266V293.368H156.848V294.82H152.492V295.59C152.492 298.164 154.362 300.474 157.266 301.442ZM154.868 310.176C157.772 310.176 159.554 309.362 159.554 307.954C159.554 306.568 157.772 305.754 154.868 305.754C151.92 305.754 150.16 306.568 150.16 307.954C150.16 309.362 151.92 310.176 154.868 310.176ZM154.868 304.324C158.872 304.324 161.358 305.666 161.358 307.954C161.358 310.264 158.872 311.606 154.868 311.606C150.82 311.606 148.356 310.264 148.356 307.954C148.356 305.666 150.82 304.324 154.868 304.324ZM161.138 296.888H164.064V298.406H161.138V303.818H159.334V291.916H161.138V296.888ZM169.87 305.622C171.41 305.622 172.422 303.62 172.422 300.386C172.422 297.218 171.41 295.216 169.87 295.216C168.286 295.216 167.296 297.218 167.296 300.386C167.296 303.62 168.286 305.622 169.87 305.622ZM176.536 299.572V292.334H178.252V310.66H176.536V301.046H174.05C173.896 304.918 172.29 307.294 169.87 307.294C167.296 307.294 165.646 304.654 165.646 300.386C165.646 296.184 167.296 293.544 169.87 293.544C172.246 293.544 173.83 295.854 174.05 299.572H176.536ZM180.452 291.894H182.168V311.628H180.452V291.894ZM192.007 295.766V305.27C194.647 305.248 196.517 305.138 198.673 304.676L198.827 306.172C196.473 306.678 194.471 306.766 191.523 306.766H190.225V294.292H197.573V295.766H192.007ZM204.547 291.894H206.285V311.628H204.547V301.288H201.753V310.638H200.059V292.334H201.753V299.814H204.547V291.894ZM220.804 294.314V295.766H209.166V294.314H214.072V291.894H215.876V294.314H220.804ZM211.982 300.518C211.982 301.904 213.192 302.784 214.974 302.784C216.756 302.784 217.988 301.904 217.988 300.518C217.988 299.154 216.756 298.274 214.974 298.274C213.192 298.274 211.982 299.154 211.982 300.518ZM219.704 300.518C219.704 302.74 217.768 304.192 214.974 304.192C212.18 304.192 210.266 302.74 210.266 300.518C210.266 298.318 212.18 296.866 214.974 296.866C217.768 296.866 219.704 298.318 219.704 300.518ZM213.94 305.534V309.714H225.292V311.188H212.136V305.534H213.94ZM224.412 298.406H227.316V299.924H224.412V306.7H222.608V291.894H224.412V298.406ZM241.401 301.64V298.032H235.813V301.64H241.401ZM243.161 293.324V303.092H234.031V293.324H235.813V296.624H241.401V293.324H243.161ZM238.057 305.006V309.714H249.409V311.188H236.253V305.006H238.057ZM248.529 297.878H251.433V299.396H248.529V306.392H246.725V291.916H248.529V297.878ZM256.931 305.974V309.956H268.811V311.43H255.127V305.974H256.931ZM262.651 303.158H270.681V304.632H252.773V303.158H260.825V301.002H255.083V296.096H266.611V293.94H255.039V292.532H268.393V297.438H256.865V299.594H268.811V301.002H262.651V303.158ZM286.718 291.894H288.522V311.672H286.718V291.894ZM278.116 293.412C281.042 293.412 283.132 296.096 283.132 300.298C283.132 304.5 281.042 307.184 278.116 307.184C275.19 307.184 273.1 304.5 273.1 300.298C273.1 296.096 275.19 293.412 278.116 293.412ZM278.116 295.04C276.18 295.04 274.816 297.108 274.816 300.298C274.816 303.51 276.18 305.578 278.116 305.578C280.03 305.578 281.394 303.51 281.394 300.298C281.394 297.108 280.03 295.04 278.116 295.04ZM312.683 291.894V302.014H310.879V291.894H312.683ZM298.691 296.998C298.691 298.692 300.121 299.902 302.035 299.902C303.971 299.902 305.379 298.692 305.379 296.998C305.379 295.282 303.971 294.072 302.035 294.072C300.121 294.072 298.691 295.282 298.691 296.998ZM307.139 296.998C307.139 299.594 304.983 301.354 302.035 301.354C299.087 301.354 296.953 299.594 296.953 296.998C296.953 294.38 299.087 292.598 302.035 292.598C304.983 292.598 307.139 294.38 307.139 296.998ZM301.727 309.934H313.343V311.364H299.945V306.414H310.901V304.412H299.901V302.982H312.683V307.756H301.727V309.934ZM321.35 305.578C323.22 305.578 324.54 303.51 324.54 300.298C324.54 297.108 323.22 295.04 321.35 295.04C319.458 295.04 318.138 297.108 318.138 300.298C318.138 303.51 319.458 305.578 321.35 305.578ZM330.524 291.894H332.328V311.672H330.524V300.892H326.234C326.058 304.764 324.1 307.184 321.35 307.184C318.468 307.184 316.422 304.5 316.422 300.298C316.422 296.096 318.468 293.412 321.35 293.412C324.012 293.412 325.948 295.722 326.234 299.418H330.524V291.894ZM347.11 298.516L347.352 300.034C344.03 300.694 341.104 300.892 338.156 300.892H336.616V292.752H338.398V299.396C341.17 299.374 343.986 299.154 347.11 298.516ZM340.268 307.646V309.912H351.686V311.364H338.486V306.26H349.178V304.236H338.42V302.784H350.96V307.646H340.268ZM350.96 295.986H353.886V297.482H350.96V301.838H349.156V291.894H350.96V295.986ZM376.749 299.418L376.001 300.87C372.943 300.342 369.973 298.626 368.697 296.25C367.465 298.648 364.495 300.342 361.415 300.87L360.689 299.418C364.275 298.89 367.751 296.514 367.751 293.698V292.598H369.643V293.698C369.643 296.448 373.163 298.89 376.749 299.418ZM377.607 303.004L377.629 304.5H369.555V311.65H367.751V304.5H359.787V303.004H377.607ZM400.075 291.916V303.18H398.271V291.916H400.075ZM389.471 294.556C387.513 294.556 386.105 295.854 386.105 297.658C386.105 299.484 387.513 300.76 389.471 300.76C391.429 300.76 392.881 299.484 392.881 297.658C392.881 295.854 391.429 294.556 389.471 294.556ZM389.471 302.256C386.501 302.256 384.345 300.386 384.345 297.658C384.345 294.93 386.501 293.06 389.471 293.06C392.463 293.06 394.641 294.93 394.641 297.658C394.641 300.386 392.463 302.256 389.471 302.256ZM397.875 304.038V305.094C397.875 307.14 399.327 309.164 401.835 310L400.933 311.364C398.997 310.66 397.633 309.296 396.973 307.646C396.357 309.252 395.147 310.748 393.321 311.54C391.429 310.792 390.241 309.362 389.647 307.712C388.943 309.296 387.601 310.66 385.753 311.364L384.851 310C387.337 309.12 388.811 306.986 388.811 305.094V304.038H390.549V305.094C390.549 306.832 391.451 308.702 393.277 309.78C395.169 308.614 396.115 306.634 396.115 305.094V304.038H397.875ZM419.279 297.834V299.308H405.859V292.62H407.663V297.834H419.279ZM407.531 305.38V309.67H419.389V311.144H405.727V305.38H407.531ZM403.439 301.948H421.325V303.4H403.439V301.948ZM37.054 330.138C34.062 330.138 32.016 331.238 32.016 332.976C32.016 334.714 34.062 335.836 37.054 335.836C40.068 335.836 42.114 334.714 42.114 332.976C42.114 331.238 40.068 330.138 37.054 330.138ZM37.054 337.288C32.962 337.288 30.168 335.616 30.168 332.976C30.168 330.336 32.962 328.686 37.054 328.686C41.168 328.686 43.962 330.336 43.962 332.976C43.962 335.616 41.168 337.288 37.054 337.288ZM46.03 339.136V340.61H41.366V347.628H39.54V340.61H34.59V347.628H32.764V340.61H28.166V339.136H46.03ZM63.9363 327.894V338.014H62.1323V327.894H63.9363ZM49.9443 332.998C49.9443 334.692 51.3743 335.902 53.2883 335.902C55.2243 335.902 56.6323 334.692 56.6323 332.998C56.6323 331.282 55.2243 330.072 53.2883 330.072C51.3743 330.072 49.9443 331.282 49.9443 332.998ZM58.3923 332.998C58.3923 335.594 56.2363 337.354 53.2883 337.354C50.3403 337.354 48.2063 335.594 48.2063 332.998C48.2063 330.38 50.3403 328.598 53.2883 328.598C56.2363 328.598 58.3923 330.38 58.3923 332.998ZM52.9803 345.934H64.5963V347.364H51.1983V342.414H62.1543V340.412H51.1543V338.982H63.9363V343.756H52.9803V345.934ZM79.0266 330.314V331.766H67.3886V330.314H72.2946V327.894H74.0986V330.314H79.0266ZM70.2046 336.518C70.2046 337.904 71.4146 338.784 73.1966 338.784C74.9786 338.784 76.2106 337.904 76.2106 336.518C76.2106 335.154 74.9786 334.274 73.1966 334.274C71.4146 334.274 70.2046 335.154 70.2046 336.518ZM77.9266 336.518C77.9266 338.74 75.9906 340.192 73.1966 340.192C70.4026 340.192 68.4886 338.74 68.4886 336.518C68.4886 334.318 70.4026 332.866 73.1966 332.866C75.9906 332.866 77.9266 334.318 77.9266 336.518ZM72.1626 341.534V345.714H83.5146V347.188H70.3586V341.534H72.1626ZM82.6346 334.406H85.5386V335.924H82.6346V342.7H80.8306V327.894H82.6346V334.406ZM101.78 339.554H105.784V327.894H107.588V342.92H105.784V340.896H101.78V339.554ZM97.7541 330.028C95.8841 330.028 94.6081 330.864 94.6081 332.118C94.6081 333.394 95.8841 334.23 97.7541 334.23C99.6241 334.23 100.9 333.394 100.9 332.118C100.9 330.864 99.6241 330.028 97.7541 330.028ZM97.7541 335.572C94.8721 335.572 92.8921 334.23 92.8921 332.118C92.8921 330.05 94.8721 328.686 97.7541 328.686C100.636 328.686 102.616 330.05 102.616 332.118C102.616 334.23 100.636 335.572 97.7541 335.572ZM97.0501 342.216V338.41C95.0921 338.498 93.2001 338.52 91.5721 338.52L91.3301 337.024C94.9821 337.024 99.8661 336.98 104.046 336.452L104.2 337.75C102.462 338.014 100.636 338.212 98.8541 338.322V342.216H97.0501ZM95.9501 345.714H108.094V347.188H94.1461V341.446H95.9501V345.714ZM121.468 333.966H125.45V327.916H127.276V342.634H125.45V335.462H121.468V333.966ZM122.678 338.432L121.798 339.862C119.532 339.114 117.772 337.552 116.87 335.55C116.034 337.728 114.274 339.4 111.964 340.214L111.062 338.806C113.988 337.816 115.946 335.352 115.946 332.602V331.986H111.568V330.534H115.946V328.004H117.75V330.534H122.106V331.986H117.75V332.602C117.75 335.22 119.752 337.508 122.678 338.432ZM116.474 345.714H127.826V347.188H114.648V341.314H116.474V345.714ZM139.507 329.588C136.273 329.588 134.425 330.336 134.425 331.656C134.425 332.976 136.273 333.724 139.507 333.724C142.741 333.724 144.589 332.976 144.589 331.656C144.589 330.336 142.741 329.588 139.507 329.588ZM139.507 335.066C135.173 335.066 132.577 333.878 132.577 331.656C132.577 329.434 135.173 328.224 139.507 328.224C143.841 328.224 146.437 329.434 146.437 331.656C146.437 333.878 143.841 335.066 139.507 335.066ZM134.557 343.998V346H146.745V347.408H132.797V342.678H144.369V340.918H132.731V339.554H146.151V343.998H134.557ZM130.575 336.408H148.439V337.86H130.575V336.408ZM169.058 327.894H170.862V347.65H169.058V327.894ZM155.836 329.566H157.618V334.78H163.338V329.566H165.12V342.876H155.836V329.566ZM157.618 336.21V341.402H163.338V336.21H157.618ZM178.604 331.194V337.926C179.638 337.904 180.694 337.882 181.75 337.816V331.194H178.604ZM186.37 337.442L186.502 338.784C182.564 339.4 177.966 339.488 174.556 339.488L174.358 337.992C175.128 337.992 175.964 337.992 176.844 337.97V331.194H174.908V329.742H185.446V331.194H183.488V337.706C184.478 337.64 185.446 337.552 186.37 337.442ZM179.132 341.072V345.714H190.484V347.188H177.328V341.072H179.132ZM189.604 333.9H192.508V335.396H189.604V342.436H187.8V327.894H189.604V333.9ZM199.657 341.732C201.461 341.732 202.759 340.456 202.759 338.696C202.759 336.914 201.461 335.638 199.657 335.638C197.875 335.638 196.577 336.914 196.577 338.696C196.577 340.456 197.875 341.732 199.657 341.732ZM199.657 334.142C202.473 334.142 204.475 336.034 204.475 338.696C204.475 341.38 202.473 343.228 199.657 343.228C196.885 343.228 194.883 341.38 194.883 338.696C194.883 336.034 196.885 334.142 199.657 334.142ZM200.537 328.136V331.062H205.399V332.514H193.761V331.062H198.733V328.136H200.537ZM212.307 336.012V337.53H209.073V347.628H207.269V327.916H209.073V336.012H212.307ZM221.589 337.398V331.062H216.133V337.398H221.589ZM227.881 332.844H223.349V335.594H227.881V332.844ZM223.349 337.068V338.828H214.351V329.632H223.349V331.37H227.881V327.916H229.707V342.304H227.881V337.068H223.349ZM218.817 345.714H230.169V347.188H217.013V341.028H218.817V345.714ZM239.935 329.588V333.13C239.935 336.716 242.179 340.302 245.039 341.666L243.983 343.096C241.739 341.974 239.935 339.62 239.033 336.848C238.175 339.774 236.349 342.26 234.127 343.448L233.027 342.018C235.887 340.588 238.131 336.782 238.131 333.13V329.588H239.935ZM247.481 327.894H249.285V347.65H247.481V336.056H242.905V334.582H247.481V327.894ZM265.329 337.64V334.032H259.741V337.64H265.329ZM267.089 329.324V339.092H257.959V329.324H259.741V332.624H265.329V329.324H267.089ZM261.985 341.006V345.714H273.337V347.188H260.181V341.006H261.985ZM272.457 333.878H275.361V335.396H272.457V342.392H270.653V327.916H272.457V333.878ZM284.907 337.024V333.636H279.319V337.024H284.907ZM286.667 329.148V338.476H277.537V329.148H279.319V332.228H284.907V329.148H286.667ZM279.209 342.326V340.874H292.035V347.65H290.231V342.326H279.209ZM294.961 333.02V334.516H292.035V339.818H290.231V327.916H292.035V333.02H294.961ZM307.485 331.414V333.922C307.485 337.068 309.729 340.566 312.589 341.908L311.555 343.36C309.355 342.26 307.507 339.95 306.605 337.31C305.703 340.192 303.789 342.7 301.567 343.844L300.511 342.414C303.327 341.006 305.703 337.266 305.703 333.922V331.414H301.193V329.918H311.863V331.414H307.485ZM319.277 335.858V337.376H316.021V347.628H314.217V327.916H316.021V335.858H319.277ZM326.161 333.02V333.966C326.161 337.112 327.745 340.368 330.407 341.798L329.373 343.162C327.459 342.084 326.051 340.082 325.325 337.706C324.643 340.214 323.257 342.414 321.321 343.58L320.265 342.238C322.927 340.654 324.445 337.2 324.445 333.966V333.02H320.793V331.524H324.445V328.598H326.183V331.524H329.813V333.02H326.161ZM331.485 335.682V328.356H333.201V346.594H331.485V337.178H328.471V335.682H331.485ZM335.445 327.894H337.183V347.606H335.445V327.894ZM353.813 331.348V329.742H342.241V328.466H355.595V332.58H344.067V334.274H355.947V335.572H342.285V331.348H353.813ZM343.957 344.24V346.066H356.277V347.364H342.175V342.986H353.879V341.336H342.131V340.038H355.661V344.24H343.957ZM339.997 337.068H357.883V338.432H339.997V337.068ZM372.233 336.65V330.798H366.689V336.65H372.233ZM373.993 329.368V338.102H364.929V329.368H373.993ZM366.601 342.106V340.632H379.427V347.65H377.623V342.106H366.601ZM382.353 333.02V334.516H379.427V339.598H377.623V327.916H379.427V333.02H382.353ZM399.511 333.834V335.308H386.091V328.62H387.895V333.834H399.511ZM387.763 341.38V345.67H399.621V347.144H385.959V341.38H387.763ZM383.671 337.948H401.557V339.4H383.671V337.948ZM411.286 334.362C411.286 336.628 413.596 338.102 416.742 338.102C419.888 338.102 422.176 336.628 422.176 334.362C422.176 332.096 419.888 330.622 416.742 330.622C413.596 330.622 411.286 332.096 411.286 334.362ZM417.644 343.602H425.718V345.098H407.788V343.602H415.818V339.488C412.144 339.224 409.548 337.266 409.548 334.362C409.548 331.216 412.562 329.192 416.742 329.192C420.9 329.192 423.892 331.216 423.892 334.362C423.892 337.266 421.318 339.224 417.644 339.488V343.602ZM441.293 332.382V330.116H429.501V328.664H443.119V333.746H431.371V336.166H443.559V337.618H429.567V332.382H441.293ZM445.275 339.664V341.116H440.611V347.65H438.807V341.116H433.835V347.65H432.031V341.116H427.367V339.664H445.275Z" fill="#F4F4F4"/>
<path d="M121.146 37.99C120.545 37.99 120.105 37.8507 119.826 37.572C119.562 37.2787 119.43 36.9193 119.43 36.494V36.076C119.43 35.68 119.489 35.284 119.606 34.888C119.723 34.4773 119.877 34.0813 120.068 33.7C120.273 33.3187 120.515 32.9593 120.794 32.622C121.073 32.2847 121.373 31.984 121.696 31.72H123.588C123.119 32.1747 122.723 32.622 122.4 33.062C122.077 33.502 121.835 33.9933 121.674 34.536C122.099 34.624 122.407 34.8073 122.598 35.086C122.789 35.35 122.884 35.658 122.884 36.01V36.494C122.884 36.9193 122.745 37.2787 122.466 37.572C122.202 37.8507 121.762 37.99 121.146 37.99ZM128.23 31.544V42.5C130.782 42.434 133.532 42.214 136.37 41.664L136.656 44.04C133.29 44.744 130.034 44.92 127.086 44.92H125.326V31.544H128.23ZM143.41 37.264V39.662H140.572V49.848H137.668V29.608H140.572V37.264H143.41ZM160.612 35.108V37.418H146.554V30.356H149.458V35.108H160.612ZM149.282 43.424V47.142H160.722V49.452H146.356V43.424H149.282ZM144.288 39.486H162.636V41.818H144.288V39.486ZM182.288 29.608H185.192V49.936H182.288V29.608ZM174.302 31.038C177.36 31.038 179.626 33.81 179.626 38.254C179.626 42.72 177.36 45.514 174.302 45.514C171.244 45.514 168.978 42.72 168.978 38.254C168.978 33.81 171.244 31.038 174.302 31.038ZM174.302 33.656C172.806 33.656 171.772 35.262 171.772 38.254C171.772 41.268 172.806 42.874 174.302 42.874C175.798 42.874 176.832 41.268 176.832 38.254C176.832 35.262 175.798 33.656 174.302 33.656ZM195.574 39.134V36.274H191.724V39.134H195.574ZM198.412 37.352V41.444H188.842V30.972H191.724V34.052H195.574V30.994H198.412V35.02H202.02V29.652H204.924V44.59H202.02V37.352H198.412ZM194.452 47.23H205.364V49.54H191.548V43.138H194.452V47.23ZM226.137 44.59V36.296H222.419V33.942H226.137V29.63H229.041V44.59H226.137ZM224.201 39.398L222.661 41.642C220.549 40.872 219.097 39.398 218.261 37.528C217.403 39.618 215.841 41.268 213.487 42.126L211.969 39.86C215.313 38.738 216.721 35.922 216.721 33.04V30.862H219.669V33.062C219.669 35.702 221.033 38.276 224.201 39.398ZM218.569 47.23H229.481V49.54H215.665V43.094H218.569V47.23ZM232.406 31.72H241.932C241.932 37.836 239.974 42.896 232.978 46.394L231.438 44.15C236.498 41.598 238.588 38.452 238.984 34.03H232.406V31.72ZM245.716 29.63H248.62V49.892H245.716V39.75H241.8V37.396H245.716V29.63ZM255.812 43.05C256.934 43.05 257.572 41.532 257.572 38.408C257.572 35.306 256.934 33.788 255.812 33.788C254.712 33.788 254.052 35.306 254.052 38.408C254.052 41.532 254.712 43.05 255.812 43.05ZM261.774 37.088V29.96H264.48V48.99H261.774V39.442H260.19C259.926 43.402 258.276 45.778 255.812 45.778C253.128 45.778 251.434 43.006 251.434 38.408C251.434 33.832 253.128 31.06 255.812 31.06C258.21 31.06 259.838 33.304 260.168 37.088H261.774ZM265.888 29.608H268.638V49.87H265.888V29.608ZM278.448 31.192V34.118C278.448 37.946 279.922 41.664 283.266 43.16L281.55 45.47C279.328 44.392 277.854 42.412 277.018 39.97C276.138 42.566 274.62 44.678 272.354 45.822L270.55 43.49C273.982 41.906 275.522 37.968 275.522 34.118V31.192H278.448ZM284.938 29.608H287.842V49.936H284.938V38.298H281.044V35.966H284.938V29.608ZM310.86 37.594L308.044 37.264C308.528 35.394 308.638 33.964 308.682 32.776H304.26V30.444H311.498V31.698C311.498 33.15 311.498 35.108 310.86 37.594ZM301.664 37.616L298.87 37.198C299.552 35.328 299.794 33.876 299.86 32.776H296.45V30.444H302.72V31.346C302.72 32.622 302.72 34.8 301.664 37.616ZM296.934 45.074L296.956 42.786H310.948V49.804H308.044V45.074H296.934ZM305.888 38.826H313.236V41.158H294.998V38.826H303.05V35.306H305.888V38.826ZM326.507 39.09V36.208H322.525V39.09H326.507ZM329.367 31.082V41.378H319.665V31.082H322.525V33.964H326.507V31.082H329.367ZM324.857 43.072V47.23H335.747V49.54H321.953V43.072H324.857ZM335.021 35.35H337.705V37.726H335.021V44.546H332.117V29.63H335.021V35.35ZM350.728 38.826L349.342 41.07C347.12 40.41 345.58 39.068 344.7 37.396C343.798 39.398 342.192 41.004 339.816 41.774L338.364 39.508C341.642 38.408 343.094 35.834 343.138 33.304H339.112V30.972H350.068V33.304H346.108C346.152 35.614 347.538 37.88 350.728 38.826ZM347.978 47.67C350.552 47.67 351.938 47.12 351.938 45.976C351.938 44.81 350.552 44.26 347.978 44.26C345.382 44.26 343.996 44.81 343.996 45.976C343.996 47.12 345.382 47.67 347.978 47.67ZM347.978 42.016C352.18 42.016 354.82 43.49 354.82 45.976C354.82 48.44 352.18 49.892 347.978 49.892C343.754 49.892 341.114 48.44 341.114 45.976C341.114 43.49 343.754 42.016 347.978 42.016ZM354.6 34.294H357.284V36.67H354.6V41.664H351.696V29.63H354.6V34.294ZM372.11 29.608H375.014V49.936H372.11V29.608ZM364.124 31.038C367.182 31.038 369.448 33.81 369.448 38.254C369.448 42.72 367.182 45.514 364.124 45.514C361.066 45.514 358.8 42.72 358.8 38.254C358.8 33.81 361.066 31.038 364.124 31.038ZM364.124 33.656C362.628 33.656 361.594 35.262 361.594 38.254C361.594 41.268 362.628 42.874 364.124 42.874C365.62 42.874 366.654 41.268 366.654 38.254C366.654 35.262 365.62 33.656 364.124 33.656ZM390.441 40.168V43.468C392.069 43.38 393.697 43.27 395.237 43.116L395.413 45.228C391.079 45.91 386.547 45.954 382.785 45.954L382.433 43.578C384.017 43.578 385.755 43.578 387.537 43.534V40.168H383.731V31.434H394.181V33.744H386.635V37.836H394.313V40.168H390.441ZM396.337 29.63H399.241V49.936H396.337V29.63ZM407.468 42.874C408.964 42.874 409.954 41.268 409.954 38.254C409.954 35.262 408.964 33.656 407.468 33.656C405.994 33.656 405.004 35.262 405.004 38.254C405.004 41.268 405.994 42.874 407.468 42.874ZM416.026 29.608H418.93V49.936H416.026V39.266H412.66C412.352 43.138 410.284 45.514 407.468 45.514C404.454 45.514 402.232 42.72 402.232 38.254C402.232 33.81 404.454 31.038 407.468 31.038C410.196 31.038 412.242 33.26 412.638 36.912H416.026V29.608ZM426.936 42.874C428.432 42.874 429.466 41.268 429.466 38.254C429.466 35.284 428.432 33.656 426.936 33.656C425.418 33.656 424.406 35.284 424.406 38.254C424.406 41.268 425.418 42.874 426.936 42.874ZM426.936 31.038C429.994 31.038 432.26 33.81 432.26 38.254C432.26 42.72 429.994 45.514 426.936 45.514C423.856 45.514 421.612 42.72 421.612 38.254C421.612 33.81 423.856 31.038 426.936 31.038ZM440.158 36.736H437.364V40.278H440.158V42.654H437.364V49.892H434.46V29.63H437.364V34.36H440.158V36.736ZM450.481 43.116C451.581 43.116 452.373 42.236 452.373 40.718C452.373 39.2 451.581 38.298 450.481 38.298C449.381 38.298 448.589 39.2 448.589 40.718C448.589 42.236 449.381 43.116 450.481 43.116ZM450.481 35.878C453.077 35.878 454.925 37.88 454.925 40.718C454.925 43.534 453.077 45.536 450.481 45.536C447.885 45.536 446.037 43.534 446.037 40.718C446.037 37.88 447.885 35.878 450.481 35.878ZM451.911 30.18V32.688H455.277V34.998H445.597V32.688H449.051V30.18H451.911ZM460.249 29.608H462.999V49.87H460.249V40.212H458.709V49.034H456.003V30.004H458.709V37.88H460.249V29.608ZM467.53 31.5C468.131 31.5 468.564 31.6467 468.828 31.94C469.106 32.2187 469.246 32.5707 469.246 32.996V33.414C469.246 33.81 469.187 34.2133 469.07 34.624C468.967 35.02 468.813 35.4087 468.608 35.79C468.402 36.1713 468.16 36.5307 467.882 36.868C467.603 37.2053 467.302 37.506 466.98 37.77H465.088C465.557 37.33 465.953 36.89 466.276 36.45C466.598 35.9953 466.84 35.4967 467.002 34.954C466.576 34.8807 466.268 34.712 466.078 34.448C465.887 34.1693 465.792 33.8467 465.792 33.48V32.996C465.792 32.5707 465.924 32.2187 466.188 31.94C466.466 31.6467 466.914 31.5 467.53 31.5ZM121.146 73.99C120.545 73.99 120.105 73.8507 119.826 73.572C119.562 73.2787 119.43 72.9193 119.43 72.494V72.076C119.43 71.68 119.489 71.284 119.606 70.888C119.723 70.4773 119.877 70.0813 120.068 69.7C120.273 69.3187 120.515 68.9593 120.794 68.622C121.073 68.2847 121.373 67.984 121.696 67.72H123.588C123.119 68.1747 122.723 68.622 122.4 69.062C122.077 69.502 121.835 69.9933 121.674 70.536C122.099 70.624 122.407 70.8073 122.598 71.086C122.789 71.35 122.884 71.658 122.884 72.01V72.494C122.884 72.9193 122.745 73.2787 122.466 73.572C122.202 73.8507 121.762 73.99 121.146 73.99ZM127.526 71.856C127.526 73.22 128.362 73.968 129.55 73.968C130.76 73.968 131.596 73.22 131.596 71.856C131.596 70.514 130.76 69.744 129.55 69.744C128.362 69.744 127.526 70.514 127.526 71.856ZM130.892 76.168V79.05C132.124 78.984 133.334 78.896 134.412 78.742L134.632 80.832C131.442 81.47 127.306 81.58 124.798 81.58L124.468 79.204C125.502 79.204 126.8 79.204 128.208 79.16V76.146C126.228 75.64 124.886 74.034 124.886 71.856C124.886 69.216 126.844 67.39 129.55 67.39C132.278 67.39 134.236 69.216 134.236 71.856C134.236 74.056 132.894 75.64 130.892 76.168ZM139.45 65.608H142.2V85.87H139.45V76.036H137.954V84.968H135.248V65.982H137.954V73.682H139.45V65.608ZM146.95 79.028V75.596C148.123 75.552 149.011 75.332 149.612 74.936C150.228 74.5253 150.536 73.8947 150.536 73.044V72.736C150.536 72.12 150.353 71.6433 149.986 71.306C149.619 70.9687 149.128 70.8 148.512 70.8C147.852 70.8 147.317 70.998 146.906 71.394C146.51 71.7753 146.231 72.274 146.07 72.89L143.716 71.922C143.848 71.4673 144.039 71.0273 144.288 70.602C144.537 70.1767 144.86 69.8027 145.256 69.48C145.652 69.1427 146.129 68.8787 146.686 68.688C147.243 68.4827 147.889 68.38 148.622 68.38C149.37 68.38 150.045 68.49 150.646 68.71C151.247 68.9153 151.761 69.216 152.186 69.612C152.611 69.9933 152.941 70.4553 153.176 70.998C153.411 71.5407 153.528 72.142 153.528 72.802C153.528 73.4473 153.418 74.0267 153.198 74.54C152.993 75.0387 152.707 75.4787 152.34 75.86C151.973 76.2267 151.555 76.5273 151.086 76.762C150.617 76.982 150.133 77.136 149.634 77.224V79.028H146.95ZM148.314 84.264C147.698 84.264 147.251 84.1173 146.972 83.824C146.693 83.5307 146.554 83.1567 146.554 82.702V82.262C146.554 81.8073 146.693 81.4333 146.972 81.14C147.251 80.8467 147.698 80.7 148.314 80.7C148.945 80.7 149.399 80.8467 149.678 81.14C149.957 81.4333 150.096 81.8073 150.096 82.262V82.702C150.096 83.1567 149.957 83.5307 149.678 83.824C149.399 84.1173 148.945 84.264 148.314 84.264ZM162.647 67.566V78.566C164.473 78.522 166.167 78.39 168.037 78.038L168.389 80.458C165.969 80.964 163.769 81.052 161.217 81.052H159.809V67.566H162.647ZM169.401 72.01V65.96H172.107V84.99H169.401V74.364H165.419V72.01H169.401ZM173.691 65.608H176.441V85.87H173.691V65.608ZM179.519 67.698H189.067C189.067 73.77 186.757 78.984 180.025 82.394L178.397 80.172C183.105 77.752 185.613 74.54 186.141 70.052H179.519V67.698ZM197.295 73.352V75.75H194.457V85.848H191.553V65.608H194.457V73.352H197.295ZM218.619 73.594L215.803 73.264C216.287 71.394 216.397 69.964 216.441 68.776H212.019V66.444H219.257V67.698C219.257 69.15 219.257 71.108 218.619 73.594ZM209.423 73.616L206.629 73.198C207.311 71.328 207.553 69.876 207.619 68.776H204.209V66.444H210.479V67.346C210.479 68.622 210.479 70.8 209.423 73.616ZM204.693 81.074L204.715 78.786H218.707V85.804H215.803V81.074H204.693ZM213.647 74.826H220.995V77.158H202.757V74.826H210.809V71.306H213.647V74.826ZM234.266 75.09V72.208H230.284V75.09H234.266ZM237.126 67.082V77.378H227.424V67.082H230.284V69.964H234.266V67.082H237.126ZM232.616 79.072V83.23H243.506V85.54H229.712V79.072H232.616ZM242.78 71.35H245.464V73.726H242.78V80.546H239.876V65.63H242.78V71.35ZM258.487 74.826L257.101 77.07C254.879 76.41 253.339 75.068 252.459 73.396C251.557 75.398 249.951 77.004 247.575 77.774L246.123 75.508C249.401 74.408 250.853 71.834 250.897 69.304H246.871V66.972H257.827V69.304H253.867C253.911 71.614 255.297 73.88 258.487 74.826ZM255.737 83.67C258.311 83.67 259.697 83.12 259.697 81.976C259.697 80.81 258.311 80.26 255.737 80.26C253.141 80.26 251.755 80.81 251.755 81.976C251.755 83.12 253.141 83.67 255.737 83.67ZM255.737 78.016C259.939 78.016 262.579 79.49 262.579 81.976C262.579 84.44 259.939 85.892 255.737 85.892C251.513 85.892 248.873 84.44 248.873 81.976C248.873 79.49 251.513 78.016 255.737 78.016ZM262.359 70.294H265.043V72.67H262.359V77.664H259.455V65.63H262.359V70.294ZM279.869 65.608H282.773V85.936H279.869V65.608ZM271.883 67.038C274.941 67.038 277.207 69.81 277.207 74.254C277.207 78.72 274.941 81.514 271.883 81.514C268.825 81.514 266.559 78.72 266.559 74.254C266.559 69.81 268.825 67.038 271.883 67.038ZM271.883 69.656C270.387 69.656 269.353 71.262 269.353 74.254C269.353 77.268 270.387 78.874 271.883 78.874C273.379 78.874 274.413 77.268 274.413 74.254C274.413 71.262 273.379 69.656 271.883 69.656ZM298.2 76.168V79.468C299.828 79.38 301.456 79.27 302.996 79.116L303.172 81.228C298.838 81.91 294.306 81.954 290.544 81.954L290.192 79.578C291.776 79.578 293.514 79.578 295.296 79.534V76.168H291.49V67.434H301.94V69.744H294.394V73.836H302.072V76.168H298.2ZM304.096 65.63H307V85.936H304.096V65.63ZM315.227 78.874C316.723 78.874 317.713 77.268 317.713 74.254C317.713 71.262 316.723 69.656 315.227 69.656C313.753 69.656 312.763 71.262 312.763 74.254C312.763 77.268 313.753 78.874 315.227 78.874ZM323.785 65.608H326.689V85.936H323.785V75.266H320.419C320.111 79.138 318.043 81.514 315.227 81.514C312.213 81.514 309.991 78.72 309.991 74.254C309.991 69.81 312.213 67.038 315.227 67.038C317.955 67.038 320.001 69.26 320.397 72.912H323.785V65.608ZM334.695 78.874C336.191 78.874 337.225 77.268 337.225 74.254C337.225 71.284 336.191 69.656 334.695 69.656C333.177 69.656 332.165 71.284 332.165 74.254C332.165 77.268 333.177 78.874 334.695 78.874ZM334.695 67.038C337.753 67.038 340.019 69.81 340.019 74.254C340.019 78.72 337.753 81.514 334.695 81.514C331.615 81.514 329.371 78.72 329.371 74.254C329.371 69.81 331.615 67.038 334.695 67.038ZM347.917 72.736H345.123V76.278H347.917V78.654H345.123V85.892H342.219V65.63H345.123V70.36H347.917V72.736ZM354.691 79.38C356.055 79.38 357.045 78.456 357.045 76.894C357.045 75.376 356.055 74.43 354.691 74.43C353.327 74.43 352.315 75.376 352.315 76.916C352.315 78.456 353.327 79.38 354.691 79.38ZM354.691 72.076C357.617 72.076 359.795 74.078 359.795 76.894C359.795 79.754 357.617 81.756 354.691 81.756C351.743 81.756 349.543 79.754 349.543 76.894C349.543 74.078 351.743 72.076 354.691 72.076ZM356.121 65.982V68.622H360.521V70.932H348.729V68.622H353.217V65.982H356.121ZM367.649 73.55V75.948H364.745V85.892H361.841V65.63H364.745V73.55H367.649ZM376.249 69.964V71.086C376.249 74.386 377.877 77.884 381.265 79.292L379.681 81.58C377.327 80.568 375.721 78.588 374.819 76.146C373.917 78.786 372.289 81.008 369.913 82.086L368.263 79.776C371.651 78.258 373.301 74.54 373.301 71.086V69.964H369.077V67.566H380.429V69.964H376.249ZM382.299 65.63H385.203V85.892H382.299V65.63ZM390.658 79.028V75.596C391.831 75.552 392.718 75.332 393.32 74.936C393.936 74.5253 394.244 73.8947 394.244 73.044V72.736C394.244 72.12 394.06 71.6433 393.694 71.306C393.327 70.9687 392.836 70.8 392.22 70.8C391.56 70.8 391.024 70.998 390.614 71.394C390.218 71.7753 389.939 72.274 389.778 72.89L387.424 71.922C387.556 71.4673 387.746 71.0273 387.996 70.602C388.245 70.1767 388.568 69.8027 388.964 69.48C389.36 69.1427 389.836 68.8787 390.394 68.688C390.951 68.4827 391.596 68.38 392.33 68.38C393.078 68.38 393.752 68.49 394.354 68.71C394.955 68.9153 395.468 69.216 395.894 69.612C396.319 69.9933 396.649 70.4553 396.884 70.998C397.118 71.5407 397.236 72.142 397.236 72.802C397.236 73.4473 397.126 74.0267 396.906 74.54C396.7 75.0387 396.414 75.4787 396.048 75.86C395.681 76.2267 395.263 76.5273 394.794 76.762C394.324 76.982 393.84 77.136 393.342 77.224V79.028H390.658ZM392.022 84.264C391.406 84.264 390.958 84.1173 390.68 83.824C390.401 83.5307 390.262 83.1567 390.262 82.702V82.262C390.262 81.8073 390.401 81.4333 390.68 81.14C390.958 80.8467 391.406 80.7 392.022 80.7C392.652 80.7 393.107 80.8467 393.386 81.14C393.664 81.4333 393.804 81.8073 393.804 82.262V82.702C393.804 83.1567 393.664 83.5307 393.386 83.824C393.107 84.1173 392.652 84.264 392.022 84.264ZM400.861 67.5C401.462 67.5 401.895 67.6467 402.159 67.94C402.438 68.2187 402.577 68.5707 402.577 68.996V69.414C402.577 69.81 402.518 70.2133 402.401 70.624C402.298 71.02 402.144 71.4087 401.939 71.79C401.734 72.1713 401.492 72.5307 401.213 72.868C400.934 73.2053 400.634 73.506 400.311 73.77H398.419C398.888 73.33 399.284 72.89 399.607 72.45C399.93 71.9953 400.172 71.4967 400.333 70.954C399.908 70.8807 399.6 70.712 399.409 70.448C399.218 70.1693 399.123 69.8467 399.123 69.48V68.996C399.123 68.5707 399.255 68.2187 399.519 67.94C399.798 67.6467 400.245 67.5 400.861 67.5ZM121.146 109.99C120.545 109.99 120.105 109.851 119.826 109.572C119.562 109.279 119.43 108.919 119.43 108.494V108.076C119.43 107.68 119.489 107.284 119.606 106.888C119.723 106.477 119.877 106.081 120.068 105.7C120.273 105.319 120.515 104.959 120.794 104.622C121.073 104.285 121.373 103.984 121.696 103.72H123.588C123.119 104.175 122.723 104.622 122.4 105.062C122.077 105.502 121.835 105.993 121.674 106.536C122.099 106.624 122.407 106.807 122.598 107.086C122.789 107.35 122.884 107.658 122.884 108.01V108.494C122.884 108.919 122.745 109.279 122.466 109.572C122.202 109.851 121.762 109.99 121.146 109.99ZM128.406 103.874V114.456C129.99 114.412 131.728 114.28 133.664 113.928L133.906 116.37C131.266 116.854 128.934 116.964 126.91 116.964H125.502V103.874H128.406ZM139.296 101.608H142.068V121.87H139.296V111.772H137.47V120.924H134.764V101.982H137.47V109.418H139.296V101.608ZM145.212 103.698H154.76C154.76 109.77 152.45 114.984 145.718 118.394L144.09 116.172C148.798 113.752 151.306 110.54 151.834 106.052H145.212V103.698ZM162.988 109.352V111.75H160.15V121.848H157.246V101.608H160.15V109.352H162.988ZM175.842 111.09V108.208H171.86V111.09H175.842ZM178.702 103.082V113.378H169V103.082H171.86V105.964H175.842V103.082H178.702ZM174.192 115.072V119.23H185.082V121.54H171.288V115.072H174.192ZM184.356 107.35H187.04V109.726H184.356V116.546H181.452V101.63H184.356V107.35ZM200.062 110.826L198.676 113.07C196.454 112.41 194.914 111.068 194.034 109.396C193.132 111.398 191.526 113.004 189.15 113.774L187.698 111.508C190.976 110.408 192.428 107.834 192.472 105.304H188.446V102.972H199.402V105.304H195.442C195.486 107.614 196.872 109.88 200.062 110.826ZM197.312 119.67C199.886 119.67 201.272 119.12 201.272 117.976C201.272 116.81 199.886 116.26 197.312 116.26C194.716 116.26 193.33 116.81 193.33 117.976C193.33 119.12 194.716 119.67 197.312 119.67ZM197.312 114.016C201.514 114.016 204.154 115.49 204.154 117.976C204.154 120.44 201.514 121.892 197.312 121.892C193.088 121.892 190.448 120.44 190.448 117.976C190.448 115.49 193.088 114.016 197.312 114.016ZM203.934 106.294H206.618V108.67H203.934V113.664H201.03V101.63H203.934V106.294ZM221.444 101.608H224.348V121.936H221.444V101.608ZM213.458 103.038C216.516 103.038 218.782 105.81 218.782 110.254C218.782 114.72 216.516 117.514 213.458 117.514C210.4 117.514 208.134 114.72 208.134 110.254C208.134 105.81 210.4 103.038 213.458 103.038ZM213.458 105.656C211.962 105.656 210.928 107.262 210.928 110.254C210.928 113.268 211.962 114.874 213.458 114.874C214.954 114.874 215.988 113.268 215.988 110.254C215.988 107.262 214.954 105.656 213.458 105.656ZM239.776 112.168V115.468C241.404 115.38 243.032 115.27 244.572 115.116L244.748 117.228C240.414 117.91 235.882 117.954 232.12 117.954L231.768 115.578C233.352 115.578 235.09 115.578 236.872 115.534V112.168H233.066V103.434H243.516V105.744H235.97V109.836H243.648V112.168H239.776ZM245.672 101.63H248.576V121.936H245.672V101.63ZM256.802 114.874C258.298 114.874 259.288 113.268 259.288 110.254C259.288 107.262 258.298 105.656 256.802 105.656C255.328 105.656 254.338 107.262 254.338 110.254C254.338 113.268 255.328 114.874 256.802 114.874ZM265.36 101.608H268.264V121.936H265.36V111.266H261.994C261.686 115.138 259.618 117.514 256.802 117.514C253.788 117.514 251.566 114.72 251.566 110.254C251.566 105.81 253.788 103.038 256.802 103.038C259.53 103.038 261.576 105.26 261.972 108.912H265.36V101.608ZM276.27 114.874C277.766 114.874 278.8 113.268 278.8 110.254C278.8 107.284 277.766 105.656 276.27 105.656C274.752 105.656 273.74 107.284 273.74 110.254C273.74 113.268 274.752 114.874 276.27 114.874ZM276.27 103.038C279.328 103.038 281.594 105.81 281.594 110.254C281.594 114.72 279.328 117.514 276.27 117.514C273.19 117.514 270.946 114.72 270.946 110.254C270.946 105.81 273.19 103.038 276.27 103.038ZM289.492 108.736H286.698V112.278H289.492V114.654H286.698V121.892H283.794V101.63H286.698V106.36H289.492V108.736ZM304.084 104.622C301.422 104.622 299.728 105.414 299.728 106.866C299.728 108.34 301.422 109.132 304.084 109.132C306.724 109.132 308.418 108.34 308.418 106.866C308.418 105.414 306.724 104.622 304.084 104.622ZM304.084 111.442C299.75 111.442 296.758 109.66 296.758 106.866C296.758 104.116 299.75 102.312 304.084 102.312C308.396 102.312 311.41 104.116 311.41 106.866C311.41 109.66 308.396 111.442 304.084 111.442ZM313.302 112.96V115.292H305.514V121.914H302.61V115.292H294.954V112.96H313.302ZM318.58 111.178V114.83C321.66 114.808 324.212 114.654 327.072 114.17L327.38 116.524C324.08 117.096 321.11 117.228 317.436 117.228H315.61V108.89H322.188V105.656H315.588V103.346H325.158V111.178H318.58ZM328.48 101.608H331.384V121.936H328.48V101.608ZM341.546 111.09V108.208H337.564V111.09H341.546ZM344.406 103.082V113.378H334.704V103.082H337.564V105.964H341.546V103.082H344.406ZM339.896 115.072V119.23H350.786V121.54H336.992V115.072H339.896ZM350.06 107.35H352.744V109.726H350.06V116.546H347.156V101.63H350.06V107.35ZM367.571 101.608H370.475V121.936H367.571V101.608ZM359.585 103.038C362.643 103.038 364.909 105.81 364.909 110.254C364.909 114.72 362.643 117.514 359.585 117.514C356.527 117.514 354.261 114.72 354.261 110.254C354.261 105.81 356.527 103.038 359.585 103.038ZM359.585 105.656C358.089 105.656 357.055 107.262 357.055 110.254C357.055 113.268 358.089 114.874 359.585 114.874C361.081 114.874 362.115 113.268 362.115 110.254C362.115 107.262 361.081 105.656 359.585 105.656ZM379.632 113.246L378.334 111.024C381.348 110.232 382.778 108.34 382.976 106.316H378.928V104.006H382.998V101.806H385.924V104.006H390.038V106.316H385.946C386.144 108.252 387.618 110.078 390.588 110.848L389.312 113.048C386.98 112.454 385.396 111.156 384.494 109.484C383.592 111.244 381.986 112.608 379.632 113.246ZM385.924 112.652V115.6C387.552 115.49 389.158 115.358 390.698 115.116L390.874 117.228C386.518 118.108 381.744 118.13 378.268 118.152L377.894 115.798C379.39 115.798 381.15 115.798 382.998 115.732V112.652H385.924ZM391.798 101.608H394.702V121.936H391.798V101.608ZM413.158 115.006L410.254 114.676C411.024 110.848 411.068 108.032 411.068 105.678H399.254V103.368H413.972V105.304C413.972 107.834 413.972 110.694 413.158 115.006ZM406.778 117.118H415.732V119.45H397.406V117.118H403.874V110.144H406.778V117.118ZM423.475 102.972C426.643 102.972 429.063 105.062 429.063 107.966C429.063 110.892 426.643 112.96 423.475 112.96C420.307 112.96 417.909 110.892 417.909 107.966C417.909 105.062 420.307 102.972 423.475 102.972ZM423.475 105.458C421.913 105.458 420.725 106.382 420.725 107.966C420.725 109.55 421.913 110.474 423.475 110.474C425.037 110.474 426.225 109.55 426.225 107.966C426.225 106.382 425.037 105.458 423.475 105.458ZM430.955 101.608H433.859V121.936H430.955V101.608ZM417.425 117.822L417.051 115.468C420.615 115.468 425.587 115.446 429.855 114.808L430.031 116.898C425.675 117.778 420.923 117.822 417.425 117.822ZM453.004 103.412V105.7H441.08V103.412H445.568V101.52H448.494V103.412H453.004ZM444.842 110.056C444.842 111.09 445.722 111.596 447.042 111.596C448.34 111.596 449.242 111.09 449.242 110.056C449.242 109.044 448.34 108.538 447.042 108.538C445.722 108.538 444.842 109.044 444.842 110.056ZM452.014 110.056C452.014 112.278 449.968 113.796 447.042 113.796C444.138 113.796 442.07 112.278 442.07 110.056C442.07 107.856 444.138 106.338 447.042 106.338C449.968 106.338 452.014 107.856 452.014 110.056ZM443.522 117.492V115.16H457.03V121.914H454.126V117.492H443.522ZM459.714 106.844V109.242H457.03V114.324H454.126V101.652H457.03V106.844H459.714ZM473.902 119.34V117.514H465.718V119.34H473.902ZM473.902 115.27V113.158H476.806V121.672H462.836V113.158H465.718V115.27H473.902ZM476.41 109.528H479.006V111.86H460.658V109.528H473.528C473.924 107.614 473.99 106.096 473.99 104.754H462.924V102.444H476.85V104.072C476.85 105.656 476.85 107.262 476.41 109.528ZM494.119 101.608H497.023V121.936H494.119V101.608ZM486.133 103.038C489.191 103.038 491.457 105.81 491.457 110.254C491.457 114.72 489.191 117.514 486.133 117.514C483.075 117.514 480.809 114.72 480.809 110.254C480.809 105.81 483.075 103.038 486.133 103.038ZM486.133 105.656C484.637 105.656 483.603 107.262 483.603 110.254C483.603 113.268 484.637 114.874 486.133 114.874C487.629 114.874 488.663 113.268 488.663 110.254C488.663 107.262 487.629 105.656 486.133 105.656ZM521.272 101.63V112.256H518.368V101.63H521.272ZM517.268 109.462L517.444 111.442C513.176 112.058 508.622 112.124 504.816 112.124L504.464 109.946C506.07 109.946 507.83 109.924 509.612 109.88V108.538H506.202V102.422H515.86V104.622H509.172V106.338H516.036V108.538H512.538V109.792C514.144 109.726 515.75 109.616 517.268 109.462ZM510.404 119.494H521.734V121.738H507.544V116.282H518.412V115.204H507.5V112.982H521.272V118.372H510.404V119.494ZM546.138 108.824L545.038 111.156C541.496 110.628 538.966 108.978 537.668 106.8C536.37 108.978 533.818 110.628 530.276 111.156L529.176 108.824C533.796 108.186 536.106 105.568 536.106 103.192V102.224H539.208V103.192C539.208 105.546 541.54 108.186 546.138 108.824ZM546.798 112.652V115.006H539.032V121.914H536.128V115.006H528.494V112.652H546.798ZM569.419 101.63V113.092H566.493V101.63H569.419ZM558.375 105.084C556.835 105.084 555.713 106.008 555.713 107.526C555.713 109.044 556.835 109.968 558.375 109.968C559.915 109.968 561.059 109.044 561.059 107.526C561.059 106.008 559.915 105.084 558.375 105.084ZM558.375 112.388C555.251 112.388 552.875 110.364 552.875 107.526C552.875 104.688 555.251 102.664 558.375 102.664C561.543 102.664 563.897 104.688 563.897 107.526C563.897 110.364 561.543 112.388 558.375 112.388ZM567.373 113.928V114.61C567.373 116.7 568.473 118.658 571.157 119.472L569.749 121.584C567.835 120.946 566.581 119.736 565.899 118.196C565.239 119.736 564.073 121.078 562.225 121.804C560.377 121.122 559.211 119.802 558.551 118.262C557.847 119.736 556.615 120.924 554.789 121.584L553.359 119.472C556.043 118.57 557.143 116.568 557.143 114.61V113.928H559.959V114.61C559.959 116.216 560.597 117.888 562.203 119.01C563.831 117.8 564.513 116.106 564.513 114.61V113.928H567.373ZM577.711 114.874C579.207 114.874 580.197 113.268 580.197 110.254C580.197 107.262 579.207 105.656 577.711 105.656C576.237 105.656 575.247 107.262 575.247 110.254C575.247 113.268 576.237 114.874 577.711 114.874ZM586.269 101.608H589.173V121.936H586.269V111.266H582.903C582.595 115.138 580.527 117.514 577.711 117.514C574.697 117.514 572.475 114.72 572.475 110.254C572.475 105.81 574.697 103.038 577.711 103.038C580.439 103.038 582.485 105.26 582.881 108.912H586.269V101.608ZM594.078 120.242C593.476 120.242 593.029 120.095 592.736 119.802C592.457 119.494 592.318 119.105 592.318 118.636V118.24C592.318 117.771 592.457 117.382 592.736 117.074C593.029 116.766 593.476 116.612 594.078 116.612C594.694 116.612 595.141 116.766 595.42 117.074C595.698 117.382 595.838 117.771 595.838 118.24V118.636C595.838 119.105 595.698 119.494 595.42 119.802C595.141 120.095 594.694 120.242 594.078 120.242ZM126.338 146.782V141.59H122.378V146.782H126.338ZM129.198 139.302V149.07H119.54V139.302H129.198ZM124.732 150.962V155.23H135.622V157.54H121.828V150.962H124.732ZM134.896 143.482H137.58V145.858H134.896V152.414H131.992V137.63H134.896V143.482ZM141.516 143.702C141.516 145.264 142.638 146.21 144.178 146.21C145.696 146.21 146.84 145.264 146.84 143.702C146.84 142.118 145.696 141.194 144.178 141.194C142.638 141.194 141.516 142.118 141.516 143.702ZM149.656 143.702C149.656 146.584 147.28 148.652 144.178 148.652C141.054 148.652 138.678 146.584 138.678 143.702C138.678 140.82 141.054 138.73 144.178 138.73C147.28 138.73 149.656 140.82 149.656 143.702ZM140.966 152.722V150.39H154.474V157.914H151.57V152.722H140.966ZM157.07 142.624H154.474V144.648H157.07V147.024H154.474V149.576H151.57V137.63H154.474V140.27H157.07V142.624ZM166.162 139.544V150.5C168.714 150.434 171.464 150.214 174.302 149.664L174.588 152.04C171.222 152.744 167.966 152.92 165.018 152.92H163.258V139.544H166.162ZM181.342 145.264V147.662H178.504V157.848H175.6V137.608H178.504V145.264H181.342ZM195.464 140.93V139.94H184.464V137.982H198.324V142.756H187.368V143.812H198.676V145.77H184.508V140.93H195.464ZM187.192 154.658V155.758H198.94V157.716H184.31V152.832H195.508V151.798H184.288V149.84H198.39V154.658H187.192ZM182.22 146.738H200.568V148.828H182.22V146.738ZM219.56 155.406V153.976H211.354V155.406H219.56ZM219.56 151.776V150.412H222.464V157.65H208.472V150.412H211.354V151.776H219.56ZM218.834 141.832V143.35H220.418V141.832H218.834ZM212.168 143.35V141.832H210.562V143.35H212.168ZM216.92 147.068H224.642V149.378H206.338V147.068H214.016V145.594H207.812V137.982H210.562V139.72H212.168V137.982H214.896V144.978H216.106V137.982H218.834V139.72H220.418V137.982H223.146V145.594H216.92V147.068ZM233.748 141.964V143.086C233.748 146.386 235.376 149.884 238.764 151.292L237.18 153.58C234.826 152.568 233.22 150.588 232.318 148.146C231.416 150.786 229.788 153.008 227.412 154.086L225.762 151.776C229.15 150.258 230.8 146.54 230.8 143.086V141.964H226.576V139.566H237.928V141.964H233.748ZM239.798 137.63H242.702V157.892H239.798V137.63ZM252.981 143.35C252.981 144.824 254.081 145.704 255.577 145.704C257.073 145.704 258.173 144.824 258.173 143.35C258.173 141.854 257.073 140.974 255.577 140.974C254.081 140.974 252.981 141.854 252.981 143.35ZM260.967 143.35C260.967 146.1 258.657 148.08 255.577 148.08C252.497 148.08 250.187 146.1 250.187 143.35C250.187 140.578 252.497 138.598 255.577 138.598C258.657 138.598 260.967 140.578 260.967 143.35ZM254.631 149.554V155.01C255.709 154.922 256.765 154.746 257.777 154.416L258.173 156.704C256.501 157.276 254.917 157.386 252.937 157.386H251.815V149.554H254.631ZM262.529 155.956C263.321 155.956 263.871 155.67 263.871 155.054C263.871 154.46 263.321 154.174 262.529 154.174C261.759 154.174 261.187 154.46 261.187 155.054C261.187 155.67 261.759 155.956 262.529 155.956ZM262.529 152.216C264.839 152.216 266.445 153.316 266.445 155.054C266.445 156.814 264.839 157.914 262.529 157.914C260.219 157.914 258.613 156.814 258.613 155.054C258.613 153.316 260.219 152.216 262.529 152.216ZM263.959 148.19V149.62H267.589V151.71H257.447V149.62H261.143V148.19H263.959ZM265.961 141.81H268.645V144.208H265.961V147.596H263.057V137.63H265.961V141.81ZM285.936 143.108V145.418H271.878V138.356H274.782V143.108H285.936ZM274.606 151.424V155.142H286.046V157.452H271.68V151.424H274.606ZM269.612 147.486H287.96V149.818H269.612V147.486ZM299.163 150.874C300.659 150.874 301.693 149.268 301.693 146.254C301.693 143.262 300.659 141.656 299.163 141.656C297.645 141.656 296.633 143.262 296.633 146.254C296.633 149.268 297.645 150.874 299.163 150.874ZM299.163 139.038C302.221 139.038 304.487 141.81 304.487 146.254C304.487 150.72 302.221 153.514 299.163 153.514C296.083 153.514 293.839 150.72 293.839 146.254C293.839 141.81 296.083 139.038 299.163 139.038ZM312.539 145.264V147.662H309.591V157.892H306.687V137.63H309.591V145.264H312.539ZM327.189 137.608H330.093V157.936H327.189V137.608ZM319.203 139.038C322.261 139.038 324.527 141.81 324.527 146.254C324.527 150.72 322.261 153.514 319.203 153.514C316.145 153.514 313.879 150.72 313.879 146.254C313.879 141.81 316.145 139.038 319.203 139.038ZM319.203 141.656C317.707 141.656 316.673 143.262 316.673 146.254C316.673 149.268 317.707 150.874 319.203 150.874C320.699 150.874 321.733 149.268 321.733 146.254C321.733 143.262 320.699 141.656 319.203 141.656ZM333.81 139.698H343.358C343.358 145.77 341.048 150.984 334.316 154.394L332.688 152.172C337.396 149.752 339.904 146.54 340.432 142.052H333.81V139.698ZM351.586 145.352V147.75H348.748V157.848H345.844V137.608H348.748V145.352H351.586ZM373.833 137.63V149.092H370.907V137.63H373.833ZM362.789 141.084C361.249 141.084 360.127 142.008 360.127 143.526C360.127 145.044 361.249 145.968 362.789 145.968C364.329 145.968 365.473 145.044 365.473 143.526C365.473 142.008 364.329 141.084 362.789 141.084ZM362.789 148.388C359.665 148.388 357.289 146.364 357.289 143.526C357.289 140.688 359.665 138.664 362.789 138.664C365.957 138.664 368.311 140.688 368.311 143.526C368.311 146.364 365.957 148.388 362.789 148.388ZM371.787 149.928V150.61C371.787 152.7 372.887 154.658 375.571 155.472L374.163 157.584C372.249 156.946 370.995 155.736 370.313 154.196C369.653 155.736 368.487 157.078 366.639 157.804C364.791 157.122 363.625 155.802 362.965 154.262C362.261 155.736 361.029 156.924 359.203 157.584L357.773 155.472C360.457 154.57 361.557 152.568 361.557 150.61V149.928H364.373V150.61C364.373 152.216 365.011 153.888 366.617 155.01C368.245 153.8 368.927 152.106 368.927 150.61V149.928H371.787ZM380.255 141.854V150.654C383.137 150.61 385.535 150.456 388.153 150.016L388.439 152.414C385.381 152.964 382.609 153.074 379.089 153.074H377.373V139.5H386.811V141.854H380.255ZM395.391 145.11V147.508H392.443V157.936H389.539V137.63H392.443V145.11H395.391ZM403.706 146.87V141.524H399.856V146.87H403.706ZM410.196 143.13H406.544V145.176H410.196V143.13ZM406.544 147.486V149.158H396.996V139.258H406.544V140.82H410.196V137.63H413.1V152.392H410.196V147.486H406.544ZM402.628 155.23H413.54V157.54H399.724V151.006H402.628V155.23ZM433.455 141.898V141.81H422.169V139.5H436.359V141.898C436.359 144.736 436.359 147.508 435.611 151.666L432.729 151.402C433.455 147.53 433.455 144.648 433.455 141.898ZM420.277 152.876H438.603V155.252H420.277V152.876ZM448.971 151.05C450.049 151.05 450.709 149.532 450.709 146.408C450.709 143.306 450.049 141.788 448.971 141.788C447.849 141.788 447.211 143.306 447.211 146.408C447.211 149.532 447.849 151.05 448.971 151.05ZM448.971 139.06C451.633 139.06 453.349 141.832 453.349 146.408C453.349 151.006 451.633 153.778 448.971 153.778C446.265 153.778 444.571 151.006 444.571 146.408C444.571 141.832 446.265 139.06 448.971 139.06ZM459.025 137.608H461.775V157.87H459.025V147.684H457.331V156.99H454.625V137.96H457.331V145.352H459.025V137.608ZM480.297 143.108V145.418H466.239V138.356H469.143V143.108H480.297ZM468.967 151.424V155.142H480.407V157.452H466.041V151.424H468.967ZM463.973 147.486H482.321V149.818H463.973V147.486ZM128.076 176.622C125.414 176.622 123.72 177.414 123.72 178.866C123.72 180.34 125.414 181.132 128.076 181.132C130.716 181.132 132.41 180.34 132.41 178.866C132.41 177.414 130.716 176.622 128.076 176.622ZM128.076 183.442C123.742 183.442 120.75 181.66 120.75 178.866C120.75 176.116 123.742 174.312 128.076 174.312C132.388 174.312 135.402 176.116 135.402 178.866C135.402 181.66 132.388 183.442 128.076 183.442ZM137.294 184.96V187.292H129.506V193.914H126.602V187.292H118.946V184.96H137.294ZM142.572 183.178V186.83C145.652 186.808 148.204 186.654 151.064 186.17L151.372 188.524C148.072 189.096 145.102 189.228 141.428 189.228H139.602V180.89H146.18V177.656H139.58V175.346H149.15V183.178H142.572ZM152.472 173.608H155.376V193.936H152.472V173.608ZM165.539 183.09V180.208H161.557V183.09H165.539ZM168.399 175.082V185.378H158.697V175.082H161.557V177.964H165.539V175.082H168.399ZM163.889 187.072V191.23H174.779V193.54H160.985V187.072H163.889ZM174.053 179.35H176.737V181.726H174.053V188.546H171.149V173.63H174.053V179.35ZM186.833 176.05C183.907 176.05 182.521 176.468 182.521 177.37C182.521 178.316 183.907 178.712 186.833 178.712C189.781 178.712 191.167 178.316 191.167 177.37C191.167 176.468 189.781 176.05 186.833 176.05ZM186.833 180.824C182.213 180.824 179.507 179.614 179.507 177.37C179.507 175.148 182.213 173.916 186.833 173.916C191.475 173.916 194.181 175.148 194.181 177.37C194.181 179.614 191.475 180.824 186.833 180.824ZM182.675 190.416V191.56H194.291V193.738H179.793V188.414H190.903V187.336H179.771V185.202H193.763V190.416H182.675ZM177.681 181.792H195.985V184.058H177.681V181.792ZM209.256 175.192V178.14C209.256 181.792 210.686 185.466 213.942 187.072L212.182 189.36C210.07 188.282 208.64 186.324 207.804 183.904C206.924 186.478 205.406 188.612 203.118 189.734L201.38 187.38C204.79 185.774 206.33 181.902 206.33 178.14V175.192H209.256ZM220.608 181.418V183.838H217.66V193.892H214.756V173.63H217.66V181.418H220.608ZM222.103 178.756H228.461V177.15H222.081V174.818H231.321V180.912H224.985V182.672C228.285 182.65 230.507 182.518 233.037 182.056L233.279 184.388C230.463 184.916 227.889 185.004 223.841 185.004H222.103V178.756ZM230.661 191.692C233.301 191.692 234.665 191.186 234.665 190.064C234.665 188.942 233.301 188.436 230.661 188.436C228.021 188.436 226.657 188.942 226.657 190.064C226.657 191.186 228.021 191.692 230.661 191.692ZM230.661 186.214C234.885 186.214 237.525 187.622 237.525 190.064C237.525 192.484 234.885 193.914 230.661 193.914C226.437 193.914 223.797 192.484 223.797 190.064C223.797 187.622 226.437 186.214 230.661 186.214ZM237.327 178.36H240.011V180.736H237.327V185.796H234.423V173.652H237.327V178.36ZM246.807 187.38C248.171 187.38 249.161 186.456 249.161 184.894C249.161 183.376 248.171 182.43 246.807 182.43C245.443 182.43 244.431 183.376 244.431 184.916C244.431 186.456 245.443 187.38 246.807 187.38ZM246.807 180.076C249.733 180.076 251.911 182.078 251.911 184.894C251.911 187.754 249.733 189.756 246.807 189.756C243.859 189.756 241.659 187.754 241.659 184.894C241.659 182.078 243.859 180.076 246.807 180.076ZM248.237 173.982V176.622H252.637V178.932H240.845V176.622H245.333V173.982H248.237ZM259.765 181.55V183.948H256.861V193.892H253.957V173.63H256.861V181.55H259.765ZM268.365 177.964V179.086C268.365 182.386 269.993 185.884 273.381 187.292L271.797 189.58C269.443 188.568 267.837 186.588 266.935 184.146C266.033 186.786 264.405 189.008 262.029 190.086L260.379 187.776C263.767 186.258 265.417 182.54 265.417 179.086V177.964H261.193V175.566H272.545V177.964H268.365ZM274.415 173.63H277.319V193.892H274.415V173.63ZM287.599 179.35C287.599 180.824 288.699 181.704 290.195 181.704C291.691 181.704 292.791 180.824 292.791 179.35C292.791 177.854 291.691 176.974 290.195 176.974C288.699 176.974 287.599 177.854 287.599 179.35ZM295.585 179.35C295.585 182.1 293.275 184.08 290.195 184.08C287.115 184.08 284.805 182.1 284.805 179.35C284.805 176.578 287.115 174.598 290.195 174.598C293.275 174.598 295.585 176.578 295.585 179.35ZM289.249 185.554V191.01C290.327 190.922 291.383 190.746 292.395 190.416L292.791 192.704C291.119 193.276 289.535 193.386 287.555 193.386H286.433V185.554H289.249ZM297.147 191.956C297.939 191.956 298.489 191.67 298.489 191.054C298.489 190.46 297.939 190.174 297.147 190.174C296.377 190.174 295.805 190.46 295.805 191.054C295.805 191.67 296.377 191.956 297.147 191.956ZM297.147 188.216C299.457 188.216 301.063 189.316 301.063 191.054C301.063 192.814 299.457 193.914 297.147 193.914C294.837 193.914 293.231 192.814 293.231 191.054C293.231 189.316 294.837 188.216 297.147 188.216ZM298.577 184.19V185.62H302.207V187.71H292.065V185.62H295.761V184.19H298.577ZM300.579 177.81H303.263V180.208H300.579V183.596H297.675V173.63H300.579V177.81ZM320.553 179.108V181.418H306.495V174.356H309.399V179.108H320.553ZM309.223 187.424V191.142H320.663V193.452H306.297V187.424H309.223ZM304.229 183.486H322.577V185.818H304.229V183.486ZM324.533 175.72H334.059C334.059 181.836 332.101 186.896 325.105 190.394L323.565 188.15C328.625 185.598 330.715 182.452 331.111 178.03H324.533V175.72ZM337.843 173.63H340.747V193.892H337.843V183.75H333.927V181.396H337.843V173.63ZM348.82 186.874C350.316 186.874 351.35 185.268 351.35 182.254C351.35 179.284 350.316 177.656 348.82 177.656C347.302 177.656 346.29 179.284 346.29 182.254C346.29 185.268 347.302 186.874 348.82 186.874ZM348.82 175.038C351.878 175.038 354.144 177.81 354.144 182.254C354.144 186.72 351.878 189.514 348.82 189.514C345.74 189.514 343.496 186.72 343.496 182.254C343.496 177.81 345.74 175.038 348.82 175.038ZM362.042 180.736H359.248V184.278H362.042V186.654H359.248V193.892H356.344V173.63H359.248V178.36H362.042V180.736ZM365.296 175.5C365.897 175.5 366.33 175.647 366.594 175.94C366.872 176.219 367.012 176.571 367.012 176.996V177.414C367.012 177.81 366.953 178.213 366.836 178.624C366.733 179.02 366.579 179.409 366.374 179.79C366.168 180.171 365.926 180.531 365.648 180.868C365.369 181.205 365.068 181.506 364.746 181.77H362.854C363.323 181.33 363.719 180.89 364.042 180.45C364.364 179.995 364.606 179.497 364.768 178.954C364.342 178.881 364.034 178.712 363.844 178.448C363.653 178.169 363.558 177.847 363.558 177.48V176.996C363.558 176.571 363.69 176.219 363.954 175.94C364.232 175.647 364.68 175.5 365.296 175.5Z" fill="white"/>
<rect x="156" y="378" width="483" height="160" rx="4" fill="#4857F6"/>
<path d="M188.39 423.264C187.29 423.264 186.366 423.081 185.618 422.714C184.87 422.333 184.21 421.812 183.638 421.152L185.354 419.48C185.779 419.964 186.241 420.345 186.74 420.624C187.253 420.903 187.84 421.042 188.5 421.042C189.175 421.042 189.659 420.925 189.952 420.69C190.26 420.455 190.414 420.133 190.414 419.722C190.414 419.385 190.304 419.121 190.084 418.93C189.879 418.725 189.519 418.585 189.006 418.512L187.862 418.358C186.615 418.197 185.662 417.845 185.002 417.302C184.357 416.745 184.034 415.938 184.034 414.882C184.034 414.325 184.137 413.826 184.342 413.386C184.547 412.931 184.841 412.55 185.222 412.242C185.603 411.919 186.058 411.677 186.586 411.516C187.129 411.34 187.73 411.252 188.39 411.252C188.947 411.252 189.439 411.296 189.864 411.384C190.304 411.457 190.7 411.575 191.052 411.736C191.404 411.883 191.727 412.073 192.02 412.308C192.313 412.528 192.599 412.777 192.878 413.056L191.228 414.706C190.891 414.354 190.487 414.061 190.018 413.826C189.549 413.591 189.035 413.474 188.478 413.474C187.862 413.474 187.415 413.584 187.136 413.804C186.872 414.024 186.74 414.31 186.74 414.662C186.74 415.043 186.85 415.337 187.07 415.542C187.305 415.733 187.693 415.872 188.236 415.96L189.402 416.114C191.881 416.466 193.12 417.595 193.12 419.502C193.12 420.059 193.003 420.573 192.768 421.042C192.548 421.497 192.233 421.893 191.822 422.23C191.411 422.553 190.913 422.809 190.326 423C189.754 423.176 189.109 423.264 188.39 423.264ZM199.501 423.264C198.679 423.264 197.939 423.125 197.279 422.846C196.633 422.567 196.076 422.164 195.607 421.636C195.152 421.108 194.8 420.477 194.551 419.744C194.301 418.996 194.177 418.16 194.177 417.236C194.177 416.312 194.301 415.483 194.551 414.75C194.8 414.017 195.152 413.393 195.607 412.88C196.076 412.352 196.633 411.949 197.279 411.67C197.939 411.391 198.679 411.252 199.501 411.252C200.322 411.252 201.063 411.391 201.723 411.67C202.383 411.949 202.94 412.352 203.395 412.88C203.864 413.393 204.223 414.017 204.473 414.75C204.722 415.483 204.847 416.312 204.847 417.236C204.847 418.16 204.722 418.996 204.473 419.744C204.223 420.477 203.864 421.108 203.395 421.636C202.94 422.164 202.383 422.567 201.723 422.846C201.063 423.125 200.322 423.264 199.501 423.264ZM199.501 420.998C200.249 420.998 200.835 420.771 201.261 420.316C201.686 419.861 201.899 419.194 201.899 418.314V416.18C201.899 415.315 201.686 414.655 201.261 414.2C200.835 413.745 200.249 413.518 199.501 413.518C198.767 413.518 198.188 413.745 197.763 414.2C197.337 414.655 197.125 415.315 197.125 416.18V418.314C197.125 419.194 197.337 419.861 197.763 420.316C198.188 420.771 198.767 420.998 199.501 420.998ZM209.499 423C208.531 423 207.82 422.758 207.365 422.274C206.91 421.79 206.683 421.108 206.683 420.228V406.72H209.499V420.756H211.017V423H209.499ZM219.354 421.086H219.244C219.141 421.379 219.002 421.658 218.826 421.922C218.664 422.171 218.452 422.399 218.188 422.604C217.938 422.809 217.63 422.971 217.264 423.088C216.912 423.205 216.501 423.264 216.032 423.264C214.844 423.264 213.934 422.875 213.304 422.098C212.673 421.321 212.358 420.213 212.358 418.776V411.516H215.174V418.49C215.174 419.282 215.328 419.891 215.636 420.316C215.944 420.727 216.435 420.932 217.11 420.932C217.388 420.932 217.66 420.895 217.924 420.822C218.202 420.749 218.444 420.639 218.65 420.492C218.855 420.331 219.024 420.14 219.156 419.92C219.288 419.685 219.354 419.414 219.354 419.106V411.516H222.17V423H219.354V421.086ZM228.349 423C227.381 423 226.641 422.751 226.127 422.252C225.629 421.739 225.379 421.013 225.379 420.074V413.76H223.685V411.516H224.565C224.991 411.516 225.277 411.421 225.423 411.23C225.585 411.025 225.665 410.724 225.665 410.328V408.37H228.195V411.516H230.549V413.76H228.195V420.756H230.373V423H228.349ZM233.74 409.844C233.153 409.844 232.728 409.712 232.464 409.448C232.215 409.184 232.09 408.847 232.09 408.436V407.996C232.09 407.585 232.215 407.248 232.464 406.984C232.728 406.72 233.153 406.588 233.74 406.588C234.312 406.588 234.73 406.72 234.994 406.984C235.258 407.248 235.39 407.585 235.39 407.996V408.436C235.39 408.847 235.258 409.184 234.994 409.448C234.73 409.712 234.312 409.844 233.74 409.844ZM232.332 411.516H235.148V423H232.332V411.516ZM242.306 423.264C241.485 423.264 240.744 423.125 240.084 422.846C239.439 422.567 238.881 422.164 238.412 421.636C237.957 421.108 237.605 420.477 237.356 419.744C237.107 418.996 236.982 418.16 236.982 417.236C236.982 416.312 237.107 415.483 237.356 414.75C237.605 414.017 237.957 413.393 238.412 412.88C238.881 412.352 239.439 411.949 240.084 411.67C240.744 411.391 241.485 411.252 242.306 411.252C243.127 411.252 243.868 411.391 244.528 411.67C245.188 411.949 245.745 412.352 246.2 412.88C246.669 413.393 247.029 414.017 247.278 414.75C247.527 415.483 247.652 416.312 247.652 417.236C247.652 418.16 247.527 418.996 247.278 419.744C247.029 420.477 246.669 421.108 246.2 421.636C245.745 422.164 245.188 422.567 244.528 422.846C243.868 423.125 243.127 423.264 242.306 423.264ZM242.306 420.998C243.054 420.998 243.641 420.771 244.066 420.316C244.491 419.861 244.704 419.194 244.704 418.314V416.18C244.704 415.315 244.491 414.655 244.066 414.2C243.641 413.745 243.054 413.518 242.306 413.518C241.573 413.518 240.993 413.745 240.568 414.2C240.143 414.655 239.93 415.315 239.93 416.18V418.314C239.93 419.194 240.143 419.861 240.568 420.316C240.993 420.771 241.573 420.998 242.306 420.998ZM249.488 423V411.516H252.304V413.43H252.414C252.649 412.814 253.016 412.301 253.514 411.89C254.028 411.465 254.732 411.252 255.626 411.252C256.814 411.252 257.724 411.641 258.354 412.418C258.985 413.195 259.3 414.303 259.3 415.74V423H256.484V416.026C256.484 415.205 256.338 414.589 256.044 414.178C255.751 413.767 255.267 413.562 254.592 413.562C254.299 413.562 254.013 413.606 253.734 413.694C253.47 413.767 253.228 413.885 253.008 414.046C252.803 414.193 252.634 414.383 252.502 414.618C252.37 414.838 252.304 415.102 252.304 415.41V423H249.488ZM186.41 459.264C185.867 459.264 185.464 459.125 185.2 458.846C184.936 458.553 184.804 458.193 184.804 457.768V457.438C184.804 457.013 184.936 456.661 185.2 456.382C185.464 456.089 185.867 455.942 186.41 455.942C186.953 455.942 187.356 456.089 187.62 456.382C187.884 456.661 188.016 457.013 188.016 457.438V457.768C188.016 458.193 187.884 458.553 187.62 458.846C187.356 459.125 186.953 459.264 186.41 459.264ZM186.41 450.618C185.867 450.618 185.464 450.479 185.2 450.2C184.936 449.907 184.804 449.547 184.804 449.122V448.792C184.804 448.367 184.936 448.015 185.2 447.736C185.464 447.443 185.867 447.296 186.41 447.296C186.953 447.296 187.356 447.443 187.62 447.736C187.884 448.015 188.016 448.367 188.016 448.792V449.122C188.016 449.547 187.884 449.907 187.62 450.2C187.356 450.479 186.953 450.618 186.41 450.618ZM208.54 444.964V444.458H196.792V442.984H210.322V444.964C210.322 447.472 210.322 450.31 209.552 454.578L207.748 454.38C208.54 450.354 208.54 447.406 208.54 444.964ZM194.878 456.25H212.72V457.746H194.878V456.25ZM233.317 440.894H235.121V460.672H233.317V440.894ZM224.715 442.412C227.641 442.412 229.731 445.096 229.731 449.298C229.731 453.5 227.641 456.184 224.715 456.184C221.789 456.184 219.699 453.5 219.699 449.298C219.699 445.096 221.789 442.412 224.715 442.412ZM224.715 444.04C222.779 444.04 221.415 446.108 221.415 449.298C221.415 452.51 222.779 454.578 224.715 454.578C226.629 454.578 227.993 452.51 227.993 449.298C227.993 446.108 226.629 444.04 224.715 444.04ZM243.81 454.578C245.702 454.578 247.044 452.488 247.044 449.276C247.044 446.108 245.702 444.04 243.81 444.04C241.896 444.04 240.554 446.108 240.554 449.276C240.554 452.488 241.896 454.578 243.81 454.578ZM243.81 442.412C246.714 442.412 248.76 445.096 248.76 449.276C248.76 453.5 246.714 456.184 243.81 456.184C240.906 456.184 238.838 453.5 238.838 449.276C238.838 445.096 240.906 442.412 243.81 442.412ZM256.878 447.362H253.732V451.74H256.878V453.236H253.732V460.628H251.928V440.916H253.732V445.866H256.878V447.362ZM259.296 443.028H268.536C268.536 448.726 265.918 453.742 259.362 456.954L258.394 455.48C263.696 452.95 266.336 449.166 266.71 444.48H259.296V443.028ZM272.518 440.894H274.322V460.628H272.518V440.894ZM293.526 446.834V448.308H280.106V441.62H281.91V446.834H293.526ZM281.778 454.38V458.67H293.636V460.144H279.974V454.38H281.778ZM277.686 450.948H295.572V452.4H277.686V450.948ZM310.01 450.64V447.032H304.422V450.64H310.01ZM311.77 442.324V452.092H302.64V442.324H304.422V445.624H310.01V442.324H311.77ZM306.666 454.006V458.714H318.018V460.188H304.862V454.006H306.666ZM317.138 446.878H320.042V448.396H317.138V455.392H315.334V440.916H317.138V446.878ZM329.588 450.024V446.636H324V450.024H329.588ZM331.348 442.148V451.476H322.218V442.148H324V445.228H329.588V442.148H331.348ZM323.89 455.326V453.874H336.716V460.65H334.912V455.326H323.89ZM339.642 446.02V447.516H336.716V452.818H334.912V440.916H336.716V446.02H339.642ZM349.892 442.588C346.658 442.588 344.81 443.336 344.81 444.656C344.81 445.976 346.658 446.724 349.892 446.724C353.126 446.724 354.974 445.976 354.974 444.656C354.974 443.336 353.126 442.588 349.892 442.588ZM349.892 448.066C345.558 448.066 342.962 446.878 342.962 444.656C342.962 442.434 345.558 441.224 349.892 441.224C354.226 441.224 356.822 442.434 356.822 444.656C356.822 446.878 354.226 448.066 349.892 448.066ZM344.942 456.998V459H357.13V460.408H343.182V455.678H354.754V453.918H343.116V452.554H356.536V456.998H344.942ZM340.96 449.408H358.824V450.86H340.96V449.408ZM377.618 443.314V444.766H365.628V443.314H370.732V440.894H372.536V443.314H377.618ZM368.598 449.54C368.598 450.904 369.83 451.784 371.634 451.784C373.416 451.784 374.648 450.904 374.648 449.54C374.648 448.154 373.416 447.274 371.634 447.274C369.83 447.274 368.598 448.154 368.598 449.54ZM372.536 453.148V455.216C374.406 455.128 376.32 454.996 378.124 454.754L378.256 456.096C373.856 456.822 369.104 456.888 365.474 456.888L365.21 455.37C366.882 455.37 368.774 455.348 370.732 455.282V453.17C368.4 452.884 366.882 451.52 366.882 449.54C366.882 447.318 368.818 445.888 371.634 445.888C374.45 445.888 376.364 447.318 376.364 449.54C376.364 451.498 374.868 452.862 372.536 453.148ZM379.378 440.894H381.182V460.628H379.378V440.894ZM389.1 444.48V454.182C390.178 454.16 391.278 454.116 392.4 454.072V444.48H389.1ZM394.16 444.48V453.962C395.238 453.918 396.316 453.808 397.35 453.676L397.46 454.996C393.214 455.678 388.462 455.722 384.876 455.744L384.678 454.226C385.514 454.226 386.416 454.226 387.362 454.204V444.48H385.162V443.028H396.338V444.48H394.16ZM399.066 440.916H400.87V460.628H399.066V440.916ZM410.042 454.732C411.846 454.732 413.144 453.456 413.144 451.696C413.144 449.914 411.846 448.638 410.042 448.638C408.26 448.638 406.962 449.914 406.962 451.696C406.962 453.456 408.26 454.732 410.042 454.732ZM410.042 447.142C412.858 447.142 414.86 449.034 414.86 451.696C414.86 454.38 412.858 456.228 410.042 456.228C407.27 456.228 405.268 454.38 405.268 451.696C405.268 449.034 407.27 447.142 410.042 447.142ZM410.922 441.136V444.062H415.784V445.514H404.146V444.062H409.118V441.136H410.922ZM422.692 449.012V450.53H419.458V460.628H417.654V440.916H419.458V449.012H422.692ZM439.653 446.834V448.308H426.233V441.62H428.037V446.834H439.653ZM427.905 454.38V458.67H439.763V460.144H426.101V454.38H427.905ZM423.813 450.948H441.699V452.4H423.813V450.948ZM456.07 448.484V443.446H450.526V448.484H456.07ZM457.83 442.016V449.914H448.766V442.016H457.83ZM452.55 456.712V458.912H463.99V460.364H450.79V455.37H461.482V453.302H450.724V451.872H463.264V456.712H452.55ZM463.264 445.14H466.19V446.636H463.264V450.948H461.46V440.916H463.264V445.14ZM477.328 454.578C479.22 454.578 480.562 452.51 480.562 449.298C480.562 446.108 479.22 444.04 477.328 444.04C475.414 444.04 474.072 446.108 474.072 449.298C474.072 452.51 475.414 454.578 477.328 454.578ZM477.328 442.412C480.232 442.412 482.278 445.096 482.278 449.298C482.278 453.5 480.232 456.184 477.328 456.184C474.424 456.184 472.356 453.5 472.356 449.298C472.356 445.096 474.424 442.412 477.328 442.412ZM490.506 448.77V450.288H487.25V460.628H485.446V440.916H487.25V448.77H490.506ZM507.84 440.894V450.75H506.036V440.894H507.84ZM503.88 447.494L504.144 448.946C500.91 449.606 498.05 449.826 494.442 449.826H492.858V441.84H494.662V448.352C498.072 448.352 500.866 448.11 503.88 447.494ZM496.906 458.934H508.5V460.364H495.102V455.282H506.036V453.192H495.058V451.784H507.84V456.624H496.906V458.934ZM511.798 443.028H517.144C517.144 447.78 516.154 452.4 512.568 456.184L511.16 455.172C514.086 452.136 515.23 448.484 515.428 444.524H511.798V443.028ZM517.804 443.028H522.534C522.534 447.78 521.852 453.214 518.222 457.504L516.77 456.514C519.806 453.016 520.686 448.704 520.84 444.524H517.804V443.028ZM529.662 449.034V450.53H526.736V460.628H524.932V440.894H526.736V449.034H529.662ZM533.378 454.182V450.684C534.566 450.625 535.476 450.376 536.106 449.936C536.752 449.481 537.074 448.814 537.074 447.934V447.626C537.074 446.951 536.869 446.431 536.458 446.064C536.048 445.683 535.498 445.492 534.808 445.492C534.075 445.492 533.488 445.705 533.048 446.13C532.608 446.555 532.308 447.098 532.146 447.758L530.056 446.922C530.188 446.467 530.379 446.027 530.628 445.602C530.892 445.177 531.222 444.803 531.618 444.48C532.014 444.143 532.484 443.879 533.026 443.688C533.569 443.483 534.192 443.38 534.896 443.38C535.615 443.38 536.268 443.483 536.854 443.688C537.441 443.893 537.94 444.187 538.35 444.568C538.761 444.935 539.076 445.389 539.296 445.932C539.516 446.46 539.626 447.047 539.626 447.692C539.626 448.352 539.509 448.946 539.274 449.474C539.054 449.987 538.754 450.427 538.372 450.794C538.006 451.161 537.588 451.461 537.118 451.696C536.649 451.916 536.165 452.07 535.666 452.158V454.182H533.378ZM534.544 459.264C533.987 459.264 533.576 459.132 533.312 458.868C533.063 458.589 532.938 458.237 532.938 457.812V457.438C532.938 457.013 533.063 456.668 533.312 456.404C533.576 456.125 533.987 455.986 534.544 455.986C535.102 455.986 535.505 456.125 535.754 456.404C536.018 456.668 536.15 457.013 536.15 457.438V457.812C536.15 458.237 536.018 458.589 535.754 458.868C535.505 459.132 535.102 459.264 534.544 459.264ZM194.704 482.02H198.598V476.916H200.424V488.664H198.598V483.494H194.704V482.02ZM195.804 486.508L194.902 487.916C192.702 487.124 191.008 485.496 190.15 483.472C189.314 485.76 187.488 487.608 185.178 488.488L184.232 487.058C187.18 485.98 189.204 483.318 189.204 480.48V479.798H184.804V478.346H195.342V479.798H191.008V480.48C191.008 483.01 192.944 485.496 195.804 486.508ZM193.912 495.22C196.882 495.22 198.686 494.384 198.686 492.954C198.686 491.524 196.882 490.666 193.912 490.666C190.942 490.666 189.138 491.524 189.138 492.954C189.138 494.384 190.942 495.22 193.912 495.22ZM193.912 489.28C197.96 489.28 200.49 490.622 200.49 492.954C200.49 495.286 197.96 496.628 193.912 496.628C189.864 496.628 187.334 495.286 187.334 492.954C187.334 490.622 189.864 489.28 193.912 489.28ZM215.47 478.698V480.062H204.14V478.698H208.914V476.762H210.718V478.698H215.47ZM206.912 483.714C206.912 484.748 208.034 485.408 209.816 485.408C211.554 485.408 212.698 484.748 212.698 483.714C212.698 482.68 211.554 482.042 209.816 482.042C208.034 482.042 206.912 482.68 206.912 483.714ZM216.064 487.498L216.196 488.796C211.972 489.522 207.308 489.544 203.854 489.566L203.656 488.114C205.218 488.114 207.022 488.114 208.914 488.048V486.618C206.626 486.398 205.196 485.342 205.196 483.714C205.196 481.91 207.022 480.788 209.816 480.788C212.566 480.788 214.414 481.91 214.414 483.714C214.414 485.32 212.984 486.376 210.718 486.618V487.982C212.522 487.894 214.348 487.762 216.064 487.498ZM206.054 492.558V491.128H219.034V496.628H217.23V492.558H206.054ZM221.916 482.878V484.374H219.034V490.138H217.23V476.916H219.034V482.878H221.916ZM235.027 479.314V480.766H223.389V479.314H228.295V476.894H230.099V479.314H235.027ZM226.205 485.518C226.205 486.904 227.415 487.784 229.197 487.784C230.979 487.784 232.211 486.904 232.211 485.518C232.211 484.154 230.979 483.274 229.197 483.274C227.415 483.274 226.205 484.154 226.205 485.518ZM233.927 485.518C233.927 487.74 231.991 489.192 229.197 489.192C226.403 489.192 224.489 487.74 224.489 485.518C224.489 483.318 226.403 481.866 229.197 481.866C231.991 481.866 233.927 483.318 233.927 485.518ZM228.163 490.534V494.714H239.515V496.188H226.359V490.534H228.163ZM238.635 483.406H241.539V484.924H238.635V491.7H236.831V476.894H238.635V483.406ZM251.576 489.654V494.692H263.61V496.166H249.794V489.654H251.576ZM262.532 485.98H265.348V487.432H247.418V485.98H260.706C261.256 483.252 261.256 481.316 261.256 479.6V479.534H249.706V478.06H263.038V479.6C263.038 481.294 263.038 483.296 262.532 485.98ZM267.876 479.028H276.874C276.874 484.638 274.542 489.632 267.986 492.866L266.996 491.458C272.298 488.862 274.74 485.1 275.07 480.48H267.876V479.028ZM281.45 476.916H283.254V496.628H281.45V486.288H276.83V484.814H281.45V476.916ZM289.017 482.812C289.017 484.682 290.469 485.914 292.493 485.914C294.495 485.914 295.947 484.682 295.947 482.812C295.947 480.964 294.495 479.688 292.493 479.688C290.469 479.688 289.017 480.964 289.017 482.812ZM293.395 487.388V490.732C295.199 490.644 297.025 490.534 298.719 490.292L298.873 491.612C294.693 492.316 290.095 492.382 286.619 492.382L286.377 490.864C287.939 490.864 289.743 490.842 291.591 490.798V487.388C289.017 487.08 287.257 485.276 287.257 482.812C287.257 480.04 289.435 478.17 292.493 478.17C295.507 478.17 297.707 480.04 297.707 482.812C297.707 485.276 295.925 487.058 293.395 487.388ZM304.901 485.034V486.552H301.777V496.628H299.973V476.872H301.777V485.034H304.901ZM311.594 478.28H320.768C320.768 483.23 317.314 486.464 311.506 487.806L310.78 486.354C315.752 485.276 318.502 482.79 318.766 479.732H311.594V478.28ZM315.4 492.976V495H326.554V496.364H313.596V488.334H326.114V489.676H315.4V491.634H325.894V492.976H315.4ZM326.026 481.47H328.952V482.966H326.026V487.432H324.222V476.894H326.026V481.47ZM344.636 476.894H346.44V496.672H344.636V476.894ZM336.034 478.412C338.96 478.412 341.05 481.096 341.05 485.298C341.05 489.5 338.96 492.184 336.034 492.184C333.108 492.184 331.018 489.5 331.018 485.298C331.018 481.096 333.108 478.412 336.034 478.412ZM336.034 480.04C334.098 480.04 332.734 482.108 332.734 485.298C332.734 488.51 334.098 490.578 336.034 490.578C337.948 490.578 339.312 488.51 339.312 485.298C339.312 482.108 337.948 480.04 336.034 480.04ZM356.17 486.486L355.488 485.056C358.92 484.55 362.33 482.284 362.33 479.688V479.578H356.104V478.126H370.514V479.578H364.332V479.688C364.332 482.284 367.742 484.55 371.218 485.056L370.514 486.486C367.456 485.958 364.53 484.308 363.342 481.976C362.132 484.308 359.228 485.958 356.17 486.486ZM372.252 488.136L372.274 489.61H364.2V496.628H362.396V489.61H354.432V488.136H372.252ZM385.428 486.442L384.57 487.85C382.326 487.124 380.632 485.562 379.796 483.604C378.96 485.848 377.178 487.608 374.824 488.444L373.9 487.014C376.87 485.98 378.85 483.428 378.85 480.59V479.82H374.428V478.368H385.01V479.82H380.654V480.59C380.654 483.164 382.524 485.474 385.428 486.442ZM383.03 495.176C385.934 495.176 387.716 494.362 387.716 492.954C387.716 491.568 385.934 490.754 383.03 490.754C380.082 490.754 378.322 491.568 378.322 492.954C378.322 494.362 380.082 495.176 383.03 495.176ZM383.03 489.324C387.034 489.324 389.52 490.666 389.52 492.954C389.52 495.264 387.034 496.606 383.03 496.606C378.982 496.606 376.518 495.264 376.518 492.954C376.518 490.666 378.982 489.324 383.03 489.324ZM389.3 481.888H392.226V483.406H389.3V488.818H387.496V476.916H389.3V481.888ZM402.476 478.588C399.242 478.588 397.394 479.336 397.394 480.656C397.394 481.976 399.242 482.724 402.476 482.724C405.71 482.724 407.558 481.976 407.558 480.656C407.558 479.336 405.71 478.588 402.476 478.588ZM402.476 484.066C398.142 484.066 395.546 482.878 395.546 480.656C395.546 478.434 398.142 477.224 402.476 477.224C406.81 477.224 409.406 478.434 409.406 480.656C409.406 482.878 406.81 484.066 402.476 484.066ZM397.526 492.998V495H409.714V496.408H395.766V491.678H407.338V489.918H395.7V488.554H409.12V492.998H397.526ZM393.544 485.408H411.408V486.86H393.544V485.408ZM425.802 484.484V479.446H420.258V484.484H425.802ZM427.562 478.016V485.914H418.498V478.016H427.562ZM422.282 492.712V494.912H433.722V496.364H420.522V491.37H431.214V489.302H420.456V487.872H432.996V492.712H422.282ZM432.996 481.14H435.922V482.636H432.996V486.948H431.192V476.916H432.996V481.14ZM442.146 490.556C443.664 490.556 444.764 489.302 444.764 487.542C444.764 485.826 443.664 484.572 442.146 484.572C440.606 484.572 439.528 485.826 439.528 487.542C439.528 489.302 440.606 490.556 442.146 490.556ZM442.146 483.054C444.588 483.054 446.37 484.902 446.37 487.542C446.37 490.226 444.588 492.052 442.146 492.052C439.704 492.052 437.922 490.226 437.922 487.542C437.922 484.902 439.704 483.054 442.146 483.054ZM443.026 477.466V480.26H447.03V481.734H437.24V480.26H441.244V477.466H443.026ZM452.244 476.872H453.982V496.606H452.244V486.684H449.714V495.66H448.02V477.334H449.714V485.21H452.244V476.872ZM458.139 485.848L457.369 484.462C460.273 483.868 462.253 482.13 462.253 480.15V479.798H458.007V478.346H468.391V479.798H464.079V480.15C464.079 481.998 466.103 483.604 468.919 484.176L468.193 485.54C465.883 485.056 464.101 483.89 463.221 482.35C462.363 484.044 460.515 485.32 458.139 485.848ZM469.733 486.772L469.865 488.114C467.929 488.444 465.949 488.664 464.013 488.752V496.012H462.209V488.862C460.339 488.928 458.579 488.95 456.995 488.95L456.753 487.454C460.427 487.454 465.443 487.41 469.733 486.772ZM471.251 476.916H473.055V496.628H471.251V491.876H466.807V490.468H471.251V476.916Z" fill="white"/>
</svg>
