<svg width="604" height="523" viewBox="0 0 604 523" fill="none" xmlns="http://www.w3.org/2000/svg">
<rect x="93" width="484" height="257" rx="4" fill="black"/>
<rect y="233" width="460" height="170" rx="4" fill="#FF4C91"/>
<path d="M37.76 265.622V267.976H25.946V265.622H30.434V262.982H33.338V265.622H37.76ZM31.864 276.314C33.118 276.314 34.086 275.412 34.086 273.916C34.086 272.42 33.118 271.518 31.864 271.518C30.632 271.518 29.686 272.42 29.686 273.916C29.686 275.412 30.632 276.314 31.864 276.314ZM31.864 269.076C34.658 269.076 36.748 271.122 36.748 273.916C36.748 276.71 34.658 278.756 31.864 278.756C29.092 278.756 27.002 276.71 27.002 273.916C27.002 271.122 29.092 269.076 31.864 269.076ZM40.048 262.63H42.952V282.892H40.048V272.948H37.386V270.594H40.048V262.63ZM63.1903 269.824L62.0903 272.156C58.5483 271.628 56.0183 269.978 54.7203 267.8C53.4223 269.978 50.8703 271.628 47.3283 272.156L46.2283 269.824C50.8483 269.186 53.1583 266.568 53.1583 264.192V263.224H56.2603V264.192C56.2603 266.546 58.5923 269.186 63.1903 269.824ZM63.8503 273.652V276.006H56.0843V282.914H53.1803V276.006H45.5463V273.652H63.8503ZM70.5366 275.874C72.0326 275.874 73.0666 274.268 73.0666 271.254C73.0666 268.262 72.0326 266.656 70.5366 266.656C69.0186 266.656 68.0066 268.262 68.0066 271.254C68.0066 274.268 69.0186 275.874 70.5366 275.874ZM70.5366 264.038C73.5946 264.038 75.8606 266.81 75.8606 271.254C75.8606 275.72 73.5946 278.514 70.5366 278.514C67.4566 278.514 65.2126 275.72 65.2126 271.254C65.2126 266.81 67.4566 264.038 70.5366 264.038ZM83.9126 270.264V272.662H80.9646V282.892H78.0606V262.63H80.9646V270.264H83.9126ZM98.5628 262.608H101.467V282.936H98.5628V262.608ZM85.6708 264.236H88.5528V269.142H92.7768V264.236H95.6588V278.206H85.6708V264.236ZM88.5528 271.408V275.896H92.7768V271.408H88.5528ZM111.746 267.36V275.566C112.252 275.522 112.824 275.434 113.418 275.302L113.638 277.656C112.164 277.986 111.108 278.008 110.052 278.008H109.15V265.05H113.418V267.36H111.746ZM116.762 267.36V275.566C117.4 275.522 118.06 275.434 118.83 275.258L119.05 277.634C117.51 277.986 116.322 278.008 115.112 278.008H114.166V265.05H118.566V267.36H116.762ZM123.758 262.608H126.464V282.87H123.758V272.794H122.284V281.968H119.622V262.938H122.284V270.462H123.758V262.608ZM132.425 272.178V275.83C135.505 275.808 138.057 275.654 140.917 275.17L141.225 277.524C137.925 278.096 134.955 278.228 131.281 278.228H129.455V269.89H136.033V266.656H129.433V264.346H139.003V272.178H132.425ZM142.325 262.608H145.229V282.936H142.325V262.608ZM149.077 264.72H158.801C158.801 270.924 156.711 275.984 149.517 279.46L147.999 277.172C153.169 274.686 155.413 271.518 155.831 267.03H149.077V264.72ZM161.903 262.608H164.829V282.87H161.903V262.608ZM167.687 274.136C167.687 273.08 167.783 272.061 167.973 271.078C168.179 270.095 168.45 269.186 168.787 268.35C169.139 267.499 169.55 266.729 170.019 266.04C170.489 265.351 171.002 264.764 171.559 264.28H174.221C173.62 264.837 173.077 265.453 172.593 266.128C172.124 266.803 171.721 267.529 171.383 268.306C171.046 269.069 170.782 269.875 170.591 270.726C170.415 271.577 170.327 272.449 170.327 273.344V274.972C170.327 275.881 170.415 276.769 170.591 277.634C170.782 278.485 171.046 279.299 171.383 280.076C171.735 280.839 172.146 281.557 172.615 282.232C173.099 282.907 173.635 283.508 174.221 284.036H171.559C171.017 283.581 170.511 283.009 170.041 282.32C169.572 281.631 169.161 280.861 168.809 280.01C168.457 279.145 168.179 278.221 167.973 277.238C167.783 276.241 167.687 275.207 167.687 274.136ZM178.729 281.264C177.629 281.264 176.705 281.081 175.957 280.714C175.209 280.333 174.549 279.812 173.977 279.152L175.693 277.48C176.119 277.964 176.581 278.345 177.079 278.624C177.593 278.903 178.179 279.042 178.839 279.042C179.514 279.042 179.998 278.925 180.291 278.69C180.599 278.455 180.753 278.133 180.753 277.722C180.753 277.385 180.643 277.121 180.423 276.93C180.218 276.725 179.859 276.585 179.345 276.512L178.201 276.358C176.955 276.197 176.001 275.845 175.341 275.302C174.696 274.745 174.373 273.938 174.373 272.882C174.373 272.325 174.476 271.826 174.681 271.386C174.887 270.931 175.18 270.55 175.561 270.242C175.943 269.919 176.397 269.677 176.925 269.516C177.468 269.34 178.069 269.252 178.729 269.252C179.287 269.252 179.778 269.296 180.203 269.384C180.643 269.457 181.039 269.575 181.391 269.736C181.743 269.883 182.066 270.073 182.359 270.308C182.653 270.528 182.939 270.777 183.217 271.056L181.567 272.706C181.23 272.354 180.827 272.061 180.357 271.826C179.888 271.591 179.375 271.474 178.817 271.474C178.201 271.474 177.754 271.584 177.475 271.804C177.211 272.024 177.079 272.31 177.079 272.662C177.079 273.043 177.189 273.337 177.409 273.542C177.644 273.733 178.033 273.872 178.575 273.96L179.741 274.114C182.22 274.466 183.459 275.595 183.459 277.502C183.459 278.059 183.342 278.573 183.107 279.042C182.887 279.497 182.572 279.893 182.161 280.23C181.751 280.553 181.252 280.809 180.665 281C180.093 281.176 179.448 281.264 178.729 281.264ZM188.7 281C187.732 281 186.991 280.751 186.478 280.252C185.979 279.739 185.73 279.013 185.73 278.074V271.76H184.036V269.516H184.916C185.341 269.516 185.627 269.421 185.774 269.23C185.935 269.025 186.016 268.724 186.016 268.328V266.37H188.546V269.516H190.9V271.76H188.546V278.756H190.724V281H188.7ZM192.682 281V269.516H195.498V271.892H195.608C195.682 271.584 195.792 271.291 195.938 271.012C196.1 270.719 196.305 270.462 196.554 270.242C196.804 270.022 197.097 269.846 197.434 269.714C197.786 269.582 198.19 269.516 198.644 269.516H199.26V272.178H198.38C197.427 272.178 196.708 272.317 196.224 272.596C195.74 272.875 195.498 273.329 195.498 273.96V281H192.682ZM208.871 281C208.255 281 207.764 280.824 207.397 280.472C207.045 280.105 206.825 279.621 206.737 279.02H206.605C206.414 279.768 206.026 280.333 205.439 280.714C204.852 281.081 204.126 281.264 203.261 281.264C202.088 281.264 201.186 280.956 200.555 280.34C199.924 279.724 199.609 278.903 199.609 277.876C199.609 276.688 200.034 275.808 200.885 275.236C201.736 274.649 202.946 274.356 204.515 274.356H206.473V273.52C206.473 272.875 206.304 272.376 205.967 272.024C205.63 271.672 205.087 271.496 204.339 271.496C203.679 271.496 203.144 271.643 202.733 271.936C202.337 272.215 202 272.552 201.721 272.948L200.049 271.452C200.474 270.792 201.039 270.264 201.743 269.868C202.447 269.457 203.378 269.252 204.537 269.252C206.092 269.252 207.272 269.604 208.079 270.308C208.886 271.012 209.289 272.024 209.289 273.344V278.756H210.433V281H208.871ZM204.207 279.218C204.838 279.218 205.373 279.079 205.813 278.8C206.253 278.521 206.473 278.111 206.473 277.568V276.05H204.669C203.202 276.05 202.469 276.519 202.469 277.458V277.832C202.469 278.301 202.616 278.653 202.909 278.888C203.217 279.108 203.65 279.218 204.207 279.218ZM210.822 269.516H213.528L214.694 274.246L215.596 278.184H215.684L216.74 274.246L218.082 269.516H220.634L222.02 274.246L223.098 278.184H223.186L224.088 274.246L225.232 269.516H227.85L224.704 281H221.668L220.194 275.94L219.336 272.816H219.27L218.434 275.94L216.982 281H213.99L210.822 269.516ZM233.849 281V269.516H236.665V271.43H236.775C236.995 270.829 237.347 270.315 237.831 269.89C238.315 269.465 238.99 269.252 239.855 269.252C240.647 269.252 241.329 269.443 241.901 269.824C242.473 270.205 242.898 270.785 243.177 271.562H243.221C243.426 270.917 243.83 270.374 244.431 269.934C245.047 269.479 245.817 269.252 246.741 269.252C247.87 269.252 248.736 269.641 249.337 270.418C249.953 271.195 250.261 272.303 250.261 273.74V281H247.445V274.026C247.445 272.383 246.829 271.562 245.597 271.562C245.318 271.562 245.047 271.606 244.783 271.694C244.534 271.767 244.306 271.885 244.101 272.046C243.91 272.193 243.756 272.383 243.639 272.618C243.522 272.838 243.463 273.102 243.463 273.41V281H240.647V274.026C240.647 272.383 240.031 271.562 238.799 271.562C238.535 271.562 238.271 271.606 238.007 271.694C237.758 271.767 237.53 271.885 237.325 272.046C237.134 272.193 236.973 272.383 236.841 272.618C236.724 272.838 236.665 273.102 236.665 273.41V281H233.849ZM261.166 281C260.55 281 260.059 280.824 259.692 280.472C259.34 280.105 259.12 279.621 259.032 279.02H258.9C258.71 279.768 258.321 280.333 257.734 280.714C257.148 281.081 256.422 281.264 255.556 281.264C254.383 281.264 253.481 280.956 252.85 280.34C252.22 279.724 251.904 278.903 251.904 277.876C251.904 276.688 252.33 275.808 253.18 275.236C254.031 274.649 255.241 274.356 256.81 274.356H258.768V273.52C258.768 272.875 258.6 272.376 258.262 272.024C257.925 271.672 257.382 271.496 256.634 271.496C255.974 271.496 255.439 271.643 255.028 271.936C254.632 272.215 254.295 272.552 254.016 272.948L252.344 271.452C252.77 270.792 253.334 270.264 254.038 269.868C254.742 269.457 255.674 269.252 256.832 269.252C258.387 269.252 259.568 269.604 260.374 270.308C261.181 271.012 261.584 272.024 261.584 273.344V278.756H262.728V281H261.166ZM256.502 279.218C257.133 279.218 257.668 279.079 258.108 278.8C258.548 278.521 258.768 278.111 258.768 277.568V276.05H256.964C255.498 276.05 254.764 276.519 254.764 277.458V277.832C254.764 278.301 254.911 278.653 255.204 278.888C255.512 279.108 255.945 279.218 256.502 279.218ZM264.347 281V269.516H267.163V271.43H267.273C267.508 270.814 267.875 270.301 268.373 269.89C268.887 269.465 269.591 269.252 270.485 269.252C271.673 269.252 272.583 269.641 273.213 270.418C273.844 271.195 274.159 272.303 274.159 273.74V281H271.343V274.026C271.343 273.205 271.197 272.589 270.903 272.178C270.61 271.767 270.126 271.562 269.451 271.562C269.158 271.562 268.872 271.606 268.593 271.694C268.329 271.767 268.087 271.885 267.867 272.046C267.662 272.193 267.493 272.383 267.361 272.618C267.229 272.838 267.163 273.102 267.163 273.41V281H264.347ZM281.732 271.738H280.038V269.516H281.732V267.866C281.732 266.854 281.996 266.077 282.524 265.534C283.067 264.991 283.859 264.72 284.9 264.72H286.902V266.964H284.548V269.516H286.902V271.738H284.548V281H281.732V271.738ZM296.64 281C296.024 281 295.532 280.824 295.166 280.472C294.814 280.105 294.594 279.621 294.506 279.02H294.374C294.183 279.768 293.794 280.333 293.208 280.714C292.621 281.081 291.895 281.264 291.03 281.264C289.856 281.264 288.954 280.956 288.324 280.34C287.693 279.724 287.378 278.903 287.378 277.876C287.378 276.688 287.803 275.808 288.654 275.236C289.504 274.649 290.714 274.356 292.284 274.356H294.242V273.52C294.242 272.875 294.073 272.376 293.736 272.024C293.398 271.672 292.856 271.496 292.108 271.496C291.448 271.496 290.912 271.643 290.502 271.936C290.106 272.215 289.768 272.552 289.49 272.948L287.818 271.452C288.243 270.792 288.808 270.264 289.512 269.868C290.216 269.457 291.147 269.252 292.306 269.252C293.86 269.252 295.041 269.604 295.848 270.308C296.654 271.012 297.058 272.024 297.058 273.344V278.756H298.202V281H296.64ZM291.976 279.218C292.606 279.218 293.142 279.079 293.582 278.8C294.022 278.521 294.242 278.111 294.242 277.568V276.05H292.438C290.971 276.05 290.238 276.519 290.238 277.458V277.832C290.238 278.301 290.384 278.653 290.678 278.888C290.986 279.108 291.418 279.218 291.976 279.218ZM302.637 281C301.669 281 300.957 280.758 300.503 280.274C300.048 279.79 299.821 279.108 299.821 278.228V264.72H302.637V278.756H304.155V281H302.637ZM308.293 281C307.325 281 306.614 280.758 306.159 280.274C305.704 279.79 305.477 279.108 305.477 278.228V264.72H308.293V278.756H309.811V281H308.293ZM319.732 281C319.116 281 318.625 280.824 318.258 280.472C317.906 280.105 317.686 279.621 317.598 279.02H317.466C317.275 279.768 316.887 280.333 316.3 280.714C315.713 281.081 314.987 281.264 314.122 281.264C312.949 281.264 312.047 280.956 311.416 280.34C310.785 279.724 310.47 278.903 310.47 277.876C310.47 276.688 310.895 275.808 311.746 275.236C312.597 274.649 313.807 274.356 315.376 274.356H317.334V273.52C317.334 272.875 317.165 272.376 316.828 272.024C316.491 271.672 315.948 271.496 315.2 271.496C314.54 271.496 314.005 271.643 313.594 271.936C313.198 272.215 312.861 272.552 312.582 272.948L310.91 271.452C311.335 270.792 311.9 270.264 312.604 269.868C313.308 269.457 314.239 269.252 315.398 269.252C316.953 269.252 318.133 269.604 318.94 270.308C319.747 271.012 320.15 272.024 320.15 273.344V278.756H321.294V281H319.732ZM315.068 279.218C315.699 279.218 316.234 279.079 316.674 278.8C317.114 278.521 317.334 278.111 317.334 277.568V276.05H315.53C314.063 276.05 313.33 276.519 313.33 277.458V277.832C313.33 278.301 313.477 278.653 313.77 278.888C314.078 279.108 314.511 279.218 315.068 279.218ZM327.445 281.264C326.594 281.264 325.839 281.125 325.179 280.846C324.519 280.567 323.962 280.164 323.507 279.636C323.067 279.108 322.73 278.477 322.495 277.744C322.26 276.996 322.143 276.16 322.143 275.236C322.143 274.312 322.26 273.483 322.495 272.75C322.73 272.017 323.067 271.393 323.507 270.88C323.962 270.352 324.519 269.949 325.179 269.67C325.839 269.391 326.594 269.252 327.445 269.252C328.604 269.252 329.557 269.509 330.305 270.022C331.068 270.535 331.618 271.247 331.955 272.156L329.645 273.19C329.513 272.706 329.264 272.31 328.897 272.002C328.545 271.679 328.061 271.518 327.445 271.518C326.653 271.518 326.059 271.767 325.663 272.266C325.282 272.765 325.091 273.417 325.091 274.224V276.314C325.091 277.121 325.282 277.773 325.663 278.272C326.059 278.756 326.653 278.998 327.445 278.998C328.12 278.998 328.64 278.829 329.007 278.492C329.374 278.14 329.66 277.707 329.865 277.194L332.021 278.228C331.64 279.24 331.06 280.003 330.283 280.516C329.506 281.015 328.56 281.264 327.445 281.264ZM340.572 269.516H343.212L338.592 283.046C338.446 283.457 338.277 283.809 338.086 284.102C337.91 284.41 337.698 284.659 337.448 284.85C337.199 285.041 336.898 285.18 336.546 285.268C336.194 285.356 335.784 285.4 335.314 285.4H333.62V283.156H335.688L336.216 281.55L332.102 269.516H334.896L336.898 275.588L337.646 278.492H337.778L338.57 275.588L340.572 269.516ZM349.095 274.136C349.095 275.207 348.993 276.241 348.787 277.238C348.597 278.221 348.325 279.145 347.973 280.01C347.621 280.861 347.211 281.631 346.741 282.32C346.272 283.009 345.766 283.581 345.223 284.036H342.561C343.148 283.508 343.676 282.907 344.145 282.232C344.629 281.557 345.04 280.839 345.377 280.076C345.729 279.299 345.993 278.485 346.169 277.634C346.36 276.769 346.455 275.881 346.455 274.972V273.344C346.455 272.449 346.36 271.577 346.169 270.726C345.993 269.875 345.737 269.069 345.399 268.306C345.062 267.529 344.651 266.803 344.167 266.128C343.698 265.453 343.163 264.837 342.561 264.28H345.223C345.781 264.764 346.294 265.351 346.763 266.04C347.233 266.729 347.636 267.499 347.973 268.35C348.325 269.186 348.597 270.095 348.787 271.078C348.993 272.061 349.095 273.08 349.095 274.136ZM28.41 317.264C27.8673 317.264 27.464 317.125 27.2 316.846C26.936 316.553 26.804 316.193 26.804 315.768V315.438C26.804 315.013 26.936 314.661 27.2 314.382C27.464 314.089 27.8673 313.942 28.41 313.942C28.9527 313.942 29.356 314.089 29.62 314.382C29.884 314.661 30.016 315.013 30.016 315.438V315.768C30.016 316.193 29.884 316.553 29.62 316.846C29.356 317.125 28.9527 317.264 28.41 317.264ZM28.41 308.618C27.8673 308.618 27.464 308.479 27.2 308.2C26.936 307.907 26.804 307.547 26.804 307.122V306.792C26.804 306.367 26.936 306.015 27.2 305.736C27.464 305.443 27.8673 305.296 28.41 305.296C28.9527 305.296 29.356 305.443 29.62 305.736C29.884 306.015 30.016 306.367 30.016 306.792V307.122C30.016 307.547 29.884 307.907 29.62 308.2C29.356 308.479 28.9527 308.618 28.41 308.618ZM48.2518 308.178L47.3058 309.586C45.1718 308.794 43.4778 307.166 42.5978 305.142C41.7838 307.452 40.0238 309.256 37.7138 310.136L36.7678 308.706C39.7598 307.628 41.6738 304.944 41.6738 301.93V299.906H43.4778V302.084C43.4778 304.746 45.4138 307.21 48.2518 308.178ZM45.8978 317.198C48.8018 317.198 50.5838 316.384 50.5838 315.02C50.5838 313.634 48.8018 312.82 45.8978 312.82C42.9718 312.82 41.1898 313.634 41.1898 315.02C41.1898 316.384 42.9718 317.198 45.8978 317.198ZM45.8978 311.412C49.9018 311.412 52.3878 312.71 52.3878 315.02C52.3878 317.308 49.9018 318.606 45.8978 318.606C41.8718 318.606 39.3858 317.308 39.3858 315.02C39.3858 312.71 41.8718 311.412 45.8978 311.412ZM52.1678 303.998H55.0938V305.494H52.1678V310.862H50.3638V298.916H52.1678V303.998ZM58.92 302.766V312.27C61.56 312.248 63.43 312.138 65.586 311.676L65.74 313.172C63.386 313.678 61.384 313.766 58.436 313.766H57.138V301.292H64.486V302.766H58.92ZM71.46 298.894H73.198V318.628H71.46V308.288H68.666V317.638H66.972V299.334H68.666V306.814H71.46V298.894ZM84.1963 307.782V304.526H78.6083V307.782H84.1963ZM85.9563 300.148V309.234H76.8263V300.148H78.6083V303.118H84.1963V300.148H85.9563ZM85.0543 317.198C87.9583 317.198 89.7403 316.362 89.7403 314.954C89.7403 313.546 87.9583 312.732 85.0543 312.732C82.1063 312.732 80.3463 313.546 80.3463 314.954C80.3463 316.362 82.1063 317.198 85.0543 317.198ZM85.0543 311.28C89.0583 311.28 91.5443 312.622 91.5443 314.954C91.5443 317.286 89.0583 318.628 85.0543 318.628C81.0283 318.628 78.5423 317.286 78.5423 314.954C78.5423 312.622 81.0283 311.28 85.0543 311.28ZM91.3243 303.866H94.2503V305.362H91.3243V310.774H89.5203V298.894H91.3243V303.866ZM101.993 300.346C105.073 300.346 107.273 302.216 107.273 304.988C107.273 307.738 105.073 309.63 101.993 309.63C98.9346 309.63 96.7126 307.738 96.7126 304.988C96.7126 302.216 98.9346 300.346 101.993 300.346ZM101.993 301.886C99.9686 301.886 98.4726 303.14 98.4726 304.988C98.4726 306.814 99.9686 308.09 101.993 308.09C104.039 308.09 105.513 306.814 105.513 304.988C105.513 303.14 104.039 301.886 101.993 301.886ZM109.869 298.894H111.673V318.672H109.869V298.894ZM95.9426 314.338L95.7226 312.82C99.3086 312.82 104.259 312.798 108.571 312.138L108.725 313.48C104.281 314.294 99.5066 314.338 95.9426 314.338ZM134.096 298.916H135.9V309.498H134.096V298.916ZM123.184 310.466H124.966V312.886H134.118V310.466H135.9V318.364H123.184V310.466ZM124.966 314.294V316.912H134.118V314.294H124.966ZM125.296 299.84C128.288 299.84 130.466 301.688 130.466 304.372C130.466 307.1 128.288 308.926 125.296 308.926C122.326 308.926 120.17 307.1 120.17 304.372C120.17 301.688 122.326 299.84 125.296 299.84ZM125.296 301.336C123.338 301.336 121.93 302.59 121.93 304.372C121.93 306.176 123.338 307.43 125.296 307.43C127.298 307.43 128.706 306.176 128.706 304.372C128.706 302.59 127.298 301.336 125.296 301.336ZM150.726 308.442L149.868 309.85C147.624 309.124 145.93 307.562 145.094 305.604C144.258 307.848 142.476 309.608 140.122 310.444L139.198 309.014C142.168 307.98 144.148 305.428 144.148 302.59V301.82H139.726V300.368H150.308V301.82H145.952V302.59C145.952 305.164 147.822 307.474 150.726 308.442ZM148.328 317.176C151.232 317.176 153.014 316.362 153.014 314.954C153.014 313.568 151.232 312.754 148.328 312.754C145.38 312.754 143.62 313.568 143.62 314.954C143.62 316.362 145.38 317.176 148.328 317.176ZM148.328 311.324C152.332 311.324 154.818 312.666 154.818 314.954C154.818 317.264 152.332 318.606 148.328 318.606C144.28 318.606 141.816 317.264 141.816 314.954C141.816 312.666 144.28 311.324 148.328 311.324ZM154.598 303.888H157.524V305.406H154.598V310.818H152.794V298.916H154.598V303.888ZM167.775 300.588C164.541 300.588 162.693 301.336 162.693 302.656C162.693 303.976 164.541 304.724 167.775 304.724C171.009 304.724 172.857 303.976 172.857 302.656C172.857 301.336 171.009 300.588 167.775 300.588ZM167.775 306.066C163.441 306.066 160.845 304.878 160.845 302.656C160.845 300.434 163.441 299.224 167.775 299.224C172.109 299.224 174.705 300.434 174.705 302.656C174.705 304.878 172.109 306.066 167.775 306.066ZM162.825 314.998V317H175.013V318.408H161.065V313.678H172.637V311.918H160.999V310.554H174.419V314.998H162.825ZM158.843 307.408H176.707V308.86H158.843V307.408ZM196.776 301.468V301.424H185.116V299.972H198.558V301.468C198.558 302.964 198.558 304.68 198.074 306.902L196.27 306.726C196.776 304.504 196.776 302.92 196.776 301.468ZM184.918 313.436V311.984H198.536V318.628H196.732V313.436H184.918ZM192.112 308.288H200.802V309.74H183.026V308.288H190.308V304.284H192.112V308.288ZM207.444 312.556C208.962 312.556 210.062 311.302 210.062 309.542C210.062 307.826 208.962 306.572 207.444 306.572C205.904 306.572 204.826 307.826 204.826 309.542C204.826 311.302 205.904 312.556 207.444 312.556ZM207.444 305.054C209.886 305.054 211.668 306.902 211.668 309.542C211.668 312.226 209.886 314.052 207.444 314.052C205.002 314.052 203.22 312.226 203.22 309.542C203.22 306.902 205.002 305.054 207.444 305.054ZM208.324 299.466V302.26H212.328V303.734H202.538V302.26H206.542V299.466H208.324ZM217.542 298.872H219.28V318.606H217.542V308.684H215.012V317.66H213.318V299.334H215.012V307.21H217.542V298.872ZM233.843 300.984V302.436H222.205V300.984H227.111V298.718H228.915V300.984H233.843ZM225.021 306.946C225.021 308.244 226.209 309.102 228.013 309.102C229.817 309.102 231.027 308.244 231.027 306.946C231.027 305.648 229.817 304.79 228.013 304.79C226.209 304.79 225.021 305.648 225.021 306.946ZM232.743 306.946C232.743 309.08 230.829 310.444 228.013 310.444C225.197 310.444 223.305 309.08 223.305 306.946C223.305 304.79 225.197 303.426 228.013 303.426C230.829 303.426 232.743 304.79 232.743 306.946ZM226.825 313.326V316.912H235.669V313.326H226.825ZM225.065 318.364V311.896H237.451V318.364H225.065ZM240.377 304.152V305.648H237.451V310.774H235.647V298.916H237.451V304.152H240.377ZM250.627 300.126C254.719 300.126 257.799 302.304 257.799 305.582C257.799 308.882 254.719 311.038 250.627 311.038C246.535 311.038 243.455 308.882 243.455 305.582C243.455 302.304 246.535 300.126 250.627 300.126ZM250.627 301.6C247.525 301.6 245.171 303.206 245.171 305.582C245.171 307.98 247.525 309.564 250.627 309.564C253.751 309.564 256.083 307.98 256.083 305.582C256.083 303.206 253.751 301.6 250.627 301.6ZM241.695 314.514H259.625V316.01H241.695V314.514ZM271.129 314.712H279.203V316.186H261.273V314.712H269.303V310.994H263.517V304.9H275.221V301.82H263.473V300.346H276.981V306.352H265.299V309.542H277.443V310.994H271.129V314.712ZM290.84 300.632V305.076C290.84 307.694 291.478 311.082 293.898 312.82L292.754 314.14C291.324 313.062 290.466 311.324 289.982 309.432C289.542 311.39 288.728 313.216 287.232 314.316C285.736 313.194 284.9 311.346 284.482 309.432C283.998 311.28 283.162 313.018 281.754 314.096L280.588 312.82C282.964 311.038 283.624 307.606 283.624 305.076V300.632H285.34V305.076C285.34 307.078 285.67 309.96 287.232 311.984C288.794 310.026 289.124 307.188 289.124 305.076V300.632H290.84ZM295.592 298.894H297.418V318.606H295.592V307.562H292.16V306.022H295.592V298.894ZM313.175 306.88V303.932H307.587V306.88H313.175ZM314.935 299.708V308.332H305.805V299.708H307.587V302.546H313.175V299.708H314.935ZM309.589 314.822V316.978H321.029V318.408H307.829V313.48H318.521V311.456H307.763V310.026H320.303V314.822H309.589ZM320.303 303.14H323.229V304.636H320.303V309.102H318.499V298.916H320.303V303.14ZM336.977 305.67V310.444H335.261V299.29H336.977V304.196H339.485V298.916H341.223V311.082H339.485V305.67H336.977ZM334.447 308.156L333.479 309.542C331.631 308.794 330.289 307.386 329.585 305.714C328.881 307.562 327.473 309.234 325.559 310.092L324.591 308.684C327.165 307.54 328.705 304.988 328.705 302.788V300.126H330.443V302.788C330.443 304.966 331.917 307.188 334.447 308.156ZM334.711 317.22C337.703 317.22 339.529 316.428 339.529 315.064C339.529 313.7 337.703 312.93 334.711 312.93C331.763 312.93 329.915 313.7 329.915 315.064C329.915 316.428 331.763 317.22 334.711 317.22ZM334.711 311.522C338.781 311.522 341.311 312.82 341.311 315.064C341.311 317.308 338.781 318.606 334.711 318.606C330.663 318.606 328.133 317.308 328.133 315.064C328.133 312.82 330.663 311.522 334.711 311.522ZM349.934 312.732C351.738 312.732 353.036 311.456 353.036 309.696C353.036 307.914 351.738 306.638 349.934 306.638C348.152 306.638 346.854 307.914 346.854 309.696C346.854 311.456 348.152 312.732 349.934 312.732ZM349.934 305.142C352.75 305.142 354.752 307.034 354.752 309.696C354.752 312.38 352.75 314.228 349.934 314.228C347.162 314.228 345.16 312.38 345.16 309.696C345.16 307.034 347.162 305.142 349.934 305.142ZM350.814 299.136V302.062H355.676V303.514H344.038V302.062H349.01V299.136H350.814ZM362.584 307.012V308.53H359.35V318.628H357.546V298.916H359.35V307.012H362.584ZM379.544 304.834V306.308H366.124V299.62H367.928V304.834H379.544ZM367.796 312.38V316.67H379.654V318.144H365.992V312.38H367.796ZM363.704 308.948H381.59V310.4H363.704V308.948ZM40.51 334.894H42.314V354.65H40.51V334.894ZM27.288 336.566H29.07V341.78H34.79V336.566H36.572V349.876H27.288V336.566ZM29.07 343.21V348.402H34.79V343.21H29.07ZM60.1763 343.474V341.098H56.8543V339.646H60.1763V334.894H62.0023V347.632H60.1763V344.948H56.8323V343.474H60.1763ZM56.8323 337.072V338.524H45.7883V337.072H50.4963V334.718H52.3003V337.072H56.8323ZM48.6043 343.188C48.6043 344.574 49.7263 345.476 51.3763 345.476C53.0263 345.476 54.1483 344.574 54.1483 343.188C54.1483 341.824 53.0263 340.922 51.3763 340.922C49.7263 340.922 48.6043 341.824 48.6043 343.188ZM55.8423 343.188C55.8423 345.41 53.9943 346.862 51.3763 346.862C48.7363 346.862 46.9103 345.41 46.9103 343.188C46.9103 340.988 48.7363 339.536 51.3763 339.536C53.9943 339.536 55.8423 340.988 55.8423 343.188ZM55.5343 353.22C58.4383 353.22 60.2203 352.494 60.2203 351.24C60.2203 349.964 58.4383 349.26 55.5343 349.26C52.6303 349.26 50.8263 349.964 50.8263 351.24C50.8263 352.494 52.6303 353.22 55.5343 353.22ZM55.5343 347.874C59.6043 347.874 62.0903 349.084 62.0903 351.24C62.0903 353.374 59.6043 354.606 55.5343 354.606C51.4423 354.606 48.9563 353.374 48.9563 351.24C48.9563 349.084 51.4423 347.874 55.5343 347.874ZM77.2246 344.178L76.3226 345.608C74.0566 344.794 72.2746 343.1 71.3946 340.922C70.5366 343.254 68.7326 345.08 66.4226 345.96L65.4986 344.53C68.4686 343.452 70.4706 340.702 70.4706 337.754V335.818H72.2746V337.754C72.2746 340.592 74.2986 343.166 77.2246 344.178ZM68.3146 349.238V347.786H81.5146V354.65H79.7106V349.238H68.3146ZM79.7106 334.916H81.5146V346.774H79.7106V334.916ZM96.5388 344.53L95.6368 345.938C93.4368 345.146 91.7428 343.518 90.8628 341.472C90.0268 343.738 88.2228 345.542 85.9128 346.4L84.9668 344.97C87.8928 343.936 89.9388 341.296 89.9388 338.502V337.71H85.5388V336.236H96.0768V337.71H91.7428V338.502C91.7428 341.032 93.6788 343.518 96.5388 344.53ZM87.9588 349.238V347.786H101.159V354.65H99.3328V349.238H87.9588ZM99.3328 334.894H101.159V346.708H99.3328V341.516H95.4828V340.042H99.3328V334.894ZM112.494 341.362C112.494 343.628 114.804 345.102 117.95 345.102C121.096 345.102 123.384 343.628 123.384 341.362C123.384 339.096 121.096 337.622 117.95 337.622C114.804 337.622 112.494 339.096 112.494 341.362ZM118.852 350.602H126.926V352.098H108.996V350.602H117.026V346.488C113.352 346.224 110.756 344.266 110.756 341.362C110.756 338.216 113.77 336.192 117.95 336.192C122.108 336.192 125.1 338.216 125.1 341.362C125.1 344.266 122.526 346.224 118.852 346.488V350.602ZM142.501 339.382V337.116H130.709V335.664H144.327V340.746H132.579V343.166H144.767V344.618H130.775V339.382H142.501ZM146.483 346.664V348.116H141.819V354.65H140.015V348.116H135.043V354.65H133.239V348.116H128.575V346.664H146.483Z" fill="#F4F4F4"/>
<path d="M126.146 43.99C125.545 43.99 125.105 43.8507 124.826 43.572C124.562 43.2787 124.43 42.9193 124.43 42.494V42.076C124.43 41.68 124.489 41.284 124.606 40.888C124.723 40.4773 124.877 40.0813 125.068 39.7C125.273 39.3187 125.515 38.9593 125.794 38.622C126.073 38.2847 126.373 37.984 126.696 37.72H128.588C128.119 38.1747 127.723 38.622 127.4 39.062C127.077 39.502 126.835 39.9933 126.674 40.536C127.099 40.624 127.407 40.8073 127.598 41.086C127.789 41.35 127.884 41.658 127.884 42.01V42.494C127.884 42.9193 127.745 43.2787 127.466 43.572C127.202 43.8507 126.762 43.99 126.146 43.99ZM146.54 35.63V50.282H143.614V35.63H146.54ZM142.338 45.552L140.864 47.774C138.62 47.07 137.08 45.618 136.156 43.814C135.254 45.794 133.626 47.356 131.272 48.126L129.798 45.86C133.164 44.804 134.638 42.142 134.638 39.612V39.37H130.568V37.082H141.59V39.37H137.586V39.612C137.586 41.988 139.06 44.474 142.338 45.552ZM135.958 53.23H147.046V55.54H133.054V48.962H135.958V53.23ZM161.366 37.852V40.14H149.442V37.852H153.974V35.718H156.878V37.852H161.366ZM153.226 44.738C153.226 45.816 154.106 46.388 155.426 46.388C156.746 46.388 157.626 45.816 157.626 44.738C157.626 43.704 156.746 43.132 155.426 43.132C154.106 43.132 153.226 43.704 153.226 44.738ZM156.878 48.412V50.018C158.44 49.93 160.002 49.82 161.454 49.6L161.674 51.69C157.406 52.526 152.852 52.526 149.42 52.526L149.068 50.172C150.52 50.172 152.192 50.172 153.974 50.128V48.412C151.862 47.972 150.476 46.608 150.476 44.738C150.476 42.472 152.522 40.932 155.426 40.932C158.33 40.932 160.376 42.472 160.376 44.738C160.376 46.608 158.99 47.972 156.878 48.412ZM167.922 43.88V46.278H165.392V55.892H162.488V35.63H165.392V43.88H167.922ZM174.08 50.172V53.714H185.432V56.024H171.176V50.172H174.08ZM179.492 46.85H187.214V49.16H168.866V46.85H176.588V45.31H171.154V39.656H182.11V38.27H171.11V36.07H184.97V41.702H174.014V43.11H185.366V45.31H179.492V46.85ZM192.999 49.05C194.121 49.05 194.759 47.532 194.759 44.408C194.759 41.306 194.121 39.788 192.999 39.788C191.899 39.788 191.239 41.306 191.239 44.408C191.239 47.532 191.899 49.05 192.999 49.05ZM198.961 43.088V35.96H201.667V54.99H198.961V45.442H197.377C197.113 49.402 195.463 51.778 192.999 51.778C190.315 51.778 188.621 49.006 188.621 44.408C188.621 39.832 190.315 37.06 192.999 37.06C195.397 37.06 197.025 39.304 197.355 43.088H198.961ZM203.075 35.608H205.825V55.87H203.075V35.608ZM215.818 39.964V48.522C216.61 48.478 217.402 48.39 218.282 48.236L218.502 50.59C216.896 50.92 215.598 50.942 213.992 50.942H212.958V37.654H218.172V39.964H215.818ZM222.088 39.964V48.522C223.254 48.5 224.046 48.412 224.926 48.214L225.146 50.546C223.804 50.898 222.726 50.942 220.306 50.942H219.228V37.654H224.684V39.964H222.088ZM231.24 43.198V45.596H228.842V55.914H225.938V35.586H228.842V43.198H231.24ZM245.56 41.482V39.304H234.23V36.994H248.42V43.748H237.134V46.014H248.882V48.324H234.252V41.482H245.56ZM232.14 51.228H250.488V53.604H232.14V51.228ZM259.265 44.87V39.524H255.415V44.87H259.265ZM265.755 41.13H262.103V43.176H265.755V41.13ZM262.103 45.486V47.158H252.555V37.258H262.103V38.82H265.755V35.63H268.659V50.392H265.755V45.486H262.103ZM258.187 53.23H269.099V55.54H255.283V49.006H258.187V53.23ZM273.629 50.612C274.23 50.612 274.67 50.766 274.949 51.074C275.242 51.382 275.389 51.7707 275.389 52.24V52.636C275.389 53.032 275.33 53.4427 275.213 53.868C275.11 54.2933 274.956 54.704 274.751 55.1C274.56 55.496 274.326 55.87 274.047 56.222C273.783 56.574 273.482 56.882 273.145 57.146H271.143C271.642 56.662 272.06 56.1853 272.397 55.716C272.734 55.2613 272.991 54.7553 273.167 54.198C272.712 54.1247 272.382 53.9487 272.177 53.67C271.972 53.3767 271.869 53.032 271.869 52.636V52.24C271.869 51.7707 272.008 51.382 272.287 51.074C272.566 50.766 273.013 50.612 273.629 50.612ZM290.859 38.622C288.197 38.622 286.503 39.414 286.503 40.866C286.503 42.34 288.197 43.132 290.859 43.132C293.499 43.132 295.193 42.34 295.193 40.866C295.193 39.414 293.499 38.622 290.859 38.622ZM290.859 45.442C286.525 45.442 283.533 43.66 283.533 40.866C283.533 38.116 286.525 36.312 290.859 36.312C295.171 36.312 298.185 38.116 298.185 40.866C298.185 43.66 295.171 45.442 290.859 45.442ZM300.077 46.96V49.292H292.289V55.914H289.385V49.292H281.729V46.96H300.077ZM305.355 45.178V48.83C308.435 48.808 310.987 48.654 313.847 48.17L314.155 50.524C310.855 51.096 307.885 51.228 304.211 51.228H302.385V42.89H308.963V39.656H302.363V37.346H311.933V45.178H305.355ZM315.255 35.608H318.159V55.936H315.255V35.608ZM342.255 35.652V50.194H339.329V35.652H342.255ZM328.549 42.076C328.549 43.704 329.737 44.694 331.233 44.694C332.751 44.694 333.895 43.704 333.895 42.076C333.895 40.404 332.751 39.436 331.233 39.436C329.737 39.436 328.549 40.404 328.549 42.076ZM336.733 42.076C336.733 45.024 334.335 47.202 331.233 47.202C328.131 47.202 325.711 45.024 325.711 42.076C325.711 39.084 328.131 36.928 331.233 36.928C334.335 36.928 336.733 39.084 336.733 42.076ZM331.673 53.23H342.761V55.54H328.769V48.764H331.673V53.23ZM345.729 37.148H355.475C355.475 42.648 352.087 46.454 346.059 48.192L344.849 45.882C349.359 44.65 351.867 42.296 352.329 39.458H345.729V37.148ZM350.767 48.676V53.23H361.635V55.54H347.863V48.676H350.767ZM360.931 41.284H363.637V43.66H360.931V50.128H358.027V35.63H360.931V41.284ZM375.317 47.048L372.479 46.806C372.941 43.924 373.007 41.746 373.007 39.942H365.439V37.632H375.867V39.282C375.867 41.24 375.867 43.704 375.317 47.048ZM370.895 43.44V49.336C372.853 49.27 374.833 49.138 376.681 48.918L376.835 51.008C372.721 51.712 368.189 51.8 364.669 51.822L364.405 49.446C365.527 49.446 366.759 49.446 368.035 49.424V43.44H370.895ZM383.237 43.77V46.19H380.509V55.87H377.605V35.608H380.509V43.77H383.237ZM401.349 44.848L400.029 47.114C397.697 46.498 396.113 45.2 395.167 43.528C394.243 45.354 392.615 46.784 390.217 47.444L388.875 45.2C392.065 44.32 393.539 42.142 393.649 39.92H389.557V37.632H393.649V35.542H396.553V37.632H400.623V39.92H396.553C396.685 41.966 398.181 44.034 401.349 44.848ZM394.903 50.656V53.384H402.691V50.656H394.903ZM392.043 55.65V48.368H405.529V55.65H392.043ZM402.603 35.63H405.529V47.488H402.603V35.63ZM421.411 43.858V50.304H418.705V36.004H421.411V41.504H422.797V35.652H425.547V50.964H422.797V43.858H421.411ZM412.303 39.81V45.42C412.809 45.42 413.359 45.398 413.865 45.376V39.81H412.303ZM417.913 45.046L418.089 47.158C414.987 47.774 410.939 47.84 408.409 47.84L408.123 45.486H409.707V39.81H408.453V37.5H417.715V39.81H416.461V45.2C416.967 45.156 417.451 45.112 417.913 45.046ZM414.723 53.23H426.031V55.54H411.797V49.138H414.723V53.23ZM435.753 41.24V41.944C435.753 44.87 437.359 48.17 440.681 49.6L439.141 51.822C436.853 50.876 435.247 48.94 434.345 46.63C433.443 49.072 431.815 51.14 429.505 52.174L427.943 49.952C431.265 48.456 432.849 45.024 432.849 41.944V41.24H428.625V38.93H432.849V36.114H435.753V38.93H439.889V41.24H435.753ZM441.759 35.63H444.663V55.892H441.759V35.63ZM463.758 41.108V43.418H449.7V36.356H452.604V41.108H463.758ZM452.428 49.424V53.142H463.868V55.452H449.502V49.424H452.428ZM447.434 45.486H465.782V47.818H447.434V45.486ZM131.492 80.76V75.524H127.642V80.76H131.492ZM134.33 79.308V83.026H124.782V73.258H134.33V76.976H137.982V71.63H140.886V86.392H137.982V79.308H134.33ZM130.436 89.23H141.348V91.54H127.532V84.984H130.436V89.23ZM165.334 71.63V85.226H162.584V71.63H165.334ZM150.682 77.922C150.682 79.506 151.518 80.43 152.728 80.43C153.938 80.43 154.774 79.506 154.774 77.922C154.774 76.338 153.938 75.392 152.728 75.392C151.518 75.392 150.682 76.338 150.682 77.922ZM158.646 76.778H157.216C157.282 77.152 157.326 77.526 157.326 77.944C157.326 78.362 157.282 78.736 157.216 79.132H158.646V76.778ZM158.646 81.442H156.072C155.258 82.344 154.092 82.872 152.728 82.872C150.066 82.872 148.13 80.848 148.13 77.922C148.13 75.018 150.066 72.994 152.728 72.994C154.114 72.994 155.302 73.544 156.116 74.468H158.646V72.026H161.352V83.29H158.646V81.442ZM159.79 84.192V84.72C159.79 86.81 161.88 89.01 166.258 89.582L165.18 91.826C161.924 91.364 159.57 90 158.338 88.152C157.106 90 154.752 91.364 151.496 91.826L150.44 89.582C154.818 89.01 156.886 86.81 156.886 84.72V84.192H159.79ZM179.038 77.922L179.368 80.232C176.068 80.892 173.01 81.09 170.172 81.09H168.456V72.51H171.36V78.67C173.758 78.626 176.332 78.45 179.038 77.922ZM173.142 88.064V89.384H184.186V91.65H170.238V85.93H180.688V84.742H170.216V82.454H183.592V88.064H173.142ZM183.592 75.414H186.276V77.768H183.592V81.618H180.688V71.608H183.592V75.414ZM192.661 72.972H202.253C202.253 78.384 198.997 81.442 192.815 82.608L191.693 80.298C196.599 79.484 198.733 77.504 199.019 75.282H192.661V72.972ZM197.325 88.35V89.56H208.215V91.65H194.443V83.026H207.797V85.138H197.325V86.326H207.577V88.35H197.325ZM207.709 75.766H210.393V78.164H207.709V82.212H204.805V71.608H207.709V75.766ZM220.49 74.512C217.784 74.512 216.156 75.172 216.156 76.404C216.156 77.658 217.784 78.274 220.49 78.274C223.218 78.274 224.846 77.658 224.846 76.404C224.846 75.172 223.218 74.512 220.49 74.512ZM220.49 80.584C216.09 80.584 213.164 78.978 213.164 76.404C213.164 73.83 216.09 72.224 220.49 72.224C224.912 72.224 227.838 73.83 227.838 76.404C227.838 78.978 224.912 80.584 220.49 80.584ZM216.464 85.644V89.23H227.596V91.54H213.56V85.644H216.464ZM211.338 81.97H229.642V84.28H211.338V81.97ZM244.585 74.622C241.923 74.622 240.229 75.414 240.229 76.844C240.229 78.296 241.923 79.066 244.585 79.066C247.225 79.066 248.919 78.296 248.919 76.844C248.919 75.414 247.225 74.622 244.585 74.622ZM244.585 81.376C240.251 81.376 237.259 79.616 237.259 76.844C237.259 74.094 240.251 72.312 244.585 72.312C248.897 72.312 251.911 74.094 251.911 76.844C251.911 79.616 248.897 81.376 244.585 81.376ZM253.803 82.894V85.248H249.557V91.87H246.609V85.248H242.539V91.87H239.613V85.248H235.455V82.894H253.803ZM271.863 71.652V86.194H268.937V71.652H271.863ZM258.157 78.076C258.157 79.704 259.345 80.694 260.841 80.694C262.359 80.694 263.503 79.704 263.503 78.076C263.503 76.404 262.359 75.436 260.841 75.436C259.345 75.436 258.157 76.404 258.157 78.076ZM266.341 78.076C266.341 81.024 263.943 83.202 260.841 83.202C257.739 83.202 255.319 81.024 255.319 78.076C255.319 75.084 257.739 72.928 260.841 72.928C263.943 72.928 266.341 75.084 266.341 78.076ZM261.281 89.23H272.369V91.54H258.377V84.764H261.281V89.23ZM284.952 83.4H288.758V71.63H291.662V86.986H288.758V85.38H284.952V83.4ZM281.058 74.424C279.694 74.424 278.748 74.952 278.748 75.942C278.748 76.932 279.694 77.438 281.058 77.438C282.4 77.438 283.346 76.932 283.346 75.942C283.346 74.952 282.4 74.424 281.058 74.424ZM281.058 79.55C278.088 79.55 276.02 78.098 276.02 75.942C276.02 73.786 278.088 72.312 281.058 72.312C284.006 72.312 286.096 73.786 286.096 75.942C286.096 78.098 284.006 79.55 281.058 79.55ZM279.98 89.23H292.102V91.54H277.076V85.512H279.892V82.806C278.11 82.894 276.416 82.916 274.898 82.916L274.524 80.606C278.22 80.584 283.148 80.54 287.416 79.99L287.614 82.058C286.03 82.322 284.402 82.498 282.774 82.63V86.458H279.98V89.23ZM300.577 83.598L299.455 81.31C303.701 80.65 306.055 78.12 306.319 75.48H300.247V73.17H315.515V75.48H309.443C309.707 78.12 312.061 80.562 316.417 81.2L315.317 83.488C311.753 82.85 309.179 81.156 307.903 78.78C306.649 81.2 304.097 82.96 300.577 83.598ZM309.355 87.184H317.077V89.538H298.729V87.184H306.451V82.718H309.355V87.184ZM330.253 80.606L328.735 82.85C326.601 82.146 325.127 80.782 324.269 79.066C323.389 81.046 321.827 82.608 319.517 83.422L317.999 81.134C321.387 80.012 322.751 77.306 322.751 74.556V72.73H325.699V74.798C325.699 77.24 327.063 79.616 330.253 80.606ZM327.635 89.648C330.209 89.648 331.595 89.12 331.595 87.976C331.595 86.854 330.209 86.326 327.635 86.326C325.039 86.326 323.653 86.854 323.653 87.976C323.653 89.12 325.039 89.648 327.635 89.648ZM327.635 84.082C331.837 84.082 334.477 85.534 334.477 87.976C334.477 90.44 331.837 91.892 327.635 91.892C323.411 91.892 320.771 90.44 320.771 87.976C320.771 85.534 323.411 84.082 327.635 84.082ZM334.257 76.338H336.941V78.736H334.257V83.62H331.353V71.652H334.257V76.338ZM342.44 85.05C343.562 85.05 344.2 83.532 344.2 80.408C344.2 77.306 343.562 75.788 342.44 75.788C341.34 75.788 340.68 77.306 340.68 80.408C340.68 83.532 341.34 85.05 342.44 85.05ZM348.402 79.088V71.96H351.108V90.99H348.402V81.442H346.818C346.554 85.402 344.904 87.778 342.44 87.778C339.756 87.778 338.062 85.006 338.062 80.408C338.062 75.832 339.756 73.06 342.44 73.06C344.838 73.06 346.466 75.304 346.796 79.088H348.402ZM352.516 71.608H355.266V91.87H352.516V71.608ZM365.076 73.192V76.118C365.076 79.946 366.55 83.664 369.894 85.16L368.178 87.47C365.956 86.392 364.482 84.412 363.646 81.97C362.766 84.566 361.248 86.678 358.982 87.822L357.178 85.49C360.61 83.906 362.15 79.968 362.15 76.118V73.192H365.076ZM371.566 71.608H374.47V91.936H371.566V80.298H367.672V77.966H371.566V71.608ZM390.352 79.066V76.976H382.014V79.066H390.352ZM393.212 72.4V81.376H379.132V72.4H382.014V74.71H390.352V72.4H393.212ZM395.39 83.29V85.6H387.602V91.914H384.698V85.6H377.042V83.29H395.39ZM400.427 81.222V85.006C403.155 84.984 405.377 84.874 407.863 84.478L408.127 86.81C405.201 87.272 402.605 87.338 399.195 87.338H397.545V73.324H406.917V75.656H400.427V78.956H406.235V81.222H400.427ZM410.723 71.608H413.627V91.936H410.723V81.09H407.247V78.758H410.723V71.608ZM425.556 75.832V84.83C426.238 84.808 426.942 84.786 427.646 84.764V75.832H425.556ZM430.44 75.832V84.566C431.232 84.5 432.024 84.456 432.772 84.346L432.948 86.458C428.834 87.184 424.236 87.272 420.782 87.272L420.474 84.896C421.178 84.896 421.948 84.896 422.74 84.896V75.832H421.002V73.5H432.178V75.832H430.44ZM439.548 79.286V81.684H436.6V91.914H433.696V71.652H436.6V79.286H439.548ZM453.252 78.89V83.378H450.546V72.004H453.252V76.558H454.836V71.63H457.586V84.016H454.836V78.89H453.252ZM450.524 80.628L448.984 82.828C447.312 82.168 446.146 80.958 445.42 79.506C444.694 81.222 443.44 82.674 441.57 83.466L440.03 81.222C442.868 79.99 443.968 77.482 443.968 75.194V72.84H446.762V75.194C446.762 77.372 447.862 79.55 450.524 80.628ZM450.722 89.714C453.318 89.714 454.77 89.186 454.77 88.108C454.77 87.03 453.318 86.502 450.722 86.502C448.082 86.502 446.63 87.03 446.63 88.108C446.63 89.186 448.082 89.714 450.722 89.714ZM450.722 84.324C454.968 84.324 457.674 85.754 457.674 88.108C457.674 90.484 454.968 91.892 450.722 91.892C446.454 91.892 443.726 90.484 443.726 88.108C443.726 85.754 446.454 84.324 450.722 84.324ZM476.769 71.608V86.876H473.843V71.608H476.769ZM472.633 81.816L472.831 83.884C468.607 84.5 464.075 84.588 460.357 84.588L459.983 82.278C461.589 82.278 463.349 82.278 465.131 82.234V80.144H461.655V72.84H471.445V75.15H464.559V77.834H471.577V80.144H468.035V82.124C469.597 82.058 471.159 81.948 472.633 81.816ZM465.967 89.23H477.297V91.54H463.041V85.776H465.967V89.23ZM501.37 73.742V76.008H484.892V73.742H491.712V71.608H494.616V73.742H501.37ZM497.102 80.298C497.102 79.352 495.804 78.956 493.164 78.956C490.524 78.956 489.248 79.352 489.248 80.298C489.248 81.2 490.524 81.618 493.164 81.618C495.804 81.618 497.102 81.2 497.102 80.298ZM486.234 80.298C486.234 78.054 488.83 76.8 493.164 76.8C497.498 76.8 500.116 78.054 500.116 80.298C500.116 82.52 497.498 83.774 493.164 83.774C488.83 83.774 486.234 82.52 486.234 80.298ZM502.36 84.742V87.074H494.616V91.914H491.712V87.074H484.012V84.742H502.36ZM131.558 109.192V112.118C131.558 115.946 133.032 119.664 136.376 121.16L134.66 123.47C132.438 122.392 130.964 120.412 130.128 117.97C129.248 120.566 127.73 122.678 125.464 123.822L123.66 121.49C127.092 119.906 128.632 115.968 128.632 112.118V109.192H131.558ZM138.048 107.608H140.952V127.936H138.048V116.298H134.154V113.966H138.048V107.608ZM154.128 123.294H161.872V125.67H143.524V123.294H151.224V120.28H145.636V113.416H156.944V111.238H145.614V108.928H159.804V115.682H148.518V117.948H160.266V120.28H154.128V123.294ZM171.316 111.854V120.654C174.198 120.61 176.596 120.456 179.214 120.016L179.5 122.414C176.442 122.964 173.67 123.074 170.15 123.074H168.434V109.5H177.872V111.854H171.316ZM186.452 115.11V117.508H183.504V127.936H180.6V107.63H183.504V115.11H186.452ZM200.464 111.678V110.292H189.464V108.092H203.324V113.724H192.368V115.132H203.72V117.332H189.508V111.678H200.464ZM192.434 121.996V125.23H203.786V127.54H189.53V121.996H192.434ZM187.22 118.586H205.568V120.896H187.22V118.586ZM228.168 107.63V122.282H225.242V107.63H228.168ZM223.966 117.552L222.492 119.774C220.248 119.07 218.708 117.618 217.784 115.814C216.882 117.794 215.254 119.356 212.9 120.126L211.426 117.86C214.792 116.804 216.266 114.142 216.266 111.612V111.37H212.196V109.082H223.218V111.37H219.214V111.612C219.214 113.988 220.688 116.474 223.966 117.552ZM217.586 125.23H228.674V127.54H214.682V120.962H217.586V125.23ZM242.994 109.852V112.14H231.07V109.852H235.602V107.718H238.506V109.852H242.994ZM234.854 116.738C234.854 117.816 235.734 118.388 237.054 118.388C238.374 118.388 239.254 117.816 239.254 116.738C239.254 115.704 238.374 115.132 237.054 115.132C235.734 115.132 234.854 115.704 234.854 116.738ZM238.506 120.412V122.018C240.068 121.93 241.63 121.82 243.082 121.6L243.302 123.69C239.034 124.526 234.48 124.526 231.048 124.526L230.696 122.172C232.148 122.172 233.82 122.172 235.602 122.128V120.412C233.49 119.972 232.104 118.608 232.104 116.738C232.104 114.472 234.15 112.932 237.054 112.932C239.958 112.932 242.004 114.472 242.004 116.738C242.004 118.608 240.618 119.972 238.506 120.412ZM249.55 115.88V118.278H247.02V127.892H244.116V107.63H247.02V115.88H249.55ZM257.006 108.972C260.174 108.972 262.594 111.062 262.594 113.966C262.594 116.892 260.174 118.96 257.006 118.96C253.838 118.96 251.44 116.892 251.44 113.966C251.44 111.062 253.838 108.972 257.006 108.972ZM257.006 111.458C255.444 111.458 254.256 112.382 254.256 113.966C254.256 115.55 255.444 116.474 257.006 116.474C258.568 116.474 259.756 115.55 259.756 113.966C259.756 112.382 258.568 111.458 257.006 111.458ZM264.486 107.608H267.39V127.936H264.486V107.608ZM250.956 123.822L250.582 121.468C254.146 121.468 259.118 121.446 263.386 120.808L263.562 122.898C259.206 123.778 254.454 123.822 250.956 123.822ZM291.442 107.608V117.794H288.516V107.608H291.442ZM275.998 108.378H285.37C285.37 113.922 282.312 116.914 275.91 118.234L274.898 115.902C279.892 115.022 281.872 113.086 282.136 110.688H275.998V108.378ZM280.882 125.45H291.948V127.694H277.956V122.04H288.516V120.852H277.934V118.652H291.442V124.13H280.882V125.45ZM303.342 110.05C300.416 110.05 299.03 110.468 299.03 111.37C299.03 112.316 300.416 112.712 303.342 112.712C306.29 112.712 307.676 112.316 307.676 111.37C307.676 110.468 306.29 110.05 303.342 110.05ZM303.342 114.824C298.722 114.824 296.016 113.614 296.016 111.37C296.016 109.148 298.722 107.916 303.342 107.916C307.984 107.916 310.69 109.148 310.69 111.37C310.69 113.614 307.984 114.824 303.342 114.824ZM299.184 124.416V125.56H310.8V127.738H296.302V122.414H307.412V121.336H296.28V119.202H310.272V124.416H299.184ZM294.19 115.792H312.494V118.058H294.19V115.792ZM332.343 117.75V114.23H328.801V111.92H332.343V107.608H335.247V117.75H332.343ZM319.715 108.378H328.581C328.581 113.658 325.457 116.87 319.517 118.278L318.549 116.012C322.971 115.022 325.083 113.086 325.457 110.688H319.715V108.378ZM324.819 125.406H335.665V127.694H321.915V121.974H332.343V120.808H321.893V118.52H335.247V124.13H324.819V125.406ZM343.474 111.062C342 111.062 340.922 112.008 340.922 113.526C340.922 115.066 342 115.968 343.474 115.968C344.948 115.968 346.026 115.066 346.026 113.526C346.026 112.008 344.948 111.062 343.474 111.062ZM351.922 114.692H348.688C348.138 116.892 346.092 118.388 343.474 118.388C340.46 118.388 338.172 116.364 338.172 113.526C338.172 110.688 340.46 108.664 343.474 108.664C346.07 108.664 348.116 110.138 348.666 112.338H351.922V107.63H354.826V118.96H351.922V114.692ZM352.934 119.752V120.5C352.934 122.656 354.012 124.658 356.718 125.516L355.266 127.606C353.352 126.968 352.142 125.736 351.438 124.152C350.778 125.736 349.612 127.1 347.786 127.826C345.916 127.122 344.772 125.802 344.112 124.218C343.408 125.736 342.198 126.968 340.372 127.606L338.942 125.516C341.582 124.57 342.682 122.524 342.682 120.5V119.752H345.498V120.5C345.498 122.172 346.158 123.866 347.764 125.01C349.414 123.8 350.074 122.018 350.074 120.5V119.752H352.934ZM363.008 120.874C364.504 120.874 365.494 119.268 365.494 116.254C365.494 113.262 364.504 111.656 363.008 111.656C361.534 111.656 360.544 113.262 360.544 116.254C360.544 119.268 361.534 120.874 363.008 120.874ZM371.566 107.608H374.47V127.936H371.566V117.266H368.2C367.892 121.138 365.824 123.514 363.008 123.514C359.994 123.514 357.772 120.72 357.772 116.254C357.772 111.81 359.994 109.038 363.008 109.038C365.736 109.038 367.782 111.26 368.178 114.912H371.566V107.608ZM379.374 109.5C379.976 109.5 380.408 109.647 380.672 109.94C380.951 110.219 381.09 110.571 381.09 110.996V111.414C381.09 111.81 381.032 112.213 380.914 112.624C380.812 113.02 380.658 113.409 380.452 113.79C380.247 114.171 380.005 114.531 379.726 114.868C379.448 115.205 379.147 115.506 378.824 115.77H376.932C377.402 115.33 377.798 114.89 378.12 114.45C378.443 113.995 378.685 113.497 378.846 112.954C378.421 112.881 378.113 112.712 377.922 112.448C377.732 112.169 377.636 111.847 377.636 111.48V110.996C377.636 110.571 377.768 110.219 378.032 109.94C378.311 109.647 378.758 109.5 379.374 109.5ZM126.146 151.99C125.545 151.99 125.105 151.851 124.826 151.572C124.562 151.279 124.43 150.919 124.43 150.494V150.076C124.43 149.68 124.489 149.284 124.606 148.888C124.723 148.477 124.877 148.081 125.068 147.7C125.273 147.319 125.515 146.959 125.794 146.622C126.073 146.285 126.373 145.984 126.696 145.72H128.588C128.119 146.175 127.723 146.622 127.4 147.062C127.077 147.502 126.835 147.993 126.674 148.536C127.099 148.624 127.407 148.807 127.598 149.086C127.789 149.35 127.884 149.658 127.884 150.01V150.494C127.884 150.919 127.745 151.279 127.466 151.572C127.202 151.851 126.762 151.99 126.146 151.99ZM138.554 150.01V146.886H134.132V150.01H138.554ZM141.392 144.598V152.298H131.272V144.598H141.392ZM142.668 153.486L142.844 155.62C141.062 155.862 139.28 156.038 137.52 156.148V163.298H134.616V156.258C132.988 156.324 131.426 156.324 129.974 156.324L129.644 153.97C133.626 153.948 138.4 153.948 142.668 153.486ZM143.966 143.63H146.87V163.87H143.966V159.47H139.896V157.27H143.966V143.63ZM152.984 153.178V156.852C155.888 156.83 158.286 156.676 160.926 156.214L161.19 158.568C158.154 159.118 155.36 159.25 151.84 159.25H150.124V150.89H156.548V147.656H150.102V145.346H159.408V153.178H152.984ZM168.098 151.264V153.662H165.194V163.936H162.29V143.608H165.194V151.264H168.098ZM184.64 157.006L181.736 156.676C182.506 152.848 182.55 150.032 182.55 147.678H170.736V145.368H185.454V147.304C185.454 149.834 185.454 152.694 184.64 157.006ZM178.26 159.118H187.214V161.45H168.888V159.118H175.356V152.144H178.26V159.118ZM191.107 157.028V153.596C192.28 153.552 193.167 153.332 193.769 152.936C194.385 152.525 194.693 151.895 194.693 151.044V150.736C194.693 150.12 194.509 149.643 194.143 149.306C193.776 148.969 193.285 148.8 192.669 148.8C192.009 148.8 191.473 148.998 191.063 149.394C190.667 149.775 190.388 150.274 190.227 150.89L187.873 149.922C188.005 149.467 188.195 149.027 188.445 148.602C188.694 148.177 189.017 147.803 189.413 147.48C189.809 147.143 190.285 146.879 190.843 146.688C191.4 146.483 192.045 146.38 192.779 146.38C193.527 146.38 194.201 146.49 194.803 146.71C195.404 146.915 195.917 147.216 196.343 147.612C196.768 147.993 197.098 148.455 197.333 148.998C197.567 149.541 197.685 150.142 197.685 150.802C197.685 151.447 197.575 152.027 197.355 152.54C197.149 153.039 196.863 153.479 196.497 153.86C196.13 154.227 195.712 154.527 195.243 154.762C194.773 154.982 194.289 155.136 193.791 155.224V157.028H191.107ZM192.471 162.264C191.855 162.264 191.407 162.117 191.129 161.824C190.85 161.531 190.711 161.157 190.711 160.702V160.262C190.711 159.807 190.85 159.433 191.129 159.14C191.407 158.847 191.855 158.7 192.471 158.7C193.101 158.7 193.556 158.847 193.835 159.14C194.113 159.433 194.253 159.807 194.253 160.262V160.702C194.253 161.157 194.113 161.531 193.835 161.824C193.556 162.117 193.101 162.264 192.471 162.264ZM212.304 146.622C209.642 146.622 207.948 147.414 207.948 148.866C207.948 150.34 209.642 151.132 212.304 151.132C214.944 151.132 216.638 150.34 216.638 148.866C216.638 147.414 214.944 146.622 212.304 146.622ZM212.304 153.442C207.97 153.442 204.978 151.66 204.978 148.866C204.978 146.116 207.97 144.312 212.304 144.312C216.616 144.312 219.63 146.116 219.63 148.866C219.63 151.66 216.616 153.442 212.304 153.442ZM221.522 154.96V157.292H213.734V163.914H210.83V157.292H203.174V154.96H221.522ZM226.8 153.178V156.83C229.88 156.808 232.432 156.654 235.292 156.17L235.6 158.524C232.3 159.096 229.33 159.228 225.656 159.228H223.83V150.89H230.408V147.656H223.808V145.346H233.378V153.178H226.8ZM236.7 143.608H239.604V163.936H236.7V143.608ZM248.842 144.972C252.01 144.972 254.43 147.062 254.43 149.966C254.43 152.892 252.01 154.96 248.842 154.96C245.674 154.96 243.276 152.892 243.276 149.966C243.276 147.062 245.674 144.972 248.842 144.972ZM248.842 147.458C247.28 147.458 246.092 148.382 246.092 149.966C246.092 151.55 247.28 152.474 248.842 152.474C250.404 152.474 251.592 151.55 251.592 149.966C251.592 148.382 250.404 147.458 248.842 147.458ZM256.322 143.608H259.226V163.936H256.322V143.608ZM242.792 159.822L242.418 157.468C245.982 157.468 250.954 157.446 255.222 156.808L255.398 158.898C251.042 159.778 246.29 159.822 242.792 159.822ZM268.296 155.598L267.174 153.31C271.42 152.65 273.774 150.12 274.038 147.48H267.966V145.17H283.234V147.48H277.162C277.426 150.12 279.78 152.562 284.136 153.2L283.036 155.488C279.472 154.85 276.898 153.156 275.622 150.78C274.368 153.2 271.816 154.96 268.296 155.598ZM277.074 159.184H284.796V161.538H266.448V159.184H274.17V154.718H277.074V159.184ZM297.972 152.606L296.454 154.85C294.32 154.146 292.846 152.782 291.988 151.066C291.108 153.046 289.546 154.608 287.236 155.422L285.718 153.134C289.106 152.012 290.47 149.306 290.47 146.556V144.73H293.418V146.798C293.418 149.24 294.782 151.616 297.972 152.606ZM295.354 161.648C297.928 161.648 299.314 161.12 299.314 159.976C299.314 158.854 297.928 158.326 295.354 158.326C292.758 158.326 291.372 158.854 291.372 159.976C291.372 161.12 292.758 161.648 295.354 161.648ZM295.354 156.082C299.556 156.082 302.196 157.534 302.196 159.976C302.196 162.44 299.556 163.892 295.354 163.892C291.13 163.892 288.49 162.44 288.49 159.976C288.49 157.534 291.13 156.082 295.354 156.082ZM301.976 148.338H304.66V150.736H301.976V155.62H299.072V143.652H301.976V148.338ZM319.486 143.608H322.39V163.936H319.486V143.608ZM311.5 145.038C314.558 145.038 316.824 147.81 316.824 152.254C316.824 156.72 314.558 159.514 311.5 159.514C308.442 159.514 306.176 156.72 306.176 152.254C306.176 147.81 308.442 145.038 311.5 145.038ZM311.5 147.656C310.004 147.656 308.97 149.262 308.97 152.254C308.97 155.268 310.004 156.874 311.5 156.874C312.996 156.874 314.03 155.268 314.03 152.254C314.03 149.262 312.996 147.656 311.5 147.656ZM342.372 152.848L341.052 155.114C338.72 154.498 337.136 153.2 336.19 151.528C335.266 153.354 333.638 154.784 331.24 155.444L329.898 153.2C333.088 152.32 334.562 150.142 334.672 147.92H330.58V145.632H334.672V143.542H337.576V145.632H341.646V147.92H337.576C337.708 149.966 339.204 152.034 342.372 152.848ZM335.926 158.656V161.384H343.714V158.656H335.926ZM333.066 163.65V156.368H346.552V163.65H333.066ZM343.626 143.63H346.552V155.488H343.626V143.63ZM362.434 151.858V158.304H359.728V144.004H362.434V149.504H363.82V143.652H366.57V158.964H363.82V151.858H362.434ZM353.326 147.81V153.42C353.832 153.42 354.382 153.398 354.888 153.376V147.81H353.326ZM358.936 153.046L359.112 155.158C356.01 155.774 351.962 155.84 349.432 155.84L349.146 153.486H350.73V147.81H349.476V145.5H358.738V147.81H357.484V153.2C357.99 153.156 358.474 153.112 358.936 153.046ZM355.746 161.23H367.054V163.54H352.82V157.138H355.746V161.23ZM376.71 147.964V149.086C376.71 152.386 378.338 155.884 381.726 157.292L380.142 159.58C377.788 158.568 376.182 156.588 375.28 154.146C374.378 156.786 372.75 159.008 370.374 160.086L368.724 157.776C372.112 156.258 373.762 152.54 373.762 149.086V147.964H369.538V145.566H380.89V147.964H376.71ZM382.76 143.63H385.664V163.892H382.76V143.63ZM392.152 153.178V156.852C395.056 156.83 397.454 156.676 400.094 156.214L400.358 158.568C397.322 159.118 394.528 159.25 391.008 159.25H389.292V150.89H395.716V147.656H389.27V145.346H398.576V153.178H392.152ZM407.266 151.264V153.662H404.362V163.936H401.458V143.608H404.362V151.264H407.266ZM423.809 157.006L420.905 156.676C421.675 152.848 421.719 150.032 421.719 147.678H409.905V145.368H424.623V147.304C424.623 149.834 424.623 152.694 423.809 157.006ZM417.429 159.118H426.383V161.45H408.057V159.118H414.525V152.144H417.429V159.118ZM430.275 157.028V153.596C431.448 153.552 432.336 153.332 432.937 152.936C433.553 152.525 433.861 151.895 433.861 151.044V150.736C433.861 150.12 433.678 149.643 433.311 149.306C432.944 148.969 432.453 148.8 431.837 148.8C431.177 148.8 430.642 148.998 430.231 149.394C429.835 149.775 429.556 150.274 429.395 150.89L427.041 149.922C427.173 149.467 427.364 149.027 427.613 148.602C427.862 148.177 428.185 147.803 428.581 147.48C428.977 147.143 429.454 146.879 430.011 146.688C430.568 146.483 431.214 146.38 431.947 146.38C432.695 146.38 433.37 146.49 433.971 146.71C434.572 146.915 435.086 147.216 435.511 147.612C435.936 147.993 436.266 148.455 436.501 148.998C436.736 149.541 436.853 150.142 436.853 150.802C436.853 151.447 436.743 152.027 436.523 152.54C436.318 153.039 436.032 153.479 435.665 153.86C435.298 154.227 434.88 154.527 434.411 154.762C433.942 154.982 433.458 155.136 432.959 155.224V157.028H430.275ZM431.639 162.264C431.023 162.264 430.576 162.117 430.297 161.824C430.018 161.531 429.879 161.157 429.879 160.702V160.262C429.879 159.807 430.018 159.433 430.297 159.14C430.576 158.847 431.023 158.7 431.639 158.7C432.27 158.7 432.724 158.847 433.003 159.14C433.282 159.433 433.421 159.807 433.421 160.262V160.702C433.421 161.157 433.282 161.531 433.003 161.824C432.724 162.117 432.27 162.264 431.639 162.264ZM135.877 186.714V182.842H131.917V186.714H135.877ZM138.737 180.576V189.002H129.079V180.576H138.737ZM133.963 196.086V197.406H145.029V199.65H131.081V193.996H141.575V192.786H131.059V190.542H144.435V196.086H133.963ZM144.435 183.524H147.097V185.9H144.435V189.75H141.531V179.63H144.435V183.524ZM161.946 179.608H164.85V199.936H161.946V179.608ZM153.96 181.038C157.018 181.038 159.284 183.81 159.284 188.254C159.284 192.72 157.018 195.514 153.96 195.514C150.902 195.514 148.636 192.72 148.636 188.254C148.636 183.81 150.902 181.038 153.96 181.038ZM153.96 183.656C152.464 183.656 151.43 185.262 151.43 188.254C151.43 191.268 152.464 192.874 153.96 192.874C155.456 192.874 156.49 191.268 156.49 188.254C156.49 185.262 155.456 183.656 153.96 183.656ZM180.277 190.168V193.468C181.905 193.38 183.533 193.27 185.073 193.116L185.249 195.228C180.915 195.91 176.383 195.954 172.621 195.954L172.269 193.578C173.853 193.578 175.591 193.578 177.373 193.534V190.168H173.567V181.434H184.017V183.744H176.471V187.836H184.149V190.168H180.277ZM186.173 179.63H189.077V199.936H186.173V179.63ZM208.083 185.108V187.418H194.025V180.356H196.929V185.108H208.083ZM196.753 193.424V197.142H208.193V199.452H193.827V193.424H196.753ZM191.759 189.486H210.107V191.818H191.759V189.486ZM233.609 188.87L232.421 191.268C228.857 190.63 226.261 188.738 224.941 186.23C223.621 188.716 221.047 190.63 217.505 191.268L216.317 188.87C220.893 188.122 223.401 185.02 223.401 182.204V180.752H226.503V182.204C226.503 185.086 228.989 188.122 233.609 188.87ZM226.415 195.162H234.225V197.494H215.877V195.162H223.511V190.63H226.415V195.162ZM239.503 189.178V192.83C242.583 192.808 245.135 192.654 247.995 192.17L248.303 194.524C245.003 195.096 242.033 195.228 238.359 195.228H236.533V186.89H243.111V183.656H236.511V181.346H246.081V189.178H239.503ZM249.403 179.608H252.307V199.936H249.403V179.608ZM268.277 182.93V181.94H257.277V179.982H271.137V184.756H260.181V185.812H271.489V187.77H257.321V182.93H268.277ZM260.005 196.658V197.758H271.753V199.716H257.123V194.832H268.321V193.798H257.101V191.84H271.203V196.658H260.005ZM255.033 188.738H273.381V190.828H255.033V188.738ZM284.013 193.116C285.113 193.116 285.905 192.236 285.905 190.718C285.905 189.2 285.113 188.298 284.013 188.298C282.913 188.298 282.121 189.2 282.121 190.718C282.121 192.236 282.913 193.116 284.013 193.116ZM284.013 185.878C286.609 185.878 288.457 187.88 288.457 190.718C288.457 193.534 286.609 195.536 284.013 195.536C281.417 195.536 279.569 193.534 279.569 190.718C279.569 187.88 281.417 185.878 284.013 185.878ZM285.443 180.18V182.688H288.809V184.998H279.129V182.688H282.583V180.18H285.443ZM293.781 179.608H296.531V199.87H293.781V190.212H292.241V199.034H289.535V180.004H292.241V187.88H293.781V179.608ZM304.163 192.874C305.659 192.874 306.693 191.268 306.693 188.254C306.693 185.284 305.659 183.656 304.163 183.656C302.645 183.656 301.633 185.284 301.633 188.254C301.633 191.268 302.645 192.874 304.163 192.874ZM304.163 181.038C307.221 181.038 309.487 183.81 309.487 188.254C309.487 192.72 307.221 195.514 304.163 195.514C301.083 195.514 298.839 192.72 298.839 188.254C298.839 183.81 301.083 181.038 304.163 181.038ZM317.385 186.736H314.591V190.278H317.385V192.654H314.591V199.892H311.687V179.63H314.591V184.36H317.385V186.736ZM326.139 183.964V185.086C326.139 188.386 327.767 191.884 331.155 193.292L329.571 195.58C327.217 194.568 325.611 192.588 324.709 190.146C323.807 192.786 322.179 195.008 319.803 196.086L318.153 193.776C321.541 192.258 323.191 188.54 323.191 185.086V183.964H318.967V181.566H330.319V183.964H326.139ZM332.189 179.63H335.093V199.892H332.189V179.63ZM339.756 193.38L338.854 186.978V182.644H341.846V186.978L340.988 193.38H339.756ZM340.35 198.264C339.719 198.264 339.264 198.117 338.986 197.824C338.707 197.531 338.568 197.157 338.568 196.702V196.262C338.568 195.807 338.707 195.433 338.986 195.14C339.264 194.847 339.719 194.7 340.35 194.7C340.966 194.7 341.413 194.847 341.692 195.14C341.97 195.433 342.11 195.807 342.11 196.262V196.702C342.11 197.157 341.97 197.531 341.692 197.824C341.413 198.117 340.966 198.264 340.35 198.264ZM345.885 193.38L344.983 186.978V182.644H347.975V186.978L347.117 193.38H345.885ZM346.479 198.264C345.848 198.264 345.393 198.117 345.115 197.824C344.836 197.531 344.697 197.157 344.697 196.702V196.262C344.697 195.807 344.836 195.433 345.115 195.14C345.393 194.847 345.848 194.7 346.479 194.7C347.095 194.7 347.542 194.847 347.821 195.14C348.099 195.433 348.239 195.807 348.239 196.262V196.702C348.239 197.157 348.099 197.531 347.821 197.824C347.542 198.117 347.095 198.264 346.479 198.264ZM352.476 181.5C353.077 181.5 353.51 181.647 353.774 181.94C354.052 182.219 354.192 182.571 354.192 182.996V183.414C354.192 183.81 354.133 184.213 354.016 184.624C353.913 185.02 353.759 185.409 353.554 185.79C353.348 186.171 353.106 186.531 352.828 186.868C352.549 187.205 352.248 187.506 351.926 187.77H350.034C350.503 187.33 350.899 186.89 351.222 186.45C351.544 185.995 351.786 185.497 351.948 184.954C351.522 184.881 351.214 184.712 351.024 184.448C350.833 184.169 350.738 183.847 350.738 183.48V182.996C350.738 182.571 350.87 182.219 351.134 181.94C351.412 181.647 351.86 181.5 352.476 181.5Z" fill="white"/>
<rect x="171" y="363" width="433" height="160" rx="4" fill="#4857F6"/>
<path d="M200.39 408.264C199.29 408.264 198.366 408.081 197.618 407.714C196.87 407.333 196.21 406.812 195.638 406.152L197.354 404.48C197.779 404.964 198.241 405.345 198.74 405.624C199.253 405.903 199.84 406.042 200.5 406.042C201.175 406.042 201.659 405.925 201.952 405.69C202.26 405.455 202.414 405.133 202.414 404.722C202.414 404.385 202.304 404.121 202.084 403.93C201.879 403.725 201.519 403.585 201.006 403.512L199.862 403.358C198.615 403.197 197.662 402.845 197.002 402.302C196.357 401.745 196.034 400.938 196.034 399.882C196.034 399.325 196.137 398.826 196.342 398.386C196.547 397.931 196.841 397.55 197.222 397.242C197.603 396.919 198.058 396.677 198.586 396.516C199.129 396.34 199.73 396.252 200.39 396.252C200.947 396.252 201.439 396.296 201.864 396.384C202.304 396.457 202.7 396.575 203.052 396.736C203.404 396.883 203.727 397.073 204.02 397.308C204.313 397.528 204.599 397.777 204.878 398.056L203.228 399.706C202.891 399.354 202.487 399.061 202.018 398.826C201.549 398.591 201.035 398.474 200.478 398.474C199.862 398.474 199.415 398.584 199.136 398.804C198.872 399.024 198.74 399.31 198.74 399.662C198.74 400.043 198.85 400.337 199.07 400.542C199.305 400.733 199.693 400.872 200.236 400.96L201.402 401.114C203.881 401.466 205.12 402.595 205.12 404.502C205.12 405.059 205.003 405.573 204.768 406.042C204.548 406.497 204.233 406.893 203.822 407.23C203.411 407.553 202.913 407.809 202.326 408C201.754 408.176 201.109 408.264 200.39 408.264ZM211.501 408.264C210.679 408.264 209.939 408.125 209.279 407.846C208.633 407.567 208.076 407.164 207.607 406.636C207.152 406.108 206.8 405.477 206.551 404.744C206.301 403.996 206.177 403.16 206.177 402.236C206.177 401.312 206.301 400.483 206.551 399.75C206.8 399.017 207.152 398.393 207.607 397.88C208.076 397.352 208.633 396.949 209.279 396.67C209.939 396.391 210.679 396.252 211.501 396.252C212.322 396.252 213.063 396.391 213.723 396.67C214.383 396.949 214.94 397.352 215.395 397.88C215.864 398.393 216.223 399.017 216.473 399.75C216.722 400.483 216.847 401.312 216.847 402.236C216.847 403.16 216.722 403.996 216.473 404.744C216.223 405.477 215.864 406.108 215.395 406.636C214.94 407.164 214.383 407.567 213.723 407.846C213.063 408.125 212.322 408.264 211.501 408.264ZM211.501 405.998C212.249 405.998 212.835 405.771 213.261 405.316C213.686 404.861 213.899 404.194 213.899 403.314V401.18C213.899 400.315 213.686 399.655 213.261 399.2C212.835 398.745 212.249 398.518 211.501 398.518C210.767 398.518 210.188 398.745 209.763 399.2C209.337 399.655 209.125 400.315 209.125 401.18V403.314C209.125 404.194 209.337 404.861 209.763 405.316C210.188 405.771 210.767 405.998 211.501 405.998ZM221.499 408C220.531 408 219.82 407.758 219.365 407.274C218.91 406.79 218.683 406.108 218.683 405.228V391.72H221.499V405.756H223.017V408H221.499ZM231.354 406.086H231.244C231.141 406.379 231.002 406.658 230.826 406.922C230.664 407.171 230.452 407.399 230.188 407.604C229.938 407.809 229.63 407.971 229.264 408.088C228.912 408.205 228.501 408.264 228.032 408.264C226.844 408.264 225.934 407.875 225.304 407.098C224.673 406.321 224.358 405.213 224.358 403.776V396.516H227.174V403.49C227.174 404.282 227.328 404.891 227.636 405.316C227.944 405.727 228.435 405.932 229.11 405.932C229.388 405.932 229.66 405.895 229.924 405.822C230.202 405.749 230.444 405.639 230.65 405.492C230.855 405.331 231.024 405.14 231.156 404.92C231.288 404.685 231.354 404.414 231.354 404.106V396.516H234.17V408H231.354V406.086ZM240.349 408C239.381 408 238.641 407.751 238.127 407.252C237.629 406.739 237.379 406.013 237.379 405.074V398.76H235.685V396.516H236.565C236.991 396.516 237.277 396.421 237.423 396.23C237.585 396.025 237.665 395.724 237.665 395.328V393.37H240.195V396.516H242.549V398.76H240.195V405.756H242.373V408H240.349ZM245.74 394.844C245.153 394.844 244.728 394.712 244.464 394.448C244.215 394.184 244.09 393.847 244.09 393.436V392.996C244.09 392.585 244.215 392.248 244.464 391.984C244.728 391.72 245.153 391.588 245.74 391.588C246.312 391.588 246.73 391.72 246.994 391.984C247.258 392.248 247.39 392.585 247.39 392.996V393.436C247.39 393.847 247.258 394.184 246.994 394.448C246.73 394.712 246.312 394.844 245.74 394.844ZM244.332 396.516H247.148V408H244.332V396.516ZM254.306 408.264C253.485 408.264 252.744 408.125 252.084 407.846C251.439 407.567 250.881 407.164 250.412 406.636C249.957 406.108 249.605 405.477 249.356 404.744C249.107 403.996 248.982 403.16 248.982 402.236C248.982 401.312 249.107 400.483 249.356 399.75C249.605 399.017 249.957 398.393 250.412 397.88C250.881 397.352 251.439 396.949 252.084 396.67C252.744 396.391 253.485 396.252 254.306 396.252C255.127 396.252 255.868 396.391 256.528 396.67C257.188 396.949 257.745 397.352 258.2 397.88C258.669 398.393 259.029 399.017 259.278 399.75C259.527 400.483 259.652 401.312 259.652 402.236C259.652 403.16 259.527 403.996 259.278 404.744C259.029 405.477 258.669 406.108 258.2 406.636C257.745 407.164 257.188 407.567 256.528 407.846C255.868 408.125 255.127 408.264 254.306 408.264ZM254.306 405.998C255.054 405.998 255.641 405.771 256.066 405.316C256.491 404.861 256.704 404.194 256.704 403.314V401.18C256.704 400.315 256.491 399.655 256.066 399.2C255.641 398.745 255.054 398.518 254.306 398.518C253.573 398.518 252.993 398.745 252.568 399.2C252.143 399.655 251.93 400.315 251.93 401.18V403.314C251.93 404.194 252.143 404.861 252.568 405.316C252.993 405.771 253.573 405.998 254.306 405.998ZM261.488 408V396.516H264.304V398.43H264.414C264.649 397.814 265.016 397.301 265.514 396.89C266.028 396.465 266.732 396.252 267.626 396.252C268.814 396.252 269.724 396.641 270.354 397.418C270.985 398.195 271.3 399.303 271.3 400.74V408H268.484V401.026C268.484 400.205 268.338 399.589 268.044 399.178C267.751 398.767 267.267 398.562 266.592 398.562C266.299 398.562 266.013 398.606 265.734 398.694C265.47 398.767 265.228 398.885 265.008 399.046C264.803 399.193 264.634 399.383 264.502 399.618C264.37 399.838 264.304 400.102 264.304 400.41V408H261.488ZM198.41 444.264C197.867 444.264 197.464 444.125 197.2 443.846C196.936 443.553 196.804 443.193 196.804 442.768V442.438C196.804 442.013 196.936 441.661 197.2 441.382C197.464 441.089 197.867 440.942 198.41 440.942C198.953 440.942 199.356 441.089 199.62 441.382C199.884 441.661 200.016 442.013 200.016 442.438V442.768C200.016 443.193 199.884 443.553 199.62 443.846C199.356 444.125 198.953 444.264 198.41 444.264ZM198.41 435.618C197.867 435.618 197.464 435.479 197.2 435.2C196.936 434.907 196.804 434.547 196.804 434.122V433.792C196.804 433.367 196.936 433.015 197.2 432.736C197.464 432.443 197.867 432.296 198.41 432.296C198.953 432.296 199.356 432.443 199.62 432.736C199.884 433.015 200.016 433.367 200.016 433.792V434.122C200.016 434.547 199.884 434.907 199.62 435.2C199.356 435.479 198.953 435.618 198.41 435.618ZM213.896 429.414V431.922C213.896 435.266 216.272 438.676 219.176 439.908L218.164 441.36C215.876 440.304 213.94 438.038 212.994 435.332C212.092 438.214 210.156 440.7 207.912 441.844L206.856 440.392C209.694 439.05 212.092 435.332 212.092 431.922V429.414H207.516V427.918H218.538V429.414H213.896ZM221.2 425.916H223.004V445.628H221.2V425.916ZM230.394 439.798V443.912H240.316V439.798H230.394ZM228.634 445.364V438.346H242.098V445.364H228.634ZM241.504 434.21H244.342V435.662H226.412V434.21H239.678C240.25 431.746 240.25 429.942 240.25 428.402H228.7V426.95H242.032V428.402C242.032 429.942 242.032 431.746 241.504 434.21ZM253.324 428.292V438.94C255.216 438.918 257.306 438.786 259.66 438.324L259.836 439.886C257.174 440.392 254.908 440.502 252.774 440.502H251.52V428.292H253.324ZM265.556 425.894H267.294V445.606H265.556V435.42H262.762V444.616H261.068V426.334H262.762V433.924H265.556V425.894ZM276.429 435.486L275.747 434.056C279.179 433.55 282.589 431.284 282.589 428.688V428.578H276.363V427.126H290.773V428.578H284.591V428.688C284.591 431.284 288.001 433.55 291.477 434.056L290.773 435.486C287.715 434.958 284.789 433.308 283.601 430.976C282.391 433.308 279.487 434.958 276.429 435.486ZM292.511 437.136L292.533 438.61H284.459V445.628H282.655V438.61H274.691V437.136H292.511ZM305.687 435.442L304.829 436.85C302.585 436.124 300.891 434.562 300.055 432.604C299.219 434.848 297.437 436.608 295.083 437.444L294.159 436.014C297.129 434.98 299.109 432.428 299.109 429.59V428.82H294.687V427.368H305.269V428.82H300.913V429.59C300.913 432.164 302.783 434.474 305.687 435.442ZM303.289 444.176C306.193 444.176 307.975 443.362 307.975 441.954C307.975 440.568 306.193 439.754 303.289 439.754C300.341 439.754 298.581 440.568 298.581 441.954C298.581 443.362 300.341 444.176 303.289 444.176ZM303.289 438.324C307.293 438.324 309.779 439.666 309.779 441.954C309.779 444.264 307.293 445.606 303.289 445.606C299.241 445.606 296.777 444.264 296.777 441.954C296.777 439.666 299.241 438.324 303.289 438.324ZM309.559 430.888H312.485V432.406H309.559V437.818H307.755V425.916H309.559V430.888ZM322.736 427.588C319.502 427.588 317.654 428.336 317.654 429.656C317.654 430.976 319.502 431.724 322.736 431.724C325.97 431.724 327.818 430.976 327.818 429.656C327.818 428.336 325.97 427.588 322.736 427.588ZM322.736 433.066C318.402 433.066 315.806 431.878 315.806 429.656C315.806 427.434 318.402 426.224 322.736 426.224C327.07 426.224 329.666 427.434 329.666 429.656C329.666 431.878 327.07 433.066 322.736 433.066ZM317.786 441.998V444H329.974V445.408H316.026V440.678H327.598V438.918H315.96V437.554H329.38V441.998H317.786ZM313.804 434.408H331.668V435.86H313.804V434.408ZM349.449 434.298L348.635 435.728C346.347 435.068 344.609 433.594 343.729 431.746C342.893 433.858 341.045 435.486 338.647 436.234L337.767 434.826C340.737 433.924 342.783 431.614 342.783 429.018V428.468H338.383V426.994H348.943V428.468H344.609V428.996C344.609 431.35 346.567 433.484 349.449 434.298ZM342.541 441.756V444.044H353.981V445.43H340.781V440.414H351.473V438.39H340.715V437.004H353.255V441.756H342.541ZM353.255 430.184H356.181V431.68H353.255V436.058H351.451V425.916H353.255V430.184ZM367.377 438.39V438.984C367.377 441.602 370.391 443.56 373.977 444.088L373.295 445.496C370.281 444.99 367.619 443.604 366.453 441.47C365.243 443.604 362.581 444.99 359.567 445.496L358.885 444.088C362.471 443.56 365.529 441.602 365.529 438.984V438.39H367.377ZM361.569 428.138V431.922H371.293V428.138H361.569ZM367.355 435.662H375.363V437.114H357.499V435.662H365.551V433.374H359.809V426.708H373.075V433.374H367.355V435.662ZM395.983 425.894H397.787V445.672H395.983V425.894ZM387.381 427.412C390.307 427.412 392.397 430.096 392.397 434.298C392.397 438.5 390.307 441.184 387.381 441.184C384.455 441.184 382.365 438.5 382.365 434.298C382.365 430.096 384.455 427.412 387.381 427.412ZM387.381 429.04C385.445 429.04 384.081 431.108 384.081 434.298C384.081 437.51 385.445 439.578 387.381 439.578C389.295 439.578 390.659 437.51 390.659 434.298C390.659 431.108 389.295 429.04 387.381 429.04ZM406.101 439.556C407.619 439.556 408.719 438.302 408.719 436.542C408.719 434.826 407.619 433.572 406.101 433.572C404.561 433.572 403.483 434.826 403.483 436.542C403.483 438.302 404.561 439.556 406.101 439.556ZM406.101 432.054C408.543 432.054 410.325 433.902 410.325 436.542C410.325 439.226 408.543 441.052 406.101 441.052C403.659 441.052 401.877 439.226 401.877 436.542C401.877 433.902 403.659 432.054 406.101 432.054ZM406.981 426.466V429.26H410.985V430.734H401.195V429.26H405.199V426.466H406.981ZM416.199 425.872H417.937V445.606H416.199V435.684H413.669V444.66H411.975V426.334H413.669V434.21H416.199V425.872ZM432.499 428.314V429.766H420.861V428.314H425.767V425.894H427.571V428.314H432.499ZM423.677 434.518C423.677 435.904 424.887 436.784 426.669 436.784C428.451 436.784 429.683 435.904 429.683 434.518C429.683 433.154 428.451 432.274 426.669 432.274C424.887 432.274 423.677 433.154 423.677 434.518ZM431.399 434.518C431.399 436.74 429.463 438.192 426.669 438.192C423.875 438.192 421.961 436.74 421.961 434.518C421.961 432.318 423.875 430.866 426.669 430.866C429.463 430.866 431.399 432.318 431.399 434.518ZM425.635 439.534V443.714H436.987V445.188H423.831V439.534H425.635ZM436.107 432.406H439.011V433.924H436.107V440.7H434.303V425.894H436.107V432.406ZM445.771 428.028H454.769C454.769 433.638 452.437 438.632 445.881 441.866L444.891 440.458C450.193 437.862 452.635 434.1 452.965 429.48H445.771V428.028ZM459.345 425.916H461.149V445.628H459.345V435.288H454.725V433.814H459.345V425.916ZM469.91 427.28H479.084C479.084 432.23 475.63 435.464 469.822 436.806L469.096 435.354C474.068 434.276 476.818 431.79 477.082 428.732H469.91V427.28ZM473.716 441.976V444H484.87V445.364H471.912V437.334H484.43V438.676H473.716V440.634H484.21V441.976H473.716ZM484.342 430.47H487.268V431.966H484.342V436.432H482.538V425.894H484.342V430.47ZM497.519 428.028C494.417 428.028 492.437 428.952 492.437 430.514C492.437 432.076 494.417 432.978 497.519 432.978C500.621 432.978 502.601 432.076 502.601 430.514C502.601 428.952 500.621 428.028 497.519 428.028ZM497.519 434.43C493.295 434.43 490.589 432.978 490.589 430.514C490.589 428.05 493.295 426.576 497.519 426.576C501.743 426.576 504.449 428.05 504.449 430.514C504.449 432.978 501.743 434.43 497.519 434.43ZM492.701 439.468V443.714H504.471V445.188H490.897V439.468H492.701ZM488.587 436.278H506.429V437.73H488.587V436.278ZM510.695 429.766V439.38C513.489 439.358 515.249 439.27 517.317 438.83L517.493 440.304C515.249 440.788 513.335 440.876 510.189 440.876H508.913V428.314H516.327V429.766H510.695ZM519.253 433.418V426.378H520.947V444.638H519.253V434.914H515.007V433.418H519.253ZM523.213 425.894H524.929V445.628H523.213V425.894ZM529.789 440.942C530.332 440.942 530.735 441.081 530.999 441.36C531.263 441.639 531.395 441.998 531.395 442.438V442.79C531.395 443.509 531.197 444.257 530.801 445.034C530.42 445.826 529.899 446.493 529.239 447.036H527.457C527.927 446.567 528.315 446.112 528.623 445.672C528.931 445.232 529.166 444.741 529.327 444.198C528.946 444.125 528.66 443.963 528.469 443.714C528.279 443.45 528.183 443.142 528.183 442.79V442.438C528.183 441.998 528.315 441.639 528.579 441.36C528.843 441.081 529.247 440.942 529.789 440.942ZM198.806 465.282V475.204C202.304 475.204 204.834 475.05 207.694 474.544L207.892 476.04C204.878 476.612 202.282 476.744 198.564 476.744H197.002V463.786H206.176V465.282H198.806ZM214.602 469.682V471.178H211.346V481.672H209.542V461.894H211.346V469.682H214.602ZM222.74 463.61V467.152C222.74 470.76 225.094 474.39 228.02 475.71L226.942 477.162C224.698 476.062 222.806 473.73 221.86 470.914C220.958 473.884 219.066 476.348 216.756 477.536L215.656 476.062C218.56 474.676 220.958 470.892 220.958 467.152V463.61H222.74ZM230.088 461.894H231.892V481.672H230.088V461.894ZM251.566 464.314V465.766H239.928V464.314H244.834V461.894H246.638V464.314H251.566ZM242.744 470.518C242.744 471.904 243.954 472.784 245.736 472.784C247.518 472.784 248.75 471.904 248.75 470.518C248.75 469.154 247.518 468.274 245.736 468.274C243.954 468.274 242.744 469.154 242.744 470.518ZM250.466 470.518C250.466 472.74 248.53 474.192 245.736 474.192C242.942 474.192 241.028 472.74 241.028 470.518C241.028 468.318 242.942 466.866 245.736 466.866C248.53 466.866 250.466 468.318 250.466 470.518ZM244.702 475.534V479.714H256.054V481.188H242.898V475.534H244.702ZM255.174 468.406H258.078V469.924H255.174V476.7H253.37V461.894H255.174V468.406ZM267.536 471.684V468.12H262.212V471.684H267.536ZM269.318 468.934V473.136H260.43V463.214H262.212V466.69H267.536V463.214H269.318V467.46H273.872V461.894H275.698V476.502H273.872V468.934H269.318ZM264.808 479.714H276.16V481.188H263.004V475.072H264.808V479.714ZM297.99 472.102V466.954H293.7V465.48H297.99V461.916H299.816V472.102H297.99ZM295.086 470.276L294.162 471.684C291.984 470.914 290.268 469.352 289.41 467.35C288.574 469.572 286.792 471.288 284.482 472.146L283.536 470.716C286.506 469.704 288.464 467.218 288.464 464.358V462.532H290.246V464.358C290.246 466.932 292.248 469.33 295.086 470.276ZM288.926 479.934H300.564V481.364H287.144V476.458H298.034V474.522H287.1V473.092H299.816V477.822H288.926V479.934ZM311.276 470.716V464.842H305.82V470.716H311.276ZM317.568 466.558H313.036V469H317.568V466.558ZM313.036 470.452V472.146H304.038V463.39H313.036V465.106H317.568V461.916H319.394V473.576H317.568V470.452H313.036ZM312.86 480.198C315.852 480.198 317.656 479.34 317.656 477.888C317.656 476.436 315.852 475.578 312.86 475.578C309.912 475.578 308.108 476.436 308.108 477.888C308.108 479.34 309.912 480.198 312.86 480.198ZM312.86 474.17C316.93 474.17 319.46 475.512 319.46 477.888C319.46 480.242 316.93 481.606 312.86 481.606C308.812 481.606 306.304 480.242 306.304 477.888C306.304 475.512 308.812 474.17 312.86 474.17ZM327.598 475.556C329.116 475.556 330.216 474.302 330.216 472.542C330.216 470.826 329.116 469.572 327.598 469.572C326.058 469.572 324.98 470.826 324.98 472.542C324.98 474.302 326.058 475.556 327.598 475.556ZM327.598 468.054C330.04 468.054 331.822 469.902 331.822 472.542C331.822 475.226 330.04 477.052 327.598 477.052C325.156 477.052 323.374 475.226 323.374 472.542C323.374 469.902 325.156 468.054 327.598 468.054ZM328.478 462.466V465.26H332.482V466.734H322.692V465.26H326.696V462.466H328.478ZM337.696 461.872H339.434V481.606H337.696V471.684H335.166V480.66H333.472V462.334H335.166V470.21H337.696V461.872ZM343.59 470.848L342.82 469.462C345.724 468.868 347.704 467.13 347.704 465.15V464.798H343.458V463.346H353.842V464.798H349.53V465.15C349.53 466.998 351.554 468.604 354.37 469.176L353.644 470.54C351.334 470.056 349.552 468.89 348.672 467.35C347.814 469.044 345.966 470.32 343.59 470.848ZM355.184 471.772L355.316 473.114C353.38 473.444 351.4 473.664 349.464 473.752V481.012H347.66V473.862C345.79 473.928 344.03 473.95 342.446 473.95L342.204 472.454C345.878 472.454 350.894 472.41 355.184 471.772ZM356.702 461.916H358.506V481.628H356.702V476.876H352.258V475.468H356.702V461.916ZM371.705 477.646H379.779V479.142H361.849V477.646H369.879V472.586H364.137V463.478H377.513V464.952H365.941V471.134H377.711V472.586H371.705V477.646ZM402.18 461.916V472.498H400.376V461.916H402.18ZM398.858 470.034L398.968 471.31C394.788 471.904 390.058 472.036 386.34 472.036L386.098 470.606C387.814 470.606 389.728 470.584 391.664 470.518V468.472H387.88V462.73H397.142V464.138H389.728V467.064H397.362V468.472H393.468V470.452C395.316 470.364 397.142 470.254 398.858 470.034ZM390.982 479.978H402.862V481.408H389.2V476.634H400.398V474.83H389.156V473.422H402.18V477.998H390.982V479.978ZM406.138 464.028H411.484C411.484 468.78 410.494 473.4 406.908 477.184L405.5 476.172C408.426 473.136 409.57 469.484 409.768 465.524H406.138V464.028ZM412.144 464.028H416.874C416.874 468.78 416.192 474.214 412.562 478.504L411.11 477.514C414.146 474.016 415.026 469.704 415.18 465.524H412.144V464.028ZM424.002 470.034V471.53H421.076V481.628H419.272V461.894H421.076V470.034H424.002ZM427.719 475.182V471.684C428.907 471.625 429.816 471.376 430.447 470.936C431.092 470.481 431.415 469.814 431.415 468.934V468.626C431.415 467.951 431.209 467.431 430.799 467.064C430.388 466.683 429.838 466.492 429.149 466.492C428.415 466.492 427.829 466.705 427.389 467.13C426.949 467.555 426.648 468.098 426.487 468.758L424.397 467.922C424.529 467.467 424.719 467.027 424.969 466.602C425.233 466.177 425.563 465.803 425.959 465.48C426.355 465.143 426.824 464.879 427.367 464.688C427.909 464.483 428.533 464.38 429.237 464.38C429.955 464.38 430.608 464.483 431.195 464.688C431.781 464.893 432.28 465.187 432.691 465.568C433.101 465.935 433.417 466.389 433.637 466.932C433.857 467.46 433.967 468.047 433.967 468.692C433.967 469.352 433.849 469.946 433.615 470.474C433.395 470.987 433.094 471.427 432.713 471.794C432.346 472.161 431.928 472.461 431.459 472.696C430.989 472.916 430.505 473.07 430.007 473.158V475.182H427.719ZM428.885 480.264C428.327 480.264 427.917 480.132 427.653 479.868C427.403 479.589 427.279 479.237 427.279 478.812V478.438C427.279 478.013 427.403 477.668 427.653 477.404C427.917 477.125 428.327 476.986 428.885 476.986C429.442 476.986 429.845 477.125 430.095 477.404C430.359 477.668 430.491 478.013 430.491 478.438V478.812C430.491 479.237 430.359 479.589 430.095 479.868C429.845 480.132 429.442 480.264 428.885 480.264Z" fill="white"/>
</svg>
