<svg width="709" height="463" viewBox="0 0 709 463" fill="none" xmlns="http://www.w3.org/2000/svg">
<rect x="121" width="588" height="186" rx="4" fill="black"/>
<rect y="161" width="576" height="170" rx="4" fill="#FF4C91"/>
<path d="M40.982 201.51V195.68H37.286V193.326H40.982V189.63H43.886V201.51H40.982ZM39.134 198.584L37.616 200.872C35.482 200.146 34.052 198.76 33.194 196.956C32.292 199.024 30.686 200.652 28.288 201.466L26.77 199.134C30.224 198.034 31.654 195.284 31.654 192.49V190.686H34.602V192.358C34.602 195.086 35.922 197.55 39.134 198.584ZM37.044 207.67C39.684 207.67 41.07 207.12 41.07 205.976C41.07 204.81 39.684 204.26 37.044 204.26C34.382 204.26 32.996 204.81 32.996 205.976C32.996 207.12 34.382 207.67 37.044 207.67ZM37.044 202.016C41.334 202.016 43.974 203.468 43.974 205.976C43.974 208.44 41.334 209.892 37.044 209.892C32.732 209.892 30.092 208.44 30.092 205.976C30.092 203.468 32.732 202.016 37.044 202.016ZM59.7683 207.34V205.514H51.5843V207.34H59.7683ZM59.7683 203.27V201.158H62.6723V209.672H48.7023V201.158H51.5843V203.27H59.7683ZM62.2763 197.528H64.8723V199.86H46.5243V197.528H59.3943C59.7903 195.614 59.8563 194.096 59.8563 192.754H48.7903V190.444H62.7163V192.072C62.7163 193.656 62.7163 195.262 62.2763 197.528ZM78.0486 191.764L78.0266 194.03H66.1026V191.764H70.5906V189.608H73.5166V191.764H78.0486ZM69.8646 198.65C69.8646 199.772 70.7666 200.366 72.0646 200.366C73.3406 200.366 74.2646 199.772 74.2646 198.65C74.2646 197.55 73.3406 196.956 72.0646 196.956C70.7666 196.956 69.8646 197.55 69.8646 198.65ZM77.0366 198.65C77.0366 200.982 74.9686 202.566 72.0646 202.566C69.1606 202.566 67.0926 200.982 67.0926 198.65C67.0926 196.362 69.1606 194.756 72.0646 194.756C74.9686 194.756 77.0366 196.362 77.0366 198.65ZM71.8886 203.666V207.23H82.7786V209.54H68.9846V203.666H71.8886ZM82.0526 195.812H84.7366V198.21H82.0526V204.788H79.1486V189.63H82.0526V195.812ZM107.05 189.63V199.772H104.124V189.63H107.05ZM93.3221 194.844C93.3221 196.296 94.4441 197.132 95.9401 197.132C97.4361 197.132 98.5141 196.296 98.5141 194.844C98.5141 193.414 97.4361 192.556 95.9401 192.556C94.4441 192.556 93.3221 193.414 93.3221 194.844ZM101.33 194.844C101.33 197.55 99.0201 199.486 95.9401 199.486C92.8381 199.486 90.5061 197.55 90.5061 194.844C90.5061 192.16 92.8381 190.224 95.9401 190.224C99.0201 190.224 101.33 192.16 101.33 194.844ZM96.4461 207.406H107.556V209.65H93.5641V204.062H104.168V202.83H93.5421V200.608H107.05V206.13H96.4461V207.406ZM117.234 199.09V196.208H113.252V199.09H117.234ZM120.094 191.082V201.378H110.392V191.082H113.252V193.964H117.234V191.082H120.094ZM115.584 203.072V207.23H126.474V209.54H112.68V203.072H115.584ZM125.748 195.35H128.432V197.726H125.748V204.546H122.844V189.63H125.748V195.35ZM141.455 191.852V194.14H129.531V191.852H134.063V189.718H136.967V191.852H141.455ZM133.315 198.738C133.315 199.816 134.195 200.388 135.515 200.388C136.835 200.388 137.715 199.816 137.715 198.738C137.715 197.704 136.835 197.132 135.515 197.132C134.195 197.132 133.315 197.704 133.315 198.738ZM136.967 202.412V204.018C138.529 203.93 140.091 203.82 141.543 203.6L141.763 205.69C137.495 206.526 132.941 206.526 129.509 206.526L129.157 204.172C130.609 204.172 132.281 204.172 134.063 204.128V202.412C131.951 201.972 130.565 200.608 130.565 198.738C130.565 196.472 132.611 194.932 135.515 194.932C138.419 194.932 140.465 196.472 140.465 198.738C140.465 200.608 139.079 201.972 136.967 202.412ZM148.011 197.88V200.278H145.481V209.892H142.577V189.63H145.481V197.88H148.011ZM149.109 201.136C149.109 200.08 149.204 199.061 149.395 198.078C149.6 197.095 149.872 196.186 150.209 195.35C150.561 194.499 150.972 193.729 151.441 193.04C151.91 192.351 152.424 191.764 152.981 191.28H155.643C155.042 191.837 154.499 192.453 154.015 193.128C153.546 193.803 153.142 194.529 152.805 195.306C152.468 196.069 152.204 196.875 152.013 197.726C151.837 198.577 151.749 199.449 151.749 200.344V201.972C151.749 202.881 151.837 203.769 152.013 204.634C152.204 205.485 152.468 206.299 152.805 207.076C153.157 207.839 153.568 208.557 154.037 209.232C154.521 209.907 155.056 210.508 155.643 211.036H152.981C152.438 210.581 151.932 210.009 151.463 209.32C150.994 208.631 150.583 207.861 150.231 207.01C149.879 206.145 149.6 205.221 149.395 204.238C149.204 203.241 149.109 202.207 149.109 201.136ZM156.961 198.738H155.267V196.516H156.961V194.866C156.961 193.854 157.225 193.077 157.753 192.534C158.296 191.991 159.088 191.72 160.129 191.72H162.131V193.964H159.777V196.516H162.131V198.738H159.777V208H156.961V198.738ZM171.868 208C171.252 208 170.761 207.824 170.394 207.472C170.042 207.105 169.822 206.621 169.734 206.02H169.602C169.412 206.768 169.023 207.333 168.436 207.714C167.85 208.081 167.124 208.264 166.258 208.264C165.085 208.264 164.183 207.956 163.552 207.34C162.922 206.724 162.606 205.903 162.606 204.876C162.606 203.688 163.032 202.808 163.882 202.236C164.733 201.649 165.943 201.356 167.512 201.356H169.47V200.52C169.47 199.875 169.302 199.376 168.964 199.024C168.627 198.672 168.084 198.496 167.336 198.496C166.676 198.496 166.141 198.643 165.73 198.936C165.334 199.215 164.997 199.552 164.718 199.948L163.046 198.452C163.472 197.792 164.036 197.264 164.74 196.868C165.444 196.457 166.376 196.252 167.534 196.252C169.089 196.252 170.27 196.604 171.076 197.308C171.883 198.012 172.286 199.024 172.286 200.344V205.756H173.43V208H171.868ZM167.204 206.218C167.835 206.218 168.37 206.079 168.81 205.8C169.25 205.521 169.47 205.111 169.47 204.568V203.05H167.666C166.2 203.05 165.466 203.519 165.466 204.458V204.832C165.466 205.301 165.613 205.653 165.906 205.888C166.214 206.108 166.647 206.218 167.204 206.218ZM177.865 208C176.897 208 176.186 207.758 175.731 207.274C175.277 206.79 175.049 206.108 175.049 205.228V191.72H177.865V205.756H179.383V208H177.865ZM183.522 208C182.554 208 181.843 207.758 181.388 207.274C180.933 206.79 180.706 206.108 180.706 205.228V191.72H183.522V205.756H185.04V208H183.522ZM194.961 208C194.345 208 193.853 207.824 193.487 207.472C193.135 207.105 192.915 206.621 192.827 206.02H192.695C192.504 206.768 192.115 207.333 191.529 207.714C190.942 208.081 190.216 208.264 189.351 208.264C188.177 208.264 187.275 207.956 186.645 207.34C186.014 206.724 185.699 205.903 185.699 204.876C185.699 203.688 186.124 202.808 186.975 202.236C187.825 201.649 189.035 201.356 190.605 201.356H192.563V200.52C192.563 199.875 192.394 199.376 192.057 199.024C191.719 198.672 191.177 198.496 190.429 198.496C189.769 198.496 189.233 198.643 188.823 198.936C188.427 199.215 188.089 199.552 187.811 199.948L186.139 198.452C186.564 197.792 187.129 197.264 187.833 196.868C188.537 196.457 189.468 196.252 190.627 196.252C192.181 196.252 193.362 196.604 194.169 197.308C194.975 198.012 195.379 199.024 195.379 200.344V205.756H196.523V208H194.961ZM190.297 206.218C190.927 206.218 191.463 206.079 191.903 205.8C192.343 205.521 192.563 205.111 192.563 204.568V203.05H190.759C189.292 203.05 188.559 203.519 188.559 204.458V204.832C188.559 205.301 188.705 205.653 188.999 205.888C189.307 206.108 189.739 206.218 190.297 206.218ZM202.674 208.264C201.823 208.264 201.068 208.125 200.408 207.846C199.748 207.567 199.19 207.164 198.736 206.636C198.296 206.108 197.958 205.477 197.724 204.744C197.489 203.996 197.372 203.16 197.372 202.236C197.372 201.312 197.489 200.483 197.724 199.75C197.958 199.017 198.296 198.393 198.736 197.88C199.19 197.352 199.748 196.949 200.408 196.67C201.068 196.391 201.823 196.252 202.674 196.252C203.832 196.252 204.786 196.509 205.534 197.022C206.296 197.535 206.846 198.247 207.184 199.156L204.874 200.19C204.742 199.706 204.492 199.31 204.126 199.002C203.774 198.679 203.29 198.518 202.674 198.518C201.882 198.518 201.288 198.767 200.892 199.266C200.51 199.765 200.32 200.417 200.32 201.224V203.314C200.32 204.121 200.51 204.773 200.892 205.272C201.288 205.756 201.882 205.998 202.674 205.998C203.348 205.998 203.869 205.829 204.236 205.492C204.602 205.14 204.888 204.707 205.094 204.194L207.25 205.228C206.868 206.24 206.289 207.003 205.512 207.516C204.734 208.015 203.788 208.264 202.674 208.264ZM215.801 196.516H218.441L213.821 210.046C213.674 210.457 213.506 210.809 213.315 211.102C213.139 211.41 212.926 211.659 212.677 211.85C212.428 212.041 212.127 212.18 211.775 212.268C211.423 212.356 211.012 212.4 210.543 212.4H208.849V210.156H210.917L211.445 208.55L207.331 196.516H210.125L212.127 202.588L212.875 205.492H213.007L213.799 202.588L215.801 196.516ZM228.731 208.264C227.91 208.264 227.169 208.125 226.509 207.846C225.864 207.567 225.307 207.164 224.837 206.636C224.383 206.108 224.031 205.477 223.781 204.744C223.532 203.996 223.407 203.16 223.407 202.236C223.407 201.312 223.532 200.483 223.781 199.75C224.031 199.017 224.383 198.393 224.837 197.88C225.307 197.352 225.864 196.949 226.509 196.67C227.169 196.391 227.91 196.252 228.731 196.252C229.553 196.252 230.293 196.391 230.953 196.67C231.613 196.949 232.171 197.352 232.625 197.88C233.095 198.393 233.454 199.017 233.703 199.75C233.953 200.483 234.077 201.312 234.077 202.236C234.077 203.16 233.953 203.996 233.703 204.744C233.454 205.477 233.095 206.108 232.625 206.636C232.171 207.164 231.613 207.567 230.953 207.846C230.293 208.125 229.553 208.264 228.731 208.264ZM228.731 205.998C229.479 205.998 230.066 205.771 230.491 205.316C230.917 204.861 231.129 204.194 231.129 203.314V201.18C231.129 200.315 230.917 199.655 230.491 199.2C230.066 198.745 229.479 198.518 228.731 198.518C227.998 198.518 227.419 198.745 226.993 199.2C226.568 199.655 226.355 200.315 226.355 201.18V203.314C226.355 204.194 226.568 204.861 226.993 205.316C227.419 205.771 227.998 205.998 228.731 205.998ZM236.357 198.738H234.663V196.516H236.357V194.866C236.357 193.854 236.621 193.077 237.149 192.534C237.692 191.991 238.484 191.72 239.525 191.72H241.527V193.964H239.173V196.516H241.527V198.738H239.173V208H236.357V198.738ZM247.356 191.72H250.172V198.43H250.282C250.516 197.814 250.883 197.301 251.382 196.89C251.895 196.465 252.599 196.252 253.494 196.252C254.682 196.252 255.591 196.641 256.222 197.418C256.852 198.195 257.168 199.303 257.168 200.74V208H254.352V201.026C254.352 200.205 254.205 199.589 253.912 199.178C253.618 198.767 253.134 198.562 252.46 198.562C252.166 198.562 251.88 198.606 251.602 198.694C251.338 198.767 251.096 198.885 250.876 199.046C250.67 199.193 250.502 199.383 250.37 199.618C250.238 199.838 250.172 200.102 250.172 200.41V208H247.356V191.72ZM268.077 208C267.461 208 266.97 207.824 266.603 207.472C266.251 207.105 266.031 206.621 265.943 206.02H265.811C265.621 206.768 265.232 207.333 264.645 207.714C264.059 208.081 263.333 208.264 262.467 208.264C261.294 208.264 260.392 207.956 259.761 207.34C259.131 206.724 258.815 205.903 258.815 204.876C258.815 203.688 259.241 202.808 260.091 202.236C260.942 201.649 262.152 201.356 263.721 201.356H265.679V200.52C265.679 199.875 265.511 199.376 265.173 199.024C264.836 198.672 264.293 198.496 263.545 198.496C262.885 198.496 262.35 198.643 261.939 198.936C261.543 199.215 261.206 199.552 260.927 199.948L259.255 198.452C259.681 197.792 260.245 197.264 260.949 196.868C261.653 196.457 262.585 196.252 263.743 196.252C265.298 196.252 266.479 196.604 267.285 197.308C268.092 198.012 268.495 199.024 268.495 200.344V205.756H269.639V208H268.077ZM263.413 206.218C264.044 206.218 264.579 206.079 265.019 205.8C265.459 205.521 265.679 205.111 265.679 204.568V203.05H263.875C262.409 203.05 261.675 203.519 261.675 204.458V204.832C261.675 205.301 261.822 205.653 262.115 205.888C262.423 206.108 262.856 206.218 263.413 206.218ZM275.02 208.264C273.92 208.264 272.996 208.081 272.248 207.714C271.5 207.333 270.84 206.812 270.268 206.152L271.984 204.48C272.41 204.964 272.872 205.345 273.37 205.624C273.884 205.903 274.47 206.042 275.13 206.042C275.805 206.042 276.289 205.925 276.582 205.69C276.89 205.455 277.044 205.133 277.044 204.722C277.044 204.385 276.934 204.121 276.714 203.93C276.509 203.725 276.15 203.585 275.636 203.512L274.492 203.358C273.246 203.197 272.292 202.845 271.632 202.302C270.987 201.745 270.664 200.938 270.664 199.882C270.664 199.325 270.767 198.826 270.972 198.386C271.178 197.931 271.471 197.55 271.852 197.242C272.234 196.919 272.688 196.677 273.216 196.516C273.759 196.34 274.36 196.252 275.02 196.252C275.578 196.252 276.069 196.296 276.494 196.384C276.934 196.457 277.33 196.575 277.682 196.736C278.034 196.883 278.357 197.073 278.65 197.308C278.944 197.528 279.23 197.777 279.508 198.056L277.858 199.706C277.521 199.354 277.118 199.061 276.648 198.826C276.179 198.591 275.666 198.474 275.108 198.474C274.492 198.474 274.045 198.584 273.766 198.804C273.502 199.024 273.37 199.31 273.37 199.662C273.37 200.043 273.48 200.337 273.7 200.542C273.935 200.733 274.324 200.872 274.866 200.96L276.032 201.114C278.511 201.466 279.75 202.595 279.75 204.502C279.75 205.059 279.633 205.573 279.398 206.042C279.178 206.497 278.863 206.893 278.452 207.23C278.042 207.553 277.543 207.809 276.956 208C276.384 208.176 275.739 208.264 275.02 208.264ZM284.991 208C284.023 208 283.282 207.751 282.769 207.252C282.27 206.739 282.021 206.013 282.021 205.074V198.76H280.327V196.516H281.207C281.632 196.516 281.918 196.421 282.065 196.23C282.226 196.025 282.307 195.724 282.307 195.328V193.37H284.837V196.516H287.191V198.76H284.837V205.756H287.015V208H284.991ZM296.013 196.516H298.653L294.033 210.046C293.887 210.457 293.718 210.809 293.527 211.102C293.351 211.41 293.139 211.659 292.889 211.85C292.64 212.041 292.339 212.18 291.987 212.268C291.635 212.356 291.225 212.4 290.755 212.4H289.061V210.156H291.129L291.657 208.55L287.543 196.516H290.337L292.339 202.588L293.087 205.492H293.219L294.011 202.588L296.013 196.516ZM314.752 208.968C314.752 209.569 314.642 210.097 314.422 210.552C314.216 211.021 313.872 211.41 313.388 211.718C312.904 212.026 312.28 212.261 311.518 212.422C310.755 212.583 309.824 212.664 308.724 212.664C307.756 212.664 306.934 212.598 306.26 212.466C305.585 212.349 305.028 212.173 304.588 211.938C304.162 211.718 303.854 211.439 303.664 211.102C303.473 210.765 303.378 210.383 303.378 209.958C303.378 209.313 303.554 208.807 303.906 208.44C304.272 208.088 304.778 207.861 305.424 207.758V207.516C304.954 207.399 304.588 207.171 304.324 206.834C304.074 206.482 303.95 206.071 303.95 205.602C303.95 205.309 304.008 205.052 304.126 204.832C304.243 204.597 304.397 204.399 304.588 204.238C304.793 204.077 305.02 203.945 305.27 203.842C305.519 203.725 305.783 203.637 306.062 203.578V203.49C305.358 203.167 304.83 202.72 304.478 202.148C304.14 201.576 303.972 200.909 303.972 200.146C303.972 198.973 304.375 198.034 305.182 197.33C305.988 196.611 307.169 196.252 308.724 196.252C309.076 196.252 309.42 196.274 309.758 196.318C310.11 196.362 310.432 196.435 310.726 196.538V196.164C310.726 195.049 311.268 194.492 312.354 194.492H314.136V196.648H311.694V196.956C312.295 197.293 312.742 197.733 313.036 198.276C313.329 198.819 313.476 199.442 313.476 200.146C313.476 201.305 313.072 202.236 312.266 202.94C311.474 203.644 310.293 203.996 308.724 203.996C308.049 203.996 307.462 203.93 306.964 203.798C306.744 203.901 306.553 204.04 306.392 204.216C306.23 204.377 306.15 204.583 306.15 204.832C306.15 205.404 306.648 205.69 307.646 205.69H310.726C312.134 205.69 313.153 205.983 313.784 206.57C314.429 207.142 314.752 207.941 314.752 208.968ZM312.112 209.298C312.112 208.931 311.965 208.645 311.672 208.44C311.378 208.235 310.872 208.132 310.154 208.132H306.238C305.842 208.425 305.644 208.821 305.644 209.32C305.644 209.76 305.827 210.105 306.194 210.354C306.56 210.603 307.184 210.728 308.064 210.728H309.472C310.396 210.728 311.063 210.611 311.474 210.376C311.899 210.141 312.112 209.782 312.112 209.298ZM308.724 202.082C310.102 202.082 310.792 201.495 310.792 200.322V199.948C310.792 198.775 310.102 198.188 308.724 198.188C307.345 198.188 306.656 198.775 306.656 199.948V200.322C306.656 201.495 307.345 202.082 308.724 202.082ZM320.231 208.264C319.38 208.264 318.618 208.125 317.943 207.846C317.283 207.553 316.718 207.149 316.249 206.636C315.794 206.108 315.442 205.477 315.193 204.744C314.944 203.996 314.819 203.16 314.819 202.236C314.819 201.327 314.936 200.505 315.171 199.772C315.42 199.039 315.772 198.415 316.227 197.902C316.682 197.374 317.239 196.971 317.899 196.692C318.559 196.399 319.307 196.252 320.143 196.252C321.038 196.252 321.815 196.406 322.475 196.714C323.135 197.022 323.678 197.44 324.103 197.968C324.528 198.496 324.844 199.112 325.049 199.816C325.269 200.505 325.379 201.246 325.379 202.038V202.962H317.745V203.248C317.745 204.084 317.98 204.759 318.449 205.272C318.918 205.771 319.615 206.02 320.539 206.02C321.243 206.02 321.815 205.873 322.255 205.58C322.71 205.287 323.113 204.913 323.465 204.458L324.983 206.152C324.514 206.812 323.868 207.333 323.047 207.714C322.24 208.081 321.302 208.264 320.231 208.264ZM320.187 198.364C319.439 198.364 318.845 198.613 318.405 199.112C317.965 199.611 317.745 200.256 317.745 201.048V201.224H322.453V201.026C322.453 200.234 322.255 199.596 321.859 199.112C321.478 198.613 320.92 198.364 320.187 198.364ZM327.197 208V196.516H330.013V198.43H330.123C330.357 197.814 330.724 197.301 331.223 196.89C331.736 196.465 332.44 196.252 333.335 196.252C334.523 196.252 335.432 196.641 336.063 197.418C336.693 198.195 337.009 199.303 337.009 200.74V208H334.193V201.026C334.193 200.205 334.046 199.589 333.753 199.178C333.459 198.767 332.975 198.562 332.301 198.562C332.007 198.562 331.721 198.606 331.443 198.694C331.179 198.767 330.937 198.885 330.717 199.046C330.511 199.193 330.343 199.383 330.211 199.618C330.079 199.838 330.013 200.102 330.013 200.41V208H327.197ZM344.112 208.264C343.262 208.264 342.499 208.125 341.824 207.846C341.164 207.553 340.6 207.149 340.13 206.636C339.676 206.108 339.324 205.477 339.074 204.744C338.825 203.996 338.7 203.16 338.7 202.236C338.7 201.327 338.818 200.505 339.052 199.772C339.302 199.039 339.654 198.415 340.108 197.902C340.563 197.374 341.12 196.971 341.78 196.692C342.44 196.399 343.188 196.252 344.024 196.252C344.919 196.252 345.696 196.406 346.356 196.714C347.016 197.022 347.559 197.44 347.984 197.968C348.41 198.496 348.725 199.112 348.93 199.816C349.15 200.505 349.26 201.246 349.26 202.038V202.962H341.626V203.248C341.626 204.084 341.861 204.759 342.33 205.272C342.8 205.771 343.496 206.02 344.42 206.02C345.124 206.02 345.696 205.873 346.136 205.58C346.591 205.287 346.994 204.913 347.346 204.458L348.864 206.152C348.395 206.812 347.75 207.333 346.928 207.714C346.122 208.081 345.183 208.264 344.112 208.264ZM344.068 198.364C343.32 198.364 342.726 198.613 342.286 199.112C341.846 199.611 341.626 200.256 341.626 201.048V201.224H346.334V201.026C346.334 200.234 346.136 199.596 345.74 199.112C345.359 198.613 344.802 198.364 344.068 198.364ZM351.078 208V196.516H353.894V198.892H354.004C354.077 198.584 354.187 198.291 354.334 198.012C354.495 197.719 354.7 197.462 354.95 197.242C355.199 197.022 355.492 196.846 355.83 196.714C356.182 196.582 356.585 196.516 357.04 196.516H357.656V199.178H356.776C355.822 199.178 355.104 199.317 354.62 199.596C354.136 199.875 353.894 200.329 353.894 200.96V208H351.078ZM367.266 208C366.65 208 366.159 207.824 365.792 207.472C365.44 207.105 365.22 206.621 365.132 206.02H365C364.81 206.768 364.421 207.333 363.834 207.714C363.248 208.081 362.522 208.264 361.656 208.264C360.483 208.264 359.581 207.956 358.95 207.34C358.32 206.724 358.004 205.903 358.004 204.876C358.004 203.688 358.43 202.808 359.28 202.236C360.131 201.649 361.341 201.356 362.91 201.356H364.868V200.52C364.868 199.875 364.7 199.376 364.362 199.024C364.025 198.672 363.482 198.496 362.734 198.496C362.074 198.496 361.539 198.643 361.128 198.936C360.732 199.215 360.395 199.552 360.116 199.948L358.444 198.452C358.87 197.792 359.434 197.264 360.138 196.868C360.842 196.457 361.774 196.252 362.932 196.252C364.487 196.252 365.668 196.604 366.474 197.308C367.281 198.012 367.684 199.024 367.684 200.344V205.756H368.828V208H367.266ZM362.602 206.218C363.233 206.218 363.768 206.079 364.208 205.8C364.648 205.521 364.868 205.111 364.868 204.568V203.05H363.064C361.598 203.05 360.864 203.519 360.864 204.458V204.832C360.864 205.301 361.011 205.653 361.304 205.888C361.612 206.108 362.045 206.218 362.602 206.218ZM373.263 208C372.295 208 371.584 207.758 371.129 207.274C370.675 206.79 370.447 206.108 370.447 205.228V191.72H373.263V205.756H374.781V208H373.263ZM377.662 194.844C377.075 194.844 376.65 194.712 376.386 194.448C376.137 194.184 376.012 193.847 376.012 193.436V192.996C376.012 192.585 376.137 192.248 376.386 191.984C376.65 191.72 377.075 191.588 377.662 191.588C378.234 191.588 378.652 191.72 378.916 191.984C379.18 192.248 379.312 192.585 379.312 192.996V193.436C379.312 193.847 379.18 194.184 378.916 194.448C378.652 194.712 378.234 194.844 377.662 194.844ZM376.254 196.516H379.07V208H376.254V196.516ZM380.86 208V205.756L386.822 198.738H381.058V196.516H390.122V198.694L384.116 205.756H390.276V208H380.86ZM400.505 208C399.889 208 399.398 207.824 399.031 207.472C398.679 207.105 398.459 206.621 398.371 206.02H398.239C398.048 206.768 397.66 207.333 397.073 207.714C396.486 208.081 395.76 208.264 394.895 208.264C393.722 208.264 392.82 207.956 392.189 207.34C391.558 206.724 391.243 205.903 391.243 204.876C391.243 203.688 391.668 202.808 392.519 202.236C393.37 201.649 394.58 201.356 396.149 201.356H398.107V200.52C398.107 199.875 397.938 199.376 397.601 199.024C397.264 198.672 396.721 198.496 395.973 198.496C395.313 198.496 394.778 198.643 394.367 198.936C393.971 199.215 393.634 199.552 393.355 199.948L391.683 198.452C392.108 197.792 392.673 197.264 393.377 196.868C394.081 196.457 395.012 196.252 396.171 196.252C397.726 196.252 398.906 196.604 399.713 197.308C400.52 198.012 400.923 199.024 400.923 200.344V205.756H402.067V208H400.505ZM395.841 206.218C396.472 206.218 397.007 206.079 397.447 205.8C397.887 205.521 398.107 205.111 398.107 204.568V203.05H396.303C394.836 203.05 394.103 203.519 394.103 204.458V204.832C394.103 205.301 394.25 205.653 394.543 205.888C394.851 206.108 395.284 206.218 395.841 206.218ZM407.186 208C406.218 208 405.478 207.751 404.964 207.252C404.466 206.739 404.216 206.013 404.216 205.074V198.76H402.522V196.516H403.402C403.828 196.516 404.114 196.421 404.26 196.23C404.422 196.025 404.502 195.724 404.502 195.328V193.37H407.032V196.516H409.386V198.76H407.032V205.756H409.21V208H407.186ZM412.577 194.844C411.99 194.844 411.565 194.712 411.301 194.448C411.051 194.184 410.927 193.847 410.927 193.436V192.996C410.927 192.585 411.051 192.248 411.301 191.984C411.565 191.72 411.99 191.588 412.577 191.588C413.149 191.588 413.567 191.72 413.831 191.984C414.095 192.248 414.227 192.585 414.227 192.996V193.436C414.227 193.847 414.095 194.184 413.831 194.448C413.567 194.712 413.149 194.844 412.577 194.844ZM411.169 196.516H413.985V208H411.169V196.516ZM421.143 208.264C420.322 208.264 419.581 208.125 418.921 207.846C418.276 207.567 417.718 207.164 417.249 206.636C416.794 206.108 416.442 205.477 416.193 204.744C415.944 203.996 415.819 203.16 415.819 202.236C415.819 201.312 415.944 200.483 416.193 199.75C416.442 199.017 416.794 198.393 417.249 197.88C417.718 197.352 418.276 196.949 418.921 196.67C419.581 196.391 420.322 196.252 421.143 196.252C421.964 196.252 422.705 196.391 423.365 196.67C424.025 196.949 424.582 197.352 425.037 197.88C425.506 198.393 425.866 199.017 426.115 199.75C426.364 200.483 426.489 201.312 426.489 202.236C426.489 203.16 426.364 203.996 426.115 204.744C425.866 205.477 425.506 206.108 425.037 206.636C424.582 207.164 424.025 207.567 423.365 207.846C422.705 208.125 421.964 208.264 421.143 208.264ZM421.143 205.998C421.891 205.998 422.478 205.771 422.903 205.316C423.328 204.861 423.541 204.194 423.541 203.314V201.18C423.541 200.315 423.328 199.655 422.903 199.2C422.478 198.745 421.891 198.518 421.143 198.518C420.41 198.518 419.83 198.745 419.405 199.2C418.98 199.655 418.767 200.315 418.767 201.18V203.314C418.767 204.194 418.98 204.861 419.405 205.316C419.83 205.771 420.41 205.998 421.143 205.998ZM428.325 208V196.516H431.141V198.43H431.251C431.486 197.814 431.853 197.301 432.351 196.89C432.865 196.465 433.569 196.252 434.463 196.252C435.651 196.252 436.561 196.641 437.191 197.418C437.822 198.195 438.137 199.303 438.137 200.74V208H435.321V201.026C435.321 200.205 435.175 199.589 434.881 199.178C434.588 198.767 434.104 198.562 433.429 198.562C433.136 198.562 432.85 198.606 432.571 198.694C432.307 198.767 432.065 198.885 431.845 199.046C431.64 199.193 431.471 199.383 431.339 199.618C431.207 199.838 431.141 200.102 431.141 200.41V208H428.325ZM445.285 201.136C445.285 202.207 445.182 203.241 444.977 204.238C444.786 205.221 444.515 206.145 444.163 207.01C443.811 207.861 443.4 208.631 442.931 209.32C442.462 210.009 441.956 210.581 441.413 211.036H438.751C439.338 210.508 439.866 209.907 440.335 209.232C440.819 208.557 441.23 207.839 441.567 207.076C441.919 206.299 442.183 205.485 442.359 204.634C442.55 203.769 442.645 202.881 442.645 201.972V200.344C442.645 199.449 442.55 198.577 442.359 197.726C442.183 196.875 441.926 196.069 441.589 195.306C441.252 194.529 440.841 193.803 440.357 193.128C439.888 192.453 439.352 191.837 438.751 191.28H441.413C441.97 191.764 442.484 192.351 442.953 193.04C443.422 193.729 443.826 194.499 444.163 195.35C444.515 196.186 444.786 197.095 444.977 198.078C445.182 199.061 445.285 200.08 445.285 201.136ZM29.41 244.264C28.8673 244.264 28.464 244.125 28.2 243.846C27.936 243.553 27.804 243.193 27.804 242.768V242.438C27.804 242.013 27.936 241.661 28.2 241.382C28.464 241.089 28.8673 240.942 29.41 240.942C29.9527 240.942 30.356 241.089 30.62 241.382C30.884 241.661 31.016 242.013 31.016 242.438V242.768C31.016 243.193 30.884 243.553 30.62 243.846C30.356 244.125 29.9527 244.264 29.41 244.264ZM29.41 235.618C28.8673 235.618 28.464 235.479 28.2 235.2C27.936 234.907 27.804 234.547 27.804 234.122V233.792C27.804 233.367 27.936 233.015 28.2 232.736C28.464 232.443 28.8673 232.296 29.41 232.296C29.9527 232.296 30.356 232.443 30.62 232.736C30.884 233.015 31.016 233.367 31.016 233.792V234.122C31.016 234.547 30.884 234.907 30.62 235.2C30.356 235.479 29.9527 235.618 29.41 235.618ZM46.1278 234.078V228.534H40.5398V234.078H46.1278ZM52.2878 230.096H47.8878V232.428H52.2878V230.096ZM47.8878 233.836V235.508H38.7798V227.104H47.8878V228.688H52.2878V225.916H54.0918V237.268H52.2878V233.836H47.8878ZM54.5538 239.93H48.7678C48.7678 241.822 51.8478 243.758 55.2578 244.176L54.6418 245.54C51.6498 245.144 49.0098 243.758 47.8658 241.932C46.6778 243.802 43.9498 245.144 40.9578 245.54L40.3638 244.176C43.7738 243.78 46.9198 241.888 46.9198 239.93H41.1558V238.566H46.9418V236.674H48.7678V238.566H54.5538V239.93ZM62.7213 228.446H70.4213C70.4213 233.528 68.6393 238.236 63.0293 241.404L61.9733 240.106C66.5053 237.576 68.3753 234.012 68.6393 229.92H62.7213V228.446ZM76.9773 225.894H78.7153V245.628H76.9773V235.31H74.2933V244.638H72.5993V226.422H74.2933V233.836H76.9773V225.894ZM87.9535 227.346C91.0335 227.346 93.2335 229.216 93.2335 231.988C93.2335 234.738 91.0335 236.63 87.9535 236.63C84.8955 236.63 82.6735 234.738 82.6735 231.988C82.6735 229.216 84.8955 227.346 87.9535 227.346ZM87.9535 228.886C85.9295 228.886 84.4335 230.14 84.4335 231.988C84.4335 233.814 85.9295 235.09 87.9535 235.09C89.9995 235.09 91.4735 233.814 91.4735 231.988C91.4735 230.14 89.9995 228.886 87.9535 228.886ZM95.8295 225.894H97.6335V245.672H95.8295V225.894ZM81.9035 241.338L81.6835 239.82C85.2695 239.82 90.2195 239.798 94.5315 239.138L94.6855 240.48C90.2415 241.294 85.4675 241.338 81.9035 241.338ZM112.291 227.61V231.152C112.291 234.628 114.535 238.214 117.307 239.6L116.185 241.03C114.095 239.908 112.313 237.598 111.411 234.892C110.553 237.774 108.727 240.238 106.505 241.426L105.427 239.974C108.265 238.522 110.509 234.738 110.509 231.152V227.61H112.291ZM124.105 233.902V235.398H120.849V245.628H119.045V225.916H120.849V233.902H124.105ZM127.645 234.936V239.358C129.713 239.336 131.715 239.248 134.091 238.83L134.245 240.326C131.583 240.766 129.493 240.854 127.161 240.854H125.907V233.484H130.945V229.524H125.841V228.05H132.683V234.936H127.645ZM136.357 231.042V226.268H138.051V244.638H136.357V237.422H133.783V235.948H136.357V232.516H133.783V231.042H136.357ZM140.273 225.894H142.011V245.628H140.273V225.894ZM147.4 227.808V239.116C150.238 239.116 153.164 238.874 156.354 238.236L156.574 239.732C153.208 240.414 150.194 240.634 147.18 240.634H145.618V227.808H147.4ZM163.174 233.77V235.266H160.006V245.628H158.202V225.894H160.006V233.77H163.174ZM183.375 230.998H178.447C177.171 234.166 174.179 236.476 169.933 237.708L169.207 236.278C173.915 234.87 176.841 232.252 177.171 228.842H170.219V227.39H179.129C179.129 228.116 179.041 228.842 178.909 229.524H183.375V225.916H185.201V237.708H183.375V235.112H178.205V233.638H183.375V230.998ZM178.755 244.132C181.659 244.132 183.507 243.23 183.507 241.734C183.507 240.26 181.659 239.358 178.755 239.358C175.851 239.358 174.003 240.26 174.003 241.734C174.003 243.23 175.851 244.132 178.755 244.132ZM178.755 237.928C182.737 237.928 185.289 239.358 185.289 241.734C185.289 244.11 182.737 245.54 178.755 245.54C174.773 245.54 172.221 244.11 172.221 241.734C172.221 239.358 174.773 237.928 178.755 237.928ZM199.983 227.962V229.414H188.543V227.962H193.361V225.696H195.165V227.962H199.983ZM191.403 233.946C191.403 235.222 192.591 236.102 194.263 236.102C195.935 236.102 197.123 235.222 197.123 233.946C197.123 232.67 195.935 231.79 194.263 231.79C192.591 231.79 191.403 232.67 191.403 233.946ZM198.817 233.946C198.817 236.058 196.925 237.444 194.263 237.444C191.579 237.444 189.687 236.058 189.687 233.946C189.687 231.834 191.579 230.426 194.263 230.426C196.925 230.426 198.817 231.834 198.817 233.946ZM193.713 240.326V243.912H203.019V240.326H193.713ZM191.953 245.364V238.896H204.779V245.364H191.953ZM202.953 225.916H204.779V237.84H202.953V233.374H199.675V231.9H202.953V225.916ZM217.01 227.126C221.102 227.126 224.182 229.304 224.182 232.582C224.182 235.882 221.102 238.038 217.01 238.038C212.918 238.038 209.838 235.882 209.838 232.582C209.838 229.304 212.918 227.126 217.01 227.126ZM217.01 228.6C213.908 228.6 211.554 230.206 211.554 232.582C211.554 234.98 213.908 236.564 217.01 236.564C220.134 236.564 222.466 234.98 222.466 232.582C222.466 230.206 220.134 228.6 217.01 228.6ZM208.078 241.514H226.008V243.01H208.078V241.514ZM237.512 241.712H245.586V243.186H227.656V241.712H235.686V237.994H229.9V231.9H241.604V228.82H229.856V227.346H243.364V233.352H231.682V236.542H243.826V237.994H237.512V241.712ZM262.267 231.35H266.227V225.916H268.053V240.37H266.227V232.824H262.267V231.35ZM263.433 235.992L262.531 237.4C260.331 236.608 258.637 234.958 257.779 232.934C256.921 235.178 255.117 237.004 252.807 237.84L251.861 236.432C254.787 235.376 256.833 232.758 256.833 229.964V228.974H252.433V227.5H262.971V228.974H258.637V229.942C258.637 232.516 260.573 234.98 263.433 235.992ZM257.251 243.714H268.603V245.188H255.425V239.094H257.251V243.714ZM277.116 231.02V231.966C277.116 235.112 278.7 238.368 281.362 239.798L280.328 241.162C278.414 240.084 277.006 238.082 276.28 235.706C275.598 238.214 274.212 240.414 272.276 241.58L271.22 240.238C273.882 238.654 275.4 235.2 275.4 231.966V231.02H271.748V229.524H275.4V226.598H277.138V229.524H280.768V231.02H277.116ZM282.44 233.682V226.356H284.156V244.594H282.44V235.178H279.426V233.682H282.44ZM286.4 225.894H288.138V245.606H286.4V225.894ZM312.013 235.024V236.498H304.907V227.742H311.771V229.194H306.711V235.024H312.013ZM303.895 234.474L304.071 235.948C301.915 236.432 300.133 236.498 298.131 236.498H297.053V227.764H303.697V229.238H298.835V235.002C300.485 234.98 302.113 234.87 303.895 234.474ZM305.303 241.624H313.399V243.098H295.491V241.624H303.499V237.466H305.303V241.624ZM330.888 231.834V233.308H317.468V226.62H319.272V231.834H330.888ZM319.14 239.38V243.67H330.998V245.144H317.336V239.38H319.14ZM315.048 235.948H332.934V237.4H315.048V235.948ZM349.659 231.35H353.619V225.916H355.445V240.37H353.619V232.824H349.659V231.35ZM350.825 235.992L349.923 237.4C347.723 236.608 346.029 234.958 345.171 232.934C344.313 235.178 342.509 237.004 340.199 237.84L339.253 236.432C342.179 235.376 344.225 232.758 344.225 229.964V228.974H339.825V227.5H350.363V228.974H346.029V229.942C346.029 232.516 347.965 234.98 350.825 235.992ZM344.643 243.714H355.995V245.188H342.817V239.094H344.643V243.714ZM364.507 231.02V231.966C364.507 235.112 366.091 238.368 368.753 239.798L367.719 241.162C365.805 240.084 364.397 238.082 363.671 235.706C362.989 238.214 361.603 240.414 359.667 241.58L358.611 240.238C361.273 238.654 362.791 235.2 362.791 231.966V231.02H359.139V229.524H362.791V226.598H364.529V229.524H368.159V231.02H364.507ZM369.831 233.682V226.356H371.547V244.594H369.831V235.178H366.817V233.682H369.831ZM373.791 225.894H375.529V245.606H373.791V225.894ZM384.746 227.346C387.826 227.346 390.026 229.216 390.026 231.988C390.026 234.738 387.826 236.63 384.746 236.63C381.688 236.63 379.466 234.738 379.466 231.988C379.466 229.216 381.688 227.346 384.746 227.346ZM384.746 228.886C382.722 228.886 381.226 230.14 381.226 231.988C381.226 233.814 382.722 235.09 384.746 235.09C386.792 235.09 388.266 233.814 388.266 231.988C388.266 230.14 386.792 228.886 384.746 228.886ZM392.622 225.894H394.426V245.672H392.622V225.894ZM378.696 241.338L378.476 239.82C382.062 239.82 387.012 239.798 391.324 239.138L391.478 240.48C387.034 241.294 382.26 241.338 378.696 241.338ZM419.225 232.384L418.543 233.836C415.529 233.33 412.625 231.768 411.371 229.502C410.139 231.768 407.235 233.33 404.221 233.836L403.539 232.384C407.037 231.9 410.447 229.7 410.447 227.082V226.202H412.295V227.082C412.295 229.7 415.705 231.9 419.225 232.384ZM404.441 240.656V239.182H418.103V245.65H416.299V240.656H404.441ZM412.273 235.794H420.369V237.268H402.461V235.794H410.469V232.78H412.273V235.794ZM436.471 237.576V231.57H432.181V230.096H436.471V225.916H438.297V237.576H436.471ZM433.611 235.244L432.643 236.652C430.487 235.838 428.815 234.276 427.957 232.23C427.121 234.562 425.339 236.344 422.963 237.246L422.017 235.772C425.053 234.694 427.011 232.054 427.011 229.04V227.016H428.815V228.974C428.815 231.79 430.729 234.232 433.611 235.244ZM431.785 244.176C434.755 244.176 436.559 243.318 436.559 241.888C436.559 240.436 434.755 239.578 431.785 239.578C428.815 239.578 427.011 240.436 427.011 241.888C427.011 243.318 428.815 244.176 431.785 244.176ZM431.785 238.17C435.833 238.17 438.363 239.512 438.363 241.888C438.363 244.242 435.833 245.606 431.785 245.606C427.737 245.606 425.207 244.242 425.207 241.888C425.207 239.512 427.737 238.17 431.785 238.17ZM450.528 227.588C447.294 227.588 445.446 228.336 445.446 229.656C445.446 230.976 447.294 231.724 450.528 231.724C453.762 231.724 455.61 230.976 455.61 229.656C455.61 228.336 453.762 227.588 450.528 227.588ZM450.528 233.066C446.194 233.066 443.598 231.878 443.598 229.656C443.598 227.434 446.194 226.224 450.528 226.224C454.862 226.224 457.458 227.434 457.458 229.656C457.458 231.878 454.862 233.066 450.528 233.066ZM445.578 241.998V244H457.766V245.408H443.818V240.678H455.39V238.918H443.752V237.554H457.172V241.998H445.578ZM441.596 234.408H459.46V235.86H441.596V234.408ZM38.584 270.54L38.782 271.992C36.076 272.542 33.744 272.674 29.608 272.674H28.068V263.61H36.802V265.062H29.872V271.2C33.766 271.2 36.01 271.046 38.584 270.54ZM32.006 274.742V279.714H43.358V281.188H30.202V274.742H32.006ZM42.478 267.746H45.404V269.242H42.478V276.172H40.674V261.894H42.478V267.746ZM57.2823 267.02H61.1763V261.916H63.0023V273.664H61.1763V268.494H57.2823V267.02ZM58.3823 271.508L57.4803 272.916C55.2803 272.124 53.5863 270.496 52.7283 268.472C51.8923 270.76 50.0663 272.608 47.7563 273.488L46.8103 272.058C49.7583 270.98 51.7823 268.318 51.7823 265.48V264.798H47.3823V263.346H57.9203V264.798H53.5863V265.48C53.5863 268.01 55.5223 270.496 58.3823 271.508ZM56.4903 280.22C59.4603 280.22 61.2643 279.384 61.2643 277.954C61.2643 276.524 59.4603 275.666 56.4903 275.666C53.5203 275.666 51.7163 276.524 51.7163 277.954C51.7163 279.384 53.5203 280.22 56.4903 280.22ZM56.4903 274.28C60.5383 274.28 63.0683 275.622 63.0683 277.954C63.0683 280.286 60.5383 281.628 56.4903 281.628C52.4423 281.628 49.9123 280.286 49.9123 277.954C49.9123 275.622 52.4423 274.28 56.4903 274.28ZM82.5146 261.916V275.292H80.7106V261.916H82.5146ZM78.3786 271.42L77.4986 272.828C75.2326 272.058 73.4506 270.474 72.5486 268.406C71.7346 270.738 69.9086 272.564 67.5766 273.422L66.6086 272.014C69.6006 270.958 71.5806 268.318 71.5806 265.436V264.864H67.0706V263.412H77.8946V264.864H73.4286V265.436C73.4286 268.076 75.4746 270.474 78.3786 271.42ZM77.0366 274.192V274.698C77.0366 277.47 80.1166 279.56 83.6586 280.132L82.9546 281.562C79.9626 281.012 77.2786 279.494 76.1126 277.228C74.9686 279.494 72.2626 281.012 69.2706 281.562L68.5886 280.132C72.1086 279.56 75.1886 277.47 75.1886 274.698V274.192H77.0366ZM99.8268 265.832V265.348H87.7928V263.874H101.631V265.832C101.631 268.274 101.631 270.98 100.883 274.962L99.0788 274.764C99.8268 270.98 99.8268 268.208 99.8268 265.832ZM94.6568 277.382H103.765V278.856H85.9228V277.382H92.8528V270.32H94.6568V277.382ZM114.33 265.194V271.926C115.364 271.904 116.42 271.882 117.476 271.816V265.194H114.33ZM122.096 271.442L122.228 272.784C118.29 273.4 113.692 273.488 110.282 273.488L110.084 271.992C110.854 271.992 111.69 271.992 112.57 271.97V265.194H110.634V263.742H121.172V265.194H119.214V271.706C120.204 271.64 121.172 271.552 122.096 271.442ZM114.858 275.072V279.714H126.21V281.188H113.054V275.072H114.858ZM125.33 267.9H128.234V269.396H125.33V276.436H123.526V261.894H125.33V267.9ZM141.015 270.54L141.213 271.992C138.507 272.542 136.175 272.674 132.039 272.674H130.499V263.61H139.233V265.062H132.303V271.2C136.197 271.2 138.441 271.046 141.015 270.54ZM134.437 274.742V279.714H145.789V281.188H132.633V274.742H134.437ZM144.909 267.746H147.835V269.242H144.909V276.172H143.105V261.894H144.909V267.746ZM154.961 275.732C156.765 275.732 158.063 274.456 158.063 272.696C158.063 270.914 156.765 269.638 154.961 269.638C153.179 269.638 151.881 270.914 151.881 272.696C151.881 274.456 153.179 275.732 154.961 275.732ZM154.961 268.142C157.777 268.142 159.779 270.034 159.779 272.696C159.779 275.38 157.777 277.228 154.961 277.228C152.189 277.228 150.187 275.38 150.187 272.696C150.187 270.034 152.189 268.142 154.961 268.142ZM155.841 262.136V265.062H160.703V266.514H149.065V265.062H154.037V262.136H155.841ZM167.611 270.012V271.53H164.377V281.628H162.573V261.916H164.377V270.012H167.611ZM184.571 267.834V269.308H171.151V262.62H172.955V267.834H184.571ZM172.823 275.38V279.67H184.681V281.144H171.019V275.38H172.823ZM168.731 271.948H186.617V273.4H168.731V271.948ZM196.347 268.362C196.347 270.628 198.657 272.102 201.803 272.102C204.949 272.102 207.237 270.628 207.237 268.362C207.237 266.096 204.949 264.622 201.803 264.622C198.657 264.622 196.347 266.096 196.347 268.362ZM202.705 277.602H210.779V279.098H192.849V277.602H200.879V273.488C197.205 273.224 194.609 271.266 194.609 268.362C194.609 265.216 197.623 263.192 201.803 263.192C205.961 263.192 208.953 265.216 208.953 268.362C208.953 271.266 206.379 273.224 202.705 273.488V277.602ZM226.353 266.382V264.116H214.561V262.664H228.179V267.746H216.431V270.166H228.619V271.618H214.627V266.382H226.353ZM230.335 273.664V275.116H225.671V281.65H223.867V275.116H218.895V281.65H217.091V275.116H212.427V273.664H230.335Z" fill="#F4F4F4"/>
<path d="M150.146 38.99C149.545 38.99 149.105 38.8507 148.826 38.572C148.562 38.2787 148.43 37.9193 148.43 37.494V37.076C148.43 36.68 148.489 36.284 148.606 35.888C148.723 35.4773 148.877 35.0813 149.068 34.7C149.273 34.3187 149.515 33.9593 149.794 33.622C150.073 33.2847 150.373 32.984 150.696 32.72H152.588C152.119 33.1747 151.723 33.622 151.4 34.062C151.077 34.502 150.835 34.9933 150.674 35.536C151.099 35.624 151.407 35.8073 151.598 36.086C151.789 36.35 151.884 36.658 151.884 37.01V37.494C151.884 37.9193 151.745 38.2787 151.466 38.572C151.202 38.8507 150.762 38.99 150.146 38.99ZM164.71 35.514H167.746V30.63H170.65V42.686H167.746V37.868H164.71V35.514ZM165.92 39.87L164.512 42.136C162.312 41.41 160.794 39.98 159.914 38.198C159.034 40.244 157.428 41.894 155.074 42.686L153.6 40.398C156.812 39.276 158.286 36.702 158.374 34.172H154.392V31.84H165.282V34.172H161.344C161.432 36.482 162.84 38.858 165.92 39.87ZM163.808 48.714C166.448 48.714 167.834 48.164 167.834 47.02C167.834 45.876 166.448 45.326 163.808 45.326C161.146 45.326 159.76 45.876 159.76 47.02C159.76 48.164 161.146 48.714 163.808 48.714ZM163.808 43.126C168.098 43.126 170.738 44.556 170.738 47.02C170.738 49.484 168.098 50.914 163.808 50.914C159.496 50.914 156.856 49.484 156.856 47.02C156.856 44.556 159.496 43.126 163.808 43.126ZM187.324 45.59V37.296H183.606V34.942H187.324V30.63H190.228V45.59H187.324ZM185.388 40.398L183.848 42.642C181.736 41.872 180.284 40.398 179.448 38.528C178.59 40.618 177.028 42.268 174.674 43.126L173.156 40.86C176.5 39.738 177.908 36.922 177.908 34.04V31.862H180.856V34.062C180.856 36.702 182.22 39.276 185.388 40.398ZM179.756 48.23H190.668V50.54H176.852V44.094H179.756V48.23ZM195.198 45.612C195.8 45.612 196.24 45.766 196.518 46.074C196.812 46.382 196.958 46.7707 196.958 47.24V47.636C196.958 48.032 196.9 48.4427 196.782 48.868C196.68 49.2933 196.526 49.704 196.32 50.1C196.13 50.496 195.895 50.87 195.616 51.222C195.352 51.574 195.052 51.882 194.714 52.146H192.712C193.211 51.662 193.629 51.1853 193.966 50.716C194.304 50.2613 194.56 49.7553 194.736 49.198C194.282 49.1247 193.952 48.9487 193.746 48.67C193.541 48.3767 193.438 48.032 193.438 47.636V47.24C193.438 46.7707 193.578 46.382 193.856 46.074C194.135 45.766 194.582 45.612 195.198 45.612ZM204.574 31.796H213.946C213.946 37.186 210.536 40.838 204.508 42.378L203.408 40.112C207.896 38.99 210.426 36.768 210.844 34.084H204.574V31.796ZM209.59 45.062V48.384H217.268V45.062H209.59ZM206.73 50.65V42.774H220.128V50.65H206.73ZM217.202 30.652H220.128V41.916H217.202V30.652ZM240.235 32.082V34.26H223.757V32.082H230.577V30.454H233.481V32.082H240.235ZM231.985 48.824C234.801 48.824 236.055 48.494 236.055 47.768C236.055 47.02 234.801 46.712 231.985 46.712C229.169 46.712 227.915 47.02 227.915 47.768C227.915 48.494 229.169 48.824 231.985 48.824ZM231.985 44.622C236.451 44.622 239.025 45.7 239.025 47.768C239.025 49.836 236.451 50.892 231.985 50.892C227.541 50.892 224.967 49.836 224.967 47.768C224.967 45.7 227.541 44.622 231.985 44.622ZM228.355 37.692C228.355 38.352 229.521 38.638 232.029 38.638C234.559 38.638 235.703 38.352 235.703 37.692C235.703 37.032 234.559 36.768 232.029 36.768C229.521 36.768 228.355 37.032 228.355 37.692ZM233.481 41.586H241.203V43.83H222.855V41.586H230.577V40.552C227.167 40.332 225.253 39.386 225.253 37.692C225.253 35.778 227.695 34.81 232.029 34.81C236.385 34.81 238.827 35.778 238.827 37.692C238.827 39.386 236.913 40.332 233.481 40.552V41.586ZM253.059 46.228H260.803V48.604H242.455V46.228H250.155V42.004H244.589V32.016H258.691V34.348H247.515V39.672H258.845V42.004H253.059V46.228ZM264.365 45.612C264.967 45.612 265.407 45.766 265.685 46.074C265.979 46.382 266.125 46.7707 266.125 47.24V47.636C266.125 48.032 266.067 48.4427 265.949 48.868C265.847 49.2933 265.693 49.704 265.487 50.1C265.297 50.496 265.062 50.87 264.783 51.222C264.519 51.574 264.219 51.882 263.881 52.146H261.879C262.378 51.662 262.796 51.1853 263.133 50.716C263.471 50.2613 263.727 49.7553 263.903 49.198C263.449 49.1247 263.119 48.9487 262.913 48.67C262.708 48.3767 262.605 48.032 262.605 47.636V47.24C262.605 46.7707 262.745 46.382 263.023 46.074C263.302 45.766 263.749 45.612 264.365 45.612ZM289.295 30.652V45.414H286.369V30.652H289.295ZM284.873 40.046L283.399 42.356C281.155 41.586 279.615 40.09 278.735 38.198C277.811 40.244 276.227 41.894 273.873 42.708L272.399 40.398C275.765 39.254 277.217 36.416 277.217 33.71V31.752H280.165V33.71C280.165 36.394 281.573 38.99 284.873 40.046ZM278.713 48.23H289.801V50.54H275.809V44.006H278.713V48.23ZM301.195 33.314C298.665 33.314 297.059 33.952 297.059 35.206C297.059 36.438 298.665 37.076 301.195 37.076C303.747 37.076 305.353 36.438 305.353 35.206C305.353 33.952 303.747 33.314 301.195 33.314ZM301.195 39.386C296.839 39.386 293.913 37.758 293.913 35.206C293.913 32.654 296.839 31.004 301.195 31.004C305.573 31.004 308.477 32.654 308.477 35.206C308.477 37.758 305.573 39.386 301.195 39.386ZM297.015 44.6V48.23H308.587V50.54H294.133V44.6H297.015ZM292.065 40.42H310.391V42.73H306.123V46.36H303.219V42.73H301.195V46.338H298.313V42.73H292.065V40.42ZM313.646 46.646V44.336H327.726V50.914H324.822V46.646H313.646ZM316.836 35.118V36.702H324.734V35.118H316.836ZM322.204 40.64H329.948V42.95H311.622V40.64H319.3V38.968H313.954V31.158H316.836V32.94H324.734V31.158H327.616V38.968H322.204V40.64ZM333.532 45.612C334.133 45.612 334.573 45.766 334.852 46.074C335.145 46.382 335.292 46.7707 335.292 47.24V47.636C335.292 48.032 335.233 48.4427 335.116 48.868C335.013 49.2933 334.859 49.704 334.654 50.1C334.463 50.496 334.229 50.87 333.95 51.222C333.686 51.574 333.385 51.882 333.048 52.146H331.046C331.545 51.662 331.963 51.1853 332.3 50.716C332.637 50.2613 332.894 49.7553 333.07 49.198C332.615 49.1247 332.285 48.9487 332.08 48.67C331.875 48.3767 331.772 48.032 331.772 47.636V47.24C331.772 46.7707 331.911 46.382 332.19 46.074C332.469 45.766 332.916 45.612 333.532 45.612ZM353.71 39.826L352.324 42.07C350.102 41.41 348.562 40.068 347.682 38.396C346.78 40.398 345.174 42.004 342.798 42.774L341.346 40.508C344.624 39.408 346.076 36.834 346.12 34.304H342.094V31.972H353.05V34.304H349.09C349.134 36.614 350.52 38.88 353.71 39.826ZM350.96 48.67C353.534 48.67 354.92 48.12 354.92 46.976C354.92 45.81 353.534 45.26 350.96 45.26C348.364 45.26 346.978 45.81 346.978 46.976C346.978 48.12 348.364 48.67 350.96 48.67ZM350.96 43.016C355.162 43.016 357.802 44.49 357.802 46.976C357.802 49.44 355.162 50.892 350.96 50.892C346.736 50.892 344.096 49.44 344.096 46.976C344.096 44.49 346.736 43.016 350.96 43.016ZM357.582 35.294H360.266V37.67H357.582V42.664H354.678V30.63H357.582V35.294ZM378.612 36.592L377.578 38.858C374.124 38.374 371.66 36.9 370.362 34.942C369.086 36.9 366.6 38.374 363.168 38.858L362.112 36.592C366.644 36.02 368.866 33.71 368.866 31.576V30.982H371.858V31.576C371.858 33.688 374.08 36.02 378.612 36.592ZM370.318 48.736C373.024 48.736 374.41 48.274 374.41 47.24C374.41 46.206 373.024 45.744 370.318 45.744C367.612 45.744 366.226 46.206 366.226 47.24C366.226 48.274 367.612 48.736 370.318 48.736ZM370.318 43.566C374.696 43.566 377.358 44.886 377.358 47.24C377.358 49.594 374.696 50.914 370.318 50.914C365.94 50.914 363.3 49.594 363.3 47.24C363.3 44.886 365.94 43.566 370.318 43.566ZM361.21 39.936H379.514V42.224H361.21V39.936ZM394.846 48.34V46.536H387.19V48.34H394.846ZM394.846 44.336V42.4H397.728V50.65H384.308V42.4H387.19V44.336H394.846ZM386.376 38.726C387.872 38.726 388.95 37.824 388.95 36.306C388.95 34.788 387.872 33.886 386.376 33.886C384.902 33.886 383.824 34.788 383.824 36.306C383.824 37.824 384.902 38.726 386.376 38.726ZM394.824 30.63H397.728V41.52H394.824V37.45H391.612C391.062 39.65 388.994 41.146 386.376 41.146C383.34 41.146 381.052 39.122 381.052 36.306C381.052 33.49 383.34 31.466 386.376 31.466C388.95 31.466 391.018 32.94 391.59 35.096H394.824V30.63ZM421.164 36.196V38.484H407.15V31.18H421.054V33.49H410.032V36.196H421.164ZM414.014 48.692C416.72 48.692 418.106 48.23 418.106 47.174C418.106 46.118 416.72 45.634 414.014 45.634C411.308 45.634 409.922 46.118 409.922 47.174C409.922 48.23 411.308 48.692 414.014 48.692ZM414.014 43.434C418.392 43.434 421.054 44.776 421.054 47.174C421.054 49.55 418.392 50.892 414.014 50.892C409.636 50.892 406.996 49.55 406.996 47.174C406.996 44.776 409.636 43.434 414.014 43.434ZM404.928 39.892H423.254V42.268H404.928V39.892ZM433.798 34.414V39.782H442.532V34.414H433.798ZM439.628 46.184H447.372V48.538H429.024V46.184H436.724V42.07H430.96V32.126H445.37V42.07H439.628V46.184ZM464.838 37.802V40.112H450.912V31.708H464.618V34.018H453.882V37.802H464.838ZM466.95 42.092V44.446H459.162V50.87H456.258V44.446H448.58V42.092H466.95ZM484.049 39.276L484.357 41.542C481.651 42.026 479.187 42.114 475.161 42.114H473.467V31.95H482.971V34.238H476.349V35.888H482.553V38.132H476.349V39.804C479.605 39.782 481.695 39.694 484.049 39.276ZM475.161 46.03V43.742H488.669V50.914H485.765V46.03H475.161ZM491.353 35.536V37.912H488.669V42.862H485.765V30.63H488.669V35.536H491.353ZM502.858 40.002H506.444V30.63H509.348V42.356H506.444V41.762H502.858V40.002ZM498.744 32.83C497.292 32.83 496.368 33.204 496.368 33.974C496.368 34.722 497.292 35.096 498.744 35.096C500.196 35.096 501.098 34.722 501.098 33.974C501.098 33.204 500.196 32.83 498.744 32.83ZM498.744 36.966C495.708 36.966 493.684 35.8 493.684 33.974C493.684 32.104 495.708 30.938 498.744 30.938C501.758 30.938 503.804 32.104 503.804 33.974C503.804 35.8 501.758 36.966 498.744 36.966ZM497.204 42.378V39.716C495.598 39.738 494.036 39.738 492.606 39.738L492.32 37.758C496.192 37.758 501.01 37.758 505.256 37.318L505.432 39.1C503.672 39.342 501.89 39.496 500.108 39.584V42.378H497.204ZM498.084 48.758H509.81V50.738H495.224V45.898H506.488V44.93H495.202V42.972H509.348V47.724H498.084V48.758ZM523.822 32.764L523.8 35.03H511.876V32.764H516.364V30.608H519.29V32.764H523.822ZM515.638 39.65C515.638 40.772 516.54 41.366 517.838 41.366C519.114 41.366 520.038 40.772 520.038 39.65C520.038 38.55 519.114 37.956 517.838 37.956C516.54 37.956 515.638 38.55 515.638 39.65ZM522.81 39.65C522.81 41.982 520.742 43.566 517.838 43.566C514.934 43.566 512.866 41.982 512.866 39.65C512.866 37.362 514.934 35.756 517.838 35.756C520.742 35.756 522.81 37.362 522.81 39.65ZM517.662 44.666V48.23H528.552V50.54H514.758V44.666H517.662ZM527.826 36.812H530.51V39.21H527.826V45.788H524.922V30.63H527.826V36.812ZM548.071 32.852V35.14H536.147V32.852H540.679V30.718H543.583V32.852H548.071ZM539.931 39.738C539.931 40.816 540.811 41.388 542.131 41.388C543.451 41.388 544.331 40.816 544.331 39.738C544.331 38.704 543.451 38.132 542.131 38.132C540.811 38.132 539.931 38.704 539.931 39.738ZM543.583 43.412V45.018C545.145 44.93 546.707 44.82 548.159 44.6L548.379 46.69C544.111 47.526 539.557 47.526 536.125 47.526L535.773 45.172C537.225 45.172 538.897 45.172 540.679 45.128V43.412C538.567 42.972 537.181 41.608 537.181 39.738C537.181 37.472 539.227 35.932 542.131 35.932C545.035 35.932 547.081 37.472 547.081 39.738C547.081 41.608 545.695 42.972 543.583 43.412ZM554.627 38.88V41.278H552.097V50.892H549.193V30.63H552.097V38.88H554.627ZM556.496 32.698H566.044C566.044 38.77 563.734 43.984 557.002 47.394L555.374 45.172C560.082 42.752 562.59 39.54 563.118 35.052H556.496V32.698ZM574.272 38.352V40.75H571.434V50.848H568.53V30.608H571.434V38.352H574.272ZM591.32 35.118V37.406H577.438V31.026H591.166V33.336H580.32V35.118H591.32ZM580.144 47.284V48.494H591.76V50.716H577.262V45.238H588.372V44.094H577.24V41.916H591.232V47.284H580.144ZM575.172 38.484H593.498V40.772H575.172V38.484ZM608.61 30.608H611.514V50.936H608.61V30.608ZM600.624 32.038C603.682 32.038 605.948 34.81 605.948 39.254C605.948 43.72 603.682 46.514 600.624 46.514C597.566 46.514 595.3 43.72 595.3 39.254C595.3 34.81 597.566 32.038 600.624 32.038ZM600.624 34.656C599.128 34.656 598.094 36.262 598.094 39.254C598.094 42.268 599.128 43.874 600.624 43.874C602.12 43.874 603.154 42.268 603.154 39.254C603.154 36.262 602.12 34.656 600.624 34.656ZM617.98 34.854V43.654C620.862 43.61 623.26 43.456 625.878 43.016L626.164 45.414C623.106 45.964 620.334 46.074 616.814 46.074H615.098V32.5H624.536V34.854H617.98ZM633.116 38.11V40.508H630.168V50.936H627.264V30.63H630.168V38.11H633.116ZM636.217 49.242C635.615 49.242 635.168 49.0953 634.875 48.802C634.596 48.494 634.457 48.1053 634.457 47.636V47.24C634.457 46.7707 634.596 46.382 634.875 46.074C635.168 45.766 635.615 45.612 636.217 45.612C636.833 45.612 637.28 45.766 637.559 46.074C637.837 46.382 637.977 46.7707 637.977 47.24V47.636C637.977 48.1053 637.837 48.494 637.559 48.802C637.28 49.0953 636.833 49.242 636.217 49.242ZM161.124 70.898V70.81H149.838V68.5H164.028V70.898C164.028 73.736 164.028 76.508 163.28 80.666L160.398 80.402C161.124 76.53 161.124 73.648 161.124 70.898ZM147.946 81.876H166.272V84.252H147.946V81.876ZM171.088 75.936V79.874C173.838 79.852 176.148 79.72 178.7 79.302L178.964 81.656C175.95 82.14 173.266 82.25 169.9 82.25H168.228V73.67H174.432V70.656H168.184V68.346H177.314V75.936H171.088ZM181.56 66.608H184.486V86.936H181.56V76.266H178.392V73.912H181.56V66.608ZM187.103 82.118H205.451V84.494H187.103V82.118ZM189.039 68.214H203.449V78.224H189.039V68.214ZM200.611 70.502H191.877V75.936H200.611V70.502ZM217.285 82.294H225.029V84.67H206.681V82.294H214.381V79.28H208.793V72.416H220.101V70.238H208.771V67.928H222.961V74.682H211.675V76.948H223.423V79.28H217.285V82.294ZM242.744 68.764L242.722 71.03H230.798V68.764H235.286V66.608H238.212V68.764H242.744ZM234.56 75.65C234.56 76.772 235.462 77.366 236.76 77.366C238.036 77.366 238.96 76.772 238.96 75.65C238.96 74.55 238.036 73.956 236.76 73.956C235.462 73.956 234.56 74.55 234.56 75.65ZM241.732 75.65C241.732 77.982 239.664 79.566 236.76 79.566C233.856 79.566 231.788 77.982 231.788 75.65C231.788 73.362 233.856 71.756 236.76 71.756C239.664 71.756 241.732 73.362 241.732 75.65ZM236.584 80.666V84.23H247.474V86.54H233.68V80.666H236.584ZM246.748 72.812H249.432V75.21H246.748V81.788H243.844V66.63H246.748V72.812ZM267.207 66.63V81.04H264.281V66.63H267.207ZM258.385 75.738V70.524H254.249V75.738H258.385ZM261.223 68.236V78.026H251.389V68.236H261.223ZM256.625 84.142H267.713V86.474H253.721V79.764H256.625V84.142ZM271.737 75.122L270.747 72.856C274.553 72.504 276.555 71.096 277.017 69.666H271.605V67.378H286.609V69.666H281.197C281.659 71.096 283.639 72.526 287.489 72.856L286.455 75.122C282.671 74.748 280.163 73.296 279.107 71.338C278.029 73.296 275.543 74.748 271.737 75.122ZM271.979 82.536V80.248H286.059V86.914H283.155V82.536H271.979ZM280.537 76.464H288.281V78.796H269.955V76.464H277.633V73.868H280.537V76.464ZM298.685 69.512C295.979 69.512 294.351 70.172 294.351 71.404C294.351 72.658 295.979 73.274 298.685 73.274C301.413 73.274 303.041 72.658 303.041 71.404C303.041 70.172 301.413 69.512 298.685 69.512ZM298.685 75.584C294.285 75.584 291.359 73.978 291.359 71.404C291.359 68.83 294.285 67.224 298.685 67.224C303.107 67.224 306.033 68.83 306.033 71.404C306.033 73.978 303.107 75.584 298.685 75.584ZM294.659 80.644V84.23H305.791V86.54H291.755V80.644H294.659ZM289.533 76.97H307.837V79.28H289.533V76.97ZM320.119 68.39V71.69C320.119 74.968 320.999 78.334 323.749 80.16L322.165 82.404C320.449 81.348 319.371 79.632 318.733 77.586C318.029 79.83 316.841 81.766 315.015 82.866L313.277 80.688C316.247 78.884 317.325 75.254 317.325 71.8V68.39H320.119ZM324.167 73.472V66.96H326.873V85.99H324.167V75.826H321.615V73.472H324.167ZM328.281 66.63H331.031V86.892H328.281V66.63ZM343.745 71.976V67.07H346.451V86.012H343.745V79.368H340.929V77.036H343.745V74.286H341.303C340.401 77.63 338.377 80.446 334.593 82.69L332.943 80.666C336.947 78.224 338.707 75.298 339.081 71.338H334.087V69.028H341.963C341.963 70.062 341.897 71.03 341.787 71.976H343.745ZM347.903 66.608H350.653V86.892H347.903V66.608ZM357.361 80.05C358.483 80.05 359.121 78.532 359.121 75.408C359.121 72.306 358.483 70.788 357.361 70.788C356.261 70.788 355.601 72.306 355.601 75.408C355.601 78.532 356.261 80.05 357.361 80.05ZM363.323 74.088V66.96H366.029V85.99H363.323V76.442H361.739C361.475 80.402 359.825 82.778 357.361 82.778C354.677 82.778 352.983 80.006 352.983 75.408C352.983 70.832 354.677 68.06 357.361 68.06C359.759 68.06 361.387 70.304 361.717 74.088H363.323ZM367.437 66.608H370.187V86.87H367.437V66.608ZM379.998 68.192V71.118C379.998 74.946 381.472 78.664 384.816 80.16L383.1 82.47C380.878 81.392 379.404 79.412 378.568 76.97C377.688 79.566 376.17 81.678 373.904 82.822L372.1 80.49C375.532 78.906 377.072 74.968 377.072 71.118V68.192H379.998ZM386.488 66.608H389.392V86.936H386.488V75.298H382.594V72.966H386.488V66.608ZM397.427 68.698H406.975C406.975 74.77 404.665 79.984 397.933 83.394L396.305 81.172C401.013 78.752 403.521 75.54 404.049 71.052H397.427V68.698ZM415.203 74.352V76.75H412.365V86.848H409.461V66.608H412.365V74.352H415.203ZM428.159 75.826L426.773 78.07C424.551 77.41 423.011 76.068 422.131 74.396C421.229 76.398 419.623 78.004 417.247 78.774L415.795 76.508C419.073 75.408 420.525 72.834 420.569 70.304H416.543V67.972H427.499V70.304H423.539C423.583 72.614 424.969 74.88 428.159 75.826ZM425.409 84.67C427.983 84.67 429.369 84.12 429.369 82.976C429.369 81.81 427.983 81.26 425.409 81.26C422.813 81.26 421.427 81.81 421.427 82.976C421.427 84.12 422.813 84.67 425.409 84.67ZM425.409 79.016C429.611 79.016 432.251 80.49 432.251 82.976C432.251 85.44 429.611 86.892 425.409 86.892C421.185 86.892 418.545 85.44 418.545 82.976C418.545 80.49 421.185 79.016 425.409 79.016ZM432.031 71.294H434.715V73.67H432.031V78.664H429.127V66.63H432.031V71.294ZM452.937 73.252V75.54H447.415V67.994H452.827V70.304H450.253V73.252H452.937ZM446.601 72.878L446.821 75.166C445.171 75.518 443.873 75.54 442.201 75.54H441.145V67.994H446.447V70.304H444.005V73.23C444.863 73.186 445.677 73.098 446.601 72.878ZM453.443 76.86L453.619 78.972C451.837 79.236 450.077 79.434 448.339 79.544V86.276H445.435V79.676C443.675 79.72 442.025 79.72 440.463 79.72L440.111 77.366C444.093 77.366 448.999 77.388 453.443 76.86ZM454.411 66.63H457.315V86.87H454.411V66.63ZM465.321 79.874C466.817 79.874 467.807 78.268 467.807 75.254C467.807 72.262 466.817 70.656 465.321 70.656C463.847 70.656 462.857 72.262 462.857 75.254C462.857 78.268 463.847 79.874 465.321 79.874ZM473.879 66.608H476.783V86.936H473.879V76.266H470.513C470.205 80.138 468.137 82.514 465.321 82.514C462.307 82.514 460.085 79.72 460.085 75.254C460.085 70.81 462.307 68.038 465.321 68.038C468.049 68.038 470.095 70.26 470.491 73.912H473.879V66.608ZM490.839 74.704L491.191 77.036C487.869 77.718 484.767 77.916 481.907 77.916H480.169V67.972H483.073V75.496C485.493 75.452 488.111 75.254 490.839 74.704ZM485.163 79.852V84.23H495.965V86.54H482.259V79.852H485.163ZM495.305 72.306H497.989V74.748H495.305V81.194H492.401V66.63H495.305V72.306ZM504.463 68.456H514.209V82.074H504.463V68.456ZM511.349 70.744H507.323V79.786H511.349V70.744ZM517.355 66.63H520.259V86.936H517.355V66.63ZM540.453 71.558L539.485 73.736C535.987 73.362 533.479 72.042 532.203 70.194C530.927 72.042 528.397 73.362 524.899 73.736L523.953 71.558C528.507 71.118 530.707 69.072 530.707 67.114V66.74H533.699V67.114C533.699 69.072 535.899 71.118 540.453 71.558ZM541.355 76.86H533.633V78.158H539.133V83.416H528.045V84.56H539.661V86.738H525.163V81.414H536.273V80.314H525.141V78.158H530.729V76.86H523.051V74.572H541.355V76.86ZM554.839 75.87L553.431 78.136C551.209 77.41 549.691 75.958 548.833 74.154C547.931 76.134 546.347 77.762 543.993 78.532L542.519 76.244C545.775 75.144 547.249 72.57 547.293 70.062H543.311V67.752H554.201V70.062H550.263C550.307 72.372 551.715 74.814 554.839 75.87ZM545.753 81.898V79.588H559.569V86.914H556.665V81.898H545.753ZM556.665 66.652H559.569V78.686H556.665V73.802H553.673V71.47H556.665V66.652ZM581.531 66.608H584.281V86.87H581.531V76.75H579.881V85.968H577.175V80.094L575.547 82.272C573.743 81.304 572.555 79.676 571.851 77.652C571.191 79.984 570.003 81.876 568.111 83.02L566.373 80.82C569.387 79.06 570.355 75.474 570.355 71.58V71.03H567.033V68.676H576.207V71.03H573.171V71.58C573.171 75.122 574.183 78.488 577.175 80.05V66.938H579.881V74.374H581.531V66.608ZM602.627 71.668V73.978H588.635V66.982H591.539V71.668H602.627ZM595.433 84.626C598.139 84.626 599.525 84.142 599.525 83.086C599.525 82.03 598.139 81.546 595.433 81.546C592.727 81.546 591.341 82.03 591.341 83.086C591.341 84.142 592.727 84.626 595.433 84.626ZM595.433 79.324C599.811 79.324 602.473 80.71 602.473 83.086C602.473 85.462 599.811 86.848 595.433 86.848C591.055 86.848 588.415 85.462 588.415 83.086C588.415 80.71 591.055 79.324 595.433 79.324ZM586.347 75.694H604.673V78.004H586.347V75.694ZM615.055 69.05C612.129 69.05 610.743 69.468 610.743 70.37C610.743 71.316 612.129 71.712 615.055 71.712C618.003 71.712 619.389 71.316 619.389 70.37C619.389 69.468 618.003 69.05 615.055 69.05ZM615.055 73.824C610.435 73.824 607.729 72.614 607.729 70.37C607.729 68.148 610.435 66.916 615.055 66.916C619.697 66.916 622.403 68.148 622.403 70.37C622.403 72.614 619.697 73.824 615.055 73.824ZM610.897 83.416V84.56H622.513V86.738H608.015V81.414H619.125V80.336H607.993V78.202H621.985V83.416H610.897ZM605.903 74.792H624.207V77.058H605.903V74.792ZM155.778 106.964V108.086C155.778 111.386 157.406 114.884 160.794 116.292L159.21 118.58C156.856 117.568 155.25 115.588 154.348 113.146C153.446 115.786 151.818 118.008 149.442 119.086L147.792 116.776C151.18 115.258 152.83 111.54 152.83 108.086V106.964H148.606V104.566H159.958V106.964H155.778ZM161.828 102.63H164.732V122.892H161.828V102.63ZM184.354 102.63V117.348H181.428V102.63H184.354ZM179.822 110.594L180.13 112.948C176.83 113.652 173.618 113.85 170.428 113.85H168.668V104.126H171.572V111.474C174.278 111.408 177.006 111.166 179.822 110.594ZM173.706 120.23H184.86V122.54H170.802V115.654H173.706V120.23ZM208.472 102.63V117.04H205.546V102.63H208.472ZM199.65 111.738V106.524H195.514V111.738H199.65ZM202.488 104.236V114.026H192.654V104.236H202.488ZM197.89 120.142H208.978V122.474H194.986V115.764H197.89V120.142ZM213.002 111.122L212.012 108.856C215.818 108.504 217.82 107.096 218.282 105.666H212.87V103.378H227.874V105.666H222.462C222.924 107.096 224.904 108.526 228.754 108.856L227.72 111.122C223.936 110.748 221.428 109.296 220.372 107.338C219.294 109.296 216.808 110.748 213.002 111.122ZM213.244 118.536V116.248H227.324V122.914H224.42V118.536H213.244ZM221.802 112.464H229.546V114.796H211.22V112.464H218.898V109.868H221.802V112.464ZM244.68 102.608H247.584V122.936H244.68V102.608ZM236.694 104.038C239.752 104.038 242.018 106.81 242.018 111.254C242.018 115.72 239.752 118.514 236.694 118.514C233.636 118.514 231.37 115.72 231.37 111.254C231.37 106.81 233.636 104.038 236.694 104.038ZM236.694 106.656C235.198 106.656 234.164 108.262 234.164 111.254C234.164 114.268 235.198 115.874 236.694 115.874C238.19 115.874 239.224 114.268 239.224 111.254C239.224 108.262 238.19 106.656 236.694 106.656ZM254.051 106.854V115.654C256.933 115.61 259.331 115.456 261.949 115.016L262.235 117.414C259.177 117.964 256.405 118.074 252.885 118.074H251.169V104.5H260.607V106.854H254.051ZM269.187 110.11V112.508H266.239V122.936H263.335V102.63H266.239V110.11H269.187ZM272.287 121.242C271.686 121.242 271.238 121.095 270.945 120.802C270.666 120.494 270.527 120.105 270.527 119.636V119.24C270.527 118.771 270.666 118.382 270.945 118.074C271.238 117.766 271.686 117.612 272.287 117.612C272.903 117.612 273.35 117.766 273.629 118.074C273.908 118.382 274.047 118.771 274.047 119.24V119.636C274.047 120.105 273.908 120.494 273.629 120.802C273.35 121.095 272.903 121.242 272.287 121.242ZM276.482 104.5C277.084 104.5 277.516 104.647 277.78 104.94C278.059 105.219 278.198 105.571 278.198 105.996V106.414C278.198 106.81 278.14 107.213 278.022 107.624C277.92 108.02 277.766 108.409 277.56 108.79C277.355 109.171 277.113 109.531 276.834 109.868C276.556 110.205 276.255 110.506 275.932 110.77H274.04C274.51 110.33 274.906 109.89 275.228 109.45C275.551 108.995 275.793 108.497 275.954 107.954C275.529 107.881 275.221 107.712 275.03 107.448C274.84 107.169 274.744 106.847 274.744 106.48V105.996C274.744 105.571 274.876 105.219 275.14 104.94C275.419 104.647 275.866 104.5 276.482 104.5Z" fill="white"/>
<rect x="167" y="303" width="482" height="160" rx="4" fill="#4857F6"/>
<path d="M199.39 346.264C198.29 346.264 197.366 346.081 196.618 345.714C195.87 345.333 195.21 344.812 194.638 344.152L196.354 342.48C196.779 342.964 197.241 343.345 197.74 343.624C198.253 343.903 198.84 344.042 199.5 344.042C200.175 344.042 200.659 343.925 200.952 343.69C201.26 343.455 201.414 343.133 201.414 342.722C201.414 342.385 201.304 342.121 201.084 341.93C200.879 341.725 200.519 341.585 200.006 341.512L198.862 341.358C197.615 341.197 196.662 340.845 196.002 340.302C195.357 339.745 195.034 338.938 195.034 337.882C195.034 337.325 195.137 336.826 195.342 336.386C195.547 335.931 195.841 335.55 196.222 335.242C196.603 334.919 197.058 334.677 197.586 334.516C198.129 334.34 198.73 334.252 199.39 334.252C199.947 334.252 200.439 334.296 200.864 334.384C201.304 334.457 201.7 334.575 202.052 334.736C202.404 334.883 202.727 335.073 203.02 335.308C203.313 335.528 203.599 335.777 203.878 336.056L202.228 337.706C201.891 337.354 201.487 337.061 201.018 336.826C200.549 336.591 200.035 336.474 199.478 336.474C198.862 336.474 198.415 336.584 198.136 336.804C197.872 337.024 197.74 337.31 197.74 337.662C197.74 338.043 197.85 338.337 198.07 338.542C198.305 338.733 198.693 338.872 199.236 338.96L200.402 339.114C202.881 339.466 204.12 340.595 204.12 342.502C204.12 343.059 204.003 343.573 203.768 344.042C203.548 344.497 203.233 344.893 202.822 345.23C202.411 345.553 201.913 345.809 201.326 346C200.754 346.176 200.109 346.264 199.39 346.264ZM210.501 346.264C209.679 346.264 208.939 346.125 208.279 345.846C207.633 345.567 207.076 345.164 206.607 344.636C206.152 344.108 205.8 343.477 205.551 342.744C205.301 341.996 205.177 341.16 205.177 340.236C205.177 339.312 205.301 338.483 205.551 337.75C205.8 337.017 206.152 336.393 206.607 335.88C207.076 335.352 207.633 334.949 208.279 334.67C208.939 334.391 209.679 334.252 210.501 334.252C211.322 334.252 212.063 334.391 212.723 334.67C213.383 334.949 213.94 335.352 214.395 335.88C214.864 336.393 215.223 337.017 215.473 337.75C215.722 338.483 215.847 339.312 215.847 340.236C215.847 341.16 215.722 341.996 215.473 342.744C215.223 343.477 214.864 344.108 214.395 344.636C213.94 345.164 213.383 345.567 212.723 345.846C212.063 346.125 211.322 346.264 210.501 346.264ZM210.501 343.998C211.249 343.998 211.835 343.771 212.261 343.316C212.686 342.861 212.899 342.194 212.899 341.314V339.18C212.899 338.315 212.686 337.655 212.261 337.2C211.835 336.745 211.249 336.518 210.501 336.518C209.767 336.518 209.188 336.745 208.763 337.2C208.337 337.655 208.125 338.315 208.125 339.18V341.314C208.125 342.194 208.337 342.861 208.763 343.316C209.188 343.771 209.767 343.998 210.501 343.998ZM220.499 346C219.531 346 218.82 345.758 218.365 345.274C217.91 344.79 217.683 344.108 217.683 343.228V329.72H220.499V343.756H222.017V346H220.499ZM230.354 344.086H230.244C230.141 344.379 230.002 344.658 229.826 344.922C229.664 345.171 229.452 345.399 229.188 345.604C228.938 345.809 228.63 345.971 228.264 346.088C227.912 346.205 227.501 346.264 227.032 346.264C225.844 346.264 224.934 345.875 224.304 345.098C223.673 344.321 223.358 343.213 223.358 341.776V334.516H226.174V341.49C226.174 342.282 226.328 342.891 226.636 343.316C226.944 343.727 227.435 343.932 228.11 343.932C228.388 343.932 228.66 343.895 228.924 343.822C229.202 343.749 229.444 343.639 229.65 343.492C229.855 343.331 230.024 343.14 230.156 342.92C230.288 342.685 230.354 342.414 230.354 342.106V334.516H233.17V346H230.354V344.086ZM239.349 346C238.381 346 237.641 345.751 237.127 345.252C236.629 344.739 236.379 344.013 236.379 343.074V336.76H234.685V334.516H235.565C235.991 334.516 236.277 334.421 236.423 334.23C236.585 334.025 236.665 333.724 236.665 333.328V331.37H239.195V334.516H241.549V336.76H239.195V343.756H241.373V346H239.349ZM244.74 332.844C244.153 332.844 243.728 332.712 243.464 332.448C243.215 332.184 243.09 331.847 243.09 331.436V330.996C243.09 330.585 243.215 330.248 243.464 329.984C243.728 329.72 244.153 329.588 244.74 329.588C245.312 329.588 245.73 329.72 245.994 329.984C246.258 330.248 246.39 330.585 246.39 330.996V331.436C246.39 331.847 246.258 332.184 245.994 332.448C245.73 332.712 245.312 332.844 244.74 332.844ZM243.332 334.516H246.148V346H243.332V334.516ZM253.306 346.264C252.485 346.264 251.744 346.125 251.084 345.846C250.439 345.567 249.881 345.164 249.412 344.636C248.957 344.108 248.605 343.477 248.356 342.744C248.107 341.996 247.982 341.16 247.982 340.236C247.982 339.312 248.107 338.483 248.356 337.75C248.605 337.017 248.957 336.393 249.412 335.88C249.881 335.352 250.439 334.949 251.084 334.67C251.744 334.391 252.485 334.252 253.306 334.252C254.127 334.252 254.868 334.391 255.528 334.67C256.188 334.949 256.745 335.352 257.2 335.88C257.669 336.393 258.029 337.017 258.278 337.75C258.527 338.483 258.652 339.312 258.652 340.236C258.652 341.16 258.527 341.996 258.278 342.744C258.029 343.477 257.669 344.108 257.2 344.636C256.745 345.164 256.188 345.567 255.528 345.846C254.868 346.125 254.127 346.264 253.306 346.264ZM253.306 343.998C254.054 343.998 254.641 343.771 255.066 343.316C255.491 342.861 255.704 342.194 255.704 341.314V339.18C255.704 338.315 255.491 337.655 255.066 337.2C254.641 336.745 254.054 336.518 253.306 336.518C252.573 336.518 251.993 336.745 251.568 337.2C251.143 337.655 250.93 338.315 250.93 339.18V341.314C250.93 342.194 251.143 342.861 251.568 343.316C251.993 343.771 252.573 343.998 253.306 343.998ZM260.488 346V334.516H263.304V336.43H263.414C263.649 335.814 264.016 335.301 264.514 334.89C265.028 334.465 265.732 334.252 266.626 334.252C267.814 334.252 268.724 334.641 269.354 335.418C269.985 336.195 270.3 337.303 270.3 338.74V346H267.484V339.026C267.484 338.205 267.338 337.589 267.044 337.178C266.751 336.767 266.267 336.562 265.592 336.562C265.299 336.562 265.013 336.606 264.734 336.694C264.47 336.767 264.228 336.885 264.008 337.046C263.803 337.193 263.634 337.383 263.502 337.618C263.37 337.838 263.304 338.102 263.304 338.41V346H260.488ZM197.41 382.264C196.867 382.264 196.464 382.125 196.2 381.846C195.936 381.553 195.804 381.193 195.804 380.768V380.438C195.804 380.013 195.936 379.661 196.2 379.382C196.464 379.089 196.867 378.942 197.41 378.942C197.953 378.942 198.356 379.089 198.62 379.382C198.884 379.661 199.016 380.013 199.016 380.438V380.768C199.016 381.193 198.884 381.553 198.62 381.846C198.356 382.125 197.953 382.264 197.41 382.264ZM197.41 373.618C196.867 373.618 196.464 373.479 196.2 373.2C195.936 372.907 195.804 372.547 195.804 372.122V371.792C195.804 371.367 195.936 371.015 196.2 370.736C196.464 370.443 196.867 370.296 197.41 370.296C197.953 370.296 198.356 370.443 198.62 370.736C198.884 371.015 199.016 371.367 199.016 371.792V372.122C199.016 372.547 198.884 372.907 198.62 373.2C198.356 373.479 197.953 373.618 197.41 373.618ZM217.252 373.178L216.306 374.586C214.172 373.794 212.478 372.166 211.598 370.142C210.784 372.452 209.024 374.256 206.714 375.136L205.768 373.706C208.76 372.628 210.674 369.944 210.674 366.93V364.906H212.478V367.084C212.478 369.746 214.414 372.21 217.252 373.178ZM214.898 382.198C217.802 382.198 219.584 381.384 219.584 380.02C219.584 378.634 217.802 377.82 214.898 377.82C211.972 377.82 210.19 378.634 210.19 380.02C210.19 381.384 211.972 382.198 214.898 382.198ZM214.898 376.412C218.902 376.412 221.388 377.71 221.388 380.02C221.388 382.308 218.902 383.606 214.898 383.606C210.872 383.606 208.386 382.308 208.386 380.02C208.386 377.71 210.872 376.412 214.898 376.412ZM221.168 368.998H224.094V370.494H221.168V375.862H219.364V363.916H221.168V368.998ZM237.16 365.61V366.952H225.83V365.61H230.604V363.74H232.408V365.61H237.16ZM228.602 370.582C228.602 371.55 229.724 372.144 231.506 372.144C233.266 372.144 234.388 371.55 234.388 370.582C234.388 369.614 233.266 368.998 231.506 368.998C229.724 368.998 228.602 369.614 228.602 370.582ZM237.754 374.344L237.864 375.598C233.684 376.346 229.02 376.39 225.544 376.39L225.346 374.982C226.908 374.982 228.712 374.96 230.604 374.894V373.332C228.316 373.134 226.886 372.122 226.886 370.582C226.886 368.822 228.712 367.766 231.506 367.766C234.278 367.766 236.104 368.822 236.104 370.582C236.104 372.122 234.674 373.112 232.408 373.332V374.828C234.212 374.718 236.06 374.586 237.754 374.344ZM234.41 382.264C237.38 382.264 239.052 381.648 239.052 380.57C239.052 379.47 237.38 378.876 234.41 378.876C231.44 378.876 229.768 379.47 229.768 380.57C229.768 381.648 231.44 382.264 234.41 382.264ZM234.41 377.534C238.48 377.534 240.878 378.612 240.878 380.57C240.878 382.528 238.48 383.606 234.41 383.606C230.318 383.606 227.942 382.528 227.942 380.57C227.942 378.612 230.318 377.534 234.41 377.534ZM240.724 369.856H243.606V371.352H240.724V377.292H238.92V363.916H240.724V369.856ZM253.922 365.588C250.688 365.588 248.84 366.336 248.84 367.656C248.84 368.976 250.688 369.724 253.922 369.724C257.156 369.724 259.004 368.976 259.004 367.656C259.004 366.336 257.156 365.588 253.922 365.588ZM253.922 371.066C249.588 371.066 246.992 369.878 246.992 367.656C246.992 365.434 249.588 364.224 253.922 364.224C258.256 364.224 260.852 365.434 260.852 367.656C260.852 369.878 258.256 371.066 253.922 371.066ZM248.972 379.998V382H261.16V383.408H247.212V378.678H258.784V376.918H247.146V375.554H260.566V379.998H248.972ZM244.99 372.408H262.854V373.86H244.99V372.408ZM273.442 367.194V373.926C274.476 373.904 275.532 373.882 276.588 373.816V367.194H273.442ZM281.208 373.442L281.34 374.784C277.402 375.4 272.804 375.488 269.394 375.488L269.196 373.992C269.966 373.992 270.802 373.992 271.682 373.97V367.194H269.746V365.742H280.284V367.194H278.326V373.706C279.316 373.64 280.284 373.552 281.208 373.442ZM273.97 377.072V381.714H285.322V383.188H272.166V377.072H273.97ZM284.442 369.9H287.346V371.396H284.442V378.436H282.638V363.894H284.442V369.9ZM300.126 372.54L300.324 373.992C297.618 374.542 295.286 374.674 291.15 374.674H289.61V365.61H298.344V367.062H291.414V373.2C295.308 373.2 297.552 373.046 300.126 372.54ZM293.548 376.742V381.714H304.9V383.188H291.744V376.742H293.548ZM304.02 369.746H306.946V371.242H304.02V378.172H302.216V363.894H304.02V369.746ZM314.072 377.732C315.876 377.732 317.174 376.456 317.174 374.696C317.174 372.914 315.876 371.638 314.072 371.638C312.29 371.638 310.992 372.914 310.992 374.696C310.992 376.456 312.29 377.732 314.072 377.732ZM314.072 370.142C316.888 370.142 318.89 372.034 318.89 374.696C318.89 377.38 316.888 379.228 314.072 379.228C311.3 379.228 309.298 377.38 309.298 374.696C309.298 372.034 311.3 370.142 314.072 370.142ZM314.952 364.136V367.062H319.814V368.514H308.176V367.062H313.148V364.136H314.952ZM326.722 372.012V373.53H323.488V383.628H321.684V363.916H323.488V372.012H326.722ZM329.031 366.028H338.271C338.271 371.726 335.653 376.742 329.097 379.954L328.129 378.48C333.431 375.95 336.071 372.166 336.445 367.48H329.031V366.028ZM342.253 363.894H344.057V383.628H342.253V363.894ZM351.909 377.622C353.449 377.622 354.461 375.62 354.461 372.386C354.461 369.218 353.449 367.216 351.909 367.216C350.325 367.216 349.335 369.218 349.335 372.386C349.335 375.62 350.325 377.622 351.909 377.622ZM358.575 371.572V364.334H360.291V382.66H358.575V373.046H356.089C355.935 376.918 354.329 379.294 351.909 379.294C349.335 379.294 347.685 376.654 347.685 372.386C347.685 368.184 349.335 365.544 351.909 365.544C354.285 365.544 355.869 367.854 356.089 371.572H358.575ZM362.491 363.894H364.207V383.628H362.491V363.894ZM382.839 369.834V371.308H369.419V364.62H371.223V369.834H382.839ZM371.091 377.38V381.67H382.949V383.144H369.287V377.38H371.091ZM366.999 373.948H384.885V375.4H366.999V373.948ZM394.021 366.094V377.38C396.947 377.358 399.631 377.16 402.535 376.566L402.777 378.106C399.653 378.7 396.881 378.898 393.757 378.898H392.217V366.094H394.021ZM405.593 363.894H407.397V383.672H405.593V371.902H399.543V370.406H405.593V363.894ZM424.533 371.242V366.446H414.743V371.242H424.533ZM426.315 364.994V372.672H412.983V364.994H426.315ZM428.603 375.356V376.808H420.507V383.606H418.703V376.808H410.695V375.356H428.603ZM443.327 374.674H446.011V370.142H443.327C443.437 370.846 443.503 371.572 443.503 372.408C443.503 373.244 443.437 373.97 443.327 374.674ZM439.279 377.622C440.863 377.622 441.853 375.62 441.853 372.408C441.853 369.218 440.863 367.216 439.279 367.216C437.717 367.216 436.705 369.218 436.705 372.408C436.705 375.62 437.717 377.622 439.279 377.622ZM446.011 368.668V364.334H447.727V382.66H446.011V376.17H442.953C442.249 378.15 440.995 379.294 439.279 379.294C436.727 379.294 435.077 376.654 435.077 372.408C435.077 368.184 436.727 365.544 439.279 365.544C440.995 365.544 442.271 366.688 442.953 368.668H446.011ZM449.883 363.894H451.599V383.628H449.883V363.894ZM461.409 365.61V369.152C461.409 372.76 463.763 376.39 466.689 377.71L465.611 379.162C463.367 378.062 461.475 375.73 460.529 372.914C459.627 375.884 457.735 378.348 455.425 379.536L454.325 378.062C457.229 376.676 459.627 372.892 459.627 369.152V365.61H461.409ZM468.757 363.894H470.561V383.672H468.757V363.894ZM475.047 366.006H484.067C484.067 371.616 481.493 376.698 475.113 379.888L474.123 378.48C479.161 375.95 481.867 372.166 482.285 367.502H475.047V366.006ZM492.339 371.902V373.398H489.171V383.628H487.367V363.894H489.171V371.902H492.339ZM509.747 373.53L508.845 374.938C506.645 374.146 504.951 372.518 504.071 370.472C503.235 372.738 501.431 374.542 499.121 375.4L498.175 373.97C501.101 372.936 503.147 370.296 503.147 367.502V366.71H498.747V365.236H509.285V366.71H504.951V367.502C504.951 370.032 506.887 372.518 509.747 373.53ZM501.167 378.238V376.786H514.367V383.65H512.541V378.238H501.167ZM512.541 363.894H514.367V375.708H512.541V370.516H508.691V369.042H512.541V363.894ZM524.727 367.414V369.922C524.727 373.266 527.103 376.676 530.007 377.908L528.995 379.36C526.707 378.304 524.771 376.038 523.825 373.332C522.923 376.214 520.987 378.7 518.743 379.844L517.687 378.392C520.525 377.05 522.923 373.332 522.923 369.922V367.414H518.347V365.918H529.369V367.414H524.727ZM532.031 363.916H533.835V383.628H532.031V363.916ZM543.938 369.57C543.938 371.374 545.368 372.65 547.282 372.65C549.174 372.65 550.604 371.374 550.604 369.57C550.604 367.766 549.174 366.49 547.282 366.49C545.368 366.49 543.938 367.766 543.938 369.57ZM552.364 369.57C552.364 372.254 550.208 374.124 547.282 374.124C544.334 374.124 542.178 372.254 542.178 369.57C542.178 366.886 544.334 365.016 547.282 365.016C550.208 365.016 552.364 366.886 552.364 369.57ZM545.632 375.862V381.626C546.776 381.582 548.228 381.406 549.592 380.966L549.878 382.396C548.008 383.012 546.16 383.122 544.818 383.122H543.872V375.862H545.632ZM554.124 382.33C555.312 382.33 556.17 381.714 556.17 380.812C556.17 379.91 555.312 379.316 554.124 379.316C552.914 379.316 552.078 379.91 552.078 380.812C552.078 381.714 552.914 382.33 554.124 382.33ZM554.124 378.04C556.258 378.04 557.776 379.118 557.776 380.812C557.776 382.528 556.258 383.606 554.124 383.606C551.99 383.606 550.472 382.528 550.472 380.812C550.472 379.118 551.99 378.04 554.124 378.04ZM555.004 374.212V375.994H559.074V377.336H549.152V375.994H553.244V374.212H555.004ZM557.116 368.316H560.042V369.812H557.116V373.728H555.312V363.894H557.116V368.316ZM570.293 365.588C567.059 365.588 565.211 366.336 565.211 367.656C565.211 368.976 567.059 369.724 570.293 369.724C573.527 369.724 575.375 368.976 575.375 367.656C575.375 366.336 573.527 365.588 570.293 365.588ZM570.293 371.066C565.959 371.066 563.363 369.878 563.363 367.656C563.363 365.434 565.959 364.224 570.293 364.224C574.627 364.224 577.223 365.434 577.223 367.656C577.223 369.878 574.627 371.066 570.293 371.066ZM565.343 379.998V382H577.531V383.408H563.583V378.678H575.155V376.918H563.517V375.554H576.937V379.998H565.343ZM561.361 372.408H579.225V373.86H561.361V372.408ZM581.533 366.028H586.879C586.879 370.78 585.889 375.4 582.303 379.184L580.895 378.172C583.821 375.136 584.965 371.484 585.163 367.524H581.533V366.028ZM587.539 366.028H592.269C592.269 370.78 591.587 376.214 587.957 380.504L586.505 379.514C589.541 376.016 590.421 371.704 590.575 367.524H587.539V366.028ZM599.397 372.034V373.53H596.471V383.628H594.667V363.894H596.471V372.034H599.397ZM603.113 377.182V373.684C604.301 373.625 605.211 373.376 605.841 372.936C606.487 372.481 606.809 371.814 606.809 370.934V370.626C606.809 369.951 606.604 369.431 606.193 369.064C605.783 368.683 605.233 368.492 604.543 368.492C603.81 368.492 603.223 368.705 602.783 369.13C602.343 369.555 602.043 370.098 601.881 370.758L599.791 369.922C599.923 369.467 600.114 369.027 600.363 368.602C600.627 368.177 600.957 367.803 601.353 367.48C601.749 367.143 602.219 366.879 602.761 366.688C603.304 366.483 603.927 366.38 604.631 366.38C605.35 366.38 606.003 366.483 606.589 366.688C607.176 366.893 607.675 367.187 608.085 367.568C608.496 367.935 608.811 368.389 609.031 368.932C609.251 369.46 609.361 370.047 609.361 370.692C609.361 371.352 609.244 371.946 609.009 372.474C608.789 372.987 608.489 373.427 608.107 373.794C607.741 374.161 607.323 374.461 606.853 374.696C606.384 374.916 605.9 375.07 605.401 375.158V377.182H603.113ZM604.279 382.264C603.722 382.264 603.311 382.132 603.047 381.868C602.798 381.589 602.673 381.237 602.673 380.812V380.438C602.673 380.013 602.798 379.668 603.047 379.404C603.311 379.125 603.722 378.986 604.279 378.986C604.837 378.986 605.24 379.125 605.489 379.404C605.753 379.668 605.885 380.013 605.885 380.438V380.812C605.885 381.237 605.753 381.589 605.489 381.868C605.24 382.132 604.837 382.264 604.279 382.264ZM196.046 401.28H205.22C205.22 406.23 201.766 409.464 195.958 410.806L195.232 409.354C200.204 408.276 202.954 405.79 203.218 402.732H196.046V401.28ZM199.852 415.976V418H211.006V419.364H198.048V411.334H210.566V412.676H199.852V414.634H210.346V415.976H199.852ZM210.478 404.47H213.404V405.966H210.478V410.432H208.674V399.894H210.478V404.47ZM229.088 399.894H230.892V419.672H229.088V399.894ZM220.486 401.412C223.412 401.412 225.502 404.096 225.502 408.298C225.502 412.5 223.412 415.184 220.486 415.184C217.56 415.184 215.47 412.5 215.47 408.298C215.47 404.096 217.56 401.412 220.486 401.412ZM220.486 403.04C218.55 403.04 217.186 405.108 217.186 408.298C217.186 411.51 218.55 413.578 220.486 413.578C222.4 413.578 223.764 411.51 223.764 408.298C223.764 405.108 222.4 403.04 220.486 403.04ZM245.484 401.61V405.152C245.484 408.628 247.728 412.214 250.5 413.6L249.378 415.03C247.288 413.908 245.506 411.598 244.604 408.892C243.746 411.774 241.92 414.238 239.698 415.426L238.62 413.974C241.458 412.522 243.702 408.738 243.702 405.152V401.61H245.484ZM257.298 407.902V409.398H254.042V419.628H252.238V399.916H254.042V407.902H257.298ZM260.838 408.936V413.358C262.906 413.336 264.908 413.248 267.284 412.83L267.438 414.326C264.776 414.766 262.686 414.854 260.354 414.854H259.1V407.484H264.138V403.524H259.034V402.05H265.876V408.936H260.838ZM269.55 405.042V400.268H271.244V418.638H269.55V411.422H266.976V409.948H269.55V406.516H266.976V405.042H269.55ZM273.466 399.894H275.204V419.628H273.466V399.894ZM291.834 403.348V401.742H280.262V400.466H293.616V404.58H282.088V406.274H293.968V407.572H280.306V403.348H291.834ZM281.978 416.24V418.066H294.298V419.364H280.196V414.986H291.9V413.336H280.152V412.038H293.682V416.24H281.978ZM278.018 409.068H295.904V410.432H278.018V409.068ZM304.93 403.26V413.27C308.428 413.27 310.738 413.138 313.4 412.632L313.62 414.128C310.76 414.656 308.384 414.788 304.644 414.788H303.126V401.764H312.102V403.26H304.93ZM316.59 399.894H318.394V419.672H316.59V408.54H310.936V407.044H316.59V399.894ZM337.803 409.354L336.945 410.74C334.701 410.08 332.985 408.628 332.105 406.78C331.247 408.826 329.443 410.388 327.133 411.136L326.253 409.706C329.179 408.826 331.181 406.582 331.181 403.986V403.656H326.803V402.204H331.181V399.806H332.985V402.204H337.341V403.656H332.985V403.986C332.985 406.362 334.899 408.518 337.803 409.354ZM341.895 413.864H336.373C336.703 415.888 339.497 417.67 342.665 418.176L341.983 419.562C339.123 419.078 336.549 417.648 335.427 415.69C334.327 417.67 331.775 419.056 328.871 419.54L328.233 418.154C331.401 417.67 334.195 415.932 334.481 413.864H328.981V412.412H341.895V413.864ZM341.565 404.778H344.491V406.274H341.565V411.356H339.761V399.916H341.565V404.778ZM351.09 413.578C352.982 413.578 354.324 411.51 354.324 408.298C354.324 405.108 352.982 403.04 351.09 403.04C349.176 403.04 347.834 405.108 347.834 408.298C347.834 411.51 349.176 413.578 351.09 413.578ZM351.09 401.412C353.994 401.412 356.04 404.096 356.04 408.298C356.04 412.5 353.994 415.184 351.09 415.184C348.186 415.184 346.118 412.5 346.118 408.298C346.118 404.096 348.186 401.412 351.09 401.412ZM364.268 407.77V409.288H361.012V419.628H359.208V399.916H361.012V407.77H364.268ZM373.909 416.108V418.022H386.097V419.408H372.149V414.788H383.721V413.072H372.083V411.708H385.503V416.108H373.909ZM374.085 403.436V405.328H383.677V403.436H374.085ZM379.761 408.606H387.791V410.058H369.927V408.606H377.957V406.714H372.303V400.202H374.085V402.072H383.677V400.202H385.459V406.714H379.761V408.606ZM391.925 408.98V413.402C394.169 413.38 396.237 413.292 398.745 412.852L398.877 414.348C396.149 414.81 393.927 414.898 391.485 414.898H390.187V407.506H395.775V403.524H390.121V402.05H397.535V408.98H391.925ZM404.553 399.894H406.291V419.606H404.553V409.156H401.759V418.616H400.065V400.334H401.759V407.682H404.553V399.894ZM411.68 413.182V409.684C412.868 409.625 413.777 409.376 414.408 408.936C415.053 408.481 415.376 407.814 415.376 406.934V406.626C415.376 405.951 415.17 405.431 414.76 405.064C414.349 404.683 413.799 404.492 413.11 404.492C412.376 404.492 411.79 404.705 411.35 405.13C410.91 405.555 410.609 406.098 410.448 406.758L408.358 405.922C408.49 405.467 408.68 405.027 408.93 404.602C409.194 404.177 409.524 403.803 409.92 403.48C410.316 403.143 410.785 402.879 411.328 402.688C411.87 402.483 412.494 402.38 413.198 402.38C413.916 402.38 414.569 402.483 415.156 402.688C415.742 402.893 416.241 403.187 416.652 403.568C417.062 403.935 417.378 404.389 417.598 404.932C417.818 405.46 417.928 406.047 417.928 406.692C417.928 407.352 417.81 407.946 417.576 408.474C417.356 408.987 417.055 409.427 416.674 409.794C416.307 410.161 415.889 410.461 415.42 410.696C414.95 410.916 414.466 411.07 413.968 411.158V413.182H411.68ZM412.846 418.264C412.288 418.264 411.878 418.132 411.614 417.868C411.364 417.589 411.24 417.237 411.24 416.812V416.438C411.24 416.013 411.364 415.668 411.614 415.404C411.878 415.125 412.288 414.986 412.846 414.986C413.403 414.986 413.806 415.125 414.056 415.404C414.32 415.668 414.452 416.013 414.452 416.438V416.812C414.452 417.237 414.32 417.589 414.056 417.868C413.806 418.132 413.403 418.264 412.846 418.264Z" fill="white"/>
</svg>
