<svg width="446" height="1322" viewBox="0 0 446 1322" fill="none" xmlns="http://www.w3.org/2000/svg">
<path d="M247 320H199V1322H247V320Z" fill="#4857F6"/>
<path d="M285.591 113.84H160.003C75.5017 113.84 7 182.342 7 266.843V304.861C7 389.363 75.5017 457.864 160.003 457.864H285.591C370.093 457.864 438.594 389.363 438.594 304.861V266.843C438.594 182.342 370.093 113.84 285.591 113.84Z" fill="#F4F4F4" stroke="#FF4C91" stroke-width="13" stroke-miterlimit="10"/>
<path d="M285.591 155.003H160.003C98.2354 155.003 48.163 205.076 48.163 266.843V304.861C48.163 366.629 98.2354 416.701 160.003 416.701H285.591C347.359 416.701 397.431 366.629 397.431 304.861V266.843C397.431 205.076 347.359 155.003 285.591 155.003Z" fill="#F4F4F4" stroke="#FF4C91" stroke-width="2" stroke-miterlimit="10"/>
<path d="M285.591 196.167H160.003C120.969 196.167 89.3261 227.81 89.3261 266.843V304.862C89.3261 343.895 120.969 375.538 160.003 375.538H285.591C324.625 375.538 356.268 343.895 356.268 304.862V266.843C356.268 227.81 324.625 196.167 285.591 196.167Z" fill="#F4F4F4" stroke="#FF4C91" stroke-width="2" stroke-miterlimit="10"/>
<path d="M7 285.194H438.594" stroke="#FF4C91" stroke-width="2" stroke-miterlimit="10"/>
<path d="M222.793 113.84V457.864" stroke="#FF4C91" stroke-width="2" stroke-miterlimit="10"/>
<path d="M130.489 266.843V304.861C130.489 321.161 143.703 334.375 160.003 334.375H285.591C301.891 334.375 315.105 321.161 315.105 304.861V266.843C315.105 250.543 301.891 237.329 285.591 237.329H160.003C143.703 237.329 130.489 250.543 130.489 266.843Z" fill="#4857F6" stroke="#FF4C91" stroke-width="2" stroke-miterlimit="10"/>
<path d="M288.876 0L178.312 88.8957L288.876 177.791V120.566C288.876 120.566 484.894 118.146 393.504 285.186C393.504 285.186 458.262 240.4 439.5 144.169C420.738 47.9384 299.241 57.62 288.876 57.62V0Z" fill="#FF4C91"/>
<path d="M161.04 571.055L271.604 482.159L161.04 393.263V450.488C161.04 450.488 -34.978 452.908 56.4122 285.869C56.4122 285.869 -8.3455 330.654 10.4166 426.885C29.1787 523.116 150.675 513.435 161.04 513.435V571.071V571.055Z" fill="#FF4C91"/>
<path d="M321.634 297.32V291.286L320.242 292.043V290.784L322.021 289.812H323.132V297.32H324.367V298.44H320.292V297.32H321.634Z" fill="#FF4C91"/>
<path d="M325.47 294.094C325.47 293.41 325.528 292.793 325.651 292.241C325.775 291.69 325.956 291.212 326.203 290.817C326.45 290.422 326.762 290.117 327.149 289.903C327.536 289.689 327.981 289.582 328.5 289.582C329.018 289.582 329.446 289.689 329.825 289.895C330.204 290.101 330.508 290.405 330.755 290.792C331.002 291.179 331.183 291.657 331.299 292.216C331.414 292.776 331.48 293.402 331.48 294.102C331.48 294.802 331.422 295.452 331.307 296.012C331.192 296.572 331.01 297.041 330.764 297.419C330.517 297.798 330.204 298.095 329.825 298.292C329.446 298.49 328.993 298.589 328.475 298.589C327.956 298.589 327.512 298.49 327.133 298.292C326.754 298.095 326.441 297.806 326.203 297.419C325.964 297.033 325.775 296.572 325.659 296.012C325.544 295.452 325.486 294.818 325.486 294.102L325.47 294.094ZM328.483 297.395C328.697 297.395 328.878 297.354 329.026 297.263C329.175 297.173 329.306 297.049 329.405 296.893C329.504 296.736 329.595 296.547 329.652 296.325C329.71 296.102 329.759 295.872 329.792 295.625C329.825 295.378 329.85 295.114 329.858 294.843C329.866 294.571 329.874 294.299 329.874 294.019C329.874 293.764 329.874 293.509 329.866 293.246C329.858 292.982 329.841 292.735 329.809 292.496C329.776 292.258 329.734 292.027 329.677 291.821C329.619 291.615 329.537 291.426 329.438 291.27C329.339 291.113 329.208 290.99 329.059 290.899C328.911 290.809 328.722 290.768 328.508 290.768C328.294 290.768 328.096 290.809 327.94 290.899C327.783 290.99 327.652 291.105 327.545 291.261C327.438 291.418 327.355 291.599 327.289 291.805C327.224 292.011 327.174 292.241 327.141 292.488C327.108 292.735 327.084 292.99 327.075 293.262C327.067 293.534 327.059 293.797 327.059 294.069C327.059 294.34 327.059 294.604 327.075 294.876C327.092 295.147 327.108 295.403 327.141 295.649C327.174 295.896 327.224 296.127 327.289 296.341C327.355 296.555 327.438 296.736 327.536 296.893C327.635 297.049 327.767 297.173 327.923 297.263C328.08 297.354 328.261 297.395 328.475 297.395H328.483Z" fill="#FF4C91"/>
<path d="M229.05 230.809V224.775L227.658 225.532V224.273L229.437 223.301H230.548V230.809H231.783V231.929H227.708V230.809H229.05Z" fill="#FF4C91"/>
<path d="M232.886 227.582C232.886 226.899 232.944 226.281 233.067 225.73C233.191 225.178 233.372 224.701 233.619 224.305C233.866 223.91 234.179 223.606 234.566 223.392C234.953 223.178 235.397 223.071 235.916 223.071C236.435 223.071 236.863 223.178 237.241 223.383C237.62 223.589 237.925 223.894 238.172 224.281C238.419 224.668 238.6 225.145 238.715 225.705C238.83 226.265 238.896 226.89 238.896 227.59C238.896 228.29 238.838 228.94 238.723 229.5C238.608 230.06 238.427 230.529 238.18 230.908C237.933 231.287 237.62 231.583 237.241 231.781C236.863 231.978 236.41 232.077 235.891 232.077C235.372 232.077 234.928 231.978 234.549 231.781C234.171 231.583 233.858 231.295 233.619 230.908C233.38 230.521 233.191 230.06 233.076 229.5C232.96 228.94 232.903 228.306 232.903 227.59L232.886 227.582ZM235.899 230.883C236.113 230.883 236.295 230.842 236.443 230.752C236.591 230.661 236.723 230.538 236.821 230.381C236.92 230.225 237.011 230.035 237.068 229.813C237.126 229.591 237.175 229.36 237.208 229.113C237.241 228.866 237.266 228.603 237.274 228.331C237.282 228.06 237.291 227.788 237.291 227.508C237.291 227.253 237.291 226.997 237.282 226.734C237.274 226.471 237.258 226.224 237.225 225.985C237.192 225.746 237.151 225.516 237.093 225.31C237.035 225.104 236.953 224.915 236.854 224.758C236.756 224.602 236.624 224.478 236.476 224.388C236.327 224.297 236.138 224.256 235.924 224.256C235.71 224.256 235.512 224.297 235.356 224.388C235.2 224.478 235.068 224.594 234.961 224.75C234.854 224.906 234.771 225.088 234.706 225.293C234.64 225.499 234.59 225.73 234.557 225.977C234.525 226.224 234.5 226.479 234.492 226.751C234.483 227.022 234.475 227.286 234.475 227.557C234.475 227.829 234.475 228.092 234.492 228.364C234.508 228.636 234.525 228.891 234.557 229.138C234.59 229.385 234.64 229.615 234.706 229.83C234.771 230.044 234.854 230.225 234.953 230.381C235.051 230.538 235.183 230.661 235.34 230.752C235.496 230.842 235.677 230.883 235.891 230.883H235.899Z" fill="#FF4C91"/>
<path d="M403.787 293.303C404.174 293.303 404.503 293.27 404.775 293.196C405.046 293.122 405.269 293.031 405.441 292.9C405.614 292.768 405.738 292.62 405.82 292.439C405.903 292.257 405.935 292.052 405.935 291.829C405.935 291.508 405.845 291.261 405.672 291.08C405.499 290.899 405.211 290.8 404.816 290.8C404.602 290.8 404.412 290.825 404.24 290.866C404.067 290.907 403.91 290.965 403.77 291.031C403.63 291.097 403.499 291.171 403.383 291.253C403.268 291.335 403.161 291.41 403.062 291.475L402.404 290.413C402.527 290.315 402.684 290.216 402.856 290.125C403.029 290.035 403.219 289.944 403.433 289.87C403.647 289.796 403.861 289.738 404.1 289.689C404.338 289.64 404.585 289.623 404.849 289.623C405.219 289.623 405.573 289.664 405.894 289.747C406.215 289.829 406.504 289.952 406.75 290.117C406.997 290.282 407.187 290.496 407.327 290.751C407.467 291.006 407.541 291.319 407.541 291.673C407.541 291.912 407.491 292.134 407.401 292.348C407.31 292.562 407.187 292.751 407.039 292.924C406.89 293.097 406.726 293.245 406.536 293.369C406.347 293.492 406.158 293.583 405.96 293.641C406.265 293.682 406.536 293.756 406.775 293.863C407.014 293.97 407.22 294.11 407.384 294.291C407.549 294.472 407.673 294.678 407.763 294.933C407.854 295.188 407.895 295.476 407.895 295.797C407.895 296.316 407.812 296.752 407.656 297.115C407.5 297.477 407.277 297.765 406.989 297.987C406.701 298.21 406.372 298.374 405.985 298.473C405.598 298.572 405.178 298.621 404.725 298.621C404.437 298.621 404.165 298.588 403.902 298.531C403.639 298.473 403.392 298.399 403.169 298.317C402.947 298.234 402.749 298.152 402.585 298.061C402.42 297.971 402.288 297.905 402.198 297.847L402.914 296.662C402.914 296.662 402.996 296.72 403.062 296.769C403.128 296.818 403.219 296.868 403.317 296.925C403.416 296.983 403.523 297.041 403.647 297.098C403.77 297.156 403.894 297.214 404.025 297.263C404.157 297.312 404.289 297.353 404.429 297.386C404.569 297.419 404.701 297.436 404.832 297.436C405.269 297.436 405.614 297.304 405.87 297.049C406.125 296.794 406.256 296.407 406.256 295.896C406.256 295.575 406.207 295.312 406.117 295.098C406.026 294.884 405.878 294.719 405.68 294.604C405.483 294.489 405.219 294.398 404.906 294.349C404.593 294.299 404.215 294.274 403.77 294.266L403.787 293.295V293.303Z" fill="#FF4C91"/>
<path d="M228.465 146.277C228.852 146.277 229.181 146.244 229.453 146.17C229.725 146.096 229.947 146.005 230.12 145.874C230.293 145.742 230.416 145.594 230.499 145.412C230.581 145.231 230.614 145.026 230.614 144.803C230.614 144.482 230.523 144.235 230.351 144.054C230.178 143.873 229.889 143.774 229.494 143.774C229.28 143.774 229.091 143.799 228.918 143.84C228.745 143.881 228.589 143.939 228.449 144.005C228.309 144.071 228.177 144.145 228.062 144.227C227.947 144.309 227.84 144.383 227.741 144.449L227.082 143.387C227.206 143.288 227.362 143.19 227.535 143.099C227.708 143.009 227.897 142.918 228.111 142.844C228.325 142.77 228.539 142.712 228.778 142.663C229.017 142.613 229.264 142.597 229.527 142.597C229.898 142.597 230.252 142.638 230.573 142.72C230.894 142.803 231.182 142.926 231.429 143.091C231.676 143.256 231.865 143.47 232.005 143.725C232.145 143.98 232.219 144.293 232.219 144.647C232.219 144.886 232.17 145.108 232.079 145.322C231.989 145.536 231.865 145.725 231.717 145.898C231.569 146.071 231.404 146.219 231.215 146.343C231.026 146.466 230.836 146.557 230.639 146.614C230.943 146.656 231.215 146.73 231.454 146.837C231.692 146.944 231.898 147.084 232.063 147.265C232.228 147.446 232.351 147.652 232.442 147.907C232.532 148.162 232.573 148.45 232.573 148.771C232.573 149.29 232.491 149.726 232.335 150.089C232.178 150.451 231.956 150.739 231.668 150.961C231.38 151.184 231.05 151.348 230.663 151.447C230.276 151.546 229.857 151.595 229.404 151.595C229.116 151.595 228.844 151.562 228.58 151.505C228.317 151.447 228.07 151.373 227.848 151.291C227.625 151.208 227.428 151.126 227.263 151.035C227.099 150.945 226.967 150.879 226.876 150.821L227.593 149.636C227.593 149.636 227.675 149.693 227.741 149.743C227.807 149.792 227.897 149.842 227.996 149.899C228.095 149.957 228.202 150.015 228.325 150.072C228.449 150.13 228.572 150.187 228.704 150.237C228.836 150.286 228.967 150.327 229.107 150.36C229.247 150.393 229.379 150.41 229.511 150.41C229.947 150.41 230.293 150.278 230.548 150.023C230.803 149.768 230.935 149.381 230.935 148.87C230.935 148.549 230.886 148.286 230.795 148.072C230.704 147.858 230.556 147.693 230.359 147.578C230.161 147.462 229.898 147.372 229.585 147.322C229.272 147.273 228.893 147.248 228.449 147.24L228.465 146.269V146.277Z" fill="#FF4C91"/>
<path d="M366.542 291.393C366.361 291.294 366.147 291.204 365.909 291.121C365.67 291.039 365.39 291.006 365.085 291.006C364.805 291.006 364.558 291.064 364.344 291.187C364.13 291.311 363.949 291.475 363.793 291.689C363.636 291.903 363.513 292.175 363.414 292.488C363.315 292.801 363.25 293.147 363.2 293.542C363.291 293.451 363.406 293.369 363.538 293.295C363.669 293.221 363.817 293.155 363.966 293.105C364.114 293.056 364.279 293.015 364.443 292.982C364.608 292.949 364.773 292.941 364.929 292.941C365.332 292.941 365.686 292.998 365.999 293.114C366.312 293.229 366.575 293.402 366.798 293.616C367.02 293.83 367.176 294.102 367.292 294.423C367.407 294.744 367.465 295.098 367.465 295.501C367.465 295.905 367.399 296.291 367.275 296.629C367.152 296.967 366.954 297.255 366.699 297.493C366.444 297.732 366.131 297.922 365.744 298.053C365.357 298.185 364.921 298.251 364.419 298.251C363.957 298.251 363.562 298.177 363.225 298.029C362.887 297.88 362.616 297.658 362.393 297.37C362.171 297.082 362.015 296.72 361.908 296.283C361.801 295.847 361.751 295.345 361.751 294.777C361.751 294.003 361.817 293.311 361.94 292.702C362.064 292.093 362.27 291.591 362.55 291.179C362.83 290.767 363.192 290.455 363.628 290.241C364.065 290.026 364.616 289.919 365.25 289.919C365.382 289.919 365.53 289.928 365.686 289.944C365.843 289.961 365.999 289.985 366.156 290.026C366.312 290.068 366.468 290.109 366.617 290.158C366.765 290.208 366.905 290.273 367.02 290.339L366.534 291.401L366.542 291.393ZM366.032 295.526C366.032 295.295 365.999 295.09 365.942 294.9C365.884 294.711 365.785 294.554 365.662 294.414C365.538 294.274 365.39 294.176 365.209 294.102C365.028 294.028 364.822 293.995 364.583 293.995C364.427 293.995 364.287 294.003 364.163 294.019C364.04 294.036 363.925 294.069 363.826 294.102C363.727 294.135 363.628 294.184 363.538 294.242C363.447 294.299 363.365 294.365 363.282 294.439C363.266 294.48 363.249 294.53 363.233 294.579C363.217 294.628 363.208 294.686 363.208 294.744C363.208 294.801 363.2 294.859 363.192 294.908C363.184 294.958 363.192 295.007 363.192 295.04C363.192 295.419 363.233 295.74 363.307 296.003C363.381 296.267 363.48 296.481 363.603 296.654C363.727 296.827 363.875 296.942 364.04 297.024C364.204 297.107 364.377 297.139 364.559 297.139C364.756 297.139 364.945 297.106 365.118 297.041C365.291 296.975 365.456 296.868 365.588 296.736C365.719 296.604 365.826 296.431 365.909 296.226C365.991 296.02 366.024 295.781 366.024 295.518L366.032 295.526Z" fill="#FF4C91"/>
<path d="M231.651 185.349C231.47 185.25 231.256 185.16 231.017 185.077C230.779 184.995 230.499 184.962 230.194 184.962C229.914 184.962 229.667 185.02 229.453 185.143C229.239 185.267 229.058 185.431 228.902 185.645C228.745 185.859 228.622 186.131 228.523 186.444C228.424 186.757 228.358 187.102 228.309 187.498C228.399 187.407 228.515 187.325 228.646 187.251C228.778 187.177 228.926 187.111 229.074 187.061C229.223 187.012 229.387 186.971 229.552 186.938C229.716 186.905 229.881 186.897 230.038 186.897C230.441 186.897 230.795 186.954 231.108 187.069C231.421 187.185 231.684 187.358 231.906 187.572C232.129 187.786 232.285 188.057 232.4 188.378C232.516 188.7 232.573 189.054 232.573 189.457C232.573 189.86 232.507 190.247 232.384 190.585C232.26 190.922 232.063 191.211 231.808 191.449C231.552 191.688 231.24 191.877 230.853 192.009C230.466 192.141 230.029 192.207 229.527 192.207C229.066 192.207 228.671 192.133 228.333 191.984C227.996 191.836 227.724 191.614 227.502 191.326C227.28 191.038 227.123 190.675 227.016 190.239C226.909 189.803 226.86 189.301 226.86 188.732C226.86 187.959 226.926 187.267 227.049 186.658C227.173 186.049 227.378 185.546 227.658 185.135C227.938 184.723 228.3 184.41 228.737 184.196C229.173 183.982 229.725 183.875 230.359 183.875C230.49 183.875 230.639 183.883 230.795 183.9C230.951 183.916 231.108 183.941 231.264 183.982C231.421 184.023 231.577 184.065 231.725 184.114C231.873 184.163 232.013 184.229 232.129 184.295L231.643 185.357L231.651 185.349ZM231.141 189.482C231.141 189.251 231.108 189.045 231.05 188.856C230.993 188.667 230.894 188.51 230.77 188.37C230.647 188.23 230.499 188.132 230.318 188.057C230.136 187.983 229.931 187.95 229.692 187.95C229.535 187.95 229.395 187.959 229.272 187.975C229.148 187.992 229.033 188.024 228.934 188.057C228.836 188.09 228.737 188.14 228.646 188.197C228.556 188.255 228.473 188.321 228.391 188.395C228.375 188.436 228.358 188.486 228.342 188.535C228.325 188.584 228.317 188.642 228.317 188.7C228.317 188.757 228.309 188.815 228.301 188.864C228.292 188.914 228.301 188.963 228.301 188.996C228.301 189.375 228.342 189.696 228.416 189.959C228.49 190.223 228.589 190.437 228.712 190.61C228.836 190.782 228.984 190.898 229.148 190.98C229.313 191.062 229.486 191.095 229.667 191.095C229.865 191.095 230.054 191.062 230.227 190.996C230.4 190.931 230.564 190.824 230.696 190.692C230.828 190.56 230.935 190.387 231.017 190.181C231.1 189.976 231.133 189.737 231.133 189.473L231.141 189.482Z" fill="#FF4C91"/>
</svg>
