<svg width="427" height="1272" viewBox="0 0 427 1272" fill="none" xmlns="http://www.w3.org/2000/svg">
<path d="M247 270H199V1272H247V270Z" fill="#4857F6"/>
<path d="M260.257 0H186.542C177.167 0 169.566 7.60025 169.566 16.9756V73.9453C169.566 83.3206 177.167 90.9209 186.542 90.9209H260.257C269.632 90.9209 277.232 83.3206 277.232 73.9453V16.9756C277.232 7.60025 269.632 0 260.257 0Z" fill="#FF4C91"/>
<path d="M300.506 120.945V86.3601C300.506 73.9041 290.405 63.8027 277.949 63.8027H168.85C156.394 63.8027 146.293 73.9041 146.293 86.3601V120.945C78.0115 150.714 30.2706 218.806 30.2706 298.053C30.2706 404.715 116.738 491.182 223.399 491.182C330.061 491.182 416.528 404.715 416.528 298.053C416.528 218.806 368.787 150.714 300.506 120.945Z" fill="#F4F4F4" stroke="#FF4C91" stroke-width="20" stroke-miterlimit="10"/>
<mask id="mask0_125_21" style="mask-type:luminance" maskUnits="userSpaceOnUse" x="30" y="63" width="387" height="429">
<path d="M300.506 120.945V86.3601C300.506 73.9041 290.405 63.8027 277.949 63.8027H168.85C156.394 63.8027 146.293 73.9041 146.293 86.3601V120.945C78.0115 150.714 30.2706 218.806 30.2706 298.053C30.2706 404.715 116.738 491.182 223.399 491.182C330.061 491.182 416.528 404.715 416.528 298.053C416.528 218.806 368.787 150.714 300.506 120.945Z" fill="white"/>
</mask>
<g mask="url(#mask0_125_21)">
<path d="M-12.045 344.312C-12.045 344.312 54.812 287.03 178.12 339.924C301.428 392.819 448.586 294.645 448.586 294.645L397.181 557.117L112.942 567.194L-12.045 344.312Z" fill="#4857F6" stroke="#FF4C91" stroke-width="3.88" stroke-miterlimit="10"/>
</g>
<path d="M223.4 428.417C149.635 428.417 89.6197 368.401 89.6197 294.637C89.6197 220.873 149.635 160.857 223.4 160.857C297.164 160.857 357.179 220.873 357.179 294.637C357.179 368.401 297.164 428.417 223.4 428.417Z" stroke="#FF4C91" stroke-width="2" stroke-miterlimit="10"/>
<path d="M223.399 379.021C176.869 379.021 139.015 341.167 139.015 294.637C139.015 248.106 176.869 210.252 223.399 210.252C269.93 210.252 307.784 248.106 307.784 294.637C307.784 341.167 269.93 379.021 223.399 379.021Z" stroke="#FF4C91" stroke-width="2" stroke-miterlimit="10"/>
<path d="M223.399 74.4392V487.691" stroke="#FF4C91" stroke-width="2" stroke-miterlimit="10"/>
<path d="M426.3 294.637H36.5688" stroke="#FF4C91" stroke-width="2" stroke-miterlimit="10"/>
<path d="M223.399 339.916C248.407 339.916 268.679 319.644 268.679 294.637C268.679 269.63 248.407 249.357 223.399 249.357C198.392 249.357 178.12 269.63 178.12 294.637C178.12 319.644 198.392 339.916 223.399 339.916Z" fill="#4857F6" stroke="#FF4C91" stroke-width="2" stroke-miterlimit="10"/>
<path d="M300.506 120.945V86.3601C300.506 73.9041 290.405 63.8027 277.949 63.8027H168.85C156.394 63.8027 146.293 73.9041 146.293 86.3601V120.945C78.0115 150.714 30.2706 218.806 30.2706 298.053C30.2706 404.715 116.738 491.182 223.399 491.182C330.061 491.182 416.528 404.715 416.528 298.053C416.528 218.806 368.787 150.714 300.506 120.945Z" stroke="#FF4C91" stroke-width="20" stroke-miterlimit="10"/>
<path d="M274.269 306.516V300.482L272.877 301.239V299.979L274.656 299.008H275.767V306.516H277.002V307.636H272.927V306.516H274.269Z" fill="#FF4C91"/>
<path d="M278.105 303.289C278.105 302.606 278.163 301.989 278.286 301.437C278.41 300.885 278.591 300.408 278.838 300.013C279.085 299.618 279.398 299.313 279.785 299.099C280.172 298.885 280.616 298.778 281.135 298.778C281.653 298.778 282.082 298.885 282.46 299.091C282.839 299.296 283.143 299.601 283.39 299.988C283.637 300.375 283.819 300.852 283.934 301.412C284.049 301.972 284.115 302.598 284.115 303.298C284.115 303.997 284.057 304.648 283.942 305.207C283.827 305.767 283.646 306.237 283.399 306.615C283.152 306.994 282.839 307.29 282.46 307.488C282.082 307.686 281.629 307.784 281.11 307.784C280.591 307.784 280.147 307.686 279.768 307.488C279.389 307.29 279.077 307.002 278.838 306.615C278.599 306.228 278.41 305.767 278.295 305.207C278.179 304.648 278.122 304.014 278.122 303.298L278.105 303.289ZM281.118 306.599C281.332 306.599 281.514 306.558 281.662 306.467C281.81 306.377 281.942 306.253 282.04 306.097C282.139 305.94 282.23 305.751 282.287 305.529C282.345 305.306 282.394 305.076 282.427 304.829C282.46 304.582 282.485 304.318 282.493 304.047C282.501 303.775 282.51 303.503 282.51 303.223C282.51 302.968 282.51 302.713 282.501 302.45C282.493 302.186 282.477 301.939 282.444 301.7C282.411 301.462 282.37 301.231 282.312 301.025C282.255 300.82 282.172 300.63 282.073 300.474C281.975 300.317 281.843 300.194 281.695 300.103C281.547 300.013 281.357 299.972 281.143 299.972C280.929 299.972 280.731 300.013 280.575 300.103C280.419 300.194 280.287 300.309 280.18 300.466C280.073 300.622 279.99 300.803 279.925 301.009C279.859 301.215 279.809 301.445 279.776 301.692C279.744 301.939 279.719 302.194 279.711 302.466C279.702 302.738 279.694 303.001 279.694 303.273C279.694 303.545 279.694 303.808 279.711 304.08C279.727 304.351 279.744 304.607 279.776 304.853C279.809 305.1 279.859 305.331 279.925 305.545C279.99 305.759 280.073 305.94 280.172 306.097C280.27 306.253 280.402 306.377 280.558 306.467C280.715 306.558 280.896 306.599 281.11 306.599H281.118Z" fill="#FF4C91"/>
<path d="M229.071 241.94V235.905L227.68 236.663V235.403L229.458 234.432H230.57V241.94H231.805V243.059H227.73V241.94H229.071Z" fill="#FF4C91"/>
<path d="M232.916 238.713C232.916 238.029 232.974 237.412 233.097 236.86C233.221 236.309 233.402 235.831 233.649 235.436C233.896 235.041 234.209 234.736 234.596 234.522C234.983 234.308 235.427 234.201 235.946 234.201C236.465 234.201 236.893 234.308 237.271 234.514C237.65 234.72 237.955 235.024 238.202 235.411C238.449 235.798 238.63 236.276 238.745 236.836C238.86 237.395 238.926 238.021 238.926 238.721C238.926 239.421 238.868 240.071 238.753 240.631C238.638 241.191 238.457 241.66 238.21 242.039C237.963 242.417 237.65 242.714 237.271 242.911C236.893 243.109 236.44 243.208 235.921 243.208C235.403 243.208 234.958 243.109 234.579 242.911C234.2 242.714 233.888 242.426 233.649 242.039C233.41 241.652 233.221 241.191 233.106 240.631C232.99 240.071 232.933 239.437 232.933 238.721L232.916 238.713ZM235.921 242.014C236.135 242.014 236.316 241.973 236.464 241.882C236.613 241.792 236.744 241.668 236.843 241.512C236.942 241.355 237.033 241.166 237.09 240.944C237.148 240.721 237.197 240.491 237.23 240.244C237.263 239.997 237.288 239.733 237.296 239.462C237.304 239.19 237.312 238.918 237.312 238.639C237.312 238.383 237.312 238.128 237.304 237.865C237.296 237.601 237.28 237.354 237.247 237.116C237.214 236.877 237.173 236.646 237.115 236.44C237.057 236.235 236.975 236.045 236.876 235.889C236.777 235.732 236.646 235.609 236.497 235.518C236.349 235.428 236.16 235.387 235.946 235.387C235.732 235.387 235.534 235.428 235.378 235.518C235.222 235.609 235.09 235.724 234.983 235.881C234.876 236.037 234.793 236.218 234.728 236.424C234.662 236.63 234.612 236.86 234.579 237.107C234.546 237.354 234.522 237.609 234.513 237.881C234.505 238.153 234.497 238.416 234.497 238.688C234.497 238.96 234.497 239.223 234.513 239.495C234.53 239.766 234.546 240.022 234.579 240.269C234.612 240.516 234.662 240.746 234.728 240.96C234.793 241.174 234.876 241.355 234.975 241.512C235.073 241.668 235.205 241.792 235.361 241.882C235.518 241.973 235.699 242.014 235.913 242.014H235.921Z" fill="#FF4C91"/>
<path d="M363.452 302.507C363.839 302.507 364.169 302.474 364.441 302.4C364.712 302.326 364.934 302.235 365.107 302.104C365.28 301.972 365.404 301.824 365.486 301.643C365.568 301.462 365.601 301.256 365.601 301.033C365.601 300.712 365.511 300.465 365.338 300.284C365.165 300.103 364.877 300.004 364.482 300.004C364.267 300.004 364.078 300.029 363.905 300.07C363.732 300.111 363.576 300.169 363.436 300.235C363.296 300.301 363.164 300.375 363.049 300.457C362.934 300.54 362.827 300.614 362.728 300.679L362.069 299.617C362.193 299.519 362.349 299.42 362.522 299.329C362.695 299.239 362.884 299.148 363.099 299.074C363.313 299 363.527 298.942 363.765 298.893C364.004 298.844 364.251 298.827 364.514 298.827C364.885 298.827 365.239 298.868 365.56 298.951C365.881 299.033 366.169 299.156 366.416 299.321C366.663 299.486 366.853 299.7 366.993 299.955C367.132 300.21 367.207 300.523 367.207 300.877C367.207 301.116 367.157 301.338 367.067 301.552C366.976 301.766 366.853 301.956 366.704 302.128C366.556 302.301 366.392 302.45 366.202 302.573C366.013 302.696 365.824 302.787 365.626 302.845C365.931 302.886 366.202 302.96 366.441 303.067C366.68 303.174 366.886 303.314 367.05 303.495C367.215 303.676 367.338 303.882 367.429 304.137C367.519 304.392 367.561 304.681 367.561 305.002C367.561 305.52 367.478 305.957 367.322 306.319C367.166 306.681 366.943 306.969 366.655 307.191C366.367 307.414 366.038 307.578 365.651 307.677C365.264 307.776 364.844 307.825 364.391 307.825C364.103 307.825 363.831 307.792 363.568 307.735C363.304 307.677 363.057 307.603 362.835 307.521C362.613 307.438 362.415 307.356 362.251 307.266C362.086 307.175 361.954 307.109 361.864 307.052L362.58 305.866C362.58 305.866 362.662 305.924 362.728 305.973C362.794 306.022 362.885 306.072 362.983 306.129C363.082 306.187 363.189 306.245 363.313 306.302C363.436 306.36 363.56 306.418 363.691 306.467C363.823 306.516 363.955 306.558 364.095 306.59C364.235 306.623 364.366 306.64 364.498 306.64C364.934 306.64 365.28 306.508 365.535 306.253C365.791 305.998 365.922 305.611 365.922 305.1C365.922 304.779 365.873 304.516 365.782 304.302C365.692 304.088 365.544 303.923 365.346 303.808C365.148 303.693 364.885 303.602 364.572 303.553C364.259 303.503 363.881 303.479 363.436 303.47L363.452 302.499V302.507Z" fill="#FF4C91"/>
<path d="M228.487 149.776C228.874 149.776 229.203 149.743 229.475 149.669C229.747 149.595 229.969 149.504 230.142 149.372C230.315 149.241 230.438 149.092 230.52 148.911C230.603 148.73 230.636 148.524 230.636 148.302C230.636 147.981 230.545 147.734 230.372 147.553C230.199 147.372 229.911 147.273 229.516 147.273C229.302 147.273 229.113 147.298 228.94 147.339C228.767 147.38 228.61 147.438 228.47 147.503C228.331 147.569 228.199 147.643 228.084 147.726C227.968 147.808 227.861 147.882 227.763 147.948L227.104 146.886C227.227 146.787 227.384 146.688 227.557 146.598C227.73 146.507 227.919 146.417 228.133 146.343C228.347 146.269 228.561 146.211 228.8 146.162C229.039 146.112 229.286 146.096 229.549 146.096C229.919 146.096 230.273 146.137 230.595 146.219C230.916 146.302 231.204 146.425 231.451 146.59C231.698 146.754 231.887 146.968 232.027 147.224C232.167 147.479 232.241 147.792 232.241 148.146C232.241 148.384 232.192 148.607 232.101 148.821C232.011 149.035 231.887 149.224 231.739 149.397C231.591 149.57 231.426 149.718 231.237 149.842C231.047 149.965 230.858 150.056 230.66 150.113C230.965 150.154 231.237 150.228 231.476 150.335C231.714 150.443 231.92 150.582 232.085 150.764C232.249 150.945 232.373 151.151 232.463 151.406C232.554 151.661 232.595 151.949 232.595 152.27C232.595 152.789 232.513 153.225 232.356 153.587C232.2 153.95 231.978 154.238 231.69 154.46C231.401 154.682 231.072 154.847 230.685 154.946C230.298 155.045 229.878 155.094 229.426 155.094C229.137 155.094 228.866 155.061 228.602 155.003C228.339 154.946 228.092 154.872 227.87 154.789C227.647 154.707 227.45 154.625 227.285 154.534C227.12 154.444 226.989 154.378 226.898 154.32L227.614 153.135C227.614 153.135 227.697 153.192 227.763 153.242C227.828 153.291 227.919 153.34 228.018 153.398C228.116 153.456 228.224 153.513 228.347 153.571C228.471 153.629 228.594 153.686 228.726 153.736C228.857 153.785 228.989 153.826 229.129 153.859C229.269 153.892 229.401 153.908 229.533 153.908C229.969 153.908 230.315 153.777 230.57 153.522C230.825 153.266 230.957 152.879 230.957 152.369C230.957 152.048 230.907 151.784 230.817 151.57C230.726 151.356 230.578 151.192 230.381 151.076C230.183 150.961 229.92 150.871 229.607 150.821C229.294 150.772 228.915 150.747 228.47 150.739L228.487 149.767V149.776Z" fill="#FF4C91"/>
<path d="M316.683 300.597C316.502 300.498 316.288 300.408 316.049 300.325C315.81 300.243 315.531 300.21 315.226 300.21C314.946 300.21 314.699 300.268 314.485 300.391C314.271 300.515 314.09 300.679 313.933 300.893C313.777 301.107 313.653 301.379 313.555 301.692C313.456 302.005 313.39 302.35 313.341 302.746C313.431 302.655 313.546 302.573 313.678 302.499C313.81 302.425 313.958 302.359 314.106 302.309C314.254 302.26 314.419 302.219 314.584 302.186C314.748 302.153 314.913 302.145 315.069 302.145C315.473 302.145 315.827 302.202 316.14 302.318C316.452 302.433 316.716 302.606 316.938 302.82C317.16 303.034 317.317 303.305 317.432 303.627C317.547 303.948 317.605 304.302 317.605 304.705C317.605 305.108 317.539 305.495 317.416 305.833C317.292 306.17 317.095 306.459 316.839 306.697C316.584 306.936 316.271 307.125 315.884 307.257C315.497 307.389 315.061 307.455 314.559 307.455C314.098 307.455 313.703 307.381 313.365 307.232C313.028 307.084 312.756 306.862 312.534 306.574C312.312 306.286 312.155 305.923 312.048 305.487C311.941 305.051 311.892 304.549 311.892 303.981C311.892 303.207 311.958 302.515 312.081 301.906C312.204 301.297 312.41 300.795 312.69 300.383C312.97 299.971 313.332 299.658 313.769 299.444C314.205 299.23 314.757 299.123 315.391 299.123C315.522 299.123 315.67 299.132 315.827 299.148C315.983 299.164 316.14 299.189 316.296 299.23C316.452 299.271 316.609 299.313 316.757 299.362C316.905 299.411 317.045 299.477 317.16 299.543L316.675 300.605L316.683 300.597ZM316.164 304.73C316.164 304.499 316.132 304.293 316.074 304.104C316.016 303.915 315.917 303.758 315.794 303.618C315.67 303.478 315.522 303.38 315.341 303.305C315.16 303.231 314.954 303.198 314.715 303.198C314.559 303.198 314.419 303.207 314.296 303.223C314.172 303.24 314.057 303.273 313.958 303.305C313.859 303.338 313.76 303.388 313.67 303.445C313.579 303.503 313.497 303.569 313.415 303.643C313.398 303.684 313.382 303.734 313.365 303.783C313.349 303.832 313.341 303.89 313.341 303.948C313.341 304.005 313.332 304.063 313.324 304.112C313.316 304.162 313.324 304.211 313.324 304.244C313.324 304.623 313.365 304.944 313.439 305.207C313.513 305.471 313.612 305.685 313.736 305.858C313.859 306.03 314.007 306.146 314.172 306.228C314.337 306.31 314.51 306.343 314.691 306.343C314.888 306.343 315.078 306.31 315.251 306.244C315.424 306.179 315.588 306.072 315.72 305.94C315.851 305.808 315.959 305.635 316.041 305.429C316.123 305.224 316.156 304.985 316.156 304.721L316.164 304.73Z" fill="#FF4C91"/>
<path d="M231.681 198.513C231.5 198.414 231.286 198.323 231.047 198.241C230.809 198.159 230.529 198.126 230.224 198.126C229.944 198.126 229.697 198.183 229.483 198.307C229.269 198.43 229.088 198.595 228.932 198.809C228.775 199.023 228.652 199.295 228.553 199.608C228.454 199.92 228.388 200.266 228.339 200.661C228.429 200.571 228.545 200.489 228.676 200.414C228.808 200.34 228.956 200.274 229.104 200.225C229.253 200.176 229.417 200.135 229.582 200.102C229.747 200.069 229.911 200.06 230.068 200.06C230.471 200.06 230.825 200.118 231.138 200.233C231.451 200.349 231.714 200.521 231.936 200.735C232.159 200.95 232.315 201.221 232.43 201.542C232.546 201.863 232.603 202.217 232.603 202.621C232.603 203.024 232.537 203.411 232.414 203.749C232.29 204.086 232.093 204.374 231.838 204.613C231.582 204.852 231.27 205.041 230.883 205.173C230.496 205.305 230.059 205.37 229.557 205.37C229.096 205.37 228.701 205.296 228.364 205.148C228.026 205 227.754 204.778 227.532 204.49C227.31 204.201 227.153 203.839 227.046 203.403C226.939 202.967 226.89 202.464 226.89 201.896C226.89 201.122 226.956 200.431 227.079 199.822C227.203 199.212 227.409 198.71 227.688 198.299C227.968 197.887 228.331 197.574 228.767 197.36C229.203 197.146 229.755 197.039 230.389 197.039C230.52 197.039 230.669 197.047 230.825 197.064C230.982 197.08 231.138 197.105 231.294 197.146C231.451 197.187 231.607 197.228 231.755 197.278C231.903 197.327 232.043 197.393 232.159 197.459L231.673 198.521L231.681 198.513ZM231.171 202.645C231.171 202.415 231.138 202.209 231.08 202.02C231.023 201.83 230.924 201.674 230.8 201.534C230.677 201.394 230.529 201.295 230.348 201.221C230.166 201.147 229.961 201.114 229.722 201.114C229.565 201.114 229.425 201.122 229.302 201.139C229.178 201.155 229.063 201.188 228.965 201.221C228.866 201.254 228.767 201.304 228.676 201.361C228.586 201.419 228.503 201.485 228.421 201.559C228.405 201.6 228.388 201.649 228.372 201.699C228.355 201.748 228.347 201.806 228.347 201.863C228.347 201.921 228.339 201.979 228.331 202.028C228.322 202.077 228.331 202.127 228.331 202.16C228.331 202.538 228.372 202.86 228.446 203.123C228.52 203.386 228.619 203.6 228.742 203.773C228.866 203.946 229.014 204.061 229.179 204.144C229.343 204.226 229.516 204.259 229.697 204.259C229.895 204.259 230.084 204.226 230.257 204.16C230.43 204.094 230.594 203.987 230.726 203.856C230.858 203.724 230.965 203.551 231.047 203.345C231.13 203.139 231.163 202.901 231.163 202.637L231.171 202.645Z" fill="#FF4C91"/>
<path d="M58.377 247.497C90.4997 247.497 116.54 221.456 116.54 189.333C116.54 157.211 90.4997 131.17 58.377 131.17C26.2543 131.17 0.213554 157.211 0.213554 189.333C0.213554 221.456 26.2543 247.497 58.377 247.497Z" fill="#FF4C91"/>
<path d="M58.377 189.333V71.9036C58.377 71.9036 -4.10035 120.657 0.213539 189.333H58.377Z" fill="#FF4C91"/>
<path d="M58.3768 189.333V71.9036C58.3768 71.9036 120.854 120.657 116.54 189.333H58.3768Z" fill="#FF4C91"/>
</svg>
