<svg width="477" height="1301" viewBox="0 0 477 1301" fill="none" xmlns="http://www.w3.org/2000/svg">
<path d="M274 299H226V1301H274V299Z" fill="#4857F6"/>
<path d="M46.2375 515.557C44.6733 512.272 43.8583 508.328 42.895 504.517C41.5861 499.347 39.7173 495.337 35.6504 494.382C33.6087 493.905 31.8304 492.225 29.9287 491.089C28.2492 485.252 24.2729 484.042 20.7905 481.754C18.7653 480.42 17.2258 483.351 15.4311 483.836C12.1627 483.285 9.08373 482.182 6.67158 479.004C6.18586 481.185 7.63479 482.429 7.536 484.487C5.41198 485.335 4.45702 482.379 2.61291 482.511C0.612391 481.268 -0.770717 478.148 0.472406 475.563C1.73199 472.936 4.80278 473.076 6.41637 474.542C10.1787 477.958 14.4596 478.189 18.9958 477.613C19.5803 476.09 17.5386 476.312 18.4113 474.641C19.1687 473.192 19.6873 474.525 20.3213 474.558C20.9058 474.583 21.5397 474.501 22.1242 474.204C26.1252 472.195 29.3771 473.891 32.4973 476.279C34.3414 479.877 35.8809 484.067 39.7502 483.631C40.2524 484.125 40.1618 487.294 41.512 483.968C42.3023 482.025 41.9401 479.671 43.249 477.934C43.5536 477.53 43.6607 475.958 43.6771 475.958C46.6162 476.345 48.5014 471.595 51.1606 470.747C48.7813 475.505 51.4816 476.946 52.7577 479.259C55.8477 484.857 59.2642 484.144 63.0073 477.119C63.987 477.456 65.3207 476.979 65.5018 479.169C63.9705 483.96 60.5046 486.71 58.9569 491.493C60.5787 493.403 63.3119 491.74 64.5221 494.489C63.4107 496.556 61.9041 495.831 60.3893 497.214C64.8267 502.459 67.28 509.72 71.3222 514.725C73.5944 517.541 75.9407 519.945 76.7969 524.868C77.5955 529.453 79.9582 527.189 81.9505 524.744C84.2474 527.691 81.5883 530.622 80.5427 532.623C79.4807 534.64 78.2376 532.368 77.4061 531.166C75.562 528.498 74.3848 524.366 70.8036 525.716C70.4743 523.97 72.8041 522.299 71.6021 520.735C69.6757 518.232 67.6011 515.952 65.4935 513.77C64.2422 512.478 63.5342 513.663 63.353 515.853C63.0155 519.838 67.1401 526.35 70.1203 526.555C70.4002 527.864 70.1532 529.132 69.3876 530.161C65.7734 535.06 65.5265 540.691 66.1933 546.33C66.9178 552.488 67.387 558.712 66.9178 565.249C66.679 568.624 67.988 570.402 69.0994 572.493C72.5983 579.071 75.9242 585.847 77.9742 593.997C78.1882 594.837 78.287 595.676 77.9001 596.631C73.8414 596.203 73.3227 590.761 71.8409 585.575C71.0917 589.123 71.454 591.93 70.2273 594.096C68.2926 583.212 64.802 573.876 59.8295 566.014C59.7883 563.182 58.858 560.696 59.3355 557.658C62.1922 558.523 61.8218 564.154 64.3492 565.545C64.8926 564.253 65.049 563.075 64.9337 561.741C64.0117 551.764 63.4848 541.637 63.279 531.388C63.2543 530.235 63.8552 528.169 62.1346 528.803C61.509 529.033 60.8009 527.881 60.3234 529.873C59.9859 531.314 58.4629 532.59 59.7225 534.138C59.9942 534.467 60.8256 535.084 60.2658 535.34C56.9234 536.838 59.459 538.451 59.6155 539.942C60.0271 543.827 60.5622 547.705 57.582 551.031C56.2566 545.877 54.9064 540.74 53.6139 535.57C53.2846 534.253 52.4119 533.002 53.5974 531.231C54.8488 531.059 56.2483 530.853 56.3965 528.325C56.6353 524.119 58.6934 519.607 55.7708 516.018C53.0952 512.733 49.9504 509.761 48.7237 504.294C49.547 504.912 50.3785 505.538 51.2018 506.155C51.3417 506.83 51.7204 507.579 52.1156 506.921C52.6095 506.097 51.8521 506.023 51.5393 505.743C51.9756 503.265 49.6869 503.735 49.8351 501.569C51.3499 500.927 52.346 502.121 53.4163 503.051C54.8405 509.078 58.2324 512.058 61.7148 516.355C61.7971 509.423 58.1254 508.559 56.6847 504.953C57.3844 502.845 59.2532 503.735 60.0765 501.833C58.9898 499.347 56.1002 501.462 55.7791 498.062C55.5321 495.461 54.3219 495.066 52.8647 494.638C51.317 494.185 48.5755 492.917 48.9707 491.715C50.3867 487.385 47.8263 490.036 47.3983 489.179C45.9081 491.131 44.4757 490.027 43.142 489.805C42.3352 492.258 44.5827 492.168 43.9982 493.806C42.8127 497.14 42.7962 496.869 44.7227 498.219C45.8094 498.984 47.3324 498.77 47.9828 500.631C48.238 501.882 48.4932 503.125 48.7566 504.377C47.8675 504.887 47.2007 503.002 46.1552 504.467C46.8385 507.9 48.4768 510.601 48.2051 514.602C47.4806 514.338 46.8302 514.725 46.2375 515.606V515.557ZM50.3455 486.15C50.8395 481.021 48.1145 480.025 46.435 477.67C45.9576 477.003 45.1919 476.534 44.591 477.942C44.1711 478.922 44.558 479.712 45.0273 480.239C46.7891 482.223 48.5755 484.182 50.3538 486.15H50.3455Z" fill="#FF4C91"/>
<path d="M435.121 487.171C437.047 482.89 439.888 479.531 442.539 475.999C446.136 471.208 448.507 466.038 447.297 458.727C446.688 455.064 447.19 451.219 447.182 447.457C451.142 441.694 450.178 434.4 450.351 427.402C450.45 423.335 447.289 422.207 446.004 419.449C444.844 413.678 444.243 407.957 445.667 402.293C443.642 402.572 443.329 405.627 441.592 406.499C439.855 403.355 441.806 400.259 440.793 397.229C440.826 393.245 442.711 389.359 445.445 390.141C448.219 390.94 449.61 396.167 449.207 399.617C448.252 407.66 450.17 414.962 452.871 422.306C454.41 422.528 453.225 419.202 455.027 419.836C456.583 420.379 455.744 421.919 456.032 422.998C456.295 423.994 456.682 425.023 457.209 425.854C460.831 431.576 461.037 437.882 460.609 444.328C458.559 449.235 455.884 453.944 458.139 460.217C457.975 461.312 455.34 462.753 458.724 463.346C460.708 463.691 462.461 461.905 464.536 463.23C465.022 463.535 466.364 462.926 466.372 462.959C467.5 468.096 472.324 468.87 474.325 472.912C469.253 471.306 469.393 476.567 468.125 479.877C465.052 487.884 467.319 493.268 474.926 496.029C475.123 497.848 476.185 499.849 474.473 501.248C469.788 501.092 465.829 496.638 461.136 496.441C460.37 500.137 463.079 503.875 461.408 507.308C459.168 506.484 459.02 503.587 457.135 501.726C455.011 511.819 450.261 519.599 448.137 528.91C446.943 534.138 446.12 539.291 442.506 543.21C439.138 546.865 442.16 549.689 445.148 551.813C443.856 557.164 440.151 554.168 437.994 553.41C435.812 552.645 437.072 549.409 437.648 547.409C438.924 542.963 441.74 538.913 438.875 533.561C440.143 532.129 442.662 535.216 443.354 532.392C444.457 527.889 445.313 523.262 446.062 518.619C446.507 515.861 445.181 515.277 443.304 516.067C439.863 517.508 436.553 527.708 437.846 532.82C436.907 533.948 435.747 534.171 434.52 533.405C428.716 529.791 423.974 532.211 419.677 536.163C414.984 540.485 410.102 544.396 404.512 546.898C401.622 548.191 400.808 551.294 399.647 554.217C395.967 563.405 392.048 572.403 386.359 579.952C385.775 580.726 385.133 581.319 384.161 581.154C382.515 574.115 386.73 570.509 390.262 565.405C386.977 565.932 384.861 567.957 382.474 566.978C390.451 558.251 396.403 547.689 400.404 535.373C402.709 533.874 404.29 531.067 407.015 530.342C407.706 535.57 402.907 537.793 403.006 542.741C404.331 543.004 405.385 542.675 406.414 541.802C414.144 535.241 422.196 529.256 430.511 523.756C431.449 523.139 433.442 523.106 432.075 520.537C431.581 519.607 432.174 517.829 430.305 518.035C428.955 518.191 427.16 516.273 426.518 519.179C426.378 519.805 426.287 521.517 425.802 520.694C422.929 515.837 422.846 520.9 421.702 521.912C418.713 524.563 415.799 527.412 411.6 524.061C415.173 519.237 418.73 514.396 422.336 509.613C423.258 508.394 423.859 506.303 425.884 507.398C426.633 509.415 427.506 511.671 429.646 510.642C433.219 508.938 437.928 510.123 439.435 503.397C440.818 497.247 441.707 490.472 445.585 485.648C445.486 487.352 445.379 489.048 445.28 490.752C444.794 491.328 444.374 492.341 445.099 492.67C446.021 493.09 445.7 491.773 445.782 491.106C448.03 490.595 446.523 486.981 448.367 486.142C449.643 488.364 449.149 490.645 448.919 492.909C444.671 498.342 443.897 505.538 442.077 513.548C447.807 510.197 446.712 503.595 448.968 499.363C451.043 499.47 451.232 503.068 453.191 503.488C454.698 500.417 451.537 496.622 454.171 494.366C456.188 492.637 455.917 490.406 455.546 487.739C455.159 484.915 454.846 479.663 456.032 479.72C460.28 479.918 456.847 476.946 457.341 475.81C455.011 474.295 455.208 471.331 454.739 468.977C452.327 468.853 453.504 472.582 451.883 472.426C448.557 472.105 448.779 471.94 448.622 475.867C448.532 478.082 449.454 480.535 448.244 482.552C447.346 483.614 446.449 484.668 445.552 485.73C444.696 484.487 445.914 482.42 444.202 481.4C441.724 484.273 440.308 488.389 436.891 489.945C436.751 488.595 436.117 487.698 435.104 487.146L435.121 487.171ZM461.276 479.292C465.73 477.539 465.203 472.451 466.314 468.45C466.627 467.314 466.635 465.782 465.186 465.478C464.174 465.264 463.713 466.309 463.515 467.363C462.75 471.331 462.025 475.307 461.284 479.284L461.276 479.292Z" fill="#FF4C91"/>
<path d="M49.547 354.206C51.2347 350.46 53.7127 347.521 56.0343 344.434C59.1874 340.235 61.262 335.715 60.2 329.319C59.6649 326.108 60.1012 322.749 60.1012 319.464C63.5672 314.426 62.7274 308.046 62.8756 301.912C62.9579 298.356 60.2 297.368 59.0722 294.956C58.0595 289.909 57.5326 284.896 58.7757 279.94C56.9975 280.187 56.7259 282.862 55.2111 283.62C53.688 280.87 55.4004 278.161 54.5113 275.51C54.5442 272.028 56.1907 268.62 58.5782 269.311C61.0068 270.011 62.2252 274.58 61.8712 277.602C61.0397 284.64 62.711 291.029 65.0819 297.45C66.4239 297.64 65.3865 294.734 66.9672 295.285C68.3338 295.763 67.5929 297.105 67.8481 298.051C68.0786 298.924 68.4161 299.821 68.8772 300.554C72.0467 305.559 72.2278 311.083 71.8491 316.723C70.0544 321.012 67.7081 325.137 69.6922 330.628C69.5522 331.583 67.2389 332.851 70.2026 333.361C71.9397 333.666 73.4709 332.101 75.2903 333.262C75.7102 333.534 76.8875 332.999 76.8957 333.032C77.8836 337.527 82.0987 338.202 83.8605 341.742C79.4231 340.334 79.5466 344.944 78.4352 347.834C75.7459 354.837 77.73 359.549 84.3874 361.969C84.5603 363.558 85.4823 365.312 83.9922 366.53C79.8924 366.39 76.4265 362.496 72.3266 362.323C71.6516 365.559 74.0225 368.827 72.5654 371.832C70.606 371.107 70.4743 368.572 68.8278 366.95C66.9754 375.784 62.8097 382.592 60.9574 390.734C59.9119 395.311 59.1956 399.815 56.0343 403.248C53.087 406.45 55.7297 408.92 58.3394 410.772C57.2116 415.456 53.9679 412.83 52.0744 412.172C50.1645 411.505 51.2676 408.673 51.7698 406.919C52.8894 403.033 55.351 399.485 52.8401 394.809C53.9515 393.55 56.1578 396.25 56.7588 393.788C57.722 389.845 58.4711 385.803 59.1297 381.736C59.5249 379.324 58.3641 378.813 56.7176 379.505C53.7127 380.764 50.8066 389.688 51.9427 394.167C51.1194 395.155 50.0986 395.344 49.0366 394.677C43.9571 391.516 39.8161 393.632 36.0455 397.089C31.9375 400.868 27.6647 404.293 22.7746 406.483C20.2472 407.611 19.5392 410.328 18.5101 412.888C15.2911 420.931 11.8582 428.801 6.88566 435.404C6.37524 436.079 5.81541 436.606 4.96745 436.458C3.52675 430.3 7.21494 427.139 10.3022 422.685C7.42899 423.146 5.57668 424.916 3.4856 424.059C10.4668 416.42 15.6698 407.183 19.1769 396.406C21.1939 395.097 22.577 392.644 24.9644 392.002C25.5736 396.579 21.3751 398.522 21.4574 402.852C22.6182 403.083 23.5402 402.795 24.4376 402.029C31.2048 396.283 38.2519 391.055 45.5213 386.239C46.3445 385.696 48.0816 385.671 46.8879 383.415C46.4515 382.6 46.9784 381.044 45.3401 381.225C44.1546 381.357 42.5905 379.686 42.0224 382.221C41.8989 382.765 41.8248 384.263 41.3967 383.547C38.8858 379.299 38.8117 383.728 37.8156 384.617C35.2058 386.939 32.6455 389.425 28.9819 386.502C32.1103 382.279 35.2223 378.047 38.3754 373.857C39.1822 372.787 39.709 370.959 41.4873 371.922C42.1459 373.684 42.9033 375.66 44.7803 374.763C47.9005 373.273 52.025 374.31 53.3505 368.424C54.5607 363.039 55.3345 357.112 58.7346 352.897C58.644 354.387 58.5535 355.877 58.4629 357.367C58.043 357.869 57.6643 358.758 58.3065 359.047C59.1133 359.409 58.8334 358.265 58.9075 357.68C60.8751 357.235 59.5579 354.074 61.1715 353.333C62.2829 355.276 61.8547 357.268 61.6489 359.252C57.936 364.003 57.261 370.301 55.6638 377.307C60.6775 374.376 59.7143 368.596 61.6901 364.892C63.5013 364.982 63.6659 368.135 65.3865 368.506C66.7038 365.822 63.9376 362.496 66.2427 360.52C68.0045 359.006 67.7658 357.063 67.4447 354.725C67.1072 352.255 66.8355 347.661 67.8646 347.71C71.5857 347.883 68.5808 345.282 69.0089 344.286C66.9672 342.96 67.1401 340.367 66.7285 338.301C64.6209 338.193 65.65 341.462 64.2257 341.322C61.3196 341.042 61.509 340.894 61.3773 344.335C61.3032 346.278 62.1017 348.418 61.0479 350.188C60.2659 351.119 59.4755 352.041 58.6934 352.971C57.9443 351.884 59.0145 350.073 57.5162 349.184C55.3428 351.703 54.1079 355.301 51.1194 356.659C50.9959 355.482 50.4444 354.692 49.5553 354.206H49.547ZM72.4254 347.315C76.3194 345.784 75.8666 341.33 76.8298 337.831C77.1015 336.835 77.1098 335.501 75.842 335.23C74.9611 335.049 74.5576 335.954 74.3765 336.876C73.7097 340.35 73.0676 343.833 72.4254 347.307V347.315Z" fill="#FF4C91"/>
<path d="M436.496 337.436C437.015 333.361 438.62 329.607 440.011 325.803C441.896 320.633 442.563 315.694 439.386 310.606C437.797 308.054 437.146 304.909 436.076 302.036C438.011 295.977 435.063 290.798 433.227 285.373C432.157 282.22 428.988 282.673 427.045 281.1C424.361 277.173 422.179 273.041 421.85 268.118C420.096 269.18 420.689 271.641 419.372 273.032C416.91 271.353 417.791 268.167 416.013 266.273C414.91 263.211 415.503 259.449 418.195 258.913C420.928 258.37 423.678 261.787 424.287 264.594C425.719 271.139 429.523 275.938 434.059 280.417C435.508 279.948 433.491 277.898 435.302 277.626C436.866 277.396 436.545 278.919 437.113 279.627C437.64 280.277 438.274 280.903 438.99 281.323C443.889 284.188 445.873 288.93 447.322 294.034C446.869 298.644 445.79 303.361 449.619 307.214C449.783 308.12 447.816 310.318 451.035 309.363C452.92 308.803 453.998 306.704 456.246 306.852C456.773 306.885 457.81 305.856 457.826 305.88C460.313 309.338 464.882 307.922 467.846 310.178C462.807 311.059 464.437 315.027 464.231 318.089C463.737 325.493 467.316 328.668 474.967 327.615C475.667 328.924 477.19 330.01 476.045 331.797C471.764 333.624 466.932 331.871 462.634 333.682C462.988 336.827 466.504 338.564 465.977 341.882C463.721 342.186 462.758 340.029 460.535 339.395C461.498 347.998 459.415 355.935 460.156 363.937C460.568 368.432 461.292 372.721 459.144 377.224C457.143 381.423 460.675 382.328 463.976 382.699C464.339 387.326 460.132 386.585 457.966 386.906C455.777 387.227 455.991 384.23 455.941 382.46C455.826 378.525 457.217 374.26 453.109 371.363C453.85 369.732 457.003 371.05 456.822 368.605C456.534 364.702 455.991 360.808 455.348 356.947C454.97 354.65 453.603 354.757 452.13 356.14C449.438 358.676 449.347 367.856 451.973 371.231C451.446 372.49 450.458 373.141 449.141 373.067C442.876 372.721 439.287 376.549 436.529 381.365C433.524 386.626 430.231 391.656 425.892 395.896C423.653 398.086 423.801 400.802 423.579 403.519C422.879 412.081 421.899 420.594 418.919 428.744C418.615 429.575 418.203 430.3 417.281 430.58C413.79 425.887 416.565 421.367 418.302 415.992C415.486 417.762 414.152 420.198 411.724 420.445C416.441 410.443 418.804 399.889 418.911 388.799C420.558 386.692 421.2 383.884 423.447 382.197C425.563 385.91 421.858 389.606 423.357 393.352C424.624 392.998 425.481 392.315 426.164 391.211C431.276 382.971 436.842 375.034 442.777 367.37C443.444 366.505 445.239 365.649 443.271 364.258C442.555 363.756 442.588 362.142 440.966 363.081C439.789 363.764 437.624 363.048 437.871 365.534C437.92 366.069 438.332 367.419 437.657 366.991C433.68 364.472 435.047 368.374 434.306 369.634C432.363 372.91 430.544 376.294 425.802 375.487C427.654 370.309 429.482 365.122 431.383 359.96C431.869 358.643 431.811 356.791 433.96 356.791C435.212 358.018 436.636 359.384 438.282 357.705C441.015 354.914 445.609 353.852 445.058 348.081C444.547 342.804 443.428 337.247 445.56 331.945C445.955 333.287 446.342 334.637 446.737 335.979C446.465 336.621 446.367 337.576 447.124 337.527C448.071 337.461 447.412 336.588 447.297 336.045C449.182 334.719 446.795 332.587 448.219 331.171C450.006 332.34 450.203 334.291 450.639 336.119C448.351 342.046 449.701 347.867 450.343 354.757C454.566 349.81 451.693 345.216 452.525 341.034C454.426 340.252 455.62 342.927 457.514 342.433C457.999 339.453 454.064 337.872 455.801 335.049C457.127 332.883 456.246 331.295 455.159 329.409C454.007 327.409 452.228 323.523 453.315 323.07C457.209 321.448 453.257 320.609 453.381 319.53C450.845 319.341 450.178 316.994 449.083 315.389C446.869 316.295 448.993 318.666 447.486 319.226C444.391 320.37 444.547 320.148 445.527 323.218C446.079 324.947 447.602 326.446 447.091 328.487C446.581 329.673 446.07 330.858 445.568 332.044C444.44 331.451 444.959 329.36 443.115 329.294C441.691 332.529 441.592 336.267 438.949 338.877C438.439 337.905 437.607 337.477 436.537 337.477L436.496 337.436ZM457.859 320.51C461.383 317.316 459.457 313.644 459.317 310.12C459.275 309.116 458.847 307.947 457.448 308.317C456.476 308.573 456.353 309.569 456.476 310.458C456.921 313.808 457.39 317.159 457.859 320.51Z" fill="#FF4C91"/>
<path d="M97.8723 248.73C95.205 251.85 91.8049 254.105 88.5531 256.526C84.1404 259.811 80.872 263.581 80.7321 269.566C80.6662 272.571 79.4725 275.551 78.7974 278.548C73.8578 282.549 73.4792 288.493 72.0385 294.042C71.207 297.261 74.1048 298.627 74.8622 301.007C74.9528 305.765 74.5082 310.416 72.0796 314.714C74.1295 314.788 74.9857 312.401 76.8463 311.964C77.9824 314.722 75.5044 316.896 75.9489 319.456C75.1915 322.617 72.6312 325.441 70.0873 324.412C67.5022 323.366 67.0824 319.003 68.1115 316.319C70.5072 310.062 69.9556 303.962 68.6219 297.73C67.1483 297.327 67.7163 300.15 66.0533 299.377C64.6209 298.718 65.724 297.615 65.6335 296.709C65.5511 295.878 65.3618 295.005 64.9913 294.264C62.4722 289.185 63.4107 284.13 65.0078 279.067C67.9139 275.461 71.4045 272.11 70.3178 266.784C70.6718 265.936 73.5368 265.178 70.3096 264.207C68.4243 263.639 66.3744 264.808 64.5715 263.441C64.1516 263.128 62.7191 263.417 62.7191 263.384C62.538 259.127 57.9442 257.81 56.7011 254.295C61.3937 256.32 62.2087 252.105 64.0611 249.66C68.5396 243.743 67.2882 239.125 60.307 235.804C60.4387 234.331 59.7636 232.577 61.6983 231.721C66.2756 232.536 69.3629 236.661 73.9402 237.5C75.3644 234.676 73.3803 231.301 75.6443 228.815C77.6942 229.803 77.3156 232.124 78.8304 233.878C82.7491 226.156 88.8412 220.665 92.6117 213.568C94.7357 209.584 96.4811 205.599 100.746 203.014C104.722 200.602 102.269 197.91 99.7165 195.786C101.956 191.719 105.059 194.65 107.043 195.572C109.044 196.502 107.225 198.889 106.294 200.404C104.228 203.755 100.721 206.562 102.573 211.238C101.067 212.193 99.1484 209.369 97.9547 211.51C96.0529 214.927 94.3735 218.483 92.7928 222.072C91.8543 224.196 93.0481 224.863 95.0404 224.509C98.6874 223.867 103.792 216.235 103.454 211.979C104.582 211.214 105.767 211.214 106.829 211.996C111.876 215.725 116.98 214.498 121.928 211.979C127.329 209.23 132.836 206.834 138.797 205.665C141.876 205.064 143.234 202.709 144.913 200.561C150.199 193.785 155.69 187.207 162.655 182.037C163.371 181.51 164.112 181.123 165.034 181.403C165.371 187.24 160.572 189.496 156.176 193.036C159.502 193.102 161.955 191.801 164.12 192.929C154.686 198.7 146.922 206.233 140.748 215.437C138.212 216.293 136.146 218.285 133.33 218.466C133.594 214.202 138.723 213.14 139.521 209.188C138.27 208.785 137.175 208.892 135.998 209.435C127.197 213.519 118.199 217.1 109.019 220.253C107.982 220.607 106.023 220.335 106.895 222.591C107.216 223.406 106.303 224.731 108.18 224.839C109.538 224.913 110.954 226.699 112.115 224.485C112.362 224.007 112.765 222.657 113.094 223.39C115.037 227.679 116.033 223.661 117.342 223.019C120.759 221.348 124.151 219.512 127.666 222.789C123.278 226.098 118.898 229.432 114.478 232.709C113.35 233.549 112.378 235.121 110.583 233.952C110.205 232.24 109.768 230.313 107.472 230.815C103.652 231.647 99.2307 230.009 96.5305 235.146C94.0607 239.838 91.9531 245.099 87.2523 248.367C87.6639 247.025 88.0755 245.692 88.4789 244.35C89.0552 243.963 89.6644 243.214 89.0058 242.851C88.1743 242.382 88.2484 243.477 88.0508 243.996C85.7457 244.07 86.5772 247.165 84.6014 247.569C83.7534 245.609 84.6508 243.872 85.2929 242.102C90.4548 238.406 92.5211 232.791 95.7648 226.691C89.5245 228.518 89.401 233.927 86.4125 236.965C84.3956 236.578 84.8648 233.689 83.0042 233.063C80.9626 235.286 83.3829 238.768 80.3863 240.176C78.0894 241.254 77.9494 243.066 77.826 245.247C77.6942 247.552 77.0439 251.776 75.8913 251.562C71.7503 250.78 74.5823 253.653 73.899 254.484C75.916 256.032 75.1833 258.362 75.2162 260.305C77.5625 260.757 77.085 257.613 78.6575 257.975C81.8682 258.716 81.6212 258.814 82.4856 255.719C82.9796 253.965 82.5186 251.883 84.0745 250.458C85.153 249.75 86.2232 249.034 87.3017 248.326C87.9191 249.438 86.3384 250.903 87.845 251.965C90.8088 250.039 92.941 246.976 96.588 246.243C96.481 247.338 96.9421 248.145 97.8394 248.738L97.8723 248.73ZM70.7294 251.158C66.0369 251.899 65.6253 256.024 63.8059 259.045C63.2872 259.901 63.0073 261.12 64.3739 261.572C65.3289 261.885 65.971 261.128 66.3662 260.321C67.8398 257.275 69.2723 254.221 70.7294 251.166V251.158Z" fill="#FF4C91"/>
<path d="M326.014 39.4239C321.923 39.745 317.922 38.9382 313.904 38.3455C308.462 37.5469 303.49 37.9009 299.151 42.0419C296.978 44.1165 294.031 45.3926 291.429 47.0226C285.106 46.3558 280.636 50.291 275.697 53.1971C272.832 54.8848 273.918 57.8979 272.766 60.1207C269.465 63.5537 265.867 66.5257 261.108 67.8429C262.5 69.3412 264.797 68.2628 266.427 69.2754C265.282 72.0251 261.989 71.811 260.491 73.9433C257.717 75.6474 253.913 75.8285 252.843 73.3011C251.756 70.7408 254.539 67.3572 257.165 66.1799C263.282 63.4467 267.209 58.7459 270.675 53.3947C269.917 52.0693 268.32 54.4649 267.695 52.7443C267.151 51.2624 268.707 51.2707 269.283 50.5627C269.81 49.9205 270.296 49.1631 270.559 48.381C272.371 43.0051 276.61 40.099 281.319 37.6457C285.922 37.1518 290.762 37.2506 293.759 32.7144C294.607 32.3686 297.167 33.8505 295.57 30.8867C294.64 29.1497 292.368 28.524 292.055 26.2929C291.981 25.7743 290.762 24.9675 290.787 24.9428C293.668 21.8062 291.355 17.624 292.96 14.2651C294.854 19.0153 298.402 16.6114 301.44 16.1916C308.789 15.1707 311.171 11.0215 308.586 3.74387C309.722 2.79712 310.479 1.08474 312.455 1.84214C315.114 5.66207 314.382 10.758 317.024 14.5862C320.029 13.5983 321.017 9.80305 324.368 9.64663C325.125 11.7953 323.207 13.1702 323.034 15.4835C331.267 12.7915 339.45 13.2196 347.139 10.8733C351.453 9.55607 355.503 7.97539 360.352 9.16089C364.872 10.2641 365.037 6.62527 364.732 3.31576C369.194 2.02324 369.318 6.28772 370.067 8.34587C370.824 10.4205 367.844 10.8239 366.124 11.2273C362.295 12.1329 357.833 11.6389 355.833 16.2574C354.087 15.8622 354.73 12.5116 352.375 13.1866C348.613 14.2569 344.908 15.5906 341.253 16.9983C339.079 17.8381 339.458 19.1553 341.121 20.3161C344.151 22.4401 353.157 20.6618 355.923 17.4017C357.257 17.6652 358.097 18.4967 358.294 19.8056C359.225 26.013 363.703 28.7545 368.98 30.4669C374.743 32.3439 380.333 34.542 385.371 37.9256C387.973 39.6791 390.599 38.9711 393.308 38.6418C401.837 37.5881 410.374 36.8224 418.952 38.082C419.833 38.2137 420.623 38.469 421.084 39.3169C417.199 43.6884 412.21 41.8855 406.595 41.2845C408.9 43.6802 411.551 44.4952 412.292 46.825C401.54 44.24 390.723 44.0671 379.847 46.2158C377.452 45.0303 374.57 44.9727 372.463 43.1121C375.665 40.2884 380.037 43.1616 383.404 40.9305C382.803 39.7615 381.955 39.0617 380.745 38.6172C371.631 35.283 362.74 31.4466 354.022 27.1903C353.042 26.7128 351.84 25.1322 350.869 27.3385C350.515 28.1371 348.934 28.4334 350.185 29.833C351.091 30.8456 350.827 33.1095 353.215 32.3686C353.725 32.2122 354.968 31.5371 354.68 32.2863C353.025 36.6907 356.565 34.5585 357.949 35.0278C361.546 36.2627 365.243 37.3576 365.407 42.1654C359.957 41.3998 354.507 40.6671 349.066 39.8603C347.674 39.6545 345.88 40.0826 345.435 37.9832C346.382 36.5096 347.427 34.8384 345.451 33.5706C342.158 31.463 340.191 27.1738 334.65 28.8945C329.579 30.4669 324.376 32.6897 318.745 31.6853C319.98 31.0267 321.215 30.3681 322.458 29.7095C323.141 29.8412 324.096 29.7424 323.89 29.0179C323.635 28.1041 322.911 28.9274 322.408 29.1497C320.729 27.569 319.124 30.3434 317.444 29.2402C318.226 27.2562 320.095 26.6634 321.799 25.8649C328.064 26.9022 333.498 24.3912 340.109 22.3743C334.403 19.2459 330.493 22.9917 326.228 23.0246C325.076 21.3205 327.447 19.6081 326.582 17.8545C323.569 17.9862 322.812 22.152 319.7 21.0323C317.312 20.1761 315.938 21.3534 314.308 22.8106C312.587 24.3418 309.137 26.8775 308.479 25.906C306.1 22.4236 306.075 26.4576 305.005 26.5646C305.334 29.0838 303.169 30.2117 301.819 31.6112C303.161 33.5953 305.046 31.0267 305.894 32.4016C307.639 35.2006 307.392 35.0936 310.199 33.5129C311.78 32.6238 312.933 30.8291 315.04 30.9115C316.3 31.1667 317.568 31.4301 318.827 31.6853C318.473 32.9038 316.325 32.8296 316.637 34.6408C320.095 35.3735 323.775 34.7149 326.862 36.7731C326.014 37.4728 325.767 38.3702 325.981 39.4239H326.014ZM305.103 21.9461C301.259 19.1471 298.056 21.7733 294.632 22.6295C293.66 22.8764 292.598 23.5268 293.249 24.8193C293.701 25.7167 294.697 25.6343 295.545 25.338C298.74 24.2266 301.917 23.0822 305.103 21.9461Z" fill="#FF4C91"/>
<path d="M393.439 235.203C390.319 232.536 388.063 229.136 385.643 225.884C382.358 221.471 378.588 218.203 372.603 218.063C369.598 217.997 366.617 216.804 363.621 216.129C359.62 211.189 353.676 210.81 348.127 209.37C344.908 208.538 343.541 211.436 341.162 212.193C336.404 212.284 331.752 211.839 327.455 209.411C327.381 211.461 329.768 212.317 330.205 214.177C327.447 215.313 325.273 212.835 322.713 213.28C319.552 212.523 316.728 209.962 317.757 207.418C318.802 204.833 323.166 204.414 325.85 205.443C332.106 207.838 338.207 207.287 344.439 205.953C344.842 204.479 342.018 205.047 342.792 203.384C343.451 201.952 344.554 203.055 345.46 202.965C346.291 202.882 347.164 202.693 347.905 202.322C352.984 199.803 358.039 200.742 363.102 202.339C366.708 205.245 370.059 208.736 375.385 207.649C376.233 208.003 376.991 210.868 377.962 207.641C378.53 205.755 377.361 203.705 378.728 201.903C379.04 201.483 378.752 200.05 378.785 200.05C383.041 199.869 384.359 195.275 387.874 194.032C385.849 198.725 390.064 199.54 392.509 201.392C398.425 205.871 403.044 204.619 406.364 197.638C407.838 197.77 409.592 197.095 410.448 199.029C409.633 203.607 405.508 206.694 404.669 211.271C407.492 212.695 410.868 210.711 413.354 212.975C412.366 215.025 410.044 214.647 408.291 216.161C416.013 220.08 421.504 226.172 428.601 229.943C432.585 232.067 436.57 233.812 439.155 238.077C441.567 242.053 444.259 239.6 446.383 237.048C450.45 239.287 447.519 242.39 446.597 244.375C445.667 246.375 443.279 244.556 441.765 243.625C438.414 241.559 435.607 238.052 430.931 239.904C429.976 238.398 432.799 236.48 430.659 235.286C427.242 233.384 423.686 231.705 420.096 230.124C417.972 229.185 417.306 230.379 417.66 232.371C418.302 236.018 425.933 241.123 430.19 240.785C430.955 241.913 430.955 243.099 430.173 244.161C426.444 249.207 427.67 254.311 430.19 259.259C432.939 264.66 435.335 270.167 436.504 276.128C437.105 279.207 439.46 280.565 441.608 282.244C448.384 287.53 454.962 293.021 460.132 299.986C460.658 300.702 461.045 301.443 460.766 302.365C454.929 302.703 452.673 297.903 449.133 293.507C449.067 296.833 450.368 299.286 449.24 301.451C443.469 292.017 435.936 284.253 426.732 278.079C425.876 275.543 423.883 273.477 423.702 270.661C427.967 270.925 429.029 276.054 432.98 276.852C433.384 275.601 433.277 274.506 432.733 273.329C428.65 264.528 425.069 255.53 421.916 246.35C421.562 245.313 421.834 243.354 419.578 244.226C418.763 244.547 417.437 243.634 417.33 245.511C417.256 246.869 415.47 248.285 417.684 249.446C418.162 249.693 419.512 250.096 418.779 250.426C414.49 252.368 418.508 253.365 419.15 254.674C420.821 258.09 422.657 261.482 419.38 264.997C416.071 260.609 412.736 256.229 409.46 251.809C408.62 250.681 407.048 249.709 408.217 247.915C409.929 247.536 411.856 247.1 411.353 244.803C410.522 240.983 412.16 236.562 407.023 233.862C402.33 231.392 397.07 229.284 393.802 224.583C395.143 224.995 396.477 225.407 397.819 225.81C398.206 226.386 398.955 226.996 399.317 226.337C399.787 225.505 398.692 225.58 398.173 225.382C398.099 223.077 395.004 223.908 394.6 221.933C396.559 221.085 398.297 221.982 400.067 222.624C403.763 227.786 409.378 229.852 415.478 233.096C413.65 226.856 408.242 226.732 405.204 223.744C405.591 221.727 408.48 222.196 409.106 220.335C406.883 218.294 403.401 220.714 401.993 217.717C400.914 215.421 399.103 215.281 396.922 215.157C394.617 215.025 390.393 214.375 390.607 213.222C391.389 209.081 388.516 211.913 387.685 211.23C386.137 213.247 383.807 212.514 381.864 212.547C381.412 214.894 384.556 214.416 384.194 215.989C383.453 219.199 383.354 218.952 386.45 219.817C388.203 220.311 390.286 219.85 391.71 221.406C392.418 222.484 393.135 223.554 393.843 224.633C392.731 225.25 391.266 223.67 390.204 225.176C392.13 228.14 395.193 230.272 395.926 233.919C394.831 233.812 394.024 234.273 393.431 235.171L393.439 235.203ZM391.011 208.052C390.27 203.36 386.145 202.948 383.124 201.129C382.268 200.61 381.049 200.33 380.596 201.697C380.284 202.652 381.041 203.294 381.848 203.689C384.894 205.163 387.948 206.595 391.002 208.052H391.011Z" fill="#FF4C91"/>
<path d="M133.388 84.2338C131.305 85.6169 128.687 84.2833 126.448 85.8063C125.427 86.4978 124.266 84.5138 123.591 83.3859C122.858 82.1592 124.019 81.797 124.842 81.3195C128.382 79.2531 131.544 76.5775 135.38 74.9639C137.916 73.9019 139.554 72.42 137.06 69.5222C136.063 68.3614 135.685 66.6737 134.73 64.5991C140.394 68.913 145.226 67.9909 149.96 63.9734C154.949 59.7336 160.127 55.7244 165.166 51.5422C166.491 50.439 167.775 49.1218 169.315 50.8671C170.723 52.4642 169.759 54.0119 168.426 55.1151C163.593 59.1079 158.703 63.0184 153.813 66.9454C153.072 67.5381 151.961 67.9992 151.977 68.9871C152.002 70.4525 153.558 70.222 154.471 70.5842C156.628 71.4404 158.859 72.1072 161.049 72.8893C162.177 73.2927 163.832 73.5562 163.684 75.0051C163.519 76.6599 161.675 76.8656 160.424 76.8162C157.995 76.7257 155.566 76.2894 153.171 75.853C151.977 75.6308 150.857 75.0133 149.664 74.7169C147.91 74.2806 145.811 72.5518 144.436 74.6675C142.929 76.9809 144.93 78.8415 146.494 80.2493C154.389 87.354 162.399 94.1623 172.344 98.5833C177.309 100.79 181.903 102.28 187.237 101.407C188.373 101.218 189.616 100.592 190.769 101.531C191.082 102.889 189.575 102.815 189.18 103.589C188.225 105.416 188.077 106.725 190.654 107.458C194.976 108.693 199.216 110.232 203.455 111.755C205.193 112.381 207.679 113.031 206.469 115.584C205.497 117.634 203.373 117.205 201.422 116.448C195.19 114.028 189.353 110.669 182.923 108.751C179.342 104.165 174.567 102.156 168.829 102.214C163.256 97.6942 156.019 95.9406 150.569 91.2151C149.54 90.3178 148.626 90.3259 147.984 91.6843C143.25 89.1487 137.677 88.0867 134.26 83.213C133.363 81.9369 133.33 83.5341 133.404 84.2503L133.388 84.2338Z" fill="#FF4C91"/>
<path d="M213.203 195.119C210.643 195.391 208.049 195.465 205.547 196.008C203.604 196.428 201.208 196.313 200.591 199.293C200.434 200.059 198.343 200.734 197.075 200.898C194.861 201.187 192.737 201.162 191.222 203.319C190.53 204.307 189.221 204.595 188.126 203.269C186.052 200.75 184.15 201.549 181.861 203.335C178.453 205.994 175.012 209.287 171.044 210.399C164.672 212.177 158.646 214.968 152.175 216.359C151.228 216.565 149.507 216.228 149.968 217.816C150.413 219.356 151.788 218.137 152.767 217.998C156.703 217.446 160.366 214.869 164.631 216.664C165.94 217.215 166.071 216.903 165.775 220.056C165.289 220.286 164.795 220.517 164.31 220.747C158.613 217.709 153.904 218.467 149.581 222.921C148.709 223.818 147.079 225.514 146.198 224.337C144.971 222.682 144.477 220.434 145.103 218.014C146.931 210.893 153.813 209.699 158.555 205.961C165.857 200.199 175.028 197.622 182.257 191.777C182.454 191.612 182.841 191.349 182.899 191.398C186.645 194.782 192.473 189.628 196.137 194.609C196.573 195.201 200.41 195.333 202.888 194.279C206.016 192.946 209.597 192.682 212.997 192.015C213.335 191.949 213.746 192.295 214.125 192.452C214.207 192.567 214.298 192.682 214.38 192.806C213.993 193.58 213.606 194.353 213.211 195.127L213.203 195.119ZM175.621 203.706C172.032 202.907 169.554 204.01 167.356 205.632C166.615 206.175 164.433 206.324 165.586 208.036C166.359 209.189 167.808 209.378 169.224 208.514C171.39 207.196 173.505 205.854 175.621 203.706Z" fill="#FF4C91"/>
<path d="M364.296 219.101C362.295 217.487 360.402 215.701 358.253 214.317C356.59 213.239 354.968 211.461 352.424 213.132C351.766 213.56 349.815 212.564 348.802 211.782C347.032 210.423 345.55 208.9 342.949 209.353C341.763 209.559 340.627 208.843 340.792 207.122C341.105 203.878 339.195 203.096 336.313 202.742C332.024 202.207 327.257 202.108 323.676 200.092C317.913 196.848 311.673 194.551 306.116 190.962C305.309 190.435 304.321 188.986 303.523 190.435C302.749 191.834 304.585 191.949 305.375 192.542C308.545 194.938 312.966 195.704 314.711 199.984C315.246 201.302 315.567 201.17 313.122 203.187C312.612 203.006 312.101 202.816 311.599 202.635C309.722 196.461 305.853 193.67 299.645 193.761C298.394 193.777 296.039 193.818 296.253 192.369C296.55 190.336 297.801 188.393 299.95 187.117C306.273 183.371 311.986 187.397 317.979 188.105C327.216 189.2 335.523 193.851 344.768 194.831C345.023 194.856 345.484 194.946 345.493 195.02C345.748 200.067 353.511 200.536 352.581 206.645C352.474 207.377 355.092 210.176 357.586 211.181C360.739 212.449 363.464 214.803 366.338 216.73C366.617 216.919 366.675 217.454 366.832 217.833C366.807 217.973 366.79 218.121 366.766 218.261C365.942 218.532 365.119 218.804 364.296 219.084V219.101ZM331.645 198.601C329.67 195.498 327.142 194.526 324.442 194.123C323.536 193.983 321.882 192.542 321.486 194.567C321.223 195.934 322.112 197.087 323.717 197.473C326.179 198.074 328.624 198.626 331.645 198.601Z" fill="#FF4C91"/>
<path d="M78.7728 439.841C72.6065 443.801 71.6104 446.378 74.7141 456.652C77.6037 466.227 80.1311 475.941 84.1898 485.154C84.9554 486.899 84.4697 489.188 84.5767 491.509C81.366 491.32 80.5016 488.825 80.4522 486.767C80.3369 482.182 76.1466 479.539 75.5785 475.25C75.3727 473.686 74.0555 473.332 72.6641 474.015C70.9353 474.855 71.7421 476.155 72.2855 477.226C75.1422 482.906 77.7025 488.718 79.5466 494.819C70.606 487.623 62.925 479.407 58.5288 468.581C57.1951 465.288 55.9438 463.024 52.4861 466.844C51.4735 467.964 49.6952 467.61 48.4767 466.367C48.6743 464.646 48.8637 462.926 49.0613 461.205C50.1974 459.032 52.4037 459.756 54.182 459.328C55.5898 459.995 56.8987 462.069 58.5453 459.649C59.9942 458.694 61.4431 457.747 62.892 456.792C64.7197 460.579 66.5391 464.366 68.3832 468.153C68.8936 469.207 68.943 470.994 70.6883 470.524C72.1126 470.146 73.3886 469.1 73.2487 467.314C73.1005 465.412 72.87 463.51 72.5571 461.633C70.6307 450.033 64.9173 439.298 64.802 427.287C64.7855 425.615 63.6248 424.628 62.4969 423.64C65.4442 420.026 67.4694 417.465 70.5648 424.224C72.4007 428.225 75.4797 431.304 74.5083 436.285C73.932 439.232 76.8298 439.265 78.7892 439.841H78.7728ZM59.2368 463.741C59.2203 464.128 59.0639 464.597 59.2368 464.794C59.4426 465.033 60.0354 465.231 60.2577 465.107C60.8504 464.745 60.9409 464.128 60.3152 463.708C60.0765 463.551 59.6237 463.724 59.245 463.741H59.2368Z" fill="#FF4C91"/>
<path d="M72.8864 598.121L71.0341 583.764C70.68 581.022 62.4804 516.125 71.3222 477.802C76.0806 457.171 71.0752 403.116 67.7575 367.353C65.5759 343.833 63.8552 325.26 64.2915 315.175C65.1642 295.129 66.786 257.81 98.9755 237.393C111.143 229.679 131.157 224.822 152.347 219.685C162.663 217.182 173.332 214.597 181.853 211.897C190.349 209.197 193.963 207.237 195.346 206.332C197.306 199.935 195.248 190.978 192.885 180.712C191.436 174.406 189.938 167.894 189.147 160.978C188.933 159.093 187.937 155.084 186.966 151.198C183.887 138.816 179.227 120.112 181.623 101.967C184.817 77.7467 199.471 60.6888 223.996 52.6208C232.459 49.8382 241.284 48.4304 250.217 48.4304C259.149 48.4304 267.974 49.8382 276.438 52.6208C300.962 60.6806 315.617 77.7467 318.811 101.967C321.206 120.112 316.555 138.816 313.476 151.198C312.513 155.076 311.508 159.093 311.294 160.978C310.504 167.894 309.006 174.414 307.557 180.72C305.202 190.978 303.144 199.935 305.095 206.332C306.478 207.237 310.092 209.197 318.588 211.897C327.101 214.597 337.77 217.191 348.094 219.685C369.285 224.822 389.306 229.679 401.466 237.393C433.656 257.802 435.277 295.129 436.15 315.175C436.586 325.26 434.866 343.833 432.684 367.353C429.366 403.124 424.353 457.179 429.119 477.81C437.961 516.133 429.762 581.03 429.408 583.772L427.555 598.13H72.8781L72.8864 598.121Z" fill="#FF4C91"/>
<path d="M419.71 315.883C418.606 290.485 415.297 265.648 392.657 251.29C370.026 236.932 297.702 230.865 290.524 214.301C283.345 197.737 292.73 178.415 294.936 159.093C296.912 141.78 322.376 85.0408 271.3 68.2546C257.634 63.7596 242.807 63.7596 229.141 68.2546C178.066 85.0491 203.521 141.788 205.505 159.093C207.712 178.415 217.097 197.737 209.918 214.301C202.739 230.865 130.424 236.932 107.784 251.29C85.153 265.648 81.8353 290.485 80.7321 315.883C79.6289 341.281 95.6413 445.621 87.3593 481.498C79.0773 517.384 87.3593 581.656 87.3593 581.656H413.074C413.074 581.656 421.356 517.384 413.074 481.498C404.792 445.612 420.805 341.272 419.701 315.883H419.71Z" fill="#F4F4F4"/>
<path d="M249.78 573.794C232.261 573.794 215.22 569.933 199.125 562.318C183.623 554.983 169.727 544.511 157.814 531.182C145.901 517.854 136.533 502.302 129.98 484.964C123.171 466.96 119.722 447.893 119.722 428.291V378.813C119.722 359.219 123.171 340.153 129.98 322.14C136.533 304.802 145.901 289.251 157.814 275.922C169.727 262.593 183.623 252.122 199.125 244.786C215.22 237.171 232.261 233.31 249.78 233.31C267.299 233.31 284.341 237.171 300.436 244.786C315.938 252.122 329.834 262.593 341.747 275.922C353.659 289.251 363.02 304.794 369.581 322.14C376.39 340.153 379.839 359.219 379.839 378.813V428.291C379.839 447.885 376.39 466.951 369.581 484.964C363.028 502.302 353.659 517.854 341.747 531.182C329.834 544.511 315.929 554.991 300.436 562.318C284.341 569.933 267.291 573.794 249.78 573.794Z" fill="#F4F4F4" stroke="#FF4C91" stroke-width="2.2" stroke-miterlimit="10"/>
<path d="M249.78 537.636C236.616 537.636 223.807 534.738 211.713 529.017C200.064 523.509 189.617 515.631 180.668 505.612C171.711 495.592 164.672 483.902 159.749 470.878C154.636 457.352 152.043 443.027 152.043 428.291V378.813C152.043 364.085 154.636 349.752 159.749 336.226C164.672 323.193 171.711 311.511 180.668 301.492C189.625 291.473 200.072 283.603 211.713 278.087C223.807 272.365 236.608 269.468 249.78 269.468C262.953 269.468 275.754 272.365 287.848 278.087C299.497 283.595 309.944 291.473 318.893 301.492C327.85 311.511 334.889 323.193 339.812 336.226C344.925 349.752 347.518 364.085 347.518 378.813V428.291C347.518 443.019 344.925 457.352 339.812 470.878C334.889 483.902 327.85 495.592 318.893 505.612C309.936 515.631 299.489 523.509 287.848 529.017C275.754 534.738 262.953 537.636 249.78 537.636Z" fill="#F4F4F4" stroke="#FF4C91" stroke-width="2.2" stroke-miterlimit="10"/>
<path d="M249.78 501.479C240.963 501.479 232.393 499.536 224.309 495.716C216.512 492.028 209.523 486.759 203.521 480.049C197.52 473.34 192.811 465.519 189.518 456.8C186.101 447.753 184.364 438.162 184.364 428.299V378.821C184.364 368.959 186.101 359.368 189.518 350.32C192.811 341.602 197.528 333.781 203.521 327.071C209.523 320.362 216.512 315.093 224.309 311.404C232.393 307.576 240.963 305.642 249.78 305.642C258.597 305.642 267.168 307.584 275.252 311.404C283.048 315.093 290.038 320.362 296.039 327.071C302.041 333.781 306.75 341.602 310.043 350.32C313.46 359.368 315.197 368.959 315.197 378.821V428.299C315.197 438.162 313.46 447.753 310.043 456.8C306.75 465.519 302.033 473.34 296.039 480.049C290.038 486.759 283.048 492.028 275.252 495.716C267.168 499.544 258.597 501.479 249.78 501.479Z" fill="#F4F4F4" stroke="#FF4C91" stroke-width="2.2" stroke-miterlimit="10"/>
<path d="M249.78 233.302V573.794" stroke="#FF4C91" stroke-width="2.76" stroke-miterlimit="10"/>
<path d="M379.847 403.552H119.722" stroke="#FF4C91" stroke-width="2.41" stroke-miterlimit="10"/>
<path d="M282.884 374.886C282.884 356.604 268.065 341.783 249.784 341.783C231.504 341.783 216.685 356.604 216.685 374.886V432.218C216.685 450.5 231.504 465.321 249.784 465.321C268.065 465.321 282.884 450.5 282.884 432.218V374.886Z" fill="#4857F6" stroke="#FF4C91" stroke-width="2.2" stroke-miterlimit="10"/>
<path d="M256.276 321.514V315.48L254.885 316.237V314.977L256.663 314.006H257.774V321.514H259.009V322.634H254.934V321.514H256.276Z" fill="#FF4C91"/>
<path d="M260.112 318.287C260.112 317.604 260.17 316.986 260.293 316.435C260.417 315.883 260.598 315.405 260.845 315.01C261.092 314.615 261.405 314.311 261.792 314.096C262.179 313.882 262.623 313.775 263.142 313.775C263.66 313.775 264.089 313.882 264.467 314.088C264.846 314.294 265.151 314.599 265.398 314.986C265.645 315.372 265.826 315.85 265.941 316.41C266.056 316.97 266.122 317.595 266.122 318.295C266.122 318.995 266.064 319.645 265.949 320.205C265.834 320.765 265.653 321.234 265.406 321.613C265.159 321.992 264.846 322.288 264.467 322.485C264.089 322.683 263.636 322.782 263.117 322.782C262.599 322.782 262.154 322.683 261.775 322.485C261.397 322.288 261.084 322 260.845 321.613C260.606 321.226 260.417 320.765 260.302 320.205C260.186 319.645 260.129 319.011 260.129 318.295L260.112 318.287ZM263.125 321.588C263.339 321.588 263.521 321.547 263.669 321.456C263.817 321.366 263.949 321.242 264.047 321.086C264.146 320.93 264.237 320.74 264.294 320.518C264.352 320.296 264.401 320.065 264.434 319.818C264.467 319.571 264.492 319.308 264.5 319.036C264.508 318.764 264.517 318.493 264.517 318.213C264.517 317.958 264.517 317.702 264.508 317.439C264.5 317.175 264.484 316.929 264.451 316.69C264.418 316.451 264.377 316.22 264.319 316.015C264.262 315.809 264.179 315.62 264.08 315.463C263.982 315.307 263.85 315.183 263.702 315.093C263.554 315.002 263.364 314.961 263.15 314.961C262.936 314.961 262.738 315.002 262.582 315.093C262.426 315.183 262.294 315.298 262.187 315.455C262.08 315.611 261.998 315.792 261.932 315.998C261.866 316.204 261.816 316.435 261.783 316.682C261.751 316.929 261.726 317.184 261.718 317.455C261.709 317.727 261.701 317.99 261.701 318.262C261.701 318.534 261.701 318.797 261.718 319.069C261.734 319.341 261.751 319.596 261.783 319.843C261.816 320.09 261.866 320.32 261.932 320.534C261.998 320.748 262.08 320.93 262.179 321.086C262.277 321.242 262.409 321.366 262.566 321.456C262.722 321.547 262.903 321.588 263.117 321.588H263.125Z" fill="#FF4C91"/>
<path d="M300.23 416.42V410.385L298.838 411.142V409.883L300.617 408.911H301.728V416.42H302.963V417.539H298.888V416.42H300.23Z" fill="#FF4C91"/>
<path d="M304.074 413.192C304.074 412.509 304.132 411.892 304.255 411.34C304.379 410.788 304.56 410.311 304.807 409.916C305.054 409.521 305.367 409.216 305.754 409.002C306.141 408.788 306.585 408.681 307.104 408.681C307.623 408.681 308.051 408.788 308.429 408.994C308.808 409.2 309.113 409.504 309.36 409.891C309.607 410.278 309.788 410.755 309.903 411.315C310.018 411.875 310.084 412.501 310.084 413.201C310.084 413.9 310.027 414.551 309.911 415.111C309.796 415.67 309.615 416.14 309.368 416.518C309.121 416.897 308.808 417.193 308.429 417.391C308.051 417.589 307.598 417.687 307.079 417.687C306.561 417.687 306.116 417.589 305.737 417.391C305.359 417.193 305.046 416.905 304.807 416.518C304.568 416.131 304.379 415.67 304.264 415.111C304.148 414.551 304.091 413.917 304.091 413.201L304.074 413.192ZM307.079 416.494C307.293 416.494 307.474 416.452 307.623 416.362C307.771 416.271 307.903 416.148 308.001 415.991C308.1 415.835 308.191 415.646 308.248 415.423C308.306 415.201 308.355 414.971 308.388 414.724C308.421 414.477 308.446 414.213 308.454 413.942C308.462 413.67 308.471 413.398 308.471 413.118C308.471 412.863 308.471 412.608 308.462 412.344C308.454 412.081 308.438 411.834 308.405 411.595C308.372 411.357 308.331 411.126 308.273 410.92C308.215 410.714 308.133 410.525 308.034 410.369C307.935 410.212 307.804 410.089 307.656 409.998C307.507 409.908 307.318 409.866 307.104 409.866C306.89 409.866 306.692 409.908 306.536 409.998C306.379 410.089 306.248 410.204 306.141 410.36C306.034 410.517 305.951 410.698 305.886 410.904C305.82 411.109 305.77 411.34 305.737 411.587C305.704 411.834 305.68 412.089 305.671 412.361C305.663 412.633 305.655 412.896 305.655 413.168C305.655 413.439 305.655 413.703 305.671 413.974C305.688 414.246 305.704 414.501 305.737 414.748C305.77 414.995 305.82 415.226 305.886 415.44C305.951 415.654 306.034 415.835 306.132 415.991C306.231 416.148 306.363 416.271 306.519 416.362C306.676 416.452 306.857 416.494 307.071 416.494H307.079Z" fill="#FF4C91"/>
<path d="M370.602 412.361C370.989 412.361 371.318 412.328 371.59 412.254C371.862 412.18 372.084 412.089 372.257 411.957C372.43 411.826 372.553 411.678 372.635 411.496C372.718 411.315 372.751 411.109 372.751 410.887C372.751 410.566 372.66 410.319 372.487 410.138C372.314 409.957 372.026 409.858 371.631 409.858C371.417 409.858 371.228 409.883 371.055 409.924C370.882 409.965 370.726 410.023 370.586 410.089C370.446 410.155 370.314 410.229 370.199 410.311C370.083 410.393 369.976 410.467 369.878 410.533L369.219 409.471C369.342 409.372 369.499 409.274 369.672 409.183C369.845 409.093 370.034 409.002 370.248 408.928C370.462 408.854 370.676 408.796 370.915 408.747C371.154 408.697 371.401 408.681 371.664 408.681C372.035 408.681 372.389 408.722 372.71 408.804C373.031 408.887 373.319 409.01 373.566 409.175C373.813 409.339 374.002 409.554 374.142 409.809C374.282 410.064 374.356 410.377 374.356 410.731C374.356 410.97 374.307 411.192 374.216 411.406C374.126 411.62 374.002 411.809 373.854 411.982C373.706 412.155 373.541 412.303 373.352 412.427C373.162 412.55 372.973 412.641 372.775 412.698C373.08 412.74 373.352 412.814 373.59 412.921C373.829 413.028 374.035 413.168 374.2 413.349C374.364 413.53 374.488 413.736 374.578 413.991C374.669 414.246 374.71 414.534 374.71 414.855C374.71 415.374 374.628 415.81 374.471 416.173C374.315 416.535 374.093 416.823 373.805 417.045C373.516 417.268 373.187 417.432 372.8 417.531C372.413 417.63 371.993 417.679 371.541 417.679C371.252 417.679 370.981 417.646 370.717 417.589C370.454 417.531 370.207 417.457 369.985 417.374C369.762 417.292 369.565 417.21 369.4 417.119C369.235 417.029 369.104 416.963 369.013 416.905L369.729 415.72C369.729 415.72 369.812 415.777 369.878 415.827C369.943 415.876 370.034 415.926 370.133 415.983C370.232 416.041 370.339 416.098 370.462 416.156C370.586 416.214 370.709 416.271 370.841 416.321C370.973 416.37 371.104 416.411 371.244 416.444C371.384 416.477 371.516 416.494 371.648 416.494C372.084 416.494 372.43 416.362 372.685 416.107C372.94 415.852 373.072 415.465 373.072 414.954C373.072 414.633 373.022 414.37 372.932 414.156C372.841 413.942 372.693 413.777 372.496 413.662C372.298 413.546 372.035 413.456 371.722 413.406C371.409 413.357 371.03 413.332 370.586 413.324L370.602 412.353V412.361Z" fill="#FF4C91"/>
<path d="M256.465 243.51C256.852 243.51 257.182 243.477 257.453 243.403C257.725 243.329 257.947 243.239 258.12 243.107C258.293 242.975 258.416 242.827 258.499 242.646C258.581 242.465 258.614 242.259 258.614 242.037C258.614 241.716 258.523 241.469 258.351 241.287C258.178 241.106 257.89 241.008 257.494 241.008C257.28 241.008 257.091 241.032 256.918 241.073C256.745 241.115 256.589 241.172 256.449 241.238C256.309 241.304 256.177 241.378 256.062 241.46C255.947 241.543 255.84 241.617 255.741 241.683L255.082 240.621C255.206 240.522 255.362 240.423 255.535 240.332C255.708 240.242 255.897 240.151 256.111 240.077C256.325 240.003 256.539 239.946 256.778 239.896C257.017 239.847 257.264 239.83 257.527 239.83C257.898 239.83 258.252 239.871 258.573 239.954C258.894 240.036 259.182 240.16 259.429 240.324C259.676 240.489 259.865 240.703 260.005 240.958C260.145 241.213 260.219 241.526 260.219 241.88C260.219 242.119 260.17 242.341 260.079 242.555C259.989 242.769 259.865 242.959 259.717 243.132C259.569 243.304 259.404 243.453 259.215 243.576C259.026 243.7 258.836 243.79 258.639 243.848C258.943 243.889 259.215 243.963 259.454 244.07C259.692 244.177 259.898 244.317 260.063 244.498C260.228 244.679 260.351 244.885 260.442 245.14C260.532 245.396 260.573 245.684 260.573 246.005C260.573 246.523 260.491 246.96 260.335 247.322C260.178 247.684 259.956 247.972 259.668 248.195C259.38 248.417 259.05 248.582 258.663 248.68C258.276 248.779 257.857 248.829 257.404 248.829C257.116 248.829 256.844 248.796 256.581 248.738C256.317 248.68 256.07 248.606 255.848 248.524C255.626 248.442 255.428 248.359 255.263 248.269C255.099 248.178 254.967 248.112 254.876 248.055L255.593 246.869C255.593 246.869 255.675 246.927 255.741 246.976C255.807 247.026 255.897 247.075 255.996 247.133C256.095 247.19 256.202 247.248 256.325 247.305C256.449 247.363 256.572 247.421 256.704 247.47C256.836 247.519 256.968 247.561 257.107 247.594C257.247 247.627 257.379 247.643 257.511 247.643C257.947 247.643 258.293 247.511 258.548 247.256C258.803 247.001 258.935 246.614 258.935 246.104C258.935 245.782 258.886 245.519 258.795 245.305C258.705 245.091 258.556 244.926 258.359 244.811C258.161 244.696 257.898 244.605 257.585 244.556C257.272 244.506 256.893 244.482 256.449 244.474L256.465 243.502V243.51Z" fill="#FF4C91"/>
<path d="M341.648 410.83C341.467 410.731 341.253 410.64 341.014 410.558C340.775 410.476 340.495 410.443 340.191 410.443C339.911 410.443 339.664 410.5 339.45 410.624C339.236 410.747 339.055 410.912 338.898 411.126C338.742 411.34 338.618 411.612 338.52 411.925C338.421 412.237 338.355 412.583 338.306 412.978C338.396 412.888 338.511 412.805 338.643 412.731C338.775 412.657 338.923 412.591 339.071 412.542C339.219 412.493 339.384 412.451 339.549 412.419C339.713 412.386 339.878 412.377 340.034 412.377C340.438 412.377 340.792 412.435 341.105 412.55C341.417 412.665 341.681 412.838 341.903 413.052C342.125 413.266 342.282 413.538 342.397 413.859C342.512 414.18 342.57 414.534 342.57 414.938C342.57 415.341 342.504 415.728 342.381 416.066C342.257 416.403 342.06 416.691 341.804 416.93C341.549 417.169 341.236 417.358 340.849 417.49C340.462 417.621 340.026 417.687 339.524 417.687C339.063 417.687 338.668 417.613 338.33 417.465C337.993 417.317 337.721 417.095 337.499 416.807C337.276 416.518 337.12 416.156 337.013 415.72C336.906 415.283 336.857 414.781 336.857 414.213C336.857 413.439 336.922 412.748 337.046 412.139C337.169 411.529 337.375 411.027 337.655 410.616C337.935 410.204 338.297 409.891 338.734 409.677C339.17 409.463 339.722 409.356 340.355 409.356C340.487 409.356 340.635 409.364 340.792 409.381C340.948 409.397 341.105 409.422 341.261 409.463C341.417 409.504 341.574 409.545 341.722 409.595C341.87 409.644 342.01 409.71 342.125 409.776L341.64 410.838L341.648 410.83ZM341.138 414.962C341.138 414.732 341.105 414.526 341.047 414.337C340.989 414.147 340.891 413.991 340.767 413.851C340.644 413.711 340.495 413.612 340.314 413.538C340.133 413.464 339.927 413.431 339.689 413.431C339.532 413.431 339.392 413.439 339.269 413.456C339.145 413.472 339.03 413.505 338.931 413.538C338.832 413.571 338.734 413.62 338.643 413.678C338.552 413.736 338.47 413.802 338.388 413.876C338.371 413.917 338.355 413.966 338.338 414.016C338.322 414.065 338.314 414.123 338.314 414.18C338.314 414.238 338.306 414.296 338.297 414.345C338.289 414.394 338.297 414.444 338.297 414.477C338.297 414.855 338.338 415.176 338.413 415.44C338.487 415.703 338.585 415.917 338.709 416.09C338.832 416.263 338.981 416.378 339.145 416.461C339.31 416.543 339.483 416.576 339.664 416.576C339.861 416.576 340.051 416.543 340.224 416.477C340.397 416.411 340.561 416.304 340.693 416.173C340.825 416.041 340.932 415.868 341.014 415.662C341.096 415.456 341.129 415.218 341.129 414.954L341.138 414.962Z" fill="#FF4C91"/>
<path d="M259.676 276.836C259.495 276.737 259.281 276.646 259.042 276.564C258.803 276.482 258.523 276.449 258.219 276.449C257.939 276.449 257.692 276.506 257.478 276.63C257.264 276.753 257.083 276.918 256.926 277.132C256.77 277.346 256.646 277.618 256.548 277.931C256.449 278.243 256.383 278.589 256.334 278.984C256.424 278.894 256.539 278.812 256.671 278.738C256.803 278.663 256.951 278.597 257.099 278.548C257.247 278.499 257.412 278.458 257.577 278.425C257.741 278.392 257.906 278.383 258.062 278.383C258.466 278.383 258.82 278.441 259.133 278.556C259.445 278.672 259.709 278.844 259.931 279.058C260.154 279.273 260.31 279.544 260.425 279.865C260.54 280.186 260.598 280.54 260.598 280.944C260.598 281.347 260.532 281.734 260.409 282.072C260.285 282.409 260.088 282.697 259.832 282.936C259.577 283.175 259.264 283.364 258.877 283.496C258.491 283.628 258.054 283.693 257.552 283.693C257.091 283.693 256.696 283.619 256.358 283.471C256.021 283.323 255.749 283.101 255.527 282.813C255.304 282.524 255.148 282.162 255.041 281.726C254.934 281.29 254.885 280.787 254.885 280.219C254.885 279.445 254.95 278.754 255.074 278.145C255.197 277.535 255.403 277.033 255.683 276.622C255.963 276.21 256.325 275.897 256.762 275.683C257.198 275.469 257.75 275.362 258.384 275.362C258.515 275.362 258.663 275.37 258.82 275.387C258.976 275.403 259.133 275.428 259.289 275.469C259.445 275.51 259.602 275.551 259.75 275.601C259.898 275.65 260.038 275.716 260.154 275.782L259.668 276.844L259.676 276.836ZM259.166 280.969C259.166 280.738 259.133 280.532 259.075 280.343C259.017 280.153 258.919 279.997 258.795 279.857C258.672 279.717 258.523 279.618 258.342 279.544C258.161 279.47 257.955 279.437 257.717 279.437C257.56 279.437 257.42 279.446 257.297 279.462C257.173 279.478 257.058 279.511 256.959 279.544C256.86 279.577 256.762 279.627 256.671 279.684C256.581 279.742 256.498 279.808 256.416 279.882C256.399 279.923 256.383 279.972 256.367 280.022C256.35 280.071 256.342 280.129 256.342 280.186C256.342 280.244 256.334 280.302 256.325 280.351C256.317 280.4 256.325 280.45 256.325 280.483C256.325 280.862 256.367 281.183 256.441 281.446C256.515 281.709 256.613 281.923 256.737 282.096C256.86 282.269 257.009 282.384 257.173 282.467C257.338 282.549 257.511 282.582 257.692 282.582C257.89 282.582 258.079 282.549 258.252 282.483C258.425 282.417 258.589 282.31 258.721 282.179C258.853 282.047 258.96 281.874 259.042 281.668C259.124 281.462 259.157 281.224 259.157 280.96L259.166 280.969Z" fill="#FF4C91"/>
<path d="M262.915 136.936C354.442 112.719 423.901 75.1787 418.056 53.087C412.211 30.9953 333.275 32.7179 241.748 56.9347C150.22 81.1514 80.7612 118.692 86.6063 140.784C92.4514 162.875 171.387 161.153 262.915 136.936Z" fill="#FF4C91"/>
<path d="M252.083 95.9798C285.436 87.1551 307.735 62.0924 301.89 40.0006C296.045 17.9089 264.269 7.15382 230.916 15.9785C197.563 24.8032 175.263 49.8659 181.108 71.9577C186.953 94.0494 218.73 104.804 252.083 95.9798Z" fill="#FF4C91"/>
</svg>
