<svg width="372" height="1382" viewBox="0 0 372 1382" fill="none" xmlns="http://www.w3.org/2000/svg">
<path d="M210 380H162V1382H210V380Z" fill="#4857F6"/>
<path d="M8.66291 549.707L6.81057 535.35C6.45657 532.608 -1.74311 467.711 7.09871 429.388C11.8572 408.757 6.85173 354.702 3.53399 318.939C1.35235 295.41 -0.368261 276.838 0.0680673 266.745C0.940723 246.698 2.56255 209.38 34.752 188.963C46.9198 181.249 66.9333 176.392 88.124 171.255C98.4394 168.752 109.109 166.167 117.63 163.467C126.126 160.766 129.74 158.807 131.123 157.901C133.082 151.505 131.024 142.548 128.661 132.281C127.212 125.975 125.714 119.463 124.924 112.548C124.71 110.663 123.714 106.653 122.742 102.768C119.663 90.3857 115.003 71.6813 117.399 53.5366C120.593 29.3163 135.247 12.2583 159.772 4.19039C168.235 1.40778 177.061 0 185.993 0C194.926 0 203.751 1.40778 212.214 4.19039C236.739 12.2501 251.393 29.3163 254.587 53.5366C256.983 71.6813 252.332 90.3857 249.253 102.768C248.289 106.645 247.285 110.663 247.071 112.548C246.281 119.463 244.782 125.984 243.333 132.29C240.979 142.548 238.921 151.505 240.872 157.901C242.255 158.807 245.869 160.766 254.365 163.467C262.877 166.167 273.547 168.76 283.871 171.255C305.061 176.392 325.083 181.249 337.243 188.963C369.432 209.372 371.054 246.698 371.927 266.745C372.363 276.83 370.642 295.402 368.461 318.923C365.143 354.693 360.129 408.749 364.896 429.38C373.738 467.702 365.538 532.6 365.184 535.341L363.332 549.699H8.66291V549.707Z" fill="#FF4C91"/>
<path d="M355.486 267.461C354.383 242.063 351.073 217.226 328.434 202.868C305.802 188.51 233.479 182.443 226.3 165.879C219.121 149.315 228.506 129.993 230.713 110.671C232.689 93.3578 258.152 36.6187 207.077 19.8324C193.411 15.3374 178.584 15.3374 164.918 19.8324C113.843 36.6269 139.298 93.366 141.282 110.671C143.488 129.993 152.873 149.315 145.695 165.879C138.516 182.443 66.2006 188.51 43.5609 202.868C20.9295 217.226 17.6118 242.063 16.5086 267.461C15.4054 292.858 31.4178 397.198 23.1358 433.076C14.8538 468.962 23.1358 533.234 23.1358 533.234H348.851C348.851 533.234 357.133 468.962 348.851 433.076C340.569 397.19 356.581 292.85 355.478 267.461H355.486Z" fill="#F4F4F4"/>
<path d="M185.557 525.38C168.038 525.38 150.996 521.519 134.902 513.904C119.4 506.569 105.503 496.097 93.5904 482.768C81.6778 469.439 72.3091 453.888 65.756 436.55C58.9476 418.546 55.4982 399.479 55.4982 379.877V330.399C55.4982 310.805 58.9476 291.739 65.756 273.726C72.3091 256.388 81.6778 240.837 93.5904 227.508C105.503 214.179 119.4 203.707 134.902 196.372C150.996 188.757 168.038 184.896 185.557 184.896C203.076 184.896 220.117 188.757 236.212 196.372C251.714 203.707 265.611 214.179 277.523 227.508C289.436 240.837 298.796 256.38 305.358 273.726C312.166 291.739 315.616 310.805 315.616 330.399V379.877C315.616 399.471 312.166 418.537 305.358 436.55C298.805 453.888 289.436 469.439 277.523 482.768C265.611 496.097 251.706 506.577 236.212 513.904C220.117 521.519 203.068 525.38 185.557 525.38Z" fill="#F4F4F4" stroke="#FF4C91" stroke-width="2.2" stroke-miterlimit="10"/>
<path d="M185.557 489.223C172.393 489.223 159.583 486.325 147.489 480.603C135.84 475.095 125.393 467.217 116.444 457.198C107.487 447.179 100.448 435.488 95.5251 422.464C90.4127 408.938 87.8194 394.613 87.8194 379.877V330.399C87.8194 315.671 90.4127 301.338 95.5251 287.812C100.448 274.78 107.487 263.098 116.444 253.079C125.401 243.059 135.848 235.189 147.489 229.673C159.583 223.952 172.385 221.054 185.557 221.054C198.729 221.054 211.531 223.952 223.624 229.673C235.274 235.181 245.721 243.059 254.67 253.079C263.627 263.098 270.666 274.78 275.589 287.812C280.701 301.338 283.294 315.671 283.294 330.399V379.877C283.294 394.605 280.701 408.938 275.589 422.464C270.666 435.488 263.627 447.179 254.67 457.198C245.712 467.217 235.265 475.095 223.624 480.603C211.531 486.325 198.729 489.223 185.557 489.223Z" fill="#F4F4F4" stroke="#FF4C91" stroke-width="2.2" stroke-miterlimit="10"/>
<path d="M185.557 453.065C176.74 453.065 168.17 451.122 160.085 447.302C152.289 443.614 145.299 438.345 139.298 431.635C133.296 424.926 128.587 417.105 125.294 408.386C121.878 399.339 120.141 389.748 120.141 379.885V330.407C120.141 320.544 121.878 310.954 125.294 301.906C128.587 293.188 133.305 285.367 139.298 278.657C145.299 271.947 152.289 266.679 160.085 262.99C168.17 259.162 176.74 257.228 185.557 257.228C194.374 257.228 202.944 259.17 211.029 262.99C218.825 266.679 225.814 271.947 231.816 278.657C237.817 285.367 242.527 293.188 245.82 301.906C249.236 310.954 250.973 320.544 250.973 330.407V379.885C250.973 389.748 249.236 399.339 245.82 408.386C242.527 417.105 237.809 424.926 231.816 431.635C225.814 438.345 218.825 443.614 211.029 447.302C202.944 451.13 194.374 453.065 185.557 453.065Z" fill="#F4F4F4" stroke="#FF4C91" stroke-width="2.2" stroke-miterlimit="10"/>
<path d="M185.557 184.888V525.38" stroke="#FF4C91" stroke-width="2.76" stroke-miterlimit="10"/>
<path d="M315.624 355.13H55.4982" stroke="#FF4C91" stroke-width="2.41" stroke-miterlimit="10"/>
<path d="M218.66 326.464C218.66 308.181 203.841 293.361 185.561 293.361C167.281 293.361 152.462 308.181 152.462 326.464V383.796C152.462 402.078 167.281 416.899 185.561 416.899C203.841 416.899 218.66 402.078 218.66 383.796V326.464Z" fill="#4857F6" stroke="#FF4C91" stroke-width="2.2" stroke-miterlimit="10"/>
<path d="M192.052 273.1V267.066L190.661 267.823V266.564L192.439 265.592H193.551V273.1H194.786V274.22H190.711V273.1H192.052Z" fill="#FF4C91"/>
<path d="M195.889 269.873C195.889 269.189 195.946 268.572 196.07 268.02C196.193 267.469 196.375 266.991 196.621 266.596C196.868 266.201 197.181 265.896 197.568 265.682C197.955 265.468 198.4 265.361 198.918 265.361C199.437 265.361 199.865 265.468 200.244 265.674C200.623 265.88 200.927 266.185 201.174 266.572C201.421 266.958 201.602 267.436 201.717 267.996C201.833 268.556 201.899 269.181 201.899 269.881C201.899 270.581 201.841 271.231 201.726 271.791C201.61 272.351 201.429 272.82 201.182 273.199C200.935 273.577 200.623 273.874 200.244 274.071C199.865 274.269 199.412 274.368 198.894 274.368C198.375 274.368 197.93 274.269 197.552 274.071C197.173 273.874 196.86 273.586 196.621 273.199C196.383 272.812 196.193 272.351 196.078 271.791C195.963 271.231 195.905 270.597 195.905 269.881L195.889 269.873ZM198.902 273.174C199.116 273.174 199.297 273.133 199.445 273.042C199.593 272.952 199.725 272.828 199.824 272.672C199.923 272.515 200.013 272.326 200.071 272.104C200.129 271.882 200.178 271.651 200.211 271.404C200.244 271.157 200.269 270.894 200.277 270.622C200.285 270.35 200.293 270.079 200.293 269.799C200.293 269.544 200.293 269.288 200.285 269.025C200.277 268.761 200.26 268.514 200.227 268.276C200.194 268.037 200.153 267.806 200.096 267.601C200.038 267.395 199.956 267.205 199.857 267.049C199.758 266.893 199.626 266.769 199.478 266.679C199.33 266.588 199.141 266.547 198.927 266.547C198.713 266.547 198.515 266.588 198.359 266.679C198.202 266.769 198.07 266.884 197.963 267.041C197.856 267.197 197.774 267.378 197.708 267.584C197.642 267.79 197.593 268.02 197.56 268.267C197.527 268.514 197.502 268.77 197.494 269.041C197.486 269.313 197.478 269.576 197.478 269.848C197.478 270.12 197.478 270.383 197.494 270.655C197.511 270.927 197.527 271.182 197.56 271.429C197.593 271.676 197.642 271.906 197.708 272.12C197.774 272.334 197.856 272.515 197.955 272.672C198.054 272.828 198.186 272.952 198.342 273.042C198.499 273.133 198.68 273.174 198.894 273.174H198.902Z" fill="#FF4C91"/>
<path d="M236.014 368.006V361.971L234.623 362.729V361.469L236.401 360.498H237.513V368.006H238.748V369.125H234.673V368.006H236.014Z" fill="#FF4C91"/>
<path d="M239.851 364.779C239.851 364.095 239.908 363.478 240.032 362.926C240.155 362.375 240.337 361.897 240.584 361.502C240.831 361.107 241.143 360.802 241.53 360.588C241.917 360.374 242.362 360.267 242.88 360.267C243.399 360.267 243.827 360.374 244.206 360.58C244.585 360.786 244.889 361.09 245.136 361.477C245.383 361.864 245.564 362.342 245.68 362.902C245.795 363.461 245.861 364.087 245.861 364.787C245.861 365.487 245.803 366.137 245.688 366.697C245.572 367.257 245.391 367.726 245.144 368.105C244.897 368.483 244.585 368.78 244.206 368.977C243.827 369.175 243.374 369.274 242.856 369.274C242.337 369.274 241.893 369.175 241.514 368.977C241.135 368.78 240.822 368.491 240.584 368.105C240.345 367.718 240.155 367.257 240.04 366.697C239.925 366.137 239.867 365.503 239.867 364.787L239.851 364.779ZM242.864 368.08C243.078 368.08 243.259 368.039 243.407 367.948C243.556 367.858 243.687 367.734 243.786 367.578C243.885 367.421 243.975 367.232 244.033 367.01C244.091 366.787 244.14 366.557 244.173 366.31C244.206 366.063 244.231 365.799 244.239 365.528C244.247 365.256 244.255 364.984 244.255 364.704C244.255 364.449 244.255 364.194 244.247 363.931C244.239 363.667 244.222 363.42 244.189 363.181C244.156 362.943 244.115 362.712 244.058 362.506C244 362.301 243.918 362.111 243.819 361.955C243.72 361.798 243.588 361.675 243.44 361.584C243.292 361.494 243.103 361.453 242.889 361.453C242.675 361.453 242.477 361.494 242.321 361.584C242.164 361.675 242.032 361.79 241.925 361.947C241.818 362.103 241.736 362.284 241.67 362.49C241.604 362.696 241.555 362.926 241.522 363.173C241.489 363.42 241.464 363.675 241.456 363.947C241.448 364.219 241.44 364.482 241.44 364.754C241.44 365.026 241.44 365.289 241.456 365.561C241.473 365.832 241.489 366.088 241.522 366.335C241.555 366.582 241.604 366.812 241.67 367.026C241.736 367.24 241.818 367.421 241.917 367.578C242.016 367.734 242.148 367.858 242.304 367.948C242.461 368.039 242.642 368.08 242.856 368.08H242.864Z" fill="#FF4C91"/>
<path d="M306.379 363.947C306.765 363.947 307.095 363.914 307.366 363.84C307.638 363.766 307.86 363.675 308.033 363.544C308.206 363.412 308.33 363.264 308.412 363.083C308.494 362.902 308.527 362.696 308.527 362.473C308.527 362.152 308.437 361.905 308.264 361.724C308.091 361.543 307.803 361.444 307.408 361.444C307.194 361.444 307.004 361.469 306.831 361.51C306.658 361.551 306.502 361.609 306.362 361.675C306.222 361.741 306.09 361.815 305.975 361.897C305.86 361.979 305.753 362.054 305.654 362.119L304.995 361.057C305.119 360.959 305.275 360.86 305.448 360.769C305.621 360.679 305.811 360.588 306.025 360.514C306.239 360.44 306.453 360.382 306.691 360.333C306.93 360.284 307.177 360.267 307.441 360.267C307.811 360.267 308.165 360.308 308.486 360.391C308.807 360.473 309.095 360.596 309.342 360.761C309.589 360.926 309.779 361.14 309.919 361.395C310.059 361.65 310.133 361.963 310.133 362.317C310.133 362.556 310.083 362.778 309.993 362.992C309.902 363.206 309.779 363.395 309.63 363.568C309.482 363.741 309.318 363.889 309.128 364.013C308.939 364.136 308.75 364.227 308.552 364.285C308.857 364.326 309.128 364.4 309.367 364.507C309.606 364.614 309.812 364.754 309.976 364.935C310.141 365.116 310.264 365.322 310.355 365.577C310.445 365.832 310.487 366.12 310.487 366.442C310.487 366.96 310.404 367.397 310.248 367.759C310.091 368.121 309.869 368.409 309.581 368.631C309.293 368.854 308.964 369.018 308.577 369.117C308.19 369.216 307.77 369.265 307.317 369.265C307.029 369.265 306.757 369.232 306.494 369.175C306.23 369.117 305.983 369.043 305.761 368.961C305.539 368.878 305.341 368.796 305.177 368.706C305.012 368.615 304.88 368.549 304.79 368.491L305.506 367.306C305.506 367.306 305.588 367.364 305.654 367.413C305.72 367.462 305.811 367.512 305.909 367.569C306.008 367.627 306.115 367.685 306.239 367.742C306.362 367.8 306.486 367.858 306.617 367.907C306.749 367.956 306.881 367.998 307.021 368.03C307.161 368.063 307.292 368.08 307.424 368.08C307.86 368.08 308.206 367.948 308.461 367.693C308.717 367.438 308.848 367.051 308.848 366.54C308.848 366.219 308.799 365.956 308.708 365.742C308.618 365.528 308.47 365.363 308.272 365.248C308.074 365.133 307.811 365.042 307.498 364.993C307.185 364.943 306.807 364.919 306.362 364.91L306.379 363.939V363.947Z" fill="#FF4C91"/>
<path d="M192.25 195.088C192.637 195.088 192.966 195.055 193.238 194.981C193.51 194.907 193.732 194.816 193.905 194.685C194.078 194.553 194.201 194.405 194.283 194.224C194.366 194.043 194.399 193.837 194.399 193.615C194.399 193.293 194.308 193.046 194.135 192.865C193.962 192.684 193.674 192.585 193.279 192.585C193.065 192.585 192.876 192.61 192.703 192.651C192.53 192.692 192.374 192.75 192.234 192.816C192.094 192.882 191.962 192.956 191.847 193.038C191.731 193.121 191.624 193.195 191.526 193.261L190.867 192.199C190.99 192.1 191.147 192.001 191.32 191.91C191.493 191.82 191.682 191.729 191.896 191.655C192.11 191.581 192.324 191.523 192.563 191.474C192.802 191.425 193.049 191.408 193.312 191.408C193.682 191.408 194.037 191.449 194.358 191.532C194.679 191.614 194.967 191.738 195.214 191.902C195.461 192.067 195.65 192.281 195.79 192.536C195.93 192.791 196.004 193.104 196.004 193.458C196.004 193.697 195.955 193.919 195.864 194.133C195.774 194.347 195.65 194.537 195.502 194.709C195.354 194.882 195.189 195.031 195 195.154C194.81 195.278 194.621 195.368 194.423 195.426C194.728 195.467 195 195.541 195.238 195.648C195.477 195.755 195.683 195.895 195.848 196.076C196.012 196.257 196.136 196.463 196.226 196.718C196.317 196.973 196.358 197.262 196.358 197.583C196.358 198.101 196.276 198.538 196.119 198.9C195.963 199.262 195.741 199.55 195.453 199.773C195.164 199.995 194.835 200.159 194.448 200.258C194.061 200.357 193.641 200.406 193.189 200.406C192.9 200.406 192.629 200.374 192.365 200.316C192.102 200.258 191.855 200.184 191.633 200.102C191.41 200.02 191.213 199.937 191.048 199.847C190.883 199.756 190.752 199.69 190.661 199.633L191.377 198.447C191.377 198.447 191.46 198.505 191.526 198.554C191.591 198.603 191.682 198.653 191.781 198.711C191.88 198.768 191.987 198.826 192.11 198.883C192.234 198.941 192.357 198.999 192.489 199.048C192.62 199.097 192.752 199.139 192.892 199.172C193.032 199.204 193.164 199.221 193.296 199.221C193.732 199.221 194.078 199.089 194.333 198.834C194.588 198.579 194.72 198.192 194.72 197.681C194.72 197.36 194.67 197.097 194.58 196.883C194.489 196.669 194.341 196.504 194.144 196.389C193.946 196.274 193.683 196.183 193.37 196.134C193.057 196.084 192.678 196.06 192.234 196.051L192.25 195.08V195.088Z" fill="#FF4C91"/>
<path d="M277.424 362.416C277.243 362.317 277.029 362.226 276.791 362.144C276.552 362.062 276.272 362.029 275.967 362.029C275.687 362.029 275.44 362.086 275.226 362.21C275.012 362.333 274.831 362.498 274.675 362.712C274.518 362.926 274.395 363.198 274.296 363.511C274.197 363.824 274.131 364.169 274.082 364.564C274.173 364.474 274.288 364.392 274.42 364.318C274.551 364.243 274.699 364.178 274.848 364.128C274.996 364.079 275.16 364.038 275.325 364.005C275.49 363.972 275.654 363.964 275.811 363.964C276.214 363.964 276.568 364.021 276.881 364.136C277.194 364.252 277.457 364.425 277.68 364.639C277.902 364.853 278.058 365.124 278.174 365.445C278.289 365.766 278.346 366.12 278.346 366.524C278.346 366.927 278.281 367.314 278.157 367.652C278.034 367.989 277.836 368.277 277.581 368.516C277.326 368.755 277.013 368.944 276.626 369.076C276.239 369.208 275.803 369.274 275.3 369.274C274.839 369.274 274.444 369.199 274.107 369.051C273.769 368.903 273.497 368.681 273.275 368.393C273.053 368.105 272.897 367.742 272.789 367.306C272.682 366.87 272.633 366.367 272.633 365.799C272.633 365.026 272.699 364.334 272.822 363.725C272.946 363.116 273.152 362.613 273.432 362.202C273.712 361.79 274.074 361.477 274.51 361.263C274.946 361.049 275.498 360.942 276.132 360.942C276.264 360.942 276.412 360.95 276.568 360.967C276.725 360.983 276.881 361.008 277.038 361.049C277.194 361.09 277.35 361.131 277.499 361.181C277.647 361.23 277.787 361.296 277.902 361.362L277.416 362.424L277.424 362.416ZM276.914 366.549C276.914 366.318 276.881 366.112 276.823 365.923C276.766 365.734 276.667 365.577 276.544 365.437C276.42 365.297 276.272 365.198 276.091 365.124C275.91 365.05 275.704 365.017 275.465 365.017C275.309 365.017 275.169 365.026 275.045 365.042C274.922 365.058 274.806 365.091 274.708 365.124C274.609 365.157 274.51 365.207 274.42 365.264C274.329 365.322 274.247 365.388 274.164 365.462C274.148 365.503 274.131 365.552 274.115 365.602C274.098 365.651 274.09 365.709 274.09 365.766C274.09 365.824 274.082 365.882 274.074 365.931C274.066 365.98 274.074 366.03 274.074 366.063C274.074 366.442 274.115 366.763 274.189 367.026C274.263 367.289 274.362 367.504 274.485 367.676C274.609 367.849 274.757 367.965 274.922 368.047C275.086 368.129 275.259 368.162 275.44 368.162C275.638 368.162 275.827 368.129 276 368.063C276.173 367.997 276.338 367.89 276.469 367.759C276.601 367.627 276.708 367.454 276.791 367.248C276.873 367.043 276.906 366.804 276.906 366.54L276.914 366.549Z" fill="#FF4C91"/>
<path d="M195.461 228.422C195.28 228.323 195.066 228.233 194.827 228.15C194.588 228.068 194.308 228.035 194.004 228.035C193.724 228.035 193.477 228.093 193.263 228.216C193.049 228.34 192.867 228.504 192.711 228.718C192.555 228.932 192.431 229.204 192.332 229.517C192.233 229.83 192.168 230.175 192.118 230.571C192.209 230.48 192.324 230.398 192.456 230.324C192.588 230.249 192.736 230.184 192.884 230.134C193.032 230.085 193.197 230.044 193.361 230.011C193.526 229.978 193.691 229.97 193.847 229.97C194.25 229.97 194.604 230.027 194.917 230.142C195.23 230.258 195.494 230.431 195.716 230.645C195.938 230.859 196.095 231.13 196.21 231.451C196.325 231.773 196.383 232.127 196.383 232.53C196.383 232.933 196.317 233.32 196.193 233.658C196.07 233.995 195.872 234.283 195.617 234.522C195.362 234.761 195.049 234.95 194.662 235.082C194.275 235.214 193.839 235.28 193.337 235.28C192.876 235.28 192.48 235.206 192.143 235.057C191.805 234.909 191.534 234.687 191.311 234.399C191.089 234.111 190.933 233.748 190.826 233.312C190.719 232.876 190.669 232.374 190.669 231.805C190.669 231.032 190.735 230.34 190.859 229.731C190.982 229.122 191.188 228.619 191.468 228.208C191.748 227.796 192.11 227.483 192.546 227.269C192.983 227.055 193.534 226.948 194.168 226.948C194.3 226.948 194.448 226.956 194.604 226.973C194.761 226.989 194.917 227.014 195.074 227.055C195.23 227.096 195.387 227.138 195.535 227.187C195.683 227.236 195.823 227.302 195.938 227.368L195.452 228.43L195.461 228.422ZM194.942 232.555C194.942 232.324 194.909 232.118 194.851 231.929C194.794 231.74 194.695 231.583 194.572 231.443C194.448 231.303 194.3 231.204 194.119 231.13C193.938 231.056 193.732 231.023 193.493 231.023C193.337 231.023 193.197 231.032 193.073 231.048C192.95 231.065 192.834 231.097 192.736 231.13C192.637 231.163 192.538 231.213 192.448 231.27C192.357 231.328 192.275 231.394 192.192 231.468C192.176 231.509 192.159 231.558 192.143 231.608C192.126 231.657 192.118 231.715 192.118 231.773C192.118 231.83 192.11 231.888 192.102 231.937C192.094 231.987 192.102 232.036 192.102 232.069C192.102 232.448 192.143 232.769 192.217 233.032C192.291 233.296 192.39 233.51 192.513 233.683C192.637 233.855 192.785 233.971 192.95 234.053C193.114 234.135 193.287 234.168 193.468 234.168C193.666 234.168 193.855 234.135 194.028 234.069C194.201 234.004 194.366 233.897 194.497 233.765C194.629 233.633 194.736 233.46 194.819 233.254C194.901 233.049 194.934 232.81 194.934 232.546L194.942 232.555Z" fill="#FF4C91"/>
</svg>
