<svg width="627" height="1218" viewBox="0 0 627 1218" fill="none" xmlns="http://www.w3.org/2000/svg">
<path d="M338 216H290V1218H338V216Z" fill="#4857F6"/>
<path d="M303.956 339.762C312.802 328.52 320.059 316.335 325.816 303.238C326.245 302.266 327.368 301.294 328.386 300.94C332.522 299.478 336.735 298.265 341.55 296.758C341.113 298.958 341.015 300.797 340.374 302.417C336.931 311.09 333.389 319.726 329.764 328.331C329.327 329.364 328.084 330.019 327.451 331.006C326.509 332.491 325.236 334.051 325.062 335.686C324.663 339.521 323.201 340.621 319.78 338.986C319.501 338.858 319.238 338.7 318.966 338.557C313.41 335.538 308.572 336.093 304.453 340.222C304.287 340.071 304.121 339.913 303.963 339.762H303.956Z" fill="white"/>
<path d="M313.835 338.526C479.981 338.526 614.669 275.668 614.669 198.127C614.669 120.587 479.981 57.7283 313.835 57.7283C147.688 57.7283 13 120.587 13 198.127C13 275.668 147.688 338.526 313.835 338.526Z" fill="#F4F4F4" stroke="#FF4C91" stroke-width="24.23" stroke-miterlimit="10"/>
<path d="M313.835 293.804C427.053 293.804 518.835 250.968 518.835 198.128C518.835 145.287 427.053 102.451 313.835 102.451C200.616 102.451 108.835 145.287 108.835 198.128C108.835 250.968 200.616 293.804 313.835 293.804Z" fill="#F4F4F4" stroke="#FF4C91" stroke-width="2" stroke-miterlimit="10"/>
<path d="M313.835 257.454C384.038 257.454 440.949 230.892 440.949 198.128C440.949 165.363 384.038 138.802 313.835 138.802C243.631 138.802 186.72 165.363 186.72 198.128C186.72 230.892 243.631 257.454 313.835 257.454Z" fill="#F4F4F4" stroke="#FF4C91" stroke-width="2" stroke-miterlimit="10"/>
<path d="M313.835 57.7361V338.527" stroke="#FF4C91" stroke-width="2" stroke-miterlimit="10"/>
<path d="M614.67 198.135H13" stroke="#FF4C91" stroke-width="2" stroke-miterlimit="10"/>
<path d="M313.835 233.152C355.281 233.152 388.879 217.471 388.879 198.127C388.879 178.784 355.281 163.103 313.835 163.103C272.389 163.103 238.79 178.784 238.79 198.127C238.79 217.471 272.389 233.152 313.835 233.152Z" fill="#4857F6" stroke="#FF4C91" stroke-width="2" stroke-miterlimit="10"/>
<path d="M108.835 4.12939V154.626L214.021 78.4131L108.835 4.12939Z" fill="#FF4C91"/>
<path d="M196.893 0V150.496L302.087 74.2837L196.893 0Z" fill="#FF4C91"/>
<path d="M399.181 238.577V389.074L504.374 312.861L399.181 238.577Z" fill="#FF4C91"/>
<path d="M487.239 234.448V384.945L592.433 308.732L487.239 234.448Z" fill="#FF4C91"/>
<path d="M591.272 205.211C591.627 205.211 591.928 205.181 592.177 205.113C592.425 205.045 592.629 204.962 592.787 204.842C592.945 204.721 593.058 204.585 593.134 204.42C593.209 204.254 593.239 204.065 593.239 203.862C593.239 203.568 593.156 203.342 592.998 203.176C592.84 203.011 592.576 202.92 592.214 202.92C592.018 202.92 591.845 202.943 591.687 202.98C591.529 203.018 591.385 203.071 591.257 203.131C591.129 203.191 591.009 203.259 590.903 203.335C590.798 203.41 590.7 203.478 590.609 203.538L590.006 202.566C590.12 202.475 590.263 202.385 590.421 202.302C590.579 202.219 590.753 202.136 590.948 202.069C591.144 202.001 591.34 201.948 591.559 201.903C591.777 201.858 592.003 201.843 592.244 201.843C592.584 201.843 592.908 201.88 593.201 201.956C593.495 202.031 593.759 202.144 593.985 202.295C594.211 202.445 594.385 202.641 594.513 202.875C594.641 203.108 594.709 203.395 594.709 203.719C594.709 203.937 594.663 204.141 594.581 204.337C594.498 204.533 594.384 204.706 594.249 204.864C594.113 205.022 593.963 205.158 593.789 205.271C593.616 205.384 593.443 205.467 593.262 205.52C593.541 205.557 593.789 205.625 594.008 205.723C594.226 205.821 594.415 205.949 594.565 206.115C594.716 206.281 594.829 206.469 594.912 206.703C594.995 206.936 595.033 207.2 595.033 207.494C595.033 207.969 594.957 208.368 594.814 208.7C594.671 209.031 594.467 209.295 594.204 209.498C593.94 209.702 593.638 209.853 593.284 209.943C592.93 210.033 592.546 210.079 592.132 210.079C591.868 210.079 591.619 210.049 591.378 209.996C591.137 209.943 590.911 209.875 590.707 209.8C590.504 209.724 590.323 209.649 590.172 209.566C590.022 209.483 589.901 209.423 589.818 209.37L590.474 208.285C590.474 208.285 590.549 208.338 590.609 208.383C590.67 208.428 590.752 208.474 590.843 208.526C590.933 208.579 591.031 208.632 591.144 208.685C591.257 208.737 591.37 208.79 591.491 208.835C591.612 208.881 591.732 208.918 591.86 208.948C591.988 208.978 592.109 208.994 592.229 208.994C592.629 208.994 592.945 208.873 593.179 208.639C593.412 208.406 593.533 208.052 593.533 207.584C593.533 207.291 593.488 207.049 593.405 206.854C593.322 206.658 593.186 206.507 593.006 206.401C592.825 206.296 592.584 206.213 592.297 206.168C592.011 206.123 591.664 206.1 591.257 206.092L591.272 205.203V205.211Z" fill="#FF4C91"/>
<path d="M318.356 74.5024C318.71 74.5024 319.012 74.4723 319.26 74.4045C319.509 74.3366 319.712 74.2538 319.871 74.1332C320.029 74.0126 320.142 73.8769 320.217 73.7112C320.293 73.5454 320.323 73.357 320.323 73.1536C320.323 72.8597 320.24 72.6336 320.082 72.4678C319.923 72.302 319.66 72.2116 319.298 72.2116C319.102 72.2116 318.929 72.2342 318.77 72.2719C318.612 72.3096 318.469 72.3624 318.341 72.4226C318.213 72.4829 318.092 72.5508 317.987 72.6261C317.881 72.7015 317.783 72.7692 317.693 72.8295L317.09 71.8575C317.203 71.7671 317.346 71.6767 317.504 71.5938C317.663 71.5109 317.836 71.4279 318.032 71.3601C318.228 71.2923 318.424 71.2396 318.642 71.1944C318.861 71.1492 319.087 71.134 319.328 71.134C319.667 71.134 319.991 71.1717 320.285 71.2471C320.579 71.3224 320.843 71.4355 321.069 71.5862C321.295 71.7369 321.468 71.9328 321.596 72.1664C321.724 72.4 321.792 72.6864 321.792 73.0104C321.792 73.229 321.747 73.4324 321.664 73.6283C321.581 73.8242 321.468 73.9975 321.332 74.1557C321.197 74.314 321.046 74.4496 320.873 74.5627C320.699 74.6757 320.526 74.7586 320.345 74.8113C320.624 74.849 320.873 74.9168 321.091 75.0148C321.31 75.1127 321.498 75.2408 321.649 75.4066C321.8 75.5724 321.913 75.7608 321.995 75.9944C322.078 76.228 322.116 76.4917 322.116 76.7856C322.116 77.2603 322.041 77.6597 321.898 77.9913C321.754 78.3229 321.551 78.5865 321.287 78.79C321.023 78.9935 320.722 79.1441 320.368 79.2346C320.014 79.325 319.629 79.3702 319.215 79.3702C318.951 79.3702 318.703 79.3401 318.461 79.2874C318.22 79.2346 317.994 79.1668 317.791 79.0914C317.587 79.0161 317.407 78.9407 317.256 78.8578C317.105 78.7749 316.985 78.7147 316.902 78.662L317.557 77.5768C317.557 77.5768 317.633 77.6296 317.693 77.6748C317.753 77.72 317.836 77.7652 317.926 77.8179C318.017 77.8707 318.115 77.9235 318.228 77.9762C318.341 78.029 318.454 78.0817 318.575 78.1269C318.695 78.1721 318.816 78.2098 318.944 78.2399C319.072 78.2701 319.192 78.2852 319.313 78.2852C319.712 78.2852 320.029 78.1646 320.262 77.931C320.496 77.6974 320.617 77.3432 320.617 76.876C320.617 76.5821 320.571 76.341 320.488 76.1451C320.406 75.9492 320.27 75.7985 320.089 75.693C319.908 75.5875 319.667 75.5046 319.381 75.4594C319.094 75.4142 318.748 75.3915 318.341 75.384L318.356 74.4949V74.5024Z" fill="#FF4C91"/>
<path d="M423.354 208.926V203.402L422.081 204.096V202.943L423.708 202.053H424.725V208.926H425.856V209.951H422.126V208.926H423.354Z" fill="#FF4C91"/>
<path d="M426.866 205.972C426.866 205.346 426.918 204.781 427.031 204.276C427.144 203.772 427.31 203.335 427.536 202.973C427.762 202.611 428.049 202.332 428.403 202.136C428.757 201.941 429.164 201.843 429.639 201.843C430.113 201.843 430.505 201.94 430.852 202.129C431.198 202.317 431.477 202.596 431.703 202.95C431.929 203.304 432.095 203.741 432.201 204.254C432.306 204.766 432.366 205.339 432.366 205.979C432.366 206.62 432.314 207.215 432.208 207.728C432.103 208.24 431.937 208.67 431.711 209.016C431.485 209.363 431.198 209.634 430.852 209.815C430.505 209.996 430.091 210.086 429.616 210.086C429.141 210.086 428.734 209.996 428.388 209.815C428.041 209.634 427.755 209.37 427.536 209.016C427.318 208.662 427.144 208.24 427.039 207.728C426.933 207.215 426.881 206.635 426.881 205.979L426.866 205.972ZM429.623 208.994C429.819 208.994 429.985 208.956 430.121 208.873C430.257 208.79 430.377 208.677 430.468 208.534C430.558 208.391 430.641 208.217 430.693 208.014C430.746 207.811 430.792 207.6 430.822 207.373C430.852 207.147 430.874 206.906 430.882 206.658C430.889 206.409 430.897 206.16 430.897 205.904C430.897 205.671 430.897 205.437 430.889 205.196C430.882 204.955 430.867 204.729 430.837 204.51C430.807 204.291 430.769 204.081 430.716 203.892C430.663 203.704 430.588 203.53 430.498 203.387C430.407 203.244 430.287 203.131 430.151 203.048C430.015 202.965 429.842 202.928 429.646 202.928C429.45 202.928 429.269 202.965 429.126 203.048C428.983 203.131 428.862 203.237 428.765 203.38C428.667 203.523 428.591 203.689 428.531 203.877C428.471 204.065 428.425 204.276 428.395 204.503C428.365 204.729 428.342 204.962 428.335 205.211C428.327 205.459 428.32 205.701 428.32 205.949C428.32 206.198 428.32 206.439 428.335 206.688C428.35 206.936 428.365 207.17 428.395 207.396C428.425 207.622 428.471 207.833 428.531 208.029C428.591 208.225 428.667 208.391 428.757 208.534C428.847 208.677 428.968 208.79 429.111 208.873C429.254 208.956 429.42 208.994 429.616 208.994H429.623Z" fill="#FF4C91"/>
<path d="M318.899 150.873V145.35L317.625 146.043V144.89L319.253 144.001H320.27V150.873H321.4V151.898H317.67V150.873H318.899Z" fill="#FF4C91"/>
<path d="M322.41 147.919C322.41 147.294 322.463 146.729 322.576 146.224C322.689 145.719 322.855 145.282 323.081 144.92C323.307 144.559 323.593 144.28 323.947 144.084C324.301 143.888 324.708 143.79 325.183 143.79C325.658 143.79 326.05 143.888 326.396 144.076C326.743 144.265 327.022 144.544 327.248 144.898C327.474 145.252 327.64 145.689 327.745 146.201C327.851 146.714 327.911 147.286 327.911 147.927C327.911 148.567 327.858 149.163 327.753 149.675C327.647 150.188 327.481 150.617 327.255 150.964C327.029 151.31 326.743 151.582 326.396 151.762C326.05 151.943 325.635 152.034 325.161 152.034C324.686 152.034 324.279 151.943 323.932 151.762C323.586 151.582 323.299 151.318 323.081 150.964C322.862 150.61 322.689 150.188 322.583 149.675C322.478 149.163 322.425 148.583 322.425 147.927L322.41 147.919ZM325.168 150.941C325.364 150.941 325.53 150.903 325.665 150.821C325.801 150.738 325.922 150.625 326.012 150.481C326.102 150.338 326.185 150.165 326.238 149.962C326.291 149.758 326.336 149.547 326.366 149.321C326.396 149.095 326.419 148.854 326.426 148.605C326.434 148.356 326.442 148.108 326.442 147.852C326.442 147.618 326.442 147.384 326.434 147.143C326.426 146.902 326.411 146.676 326.381 146.458C326.351 146.239 326.313 146.028 326.261 145.84C326.208 145.651 326.133 145.478 326.042 145.335C325.952 145.192 325.831 145.079 325.696 144.996C325.56 144.913 325.387 144.875 325.191 144.875C324.995 144.875 324.814 144.913 324.671 144.996C324.527 145.079 324.407 145.184 324.309 145.327C324.211 145.47 324.136 145.636 324.075 145.825C324.015 146.013 323.97 146.224 323.94 146.45C323.91 146.676 323.887 146.91 323.879 147.158C323.872 147.407 323.864 147.648 323.864 147.897C323.864 148.145 323.864 148.387 323.879 148.635C323.894 148.884 323.91 149.118 323.94 149.344C323.97 149.57 324.015 149.781 324.075 149.977C324.136 150.172 324.211 150.338 324.301 150.481C324.392 150.625 324.512 150.738 324.656 150.821C324.799 150.903 324.965 150.941 325.161 150.941H325.168Z" fill="#FF4C91"/>
<path d="M510.87 203.5C510.704 203.41 510.508 203.327 510.29 203.252C510.071 203.176 509.815 203.146 509.536 203.146C509.28 203.146 509.054 203.199 508.858 203.312C508.662 203.425 508.496 203.576 508.353 203.771C508.21 203.967 508.097 204.216 508.006 204.502C507.916 204.789 507.856 205.105 507.81 205.467C507.893 205.384 507.999 205.309 508.119 205.241C508.24 205.173 508.375 205.113 508.511 205.068C508.647 205.022 508.798 204.985 508.948 204.955C509.099 204.924 509.25 204.917 509.393 204.917C509.762 204.917 510.086 204.97 510.373 205.075C510.659 205.181 510.9 205.339 511.103 205.535C511.307 205.731 511.45 205.979 511.555 206.273C511.661 206.567 511.714 206.891 511.714 207.26C511.714 207.63 511.653 207.984 511.54 208.293C511.427 208.602 511.246 208.865 511.013 209.084C510.779 209.302 510.493 209.476 510.139 209.596C509.785 209.717 509.385 209.777 508.926 209.777C508.504 209.777 508.142 209.709 507.833 209.574C507.524 209.438 507.275 209.235 507.072 208.971C506.868 208.707 506.725 208.376 506.627 207.976C506.529 207.577 506.484 207.117 506.484 206.597C506.484 205.889 506.544 205.256 506.657 204.698C506.77 204.141 506.959 203.681 507.215 203.304C507.471 202.928 507.803 202.641 508.202 202.445C508.602 202.249 509.106 202.151 509.687 202.151C509.807 202.151 509.943 202.159 510.086 202.174C510.229 202.189 510.372 202.212 510.516 202.249C510.659 202.287 510.802 202.325 510.938 202.37C511.073 202.415 511.201 202.475 511.307 202.536L510.862 203.508L510.87 203.5ZM510.395 207.283C510.395 207.072 510.365 206.884 510.312 206.71C510.259 206.537 510.169 206.394 510.056 206.266C509.943 206.138 509.807 206.047 509.641 205.979C509.476 205.912 509.287 205.881 509.069 205.881C508.926 205.881 508.797 205.889 508.684 205.904C508.571 205.919 508.466 205.949 508.376 205.979C508.285 206.01 508.195 206.055 508.112 206.107C508.029 206.16 507.954 206.221 507.878 206.288C507.863 206.326 507.848 206.371 507.833 206.416C507.818 206.462 507.81 206.514 507.81 206.567C507.81 206.62 507.803 206.673 507.795 206.718C507.788 206.763 507.795 206.808 507.795 206.838C507.795 207.185 507.833 207.479 507.901 207.72C507.969 207.961 508.059 208.157 508.172 208.315C508.285 208.474 508.421 208.579 508.571 208.654C508.722 208.73 508.88 208.76 509.046 208.76C509.227 208.76 509.4 208.73 509.559 208.669C509.717 208.609 509.868 208.511 509.988 208.391C510.109 208.27 510.207 208.112 510.282 207.923C510.357 207.735 510.387 207.517 510.387 207.275L510.395 207.283Z" fill="#FF4C91"/>
<path d="M321.913 109.12C321.747 109.029 321.551 108.947 321.332 108.871C321.114 108.796 320.858 108.766 320.579 108.766C320.323 108.766 320.097 108.818 319.901 108.931C319.705 109.045 319.539 109.195 319.396 109.391C319.253 109.587 319.14 109.836 319.049 110.122C318.959 110.408 318.898 110.725 318.853 111.087C318.936 111.004 319.042 110.928 319.162 110.861C319.283 110.793 319.418 110.732 319.554 110.687C319.69 110.642 319.84 110.604 319.991 110.574C320.142 110.544 320.293 110.537 320.436 110.537C320.805 110.537 321.129 110.589 321.415 110.695C321.702 110.8 321.943 110.959 322.146 111.154C322.35 111.35 322.493 111.599 322.598 111.893C322.704 112.187 322.756 112.511 322.756 112.88C322.756 113.249 322.696 113.603 322.583 113.912C322.47 114.221 322.289 114.485 322.056 114.704C321.822 114.922 321.536 115.095 321.182 115.216C320.828 115.337 320.428 115.397 319.968 115.397C319.546 115.397 319.185 115.329 318.876 115.193C318.567 115.058 318.318 114.854 318.115 114.591C317.911 114.327 317.768 113.995 317.67 113.596C317.572 113.197 317.527 112.737 317.527 112.217C317.527 111.509 317.587 110.876 317.7 110.318C317.813 109.76 318.002 109.301 318.258 108.924C318.514 108.547 318.846 108.261 319.245 108.065C319.644 107.869 320.149 107.771 320.73 107.771C320.85 107.771 320.986 107.779 321.129 107.794C321.272 107.809 321.415 107.831 321.558 107.869C321.702 107.907 321.845 107.944 321.981 107.99C322.116 108.035 322.244 108.095 322.35 108.155L321.905 109.127L321.913 109.12ZM321.445 112.903C321.445 112.692 321.415 112.503 321.363 112.33C321.31 112.157 321.219 112.013 321.106 111.885C320.993 111.757 320.858 111.667 320.692 111.599C320.526 111.531 320.338 111.501 320.119 111.501C319.976 111.501 319.848 111.509 319.735 111.524C319.622 111.539 319.516 111.569 319.426 111.599C319.335 111.629 319.245 111.674 319.162 111.727C319.079 111.78 319.004 111.84 318.929 111.908C318.914 111.946 318.898 111.991 318.883 112.036C318.868 112.081 318.861 112.134 318.861 112.187C318.861 112.24 318.853 112.292 318.846 112.337C318.838 112.383 318.846 112.428 318.846 112.458C318.846 112.805 318.883 113.099 318.951 113.34C319.019 113.581 319.109 113.777 319.222 113.935C319.335 114.093 319.471 114.199 319.622 114.274C319.773 114.349 319.931 114.38 320.097 114.38C320.278 114.38 320.451 114.349 320.609 114.289C320.767 114.229 320.918 114.131 321.039 114.01C321.159 113.89 321.257 113.732 321.332 113.543C321.408 113.355 321.438 113.136 321.438 112.895L321.445 112.903Z" fill="#FF4C91"/>
</svg>
