<svg width="442" height="1228" viewBox="0 0 442 1228" fill="none" xmlns="http://www.w3.org/2000/svg">
<path d="M110 0H98V1132H110V0Z" fill="#4857F6"/>
<path d="M348 0H336V1098H348V0Z" fill="#4857F6"/>
<rect x="54" y="1054" width="339" height="174" fill="black"/>
<path d="M177.968 1096.65C177.968 1097.8 177.756 1098.98 177.33 1100.19C176.904 1101.39 176.259 1102.51 175.395 1103.54C174.544 1104.56 173.467 1105.38 172.164 1106.01C170.861 1106.65 169.332 1106.96 167.578 1106.96C165.166 1106.96 163.115 1106.34 161.425 1105.09C159.735 1103.82 158.445 1102.09 157.555 1099.88C156.678 1097.67 156.239 1095.15 156.239 1092.31C156.239 1089.46 156.678 1086.94 157.555 1084.75C158.445 1082.54 159.735 1080.81 161.425 1079.56C163.115 1078.31 165.166 1077.69 167.578 1077.69C169.59 1077.69 171.306 1078.1 172.725 1078.93C174.144 1079.75 175.272 1080.8 176.111 1082.08C176.949 1083.36 177.498 1084.67 177.756 1086.03C177.897 1086.71 177.968 1087.35 177.968 1087.96H174.66C174.66 1087.61 174.627 1087.21 174.563 1086.76C174.408 1085.68 174.034 1084.68 173.441 1083.76C172.86 1082.83 172.08 1082.09 171.099 1081.54C170.119 1080.97 168.945 1080.69 167.578 1080.69C165.978 1080.69 164.579 1081.12 163.379 1082C162.192 1082.88 161.264 1084.18 160.593 1085.91C159.935 1087.64 159.606 1089.77 159.606 1092.31C159.606 1094.86 159.935 1097 160.593 1098.74C161.264 1100.47 162.192 1101.78 163.379 1102.67C164.579 1103.54 165.978 1103.98 167.578 1103.98C168.726 1103.98 169.739 1103.78 170.616 1103.36C171.493 1102.94 172.228 1102.38 172.822 1101.68C173.428 1100.97 173.886 1100.18 174.195 1099.32C174.505 1098.44 174.66 1097.55 174.66 1096.65H177.968ZM181.9 1106.57V1086.03H185.151V1106.57H181.9ZM183.545 1081.31C182.939 1081.31 182.41 1081.14 181.959 1080.8C181.52 1080.45 181.301 1079.98 181.301 1079.39C181.301 1078.81 181.52 1078.35 181.959 1078.02C182.41 1077.67 182.939 1077.49 183.545 1077.49C184.151 1077.49 184.674 1077.67 185.112 1078.02C185.551 1078.35 185.77 1078.81 185.77 1079.39C185.77 1079.98 185.551 1080.45 185.112 1080.8C184.674 1081.14 184.151 1081.31 183.545 1081.31ZM190.107 1106.57V1086.03H193.397V1092.33L192.313 1091.95C192.39 1091.19 192.584 1090.44 192.893 1089.7C193.203 1088.95 193.629 1088.28 194.17 1087.69C194.725 1087.08 195.415 1086.61 196.241 1086.26C197.066 1085.9 198.034 1085.72 199.143 1085.72C199.969 1085.72 200.639 1085.79 201.155 1085.93C201.684 1086.06 202.013 1086.16 202.142 1086.24L201.291 1089.47C201.162 1089.38 200.897 1089.26 200.498 1089.12C200.111 1088.98 199.556 1088.91 198.834 1088.91C197.763 1088.91 196.873 1089.1 196.163 1089.49C195.467 1089.88 194.912 1090.39 194.499 1091.04C194.1 1091.67 193.816 1092.36 193.648 1093.11C193.48 1093.86 193.397 1094.6 193.397 1095.33V1106.57H190.107ZM213.89 1106.96C211.929 1106.96 210.149 1106.54 208.55 1105.68C206.95 1104.82 205.68 1103.59 204.738 1101.99C203.809 1100.39 203.345 1098.49 203.345 1096.28C203.345 1094.08 203.809 1092.19 204.738 1090.61C205.68 1089.03 206.95 1087.81 208.55 1086.97C210.149 1086.14 211.929 1085.72 213.89 1085.72C215.386 1085.72 216.722 1085.95 217.895 1086.41C219.069 1086.86 220.062 1087.47 220.875 1088.23C221.688 1088.99 222.307 1089.83 222.733 1090.75C223.171 1091.65 223.391 1092.55 223.391 1093.46C223.391 1093.47 223.391 1093.49 223.391 1093.51C223.391 1093.54 223.391 1093.57 223.391 1093.59H220.121C220.121 1093.53 220.114 1093.46 220.101 1093.38C220.088 1093.29 220.075 1093.2 220.062 1093.11C219.959 1092.24 219.63 1091.49 219.076 1090.84C218.521 1090.19 217.799 1089.67 216.909 1089.3C216.019 1088.92 215.006 1088.74 213.871 1088.74C212.594 1088.74 211.407 1089.01 210.311 1089.57C209.227 1090.11 208.35 1090.94 207.679 1092.06C207.021 1093.17 206.692 1094.58 206.692 1096.28C206.692 1097.97 207.021 1099.38 207.679 1100.52C208.337 1101.65 209.208 1102.51 210.291 1103.09C211.388 1103.66 212.581 1103.94 213.871 1103.94C215.264 1103.94 216.412 1103.72 217.315 1103.29C218.218 1102.85 218.895 1102.27 219.347 1101.54C219.811 1100.81 220.069 1100.02 220.121 1099.18H223.391C223.391 1100.11 223.184 1101.04 222.771 1101.97C222.359 1102.89 221.752 1103.72 220.953 1104.49C220.153 1105.23 219.16 1105.83 217.973 1106.28C216.799 1106.74 215.438 1106.96 213.89 1106.96ZM234.937 1106.94C233.467 1106.94 232.241 1106.69 231.261 1106.19C230.281 1105.67 229.5 1105.01 228.92 1104.2C228.352 1103.38 227.946 1102.51 227.701 1101.56C227.469 1100.61 227.353 1099.69 227.353 1098.82C227.353 1098.33 227.353 1097.82 227.353 1097.31C227.353 1096.78 227.353 1096.25 227.353 1095.72V1086.03H230.661V1095.29C230.661 1095.77 230.661 1096.24 230.661 1096.71C230.661 1097.17 230.661 1097.61 230.661 1098.02C230.661 1099.07 230.803 1100.03 231.087 1100.93C231.384 1101.82 231.893 1102.54 232.615 1103.09C233.338 1103.63 234.331 1103.9 235.595 1103.9C236.782 1103.9 237.82 1103.55 238.71 1102.84C239.6 1102.12 240.297 1101.22 240.8 1100.15C241.303 1099.07 241.555 1097.99 241.555 1096.92L243.47 1097.71C243.47 1098.85 243.27 1099.96 242.87 1101.06C242.471 1102.14 241.897 1103.13 241.148 1104.02C240.413 1104.91 239.517 1105.62 238.459 1106.15C237.414 1106.68 236.24 1106.94 234.937 1106.94ZM241.555 1106.57V1086.03H244.844V1106.57H241.555ZM252.936 1076.33V1106.57H249.686V1076.33H252.936ZM264.974 1106.96C263.413 1106.96 262.046 1106.72 260.872 1106.23C259.711 1105.74 258.808 1105.03 258.163 1104.12C257.518 1103.19 257.196 1102.08 257.196 1100.79C257.196 1099.45 257.544 1098.33 258.241 1097.44C258.937 1096.54 259.917 1095.84 261.182 1095.33C262.446 1094.83 263.916 1094.49 265.593 1094.33C268.121 1094.07 269.921 1093.82 270.992 1093.57C272.062 1093.31 272.598 1092.9 272.598 1092.33C272.598 1092.32 272.598 1092.31 272.598 1092.31C272.598 1092.3 272.598 1092.29 272.598 1092.28C272.598 1091.09 272.114 1090.21 271.146 1089.63C270.179 1089.03 268.779 1088.74 266.948 1088.74C265.038 1088.74 263.555 1089.07 262.497 1089.74C261.44 1090.4 260.911 1091.47 260.911 1092.95H257.66C257.66 1091.42 258.053 1090.12 258.84 1089.04C259.627 1087.96 260.717 1087.14 262.11 1086.57C263.516 1086 265.135 1085.72 266.967 1085.72C268.644 1085.72 270.153 1085.97 271.495 1086.49C272.849 1086.99 273.92 1087.75 274.707 1088.75C275.506 1089.75 275.906 1090.98 275.906 1092.45C275.906 1092.72 275.906 1092.99 275.906 1093.26C275.906 1093.52 275.906 1093.79 275.906 1094.06V1102.71C275.906 1103.16 275.926 1103.6 275.964 1104.02C276.003 1104.45 276.067 1104.82 276.158 1105.14C276.274 1105.53 276.403 1105.85 276.545 1106.09C276.687 1106.32 276.803 1106.48 276.893 1106.57H273.584C273.52 1106.51 273.423 1106.36 273.294 1106.13C273.165 1105.88 273.043 1105.6 272.926 1105.28C272.836 1105.02 272.765 1104.7 272.714 1104.31C272.662 1103.91 272.636 1103.5 272.636 1103.07L273.178 1103.44C272.778 1104.14 272.191 1104.75 271.417 1105.28C270.656 1105.81 269.734 1106.22 268.65 1106.52C267.567 1106.81 266.341 1106.96 264.974 1106.96ZM265.496 1104C266.825 1104 268.025 1103.8 269.095 1103.4C270.166 1102.99 271.017 1102.38 271.649 1101.58C272.281 1100.78 272.598 1099.79 272.598 1098.6V1094.52L273.333 1095.76C272.507 1096.08 271.475 1096.35 270.237 1096.55C269.011 1096.75 267.728 1096.91 266.386 1097.04C264.439 1097.22 262.968 1097.56 261.975 1098.06C260.995 1098.56 260.504 1099.41 260.504 1100.6C260.504 1101.72 260.911 1102.57 261.723 1103.15C262.536 1103.72 263.794 1104 265.496 1104ZM280.216 1106.57V1086.03H283.506V1092.33L282.422 1091.95C282.499 1091.19 282.693 1090.44 283.002 1089.7C283.312 1088.95 283.738 1088.28 284.279 1087.69C284.834 1087.08 285.524 1086.61 286.35 1086.26C287.175 1085.9 288.143 1085.72 289.252 1085.72C290.078 1085.72 290.749 1085.79 291.264 1085.93C291.793 1086.06 292.122 1086.16 292.251 1086.24L291.4 1089.47C291.271 1089.38 291.006 1089.26 290.607 1089.12C290.22 1088.98 289.665 1088.91 288.943 1088.91C287.872 1088.91 286.982 1089.1 286.272 1089.49C285.576 1089.88 285.021 1090.39 284.608 1091.04C284.209 1091.67 283.925 1092.36 283.757 1093.11C283.589 1093.86 283.506 1094.6 283.506 1095.33V1106.57H280.216ZM131.272 1154.57V1126.04H141.179C143.798 1126.04 145.791 1126.65 147.158 1127.89C148.525 1129.13 149.209 1131.02 149.209 1133.56C149.209 1135.08 148.919 1136.38 148.338 1137.45C147.771 1138.51 147.081 1139.33 146.268 1139.91C145.468 1140.49 144.726 1140.82 144.043 1140.9C144.739 1140.95 145.423 1141.14 146.094 1141.48C146.777 1141.8 147.345 1142.3 147.796 1142.98C148.248 1143.67 148.474 1144.58 148.474 1145.73C148.474 1146.79 148.474 1147.87 148.474 1148.98C148.474 1150.08 148.474 1151.16 148.474 1152.23C148.474 1152.79 148.519 1153.29 148.609 1153.72C148.699 1154.15 148.803 1154.43 148.919 1154.57H145.591C145.5 1154.41 145.41 1154.12 145.32 1153.7C145.229 1153.29 145.184 1152.8 145.184 1152.23C145.184 1151.24 145.184 1150.23 145.184 1149.2C145.184 1148.16 145.184 1147.14 145.184 1146.14C145.184 1144.87 144.784 1143.93 143.985 1143.31C143.185 1142.69 142.056 1142.39 140.599 1142.39H133.575L134.504 1141.13V1154.57H131.272ZM134.504 1140.86L133.575 1139.48H140.637C141.592 1139.48 142.456 1139.25 143.23 1138.79C144.017 1138.31 144.643 1137.65 145.107 1136.81C145.584 1135.96 145.823 1134.97 145.823 1133.83C145.823 1132.07 145.358 1130.81 144.43 1130.06C143.501 1129.31 142.159 1128.94 140.405 1128.94H133.498L134.504 1127.51V1140.86ZM154.423 1145.62V1142.68H170.308L169.728 1143.64C169.728 1143.57 169.728 1143.49 169.728 1143.43C169.728 1143.35 169.728 1143.28 169.728 1143.22C169.728 1142.03 169.476 1140.95 168.973 1139.97C168.483 1138.97 167.748 1138.18 166.767 1137.59C165.787 1136.99 164.574 1136.7 163.13 1136.7C161.672 1136.7 160.389 1137.01 159.279 1137.63C158.17 1138.24 157.306 1139.12 156.686 1140.26C156.067 1141.38 155.758 1142.72 155.758 1144.28C155.758 1145.87 156.054 1147.24 156.648 1148.38C157.254 1149.53 158.112 1150.41 159.221 1151.03C160.33 1151.65 161.646 1151.96 163.168 1151.96C164.252 1151.96 165.194 1151.85 165.993 1151.63C166.793 1151.4 167.451 1151.1 167.967 1150.72C168.496 1150.34 168.896 1149.92 169.167 1149.47C169.437 1149.02 169.599 1148.56 169.65 1148.11H172.94C172.875 1148.94 172.617 1149.76 172.166 1150.57C171.714 1151.38 171.076 1152.12 170.25 1152.79C169.425 1153.45 168.412 1153.98 167.212 1154.38C166.013 1154.78 164.632 1154.98 163.072 1154.98C161.008 1154.98 159.189 1154.53 157.615 1153.63C156.041 1152.72 154.803 1151.47 153.9 1149.87C153.01 1148.27 152.565 1146.44 152.565 1144.36C152.565 1142.26 153.017 1140.41 153.92 1138.82C154.822 1137.23 156.067 1135.97 157.654 1135.07C159.24 1134.17 161.053 1133.72 163.091 1133.72C165.168 1133.72 166.967 1134.17 168.489 1135.07C170.011 1135.97 171.185 1137.21 172.011 1138.79C172.836 1140.35 173.249 1142.13 173.249 1144.13C173.249 1144.33 173.243 1144.6 173.23 1144.94C173.217 1145.27 173.198 1145.5 173.172 1145.62H154.423ZM184.394 1154.96C182.833 1154.96 181.465 1154.72 180.292 1154.23C179.131 1153.74 178.228 1153.03 177.583 1152.12C176.938 1151.19 176.615 1150.08 176.615 1148.79C176.615 1147.45 176.964 1146.33 177.66 1145.44C178.357 1144.54 179.337 1143.84 180.601 1143.33C181.865 1142.83 183.336 1142.49 185.013 1142.33C187.541 1142.07 189.341 1141.82 190.411 1141.57C191.482 1141.31 192.017 1140.9 192.017 1140.33C192.017 1140.32 192.017 1140.31 192.017 1140.31C192.017 1140.3 192.017 1140.29 192.017 1140.28C192.017 1139.09 191.533 1138.21 190.566 1137.63C189.599 1137.03 188.199 1136.74 186.367 1136.74C184.458 1136.74 182.975 1137.07 181.917 1137.74C180.859 1138.4 180.33 1139.47 180.33 1140.95H177.08C177.08 1139.42 177.473 1138.12 178.26 1137.04C179.047 1135.96 180.137 1135.14 181.53 1134.57C182.936 1134 184.555 1133.72 186.387 1133.72C188.063 1133.72 189.573 1133.97 190.914 1134.49C192.269 1134.99 193.339 1135.75 194.126 1136.75C194.926 1137.75 195.326 1138.98 195.326 1140.45C195.326 1140.72 195.326 1140.99 195.326 1141.26C195.326 1141.52 195.326 1141.79 195.326 1142.06V1150.71C195.326 1151.16 195.345 1151.6 195.384 1152.02C195.423 1152.45 195.487 1152.82 195.577 1153.14C195.693 1153.53 195.822 1153.85 195.964 1154.09C196.106 1154.32 196.222 1154.48 196.313 1154.57H193.004C192.939 1154.51 192.843 1154.36 192.714 1154.13C192.585 1153.88 192.462 1153.6 192.346 1153.28C192.256 1153.02 192.185 1152.7 192.133 1152.31C192.082 1151.91 192.056 1151.5 192.056 1151.07L192.598 1151.44C192.198 1152.14 191.611 1152.75 190.837 1153.28C190.076 1153.81 189.153 1154.22 188.07 1154.52C186.986 1154.81 185.761 1154.96 184.394 1154.96ZM184.916 1152C186.245 1152 187.444 1151.8 188.515 1151.4C189.586 1150.99 190.437 1150.38 191.069 1149.58C191.701 1148.78 192.017 1147.79 192.017 1146.6V1142.52L192.752 1143.76C191.927 1144.08 190.895 1144.35 189.657 1144.55C188.431 1144.75 187.148 1144.91 185.806 1145.04C183.858 1145.22 182.388 1145.56 181.395 1146.06C180.414 1146.56 179.924 1147.41 179.924 1148.6C179.924 1149.72 180.33 1150.57 181.143 1151.15C181.956 1151.72 183.213 1152 184.916 1152ZM207.492 1154.96C206.253 1154.96 205.105 1154.83 204.047 1154.57C203.003 1154.3 202.087 1153.92 201.3 1153.41C200.526 1152.9 199.92 1152.27 199.481 1151.52C199.055 1150.77 198.843 1149.91 198.843 1148.94C198.843 1148.84 198.843 1148.74 198.843 1148.63C198.843 1148.52 198.843 1148.42 198.843 1148.34H202.151C202.151 1148.42 202.151 1148.49 202.151 1148.54C202.151 1148.59 202.151 1148.67 202.151 1148.77C202.151 1149.82 202.635 1150.61 203.602 1151.17C204.57 1151.71 205.892 1151.98 207.569 1151.98C208.601 1151.98 209.523 1151.88 210.336 1151.67C211.148 1151.47 211.787 1151.15 212.251 1150.72C212.729 1150.3 212.967 1149.76 212.967 1149.12C212.967 1148.05 212.464 1147.29 211.458 1146.84C210.465 1146.37 208.975 1145.97 206.988 1145.64C205.944 1145.46 204.95 1145.22 204.009 1144.94C203.067 1144.64 202.229 1144.26 201.493 1143.8C200.771 1143.33 200.197 1142.76 199.771 1142.08C199.358 1141.38 199.152 1140.55 199.152 1139.58C199.152 1138.33 199.52 1137.27 200.255 1136.41C201.003 1135.53 202.009 1134.86 203.273 1134.41C204.538 1133.95 205.944 1133.72 207.492 1133.72C208.988 1133.72 210.368 1133.96 211.632 1134.43C212.896 1134.91 213.909 1135.61 214.67 1136.52C215.444 1137.43 215.831 1138.54 215.831 1139.87C215.831 1139.92 215.831 1139.99 215.831 1140.06C215.831 1140.13 215.831 1140.19 215.831 1140.26H212.542C212.542 1140.19 212.542 1140.14 212.542 1140.1C212.542 1140.06 212.542 1140.02 212.542 1139.97C212.542 1139.22 212.303 1138.61 211.826 1138.13C211.348 1137.64 210.729 1137.28 209.968 1137.04C209.207 1136.8 208.394 1136.68 207.53 1136.68C206.718 1136.68 205.918 1136.77 205.131 1136.95C204.344 1137.12 203.693 1137.4 203.177 1137.8C202.661 1138.2 202.403 1138.75 202.403 1139.44C202.403 1140.14 202.641 1140.7 203.119 1141.13C203.609 1141.54 204.292 1141.88 205.17 1142.15C206.06 1142.41 207.105 1142.65 208.304 1142.87C209.375 1143.06 210.387 1143.31 211.342 1143.6C212.297 1143.89 213.135 1144.26 213.857 1144.71C214.593 1145.16 215.167 1145.73 215.579 1146.43C216.005 1147.11 216.218 1147.95 216.218 1148.94C216.218 1149.95 215.986 1150.83 215.521 1151.58C215.07 1152.32 214.438 1152.95 213.625 1153.45C212.825 1153.96 211.897 1154.33 210.839 1154.57C209.794 1154.83 208.678 1154.96 207.492 1154.96ZM229.9 1154.94C227.836 1154.94 226.01 1154.48 224.424 1153.57C222.85 1152.64 221.612 1151.38 220.709 1149.78C219.819 1148.16 219.374 1146.33 219.374 1144.28C219.374 1142.23 219.819 1140.41 220.709 1138.82C221.612 1137.24 222.85 1135.99 224.424 1135.09C226.01 1134.19 227.836 1133.74 229.9 1133.74C231.963 1133.74 233.782 1134.19 235.356 1135.09C236.943 1135.99 238.181 1137.24 239.071 1138.82C239.974 1140.41 240.425 1142.23 240.425 1144.28C240.425 1146.33 239.974 1148.16 239.071 1149.78C238.181 1151.38 236.943 1152.64 235.356 1153.57C233.782 1154.48 231.963 1154.94 229.9 1154.94ZM229.9 1151.92C231.318 1151.92 232.57 1151.61 233.653 1150.98C234.737 1150.34 235.582 1149.45 236.188 1148.31C236.807 1147.16 237.117 1145.82 237.117 1144.28C237.117 1142.75 236.807 1141.42 236.188 1140.3C235.582 1139.16 234.737 1138.29 233.653 1137.68C232.57 1137.06 231.318 1136.75 229.9 1136.75C228.493 1136.75 227.242 1137.06 226.146 1137.68C225.062 1138.29 224.211 1139.16 223.592 1140.3C222.985 1141.42 222.682 1142.75 222.682 1144.28C222.682 1145.82 222.985 1147.16 223.592 1148.31C224.211 1149.45 225.062 1150.34 226.146 1150.98C227.242 1151.61 228.493 1151.92 229.9 1151.92ZM259.107 1154.57V1144.73C259.107 1144.13 259.107 1143.65 259.107 1143.28C259.107 1142.89 259.107 1142.52 259.107 1142.17C259.107 1141.1 258.926 1140.17 258.565 1139.37C258.204 1138.57 257.636 1137.95 256.862 1137.51C256.088 1137.07 255.076 1136.85 253.825 1136.85C252.728 1136.85 251.709 1137.14 250.767 1137.7C249.839 1138.26 249.091 1139.01 248.523 1139.97C247.968 1140.91 247.691 1141.97 247.691 1143.14L245.814 1142.42C245.814 1140.81 246.208 1139.35 246.994 1138.03C247.794 1136.72 248.852 1135.67 250.168 1134.9C251.496 1134.11 252.941 1133.72 254.502 1133.72C256.088 1133.72 257.475 1134.02 258.662 1134.63C259.849 1135.23 260.764 1136.1 261.409 1137.24C262.067 1138.36 262.396 1139.71 262.396 1141.3C262.396 1141.87 262.396 1142.49 262.396 1143.16C262.396 1143.83 262.396 1144.46 262.396 1145.04V1154.57H259.107ZM244.402 1154.57V1134.03H247.691V1154.57H244.402ZM267.167 1154.57V1134.03H270.418V1154.57H267.167ZM268.812 1129.31C268.205 1129.31 267.676 1129.14 267.225 1128.8C266.786 1128.45 266.567 1127.98 266.567 1127.39C266.567 1126.81 266.786 1126.35 267.225 1126.02C267.676 1125.67 268.205 1125.49 268.812 1125.49C269.418 1125.49 269.94 1125.67 270.379 1126.02C270.817 1126.35 271.037 1126.81 271.037 1127.39C271.037 1127.98 270.817 1128.45 270.379 1128.8C269.94 1129.14 269.418 1129.31 268.812 1129.31ZM290.079 1154.57V1144.73C290.079 1144.13 290.079 1143.65 290.079 1143.28C290.079 1142.89 290.079 1142.52 290.079 1142.17C290.079 1141.1 289.898 1140.17 289.537 1139.37C289.176 1138.57 288.608 1137.95 287.834 1137.51C287.06 1137.07 286.048 1136.85 284.797 1136.85C283.7 1136.85 282.681 1137.14 281.739 1137.7C280.811 1138.26 280.063 1139.01 279.495 1139.97C278.94 1140.91 278.663 1141.97 278.663 1143.14L276.786 1142.42C276.786 1140.81 277.18 1139.35 277.966 1138.03C278.766 1136.72 279.824 1135.67 281.14 1134.9C282.468 1134.11 283.913 1133.72 285.474 1133.72C287.06 1133.72 288.447 1134.02 289.634 1134.63C290.821 1135.23 291.736 1136.1 292.381 1137.24C293.039 1138.36 293.368 1139.71 293.368 1141.3C293.368 1141.87 293.368 1142.49 293.368 1143.16C293.368 1143.83 293.368 1144.46 293.368 1145.04V1154.57H290.079ZM275.374 1154.57V1134.03H278.663V1154.57H275.374ZM311.064 1153.32C312.173 1153.41 313.147 1153.61 313.986 1153.94C314.837 1154.25 315.501 1154.7 315.979 1155.31C316.456 1155.93 316.695 1156.74 316.695 1157.73C316.695 1158.83 316.321 1159.79 315.572 1160.63C314.824 1161.48 313.689 1162.15 312.167 1162.62C310.645 1163.1 308.729 1163.34 306.42 1163.34C303.157 1163.34 300.693 1162.86 299.029 1161.91C297.365 1160.97 296.533 1159.68 296.533 1158.04C296.533 1157.52 296.591 1157.06 296.707 1156.66C296.836 1156.28 296.978 1155.96 297.133 1155.72L300.267 1156.18C300.164 1156.32 300.061 1156.54 299.958 1156.82C299.867 1157.12 299.822 1157.46 299.822 1157.84C299.822 1158.88 300.409 1159.6 301.583 1160.01C302.757 1160.44 304.421 1160.65 306.575 1160.65C308.188 1160.65 309.51 1160.54 310.542 1160.32C311.574 1160.1 312.341 1159.79 312.844 1159.37C313.347 1158.96 313.599 1158.48 313.599 1157.92C313.599 1157.08 313.244 1156.56 312.535 1156.36C311.838 1156.16 310.974 1156.03 309.942 1155.95L302.125 1155.37C300.822 1155.27 299.758 1154.87 298.932 1154.17C298.12 1153.46 297.713 1152.6 297.713 1151.6C297.713 1150.98 297.862 1150.39 298.158 1149.83C298.468 1149.28 298.823 1148.82 299.223 1148.44C299.635 1148.05 300.003 1147.82 300.325 1147.74L302.918 1148.93C302.596 1148.98 302.196 1149.2 301.719 1149.6C301.254 1149.99 301.022 1150.45 301.022 1150.98C301.022 1151.45 301.209 1151.85 301.583 1152.16C301.957 1152.45 302.699 1152.65 303.808 1152.74L311.064 1153.32ZM313.908 1134.03H317.004L315.727 1142.11C315.495 1143.62 315.011 1144.99 314.276 1146.22C313.541 1147.43 312.535 1148.4 311.258 1149.12C309.993 1149.83 308.426 1150.18 306.556 1150.18C304.608 1150.18 302.944 1149.83 301.564 1149.12C300.184 1148.41 299.126 1147.44 298.391 1146.22C297.655 1144.98 297.288 1143.58 297.288 1142.04C297.288 1140.46 297.668 1139.05 298.429 1137.8C299.203 1136.54 300.274 1135.54 301.641 1134.82C303.008 1134.08 304.576 1133.72 306.343 1133.72C307.93 1133.72 309.316 1133.99 310.503 1134.55C311.69 1135.09 312.625 1135.77 313.309 1136.6C314.005 1137.43 314.392 1138.26 314.47 1139.1L313.231 1139.17L313.908 1134.03ZM306.536 1147.24C307.788 1147.24 308.858 1147.04 309.748 1146.62C310.651 1146.21 311.341 1145.61 311.819 1144.82C312.309 1144.04 312.554 1143.08 312.554 1141.96C312.554 1140.88 312.309 1139.94 311.819 1139.15C311.341 1138.35 310.651 1137.74 309.748 1137.32C308.858 1136.88 307.794 1136.66 306.556 1136.66C305.369 1136.66 304.318 1136.88 303.402 1137.33C302.499 1137.77 301.789 1138.39 301.274 1139.19C300.77 1139.99 300.519 1140.93 300.519 1142.02C300.519 1143.11 300.758 1144.06 301.235 1144.84C301.725 1145.62 302.415 1146.21 303.305 1146.62C304.208 1147.04 305.285 1147.24 306.536 1147.24Z" fill="white"/>
<path d="M283.434 591.164H158.818C74.9714 591.164 7 659.135 7 742.982V780.706C7 864.553 74.9714 932.525 158.818 932.525H283.434C367.281 932.525 435.253 864.553 435.253 780.706V742.982C435.253 659.135 367.281 591.164 283.434 591.164Z" fill="#F4F4F4" stroke="#FF4C91" stroke-width="12.8993" stroke-miterlimit="10"/>
<path d="M283.434 632.008H158.818C97.5291 632.008 47.8443 681.693 47.8443 742.982V780.706C47.8443 841.995 97.5291 891.68 158.818 891.68H283.434C344.724 891.68 394.408 841.995 394.408 780.706V742.982C394.408 681.693 344.724 632.008 283.434 632.008Z" fill="#F4F4F4" stroke="#FF4C91" stroke-width="1.98452" stroke-miterlimit="10"/>
<path d="M283.434 672.853H158.818C120.087 672.853 88.6887 704.251 88.6887 742.982V780.706C88.6887 819.438 120.087 850.836 158.818 850.836H283.434C322.166 850.836 353.564 819.438 353.564 780.706V742.982C353.564 704.251 322.166 672.853 283.434 672.853Z" fill="#F4F4F4" stroke="#FF4C91" stroke-width="1.98452" stroke-miterlimit="10"/>
<path d="M7 761.191H435.253" stroke="#FF4C91" stroke-width="1.98452" stroke-miterlimit="10"/>
<path d="M221.122 591.164V932.525" stroke="#FF4C91" stroke-width="1.98452" stroke-miterlimit="10"/>
<path d="M129.533 742.982V780.706C129.533 796.88 142.645 809.991 158.818 809.991H283.434C299.608 809.991 312.72 796.88 312.72 780.706V742.982C312.72 726.808 299.608 713.697 283.434 713.697H158.818C142.645 713.697 129.533 726.808 129.533 742.982Z" fill="#4857F6" stroke="#FF4C91" stroke-width="1.98452" stroke-miterlimit="10"/>
<path d="M286.694 478.205L176.986 566.412L286.694 654.62V597.838C286.694 597.838 481.194 595.436 390.512 761.183C390.512 761.183 454.768 716.744 436.151 621.258C417.534 525.772 296.978 535.379 286.694 535.379V478.205Z" fill="#FF4C91"/>
<path d="M159.848 1044.84L269.556 956.631L159.848 868.423V925.205C159.848 925.205 -34.653 927.607 56.0296 761.861C56.0296 761.861 -8.22671 806.299 10.3901 901.785C29.007 997.271 149.563 987.664 159.848 987.664V1044.85V1044.84Z" fill="#FF4C91"/>
<path d="M319.198 773.223V767.236L317.817 767.987V766.737L319.582 765.773H320.684V773.223H321.91V774.334H317.866V773.223H319.198Z" fill="#FF4C91"/>
<path d="M323.004 770.021C323.004 769.343 323.061 768.731 323.184 768.183C323.307 767.636 323.486 767.162 323.731 766.77C323.976 766.378 324.287 766.076 324.671 765.864C325.055 765.651 325.496 765.545 326.01 765.545C326.525 765.545 326.95 765.651 327.326 765.855C327.701 766.06 328.004 766.362 328.249 766.746C328.494 767.13 328.673 767.603 328.788 768.159C328.902 768.714 328.968 769.335 328.968 770.03C328.968 770.724 328.91 771.369 328.796 771.925C328.682 772.48 328.502 772.946 328.257 773.322C328.012 773.697 327.701 773.992 327.326 774.188C326.95 774.384 326.501 774.482 325.986 774.482C325.471 774.482 325.03 774.384 324.654 774.188C324.279 773.992 323.968 773.706 323.731 773.322C323.494 772.938 323.307 772.48 323.192 771.925C323.078 771.369 323.021 770.74 323.021 770.03L323.004 770.021ZM325.994 773.297C326.206 773.297 326.386 773.256 326.533 773.166C326.68 773.077 326.811 772.954 326.909 772.799C327.007 772.644 327.097 772.456 327.154 772.235C327.211 772.015 327.26 771.786 327.293 771.541C327.326 771.296 327.35 771.034 327.358 770.765C327.366 770.495 327.375 770.226 327.375 769.948C327.375 769.695 327.375 769.441 327.366 769.18C327.358 768.919 327.342 768.674 327.309 768.437C327.277 768.2 327.236 767.971 327.179 767.767C327.121 767.563 327.04 767.375 326.942 767.22C326.844 767.064 326.713 766.942 326.566 766.852C326.419 766.762 326.231 766.721 326.019 766.721C325.806 766.721 325.61 766.762 325.455 766.852C325.3 766.942 325.169 767.056 325.063 767.211C324.957 767.367 324.875 767.546 324.81 767.751C324.744 767.955 324.695 768.183 324.663 768.429C324.63 768.674 324.605 768.927 324.597 769.196C324.589 769.466 324.581 769.727 324.581 769.997C324.581 770.267 324.581 770.528 324.597 770.798C324.614 771.067 324.63 771.32 324.663 771.565C324.695 771.81 324.744 772.039 324.81 772.252C324.875 772.464 324.957 772.644 325.055 772.799C325.153 772.954 325.283 773.077 325.439 773.166C325.594 773.256 325.773 773.297 325.986 773.297H325.994Z" fill="#FF4C91"/>
<path d="M227.331 707.227V701.24L225.95 701.991V700.741L227.715 699.777H228.817V707.227H230.043V708.338H225.999V707.227H227.331Z" fill="#FF4C91"/>
<path d="M231.137 704.025C231.137 703.347 231.194 702.734 231.317 702.187C231.44 701.64 231.619 701.166 231.864 700.774C232.109 700.382 232.42 700.079 232.804 699.867C233.188 699.655 233.629 699.548 234.144 699.548C234.658 699.548 235.083 699.655 235.459 699.859C235.834 700.063 236.137 700.365 236.382 700.749C236.627 701.133 236.806 701.607 236.921 702.162C237.035 702.718 237.101 703.339 237.101 704.033C237.101 704.727 237.043 705.373 236.929 705.928C236.815 706.484 236.635 706.949 236.39 707.325C236.145 707.701 235.834 707.995 235.459 708.191C235.083 708.387 234.634 708.485 234.119 708.485C233.604 708.485 233.163 708.387 232.787 708.191C232.412 707.995 232.101 707.709 231.864 707.325C231.627 706.941 231.44 706.484 231.325 705.928C231.211 705.373 231.154 704.744 231.154 704.033L231.137 704.025ZM234.127 707.301C234.34 707.301 234.519 707.26 234.666 707.17C234.813 707.08 234.944 706.957 235.042 706.802C235.14 706.647 235.23 706.459 235.287 706.239C235.344 706.018 235.393 705.789 235.426 705.544C235.459 705.299 235.483 705.038 235.491 704.768C235.499 704.499 235.508 704.229 235.508 703.951C235.508 703.698 235.508 703.445 235.499 703.183C235.491 702.922 235.475 702.677 235.442 702.44C235.41 702.203 235.369 701.974 235.312 701.77C235.254 701.566 235.173 701.378 235.075 701.223C234.977 701.068 234.846 700.945 234.699 700.855C234.552 700.765 234.364 700.725 234.152 700.725C233.939 700.725 233.743 700.765 233.588 700.855C233.433 700.945 233.302 701.06 233.196 701.215C233.09 701.37 233.008 701.55 232.943 701.754C232.877 701.958 232.828 702.187 232.796 702.432C232.763 702.677 232.738 702.93 232.73 703.2C232.722 703.469 232.714 703.731 232.714 704C232.714 704.27 232.714 704.531 232.73 704.801C232.747 705.07 232.763 705.324 232.796 705.569C232.828 705.814 232.877 706.043 232.943 706.255C233.008 706.467 233.09 706.647 233.188 706.802C233.286 706.957 233.416 707.08 233.572 707.17C233.727 707.26 233.907 707.301 234.119 707.301H234.127Z" fill="#FF4C91"/>
<path d="M400.715 769.237C401.099 769.237 401.425 769.204 401.695 769.131C401.964 769.057 402.185 768.968 402.357 768.837C402.528 768.706 402.651 768.559 402.732 768.379C402.814 768.2 402.847 767.996 402.847 767.775C402.847 767.456 402.757 767.211 402.585 767.032C402.414 766.852 402.128 766.754 401.736 766.754C401.523 766.754 401.335 766.778 401.164 766.819C400.992 766.86 400.837 766.917 400.698 766.983C400.559 767.048 400.429 767.121 400.314 767.203C400.2 767.285 400.094 767.358 399.996 767.424L399.342 766.37C399.465 766.272 399.62 766.174 399.792 766.084C399.963 765.994 400.151 765.904 400.363 765.831C400.576 765.757 400.788 765.7 401.025 765.651C401.262 765.602 401.507 765.586 401.768 765.586C402.136 765.586 402.487 765.627 402.806 765.708C403.124 765.79 403.41 765.912 403.655 766.076C403.901 766.239 404.088 766.452 404.227 766.705C404.366 766.958 404.44 767.268 404.44 767.62C404.44 767.857 404.391 768.077 404.301 768.29C404.211 768.502 404.088 768.69 403.941 768.861C403.794 769.033 403.631 769.18 403.443 769.303C403.255 769.425 403.067 769.515 402.871 769.572C403.173 769.613 403.443 769.686 403.68 769.793C403.917 769.899 404.121 770.038 404.284 770.217C404.448 770.397 404.57 770.601 404.66 770.855C404.75 771.108 404.791 771.394 404.791 771.712C404.791 772.227 404.709 772.66 404.554 773.019C404.399 773.379 404.178 773.665 403.892 773.885C403.606 774.106 403.28 774.269 402.896 774.367C402.512 774.465 402.095 774.514 401.646 774.514C401.36 774.514 401.09 774.482 400.829 774.424C400.568 774.367 400.322 774.294 400.102 774.212C399.881 774.13 399.685 774.049 399.522 773.959C399.359 773.869 399.228 773.804 399.138 773.746L399.849 772.57C399.849 772.57 399.93 772.627 399.996 772.676C400.061 772.725 400.151 772.774 400.249 772.831C400.347 772.889 400.453 772.946 400.576 773.003C400.698 773.06 400.821 773.117 400.952 773.166C401.082 773.215 401.213 773.256 401.352 773.289C401.491 773.322 401.621 773.338 401.752 773.338C402.185 773.338 402.528 773.207 402.781 772.954C403.035 772.701 403.165 772.317 403.165 771.81C403.165 771.492 403.116 771.23 403.026 771.018C402.937 770.806 402.79 770.642 402.593 770.528C402.397 770.413 402.136 770.324 401.826 770.275C401.515 770.226 401.139 770.201 400.698 770.193L400.715 769.229V769.237Z" fill="#FF4C91"/>
<path d="M226.751 623.349C227.135 623.349 227.461 623.317 227.731 623.243C228 623.17 228.221 623.08 228.393 622.949C228.564 622.819 228.687 622.671 228.768 622.492C228.85 622.312 228.883 622.108 228.883 621.887C228.883 621.569 228.793 621.324 228.621 621.144C228.45 620.964 228.164 620.866 227.772 620.866C227.559 620.866 227.371 620.891 227.2 620.932C227.028 620.972 226.873 621.03 226.734 621.095C226.595 621.16 226.465 621.234 226.35 621.315C226.236 621.397 226.13 621.471 226.032 621.536L225.378 620.482C225.501 620.384 225.656 620.286 225.827 620.196C225.999 620.106 226.187 620.017 226.399 619.943C226.612 619.87 226.824 619.812 227.061 619.763C227.298 619.714 227.543 619.698 227.804 619.698C228.172 619.698 228.523 619.739 228.842 619.821C229.16 619.902 229.446 620.025 229.691 620.188C229.936 620.352 230.124 620.564 230.263 620.817C230.402 621.07 230.476 621.381 230.476 621.732C230.476 621.969 230.427 622.189 230.337 622.402C230.247 622.614 230.124 622.802 229.977 622.974C229.83 623.145 229.667 623.292 229.479 623.415C229.291 623.537 229.103 623.627 228.907 623.684C229.209 623.725 229.479 623.799 229.716 623.905C229.953 624.011 230.157 624.15 230.32 624.33C230.484 624.509 230.606 624.714 230.696 624.967C230.786 625.22 230.827 625.506 230.827 625.825C230.827 626.339 230.745 626.772 230.59 627.132C230.435 627.491 230.214 627.777 229.928 627.998C229.642 628.218 229.316 628.382 228.932 628.48C228.548 628.578 228.131 628.627 227.682 628.627C227.396 628.627 227.126 628.594 226.865 628.537C226.604 628.48 226.358 628.406 226.138 628.324C225.917 628.243 225.721 628.161 225.558 628.071C225.395 627.981 225.264 627.916 225.174 627.859L225.885 626.682C225.885 626.682 225.966 626.74 226.032 626.789C226.097 626.838 226.187 626.887 226.285 626.944C226.383 627.001 226.489 627.058 226.612 627.115C226.734 627.173 226.857 627.23 226.987 627.279C227.118 627.328 227.249 627.369 227.388 627.401C227.527 627.434 227.657 627.45 227.788 627.45C228.221 627.45 228.564 627.32 228.817 627.066C229.071 626.813 229.201 626.429 229.201 625.923C229.201 625.604 229.152 625.343 229.062 625.13C228.972 624.918 228.826 624.755 228.629 624.64C228.433 624.526 228.172 624.436 227.862 624.387C227.551 624.338 227.175 624.313 226.734 624.305L226.751 623.341V623.349Z" fill="#FF4C91"/>
<path d="M363.759 767.342C363.579 767.244 363.367 767.154 363.13 767.073C362.893 766.991 362.615 766.958 362.313 766.958C362.035 766.958 361.79 767.015 361.578 767.138C361.365 767.26 361.186 767.424 361.03 767.636C360.875 767.849 360.753 768.118 360.655 768.429C360.557 768.739 360.491 769.082 360.442 769.474C360.532 769.384 360.646 769.303 360.777 769.229C360.908 769.156 361.055 769.09 361.202 769.041C361.349 768.992 361.512 768.951 361.676 768.919C361.839 768.886 362.003 768.878 362.158 768.878C362.558 768.878 362.909 768.935 363.22 769.049C363.53 769.164 363.792 769.335 364.012 769.548C364.233 769.76 364.388 770.03 364.502 770.348C364.617 770.667 364.674 771.018 364.674 771.418C364.674 771.819 364.608 772.203 364.486 772.538C364.363 772.872 364.167 773.158 363.914 773.395C363.661 773.632 363.35 773.82 362.966 773.951C362.582 774.081 362.15 774.147 361.651 774.147C361.194 774.147 360.802 774.073 360.467 773.926C360.132 773.779 359.862 773.559 359.642 773.273C359.421 772.987 359.266 772.627 359.16 772.194C359.054 771.761 359.005 771.263 359.005 770.7C359.005 769.932 359.07 769.245 359.192 768.641C359.315 768.036 359.519 767.538 359.797 767.13C360.075 766.721 360.434 766.411 360.867 766.198C361.3 765.986 361.847 765.88 362.476 765.88C362.607 765.88 362.754 765.888 362.909 765.904C363.064 765.921 363.22 765.945 363.375 765.986C363.53 766.027 363.685 766.068 363.832 766.117C363.979 766.166 364.118 766.231 364.233 766.297L363.751 767.35L363.759 767.342ZM363.252 771.443C363.252 771.214 363.22 771.01 363.162 770.822C363.105 770.634 363.007 770.479 362.885 770.34C362.762 770.201 362.615 770.103 362.435 770.03C362.256 769.956 362.051 769.923 361.815 769.923C361.659 769.923 361.521 769.932 361.398 769.948C361.275 769.964 361.161 769.997 361.063 770.03C360.965 770.062 360.867 770.111 360.777 770.169C360.687 770.226 360.606 770.291 360.524 770.365C360.508 770.405 360.491 770.454 360.475 770.503C360.459 770.552 360.45 770.61 360.45 770.667C360.45 770.724 360.442 770.781 360.434 770.83C360.426 770.879 360.434 770.928 360.434 770.961C360.434 771.337 360.475 771.655 360.548 771.917C360.622 772.178 360.72 772.39 360.843 772.562C360.965 772.734 361.112 772.848 361.276 772.93C361.439 773.011 361.61 773.044 361.79 773.044C361.986 773.044 362.174 773.011 362.346 772.946C362.517 772.881 362.681 772.774 362.811 772.644C362.942 772.513 363.048 772.341 363.13 772.137C363.211 771.933 363.244 771.696 363.244 771.435L363.252 771.443Z" fill="#FF4C91"/>
<path d="M229.912 662.119C229.732 662.021 229.52 661.931 229.283 661.849C229.046 661.768 228.768 661.735 228.466 661.735C228.188 661.735 227.943 661.792 227.731 661.915C227.518 662.037 227.339 662.201 227.183 662.413C227.028 662.625 226.906 662.895 226.808 663.205C226.71 663.516 226.644 663.859 226.595 664.251C226.685 664.161 226.799 664.079 226.93 664.006C227.061 663.932 227.208 663.867 227.355 663.818C227.502 663.769 227.665 663.728 227.829 663.696C227.992 663.663 228.156 663.655 228.311 663.655C228.711 663.655 229.062 663.712 229.373 663.826C229.683 663.941 229.945 664.112 230.165 664.325C230.386 664.537 230.541 664.807 230.655 665.125C230.77 665.444 230.827 665.795 230.827 666.195C230.827 666.596 230.761 666.979 230.639 667.314C230.516 667.649 230.32 667.935 230.067 668.172C229.814 668.409 229.503 668.597 229.119 668.728C228.736 668.858 228.303 668.924 227.804 668.924C227.347 668.924 226.955 668.85 226.62 668.703C226.285 668.556 226.015 668.335 225.795 668.05C225.574 667.764 225.419 667.404 225.313 666.971C225.207 666.538 225.158 666.04 225.158 665.476C225.158 664.709 225.223 664.022 225.345 663.418C225.468 662.813 225.672 662.315 225.95 661.907C226.228 661.498 226.587 661.188 227.02 660.975C227.453 660.763 228 660.657 228.629 660.657C228.76 660.657 228.907 660.665 229.062 660.681C229.217 660.698 229.373 660.722 229.528 660.763C229.683 660.804 229.838 660.845 229.985 660.894C230.132 660.943 230.271 661.008 230.386 661.073L229.904 662.127L229.912 662.119ZM229.405 666.22C229.405 665.991 229.373 665.787 229.316 665.599C229.258 665.411 229.16 665.256 229.038 665.117C228.915 664.978 228.768 664.88 228.588 664.807C228.409 664.733 228.205 664.7 227.968 664.7C227.812 664.7 227.674 664.709 227.551 664.725C227.428 664.741 227.314 664.774 227.216 664.807C227.118 664.839 227.02 664.888 226.93 664.945C226.84 665.003 226.759 665.068 226.677 665.141C226.661 665.182 226.644 665.231 226.628 665.28C226.612 665.329 226.603 665.387 226.603 665.444C226.603 665.501 226.595 665.558 226.587 665.607C226.579 665.656 226.587 665.705 226.587 665.738C226.587 666.114 226.628 666.432 226.702 666.694C226.775 666.955 226.873 667.167 226.996 667.339C227.118 667.51 227.265 667.625 227.428 667.706C227.592 667.788 227.763 667.821 227.943 667.821C228.139 667.821 228.327 667.788 228.499 667.723C228.67 667.657 228.834 667.551 228.964 667.421C229.095 667.29 229.201 667.118 229.283 666.914C229.365 666.71 229.397 666.473 229.397 666.212L229.405 666.22Z" fill="#FF4C91"/>
<path d="M196.26 1186.41L195.168 1188.68C191.108 1188.06 187.72 1186.02 186.096 1183.25C184.5 1186.05 181.14 1188.12 177.052 1188.76L175.932 1186.47C180.916 1185.77 184.612 1182.74 184.612 1179.55V1178.52H187.58V1179.55C187.58 1182.66 191.304 1185.71 196.26 1186.41ZM180.328 1195.32V1200.33H195.028V1202.68H177.444V1195.32H180.328ZM174.644 1190.56H197.576V1192.88H187.776V1197.61H184.892V1192.88H174.644V1190.56ZM214.458 1180.14V1182.27H200.01V1180.14H205.806V1177.76H208.718V1180.14H214.458ZM203.93 1187.06C203.93 1188.23 205.218 1188.93 207.234 1188.93C209.25 1188.93 210.538 1188.23 210.538 1187.06C210.538 1185.85 209.25 1185.12 207.234 1185.12C205.218 1185.12 203.93 1185.85 203.93 1187.06ZM215.158 1191.82L215.382 1193.8C210.09 1194.81 204.07 1194.92 199.702 1194.95L199.366 1192.66C201.242 1192.66 203.482 1192.63 205.806 1192.57V1190.84C202.978 1190.5 201.214 1189.13 201.214 1187.06C201.214 1184.65 203.594 1183.16 207.234 1183.16C210.874 1183.16 213.254 1184.65 213.254 1187.06C213.254 1189.1 211.518 1190.5 208.718 1190.84V1192.43C210.902 1192.29 213.114 1192.12 215.158 1191.82ZM205.918 1196.38V1200.33H220.226V1202.68H203.034V1196.38H205.918ZM219.386 1186.44H222.858V1188.82H219.386V1197.64H216.502V1177.84H219.386V1186.44ZM230.192 1195.01V1200.33H244.976V1202.68H227.336V1195.01H230.192ZM237.388 1190.84H247.384V1193.19H224.508V1190.84H234.504V1187.48H227.476V1178.71H230.36V1185.15H244.78V1187.48H237.388V1190.84ZM267.486 1200.5V1197.84H256.79V1200.5H267.486ZM267.486 1195.57V1192.88H270.37V1202.82H253.934V1192.88H256.79V1195.57H267.486ZM259.394 1188.51V1184.96H253.43V1188.51H259.394ZM267.486 1177.84L270.37 1177.87V1191.73H267.486V1186.24H262.222V1190.86H250.574V1179.13H253.43V1182.72H259.394V1179.16H262.222V1183.89H267.486V1177.84Z" fill="white"/>
</svg>
